<svg id="svg" version="1.1" xmlns="http://www.w3.org/2000/svg" xmlns:xlink="http://www.w3.org/1999/xlink" width="400" height="400" viewBox="0, 0, 400,400"><g id="svgg"><path id="path0" d="M198.800 71.595 C 196.006 71.948,192.897 73.041,190.211 74.615 C 189.290 75.155,187.477 75.961,186.183 76.406 C 184.889 76.851,182.834 77.982,181.615 78.920 C 180.397 79.858,178.620 81.127,177.666 81.741 C 173.673 84.310,166.058 91.916,163.991 95.400 C 163.468 96.280,162.376 97.900,161.563 99.000 C 160.750 100.100,159.322 102.528,158.390 104.395 C 157.458 106.263,156.292 108.333,155.799 108.995 C 155.307 109.658,154.041 111.910,152.986 114.000 C 151.932 116.090,149.639 120.211,147.892 123.158 C 146.144 126.105,144.199 129.665,143.569 131.068 C 142.939 132.472,141.902 134.381,141.263 135.310 C 140.624 136.240,139.191 138.543,138.077 140.429 C 136.964 142.315,135.782 144.083,135.450 144.358 C 135.119 144.633,134.380 146.083,133.808 147.580 C 133.236 149.077,131.945 151.359,130.941 152.651 C 129.936 153.943,128.484 156.260,127.713 157.800 C 126.943 159.340,125.912 161.140,125.423 161.800 C 124.934 162.460,124.047 164.071,123.453 165.379 C 122.858 166.687,121.688 168.847,120.853 170.179 C 120.017 171.511,118.268 174.541,116.967 176.913 C 115.665 179.286,113.789 182.706,112.799 184.513 C 111.808 186.321,110.627 188.340,110.174 189.000 C 109.720 189.660,108.861 191.313,108.264 192.674 C 107.220 195.054,104.879 199.075,101.089 205.000 C 100.104 206.540,98.801 208.790,98.193 210.000 C 97.585 211.210,96.438 212.947,95.644 213.860 C 94.850 214.773,93.851 216.393,93.424 217.460 C 92.997 218.527,92.007 220.458,91.224 221.751 C 90.441 223.044,88.990 225.581,88.000 227.389 C 83.956 234.770,82.916 236.607,81.123 239.535 C 80.091 241.221,78.531 244.076,77.658 245.881 C 76.784 247.686,75.624 249.756,75.079 250.481 C 74.534 251.206,73.506 252.970,72.795 254.400 C 72.084 255.830,70.879 257.855,70.116 258.901 C 69.354 259.947,68.204 261.890,67.560 263.219 C 66.916 264.548,65.778 266.524,65.030 267.610 C 64.283 268.697,63.360 270.444,62.980 271.493 C 62.600 272.542,61.612 274.930,60.786 276.800 C 56.399 286.726,56.484 301.817,60.979 310.765 C 61.707 312.214,62.633 314.454,63.037 315.742 C 63.456 317.075,64.393 318.797,65.214 319.742 C 66.006 320.654,67.207 322.210,67.881 323.200 C 74.108 332.337,90.352 343.278,90.153 338.200 C 90.127 337.540,89.959 336.651,89.781 336.224 C 89.582 335.749,89.622 335.393,89.883 335.306 C 90.143 335.219,89.921 334.356,89.312 333.095 C 87.944 330.258,88.168 327.690,89.943 325.858 L 91.200 324.562 91.200 315.762 L 91.200 306.962 92.800 305.400 C 94.230 304.003,94.400 303.633,94.400 301.905 C 94.400 300.231,94.586 299.787,95.800 298.573 C 97.078 297.295,97.200 296.972,97.200 294.852 C 97.200 291.743,99.214 285.047,100.577 283.624 C 101.360 282.807,101.600 282.139,101.602 280.778 C 101.604 279.074,101.754 278.849,105.193 275.400 C 108.643 271.939,108.782 271.730,108.791 269.991 C 108.800 268.257,108.941 268.042,112.200 264.800 C 115.471 261.546,115.600 261.349,115.600 259.600 C 115.600 257.844,115.720 257.664,119.210 254.192 C 121.977 251.440,122.915 250.226,123.224 249.000 C 124.039 245.766,124.192 245.600,126.348 245.600 C 128.158 245.600,128.335 245.687,128.590 246.700 C 129.385 249.852,131.320 262.374,131.615 266.272 C 132.030 271.744,132.455 273.404,133.982 275.512 C 134.633 276.411,135.476 278.093,135.854 279.250 C 136.644 281.663,137.741 283.672,139.980 286.800 C 140.846 288.010,142.104 290.027,142.774 291.283 C 143.445 292.538,144.503 294.158,145.125 294.883 C 145.748 295.607,146.910 297.382,147.707 298.828 C 148.505 300.273,149.966 302.553,150.954 303.895 C 151.942 305.237,153.146 307.115,153.630 308.068 C 154.114 309.020,155.036 310.568,155.679 311.507 C 161.633 320.199,158.538 334.373,149.485 339.869 C 148.118 340.698,146.420 342.010,145.710 342.784 L 144.420 344.190 145.310 344.595 C 146.522 345.146,257.380 345.338,279.400 344.826 C 310.135 344.112,320.418 342.114,331.170 334.766 C 335.488 331.816,344.455 322.871,346.173 319.800 C 346.543 319.140,347.464 317.703,348.221 316.607 C 348.977 315.511,349.986 313.441,350.462 312.007 C 350.938 310.573,351.745 308.766,352.257 307.991 C 356.205 302.004,356.576 281.541,352.865 274.400 C 352.237 273.190,351.317 270.978,350.823 269.484 C 350.328 267.990,349.312 265.858,348.565 264.748 C 347.817 263.637,346.873 261.979,346.466 261.064 C 346.060 260.149,344.765 258.140,343.590 256.600 C 342.414 255.060,340.935 252.540,340.303 251.001 C 339.670 249.461,338.817 247.841,338.407 247.401 C 337.997 246.960,336.902 245.160,335.974 243.400 C 335.045 241.640,333.616 239.210,332.798 238.000 C 331.979 236.790,330.720 234.630,329.999 233.200 C 329.278 231.770,328.281 230.060,327.783 229.400 C 327.286 228.740,326.393 227.030,325.798 225.600 C 325.204 224.170,323.858 221.560,322.806 219.800 C 321.754 218.040,320.408 215.561,319.814 214.291 C 319.220 213.021,318.293 211.459,317.754 210.818 C 317.215 210.178,316.250 208.497,315.609 207.083 C 314.968 205.669,314.015 203.992,313.491 203.356 C 312.968 202.720,311.700 200.608,310.674 198.663 C 309.648 196.718,308.291 194.468,307.659 193.663 C 307.026 192.858,305.931 191.030,305.225 189.600 C 304.520 188.170,303.684 186.715,303.369 186.366 C 303.053 186.017,302.269 184.645,301.626 183.318 C 300.983 181.990,299.776 179.845,298.945 178.552 C 296.878 175.336,293.146 168.561,290.998 164.127 C 290.020 162.107,288.315 159.069,287.210 157.376 C 286.104 155.683,285.200 154.057,285.200 153.764 C 285.200 153.471,284.188 151.745,282.952 149.929 C 281.715 148.113,280.466 145.954,280.176 145.131 C 279.885 144.308,278.762 142.322,277.680 140.717 C 276.598 139.113,275.247 136.881,274.679 135.757 C 274.110 134.633,273.208 133.193,272.675 132.557 C 272.141 131.921,271.070 130.140,270.294 128.600 C 269.518 127.060,267.399 123.370,265.586 120.400 C 262.033 114.581,261.584 113.767,259.419 109.200 C 253.557 96.837,243.604 84.023,237.600 81.106 C 236.610 80.625,235.044 79.535,234.119 78.683 C 233.025 77.674,231.476 76.808,229.679 76.200 C 228.162 75.687,226.038 74.728,224.960 74.071 C 220.865 71.572,208.365 70.389,198.800 71.595 M87.400 77.567 C 84.409 78.639,84.000 78.906,84.000 79.790 C 84.000 80.292,83.730 80.926,83.400 81.200 C 83.070 81.474,82.800 81.907,82.800 82.163 C 82.800 83.360,76.161 88.833,73.800 89.581 C 72.920 89.861,70.509 90.969,68.442 92.044 C 66.376 93.120,64.524 94.000,64.326 94.000 C 60.088 94.000,56.814 108.057,60.103 112.134 C 60.842 113.050,61.861 114.483,62.367 115.318 C 64.520 118.869,68.876 121.569,74.453 122.812 C 90.062 126.289,101.233 118.721,105.590 101.718 C 106.899 96.609,103.739 88.101,98.860 83.600 C 92.538 77.767,90.230 76.552,87.400 77.567 M70.700 78.465 C 69.283 78.983,69.312 79.575,70.828 81.025 L 72.055 82.200 73.217 80.800 C 73.856 80.030,74.383 79.283,74.389 79.139 C 74.398 78.936,72.010 77.898,71.840 78.032 C 71.818 78.049,71.305 78.244,70.700 78.465 M234.442 210.218 L 243.884 210.451 245.625 212.226 L 247.367 214.000 251.064 214.000 L 254.762 214.000 256.048 215.600 L 257.334 217.200 262.797 217.200 C 268.167 217.200,268.277 217.218,269.230 218.241 C 269.764 218.814,271.920 220.148,274.021 221.205 C 276.123 222.263,278.080 223.414,278.370 223.764 C 278.660 224.114,279.215 224.400,279.602 224.400 C 279.988 224.400,280.786 225.030,281.373 225.800 C 281.960 226.570,282.797 227.200,283.233 227.200 C 284.872 227.200,286.696 228.409,289.800 231.552 C 292.756 234.545,293.124 234.793,294.625 234.796 C 296.882 234.801,298.400 236.374,298.400 238.708 C 298.400 240.568,298.795 240.920,301.400 241.374 C 303.959 241.820,312.665 250.626,313.044 253.151 C 313.226 254.367,313.709 255.353,314.556 256.234 C 315.240 256.947,316.178 257.951,316.640 258.465 C 317.102 258.979,318.619 260.480,320.010 261.800 C 322.800 264.448,323.594 265.660,323.598 267.280 C 323.599 268.045,324.014 268.675,325.024 269.445 C 325.807 270.042,326.725 271.086,327.065 271.765 C 327.405 272.444,329.027 274.367,330.669 276.037 C 333.930 279.353,334.373 280.362,334.390 284.510 C 334.400 286.774,334.448 286.871,336.786 289.385 C 339.302 292.090,339.434 292.389,339.777 296.200 C 339.896 297.520,340.196 299.950,340.443 301.600 C 340.690 303.250,340.928 306.040,340.972 307.801 C 341.030 310.113,341.253 311.309,341.776 312.107 C 342.712 313.535,342.364 316.020,340.940 318.081 C 340.378 318.896,339.621 320.091,339.259 320.737 C 337.542 323.799,329.031 333.200,327.976 333.200 C 327.751 333.200,327.170 333.569,326.685 334.021 C 325.547 335.082,317.421 339.027,315.600 339.403 C 314.830 339.562,314.020 339.827,313.800 339.991 C 313.580 340.155,312.860 340.435,312.200 340.612 C 310.710 341.013,310.821 340.975,309.505 341.522 C 308.406 341.978,305.267 342.465,298.637 343.207 C 291.752 343.979,257.042 343.037,253.000 341.969 C 249.353 341.006,248.092 340.748,246.000 340.533 C 243.033 340.229,241.998 339.270,242.005 336.830 C 242.013 334.040,253.208 322.800,255.979 322.800 C 257.534 322.800,257.902 322.600,259.556 320.850 C 260.958 319.368,261.786 318.836,263.008 318.631 C 265.388 318.231,266.692 316.400,264.597 316.400 C 264.298 316.400,263.888 315.516,263.624 314.300 C 262.429 308.800,261.811 306.925,260.810 305.768 C 260.223 305.090,259.421 303.387,259.027 301.983 C 258.633 300.579,257.864 298.844,257.317 298.127 C 256.771 297.411,255.995 295.784,255.594 294.512 C 254.849 292.153,252.834 287.549,250.820 283.600 C 250.203 282.390,249.404 280.493,249.045 279.385 C 248.686 278.277,247.764 276.416,246.996 275.250 C 246.228 274.084,245.600 273.026,245.600 272.899 C 245.600 272.657,239.601 259.875,238.514 257.800 C 238.168 257.140,237.552 256.229,237.145 255.777 C 236.737 255.324,235.971 253.677,235.440 252.118 C 234.910 250.559,233.852 247.960,233.089 246.342 C 232.326 244.724,231.563 242.952,231.393 242.404 C 231.224 241.856,230.182 239.696,229.078 237.604 C 225.775 231.344,225.226 230.223,225.213 229.713 C 225.206 229.446,224.598 228.625,223.862 227.889 C 223.127 227.153,222.393 226.022,222.233 225.376 C 221.892 224.004,218.068 220.133,216.718 219.794 C 216.209 219.666,215.503 219.057,215.149 218.440 C 214.722 217.696,213.828 217.074,212.494 216.595 C 210.783 215.980,210.450 215.688,210.258 214.636 C 210.133 213.956,209.916 213.005,209.775 212.523 C 209.590 211.889,209.807 211.356,210.560 210.604 L 211.601 209.563 218.300 209.774 C 221.985 209.890,229.249 210.090,234.442 210.218 " stroke="none" fill="#56a2ce" fill-rule="evenodd"></path><path id="path1" d="M143.357 2.100 C 143.485 3.255,143.703 5.308,143.839 6.662 C 144.060 8.844,144.265 9.297,145.644 10.643 L 147.200 12.162 147.200 15.871 L 147.200 19.580 139.405 27.390 L 131.610 35.200 126.361 35.200 L 121.111 35.200 116.756 30.844 C 112.524 26.613,112.400 26.438,112.400 24.714 C 112.400 21.841,111.401 21.200,106.922 21.200 L 103.296 21.200 101.821 19.400 L 100.346 17.600 94.773 17.600 C 88.721 17.600,89.225 17.431,87.035 20.187 C 86.212 21.223,86.008 21.304,85.433 20.827 C 84.906 20.390,84.469 20.373,83.241 20.740 C 82.397 20.993,80.312 21.200,78.607 21.200 L 75.506 21.200 72.753 23.937 C 70.147 26.527,70.000 26.771,70.000 28.508 C 70.000 30.752,68.885 31.818,66.103 32.235 C 64.770 32.435,63.891 32.882,62.918 33.856 L 61.573 35.200 54.368 35.200 C 47.235 35.200,47.154 35.190,46.173 34.209 C 43.760 31.796,44.029 31.668,37.040 38.554 L 31.600 43.912 31.600 47.694 C 31.600 52.630,31.432 52.800,26.538 52.800 C 23.268 52.800,22.858 52.887,22.048 53.749 C 20.809 55.068,21.723 56.000,24.255 56.000 C 27.216 56.000,28.696 57.368,27.348 58.858 C 26.857 59.400,26.114 59.600,24.586 59.600 C 22.604 59.600,22.423 59.690,21.063 61.349 C 19.734 62.971,19.464 63.112,17.355 63.287 C 13.809 63.581,13.398 64.516,15.867 66.669 C 18.969 69.374,18.005 70.000,10.738 70.000 C 4.059 70.000,3.600 70.240,3.600 73.738 C 3.600 76.487,4.315 77.200,7.070 77.200 C 9.255 77.200,10.400 77.987,10.400 79.489 C 10.400 80.572,9.698 80.800,6.367 80.800 L 3.600 80.800 3.600 83.538 C 3.600 87.119,4.089 87.600,7.731 87.600 L 10.400 87.600 10.400 92.022 L 10.400 96.444 12.954 98.999 L 15.509 101.553 31.453 101.571 C 40.222 101.580,47.443 101.726,47.500 101.894 C 48.106 103.685,49.274 104.852,49.774 104.168 C 50.263 103.500,50.367 103.566,51.114 105.022 C 51.559 105.890,52.471 106.919,53.139 107.309 C 54.143 107.895,54.394 108.346,54.589 109.909 C 54.847 111.986,56.137 114.721,57.225 115.495 C 57.607 115.767,58.433 116.801,59.060 117.794 C 59.687 118.786,60.354 119.599,60.542 119.599 C 60.858 119.600,61.541 120.036,65.701 122.894 C 66.578 123.497,68.073 124.040,69.301 124.203 C 70.818 124.403,71.733 124.796,72.600 125.620 C 76.307 129.140,84.534 129.244,87.868 125.811 C 88.878 124.771,89.685 124.399,91.797 124.001 C 94.148 123.557,99.034 120.928,100.000 119.586 C 100.110 119.433,100.584 119.188,101.054 119.042 C 103.157 118.386,105.846 114.737,106.398 111.790 C 106.840 109.433,107.160 108.759,108.466 107.447 C 109.316 106.594,109.978 105.694,109.939 105.447 C 109.698 103.960,110.633 101.654,112.091 100.140 L 113.688 98.480 117.644 98.197 C 119.820 98.041,121.600 97.750,121.600 97.551 C 121.600 95.569,129.949 94.808,133.384 96.477 L 135.188 97.354 136.830 96.431 C 139.264 95.063,142.701 95.362,144.504 97.100 C 145.730 98.281,146.005 98.358,149.600 98.537 C 155.776 98.845,157.818 99.477,155.500 100.364 C 154.292 100.826,153.057 102.245,153.392 102.787 C 153.540 103.027,153.153 103.808,152.531 104.521 C 151.909 105.235,150.975 106.805,150.455 108.010 C 149.122 111.098,148.929 111.413,148.441 111.301 C 147.990 111.199,146.306 113.611,145.859 115.000 C 145.718 115.440,145.107 116.115,144.501 116.501 C 141.430 118.456,140.077 119.699,139.409 121.179 C 138.711 122.728,138.598 122.800,136.863 122.800 C 135.227 122.800,134.865 122.987,133.183 124.700 C 132.156 125.745,131.091 126.806,130.815 127.057 C 130.539 127.308,129.683 128.143,128.913 128.913 C 128.143 129.683,127.308 130.512,127.057 130.755 C 126.806 130.998,123.734 134.078,120.232 137.599 L 113.863 144.000 112.013 144.000 C 110.381 144.000,109.978 144.189,108.600 145.600 C 107.367 146.863,106.739 147.202,105.619 147.212 C 104.187 147.223,98.964 148.503,98.514 148.952 C 97.797 149.670,99.814 150.800,101.814 150.800 C 103.805 150.800,103.973 150.885,105.379 152.600 L 106.854 154.400 109.679 154.400 L 112.505 154.400 112.278 155.796 L 112.051 157.193 114.926 158.052 C 118.411 159.094,118.489 159.135,118.117 159.728 C 117.954 159.987,117.816 160.380,117.811 160.600 C 117.794 161.220,109.135 170.010,107.920 170.640 C 107.326 170.948,105.779 171.200,104.482 171.200 C 103.186 171.200,101.152 171.533,99.963 171.939 C 98.773 172.346,96.562 172.803,95.048 172.955 C 93.535 173.108,91.789 173.495,91.168 173.816 C 90.548 174.137,89.333 174.400,88.469 174.400 C 87.560 174.400,86.688 174.653,86.400 175.000 C 86.025 175.452,85.004 175.601,82.251 175.605 C 77.659 175.611,74.672 176.379,73.021 177.980 C 71.996 178.973,71.427 179.200,69.962 179.200 C 68.389 179.200,67.965 179.402,66.600 180.800 C 65.235 182.198,64.811 182.400,63.238 182.400 C 61.798 182.400,61.195 182.632,60.219 183.562 C 58.919 184.801,55.126 185.996,52.468 186.005 C 50.221 186.012,47.332 186.915,43.709 188.741 C 40.572 190.322,40.248 190.400,36.793 190.400 C 33.973 190.400,32.824 190.575,31.620 191.190 C 30.768 191.625,29.380 192.155,28.536 192.369 C 23.551 193.632,21.426 194.417,20.444 195.358 C 19.622 196.146,18.942 196.400,17.661 196.400 C 16.053 196.400,15.782 196.587,12.443 200.000 C 8.990 203.529,8.883 203.600,7.030 203.600 C 5.482 203.600,4.982 203.789,4.270 204.642 C 2.444 206.829,1.970 207.200,1.000 207.200 L 0.000 207.200 0.000 217.600 L 0.000 228.000 0.930 228.000 C 1.884 228.000,3.288 229.254,3.728 230.500 C 3.864 230.885,4.184 231.200,4.439 231.200 C 4.694 231.200,5.595 231.825,6.441 232.590 C 7.288 233.354,8.479 234.097,9.090 234.240 C 12.353 235.004,17.093 236.500,17.876 237.013 C 18.567 237.466,20.214 237.601,25.086 237.603 C 30.760 237.605,31.698 237.707,34.338 238.603 C 35.954 239.151,38.033 239.600,38.957 239.600 C 40.389 239.600,40.867 239.835,42.188 241.188 C 43.540 242.573,44.041 242.810,46.097 243.043 C 47.962 243.254,48.792 243.591,50.066 244.655 C 50.951 245.395,51.884 246.001,52.138 246.002 C 53.542 246.009,55.842 247.021,57.159 248.211 C 58.176 249.129,59.235 249.657,60.431 249.842 C 62.550 250.170,66.372 253.629,66.141 255.010 C 66.068 255.444,65.910 257.049,65.790 258.575 C 65.557 261.544,65.319 262.139,63.300 264.804 C 62.585 265.748,62.000 266.898,62.000 267.360 C 61.999 268.529,59.951 272.730,58.603 274.328 C 57.368 275.791,57.179 276.533,56.035 284.400 C 54.859 292.486,54.652 295.332,55.131 296.852 C 55.365 297.593,55.661 299.550,55.789 301.200 C 56.125 305.535,56.341 307.149,56.882 309.400 C 57.147 310.500,57.326 311.535,57.281 311.700 C 57.237 311.865,57.410 312.000,57.667 312.000 C 57.923 312.000,58.021 312.112,57.884 312.250 C 57.747 312.387,57.990 313.197,58.425 314.050 C 58.860 314.902,59.078 315.603,58.908 315.606 C 58.739 315.609,58.780 315.744,59.000 315.906 C 59.742 316.451,60.753 318.637,60.626 319.421 C 60.557 319.850,60.770 320.509,61.100 320.887 C 61.430 321.264,61.700 322.052,61.700 322.636 C 61.700 323.717,65.032 327.600,65.960 327.600 C 66.202 327.600,66.399 327.915,66.399 328.300 C 66.397 328.968,67.282 330.004,71.118 333.821 C 72.140 334.837,72.664 335.637,72.411 335.793 C 71.867 336.130,73.620 338.348,74.248 338.118 C 74.495 338.028,74.809 338.246,74.946 338.602 C 75.082 338.959,75.374 339.140,75.593 339.005 C 75.813 338.869,75.895 339.008,75.777 339.315 C 75.660 339.621,75.887 340.126,76.282 340.436 C 76.913 340.932,76.952 340.925,76.600 340.381 C 76.359 340.008,76.458 340.041,76.850 340.464 C 77.208 340.850,77.613 341.054,77.750 340.916 C 77.888 340.779,78.000 340.877,78.000 341.133 C 78.000 341.390,78.215 341.600,78.478 341.600 C 78.742 341.600,78.346 340.970,77.600 340.200 C 76.854 339.430,76.452 338.800,76.707 338.800 C 76.963 338.800,77.367 339.165,77.606 339.611 C 77.845 340.057,78.166 340.346,78.320 340.253 C 78.474 340.160,78.832 340.335,79.116 340.642 C 79.399 340.949,79.501 341.200,79.340 341.200 C 79.180 341.200,79.485 341.605,80.018 342.100 L 80.987 343.000 80.114 343.125 C 79.634 343.194,78.855 343.044,78.383 342.791 C 77.663 342.406,77.367 342.479,76.554 343.243 L 75.584 344.154 73.678 342.277 C 71.552 340.183,70.400 339.858,70.400 341.353 C 70.400 343.424,65.886 347.200,63.410 347.200 C 61.339 347.200,61.195 347.272,59.779 349.000 C 58.409 350.671,58.168 350.800,56.414 350.800 C 55.001 350.800,54.332 351.012,53.763 351.641 C 51.896 353.703,47.950 354.607,42.557 354.207 C 37.589 353.838,34.013 353.870,21.000 354.400 C 7.160 354.963,3.723 355.002,1.700 354.618 L 0.000 354.295 0.000 377.147 L 0.000 400.000 61.575 400.000 L 123.149 400.000 123.275 398.703 C 123.367 397.743,123.690 397.267,124.516 396.874 C 125.129 396.581,126.029 395.725,126.516 394.972 C 127.002 394.220,127.691 393.508,128.047 393.392 C 128.403 393.275,129.011 392.830,129.398 392.403 C 129.928 391.816,130.279 391.721,130.827 392.015 C 133.174 393.271,134.774 389.101,132.766 386.964 L 131.932 386.076 132.766 385.811 C 133.402 385.609,134.041 384.027,133.500 383.994 C 133.445 383.991,132.693 383.742,131.829 383.441 L 130.259 382.895 131.629 382.611 C 133.637 382.195,136.507 381.209,137.070 380.742 C 137.340 380.518,138.154 380.368,138.880 380.408 C 142.537 380.610,143.723 380.430,143.165 379.758 C 142.683 379.177,142.859 379.139,145.016 379.357 C 152.329 380.096,153.796 380.118,153.268 379.482 C 152.837 378.962,152.947 378.831,154.009 378.598 C 154.872 378.408,155.188 378.146,155.035 377.747 C 154.680 376.821,155.795 376.684,158.140 377.365 C 160.948 378.182,162.049 378.192,161.745 377.400 C 161.562 376.925,161.867 376.800,163.206 376.800 C 164.641 376.800,164.825 376.712,164.415 376.218 C 163.996 375.714,164.855 375.616,170.866 375.483 C 177.164 375.345,179.694 375.047,181.700 374.207 C 182.227 373.987,182.400 373.446,182.400 372.012 L 182.400 370.110 179.851 368.855 C 178.449 368.165,177.121 367.600,176.900 367.600 C 175.785 367.600,175.585 366.470,176.564 365.700 C 177.895 364.653,177.222 364.000,174.812 364.000 C 173.031 364.000,172.885 363.900,169.042 360.042 L 165.098 356.083 166.190 355.142 C 166.791 354.624,167.699 353.818,168.208 353.350 C 169.755 351.929,181.768 351.421,237.200 350.429 C 283.299 349.605,300.352 348.965,308.200 347.766 C 311.719 347.228,321.231 344.306,322.867 343.260 C 323.600 342.792,325.367 341.855,326.792 341.179 C 331.949 338.735,335.318 336.114,339.918 330.969 C 342.675 327.885,343.038 327.503,345.336 325.276 C 346.400 324.244,347.637 322.689,348.084 321.821 C 348.531 320.952,349.401 319.738,350.016 319.123 C 350.631 318.507,351.442 317.058,351.819 315.902 C 352.195 314.746,352.729 313.530,353.005 313.200 C 357.638 307.662,359.346 292.406,356.687 280.302 C 355.382 274.359,355.401 274.420,353.606 270.600 C 352.779 268.840,351.801 266.561,351.432 265.535 C 351.062 264.509,350.318 263.227,349.777 262.686 C 349.236 262.145,348.568 261.095,348.292 260.351 C 347.324 257.743,345.653 254.945,343.891 252.982 C 342.643 251.592,341.904 250.283,341.417 248.600 C 341.035 247.280,340.120 245.210,339.384 244.000 C 338.648 242.790,337.667 240.653,337.203 239.251 C 336.403 236.836,333.739 231.698,332.614 230.400 C 332.327 230.070,331.688 228.994,331.193 228.010 C 330.697 227.025,329.767 225.729,329.124 225.129 C 328.385 224.439,327.550 222.877,326.849 220.872 C 326.239 219.129,325.348 217.206,324.870 216.598 C 324.391 215.990,323.998 215.111,323.996 214.646 C 323.993 214.181,323.728 212.932,323.406 211.872 C 323.085 210.811,322.779 209.317,322.728 208.552 C 322.676 207.786,322.403 206.969,322.121 206.735 C 321.839 206.501,321.706 206.152,321.825 205.959 C 321.944 205.767,321.798 205.703,321.500 205.817 C 321.106 205.968,320.931 205.571,320.860 204.361 C 320.771 202.855,320.840 202.717,321.589 202.913 C 322.211 203.076,322.564 202.843,323.015 201.971 C 323.344 201.335,324.145 200.539,324.795 200.203 C 326.628 199.255,327.025 198.178,325.914 197.171 C 321.714 193.361,320.041 192.787,319.000 194.800 C 318.178 196.390,317.777 196.315,316.792 194.384 C 316.338 193.495,315.564 192.584,315.070 192.359 C 314.577 192.135,313.941 191.377,313.657 190.675 C 313.373 189.974,312.986 189.013,312.797 188.540 C 312.608 188.066,312.134 187.707,311.742 187.740 C 311.291 187.778,310.782 187.286,310.357 186.400 C 309.987 185.630,309.128 184.506,308.448 183.903 C 307.186 182.781,306.000 180.487,306.000 179.165 C 306.000 178.760,305.443 177.793,304.762 177.018 C 304.081 176.242,303.275 174.780,302.970 173.768 C 302.666 172.756,301.975 171.580,301.434 171.155 C 300.142 170.139,299.194 166.775,299.540 164.430 C 299.855 162.287,301.707 161.646,307.671 161.617 C 310.871 161.601,311.202 161.523,311.915 160.617 C 312.909 159.353,314.870 158.409,315.095 159.085 C 316.187 162.362,321.029 162.732,323.147 159.700 C 324.256 158.111,324.970 158.059,325.863 159.500 C 327.619 162.336,331.473 162.587,333.552 160.000 L 334.838 158.400 340.165 158.400 C 346.822 158.400,347.600 158.006,347.600 154.633 C 347.600 151.261,347.845 151.159,355.611 151.290 L 362.136 151.400 360.768 152.847 L 359.400 154.294 366.600 154.518 L 373.800 154.743 375.680 152.871 C 376.714 151.842,377.884 150.702,378.280 150.338 C 378.676 149.974,379.323 149.209,379.719 148.638 C 380.342 147.738,380.724 147.600,382.595 147.600 C 383.782 147.600,384.876 147.400,385.027 147.156 C 385.211 146.859,386.117 146.800,387.751 146.978 C 395.969 147.873,395.168 147.648,396.352 149.400 C 397.178 150.624,397.734 151.029,398.716 151.125 L 400.000 151.251 400.000 145.625 L 400.000 140.000 399.062 140.000 C 397.533 140.000,396.602 138.703,397.528 137.865 C 397.932 137.499,398.654 137.200,399.131 137.200 L 400.000 137.200 400.000 122.337 L 400.000 107.474 382.100 107.680 C 359.389 107.942,359.390 107.942,356.907 105.534 C 354.692 103.387,352.916 102.400,351.269 102.400 C 350.625 102.400,349.896 102.156,349.649 101.859 C 349.356 101.505,347.845 101.237,345.300 101.086 C 342.184 100.901,341.320 100.715,341.000 100.162 C 339.999 98.431,339.217 98.000,337.072 98.000 C 335.056 98.000,334.859 97.905,333.327 96.200 C 331.835 94.541,331.559 94.400,329.786 94.400 C 327.103 94.400,326.520 93.769,326.787 91.158 C 327.060 88.499,328.047 87.700,329.208 89.200 C 329.634 89.750,329.986 89.961,329.991 89.670 C 329.996 89.378,329.531 88.748,328.958 88.270 C 326.574 86.280,326.400 86.014,326.400 84.356 C 326.400 82.937,326.646 82.469,328.200 80.937 C 330.451 78.719,330.751 76.800,328.849 76.800 C 327.116 76.800,326.930 76.259,326.648 70.389 L 326.389 64.978 328.194 63.206 L 330.000 61.433 330.000 57.882 L 330.000 54.331 332.403 51.966 C 335.217 49.195,335.367 49.159,336.459 51.010 C 337.664 53.052,338.182 53.200,344.145 53.200 L 349.542 53.200 350.671 54.545 C 351.292 55.285,352.196 56.096,352.679 56.348 C 353.163 56.600,353.862 57.320,354.233 57.949 C 354.605 58.577,355.426 59.398,356.060 59.772 C 356.693 60.146,357.469 61.070,357.785 61.826 C 358.410 63.323,358.468 63.345,361.400 63.214 C 364.644 63.070,365.200 62.273,365.200 57.764 L 365.200 54.067 366.800 52.800 L 368.400 51.533 368.400 47.894 L 368.400 44.256 370.200 42.580 C 371.846 41.047,372.000 40.741,372.000 39.002 C 372.000 36.222,376.160 32.000,378.899 32.000 C 379.861 32.000,380.996 31.736,381.424 31.413 C 381.851 31.090,382.614 30.820,383.120 30.813 C 385.575 30.779,389.726 26.806,390.193 24.044 C 390.467 22.421,390.594 22.298,393.439 20.890 C 396.217 19.515,396.400 19.344,396.400 18.118 C 396.400 16.761,397.019 13.804,397.702 11.900 C 397.983 11.119,398.373 10.800,399.049 10.800 L 400.000 10.800 400.000 5.400 L 400.000 0.000 271.561 0.000 L 143.123 0.000 143.357 2.100 M78.064 8.132 C 76.151 10.168,77.321 10.400,89.503 10.400 C 100.517 10.400,101.600 10.260,101.600 8.833 C 101.600 6.837,79.888 6.190,78.064 8.132 M329.067 43.431 C 329.475 44.493,328.328 45.328,327.397 44.647 C 326.745 44.171,326.710 43.990,327.164 43.443 C 327.845 42.623,328.755 42.618,329.067 43.431 M220.800 72.175 C 222.010 72.560,223.882 73.413,224.960 74.071 C 226.038 74.728,228.162 75.687,229.679 76.200 C 231.476 76.808,233.025 77.674,234.119 78.683 C 235.044 79.535,236.610 80.625,237.600 81.106 C 243.604 84.023,253.557 96.837,259.419 109.200 C 261.584 113.767,262.033 114.581,265.586 120.400 C 267.399 123.370,269.518 127.060,270.294 128.600 C 271.070 130.140,272.141 131.921,272.675 132.557 C 273.208 133.193,274.110 134.633,274.679 135.757 C 275.247 136.881,276.598 139.113,277.680 140.717 C 278.762 142.322,279.885 144.308,280.176 145.131 C 280.466 145.954,281.715 148.113,282.952 149.929 C 284.188 151.745,285.200 153.471,285.200 153.764 C 285.200 154.057,286.104 155.683,287.210 157.376 C 288.315 159.069,290.020 162.107,290.998 164.127 C 293.146 168.561,296.878 175.336,298.945 178.552 C 299.776 179.845,300.983 181.990,301.626 183.318 C 302.269 184.645,303.053 186.017,303.369 186.366 C 303.684 186.715,304.520 188.170,305.225 189.600 C 305.931 191.030,307.026 192.858,307.659 193.663 C 308.291 194.468,309.648 196.718,310.674 198.663 C 311.700 200.608,312.968 202.720,313.491 203.356 C 314.015 203.992,314.968 205.669,315.609 207.083 C 316.250 208.497,317.215 210.178,317.754 210.818 C 318.293 211.459,319.220 213.021,319.814 214.291 C 320.408 215.561,321.754 218.040,322.806 219.800 C 323.858 221.560,325.204 224.170,325.798 225.600 C 326.393 227.030,327.286 228.740,327.783 229.400 C 328.281 230.060,329.278 231.770,329.999 233.200 C 330.720 234.630,331.979 236.790,332.798 238.000 C 333.616 239.210,335.045 241.640,335.974 243.400 C 336.902 245.160,337.997 246.960,338.407 247.401 C 338.817 247.841,339.670 249.461,340.303 251.001 C 340.935 252.540,342.414 255.060,343.590 256.600 C 344.765 258.140,346.060 260.149,346.466 261.064 C 346.873 261.979,347.817 263.637,348.565 264.748 C 349.312 265.858,350.328 267.990,350.823 269.484 C 351.317 270.978,352.237 273.190,352.865 274.400 C 356.576 281.541,356.205 302.004,352.257 307.991 C 351.745 308.766,350.938 310.573,350.462 312.007 C 349.986 313.441,348.977 315.511,348.221 316.607 C 347.464 317.703,346.543 319.140,346.173 319.800 C 344.455 322.871,335.488 331.816,331.170 334.766 C 320.764 341.877,309.706 344.144,282.200 344.802 C 258.132 345.378,149.983 345.254,145.677 344.646 C 141.887 344.110,140.783 344.224,136.172 345.626 C 135.496 345.832,134.386 346.000,133.705 346.000 C 133.024 346.000,132.394 346.217,132.306 346.483 C 132.181 346.856,131.471 346.864,129.172 346.516 C 127.244 346.224,123.671 346.160,119.000 346.333 C 113.319 346.544,112.391 346.648,114.600 346.829 C 116.740 347.005,116.051 347.075,111.676 347.129 C 107.945 347.175,106.039 347.061,106.200 346.800 C 106.336 346.580,106.842 346.379,107.324 346.353 C 108.005 346.316,107.933 346.237,107.000 346.000 C 106.091 345.769,106.577 345.665,109.000 345.573 L 112.200 345.451 108.800 345.200 C 106.930 345.062,105.760 344.902,106.200 344.844 C 106.640 344.786,107.720 344.486,108.600 344.178 C 109.537 343.850,109.738 343.702,109.085 343.820 C 106.550 344.281,95.800 342.434,92.600 340.988 C 91.940 340.690,90.078 340.053,88.462 339.573 C 82.378 337.763,72.393 329.821,67.881 323.200 C 67.207 322.210,66.006 320.654,65.214 319.742 C 64.393 318.797,63.456 317.075,63.037 315.742 C 62.633 314.454,61.707 312.214,60.979 310.765 C 56.484 301.817,56.399 286.726,60.786 276.800 C 61.612 274.930,62.600 272.542,62.980 271.493 C 63.360 270.444,64.283 268.697,65.030 267.610 C 65.778 266.524,66.916 264.548,67.560 263.219 C 68.204 261.890,69.354 259.947,70.116 258.901 C 70.879 257.855,72.084 255.830,72.795 254.400 C 73.506 252.970,74.534 251.206,75.079 250.481 C 75.624 249.756,76.784 247.686,77.658 245.881 C 78.531 244.076,80.091 241.221,81.123 239.535 C 82.916 236.607,83.956 234.770,88.000 227.389 C 88.990 225.581,90.441 223.044,91.224 221.751 C 92.007 220.458,92.997 218.527,93.424 217.460 C 93.851 216.393,94.850 214.773,95.644 213.860 C 96.438 212.947,97.585 211.210,98.193 210.000 C 98.801 208.790,100.104 206.540,101.089 205.000 C 104.879 199.075,107.220 195.054,108.264 192.674 C 108.861 191.313,109.720 189.660,110.174 189.000 C 110.627 188.340,111.808 186.321,112.799 184.513 C 113.789 182.706,115.665 179.286,116.967 176.913 C 118.268 174.541,120.017 171.511,120.853 170.179 C 121.688 168.847,122.858 166.687,123.453 165.379 C 124.047 164.071,124.934 162.460,125.423 161.800 C 125.912 161.140,126.943 159.340,127.713 157.800 C 128.484 156.260,129.936 153.943,130.941 152.651 C 131.945 151.359,133.236 149.077,133.808 147.580 C 134.380 146.083,135.119 144.633,135.450 144.358 C 135.782 144.083,136.964 142.315,138.077 140.429 C 139.191 138.543,140.624 136.240,141.263 135.310 C 141.902 134.381,142.939 132.472,143.569 131.068 C 144.199 129.665,146.144 126.105,147.892 123.158 C 149.639 120.211,151.932 116.090,152.986 114.000 C 154.041 111.910,155.307 109.658,155.799 108.995 C 156.292 108.333,157.458 106.263,158.390 104.395 C 159.322 102.528,160.750 100.100,161.563 99.000 C 162.376 97.900,163.468 96.280,163.991 95.400 C 166.058 91.916,173.673 84.310,177.666 81.741 C 178.620 81.127,180.397 79.858,181.615 78.920 C 182.834 77.982,184.889 76.851,186.183 76.406 C 187.477 75.961,189.290 75.155,190.211 74.615 C 195.167 71.710,198.112 71.228,210.000 71.371 C 216.869 71.454,219.043 71.616,220.800 72.175 M91.202 77.801 C 93.022 78.443,94.407 79.491,98.860 83.600 C 103.739 88.101,106.899 96.609,105.590 101.718 C 101.233 118.721,90.062 126.289,74.453 122.812 C 68.876 121.569,64.520 118.869,62.367 115.318 C 61.861 114.483,60.842 113.050,60.103 112.134 C 56.814 108.057,60.088 94.000,64.326 94.000 C 64.524 94.000,66.376 93.120,68.442 92.044 C 70.509 90.969,72.920 89.861,73.800 89.581 C 76.161 88.833,82.800 83.360,82.800 82.163 C 82.800 81.907,83.070 81.474,83.400 81.200 C 83.730 80.926,84.000 80.292,84.000 79.790 C 84.000 78.906,84.409 78.639,87.400 77.567 C 88.663 77.114,89.380 77.158,91.202 77.801 M73.140 78.439 C 74.671 78.973,74.674 79.044,73.217 80.800 L 72.055 82.200 70.828 81.025 C 69.312 79.575,69.283 78.983,70.700 78.465 C 71.305 78.244,71.818 78.049,71.840 78.032 C 71.862 78.014,72.447 78.198,73.140 78.439 M79.200 81.243 C 79.200 81.486,79.470 81.582,79.800 81.455 C 81.178 80.927,80.259 82.658,77.944 84.951 C 74.437 88.425,67.200 91.804,67.200 89.967 C 67.200 89.776,66.660 89.728,66.000 89.860 C 65.236 90.013,64.800 89.937,64.800 89.650 C 64.800 89.403,65.402 89.200,66.138 89.200 C 67.469 89.200,69.093 87.997,68.675 87.321 C 68.563 87.140,68.708 86.667,68.997 86.272 C 69.332 85.813,69.619 85.707,69.787 85.979 C 69.963 86.263,70.252 86.205,70.653 85.804 C 70.985 85.472,71.738 85.096,72.328 84.967 C 74.258 84.546,74.433 84.424,74.858 83.205 C 75.160 82.340,75.536 82.000,76.190 82.000 C 76.692 82.000,77.326 81.730,77.600 81.400 C 78.181 80.700,79.200 80.600,79.200 81.243 M72.763 339.346 C 73.377 340.454,75.514 341.927,76.583 341.981 C 77.194 342.011,73.576 338.487,72.784 338.280 C 72.100 338.101,72.099 338.149,72.763 339.346 M104.800 345.600 C 104.298 345.924,104.325 345.989,104.967 345.994 C 105.388 345.997,105.635 346.099,105.514 346.219 C 105.393 346.340,104.806 346.316,104.209 346.167 C 103.089 345.885,103.506 345.212,104.800 345.212 C 105.333 345.212,105.333 345.255,104.800 345.600 M147.200 378.400 C 148.155 378.706,148.143 378.722,146.924 378.760 C 146.222 378.782,145.536 378.620,145.400 378.400 C 145.116 377.940,145.764 377.940,147.200 378.400 M136.400 382.400 C 136.730 382.613,137.630 382.788,138.400 382.788 C 139.450 382.788,139.650 382.691,139.200 382.400 C 138.870 382.187,137.970 382.012,137.200 382.012 C 136.150 382.012,135.950 382.109,136.400 382.400 " stroke="none" fill="#98a69e" fill-rule="evenodd"></path><path id="path2" d="M397.702 11.900 C 397.019 13.804,396.400 16.761,396.400 18.118 C 396.400 19.344,396.217 19.515,393.439 20.890 C 390.594 22.298,390.467 22.421,390.193 24.044 C 389.726 26.806,385.575 30.779,383.120 30.813 C 382.614 30.820,381.851 31.090,381.424 31.413 C 380.996 31.736,379.861 32.000,378.899 32.000 C 376.160 32.000,372.000 36.222,372.000 39.002 C 372.000 40.741,371.846 41.047,370.200 42.580 L 368.400 44.256 368.400 47.894 L 368.400 51.533 366.800 52.800 L 365.200 54.067 365.200 57.764 C 365.200 62.273,364.644 63.070,361.400 63.214 C 358.468 63.345,358.410 63.323,357.785 61.826 C 357.469 61.070,356.693 60.146,356.060 59.772 C 355.426 59.398,354.605 58.577,354.233 57.949 C 353.862 57.320,353.163 56.600,352.679 56.348 C 352.196 56.096,351.292 55.285,350.671 54.545 L 349.542 53.200 344.145 53.200 C 338.182 53.200,337.664 53.052,336.459 51.010 C 335.367 49.159,335.217 49.195,332.403 51.966 L 330.000 54.331 330.000 57.882 L 330.000 61.433 328.194 63.206 L 326.389 64.978 326.648 70.389 C 326.930 76.259,327.116 76.800,328.849 76.800 C 330.751 76.800,330.451 78.719,328.200 80.937 C 325.955 83.151,325.664 85.446,327.442 86.930 C 329.449 88.606,330.000 89.204,329.991 89.700 C 329.986 89.975,329.634 89.750,329.208 89.200 C 328.047 87.700,327.060 88.499,326.787 91.158 C 326.520 93.769,327.103 94.400,329.786 94.400 C 331.559 94.400,331.835 94.541,333.327 96.200 C 334.859 97.905,335.056 98.000,337.072 98.000 C 339.217 98.000,339.999 98.431,341.000 100.162 C 341.320 100.715,342.184 100.901,345.300 101.086 C 347.845 101.237,349.356 101.505,349.649 101.859 C 349.896 102.156,350.625 102.400,351.269 102.400 C 352.916 102.400,354.692 103.387,356.907 105.534 C 359.390 107.942,359.389 107.942,382.100 107.680 L 400.000 107.474 400.000 59.137 L 400.000 10.800 399.049 10.800 C 398.373 10.800,397.983 11.119,397.702 11.900 M327.164 43.443 C 326.710 43.990,326.745 44.171,327.397 44.647 C 328.328 45.328,329.475 44.493,329.067 43.431 C 328.755 42.618,327.845 42.623,327.164 43.443 M77.600 81.400 C 77.326 81.730,76.692 82.000,76.190 82.000 C 75.536 82.000,75.160 82.340,74.858 83.205 C 74.433 84.424,74.258 84.546,72.328 84.967 C 71.738 85.096,70.985 85.472,70.653 85.804 C 70.252 86.205,69.963 86.263,69.787 85.979 C 69.619 85.707,69.332 85.813,68.997 86.272 C 68.708 86.667,68.563 87.140,68.675 87.321 C 69.093 87.997,67.469 89.200,66.138 89.200 C 65.402 89.200,64.800 89.403,64.800 89.650 C 64.800 89.937,65.236 90.013,66.000 89.860 C 66.660 89.728,67.200 89.776,67.200 89.967 C 67.200 91.804,74.437 88.425,77.944 84.951 C 80.259 82.658,81.178 80.927,79.800 81.455 C 79.470 81.582,79.200 81.486,79.200 81.243 C 79.200 80.600,78.181 80.700,77.600 81.400 M397.459 137.935 C 396.837 138.622,396.842 138.714,397.528 139.335 C 398.862 140.542,400.000 140.204,400.000 138.600 C 400.000 136.969,398.652 136.617,397.459 137.935 M385.027 147.156 C 384.876 147.400,383.782 147.600,382.595 147.600 C 380.724 147.600,380.342 147.738,379.719 148.638 C 379.323 149.209,378.676 149.974,378.280 150.338 C 377.884 150.702,376.714 151.842,375.680 152.871 L 373.800 154.743 366.600 154.518 L 359.400 154.294 360.768 152.847 L 362.136 151.400 355.611 151.290 C 347.845 151.159,347.600 151.261,347.600 154.633 C 347.600 158.006,346.822 158.400,340.165 158.400 L 334.838 158.400 333.552 160.000 C 331.473 162.587,327.619 162.336,325.863 159.500 C 324.970 158.059,324.256 158.111,323.147 159.700 C 321.029 162.732,316.187 162.362,315.095 159.085 C 314.870 158.409,312.909 159.353,311.915 160.617 C 311.202 161.523,310.871 161.601,307.671 161.617 C 301.707 161.646,299.855 162.287,299.540 164.430 C 299.194 166.775,300.142 170.139,301.434 171.155 C 301.975 171.580,302.666 172.756,302.970 173.768 C 303.275 174.780,304.081 176.242,304.762 177.018 C 305.443 177.793,306.000 178.760,306.000 179.165 C 306.000 180.487,307.186 182.781,308.448 183.903 C 309.128 184.506,309.987 185.630,310.357 186.400 C 310.782 187.286,311.291 187.778,311.742 187.740 C 312.134 187.707,312.608 188.066,312.797 188.540 C 312.986 189.013,313.373 189.974,313.657 190.675 C 313.941 191.377,314.577 192.135,315.070 192.359 C 315.564 192.584,316.338 193.495,316.792 194.384 C 317.777 196.315,318.178 196.390,319.000 194.800 C 320.041 192.787,321.714 193.361,325.914 197.171 C 327.025 198.178,326.628 199.255,324.795 200.203 C 324.145 200.539,323.344 201.335,323.015 201.971 C 322.564 202.843,322.211 203.076,321.589 202.913 C 320.840 202.717,320.771 202.855,320.860 204.361 C 320.931 205.571,321.106 205.968,321.500 205.817 C 321.798 205.703,321.944 205.767,321.825 205.959 C 321.706 206.152,321.839 206.501,322.121 206.735 C 322.403 206.969,322.676 207.786,322.728 208.552 C 322.779 209.317,323.085 210.811,323.406 211.872 C 323.728 212.932,323.993 214.181,323.996 214.646 C 323.998 215.111,324.391 215.990,324.870 216.598 C 325.348 217.206,326.239 219.129,326.849 220.872 C 327.550 222.877,328.385 224.439,329.124 225.129 C 329.767 225.729,330.697 227.025,331.193 228.010 C 331.688 228.994,332.327 230.070,332.614 230.400 C 333.739 231.698,336.403 236.836,337.203 239.251 C 337.667 240.653,338.648 242.790,339.384 244.000 C 340.120 245.210,341.035 247.280,341.417 248.600 C 341.904 250.283,342.643 251.592,343.891 252.982 C 345.653 254.945,347.324 257.743,348.292 260.351 C 348.568 261.095,349.236 262.145,349.777 262.686 C 350.318 263.227,351.062 264.509,351.432 265.535 C 351.801 266.561,352.779 268.840,353.606 270.600 C 355.401 274.420,355.382 274.359,356.687 280.302 C 359.346 292.406,357.638 307.662,353.005 313.200 C 352.729 313.530,352.195 314.746,351.819 315.902 C 351.442 317.058,350.631 318.507,350.016 319.123 C 349.401 319.738,348.531 320.952,348.084 321.821 C 347.637 322.689,346.400 324.244,345.336 325.276 C 343.038 327.503,342.675 327.885,339.918 330.969 C 335.318 336.114,331.949 338.735,326.792 341.179 C 325.367 341.855,323.600 342.792,322.867 343.260 C 321.231 344.306,311.719 347.228,308.200 347.766 C 300.352 348.965,283.299 349.605,237.200 350.429 C 204.808 351.009,201.924 351.076,188.400 351.565 C 170.884 352.199,169.310 352.338,168.208 353.350 C 167.699 353.818,166.791 354.624,166.190 355.142 L 165.098 356.083 169.042 360.042 C 172.885 363.900,173.031 364.000,174.812 364.000 C 177.222 364.000,177.895 364.653,176.564 365.700 C 175.585 366.470,175.785 367.600,176.900 367.600 C 177.121 367.600,178.449 368.165,179.851 368.855 L 182.400 370.110 182.400 372.012 C 182.400 373.446,182.227 373.987,181.700 374.207 C 179.694 375.047,177.164 375.345,170.866 375.483 C 164.855 375.616,163.996 375.714,164.415 376.218 C 164.825 376.712,164.641 376.800,163.206 376.800 C 161.867 376.800,161.562 376.925,161.745 377.400 C 162.049 378.192,160.948 378.182,158.140 377.365 C 155.795 376.684,154.680 376.821,155.035 377.747 C 155.188 378.146,154.872 378.408,154.009 378.598 C 152.947 378.831,152.837 378.962,153.268 379.482 C 153.796 380.118,152.329 380.096,145.016 379.357 C 142.859 379.139,142.683 379.177,143.165 379.758 C 143.723 380.430,142.537 380.610,138.880 380.408 C 138.154 380.368,137.340 380.518,137.070 380.742 C 136.507 381.209,133.637 382.195,131.629 382.611 L 130.259 382.895 131.829 383.441 C 132.693 383.742,133.445 383.991,133.500 383.994 C 134.041 384.027,133.402 385.609,132.766 385.811 L 131.932 386.076 132.766 386.964 C 134.774 389.101,133.174 393.271,130.827 392.015 C 130.279 391.721,129.928 391.816,129.398 392.403 C 129.011 392.830,128.403 393.275,128.047 393.392 C 127.691 393.508,127.002 394.220,126.516 394.972 C 126.029 395.725,125.129 396.581,124.516 396.874 C 123.690 397.267,123.367 397.743,123.275 398.703 L 123.149 400.000 261.575 400.000 L 400.000 400.000 400.000 275.625 L 400.000 151.251 398.716 151.125 C 397.734 151.029,397.178 150.624,396.352 149.400 C 395.168 147.648,395.969 147.873,387.751 146.978 C 386.117 146.800,385.211 146.859,385.027 147.156 M145.400 378.400 C 145.536 378.620,146.222 378.782,146.924 378.760 C 148.143 378.722,148.155 378.706,147.200 378.400 C 145.764 377.940,145.116 377.940,145.400 378.400 M139.200 382.400 C 139.650 382.691,139.450 382.788,138.400 382.788 C 137.630 382.788,136.730 382.613,136.400 382.400 C 135.950 382.109,136.150 382.012,137.200 382.012 C 137.970 382.012,138.870 382.187,139.200 382.400 " stroke="none" fill="#b7b8a9" fill-rule="evenodd"></path><path id="path3" d="M210.560 210.604 C 209.807 211.356,209.590 211.889,209.775 212.523 C 209.916 213.005,210.133 213.956,210.258 214.636 C 210.450 215.688,210.783 215.980,212.494 216.595 C 213.828 217.074,214.722 217.696,215.149 218.440 C 215.503 219.057,216.209 219.666,216.718 219.794 C 218.068 220.133,221.892 224.004,222.233 225.376 C 222.393 226.022,223.127 227.153,223.862 227.889 C 224.598 228.625,225.206 229.446,225.213 229.713 C 225.226 230.223,225.775 231.344,229.078 237.604 C 230.182 239.696,231.224 241.856,231.393 242.404 C 231.563 242.952,232.326 244.724,233.089 246.342 C 233.852 247.960,234.910 250.559,235.440 252.118 C 235.971 253.677,236.737 255.324,237.145 255.777 C 237.552 256.229,238.168 257.140,238.514 257.800 C 239.601 259.875,245.600 272.657,245.600 272.899 C 245.600 273.026,246.228 274.084,246.996 275.250 C 247.764 276.416,248.686 278.277,249.045 279.385 C 249.404 280.493,250.203 282.390,250.820 283.600 C 252.834 287.549,254.849 292.153,255.594 294.512 C 255.995 295.784,256.771 297.411,257.317 298.127 C 257.864 298.844,258.633 300.579,259.027 301.983 C 259.421 303.387,260.223 305.090,260.810 305.768 C 261.811 306.925,262.429 308.800,263.624 314.300 C 263.888 315.516,264.298 316.400,264.597 316.400 C 266.692 316.400,265.388 318.231,263.008 318.631 C 261.786 318.836,260.958 319.368,259.556 320.850 C 257.902 322.600,257.534 322.800,255.979 322.800 C 253.208 322.800,242.013 334.040,242.005 336.830 C 241.998 339.270,243.033 340.229,246.000 340.533 C 248.092 340.748,249.353 341.006,253.000 341.969 C 257.042 343.037,291.752 343.979,298.637 343.207 C 305.267 342.465,308.406 341.978,309.505 341.522 C 310.821 340.975,310.710 341.013,312.200 340.612 C 312.860 340.435,313.580 340.155,313.800 339.991 C 314.020 339.827,314.830 339.562,315.600 339.403 C 317.421 339.027,325.547 335.082,326.685 334.021 C 327.170 333.569,327.751 333.200,327.976 333.200 C 329.031 333.200,337.542 323.799,339.259 320.737 C 339.621 320.091,340.378 318.896,340.940 318.081 C 342.364 316.020,342.712 313.535,341.776 312.107 C 341.253 311.309,341.030 310.113,340.972 307.801 C 340.928 306.040,340.690 303.250,340.443 301.600 C 340.196 299.950,339.896 297.520,339.777 296.200 C 339.434 292.389,339.302 292.090,336.786 289.385 C 334.448 286.871,334.400 286.774,334.390 284.510 C 334.373 280.362,333.930 279.353,330.669 276.037 C 329.027 274.367,327.405 272.444,327.065 271.765 C 326.725 271.086,325.807 270.042,325.024 269.445 C 324.014 268.675,323.599 268.045,323.598 267.280 C 323.594 265.660,322.800 264.448,320.010 261.800 C 318.619 260.480,317.102 258.979,316.640 258.465 C 316.178 257.951,315.240 256.947,314.556 256.234 C 313.709 255.353,313.226 254.367,313.044 253.151 C 312.665 250.626,303.959 241.820,301.400 241.374 C 298.795 240.920,298.400 240.568,298.400 238.708 C 298.400 236.374,296.882 234.801,294.625 234.796 C 293.124 234.793,292.756 234.545,289.800 231.552 C 286.696 228.409,284.872 227.200,283.233 227.200 C 282.797 227.200,281.960 226.570,281.373 225.800 C 280.786 225.030,279.988 224.400,279.602 224.400 C 279.215 224.400,278.660 224.114,278.370 223.764 C 278.080 223.414,276.123 222.263,274.021 221.205 C 271.920 220.148,269.764 218.814,269.230 218.241 C 268.277 217.218,268.167 217.200,262.797 217.200 L 257.334 217.200 256.048 215.600 L 254.762 214.000 251.064 214.000 L 247.367 214.000 245.625 212.226 L 243.884 210.451 234.442 210.218 C 229.249 210.090,221.985 209.890,218.300 209.774 L 211.601 209.563 210.560 210.604 M124.005 246.500 C 123.797 246.995,123.446 248.120,123.224 249.000 C 122.915 250.226,121.977 251.440,119.210 254.192 C 115.720 257.664,115.600 257.844,115.600 259.600 C 115.600 261.349,115.471 261.546,112.200 264.800 C 108.941 268.042,108.800 268.257,108.791 269.991 C 108.782 271.730,108.643 271.939,105.193 275.400 C 101.754 278.849,101.604 279.074,101.602 280.778 C 101.600 282.139,101.360 282.807,100.577 283.624 C 99.214 285.047,97.200 291.743,97.200 294.852 C 97.200 296.972,97.078 297.295,95.800 298.573 C 94.586 299.787,94.400 300.231,94.400 301.905 C 94.400 303.633,94.230 304.003,92.800 305.400 L 91.200 306.962 91.200 315.762 L 91.200 324.562 89.943 325.858 C 88.168 327.690,87.944 330.258,89.312 333.095 C 89.921 334.356,90.143 335.219,89.883 335.306 C 89.624 335.392,89.582 335.752,89.776 336.224 C 90.285 337.461,90.361 339.223,89.891 338.933 C 89.632 338.773,89.599 338.875,89.804 339.206 C 90.045 339.596,89.947 339.665,89.433 339.468 C 89.049 339.321,88.614 339.197,88.467 339.194 C 88.320 339.191,88.440 339.036,88.734 338.850 C 89.168 338.574,89.157 338.469,88.673 338.283 C 88.277 338.131,88.110 338.280,88.171 338.728 C 88.225 339.128,88.979 339.645,90.031 340.005 C 91.004 340.338,91.980 340.724,92.200 340.862 C 95.432 342.895,102.382 343.538,125.400 343.937 L 144.200 344.262 145.603 342.819 C 146.374 342.026,148.122 340.698,149.488 339.868 C 158.538 334.370,161.632 320.198,155.679 311.507 C 155.036 310.568,154.114 309.020,153.630 308.068 C 153.146 307.115,151.942 305.237,150.954 303.895 C 149.966 302.553,148.505 300.273,147.707 298.828 C 146.910 297.382,145.748 295.607,145.125 294.883 C 144.503 294.158,143.445 292.538,142.774 291.283 C 142.104 290.027,140.846 288.010,139.980 286.800 C 137.741 283.672,136.644 281.663,135.854 279.250 C 135.476 278.093,134.633 276.411,133.982 275.512 C 132.455 273.404,132.030 271.744,131.615 266.272 C 131.320 262.374,129.385 249.852,128.590 246.700 C 128.206 245.174,124.627 245.018,124.005 246.500 " stroke="none" fill="#4d83bc" fill-rule="evenodd"></path><path id="path4" d="M0.000 103.600 L 0.000 207.200 1.000 207.200 C 1.970 207.200,2.444 206.829,4.270 204.642 C 4.982 203.789,5.482 203.600,7.030 203.600 C 8.883 203.600,8.990 203.529,12.443 200.000 C 15.782 196.587,16.053 196.400,17.661 196.400 C 18.942 196.400,19.622 196.146,20.444 195.358 C 21.426 194.417,23.551 193.632,28.536 192.369 C 29.380 192.155,30.768 191.625,31.620 191.190 C 32.824 190.575,33.973 190.400,36.793 190.400 C 40.248 190.400,40.572 190.322,43.709 188.741 C 47.332 186.915,50.221 186.012,52.468 186.005 C 55.126 185.996,58.919 184.801,60.219 183.562 C 61.195 182.632,61.798 182.400,63.238 182.400 C 64.811 182.400,65.235 182.198,66.600 180.800 C 67.965 179.402,68.389 179.200,69.962 179.200 C 71.427 179.200,71.996 178.973,73.021 177.980 C 74.672 176.379,77.659 175.611,82.251 175.605 C 85.004 175.601,86.025 175.452,86.400 175.000 C 86.688 174.653,87.560 174.400,88.469 174.400 C 89.333 174.400,90.548 174.137,91.168 173.816 C 91.789 173.495,93.535 173.108,95.048 172.955 C 96.562 172.803,98.773 172.346,99.963 171.939 C 101.152 171.533,103.186 171.200,104.482 171.200 C 105.779 171.200,107.326 170.948,107.920 170.640 C 109.135 170.010,117.794 161.220,117.811 160.600 C 117.816 160.380,117.954 159.987,118.117 159.728 C 118.489 159.135,118.411 159.094,114.926 158.052 L 112.051 157.193 112.278 155.796 L 112.505 154.400 109.679 154.400 L 106.854 154.400 105.379 152.600 C 103.973 150.885,103.805 150.800,101.814 150.800 C 99.814 150.800,97.797 149.670,98.514 148.952 C 98.964 148.503,104.187 147.223,105.619 147.212 C 106.739 147.202,107.367 146.863,108.600 145.600 C 109.978 144.189,110.381 144.000,112.013 144.000 L 113.863 144.000 120.232 137.599 C 123.734 134.078,126.806 130.998,127.057 130.755 C 127.308 130.512,128.143 129.683,128.913 128.913 C 129.683 128.143,130.539 127.308,130.815 127.057 C 131.091 126.806,132.156 125.745,133.183 124.700 C 134.865 122.987,135.227 122.800,136.863 122.800 C 138.598 122.800,138.711 122.728,139.409 121.179 C 140.077 119.699,141.430 118.456,144.501 116.501 C 145.107 116.115,145.718 115.440,145.859 115.000 C 146.306 113.611,147.990 111.199,148.441 111.301 C 148.929 111.413,149.122 111.098,150.455 108.010 C 150.975 106.805,151.909 105.235,152.531 104.521 C 153.153 103.808,153.540 103.027,153.392 102.787 C 153.057 102.245,154.292 100.826,155.500 100.364 C 157.818 99.477,155.776 98.845,149.600 98.537 C 146.005 98.358,145.730 98.281,144.504 97.100 C 142.701 95.362,139.264 95.063,136.830 96.431 L 135.188 97.354 133.384 96.477 C 129.949 94.808,121.600 95.569,121.600 97.551 C 121.600 97.750,119.820 98.041,117.644 98.197 L 113.688 98.480 112.091 100.140 C 110.633 101.654,109.698 103.960,109.939 105.447 C 109.978 105.694,109.316 106.594,108.466 107.447 C 107.160 108.759,106.840 109.433,106.398 111.790 C 105.846 114.737,103.157 118.386,101.054 119.042 C 100.584 119.188,100.110 119.433,100.000 119.586 C 99.034 120.928,94.148 123.557,91.797 124.001 C 89.685 124.399,88.878 124.771,87.868 125.811 C 84.534 129.244,76.307 129.140,72.600 125.620 C 71.733 124.796,70.818 124.403,69.301 124.203 C 68.073 124.040,66.578 123.497,65.701 122.894 C 61.541 120.036,60.858 119.600,60.542 119.599 C 60.354 119.599,59.687 118.786,59.060 117.794 C 58.433 116.801,57.607 115.767,57.225 115.495 C 56.137 114.721,54.847 111.986,54.589 109.909 C 54.394 108.346,54.143 107.895,53.139 107.309 C 52.471 106.919,51.559 105.890,51.114 105.022 C 50.367 103.566,50.263 103.500,49.774 104.168 C 49.274 104.852,48.106 103.685,47.500 101.894 C 47.443 101.726,40.222 101.580,31.453 101.571 L 15.509 101.553 12.954 98.999 L 10.400 96.444 10.400 92.022 L 10.400 87.600 7.662 87.600 C 4.081 87.600,3.600 87.111,3.600 83.469 L 3.600 80.800 6.367 80.800 C 9.741 80.800,10.400 80.574,10.400 79.419 C 10.400 77.980,9.181 77.200,6.930 77.200 C 4.308 77.200,3.600 76.450,3.600 73.669 C 3.600 70.250,4.086 70.000,10.738 70.000 C 18.005 70.000,18.969 69.374,15.867 66.669 C 13.398 64.516,13.809 63.581,17.355 63.287 C 19.464 63.112,19.734 62.971,21.063 61.349 C 22.423 59.690,22.604 59.600,24.586 59.600 C 26.114 59.600,26.857 59.400,27.348 58.858 C 28.696 57.368,27.216 56.000,24.255 56.000 C 21.723 56.000,20.809 55.068,22.048 53.749 C 22.860 52.884,23.264 52.800,26.608 52.800 C 31.434 52.800,31.600 52.628,31.600 47.625 L 31.600 43.912 37.050 38.543 C 44.016 31.681,43.764 31.801,46.186 34.222 C 47.151 35.187,47.260 35.200,54.368 35.200 L 61.573 35.200 62.918 33.856 C 63.891 32.882,64.770 32.435,66.103 32.235 C 68.885 31.818,70.000 30.752,70.000 28.508 C 70.000 26.771,70.147 26.527,72.753 23.937 L 75.506 21.200 78.607 21.200 C 80.312 21.200,82.397 20.993,83.241 20.740 C 84.469 20.373,84.906 20.390,85.433 20.827 C 86.008 21.304,86.212 21.223,87.035 20.187 C 89.225 17.431,88.721 17.600,94.773 17.600 L 100.346 17.600 101.821 19.400 L 103.296 21.200 106.978 21.200 C 111.423 21.200,112.400 21.843,112.400 24.770 C 112.400 26.423,112.566 26.655,116.756 30.844 L 121.111 35.200 126.361 35.200 L 131.610 35.200 139.405 27.390 L 147.200 19.580 147.200 15.871 L 147.200 12.162 145.644 10.643 C 144.265 9.297,144.060 8.844,143.839 6.662 C 143.703 5.308,143.485 3.255,143.357 2.100 L 143.123 -0.000 71.561 -0.000 L 0.000 0.000 0.000 103.600 M100.869 7.862 C 101.763 8.671,101.778 8.964,100.971 9.771 C 99.996 10.747,79.007 10.712,77.925 9.732 C 77.210 9.085,77.215 9.036,78.064 8.132 C 79.235 6.885,99.524 6.645,100.869 7.862 M0.000 291.147 L 0.000 354.295 1.700 354.618 C 3.723 355.002,7.160 354.963,21.000 354.400 C 34.013 353.870,37.589 353.838,42.557 354.207 C 47.950 354.607,51.896 353.703,53.763 351.641 C 54.332 351.012,55.001 350.800,56.414 350.800 C 58.168 350.800,58.409 350.671,59.779 349.000 C 61.195 347.272,61.339 347.200,63.410 347.200 C 65.886 347.200,70.400 343.424,70.400 341.353 C 70.400 339.858,71.552 340.183,73.678 342.277 L 75.584 344.154 76.554 343.243 C 77.367 342.479,77.663 342.406,78.383 342.791 C 78.855 343.044,79.634 343.194,80.114 343.125 L 80.987 343.000 80.018 342.100 C 79.485 341.605,79.180 341.200,79.340 341.200 C 79.501 341.200,79.399 340.949,79.116 340.642 C 78.832 340.335,78.474 340.160,78.320 340.253 C 78.166 340.346,77.845 340.057,77.606 339.611 C 77.367 339.165,76.963 338.800,76.707 338.800 C 76.452 338.800,76.854 339.430,77.600 340.200 C 78.346 340.970,78.742 341.600,78.478 341.600 C 78.215 341.600,78.000 341.390,78.000 341.133 C 78.000 340.877,77.888 340.779,77.750 340.916 C 77.613 341.054,77.208 340.850,76.850 340.464 C 76.458 340.041,76.359 340.008,76.600 340.381 C 76.952 340.925,76.913 340.932,76.282 340.436 C 75.887 340.126,75.660 339.621,75.777 339.315 C 75.895 339.008,75.813 338.869,75.593 339.005 C 75.374 339.140,75.082 338.959,74.946 338.602 C 74.809 338.246,74.495 338.028,74.248 338.118 C 73.620 338.348,71.867 336.130,72.411 335.793 C 72.664 335.637,72.140 334.837,71.118 333.821 C 67.282 330.004,66.397 328.968,66.399 328.300 C 66.399 327.915,66.202 327.600,65.960 327.600 C 65.032 327.600,61.700 323.717,61.700 322.636 C 61.700 322.052,61.430 321.264,61.100 320.887 C 60.770 320.509,60.557 319.850,60.626 319.421 C 60.753 318.637,59.742 316.451,59.000 315.906 C 58.780 315.744,58.739 315.609,58.908 315.606 C 59.078 315.603,58.860 314.902,58.425 314.050 C 57.990 313.197,57.747 312.387,57.884 312.250 C 58.021 312.112,57.923 312.000,57.667 312.000 C 57.410 312.000,57.237 311.865,57.281 311.700 C 57.326 311.535,57.147 310.500,56.882 309.400 C 56.341 307.149,56.125 305.535,55.789 301.200 C 55.661 299.550,55.365 297.593,55.131 296.852 C 54.652 295.332,54.859 292.486,56.035 284.400 C 57.179 276.533,57.368 275.791,58.603 274.328 C 59.951 272.730,61.999 268.529,62.000 267.360 C 62.000 266.898,62.585 265.748,63.300 264.804 C 65.319 262.139,65.557 261.544,65.790 258.575 C 65.910 257.049,66.068 255.444,66.141 255.010 C 66.372 253.629,62.550 250.170,60.431 249.842 C 59.235 249.657,58.176 249.129,57.159 248.211 C 55.842 247.021,53.542 246.009,52.138 246.002 C 51.884 246.001,50.951 245.395,50.066 244.655 C 48.792 243.591,47.962 243.254,46.097 243.043 C 44.041 242.810,43.540 242.573,42.188 241.188 C 40.867 239.835,40.389 239.600,38.957 239.600 C 38.033 239.600,35.954 239.151,34.338 238.603 C 31.698 237.707,30.760 237.605,25.086 237.603 C 20.214 237.601,18.567 237.466,17.876 237.013 C 17.093 236.500,12.353 235.004,9.090 234.240 C 8.479 234.097,7.288 233.354,6.441 232.590 C 5.595 231.825,4.694 231.200,4.439 231.200 C 4.184 231.200,3.864 230.885,3.728 230.500 C 3.288 229.254,1.884 228.000,0.930 228.000 L 0.000 228.000 0.000 291.147 M75.233 340.233 C 77.091 342.126,77.001 342.359,74.829 341.281 C 73.250 340.496,71.512 337.947,72.784 338.280 C 73.177 338.383,74.279 339.262,75.233 340.233 M107.600 343.963 L 109.000 344.241 107.200 344.621 C 105.424 344.995,105.446 345.003,108.800 345.225 L 112.200 345.451 109.000 345.573 C 106.577 345.665,106.091 345.769,107.000 346.000 C 107.933 346.237,108.005 346.316,107.324 346.353 C 106.842 346.379,106.336 346.580,106.200 346.800 C 106.039 347.061,107.945 347.175,111.676 347.129 C 116.051 347.075,116.740 347.005,114.600 346.829 C 112.391 346.648,113.319 346.544,119.000 346.333 C 123.621 346.162,127.249 346.225,129.129 346.509 C 131.205 346.823,132.137 346.828,132.329 346.525 C 132.478 346.290,133.320 346.005,134.200 345.892 C 136.260 345.628,141.253 344.480,141.525 344.209 C 141.639 344.094,139.048 343.989,135.767 343.976 C 132.485 343.963,124.490 343.892,118.000 343.818 C 111.510 343.745,106.830 343.810,107.600 343.963 M103.662 345.553 C 103.267 345.804,103.412 345.967,104.209 346.167 C 104.806 346.316,105.393 346.340,105.514 346.219 C 105.635 346.099,105.388 345.997,104.967 345.994 C 104.325 345.989,104.298 345.924,104.800 345.600 C 105.333 345.255,105.333 345.212,104.800 345.212 C 104.470 345.212,103.958 345.366,103.662 345.553 " stroke="none" fill="#949492" fill-rule="evenodd"></path></g></svg>