<?xml version="1.0" encoding="UTF-8"?>
<!DOCTYPE svg PUBLIC "-//W3C//DTD SVG 1.1//EN" "http://www.w3.org/Graphics/SVG/1.1/DTD/svg11.dtd">
<svg xmlns="http://www.w3.org/2000/svg" version="1.1" width="94px" height="94px" style="shape-rendering:geometricPrecision; text-rendering:geometricPrecision; image-rendering:optimizeQuality; fill-rule:evenodd; clip-rule:evenodd" xmlns:xlink="http://www.w3.org/1999/xlink">
<g><path style="opacity:1" fill="#fefafa" d="M -0.5,-0.5 C 12.8333,-0.5 26.1667,-0.5 39.5,-0.5C 35.313,1.06378 30.9797,2.56378 26.5,4C 24.4453,4.68722 22.7786,5.85389 21.5,7.5C 27.1753,36.1952 32.842,64.8619 38.5,93.5C 25.5,93.5 12.5,93.5 -0.5,93.5C -0.5,79.8333 -0.5,66.1667 -0.5,52.5C 2.95415,72.2922 14.2875,85.2922 33.5,91.5C 31.4714,76.7185 28.8047,62.0519 25.5,47.5C 25,47.1667 24.5,46.8333 24,46.5C 20.1974,47.4606 16.364,48.2939 12.5,49C 10.8078,50.4007 10.1412,52.2341 10.5,54.5C 14.1222,54.1317 17.6222,54.1317 21,54.5C 22.757,62.6184 24.257,70.7851 25.5,79C 25.1667,79.8333 24.8333,80.6667 24.5,81.5C 9.50004,70.6949 3.33337,56.0282 6,37.5C 8.47636,28.7114 12.9764,21.2114 19.5,15C 19.062,13.0797 18.3953,11.2464 17.5,9.5C 8.61033,17.0406 2.61033,26.374 -0.5,37.5C -0.5,24.8333 -0.5,12.1667 -0.5,-0.5 Z"/></g>
<g><path style="opacity:1" fill="#fef9f8" d="M 43.5,-0.5 C 45.1667,-0.5 46.8333,-0.5 48.5,-0.5C 53.6092,29.5947 59.2759,59.5947 65.5,89.5C 68.0644,88.9012 69.7311,87.4012 70.5,85C 65.1542,56.3985 59.4875,27.8985 53.5,-0.5C 66.8333,-0.5 80.1667,-0.5 93.5,-0.5C 93.5,12.8333 93.5,26.1667 93.5,39.5C 88.8776,21.0454 77.7109,8.37871 60,1.5C 59.3333,3.5 59.3333,5.5 60,7.5C 64.9076,32.8538 69.9076,58.1871 75,83.5C 77.6283,82.5428 79.1283,80.7095 79.5,78C 77.3021,66.1804 75.3021,54.347 73.5,42.5C 77.6112,42.4776 81.6112,41.811 85.5,40.5C 86.086,40.7093 86.586,41.0426 87,41.5C 87.2051,46.7696 87.3718,51.9362 87.5,57C 88.9437,57.7805 90.277,57.6139 91.5,56.5C 92.0276,54.6639 92.6942,52.9972 93.5,51.5C 93.5,65.5 93.5,79.5 93.5,93.5C 76.8333,93.5 60.1667,93.5 43.5,93.5C 41.1681,78.8391 38.8347,64.1724 36.5,49.5C 40.1981,49.4476 43.8648,49.1143 47.5,48.5C 49.8647,63.2927 52.8647,77.9593 56.5,92.5C 57.7362,91.7542 59.0695,91.4208 60.5,91.5C 55.6012,60.6738 49.9345,30.0071 43.5,-0.5 Z"/></g>
<g><path style="opacity:1" fill="#e47a6d" d="M 48.5,-0.5 C 50.1667,-0.5 51.8333,-0.5 53.5,-0.5C 59.4875,27.8985 65.1542,56.3985 70.5,85C 69.7311,87.4012 68.0644,88.9012 65.5,89.5C 59.2759,59.5947 53.6092,29.5947 48.5,-0.5 Z"/></g>
<g><path style="opacity:1" fill="#e37a6d" d="M 39.5,-0.5 C 40.8333,-0.5 42.1667,-0.5 43.5,-0.5C 49.9345,30.0071 55.6012,60.6738 60.5,91.5C 59.0695,91.4208 57.7362,91.7542 56.5,92.5C 52.8647,77.9593 49.8647,63.2927 47.5,48.5C 43.8648,49.1143 40.1981,49.4476 36.5,49.5C 38.8347,64.1724 41.1681,78.8391 43.5,93.5C 41.8333,93.5 40.1667,93.5 38.5,93.5C 32.842,64.8619 27.1753,36.1952 21.5,7.5C 22.7786,5.85389 24.4453,4.68722 26.5,4C 30.9797,2.56378 35.313,1.06378 39.5,-0.5 Z"/></g>
<g><path style="opacity:1" fill="#e37a6d" d="M 93.5,39.5 C 93.5,43.5 93.5,47.5 93.5,51.5C 92.6942,52.9972 92.0276,54.6639 91.5,56.5C 90.277,57.6139 88.9437,57.7805 87.5,57C 87.3718,51.9362 87.2051,46.7696 87,41.5C 86.586,41.0426 86.086,40.7093 85.5,40.5C 81.6112,41.811 77.6112,42.4776 73.5,42.5C 75.3021,54.347 77.3021,66.1804 79.5,78C 79.1283,80.7095 77.6283,82.5428 75,83.5C 69.9076,58.1871 64.9076,32.8538 60,7.5C 59.3333,5.5 59.3333,3.5 60,1.5C 77.7109,8.37871 88.8776,21.0454 93.5,39.5 Z"/></g>
<g><path style="opacity:1" fill="#fef9f8" d="M 34.5,6.5 C 36.1667,6.5 37.8333,6.5 39.5,6.5C 41.1761,17.3813 43.1761,28.2147 45.5,39C 45.4411,40.4357 45.1078,41.769 44.5,43C 41.1464,43.4552 37.8131,43.9552 34.5,44.5C 32.7601,33.4662 30.7601,22.4662 28.5,11.5C 28.6082,10.5581 28.9415,9.72472 29.5,9C 31.3146,8.24316 32.9812,7.40982 34.5,6.5 Z"/></g>
<g><path style="opacity:1" fill="#e37a6d" d="M -0.5,52.5 C -0.5,47.5 -0.5,42.5 -0.5,37.5C 2.61033,26.374 8.61033,17.0406 17.5,9.5C 18.3953,11.2464 19.062,13.0797 19.5,15C 12.9764,21.2114 8.47636,28.7114 6,37.5C 3.33337,56.0282 9.50004,70.6949 24.5,81.5C 24.8333,80.6667 25.1667,79.8333 25.5,79C 24.257,70.7851 22.757,62.6184 21,54.5C 17.6222,54.1317 14.1222,54.1317 10.5,54.5C 10.1412,52.2341 10.8078,50.4007 12.5,49C 16.364,48.2939 20.1974,47.4606 24,46.5C 24.5,46.8333 25,47.1667 25.5,47.5C 28.8047,62.0519 31.4714,76.7185 33.5,91.5C 14.2875,85.2922 2.95415,72.2922 -0.5,52.5 Z"/></g>
<g><path style="opacity:1" fill="#fef9f9" d="M 66.5,12.5 C 67.7211,11.5354 69.0544,11.702 70.5,13C 77.6548,18.3122 82.6548,25.1455 85.5,33.5C 85.2907,34.086 84.9574,34.586 84.5,35C 80.1222,35.6786 75.7889,36.5119 71.5,37.5C 70.1934,28.9667 68.5267,20.6333 66.5,12.5 Z"/></g>
</svg>
