<?xml version="1.0" standalone="no"?>
<!DOCTYPE svg PUBLIC "-//W3C//DTD SVG 20010904//EN"
 "http://www.w3.org/TR/2001/REC-SVG-20010904/DTD/svg10.dtd">
<svg version="1.0" xmlns="http://www.w3.org/2000/svg"
 width="1200.000000pt" height="1200.000000pt" viewBox="0 0 1200.000000 1200.000000"
 preserveAspectRatio="xMidYMid meet">

<g transform="translate(0.000000,1200.000000) scale(0.100000,-0.100000)"
fill="#000000" stroke="none">
<path d="M5750 11993 c-150 -6 -449 -34 -619 -59 -1048 -152 -2052 -589 -2876
-1252 -349 -280 -733 -671 -1001 -1017 -1167 -1507 -1545 -3485 -1018 -5328
320 -1118 978 -2139 1872 -2904 955 -817 2124 -1308 3377 -1418 231 -20 810
-20 1045 0 1804 158 3451 1133 4463 2644 580 867 917 1839 998 2882 18 235 6
922 -20 1133 -63 510 -163 935 -323 1376 -623 1710 -2012 3063 -3734 3638
-683 228 -1432 334 -2164 305z m585 -273 c1762 -105 3336 -981 4363 -2428 526
-741 874 -1629 992 -2534 38 -294 45 -409 44 -768 0 -378 -11 -533 -59 -855
-215 -1425 -961 -2714 -2098 -3623 -1352 -1081 -3119 -1491 -4812 -1116 -1334
295 -2517 1060 -3345 2160 -1131 1503 -1449 3457 -856 5256 148 450 397 958
668 1363 214 319 423 571 722 871 236 235 391 371 621 544 846 635 1844 1018
2900 1114 288 27 587 32 860 16z"/>
<path d="M6323 11470 c-200 -29 -302 -173 -303 -421 0 -216 106 -335 333 -370
201 -31 370 45 425 193 65 174 50 366 -36 476 -70 88 -264 145 -419 122z m201
-158 c58 -34 71 -73 71 -207 0 -144 -18 -208 -70 -254 -43 -37 -92 -47 -160
-32 -108 24 -148 119 -125 296 21 164 83 232 200 220 30 -3 68 -14 84 -23z"/>
<path d="M5240 11435 c-133 -37 -222 -105 -268 -203 -25 -52 -27 -67 -26 -177
1 -135 12 -177 70 -262 63 -91 145 -133 280 -141 107 -6 191 10 311 58 l98 39
3 42 c2 29 -1 44 -13 53 -10 7 -19 36 -24 71 -9 61 -1 95 22 95 7 0 18 4 25 9
22 13 -5 91 -31 91 -53 0 -273 -35 -279 -44 -4 -6 -8 -28 -8 -48 0 -32 3 -38
21 -38 40 0 58 -18 64 -68 4 -26 9 -55 12 -65 8 -29 -76 -60 -151 -55 -80 5
-120 33 -153 105 -60 130 -53 283 16 352 82 82 243 83 300 2 12 -17 30 -31 40
-31 37 0 49 23 56 105 l7 81 -59 19 c-78 25 -239 30 -313 10z"/>
<path d="M7110 11356 c-25 -58 -60 -150 -60 -156 0 -3 15 -12 34 -18 32 -12
36 -11 61 14 28 28 49 29 138 3 29 -8 37 -14 33 -27 -3 -9 -33 -118 -67 -242
-33 -124 -65 -233 -70 -242 -6 -10 -20 -18 -33 -18 -27 0 -36 -17 -36 -64 l0
-32 128 -33 c70 -19 132 -36 139 -39 6 -2 22 16 34 39 l22 43 -22 14 c-12 8
-21 25 -21 39 0 31 119 474 131 487 12 13 115 -20 140 -45 10 -10 19 -30 19
-43 0 -21 6 -24 40 -28 23 -2 40 1 41 7 0 5 6 46 13 90 8 44 11 83 7 87 -3 3
-154 47 -334 96 -324 88 -329 89 -337 68z"/>
<path d="M4150 11079 c0 -8 -7 -60 -14 -116 l-14 -101 -71 -83 c-38 -46 -69
-85 -66 -87 2 -2 51 -10 110 -18 l107 -14 85 -71 c46 -39 86 -69 89 -67 2 3 9
51 16 108 l12 104 61 74 c99 121 102 107 -26 122 -96 11 -116 17 -143 39 -120
103 -146 122 -146 110z"/>
<path d="M8107 11024 c-27 -33 -28 -37 -13 -53 9 -10 16 -26 16 -36 0 -17
-210 -435 -233 -463 -6 -8 -23 -12 -38 -10 -24 4 -28 0 -38 -33 -6 -20 -11
-41 -11 -48 0 -10 229 -131 249 -131 6 0 22 16 37 36 25 33 26 37 11 46 -28
15 -20 55 29 144 l46 84 129 -66 c71 -36 129 -69 129 -73 0 -3 -21 -47 -48
-96 -45 -85 -49 -90 -79 -89 -29 2 -32 -2 -42 -42 -6 -23 -11 -45 -11 -48 0
-7 236 -126 249 -126 6 0 22 16 37 36 25 33 26 37 11 46 -9 5 -17 19 -17 32 0
12 53 126 118 252 116 227 117 229 149 228 29 -2 32 2 43 42 7 25 11 46 9 48
-13 11 -238 126 -246 126 -6 0 -23 -16 -38 -36 -25 -33 -26 -37 -11 -53 9 -10
16 -25 16 -35 0 -19 -67 -156 -77 -156 -3 0 -63 30 -134 67 l-127 67 38 77
c40 78 54 91 88 83 16 -5 21 3 32 41 7 25 11 47 9 49 -11 8 -242 126 -247 126
-4 0 -20 -16 -35 -36z"/>
<path d="M3310 10754 c-93 -24 -220 -92 -275 -148 -68 -68 -90 -116 -90 -191
0 -118 82 -206 199 -213 50 -3 81 3 172 32 127 41 166 44 194 16 47 -47 29
-110 -48 -164 -54 -38 -150 -48 -201 -21 -30 15 -35 15 -57 0 -29 -19 -29 -13
-3 -102 21 -69 23 -73 52 -73 48 0 147 29 223 66 169 83 259 223 225 351 -16
59 -68 124 -121 151 -61 32 -141 26 -282 -22 -59 -20 -113 -36 -121 -36 -8 0
-26 9 -41 21 -64 50 -11 143 100 175 50 14 60 14 101 1 41 -14 49 -14 70 0 12
8 23 20 23 25 0 28 -44 148 -53 147 -7 0 -37 -7 -67 -15z"/>
<path d="M5731 10429 c-488 -28 -1006 -149 -1456 -341 -1459 -622 -2474 -1959
-2675 -3523 -132 -1027 95 -2057 647 -2935 310 -493 743 -947 1225 -1283 616
-429 1314 -688 2088 -774 213 -23 685 -23 898 0 1166 130 2175 660 2931 1541
583 679 935 1507 1038 2436 20 188 23 665 4 845 -93 905 -414 1696 -966 2382
-906 1126 -2282 1735 -3734 1652z m604 -339 c509 -43 986 -171 1433 -386 202
-96 303 -154 507 -290 970 -643 1630 -1679 1794 -2819 35 -243 44 -402 38
-695 -9 -457 -71 -814 -213 -1231 -468 -1380 -1643 -2413 -3074 -2703 -288
-59 -426 -71 -810 -71 -379 0 -462 7 -760 61 -821 151 -1591 565 -2185 1175
-638 655 -1028 1472 -1142 2389 -26 207 -25 755 1 955 87 679 298 1249 661
1795 251 377 595 740 961 1015 624 469 1372 749 2154 808 107 8 525 6 635 -3z"/>
<path d="M5960 9791 c-76 -16 -131 -64 -161 -136 -6 -17 -15 -74 -19 -129 l-6
-99 -41 -37 c-110 -104 -456 -131 -622 -49 -75 37 -196 148 -252 231 -22 31
-49 64 -61 72 -47 33 -140 8 -168 -45 -19 -35 -5 -97 47 -199 38 -77 63 -111
133 -181 144 -144 302 -207 580 -230 74 -6 166 -9 203 -6 100 9 109 3 131 -84
10 -41 46 -150 81 -244 92 -249 89 -236 65 -277 -49 -84 -31 -210 40 -271 l40
-34 -33 -50 c-60 -90 -105 -257 -133 -501 -22 -190 -15 -538 15 -707 52 -296
146 -512 272 -630 70 -65 128 -89 214 -90 60 0 78 4 125 31 138 77 200 263
221 659 19 371 29 419 90 436 45 13 196 10 207 -4 15 -18 -46 -538 -129 -1105
-34 -238 -26 -320 50 -470 43 -86 86 -218 113 -354 20 -98 23 -142 22 -338 0
-193 -3 -239 -22 -325 -29 -132 -63 -237 -82 -246 -8 -4 -61 -21 -117 -39
-209 -65 -353 -190 -329 -284 9 -38 57 -51 181 -51 135 1 240 23 352 75 105
49 160 103 196 193 15 38 69 151 121 251 145 285 189 443 190 681 2 256 -37
352 -210 520 -149 147 -151 156 -69 342 97 222 140 432 170 846 6 79 10 92 36
122 39 44 101 68 155 60 71 -10 101 -54 142 -210 51 -193 53 -353 7 -644 -29
-186 -26 -241 20 -369 60 -167 96 -432 96 -717 0 -286 -14 -412 -102 -915 -6
-36 -16 -70 -23 -76 -6 -7 -42 -22 -81 -34 -205 -67 -321 -156 -313 -242 3
-28 10 -36 48 -55 107 -55 378 -7 523 91 60 40 62 43 102 146 23 58 87 195
142 305 124 247 192 402 232 531 96 303 79 547 -51 737 -32 48 -130 151 -202
214 -58 50 -60 53 -59 100 0 29 21 110 52 208 61 190 97 326 111 425 14 96 0
198 -49 377 -38 138 -44 172 -42 242 l1 34 43 -6 c59 -8 195 -52 273 -88 76
-35 100 -32 120 17 21 51 18 115 -9 155 -32 48 -161 131 -283 181 -76 32 -104
48 -104 61 0 10 29 122 64 250 81 291 110 426 132 596 13 105 14 142 5 172
-18 59 -55 97 -114 114 -73 22 -255 52 -365 61 -59 4 -98 12 -108 21 -15 16
-37 83 -59 188 -18 88 -19 124 -1 166 58 140 6 268 -131 319 -206 77 -475 31
-539 -92 -38 -73 -8 -196 64 -259 43 -38 143 -87 194 -95 35 -6 39 -10 53 -58
9 -28 23 -86 31 -130 20 -95 20 -96 -91 -96 -105 -1 -376 -22 -750 -60 -167
-17 -323 -30 -347 -28 -38 3 -45 7 -60 38 -10 19 -34 98 -53 175 -66 255 -59
426 21 515 42 46 71 56 180 64 216 14 341 138 259 258 -34 50 -77 74 -170 93
-88 18 -348 29 -405 16z m1866 -1406 c70 -20 79 -43 71 -183 -10 -173 -54
-382 -96 -461 -30 -55 -182 -92 -304 -75 -176 26 -214 90 -224 388 -9 248 7
288 125 322 119 35 321 39 428 9z m-994 -56 c17 -12 36 -36 44 -54 17 -43 69
-294 88 -433 29 -209 -2 -251 -191 -252 -95 0 -166 16 -190 43 -11 12 -37 74
-56 137 -53 169 -126 258 -241 290 l-45 12 29 29 c19 19 33 48 41 86 29 129
98 159 372 162 107 1 122 -1 149 -20z m-613 -673 c33 -35 57 -107 82 -251 21
-117 23 -161 24 -430 0 -309 -7 -381 -42 -454 -25 -50 -53 -52 -91 -5 -137
166 -182 985 -61 1137 25 33 59 34 88 3z"/>
<path d="M4031 8299 c-292 -33 -592 -139 -800 -282 -384 -266 -572 -707 -522
-1224 68 -697 546 -1217 1231 -1340 130 -23 381 -22 515 1 599 105 1020 563
1141 1241 22 125 30 381 15 486 -23 161 -93 336 -199 499 -212 327 -522 543
-872 606 -103 19 -394 26 -509 13z m300 -231 c66 -29 90 -147 39 -193 -23 -21
-151 -41 -327 -51 -118 -6 -133 -5 -176 14 -55 24 -87 70 -87 124 0 57 43 89
154 114 85 19 347 14 397 -8z m609 -205 c60 -35 173 -151 199 -206 28 -58 27
-93 -4 -121 -30 -28 -105 -51 -138 -42 -67 16 -273 187 -297 246 -26 62 16
140 84 158 40 11 100 -3 156 -35z m-1479 -40 c36 -30 68 -94 69 -135 0 -32
-47 -97 -139 -192 -120 -124 -165 -145 -232 -110 -32 16 -68 81 -69 121 -1 79
155 269 264 323 54 26 68 25 107 -7z m858 -209 c167 -40 341 -161 341 -235 0
-28 -9 -43 -42 -76 -80 -77 -240 -153 -323 -153 -42 0 -50 4 -93 48 -89 89
-212 284 -212 336 0 79 167 120 329 80z m-559 -164 c51 -27 168 -234 191 -337
11 -49 11 -59 -6 -89 -10 -19 -39 -48 -64 -64 -101 -68 -275 -133 -337 -128
-51 4 -75 45 -81 136 -13 186 97 412 230 472 50 23 44 22 67 10z m1592 -241
c33 -39 50 -120 55 -254 5 -146 -6 -196 -50 -228 -32 -24 -113 -32 -146 -15
-51 27 -61 55 -71 198 -13 174 -5 256 26 285 51 47 152 55 186 14z m-2180
-110 c23 -12 35 -62 48 -199 12 -124 7 -202 -16 -237 -20 -32 -92 -66 -142
-67 -37 -1 -48 4 -72 31 -43 48 -64 130 -64 248 -1 57 5 116 13 138 28 82 153
128 233 86z m1677 -34 c34 -39 61 -118 61 -179 -1 -114 -57 -266 -131 -350
-79 -90 -139 -100 -213 -35 -103 91 -206 257 -206 333 0 49 19 71 114 131 100
63 267 133 322 134 13 1 35 -14 53 -34z m-748 -321 c67 -34 167 -243 177 -365
4 -65 4 -68 -24 -85 -39 -26 -152 -31 -235 -10 -157 39 -349 172 -349 241 0
53 153 166 290 212 78 27 101 28 141 7z m1026 -356 c36 -10 83 -60 83 -87 0
-38 -64 -144 -131 -215 -124 -133 -195 -163 -259 -110 -71 61 -79 131 -23 214
49 74 184 207 214 212 28 5 71 0 116 -14z m-1724 -37 c47 -32 180 -168 216
-219 19 -28 23 -42 18 -85 -4 -44 -10 -56 -45 -89 -55 -51 -95 -51 -181 0 -80
46 -201 165 -229 223 -26 54 -20 86 22 133 63 72 131 84 199 37z m1024 -377
c41 -29 74 -100 71 -149 -3 -36 -7 -42 -43 -60 -83 -41 -393 -29 -487 19 -39
19 -43 25 -46 61 -3 49 24 97 67 120 43 22 148 33 288 32 105 -2 125 -5 150
-23z"/>
<path d="M2839 5666 c-105 -37 -158 -104 -166 -209 -4 -52 -1 -69 19 -107 51
-95 150 -114 291 -55 14 6 17 2 17 -19 0 -57 -45 -229 -101 -386 -88 -243
-100 -294 -106 -453 -6 -155 3 -234 47 -403 69 -263 196 -482 405 -702 498
-523 1313 -870 2295 -978 196 -21 718 -30 935 -15 350 24 712 76 899 131 285
83 659 267 930 458 569 401 902 864 1112 1546 61 200 78 304 79 476 0 140 -3
161 -24 214 -46 114 -126 175 -243 184 -87 6 -110 -1 -153 -45 -97 -99 -79
-291 36 -383 38 -30 39 -32 39 -98 0 -118 -49 -286 -137 -472 -214 -455 -552
-771 -875 -820 -116 -17 -142 -9 -218 70 -36 37 -75 73 -87 79 -53 27 -163 0
-180 -46 -4 -9 3 -55 15 -102 13 -47 22 -95 22 -107 0 -27 -49 -72 -85 -79
-54 -10 -89 23 -146 137 -89 178 -155 236 -261 226 -98 -10 -104 -56 -34 -230
57 -140 63 -175 42 -215 -58 -113 -177 -109 -236 8 -27 52 -81 250 -90 328
-13 109 -68 155 -177 149 -49 -3 -68 -9 -87 -27 -58 -54 -54 -134 10 -224 19
-26 34 -51 34 -57 0 -5 18 -50 40 -100 22 -50 40 -104 40 -120 0 -100 -177
-107 -230 -10 -5 9 -31 91 -59 183 -39 127 -52 187 -55 246 -3 87 -21 129 -69
165 -40 30 -149 34 -197 8 -87 -47 -104 -144 -40 -223 18 -23 55 -93 82 -156
77 -177 76 -271 -6 -310 -30 -14 -36 -14 -69 2 -30 14 -41 29 -66 89 -44 107
-131 424 -131 481 0 103 -42 173 -118 196 -33 9 -51 10 -82 0 -83 -25 -105
-89 -70 -206 32 -109 81 -354 83 -420 2 -49 -2 -66 -21 -92 -46 -64 -147 -66
-193 -3 -26 34 -74 230 -89 361 -12 98 -11 112 9 196 25 107 26 132 6 179 -10
23 -26 39 -49 49 -84 35 -162 6 -204 -75 -21 -40 -23 -53 -16 -115 4 -38 8
-110 8 -160 1 -49 5 -141 10 -202 10 -131 2 -161 -51 -194 -71 -44 -177 -23
-227 44 -25 34 -27 96 -8 287 9 93 10 145 2 202 -9 63 -8 82 4 105 20 40 37
137 29 176 -16 85 -63 122 -144 115 -58 -6 -108 -41 -135 -95 -25 -51 -25
-147 0 -189 18 -30 18 -33 -13 -195 -61 -314 -83 -368 -162 -389 -49 -14 -112
2 -134 33 -23 32 -19 139 10 273 14 64 25 125 25 136 0 11 16 52 35 91 72 147
26 267 -104 267 -81 0 -128 -76 -118 -190 3 -40 -3 -85 -24 -167 -47 -184 -95
-254 -176 -256 -75 -2 -122 100 -102 224 5 35 40 153 76 261 58 171 70 198 90
203 40 10 100 73 117 122 22 63 20 101 -6 153 -40 78 -145 114 -203 68 -33
-26 -64 -91 -65 -135 0 -40 -39 -73 -86 -73 -26 0 -40 8 -67 41 -68 78 -75
209 -17 325 50 102 129 158 269 189 89 21 121 45 121 90 0 28 -6 37 -30 50
-63 33 -244 6 -353 -52 -29 -15 -79 -55 -113 -88 -190 -188 -204 -519 -34
-780 l39 -60 -37 -88 c-35 -82 -39 -87 -67 -87 -78 0 -218 128 -281 255 -53
109 -75 210 -76 350 0 142 16 241 72 419 84 269 93 451 29 621 -31 83 -122
174 -198 198 -63 20 -171 22 -222 3z"/>
<path d="M9129 10336 c-61 -23 -112 -60 -170 -123 -205 -222 -181 -442 68
-620 116 -83 228 -103 340 -62 46 17 75 39 139 103 107 108 147 188 153 298 3
70 0 84 -27 142 -40 86 -135 179 -233 231 -65 34 -84 39 -154 42 -51 2 -93 -2
-116 -11z m253 -185 c54 -34 87 -78 95 -125 16 -98 -162 -321 -272 -342 -45
-8 -111 23 -157 74 -33 37 -38 48 -38 92 0 101 110 251 235 319 36 19 89 13
137 -18z"/>
<path d="M2261 10002 l-145 -138 24 -41 c21 -38 25 -40 47 -30 14 6 27 7 33 1
17 -17 220 -503 220 -526 0 -13 -5 -29 -12 -36 -14 -14 -2 -29 40 -54 l30 -18
87 83 88 83 -24 42 c-25 43 -33 49 -44 32 -13 -21 -35 -9 -55 30 -11 21 -20
43 -20 49 0 5 45 51 101 102 l100 92 45 -22 c41 -20 45 -24 39 -50 -5 -24 -1
-31 32 -53 l39 -25 103 96 104 97 -27 43 c-20 32 -31 40 -39 32 -23 -23 -64
-8 -286 104 -251 126 -283 146 -263 166 6 7 12 18 12 24 0 10 -63 55 -77 55
-5 0 -73 -62 -152 -138z m114 -120 c22 -17 86 -55 143 -85 l103 -54 -72 -67
c-39 -36 -74 -66 -78 -66 -3 0 -22 39 -41 87 -19 47 -53 120 -77 160 -23 41
-37 70 -30 65 7 -5 30 -23 52 -40z"/>
<path d="M10027 9668 c-42 -19 -45 -22 -35 -43 6 -13 8 -30 5 -37 -6 -18 -404
-338 -419 -338 -6 0 -19 7 -29 16 -15 14 -19 12 -48 -23 -17 -21 -31 -40 -30
-43 0 -3 64 -84 142 -180 172 -212 222 -252 322 -258 56 -4 70 -1 110 22 25
15 58 46 73 68 23 36 27 52 27 114 l-1 71 29 -9 c39 -14 114 -4 146 19 78 58
93 151 42 258 -15 33 -87 133 -158 221 l-129 162 -47 -20z m145 -295 c51 -68
60 -90 53 -123 -9 -40 -49 -70 -93 -70 -31 0 -44 8 -90 56 -29 31 -51 60 -50
65 3 9 130 117 138 118 3 1 22 -20 42 -46z m-234 -208 c54 -69 66 -106 48
-150 -28 -67 -106 -95 -161 -59 -26 17 -105 111 -105 124 0 9 158 140 169 140
3 0 26 -25 49 -55z"/>
<path d="M1590 9249 c-105 -143 -196 -269 -203 -280 -10 -17 -4 -26 53 -78 36
-33 70 -60 76 -61 6 0 21 11 33 24 22 23 22 25 6 50 -11 16 -14 33 -10 48 8
28 67 118 77 118 14 0 416 -301 422 -316 3 -8 1 -24 -4 -35 -10 -17 -5 -22 36
-39 26 -11 48 -19 49 -18 1 2 39 54 85 117 l82 114 -35 35 c-30 29 -38 33 -51
23 -8 -7 -24 -11 -36 -9 -25 4 -419 289 -420 303 0 6 21 34 46 63 43 50 49 53
87 50 37 -3 41 0 53 29 l13 32 -79 45 c-43 25 -81 46 -84 46 -3 0 -91 -117
-196 -261z"/>
<path d="M10671 8815 c-42 -10 -45 -13 -45 -44 -1 -33 -2 -34 -200 -137 -109
-56 -209 -113 -221 -124 -13 -12 -33 -45 -45 -73 -19 -43 -22 -64 -18 -134 4
-72 10 -93 46 -166 78 -157 167 -227 289 -227 60 0 73 5 261 100 109 55 205
100 214 100 8 0 22 -9 29 -20 14 -19 15 -18 53 14 l39 33 -64 120 -64 119 -45
-13 c-42 -12 -45 -15 -45 -45 0 -33 -2 -34 -190 -130 -203 -104 -236 -113
-285 -78 -35 25 -80 113 -80 156 0 17 9 43 20 57 23 29 377 217 409 217 11 0
26 -8 33 -19 13 -18 15 -17 52 13 l38 33 -40 79 c-22 43 -53 102 -69 130 l-28
50 -44 -11z"/>
<path d="M1121 8493 l-63 -127 38 -32 c38 -32 38 -32 52 -12 11 15 21 18 41
14 14 -3 125 -56 246 -118 l220 -113 1 -34 c0 -33 3 -36 46 -47 l47 -12 65
128 66 128 -38 31 -39 30 -22 -22 -22 -22 -235 120 c-130 66 -239 127 -244
136 -5 9 -7 25 -4 36 4 16 -2 22 -34 31 -22 7 -43 12 -48 12 -5 0 -38 -57 -73
-127z"/>
<path d="M881 7893 c-42 -51 -97 -165 -117 -243 -40 -156 15 -292 135 -335 62
-22 110 -19 169 11 56 28 89 65 146 164 73 127 124 156 183 106 24 -21 28 -31
28 -78 -1 -91 -62 -174 -146 -199 -28 -9 -41 -20 -48 -41 -10 -28 -8 -30 62
-75 l71 -46 41 46 c47 51 104 155 130 237 22 67 24 190 3 240 -34 81 -108 136
-196 147 -110 13 -181 -39 -274 -198 -64 -109 -78 -122 -118 -122 -62 0 -89
58 -65 140 16 55 74 118 118 129 26 6 47 36 47 65 0 10 -117 89 -131 89 -4 0
-21 -17 -38 -37z"/>
<path d="M11120 7716 c0 -13 -6 -29 -13 -35 -8 -6 -124 -40 -259 -76 -220 -58
-278 -68 -278 -46 0 3 -4 12 -9 19 -7 11 -16 10 -50 -7 -22 -12 -41 -27 -41
-34 1 -6 16 -68 34 -137 l33 -125 51 -3 c52 -3 52 -3 52 27 0 19 7 34 18 39
34 18 164 44 172 36 5 -5 14 -37 21 -71 12 -59 12 -65 -7 -90 -12 -16 -56 -47
-100 -70 -43 -24 -93 -58 -111 -77 l-32 -34 19 -69 c10 -37 24 -87 30 -110
l11 -43 50 0 c50 0 51 1 45 26 -11 42 2 63 60 96 72 40 111 80 125 129 l12 40
36 -35 c43 -42 78 -56 137 -56 56 0 110 22 151 62 76 73 75 159 -1 446 -31
117 -56 214 -56 217 0 3 -22 5 -50 5 -46 0 -50 -2 -50 -24z m61 -288 c7 -24
15 -61 20 -83 14 -78 -34 -138 -112 -138 -59 0 -94 38 -120 132 -11 40 -19 74
-17 77 6 6 181 52 200 53 12 1 21 -12 29 -41z"/>
<path d="M1276 6952 c-3 -3 -6 -13 -6 -22 0 -35 -25 -51 -104 -65 -85 -15
-114 -30 -148 -75 l-22 -30 -31 57 c-41 74 -92 103 -178 103 -101 0 -162 -49
-203 -161 -14 -39 -64 -412 -64 -480 0 -22 7 -28 41 -38 40 -12 43 -12 63 14
l21 27 245 -27 c135 -14 255 -30 267 -35 12 -5 25 -21 29 -36 6 -24 10 -26 43
-20 20 3 41 6 47 6 7 0 16 43 23 113 7 61 15 126 17 143 6 30 4 32 -42 43 -35
9 -50 9 -52 2 -11 -34 -35 -43 -96 -36 -119 12 -116 11 -116 63 0 57 26 113
60 129 14 6 65 16 114 22 49 6 105 19 125 28 l36 18 12 95 c17 145 19 136 -31
153 -25 8 -47 13 -50 9z m-436 -245 c44 -22 62 -72 54 -157 -3 -41 -8 -78 -10
-81 -2 -4 -111 6 -223 21 -8 1 12 137 24 166 24 59 94 82 155 51z"/>
<path d="M10973 6615 c-116 -32 -187 -90 -237 -194 -30 -64 -31 -71 -31 -201
0 -121 3 -144 29 -225 16 -49 30 -95 32 -101 1 -6 21 -14 44 -17 33 -4 46 -1
61 14 14 14 33 19 77 19 63 0 82 -11 82 -47 0 -26 8 -27 64 -12 l38 10 -7 147
c-4 81 -8 148 -9 149 -2 2 -23 6 -49 9 -44 6 -46 6 -49 -22 -4 -37 -37 -54
-105 -54 -48 0 -52 2 -62 31 -16 47 -14 145 5 182 36 71 96 98 234 104 100 4
108 3 160 -24 76 -39 105 -91 105 -190 0 -80 -16 -111 -73 -148 -24 -15 -31
-27 -32 -52 0 -30 2 -32 58 -44 31 -6 73 -12 92 -13 33 -1 35 1 57 56 88 219
26 480 -139 584 -81 51 -234 68 -345 39z"/>
<path d="M1095 5840 c-4 -23 -5 -42 -3 -44 1 -1 17 -6 33 -12 40 -13 53 -55
57 -181 l3 -98 -94 -8 c-51 -5 -97 -5 -101 0 -4 4 -10 41 -13 81 -6 68 -4 76
17 97 21 21 22 25 9 57 l-14 34 -87 -9 c-48 -5 -88 -10 -90 -12 -2 -1 -5 -18
-9 -38 -4 -29 -2 -36 16 -42 25 -8 31 -28 34 -120 l2 -70 -89 -8 c-49 -4 -91
-6 -93 -3 -3 2 -7 50 -10 105 -5 88 -4 104 12 121 10 11 24 20 32 20 16 0 16
8 2 49 l-11 32 -82 -7 c-44 -3 -85 -10 -89 -14 -7 -6 38 -559 46 -566 1 -1 23
-5 49 -8 44 -7 48 -5 48 13 0 11 10 27 23 34 24 15 510 62 528 51 6 -3 14 -17
19 -30 9 -23 10 -23 55 -8 32 11 45 21 45 35 0 24 -51 573 -53 575 -1 1 -43 4
-94 8 l-91 7 -7 -41z"/>
<path d="M10718 5563 c-10 -2 -18 -10 -18 -16 -1 -7 -20 -138 -44 -292 -24
-154 -43 -281 -42 -283 3 -3 168 -51 176 -52 4 0 12 16 19 36 12 32 11 38 -2
46 -33 18 -47 41 -47 76 0 39 27 212 33 219 4 4 197 -24 202 -29 2 -2 -3 -38
-11 -82 -14 -80 -26 -106 -50 -106 -15 0 -19 -46 -6 -67 4 -7 47 -19 94 -26
l86 -14 14 36 c14 34 13 38 -6 52 -19 15 -19 20 -9 98 6 45 13 84 15 87 6 5
163 -17 177 -25 15 -9 -12 -175 -34 -207 -9 -15 -25 -24 -41 -24 -23 0 -25 -3
-22 -42 l3 -42 84 -13 c47 -7 88 -10 91 -6 4 5 24 123 44 263 21 140 40 264
43 276 3 17 -4 24 -39 37 -55 21 -55 21 -61 -3 -3 -11 -13 -23 -22 -26 -9 -4
-127 10 -263 31 -251 38 -282 48 -282 87 0 14 -7 18 -32 17 -18 -1 -41 -3 -50
-6z"/>
<path d="M677 4856 c-50 -30 -48 -29 -38 -62 5 -16 21 -68 36 -116 l26 -88 49
0 c47 0 50 2 50 25 0 14 7 28 15 31 9 4 86 -1 173 -10 87 -9 196 -16 242 -16
l85 0 -63 -34 c-35 -19 -123 -79 -195 -133 -166 -125 -155 -118 -178 -97 -18
16 -21 16 -55 -2 -20 -10 -38 -23 -40 -29 -2 -5 14 -68 35 -140 29 -99 42
-130 55 -129 9 0 32 1 51 2 32 2 35 4 29 26 -4 16 0 30 13 43 10 10 136 109
280 221 145 112 265 207 268 212 4 7 -29 137 -49 197 -1 1 -154 15 -341 32
-187 17 -350 34 -362 36 -12 3 -28 16 -35 29 l-13 25 -38 -23z"/>
<path d="M10533 4658 c-6 -18 -25 -70 -42 -116 l-31 -82 41 -27 40 -26 15 21
c8 12 21 22 27 22 7 0 94 -30 195 -67 l183 -67 -63 -13 c-35 -7 -175 -46 -312
-86 l-249 -72 -25 -68 c-13 -37 -22 -70 -20 -73 3 -2 137 -54 299 -115 162
-61 300 -116 307 -122 8 -6 12 -21 9 -34 -3 -18 1 -24 19 -28 13 -3 35 -7 48
-10 22 -5 27 1 52 68 14 39 33 87 40 106 20 48 18 56 -23 83 l-36 24 -23 -23
-23 -23 -98 36 c-54 20 -132 48 -173 62 l-75 26 45 7 c38 6 214 54 470 129
l65 19 34 93 c19 51 36 98 38 104 2 6 -15 23 -38 38 l-41 28 -15 -21 c-8 -12
-22 -21 -31 -21 -17 0 -444 160 -482 180 -13 7 -20 21 -20 39 0 25 -4 29 -37
35 -57 9 -59 8 -70 -26z"/>
<path d="M1670 4026 c-42 -11 -45 -14 -42 -44 l3 -31 -230 -116 c-127 -63
-238 -115 -248 -115 -9 0 -25 7 -34 16 -17 16 -21 15 -54 -10 -19 -15 -35 -31
-35 -37 0 -21 121 -249 133 -249 6 0 28 5 47 10 31 8 35 13 35 42 0 33 1 33
220 144 121 61 230 114 242 118 15 5 28 1 43 -14 l21 -21 39 31 39 31 -64 130
c-36 71 -66 129 -68 128 -1 -1 -22 -6 -47 -13z"/>
<path d="M10143 3671 c-162 -127 -253 -306 -224 -437 32 -144 188 -224 318
-164 23 10 82 57 130 103 121 116 150 128 191 84 64 -68 -38 -227 -146 -227
-23 0 -36 -8 -52 -30 l-22 -30 60 -62 59 -62 90 90 c70 69 98 106 127 165 69
140 59 249 -30 327 -75 67 -157 76 -247 30 -21 -10 -76 -54 -120 -97 -116
-110 -146 -123 -192 -76 -81 80 38 255 173 255 31 0 41 5 54 28 l17 29 -57 56
c-32 31 -63 57 -69 57 -6 0 -33 -17 -60 -39z"/>
<path d="M1766 3265 c-143 -107 -266 -195 -274 -195 -9 0 -23 7 -33 15 -15 15
-19 13 -48 -24 l-32 -40 72 -96 c39 -52 75 -95 80 -95 5 0 24 7 43 17 31 14
35 20 33 50 -2 33 3 39 140 143 l142 109 -18 -42 c-10 -23 -50 -151 -90 -284
l-72 -243 67 -89 67 -89 43 20 c39 20 42 23 37 54 -5 32 -3 34 203 189 208
156 218 161 265 141 12 -5 25 3 44 28 l27 36 -71 95 c-39 52 -76 95 -81 95 -5
0 -25 -7 -44 -16 -31 -15 -34 -20 -29 -49 5 -32 2 -35 -118 -125 -68 -51 -139
-107 -156 -123 -36 -34 -39 -32 -22 10 6 15 48 152 94 303 l82 275 -29 40
c-16 22 -36 50 -46 62 l-17 22 -259 -194z"/>
<path d="M9522 2865 l-94 -106 28 -37 c15 -20 29 -39 30 -41 2 -1 13 4 25 13
30 21 32 19 252 -177 135 -121 177 -164 177 -182 0 -13 -5 -27 -11 -31 -12 -7
55 -54 76 -54 6 0 52 47 103 105 l93 105 -27 35 c-29 38 -35 41 -63 23 -24
-15 -28 -11 -251 189 -162 146 -188 179 -161 206 7 7 0 17 -27 33 -20 13 -42
24 -47 24 -6 0 -52 -47 -103 -105z"/>
<path d="M2600 2508 c-32 -17 -87 -73 -191 -194 -144 -167 -158 -178 -199
-160 -12 5 -22 -5 -37 -38 l-22 -44 102 -86 c55 -47 103 -86 107 -86 3 1 21
14 40 30 27 23 31 33 22 42 -7 7 -12 20 -12 31 0 10 61 91 137 179 150 177
178 198 240 177 42 -13 99 -61 119 -100 32 -63 16 -92 -159 -294 -110 -125
-115 -130 -150 -128 -34 2 -39 -1 -56 -36 l-20 -38 37 -35 c20 -19 70 -63 110
-97 l72 -63 38 28 c20 15 39 29 41 30 1 2 -4 13 -13 25 -20 30 -16 37 124 199
168 194 175 207 175 299 -1 96 -30 157 -119 245 -86 85 -177 130 -270 134 -60
3 -78 0 -116 -20z"/>
<path d="M9154 2445 c-147 -50 -282 -155 -329 -257 -53 -114 -19 -244 81 -308
88 -56 151 -50 317 30 57 27 116 50 130 50 37 0 67 -33 67 -72 0 -82 -141
-170 -223 -139 -22 9 -33 7 -52 -5 -32 -21 -31 -28 5 -109 34 -76 28 -75 145
-21 261 122 360 340 222 484 -85 89 -169 90 -346 6 -112 -53 -159 -57 -190
-18 -40 50 -16 118 58 167 61 41 118 52 171 33 44 -15 46 -15 68 8 l23 23 -35
76 c-19 42 -36 77 -38 77 -2 0 -35 -11 -74 -25z"/>
<path d="M3727 1673 l-88 -65 -109 -6 c-61 -2 -110 -7 -110 -10 0 -3 29 -44
63 -93 l64 -88 6 -107 c4 -59 9 -109 11 -112 2 -2 45 26 94 62 86 63 93 66
148 67 33 1 82 4 111 7 l52 7 -61 85 c-68 93 -77 123 -78 243 0 42 -3 77 -7
76 -5 0 -48 -30 -96 -66z"/>
<path d="M8167 1663 c-4 -38 -7 -87 -7 -110 0 -35 -10 -54 -69 -135 l-69 -93
114 -7 113 -8 88 -64 c101 -74 101 -74 102 39 1 97 10 119 80 216 50 68 59 84
44 86 -10 1 -62 5 -115 8 l-97 7 -85 64 c-47 35 -87 64 -89 64 -2 0 -7 -30
-10 -67z"/>
<path d="M7303 1438 c-64 -18 -73 -24 -78 -49 -9 -39 -59 -105 -100 -131 -32
-21 -35 -26 -30 -57 4 -18 10 -44 16 -57 9 -24 9 -24 41 -8 18 9 47 27 64 40
l31 23 52 -199 c29 -109 51 -212 49 -227 -2 -23 -10 -30 -49 -43 l-46 -15 20
-42 c12 -24 26 -43 31 -43 9 0 319 81 367 96 13 4 15 14 11 52 -2 26 -5 48 -6
49 -1 1 -21 -3 -45 -9 -36 -9 -45 -8 -59 5 -9 9 -52 151 -97 324 -45 169 -86
308 -91 309 -5 1 -41 -7 -81 -18z"/>
<path d="M4665 1412 c-48 -35 -96 -52 -145 -52 -37 0 -38 -1 -52 -52 -19 -66
-11 -73 73 -65 33 3 59 2 59 -1 -1 -31 -121 -417 -132 -424 -12 -8 -62 -4 -93
8 -9 4 -14 -8 -17 -43 -3 -26 -4 -49 -3 -51 1 -1 79 -25 172 -51 94 -27 180
-52 191 -55 17 -6 25 0 42 34 24 46 23 50 -22 65 -65 21 -65 22 26 340 46 160
86 300 90 312 6 19 1 23 -46 37 -102 29 -100 29 -143 -2z"/>
<path d="M5350 1273 c-86 -30 -129 -77 -132 -146 -2 -65 25 -109 106 -168 33
-25 36 -30 20 -35 -99 -34 -165 -90 -184 -158 -14 -53 -7 -98 26 -148 82 -127
397 -178 559 -90 138 75 136 234 -5 334 l-59 41 58 27 c197 93 147 282 -92
346 -71 19 -240 17 -297 -3z m267 -119 c37 -28 45 -56 25 -95 -17 -34 -82 -79
-114 -79 -10 0 -38 19 -63 43 -45 43 -54 71 -39 112 18 45 140 57 191 19z
m-49 -336 c54 -41 87 -107 75 -145 -21 -63 -122 -91 -208 -58 -72 27 -94 80
-60 145 15 30 106 90 136 90 8 0 34 -15 57 -32z"/>
<path d="M6403 1280 c-116 -24 -216 -102 -241 -188 -44 -146 30 -299 164 -338
104 -30 240 -7 298 52 25 25 26 14 6 -46 -36 -107 -125 -156 -278 -154 l-83 2
7 -47 c3 -25 13 -51 21 -58 24 -19 132 -26 203 -13 187 33 299 143 331 325 34
195 -44 385 -183 445 -58 25 -176 35 -245 20z m173 -141 c80 -73 69 -204 -22
-256 -46 -26 -112 -30 -153 -8 -16 8 -38 34 -50 58 -39 81 -20 169 49 215 48
32 137 28 176 -9z"/>
</g>
</svg>
