<?xml version="1.0" encoding="utf-8"?>
<!-- Generator: Adobe Illustrator 26.0.3, SVG Export Plug-In . SVG Version: 6.00 Build 0)  -->
<svg version="1.0" id="Layer_1" xmlns="http://www.w3.org/2000/svg" xmlns:xlink="http://www.w3.org/1999/xlink" x="0px" y="0px"
	 viewBox="0 0 282 208" style="enable-background:new 0 0 282 208;" xml:space="preserve">
<style type="text/css">
	.st0{fill:#07477B;}
</style>
<path class="st0" d="M121.7,53.8c-11.1,10.6-11.5,28.3-0.9,39.4s28.3,11.5,39.4,0.9s11.5-28.3,0.9-39.4c-5.1-5.3-12.1-8.4-19.5-8.6
	C134.2,45.9,127.1,48.7,121.7,53.8z M140.4,99.7c-14.2-0.3-25.5-12.1-25.2-26.3s12.1-25.5,26.3-25.2c14.2,0.3,25.5,12.1,25.2,26.3
	c-0.2,6.8-3,13.3-7.9,18C153.9,97.2,147.3,99.8,140.4,99.7z"/>
<path class="st0" d="M115,46.7c-15,14.4-15.5,38.2-1.1,53.2s38.2,15.5,53.2,1.1c7.2-6.9,11.4-16.4,11.6-26.4l0,0
	c0.4-20.8-16.1-38-36.8-38.5C131.9,36.1,122.2,39.8,115,46.7z M140.3,109.9c-19.9-0.4-35.7-16.9-35.3-36.7s16.9-35.7,36.7-35.3
	c19.9,0.4,35.7,16.9,35.3,36.7c0,0,0,0.1,0,0.1l0,0C176.5,94.6,160.1,110.3,140.3,109.9L140.3,109.9z"/>
<path class="st0" d="M148.5,96.3c-14,2.5-25.2-2.9-27.2-9.7c-1.3-4.3,0.6-5.3,0.9-8.4c-2.4,1.3-2.9-2.1-0.7-2.4s3.3,2.1,2.2,5.2
	c-1.6,4.5,1.2,6.7,2,6.4c0.1-0.4,0.3-0.7,0.5-1.1c-1.9-2.4-1.1-6,2.1-6.3c1.3-0.1,1.2,0.8,0.3,1c-2.5,0.4-2.4,3.1-1.3,3.5
	c0.2,0,0.4-0.1,0.6-0.2c0-0.6,0.3-1.4,1-1.2c1.4,0.4,0.9,2.2-0.1,2.3c-0.4,1.1-1.1,2.7-0.9,3.5s0.7,1,1.2,0.5
	c0.4-0.6,0.6-1.3,0.7-2.1c-0.2-1,0.3-1.8,1.1-1.4c0.6,0.3,0.7,1.2,0.1,1.9c-0.2,0.8-0.3,1.7-0.4,2.6c0.1,0.7,1,0.6,1.3,0.3
	c0.4-1.1,0.7-2.2,0.8-3.3c-0.4-0.5-0.3-1.3,0.2-1.7c0.2-0.1,0.4-0.2,0.6-0.2c1.2-0.1,1,1.6,0.6,2c0.4,1.3-0.2,2.8,0,3.4
	c0.3,0.5,1,0.7,1.5,0.4c0.1,0,0.1-0.1,0.2-0.1c0.4-0.5-0.1-1.5,0.1-2.7c-0.4-1,0.1-1.9,0.7-1.9c1.4-0.1,1,1.2,0.7,2
	c0.1,1,0.2,1.9,0.5,2.8c0.2,0.4,0.6,0.6,1,0.4c0.2-0.1,0.3-0.2,0.4-0.4c0.2-0.4-0.2-1.7-0.3-2.5c-0.6-1.4-0.1-1.8,0.4-1.8
	c0.5,0,1.2,0.2,1.1,1.6c0.2,1,0.5,1.9,0.9,2.8c0.1,0.3,0.4,0.5,0.7,0.4c0.2,0,0.4-0.2,0.4-0.4c0.2-0.6-0.2-1.3-0.6-2.3
	c-1-1-0.1-1.7,0.5-1.8c0.6,0,1.5,0.1,1.3,1.6c0.3,0.9,0.5,1.8,0.7,2.2c0.2,0.4,0.7,0.6,1.1,0.4c0.1,0,0.1-0.1,0.2-0.1
	c0.3-0.4-0.3-1-0.5-1.8c-0.8-0.7-0.6-1.7,0.2-1.8c0.4,0,1.3,0,1.2,1.3c0.2,0.6,0.4,1.3,0.6,1.9c0.4,0.7,1.2,0.5,1.4-0.2
	s-1.5-2.6-0.1-2.7c1.4-0.1,1.6,1.7,2,2.1c0.2,0.3,0.6,0.3,0.8,0.1c0.1-0.1,0.1-0.1,0.2-0.2c0.4-0.4-0.6-1.4,0.1-1.8
	c1.3-0.6,1.3,0.9,2.2,0.9c4.1,0.1,7.4-6.7,6.9-8.6c-1.4-0.8-0.9-2.9,0.3-2.9c2.8-0.1,2.4,3.9,0.3,8.6
	C158.4,92.6,151.5,95.8,148.5,96.3z"/>
<path class="st0" d="M154.5,64.2c0,0-0.1-0.1,0-0.1c0.6-1.9,1.1-3.9,1.3-5.9c0-0.5-0.3-1-0.8-1.1c-0.9-0.2-1.8-0.4-2.8-0.4
	c-0.1,0-0.2,0-0.2-0.1c-0.2-0.6-0.4-1.3-0.4-2c0.9-1.9-0.7-2.5-2.2-2.5c-1,0-2,0.4-2.1,1.1c-0.1,1.4,1.4,1.9,2,2
	c0.2,0.5,0.3,1,0.4,1.6c0,0.1,0,0.1-0.1,0.1c0,0,0,0,0,0c-2.5,0-5.7,0.5-7.4,0.6c-0.2,0-0.3-0.1-0.4-0.2c-0.3-0.8-1.6-4.8,0.8-4.7
	c1.4,0,2.7-1.1,1.3-2c-1-0.3-2.1-0.4-3.2-0.3c-0.8,0.2-1.2,1-1.1,1.8c0.2,1.3-3,1.4-4,1c-0.7-0.4-1.4-0.9-1.8-1.6
	c-0.6-1.1-1.7-0.3-1.5,0.3c1.3,4,5.6,3.4,6.7,3.4c0.1,0,0.1,0.1,0.2,0.1c0.3,1.4,1.1,3,1.1,3.5c-0.5,0.6-0.4,1.5,0.2,1.9
	c0.1,0.1,0.1,0.1,0.2,0.1c-0.9,0.9-1.3,3.9-1.2,6.4c0.2,3.2,1.5,6.3,3.5,6c2.6-0.4,1.6-6.4,2.2-6.9c0.5-0.2,1-0.2,1.5-0.2
	c0.1,0,0.1,0.1,0.1,0.1c-0.2,2.4-0.8,6.2-0.9,7.2c-0.2,0.8-0.1,1.7,0.3,2.5c1.1,2.5,1.3,5.3,0.4,7.9c0,0.1-0.1,0.2-0.2,0.2
	c-0.7,0.2-1.5,0.4-2.1,0.9c-0.4,0.3-0.9,0.9-0.6,1.3c0.5,0.4,3.4,0.3,4.3-1.1c0-0.1,0.1-0.1,0.1-0.2c0.3-0.7,0.6-1.4,1-2.1
	c1.4-2.6,1.6-5.8-0.3-7.3c-0.5-0.4-1.1-0.8-0.5-1.8c0.8-1.9,1.2-3.9,1.2-5.9c0.1-0.5,0.7-0.9,1.2-0.8c0.2,0,0.4,0.2,0.5,0.3
	c1.1,2.7,0.2,5,0.2,6c0,0.7,0.2,1.4,0.5,2c0.8,3.5,0.4,6.4-0.3,10c0,0.1-0.1,0.1-0.1,0.2c-0.7,0.2-1.3,0.5-1.8,0.8
	c-0.5,0.4-0.7,0.8-0.5,1.1c0.7,0.8,3.8-0.1,4-1c0.6-2.2,4.8-7.4,1.9-10.7c-1.3-1.5-1.3-0.9-1.3-1.7c0-0.4,0.8-2.4,1-3.9
	c0.2-1.5-0.8-3.1-0.6-4c0,0,0.1-0.1,0.1-0.1c0.7,0.1,1.5,0.4,2.1,0.7c0.2,0.1,0.6,0,0.6-0.8C157,65.3,154.9,64.3,154.5,64.2z
	 M142.5,70.9c-1.2,0-1.7-7.6-0.4-7.5S143.3,70.9,142.5,70.9L142.5,70.9z M146.5,59.8c0.3,1,0.4,2.1,0.6,3.1c0.1,0.4-0.1,0.8-0.3,0.9
	c-0.7,0.2-1.3,0.2-2,0c-0.6-0.2-0.2-2.5-2.2-2.9c0.3-0.2,0.5-0.5,0.5-0.9c0.1-0.4,0.5-0.7,0.9-0.7c0.6-0.1,1.2-0.1,1.8-0.1
	C146.1,59.2,146.4,59.4,146.5,59.8L146.5,59.8z M152.2,63.1c-0.8,0.5-1.8,0.5-2.6,0.1c-0.6-0.4-0.8-3-0.4-3.8s3.5-0.8,3.7-0.3
	C152.9,60.5,152.7,61.8,152.2,63.1L152.2,63.1z"/>
<path class="st0" d="M138.6,66.8c-0.5-3.6-3.2-6.5-6.8-7.2c-4.2-0.7-10.8,1-11.5,7.2c-0.8,5.1,2.7,9.9,7.8,10.6
	c0.7,0.1,1.5,0.1,2.2,0.1C136.8,76.9,138.9,70.8,138.6,66.8z M134.8,71.4c0.3,0,1,0,1.2,0.5s-1.2,2.1-1.9,2.3
	c-0.4,0.1-1-0.5-0.9-1.1C133.6,72.4,134.1,71.8,134.8,71.4z M137,69.4c-0.4,0.3-0.9,0.2-1.2-0.1c-0.2-0.9-0.2-1.7-0.1-2.6
	c0.3-0.4,0.8-0.5,1.2-0.3C137.3,66.5,137.5,69,137,69.4L137,69.4z M135.7,64c-0.1,0.4-0.7,0.5-1,0.5c-0.8-0.4-1.4-0.9-1.9-1.6
	c-0.1-0.4,0.1-0.8,0.5-1c0,0,0.1,0,0.1,0C134.3,61.7,135.8,63.4,135.7,64z M130.8,61.1c0.2,0.3,0.2,0.7,0,1
	c-0.9,0.3-1.9,0.4-2.8,0.3c-0.7,0-1-0.8-0.8-1.1C127.5,60.6,130.5,60.6,130.8,61.1z M132.6,65.3c0,0.6-2.1,1.6-2.5,1.4
	c-0.6-0.4-1.9-2.2-1.6-2.6C129.3,63,132.6,64.3,132.6,65.3z M126.8,64.8c0.3-0.1,1.5,1.9,1.3,2.6c-0.2,0.7-2.6,1.5-2.8,1.3
	C124.6,67.9,125.3,65.1,126.8,64.8z M126.3,70.6c0-0.4,1.9-1.7,2.7-1.4s1.6,2.6,1,2.8C128.7,72.7,126.3,71.2,126.3,70.6z M132.3,71
	c-0.6-0.2-2-2.2-1.5-2.7c0.5-0.5,2.5-1.5,2.8-1.2C134.9,68.2,133.4,71.4,132.3,71L132.3,71z M123.8,65.2c-0.5,0.3-1-0.1-1.1-0.8
	c-0.1-0.7,1.5-2.3,2.1-2.1c0.4,0.2,0.7,0.6,0.7,1.1C125,64.1,124.5,64.7,123.8,65.2z M123.5,69.7c-0.3,0.4-1,0.6-1.3,0.3
	c-0.5-0.8-0.6-1.8-0.3-2.7c0.2-0.5,1.3-0.7,1.5-0.2C123.6,68,123.6,68.9,123.5,69.7z M123.2,72.5c0-0.6,0.6-1,1.2-1c0,0,0,0,0,0
	c0.7,0.4,1.4,1.1,1.8,1.8c0.1,0.5-0.2,1-0.7,1.1c0,0,0,0,0,0C124.4,74.1,123.6,73.4,123.2,72.5z M128.1,75.2
	c-0.4-0.2-0.1-1.1,0.5-1.2c0.8-0.2,1.6-0.2,2.4,0c0.4,0.2,0.7,1,0.4,1.2C131.1,75.7,128.7,75.5,128.1,75.2z"/>
<polygon class="st0" points="129.4,41.9 129.2,43.4 128.3,44.5 129.7,44.7 130.8,45.6 131,44.2 131.9,43 130.5,42.9 "/>
<polygon class="st0" points="156.2,104.2 155.1,103.3 153.6,103.2 154.5,102.1 154.6,100.6 155.7,101.5 157.2,101.6 156.3,102.7 "/>
<polygon class="st0" points="125.7,104.1 126.8,103.3 128.3,103.2 127.4,102 127.3,100.6 126.2,101.4 124.7,101.5 125.6,102.7 "/>
<path class="st0" d="M117.7,97.9l1.5-1.7c0.7-0.8,1.7-0.7,2.8,0.1s1.3,1.9,0.6,2.7l-1.5,1.7c-0.2,0.2-0.2,0.3,0.1,0.5l-0.5,0.4
	l-1.4-1.2l0.3-0.6c0.2,0.2,0.4,0.2,0.5,0l1.5-1.7c0.3-0.3,0.3-0.8-0.2-1.2s-0.9-0.4-1.2,0l-1.5,1.7c-0.2,0.2-0.2,0.3,0,0.5l-0.5,0.4
	l-1.3-1.1l0.3-0.6C117.4,98.1,117.5,98.1,117.7,97.9z"/>
<path class="st0" d="M112.9,92.2l3.1-2.3l0.6,0.8l-1,3.3c-0.1,0.2-0.2,0.4-0.2,0.6c0,0,0.3-0.3,0.4-0.4l1.4-1
	c0.2-0.2,0.3-0.3,0.1-0.5l0.6-0.3l0.9,1.3l-0.4,0.5c-0.2-0.3-0.3-0.2-0.5-0.1l-2.3,1.7c-0.2,0.2-0.3,0.3-0.1,0.5l-0.6,0.3l-0.8-1.1
	l0.9-3c0.1-0.2,0.3-0.6,0.3-0.6s-0.3,0.3-0.4,0.4l-1.1,0.8c-0.2,0.2-0.2,0.3-0.1,0.5l-0.6,0.3l-0.9-1.2l0.4-0.5
	C112.6,92.3,112.7,92.3,112.9,92.2z"/>
<path class="st0" d="M114.1,86.2l0.8,1.6l-0.5,0.4c-0.1-0.3-0.3-0.3-0.5-0.2l-2.6,1.3c-0.2,0.1-0.3,0.2-0.2,0.5l-0.6,0.2l-0.8-1.6
	l0.5-0.4c0.1,0.3,0.3,0.3,0.5,0.2l2.6-1.3c0.2-0.1,0.3-0.2,0.2-0.5L114.1,86.2z"/>
<path class="st0" d="M108.3,81.3l4.2,0.4l0.4,1.2l-3.3,2.6c-0.2,0.1-0.3,0.4-0.2,0.6c0,0,0,0,0,0h-0.7l-0.5-1.7l0.6-0.3
	c0.1,0.2,0.2,0.3,0.4,0.1l1.6-1.1c0.3-0.2,0.5-0.3,0.8-0.5c-0.3,0-0.7,0-1,0l-2-0.2c-0.3,0-0.3,0.1-0.2,0.3l-0.7,0.1l-0.5-1.6
	l0.6-0.3C107.9,81.2,108,81.2,108.3,81.3z"/>
<path class="st0" d="M111.4,74.7l0.3,3.8l-0.6,0.2c0-0.3-0.1-0.4-0.4-0.4l-2.8,0.3c-0.3,0-0.4,0.1-0.3,0.4l-0.7-0.1l-0.3-3.6
	l1.2-0.1l0.2,0.5c-0.4,0.1-0.5,0.2-0.4,0.8l0.1,0.8l1.2-0.1l-0.1-0.8c0-0.3-0.1-0.4-0.3-0.4l0.1-0.5l1.2-0.1l0.2,0.5
	c-0.3,0-0.3,0.2-0.3,0.5l0.1,0.8l1.3-0.1l-0.1-1.2c0-0.5-0.2-0.6-0.6-0.6l0.1-0.5L111.4,74.7z"/>
<path class="st0" d="M112,68.1l-0.2,1.4c-0.8,0.6-2,0-2.1,1l-0.1,0.6l0.9,0.1c0.3,0,0.4,0,0.4-0.3l0.6,0.2l-0.2,1.8l-0.7,0.1
	c0-0.3-0.1-0.4-0.3-0.4l-2.8-0.3c-0.3,0-0.4,0-0.4,0.3l-0.6-0.2l0.3-2.5c0.1-1.2,0.7-1.8,1.6-1.7c0.6,0.1,1,0.5,1.1,1.1
	c0.2-0.4,0.7-0.7,1.2-0.7c0.4,0,0.6-0.1,0.6-0.5v-0.1L112,68.1z M107.6,70.1l-0.1,0.7l1.4,0.2l0.1-0.7c0.1-0.5-0.2-0.8-0.6-0.9
	S107.6,69.6,107.6,70.1L107.6,70.1z"/>
<path class="st0" d="M113,64.9c-0.2,0.7-0.6,1.2-1.1,1.7l-0.9-0.6l0.1-0.4c0.6,0,1-0.5,1.1-1c0.1-0.4,0.1-0.8-0.3-0.9
	s-0.6,0.1-1,0.8c-0.4,0.7-0.9,1.5-1.9,1.1s-1.2-1.3-0.8-2.3c0.2-0.6,0.5-1.1,0.9-1.6l0.9,0.6l-0.1,0.4c-0.5,0.1-0.8,0.4-0.9,0.8
	c-0.1,0.4,0,0.8,0.3,0.9s0.5-0.1,0.8-0.7c0.5-1,1.1-1.6,2.1-1.3S113.3,63.9,113,64.9z"/>
<path class="st0" d="M115.1,59.7l-0.8,1.6l-0.6-0.2c0.2-0.3,0.1-0.4-0.2-0.5l-2.5-1.3c-0.2-0.1-0.4-0.1-0.5,0.2L110,59l0.8-1.6
	l0.6,0.2c-0.1,0.3-0.1,0.4,0.2,0.5l2.6,1.3c0.2,0.1,0.4,0.1,0.5-0.2L115.1,59.7z"/>
<path class="st0" d="M115.4,52.9c-0.3-0.2-0.5-0.2-0.8,0.2l-0.3,0.4l2.5,1.8c0.2,0.2,0.3,0.2,0.5-0.1l0.4,0.5l-1.1,1.5L116,57
	c0.2-0.3,0.2-0.4-0.1-0.5l-2.5-1.8l-0.3,0.4c-0.3,0.4-0.2,0.6,0,0.8l-0.4,0.4l-0.9-0.8l2.6-3.5l1.1,0.6L115.4,52.9z"/>
<path class="st0" d="M122.8,50.6l-1.3,1.2l-0.5-0.4c0.2-0.2,0.2-0.3-0.1-0.4l-0.4-0.2l-1.3,1.2l0.2,0.4c0.1,0.3,0.2,0.2,0.4,0.1
	l0.3,0.6l-1.1,1.1l-0.5-0.4c0.2-0.1,0.3-0.4,0.1-0.5c0,0,0,0,0,0l-1.2-2.9c-0.1-0.2-0.2-0.2-0.4,0l-0.3-0.6l1.9-1.8l0.5,0.4
	c-0.2,0.2-0.2,0.3,0,0.4l2.8,1.4c0.2,0.1,0.4,0.1,0.6-0.1c0,0,0,0,0,0L122.8,50.6z M118.6,49.8c-0.2-0.2-0.7-0.6-0.7-0.6
	s0.4,0.6,0.5,0.8l0.5,1.2l0.9-0.9L118.6,49.8z"/>
<path class="st0" d="M125.5,48.9c-0.6,0.4-1.2,0.6-1.9,0.6l-0.3-1l0.4-0.2c0.4,0.3,1,0.3,1.4,0c0.3-0.2,0.6-0.6,0.4-0.9
	s-0.5-0.3-1.3,0s-1.7,0.4-2.2-0.4s-0.1-1.7,0.9-2.3c0.5-0.3,1.1-0.5,1.7-0.6l0.3,1l-0.4,0.2c-0.4-0.3-0.9-0.3-1.3,0
	c-0.4,0.2-0.5,0.6-0.4,0.8s0.5,0.2,1,0c1-0.4,1.9-0.5,2.4,0.4S126.4,48.3,125.5,48.9z"/>
<path class="st0" d="M139.2,42.4c-0.3,0-0.4,0.2-0.3,0.4v0.4c0,0.2,0.1,0.3,0.3,0.3v0.6c-0.6,0.3-1.2,0.5-1.9,0.6
	c-1.2,0.4-2.5-0.4-2.9-1.6c-0.1-0.2-0.1-0.4-0.1-0.5c-0.3-1.3,0.6-2.5,1.9-2.8c0.1,0,0.3,0,0.4,0c0.7-0.1,1.4,0,2,0.3l-0.1,1.1
	l-0.4,0.1c-0.2-0.5-0.7-0.7-1.2-0.6c-0.9,0.1-1.3,0.7-1.1,1.8s0.6,1.5,1.5,1.4c0.2,0,0.4-0.1,0.6-0.2l-0.1-0.6
	c0-0.3-0.1-0.4-0.4-0.3h-0.1V42l1.9-0.2L139.2,42.4L139.2,42.4z"/>
<path class="st0" d="M143.4,44.6c-1.2,0.1-2.3-0.9-2.3-2.1c0-0.2,0-0.4,0-0.6c0-1.4,1.1-2.5,2.5-2.6c1.4,0,2.5,1.1,2.6,2.5
	c0,0.2,0,0.3,0,0.5c0.1,1.2-0.9,2.3-2.1,2.4C143.8,44.6,143.6,44.6,143.4,44.6z M143.7,40.4c-0.8-0.1-1.2,0.3-1.3,1.5
	c-0.1,1.2,0.2,1.7,1,1.7c0.8,0.1,1.1-0.3,1.2-1.5C144.8,40.9,144.5,40.5,143.7,40.4z"/>
<path class="st0" d="M151.5,42.5c0-0.3,0-0.5-0.5-0.7l-0.5-0.1l-0.8,3c-0.1,0.3,0,0.4,0.3,0.5l-0.3,0.6l-1.8-0.5v-0.7
	c0.3,0.1,0.4,0,0.5-0.3l0.8-2.9l-0.5-0.1c-0.5-0.1-0.6,0-0.8,0.3l-0.5-0.2l0.4-1.1l4.2,1.2l-0.2,1.2L151.5,42.5z"/>
<path class="st0" d="M156.6,48.7l-1.6-0.8l0.2-0.6c0.3,0.2,0.4,0.1,0.5-0.2l0.5-1l-1.6-0.8l-0.5,1c-0.1,0.2-0.1,0.4,0.2,0.5
	l-0.4,0.5l-1.6-0.8l0.2-0.6c0.3,0.2,0.4,0.1,0.5-0.2l1.3-2.5c0.1-0.2,0.1-0.4-0.2-0.5l0.4-0.5l1.6,0.8l-0.2,0.6
	c-0.3-0.2-0.4-0.1-0.5,0.2l-0.4,0.8l1.6,0.8l0.4-0.8c0.1-0.2,0.1-0.4-0.2-0.5l0.4-0.5l1.6,0.8l-0.2,0.6c-0.3-0.2-0.4-0.1-0.5,0.2
	l-1.3,2.5c-0.1,0.2-0.1,0.4,0.2,0.5L156.6,48.7z"/>
<path class="st0" d="M159.7,51.2c-1.1-0.7-1.4-2-0.7-3.1c0.1-0.2,0.2-0.3,0.4-0.5c0.8-1.1,2.4-1.3,3.5-0.5s1.3,2.4,0.5,3.5
	c0,0-0.1,0.1-0.1,0.1c-0.6,1.1-2,1.4-3.1,0.7C160,51.5,159.8,51.3,159.7,51.2z M162.3,48c-0.6-0.5-1.1-0.4-1.9,0.5s-0.8,1.5-0.2,2
	s1.1,0.4,1.9-0.5S162.9,48.5,162.3,48z"/>
<path class="st0" d="M164.2,55.7l-1.5-1.9l0.4-0.5c0.2,0.2,0.3,0.2,0.5,0.1l2.2-1.8c0.2-0.2,0.2-0.3,0.1-0.5l0.6-0.3l1.4,1.7
	c0.8,0.9,0.8,1.8,0.2,2.3c-0.4,0.2-0.8,0.3-1.2,0.1c0.2,0.5,0.1,1.1-0.4,1.5C165.8,56.9,165,56.6,164.2,55.7z M165.4,53.7l-1.1,0.9
	l0.4,0.5c0.2,0.3,0.6,0.4,0.9,0.3c0,0,0.1,0,0.1-0.1c0.3-0.3,0.3-0.7,0.1-1c0,0-0.1-0.1-0.1-0.1L165.4,53.7z M166,53.2l0.4,0.5
	c0.3,0.4,0.6,0.4,0.9,0.2s0.3-0.5,0-0.9l-0.4-0.5L166,53.2z"/>
<path class="st0" d="M171.8,60.7l-2,1c-0.9,0.5-1.9,0-2.5-1.2s-0.4-2.3,0.5-2.7l2-1c0.2-0.1,0.3-0.2,0.2-0.5l0.6-0.2l0.9,1.7
	l-0.5,0.4c-0.1-0.3-0.3-0.3-0.5-0.2l-2,1c-0.4,0.2-0.5,0.6-0.3,1.1c0.3,0.5,0.7,0.7,1.1,0.5l2-1c0.2-0.1,0.3-0.2,0.2-0.5L172,59
	l0.8,1.5l-0.5,0.4C172.1,60.6,172,60.6,171.8,60.7z"/>
<path class="st0" d="M170.2,68.8l-0.4-1.4c0.5-0.9,1.8-0.7,1.6-1.6l-0.1-0.6l-0.9,0.2c-0.3,0.1-0.4,0.2-0.3,0.5h-0.7l-0.4-1.7
	l0.6-0.3c0.1,0.3,0.2,0.3,0.5,0.3l2.8-0.7c0.3-0.1,0.4-0.2,0.3-0.5h0.7l0.6,2.4c0.3,1.2,0,2-0.9,2.2c-0.6,0.2-1.2,0-1.5-0.6
	c0,0.5-0.4,0.9-0.8,1.1c-0.4,0.2-0.5,0.3-0.4,0.7v0.1L170.2,68.8z M173.6,65.4l-0.2-0.7L172,65l0.2,0.7c0.1,0.5,0.5,0.7,0.9,0.6
	c0.4-0.1,0.6-0.4,0.6-0.8C173.6,65.5,173.6,65.4,173.6,65.4L173.6,65.4z"/>
<path class="st0" d="M172.5,74.8c0-0.3-0.1-0.4-0.4-0.4h-0.4c-0.2,0-0.3,0.1-0.3,0.2l-0.6-0.1c-0.2-0.6-0.3-1.3-0.4-1.9
	c-0.1-1.4,0.9-2.6,2.3-2.7c1.4-0.1,2.6,0.9,2.7,2.3c0,0.1,0,0.1,0,0.2c0,0.7-0.1,1.3-0.4,1.9l-1.1-0.2v-0.4c0.5-0.2,0.8-0.6,0.7-1.1
	c0-0.9-0.6-1.3-1.7-1.3s-1.6,0.5-1.6,1.4c0,0.2,0.1,0.4,0.2,0.6h0.6c0.3,0,0.4-0.1,0.4-0.4v-0.1l0.6,0.1l0.1,1.9l-0.6,0.2
	L172.5,74.8z"/>
<path class="st0" d="M169.9,80.4l0.6-3.8h0.7c-0.1,0.3,0,0.4,0.3,0.4l2.8,0.4c0.3,0,0.4,0,0.4-0.3l0.6,0.2l-0.6,3.6l-1.2-0.2v-0.5
	c0.4,0,0.5-0.1,0.6-0.6l0.1-0.8l-1.2-0.2l-0.1,0.8c0,0.3,0,0.4,0.2,0.5l-0.2,0.5l-1.2-0.2l-0.1-0.5c0.3,0,0.3-0.1,0.4-0.4l0.1-0.8
	l-1.3-0.2l-0.2,1.2c-0.1,0.5,0.1,0.6,0.4,0.7l-0.2,0.5L169.9,80.4z"/>
<path class="st0" d="M171.5,87.8l-3.7-1.4l0.4-0.9l3.3-0.9c0.2-0.1,0.4-0.1,0.6-0.1c-0.2,0-0.4-0.1-0.5-0.2l-1.6-0.6
	c-0.3-0.1-0.4-0.1-0.5,0.2l-0.6-0.3l0.6-1.5l0.6,0.1c-0.1,0.3,0,0.4,0.2,0.5l2.7,1c0.3,0.1,0.4,0.1,0.5-0.2l0.6,0.4l-0.5,1.3l-3,0.9
	c-0.2,0.1-0.4,0.1-0.6,0.1c0,0,0.4,0.1,0.6,0.2l1.4,0.5c0.3,0.1,0.4,0.1,0.5-0.2l0.6,0.3l-0.6,1.5l-0.6-0.1
	C171.8,88,171.7,87.9,171.5,87.8z"/>
<path class="st0" d="M165.9,89.6c0.4-0.6,0.9-1.1,1.5-1.4l0.8,0.8l-0.2,0.4c-0.5-0.1-1.1,0.2-1.3,0.6c-0.2,0.3-0.3,0.8,0.1,1
	s0.6,0,1.1-0.6c0.6-0.6,1.3-1.1,2.2-0.6s0.8,1.5,0.2,2.5c-0.3,0.5-0.8,1-1.3,1.3l-0.7-0.8l0.2-0.4c0.5,0,0.9-0.2,1.1-0.6
	c0.2-0.4,0.2-0.7,0-0.9s-0.5,0-0.9,0.4c-0.7,0.8-1.4,1.3-2.4,0.7S165.4,90.5,165.9,89.6z"/>
<path class="st0" d="M162.5,94.2l1.2-1.4l0.6,0.3c-0.2,0.2-0.2,0.4,0,0.5l2.1,1.9c0.2,0.2,0.3,0.2,0.5,0l0.4,0.5l-1.2,1.4l-0.6-0.3
	c0.2-0.2,0.2-0.4,0-0.5l-2.1-1.9c-0.2-0.2-0.3-0.2-0.5,0L162.5,94.2z"/>
<path class="st0" d="M159.4,96.9c0.5-0.4,1.2-0.7,1.8-0.9l0.4,1l-0.4,0.3c-0.5-0.3-1.1-0.2-1.4,0.2c-0.3,0.2-0.5,0.6-0.2,1
	c0.3,0.4,0.5,0.2,1.2-0.2s1.6-0.6,2.2,0.2c0.6,0.8,0.3,1.7-0.6,2.4c-0.5,0.4-1,0.7-1.6,0.8l-0.4-1l0.3-0.3c0.4,0.2,0.9,0.1,1.2-0.2
	c0.3-0.3,0.5-0.6,0.3-0.9c-0.2-0.3-0.5-0.2-1,0.1c-1,0.5-1.8,0.8-2.5-0.1S158.6,97.6,159.4,96.9z"/>
<path class="st0" d="M133.1,107.7l-2.4-0.7l0-0.7l0.3,0.1c0.3,0.1,0.4,0,0.5-0.2l0.7-2.5c-0.3,0.1-0.7,0.1-1,0l0.2-0.7
	c0.5,0.1,1-0.1,1.4-0.5l1,0.3l-1.1,3.8c-0.1,0.2,0,0.4,0.3,0.5l0.3,0.1L133.1,107.7z"/>
<path class="st0" d="M137.7,108.5c-1.4-0.1-2.1-0.7-2.1-1.6c0.1-0.8,0.7-1.1,1.3-1.3c-0.5-0.3-1-0.7-0.9-1.2c0.1-0.7,0.9-1.1,2.2-1
	s2,0.7,1.9,1.4c0,0.6-0.6,0.8-1.1,1c0.6,0.3,1.1,0.8,1.1,1.5C140,108,139,108.6,137.7,108.5z M137.9,106.2c-0.6,0.2-1,0.5-1,0.9
	s0.3,0.7,0.8,0.7s0.9-0.2,0.9-0.5S138.4,106.5,137.9,106.2z M138.1,104.2c-0.4,0-0.8,0.1-0.8,0.4s0.2,0.6,0.7,0.8
	c0.4-0.2,0.8-0.4,0.8-0.7S138.6,104.2,138.1,104.2L138.1,104.2z"/>
<path class="st0" d="M143.9,108.5c-0.4,0-0.8,0-1.2-0.2l-0.1-0.7c0.3,0.1,0.6,0.1,0.9,0.1c0.8,0,1.4-0.6,1.5-1.4
	c-0.3,0.3-0.7,0.5-1.1,0.6c-0.9,0.2-1.8-0.4-2-1.3c0-0.1,0-0.1,0-0.2c-0.1-1,0.6-1.8,1.9-1.9c1.1-0.2,2.1,0.5,2.4,1.6
	c0,0.1,0,0.3,0,0.4c0.3,1.3-0.5,2.7-1.8,3C144.3,108.5,144.1,108.5,143.9,108.5z M143.9,104.2c-0.5,0-0.9,0.5-0.8,1c0,0,0,0.1,0,0.1
	c0,0.5,0.4,0.9,0.8,0.9c0.1,0,0.1,0,0.2,0c0.5,0,0.9-0.4,0.9-1c0,0,0-0.1,0-0.1c0-0.5-0.4-0.9-0.9-0.9
	C144,104.2,143.9,104.2,143.9,104.2L143.9,104.2z"/>
<path class="st0" d="M151.6,107l-2.4,0.6l-0.3-0.6l0.3-0.1c0.3-0.1,0.4-0.2,0.3-0.5l-0.7-2.5c-0.2,0.3-0.5,0.4-0.8,0.5l-0.2-0.7
	c0.5-0.2,0.8-0.7,0.9-1.2l1-0.3l1,3.8c0.1,0.3,0.2,0.3,0.5,0.2l0.3-0.1L151.6,107z"/>
<path d="M52.3,138.3c0-0.9,0-1.4,0-3.7c0-1.8,0-3.3,0-5.3l-0.1-0.1l-2.2-0.1v-0.8h6.6v0.8l-1.9,0.1l-0.1,0.1c0,1.7,0,5.5,0,8.9
	c0,2.9,0.7,4.9,3.7,4.9s4.1-1.9,4.1-5.3c0-3,0-6.2-0.1-8.5l-0.1-0.1l-2.1-0.1v-0.8h6.1v0.8l-2.3,0.1l-0.1,0.1
	c-0.1,2.5-0.1,5.9,0,8.7c0,4-1.8,6.1-5.7,6.1C54.3,144.1,52.3,142.1,52.3,138.3z"/>
<path d="M68.2,143.1l2.3-0.1l0.1-0.1c0.1-2.5,0.1-4.3,0.1-6.6s0-3.6-0.1-7l-0.1-0.1l-2.3-0.1v-0.8h4.4c2.8,3.9,6,8.6,8.3,11.8l0,0
	c0-4.4-0.1-8.6-0.1-10.8l-0.1-0.1l-2.1-0.1v-0.8h6.1v0.8l-2.2,0.1l-0.1,0.1c-0.1,2.5-0.1,4.3-0.1,10.1v4.6h-1.1
	c-2.9-4.1-6.3-8.8-9.2-13h0c0,5.4,0.1,9.6,0.1,11.9l0.1,0.1l2.1,0.1v0.8h-6.2V143.1z"/>
<path d="M86.7,143.1l2.2-0.1l0.1-0.1c0-0.7,0.1-3.8,0.1-6.9s0-5.8-0.1-6.6l-0.1-0.1l-2.2-0.1v-0.8h7v0.8l-2.2,0.1l-0.1,0.1
	c0,0.6-0.1,3.8-0.1,6.9s0.1,5.9,0.1,6.6l0.1,0.1l2.2,0.1v0.8h-7V143.1z"/>
<path d="M96.7,129.2l-1.4-0.1v-0.8h6v0.8l-2.1,0.1l-0.1,0.1c1.3,3.3,2.8,7.4,4.3,11.3l0,0c1.1-3.1,3.1-8.7,3.8-11.3l-0.1-0.1
	l-1.9-0.1v-0.8h5.1v0.8l-1.3,0.1c-1.2,3-4,10.2-5.8,14.9h-0.6C100.5,138.3,98.4,133.3,96.7,129.2z"/>
<path d="M112.2,143.1l2.3-0.1l0.1-0.1c0-1.1,0.1-3.8,0.1-6.9s0-5.7-0.1-6.6l-0.1-0.1l-2.3-0.1v-0.8h10.1l0.9-0.4h0.3l0.2,5h-0.5
	c-0.8-2.3-1.6-3.5-2-3.5l-4.4-0.2l-0.1,0.1c0,1.1-0.1,3.5-0.1,6.1c1,0,3.3-0.1,3.9-0.1l0.1-0.1l0.8-1.6h0.4c0,0.6,0,1.6,0,2.3
	s0,1.9,0,2.6h-0.4l-0.8-1.9l-0.1-0.1c-0.7,0-2.8-0.1-3.9-0.1c0,2.9,0,5.3,0.1,6.4l0.1,0.1l4.7-0.2c0.4,0,1.4-1,2.3-3.7h0.5
	c-0.3,4.5-0.4,4.9-0.8,4.9h-11.4V143.1z"/>
<path d="M127.1,143.1l2.3-0.1l0.1-0.1c0-0.7,0.1-3.8,0.1-6.9s0-5.6-0.1-6.6l-0.1-0.1l-2.3-0.1v-0.8c2.1,0,4.3,0,5.5,0
	c1.3-0.1,2.5,0.1,3.7,0.4c2.2,0.7,3.2,2.1,3.2,3.7c0,2.3-1.5,3.4-3.4,4l0,0c1.1,1.6,2.1,3.2,3,4.9c0.6,1,1.1,1.8,1.9,1.8h0.5v0.8
	h-3.5l-0.1-0.1c-0.8-1.7-1.4-3.1-2.9-5.7c-0.3-0.5-0.6-0.9-0.9-1.4c-0.8,0.1-1.5,0.2-2.3,0.2c0,2.7,0,5.3,0.1,6l0.1,0.1l2.1,0.1v0.8
	h-6.9V143.1z M137,132.3c0.1-1.1-0.6-2.2-1.6-2.7c-0.9-0.4-1.8-0.5-2.8-0.4h-0.8l-0.1,0.1c0,1,0,4-0.1,6.7
	C135.8,135.8,137,134.6,137,132.3z"/>
<path d="M144.3,139h0.5c0.8,2.9,2.1,4.1,3.7,4.1c1.6,0.1,3-1.1,3.1-2.7c0-0.1,0-0.2,0-0.3c0-4-7.1-3-7.1-8.1c0-2.1,1.7-4.1,4.6-4.1
	c1,0,2,0.2,3,0.5l0.7-0.7h0.4l0.1,5h-0.5c-1-2.8-2.2-4-3.8-4c-1.3-0.1-2.5,0.9-2.5,2.2c0,0.1,0,0.1,0,0.2c0,3.9,7.2,3.2,7.2,8.1
	c0,2.3-1.8,4.6-5.3,4.6c-1.1,0-2.2-0.3-3.2-0.9l-0.5,0.9h-0.5L144.3,139z"/>
<path d="M156.7,143.1l2.3-0.1l0.1-0.1c0-0.7,0.1-3.8,0.1-6.9s0-5.9-0.1-6.6l-0.1-0.1l-2.3-0.1v-0.8h7v0.8l-2.2,0.1l-0.1,0.1
	c0,0.6-0.1,3.8-0.1,6.9s0,5.9,0.1,6.6l0.1,0.1l2.2,0.1v0.8h-7V143.1z"/>
<path d="M168.9,143.1l2.5-0.1l0.1-0.1c0-0.9,0.1-3.8,0.1-6.9s0-5.7-0.1-6.5l-0.1-0.1h-2.7c-0.5,0-1.1,0.8-2,3.6h-0.5l0.2-5h0.4
	l0.7,0.4h10.3l0.7-0.4h0.4l0.2,5h-0.5c-1-2.8-1.5-3.6-2-3.6h-2.7l-0.1,0.1c0,0.6-0.1,3.7-0.1,6.8s0.1,5.8,0.1,6.6l0.1,0.1l2.5,0.1
	v0.8h-7.5L168.9,143.1z"/>
<path d="M185.3,143.1l2.3-0.1l0.1-0.1c0.1-1.7,0.1-2.8,0.1-5.9c-1.9-2.9-4-6.2-5.1-7.8l-1.5-0.1v-0.8h5.9v0.8l-1.7,0.1l-0.1,0.1
	c1.1,1.9,2.7,4.5,3.9,6.4l0,0c1.3-2.2,2.7-5,3.5-6.5l-0.1-0.1l-1.6-0.1v-0.8h5v0.8l-1.4,0.1c-1.3,2-3.1,5.1-4.7,7.7
	c0,3.2,0,3.9,0.1,6l0.1,0.1l2.4,0.1v0.8h-7.1L185.3,143.1z"/>
<path d="M203.3,136.3c0-5.2,3.2-8.2,7.3-8.2c4.6,0,7.2,3.2,7.2,7.8c0,5.2-3.2,8.2-7.3,8.2C205.9,144.1,203.3,140.9,203.3,136.3z
	 M215.3,136.1c0-4.6-1.8-7-4.7-7s-4.8,2.3-4.8,7s1.8,7,4.8,7S215.3,140.7,215.3,136.1L215.3,136.1z"/>
<path d="M220.4,143.1l2.3-0.1l0.1-0.1c0-0.8,0.1-3.8,0.1-6.9s0-5.8-0.1-6.6l-0.1-0.1l-2.3-0.1v-0.8h10.2l0.9-0.4h0.4l0.2,5h-0.5
	c-0.8-2.3-1.6-3.5-2-3.5l-4.4-0.2l-0.1,0.1c0,0.7-0.1,3.5-0.1,6.1c1,0,3.3-0.1,3.9-0.1l0.1-0.1l0.8-1.6h0.4c0,0.6-0.1,1.6-0.1,2.3
	s0,2,0.1,2.7h-0.4l-0.9-2.1l-0.1-0.1c-0.7,0-2.7-0.1-3.8-0.1c0,2.9,0,5.5,0.1,6.5l0.1,0.1l2.5,0.1v0.8h-7.3L220.4,143.1z"/>
<path d="M57.5,163.7c0-5,3.4-8,7.9-8c1.2,0,2.4,0.2,3.6,0.5l0.8-0.7h0.3l0.2,5h-0.5c-1.2-3.1-2.8-4-4.5-4c-2.7,0-5.3,2-5.3,6.9
	c0,3.8,1.9,7.2,5.8,7.2c1.1,0,2.4-0.3,2.4-0.7c0-0.8,0-2.9-0.1-4.7l-0.1-0.1l-2.3-0.1v-0.8h6.4v0.8l-1.7,0.1l-0.1,0.1
	c0,1.5-0.1,3.1,0,4.9c-0.3,0.6-2.5,1.5-4.8,1.5C60.9,171.7,57.5,168.8,57.5,163.7z"/>
<path d="M75.1,164c0-5.2,3.2-8.2,7.3-8.2c4.6,0,7.2,3.2,7.2,7.8c0,5.2-3.2,8.2-7.3,8.2C77.7,171.7,75.1,168.5,75.1,164z M87.1,163.8
	c0-4.7-1.8-7-4.8-7c-2.9,0-4.8,2.3-4.8,7s1.8,7,4.8,7C85.2,170.8,87.1,168.4,87.1,163.8L87.1,163.8z"/>
<path d="M95.4,170.7l2.5-0.1l0.1-0.1c0-0.9,0.1-3.8,0.1-6.9s0-5.7-0.1-6.5l-0.1-0.1h-2.7c-0.5,0-1.1,0.8-2,3.6h-0.5l0.2-5h0.4
	L94,156h10.3l0.7-0.4h0.4l0.2,5h-0.5c-1-2.8-1.5-3.6-2-3.6h-2.7l-0.1,0.1c0,0.6-0.1,3.7-0.1,6.8s0,5.8,0.1,6.6l0.1,0.1l2.5,0.1v0.8
	h-7.5V170.7z"/>
<path d="M108,170.7l2.3-0.1l0.1-0.1c0-0.9,0.1-3.8,0.1-6.9s0-5.9-0.1-6.6l-0.1-0.1l-2.3-0.1V156h6.7v0.8l-1.9,0.1l-0.1,0.1
	c0,0.7-0.1,3.4-0.1,6h7.6c0-2.9-0.1-5.5-0.1-6l-0.1-0.1l-1.9-0.1V156h6.7v0.8l-2.3,0.1l-0.1,0.1c0,0.7-0.1,3.8-0.1,6.9
	s0,5.6,0.1,6.6l0.1,0.1l2.3,0.1v0.8h-6.7v-0.8l1.9-0.1l0.1-0.1c0-0.8,0.1-3.6,0.1-6.4h-7.6c0,2.9,0,5.1,0.1,6.4l0.1,0.1l1.9,0.1v0.8
	H108V170.7z"/>
<path d="M126.8,170.7l2.3-0.1l0.1-0.1c0-1.1,0.1-3.8,0.1-6.9s0-5.7-0.1-6.6l-0.1-0.1l-2.3-0.1V156h10.1l0.9-0.4h0.4l0.2,5h-0.5
	c-0.8-2.3-1.6-3.5-2-3.5l-4.4-0.2l-0.1,0.1c0,1.1-0.1,3.5-0.1,6.1c1,0,3.3-0.1,3.9-0.1l0.1-0.1l0.8-1.6h0.4c0,0.6,0,1.6,0,2.3
	s0,1.9,0,2.6h-0.4l-0.8-1.9l-0.1-0.1c-0.7,0-2.8-0.1-3.9-0.1c0,2.9,0,5.3,0.1,6.4l0.1,0.1l4.7-0.2c0.4,0,1.4-1,2.2-3.7h0.5
	c-0.3,4.5-0.4,4.9-0.8,4.9h-11.4V170.7z"/>
<path d="M141.7,170.7l2.2-0.1l0.1-0.1c0.1-2.5,0.1-4.3,0.1-6.6s0-3.6-0.1-7l-0.1-0.1l-2.2-0.1V156h4.4c2.8,3.9,6,8.6,8.3,11.8l0,0
	c0-4.4-0.1-8.6-0.1-10.9l-0.1-0.1l-2.1-0.1V156h6.1v0.8l-2.3,0.1l-0.1,0.1c-0.1,2.5-0.1,4.3-0.1,10.1v4.6h-1.1
	c-2.9-4.1-6.3-8.8-9.2-13l0,0c0,5.4,0.1,9.6,0.1,11.9l0.1,0.1l2.1,0.1v0.8h-6.1V170.7z"/>
<path d="M160.2,170.7l2.2-0.1l0.1-0.1c0-0.8,0.1-3.8,0.1-6.9s0-5.6-0.1-6.6l-0.1-0.1l-2.2-0.1V156c1.7,0,3.7,0,5,0
	c1.3,0,2.7,0.1,4,0.5c1.8,0.6,2.9,1.8,2.9,3.4c0,1.7-1.1,3.2-2.8,3.5l0,0c2.4,0.1,3.9,1.5,3.9,3.4c0,3.1-2.8,4.8-7.3,4.8
	c-1.5,0-3.9-0.1-5.8-0.1L160.2,170.7z M166.3,163c2.7,0,3.4-1.3,3.4-3.1c0.1-1.1-0.4-2.1-1.4-2.6c-0.8-0.4-1.8-0.6-2.7-0.5
	c-0.1,0-0.4,0-0.6,0l-0.1,0.1c0,1.2-0.1,3.5-0.1,6.1L166.3,163z M170.8,167.1c0-2.2-1.5-3-3.5-3h-2.4c0,2.9,0,5.2,0.1,6.5l0.1,0.1
	c0.4,0,0.8,0,1.1,0C169.2,170.6,170.8,169.4,170.8,167.1z"/>
<path d="M178.2,166c0-0.9,0-1.4,0-3.7c0-1.8,0-3.3-0.1-5.4l-0.1-0.1l-2.2-0.1V156h6.6v0.8l-1.9,0.1l-0.1,0.1c0,1.7-0.1,5.5-0.1,8.9
	c0,2.9,0.7,4.9,3.7,4.9s4.1-1.9,4.1-5.3c0-3,0-6.2-0.1-8.5l-0.1-0.1l-2.1-0.1V156h6.1v0.8l-2.2,0.1l-0.1,0.1c-0.1,2.5-0.1,5.9,0,8.7
	c0,4-1.9,6.1-5.7,6.1S178.2,169.8,178.2,166z"/>
<path d="M194.1,170.7l2.3-0.1l0.1-0.1c0-0.7,0.1-3.8,0.1-6.9s-0.1-5.6-0.1-6.6l-0.1-0.1l-2.3-0.1V156c2.1,0,4.3,0,5.5,0
	c1.3-0.1,2.5,0.1,3.7,0.4c2.2,0.7,3.2,2.1,3.2,3.7c0,2.3-1.6,3.4-3.4,4v0c1.1,1.6,2.1,3.2,3,4.9c0.6,1,1.1,1.8,1.9,1.8h0.5v0.8H205
	l-0.1-0.1c-0.9-1.7-1.4-3.1-2.9-5.7c-0.3-0.5-0.6-0.9-0.9-1.4c-0.8,0.1-1.5,0.2-2.3,0.2c0,2.7,0,5.3,0.1,6l0.1,0.1l2.1,0.1v0.8h-6.9
	L194.1,170.7z M204,160c0.1-1.1-0.6-2.2-1.6-2.7c-0.9-0.4-1.8-0.5-2.7-0.4h-0.8l-0.1,0.1c0,1,0,4-0.1,6.7
	C202.8,163.5,204,162.2,204,160z"/>
<path d="M210.7,163.7c0-5,3.4-8,7.9-8c1.2,0,2.4,0.2,3.6,0.5l0.8-0.7h0.4l0.2,5H223c-1.1-3.1-2.8-4-4.5-4c-2.7,0-5.3,2-5.3,6.9
	c0,3.8,1.9,7.2,5.8,7.2c1.1,0,2.4-0.3,2.4-0.7c0-0.8,0-2.9,0-4.7l-0.1-0.1l-2.3-0.1v-0.8h6.4v0.8l-1.7,0.1l-0.1,0.1
	c0,1.5-0.1,3.1,0,4.9c-0.3,0.6-2.5,1.5-4.8,1.5C214.1,171.7,210.7,168.8,210.7,163.7z"/>
</svg>
