<svg id="svg" version="1.1" xmlns="http://www.w3.org/2000/svg" xmlns:xlink="http://www.w3.org/1999/xlink" width="400" height="398.1042654028436" viewBox="0, 0, 400,398.1042654028436"><g id="svgg"><path id="path0" d="M184.281 0.701 C 183.633 1.040,181.482 1.471,179.500 1.659 C 171.376 2.431,155.981 5.159,152.699 6.409 C 152.091 6.641,150.697 6.992,149.602 7.191 C 146.977 7.666,138.576 10.301,132.470 12.564 C 130.936 13.133,128.769 13.925,127.654 14.325 C 126.539 14.725,125.284 15.244,124.865 15.478 C 124.446 15.713,122.759 16.468,121.116 17.156 C 115.615 19.459,101.903 26.416,100.398 27.666 C 100.070 27.940,98.725 28.765,97.410 29.500 C 81.601 38.345,59.492 57.612,45.990 74.312 C 33.235 90.087,25.327 103.385,16.140 124.502 C 12.728 132.344,8.384 146.221,6.368 155.715 C 5.934 157.763,5.492 159.577,5.387 159.748 C 5.281 159.918,4.921 161.887,4.585 164.125 C 4.249 166.362,3.799 168.939,3.586 169.853 C 3.373 170.766,3.008 173.665,2.774 176.295 C 2.541 178.924,2.059 182.151,1.704 183.466 C 0.730 187.065,0.721 213.923,1.692 217.132 C 2.057 218.338,2.459 220.848,2.586 222.710 C 2.809 225.982,3.815 232.458,5.062 238.645 C 5.394 240.289,5.887 242.799,6.160 244.223 C 6.432 245.647,6.949 247.799,7.308 249.004 C 7.667 250.209,8.211 252.181,8.517 253.386 C 8.823 254.592,9.452 256.788,9.915 258.267 C 10.378 259.746,11.104 262.077,11.528 263.446 C 11.952 264.816,12.861 267.371,13.548 269.124 C 14.234 270.876,14.944 272.782,15.125 273.358 C 15.306 273.934,15.726 275.009,16.057 275.748 C 16.388 276.487,17.651 279.333,18.862 282.073 C 34.639 317.759,61.810 348.661,96.813 370.727 C 102.895 374.561,114.123 380.433,120.717 383.227 C 122.361 383.924,124.048 384.685,124.467 384.920 C 124.886 385.154,126.141 385.673,127.256 386.073 C 128.371 386.473,130.538 387.264,132.072 387.830 C 133.606 388.396,136.564 389.408,138.645 390.079 C 140.727 390.750,143.416 391.629,144.622 392.034 C 145.827 392.438,147.351 392.875,148.008 393.004 C 148.665 393.133,150.548 393.586,152.191 394.011 C 157.890 395.482,161.972 396.381,165.936 397.036 C 168.127 397.399,170.091 397.855,170.299 398.051 C 170.782 398.505,231.580 398.525,232.092 398.071 C 232.488 397.720,235.597 397.029,238.645 396.616 C 242.863 396.043,259.177 391.821,263.347 390.222 C 264.114 389.928,265.189 389.571,265.737 389.429 C 267.650 388.933,275.813 385.723,282.231 382.944 C 288.986 380.019,300.685 373.677,309.561 368.127 C 340.117 349.026,372.519 310.860,384.427 279.944 C 384.862 278.814,385.783 276.544,386.473 274.900 C 389.348 268.050,394.477 252.035,395.403 247.012 C 395.545 246.245,395.997 244.183,396.409 242.430 C 397.374 238.320,398.686 231.051,399.285 226.494 C 399.906 221.763,399.929 178.923,399.312 174.017 C 398.809 170.018,397.429 162.342,396.533 158.566 C 396.195 157.141,395.692 154.900,395.415 153.586 C 393.850 146.149,389.763 133.309,386.476 125.498 C 385.784 123.855,384.859 121.576,384.419 120.435 C 372.935 90.609,342.420 54.061,312.596 34.413 C 311.307 33.564,309.604 32.434,308.811 31.902 C 300.562 26.367,288.009 19.869,276.295 15.070 C 275.199 14.621,273.718 14.007,273.003 13.705 C 271.363 13.012,261.051 9.594,256.574 8.260 C 250.221 6.366,248.718 5.971,245.774 5.419 C 244.154 5.115,241.484 4.596,239.841 4.266 C 233.356 2.962,229.050 2.300,223.796 1.799 C 220.196 1.455,217.974 1.056,217.336 0.638 C 215.903 -0.301,186.087 -0.244,184.281 0.701 M217.729 9.374 C 220.359 9.695,224.303 10.142,226.494 10.366 C 233.922 11.127,245.608 13.618,255.777 16.606 C 261.990 18.432,270.840 21.587,276.693 24.062 C 282.063 26.332,295.844 33.310,297.211 34.450 C 297.540 34.724,298.974 35.613,300.398 36.424 C 311.752 42.893,325.282 53.530,336.654 64.927 C 356.234 84.551,370.777 107.085,380.630 133.068 C 383.572 140.823,387.446 154.077,388.493 159.960 C 388.688 161.056,389.200 163.745,389.631 165.936 C 393.412 185.157,393.412 215.241,389.631 234.462 C 389.200 236.653,388.688 239.343,388.493 240.438 C 388.298 241.534,387.842 243.596,387.479 245.020 C 383.640 260.093,379.818 270.727,373.588 283.665 C 353.380 325.635,315.838 360.948,273.581 377.736 C 272.444 378.187,270.618 378.914,269.522 379.350 C 265.362 381.006,259.319 383.017,254.183 384.455 C 248.813 385.958,240.411 388.043,239.715 388.045 C 239.317 388.047,237.434 388.394,235.531 388.817 C 217.960 392.724,184.438 392.724,166.859 388.817 C 164.956 388.394,163.106 388.048,162.748 388.048 C 161.773 388.048,153.733 386.102,149.203 384.769 C 147.012 384.125,144.054 383.259,142.629 382.846 C 141.205 382.432,138.606 381.537,136.853 380.856 C 135.100 380.176,133.307 379.522,132.869 379.403 C 129.726 378.549,115.107 371.731,109.225 368.375 C 107.834 367.581,106.606 366.932,106.496 366.932 C 106.161 366.932,99.256 362.618,94.821 359.637 C 69.886 342.882,47.912 319.092,33.660 293.426 C 31.532 289.594,25.498 277.424,25.498 276.964 C 25.498 276.614,24.172 273.422,22.904 270.717 C 21.802 268.368,17.019 254.113,16.553 251.793 C 16.400 251.026,16.033 249.681,15.738 248.805 C 14.654 245.584,11.736 230.903,11.343 226.693 C 11.210 225.269,10.803 222.131,10.438 219.721 C 9.475 213.358,9.473 187.464,10.435 180.876 C 10.803 178.357,11.215 175.129,11.351 173.705 C 12.438 162.279,18.288 140.608,23.718 127.888 C 24.514 126.026,25.314 124.017,25.498 123.424 C 25.681 122.831,26.104 121.845,26.437 121.233 C 26.770 120.620,28.377 117.430,30.008 114.143 C 54.655 64.471,102.178 26.734,156.175 13.956 C 163.033 12.334,170.647 10.875,173.904 10.559 C 175.219 10.432,178.357 10.067,180.876 9.748 C 187.753 8.878,187.364 8.896,200.598 8.841 C 209.297 8.805,214.362 8.962,217.729 9.374 M208.566 19.046 C 201.100 22.695,199.456 35.678,205.801 40.878 C 210.758 44.939,220.196 44.793,224.330 40.591 C 228.714 36.135,229.062 25.959,224.981 21.579 C 221.706 18.064,213.246 16.758,208.566 19.046 M175.266 19.472 C 168.948 21.102,166.335 24.604,166.335 31.444 C 166.335 42.592,174.614 47.504,186.255 43.261 C 191.144 41.479,191.442 41.036,190.098 37.565 C 189.345 35.619,189.460 34.047,190.441 32.865 C 191.853 31.164,190.831 30.472,187.073 30.583 C 182.025 30.732,180.403 31.969,182.671 33.940 C 187.033 37.733,181.339 42.958,176.262 39.821 C 173.106 37.870,171.452 30.946,173.137 26.735 C 174.626 23.013,180.954 21.425,184.018 24.004 C 186.059 25.721,186.948 25.360,187.364 22.644 C 187.891 19.208,182.137 17.699,175.266 19.472 M238.299 22.259 C 236.073 24.485,236.866 27.072,239.545 26.322 C 243.383 25.247,245.237 26.753,244.416 30.279 C 242.649 37.873,240.741 43.589,239.622 44.639 C 237.633 46.509,238.166 47.088,243.261 48.594 C 247.207 49.760,248.241 49.179,247.391 46.273 C 246.945 44.745,246.907 44.942,249.567 34.940 C 251.322 28.342,253.842 27.163,257.207 31.365 C 258.606 33.112,260.762 30.414,259.967 27.911 C 259.755 27.243,254.194 25.092,252.691 25.098 C 252.418 25.099,251.163 24.757,249.902 24.337 C 248.641 23.918,246.899 23.454,246.030 23.307 C 245.161 23.160,243.995 22.807,243.440 22.523 C 241.420 21.490,239.183 21.375,238.299 22.259 M218.284 22.687 C 223.729 25.465,221.860 38.864,215.914 39.679 C 210.701 40.394,208.765 38.222,208.765 31.659 C 208.765 23.500,212.667 19.822,218.284 22.687 M139.703 32.570 C 139.602 32.734,139.328 33.900,139.095 35.161 C 138.606 37.808,138.176 38.732,136.572 40.577 C 134.379 43.102,134.903 43.565,141.100 44.579 C 141.244 44.602,142.267 45.336,143.372 46.210 C 145.694 48.045,146.493 47.968,146.818 45.878 C 147.274 42.941,147.821 41.587,149.391 39.502 C 151.581 36.594,151.191 35.857,147.462 35.857 C 145.963 35.857,143.015 34.314,141.883 32.937 C 141.322 32.254,140.032 32.037,139.703 32.570 M271.793 32.749 C 271.530 33.012,271.315 34.067,271.315 35.093 C 271.315 36.638,270.790 37.975,268.256 42.882 C 264.283 50.576,264.054 50.936,262.563 51.843 C 260.446 53.130,260.992 54.093,265.011 56.164 C 268.990 58.214,270.409 57.937,269.902 55.212 C 269.599 53.585,271.321 49.677,272.756 48.737 C 273.944 47.959,281.005 51.111,281.489 52.636 C 281.845 53.760,279.629 57.877,278.190 58.765 C 275.440 60.461,275.934 61.702,280.255 63.949 C 284.219 66.011,285.102 65.666,284.882 62.142 C 284.772 60.381,291.499 47.556,293.285 46.121 C 295.769 44.125,295.239 43.163,290.400 40.889 C 287.257 39.411,285.796 40.037,286.317 42.639 C 286.624 44.173,285.169 47.287,283.868 47.880 C 282.236 48.623,275.299 44.961,275.299 43.356 C 275.299 41.969,276.917 39.401,278.308 38.580 C 280.789 37.116,280.222 35.698,276.351 33.680 C 273.463 32.175,272.553 31.989,271.793 32.749 M108.964 42.771 C 99.214 46.431,96.114 55.444,103.394 58.968 C 105.510 59.992,106.276 59.924,112.831 58.135 L 116.299 57.188 117.412 58.016 C 121.830 61.301,114.658 67.117,109.094 64.762 C 108.019 64.307,107.450 65.805,107.967 67.727 C 108.655 70.281,111.699 70.270,116.800 67.695 C 129.328 61.371,123.776 47.235,110.842 52.525 C 108.179 53.614,106.226 53.636,105.179 52.590 C 102.688 50.098,106.825 45.878,111.333 46.315 C 114.034 46.576,114.343 46.405,114.343 44.650 C 114.343 41.813,112.880 41.302,108.964 42.771 M187.052 53.226 C 180.939 53.741,174.449 54.747,168.924 56.035 C 167.500 56.367,165.211 56.884,163.838 57.184 C 162.465 57.485,161.146 57.851,160.908 57.998 C 160.670 58.145,159.284 58.586,157.827 58.978 C 155.136 59.702,151.212 61.048,147.610 62.483 C 146.514 62.919,144.682 63.647,143.539 64.101 C 136.489 66.901,125.452 72.956,117.729 78.259 C 96.834 92.607,78.188 114.317,67.919 136.255 C 67.149 137.898,66.344 139.554,66.130 139.933 C 65.363 141.288,62.505 148.742,60.971 153.386 C 58.864 159.765,58.214 161.954,57.833 163.944 C 57.624 165.040,57.175 167.102,56.836 168.526 C 51.670 190.223,52.581 219.982,59.056 241.036 C 61.946 250.433,64.623 257.476,67.721 263.831 C 82.713 294.593,105.728 317.854,136.255 333.098 C 138.775 334.356,141.823 335.777,143.028 336.254 C 144.233 336.732,146.116 337.482,147.211 337.921 C 149.681 338.912,155.851 341.036,159.562 342.174 C 174.537 346.765,197.971 349.310,211.554 347.822 C 225.577 346.285,229.359 345.678,237.450 343.663 C 243.819 342.076,255.232 338.289,257.523 337.002 C 257.935 336.771,258.923 336.351,259.718 336.071 C 266.908 333.534,281.314 325.041,291.310 317.446 C 310.476 302.883,328.900 279.167,337.052 258.566 C 337.529 257.361,338.278 255.478,338.717 254.382 C 341.505 247.417,344.889 235.931,345.994 229.681 C 346.303 227.928,346.744 225.508,346.972 224.303 C 347.827 219.785,348.687 210.314,348.889 203.187 C 349.409 184.841,345.640 163.812,338.712 146.414 C 336.684 141.320,336.210 140.227,334.691 137.139 C 333.798 135.324,333.068 133.776,333.068 133.698 C 333.068 133.144,327.123 123.089,324.098 118.526 C 308.779 95.423,285.174 75.462,261.155 65.299 C 259.622 64.650,257.829 63.866,257.171 63.557 C 253.528 61.844,246.835 59.606,239.243 57.562 C 237.928 57.208,235.956 56.670,234.861 56.365 C 233.765 56.061,231.614 55.621,230.080 55.387 C 228.546 55.153,226.036 54.698,224.502 54.377 C 216.837 52.772,198.950 52.222,187.052 53.226 M304.426 56.428 C 292.431 62.405,293.331 77.655,305.931 81.947 C 315.619 85.248,326.606 71.903,321.173 63.436 C 316.905 56.785,309.732 53.783,304.426 56.428 M314.269 61.745 C 318.472 64.790,317.930 68.912,312.614 74.325 C 305.956 81.105,297.330 74.683,302.686 66.932 C 306.771 61.020,310.786 59.222,314.269 61.745 M78.975 64.621 C 72.025 70.794,71.288 72.040,73.934 73.145 C 75.113 73.638,75.561 74.198,76.548 76.412 C 77.204 77.881,77.986 79.622,78.286 80.279 C 78.587 80.936,79.390 82.819,80.070 84.462 C 80.751 86.106,81.569 88.039,81.889 88.759 C 82.209 89.478,82.470 90.584,82.470 91.216 C 82.470 94.206,83.810 94.383,86.781 91.783 C 89.173 89.691,89.453 88.266,87.649 87.375 C 84.624 85.882,84.632 84.250,87.677 81.078 C 91.438 77.162,93.532 76.789,95.056 79.764 C 96.387 82.360,97.034 82.292,100.234 79.220 C 103.404 76.176,103.596 75.128,101.096 74.518 C 95.712 73.203,83.219 65.993,82.693 63.896 C 82.337 62.477,81.122 62.714,78.975 64.621 M212.776 63.522 C 220.234 64.088,226.860 65.125,232.163 66.554 C 233.747 66.981,235.305 67.331,235.624 67.331 C 241.484 67.331,264.710 77.768,276.892 85.876 C 294.156 97.365,306.426 110.092,318.551 129.084 C 320.928 132.807,324.856 140.488,327.516 146.614 C 329.510 151.207,332.993 161.103,333.615 163.944 C 333.759 164.602,334.222 166.484,334.645 168.127 C 336.393 174.926,337.034 179.162,338.257 192.032 C 338.719 196.889,338.717 203.510,338.252 208.566 C 337.430 217.511,336.634 223.826,336.067 225.896 C 335.738 227.102,335.466 228.536,335.464 229.084 C 335.455 231.644,330.217 248.278,327.498 254.382 C 321.946 266.844,316.229 276.298,308.103 286.454 C 294.163 303.876,271.447 320.854,252.885 327.723 C 246.174 330.207,244.578 330.765,242.696 331.289 C 241.528 331.614,240.273 332.036,239.908 332.228 C 239.542 332.420,238.446 332.709,237.472 332.870 C 236.498 333.032,234.722 333.501,233.526 333.913 C 232.329 334.324,230.909 334.661,230.371 334.661 C 229.832 334.661,227.933 335.008,226.150 335.432 C 224.367 335.856,220.936 336.397,218.526 336.635 C 216.116 336.873,212.530 337.240,210.558 337.451 C 205.954 337.943,196.436 337.943,191.833 337.451 C 189.861 337.240,186.275 336.873,183.865 336.635 C 181.454 336.397,178.023 335.856,176.240 335.432 C 174.457 335.008,172.558 334.661,172.020 334.661 C 171.482 334.661,170.062 334.324,168.865 333.913 C 167.668 333.501,165.892 333.032,164.918 332.870 C 163.944 332.709,162.848 332.420,162.483 332.228 C 162.117 332.036,160.862 331.614,159.694 331.289 C 139.548 325.686,115.889 310.552,99.920 293.055 C 89.753 281.915,79.317 265.789,74.628 253.976 C 64.249 227.822,61.114 200.811,65.707 177.092 C 66.131 174.900,66.555 172.570,66.649 171.912 C 67.298 167.358,70.095 158.277,73.705 149.004 C 86.734 115.542,115.753 86.414,149.402 73.024 C 156.551 70.180,165.040 67.331,166.368 67.331 C 166.687 67.331,168.245 66.981,169.829 66.554 C 174.816 65.210,181.679 64.085,187.251 63.699 C 190.209 63.494,192.988 63.265,193.426 63.191 C 195.526 62.837,206.148 63.018,212.776 63.522 M83.173 72.182 C 88.318 75.032,88.605 75.614,85.984 77.857 C 83.280 80.172,82.653 79.780,80.466 74.406 C 78.848 70.431,79.317 70.046,83.173 72.182 M200.797 73.981 C 196.074 74.773,194.680 76.725,193.811 83.763 C 193.264 88.193,188.581 90.524,180.080 90.600 C 172.871 90.664,168.279 88.402,163.527 82.447 C 160.057 78.098,158.648 77.546,156.501 79.693 C 155.031 81.163,155.143 82.557,157.028 86.255 C 161.985 95.978,168.875 99.414,185.060 100.237 C 191.171 100.548,191.227 100.580,192.419 104.505 C 193.340 107.542,194.803 111.668,196.105 114.908 C 196.992 117.114,197.168 120.046,196.574 122.709 C 196.029 125.154,196.549 127.769,197.849 129.126 C 199.102 130.433,199.186 131.757,198.132 133.548 C 195.570 137.901,193.546 149.324,193.557 159.363 C 193.586 184.521,204.044 201.908,215.104 195.183 C 218.839 192.911,220.854 186.336,221.504 174.303 C 221.887 167.207,222.347 162.927,222.947 160.883 C 223.544 158.851,229.881 157.769,231.529 159.418 C 232.498 160.386,232.410 165.213,231.309 171.559 C 231.009 173.287,230.646 176.046,230.501 177.689 C 230.357 179.333,229.894 183.008,229.474 185.857 C 227.473 199.413,227.087 202.301,227.089 203.718 C 227.091 205.155,228.808 210.884,229.497 211.753 C 233.171 216.388,235.579 238.151,233.310 246.215 C 232.909 247.639,232.421 249.612,232.224 250.598 C 231.659 253.435,230.815 254.226,226.656 255.809 C 211.465 261.591,212.602 269.532,228.046 265.518 C 234.847 263.751,237.671 261.612,239.855 256.574 C 240.567 254.930,242.105 251.746,243.273 249.498 C 248.204 240.005,249.583 235.005,249.564 226.693 C 249.543 217.476,248.446 214.835,242.107 208.739 L 238.973 205.724 239.142 202.962 C 239.268 200.913,239.733 199.170,240.945 196.215 C 243.821 189.199,244.811 184.432,245.978 171.979 L 246.494 166.468 247.920 165.042 C 255.488 157.473,261.454 173.084,258.199 191.943 C 257.109 198.257,257.131 198.710,258.787 204.174 C 262.805 217.427,263.158 234.419,259.782 251.992 C 259.361 254.183,258.902 256.873,258.760 257.968 C 258.384 260.889,256.088 263.332,253.701 263.351 C 251.781 263.365,246.206 267.016,245.234 268.895 C 242.649 273.895,256.345 273.948,263.427 268.966 C 264.702 268.069,267.331 263.642,267.331 262.391 C 267.331 262.229,269.200 258.300,271.485 253.658 C 275.498 245.504,276.246 243.822,278.335 238.247 C 283.086 225.568,281.463 216.190,273.032 207.612 C 267.999 202.490,267.782 201.458,270.264 194.422 C 274.641 182.015,274.936 177.478,272.037 167.192 C 270.542 161.887,270.718 158.566,272.494 158.566 C 273.596 158.566,279.790 160.387,281.243 161.139 C 284.053 162.592,285.657 161.677,285.657 158.622 C 285.657 155.847,282.844 153.413,276.355 150.572 C 272.316 148.804,271.746 146.957,273.726 142.052 C 274.755 139.503,277.972 125.991,278.285 122.908 C 278.418 121.594,278.721 119.485,278.958 118.223 C 280.093 112.169,276.373 109.645,265.077 108.807 C 259.636 108.404,259.399 108.220,258.003 103.309 C 256.819 99.144,256.774 97.417,257.763 94.008 C 259.782 87.051,250.419 82.065,240.837 84.994 C 232.658 87.494,234.355 97.503,243.277 99.381 C 245.163 99.778,246.046 101.062,246.796 104.503 C 247.948 109.783,248.135 109.687,235.458 110.352 C 230.966 110.587,225.408 111.037,223.108 111.350 C 208.810 113.299,205.707 113.042,204.469 109.806 C 198.988 95.484,201.217 86.234,210.338 85.453 C 218.731 84.734,222.140 78.706,215.961 75.511 C 213.735 74.360,204.244 73.402,200.797 73.981 M335.345 78.541 C 335.002 78.733,334.522 79.493,334.280 80.228 C 333.558 82.416,321.909 91.626,319.847 91.640 C 316.619 91.661,317.106 93.466,321.951 99.430 C 327.871 106.719,330.987 108.719,334.394 107.418 C 336.976 106.432,338.247 104.893,338.594 102.330 C 338.977 99.512,339.211 99.203,340.966 99.203 C 344.132 99.203,347.012 96.497,347.012 93.523 C 347.012 89.396,337.583 77.289,335.345 78.541 M59.304 85.159 C 58.752 85.762,56.615 88.586,54.556 91.434 C 52.496 94.283,50.136 97.510,49.312 98.606 C 47.438 101.095,47.426 101.972,49.242 103.566 C 51.219 105.302,51.943 105.062,52.193 102.585 C 52.453 100.013,53.830 97.999,55.306 98.032 C 56.687 98.062,68.662 107.014,68.866 108.167 C 69.371 111.026,71.311 110.869,73.807 107.769 C 76.711 104.161,76.572 101.992,73.436 101.992 C 71.239 101.992,59.363 93.233,59.363 91.613 C 59.363 90.492,60.981 88.806,62.809 88.022 C 64.889 87.130,64.984 86.433,63.209 85.080 C 61.502 83.778,60.553 83.797,59.304 85.159 M340.490 87.876 C 344.445 92.070,340.056 96.813,335.942 92.791 C 333.631 90.532,333.875 89.035,336.853 87.195 C 338.514 86.169,338.958 86.252,340.490 87.876 M332.630 94.495 C 336.533 99.802,331.434 105.237,327.007 100.489 C 324.335 97.624,324.498 96.889,328.446 93.975 C 330.523 92.443,331.182 92.525,332.630 94.495 M355.956 107.470 C 355.616 107.854,355.033 108.559,354.661 109.037 C 354.289 109.516,351.653 111.101,348.805 112.559 C 342.549 115.763,341.289 116.679,340.157 118.848 C 337.455 124.024,341.921 133.606,347.999 135.672 C 350.747 136.606,351.734 136.327,359.450 132.436 C 363.353 130.468,364.914 129.880,366.243 129.880 C 369.334 129.880,369.599 128.809,367.525 124.691 C 365.831 121.328,364.948 121.077,363.061 123.425 C 361.800 124.995,352.557 130.003,350.000 130.502 C 345.831 131.316,342.414 125.109,345.368 122.087 C 347.380 120.030,356.652 115.538,358.888 115.538 C 362.171 115.538,362.414 114.696,360.318 110.584 C 358.368 106.759,357.276 105.980,355.956 107.470 M40.320 114.347 C 39.372 115.365,37.052 119.958,37.052 120.817 C 37.052 121.742,37.721 122.049,40.438 122.370 C 43.811 122.769,54.956 128.505,56.168 130.467 C 57.829 133.153,59.119 132.509,61.361 127.875 C 63.069 124.344,62.846 123.807,59.520 123.460 C 56.224 123.115,45.943 117.846,43.604 115.302 C 41.786 113.325,41.382 113.208,40.320 114.347 M261.349 120.256 C 264.398 121.212,264.644 121.802,264.358 127.490 C 263.595 142.654,258.805 147.535,247.974 144.186 C 242.985 142.644,240.583 125.893,244.784 121.946 C 247.029 119.837,256.826 118.838,261.349 120.256 M228.786 122.408 C 230.348 123.599,231.457 126.536,232.264 131.617 C 232.503 133.119,232.961 135.596,233.281 137.121 C 234.904 144.834,233.187 147.522,226.656 147.494 C 221.081 147.470,219.941 146.622,218.138 141.158 C 216.736 136.909,215.272 134.659,212.979 133.230 C 209.286 130.929,209.444 131.243,210.493 128.287 C 212.074 123.835,212.728 123.054,215.493 122.318 C 221.125 120.818,226.751 120.856,228.786 122.408 M132.271 124.315 C 105.902 128.431,91.853 143.792,91.838 168.526 C 91.821 197.778,112.018 218.468,140.637 218.515 C 168.368 218.560,187.340 197.967,187.425 167.729 L 187.450 158.765 186.171 155.088 C 181.581 141.891,170.848 130.211,159.893 126.492 C 158.892 126.152,157.764 125.709,157.387 125.507 C 154.014 123.702,140.354 123.053,132.271 124.315 M145.020 130.888 C 149.989 133.766,148.163 138.444,141.833 139.055 C 129.854 140.211,125.726 138.804,126.921 133.969 C 127.787 130.462,140.538 128.291,145.020 130.888 M31.170 136.919 C 27.769 138.289,25.212 148.700,27.325 152.581 C 30.565 158.534,36.379 157.433,41.262 149.942 C 44.130 145.540,45.649 144.913,47.825 147.229 C 50.043 149.589,47.991 154.400,43.924 156.379 C 42.346 157.148,42.250 158.209,43.658 159.317 C 46.444 161.508,48.342 160.068,51.054 153.707 C 56.219 141.592,44.059 133.863,37.388 145.020 C 35.050 148.930,34.171 149.801,32.568 149.801 C 28.740 149.801,29.063 143.994,33.047 141.167 C 34.767 139.947,35.155 139.357,34.817 138.477 C 34.635 138.002,32.257 136.584,31.812 136.685 C 31.736 136.702,31.447 136.807,31.170 136.919 M165.169 137.464 C 168.296 138.978,173.307 144.882,173.307 147.052 C 173.307 149.192,169.643 151.058,166.997 150.266 C 163.935 149.348,157.418 143.597,157.326 141.732 C 157.101 137.148,160.591 135.248,165.169 137.464 M117.109 139.940 C 118.900 141.851,118.949 144.719,117.231 146.990 C 111.815 154.149,107.863 156.183,105.221 153.173 C 100.463 147.755,112.195 134.697,117.109 139.940 M371.170 144.005 C 369.987 144.846,368.363 145.557,366.988 145.835 C 365.752 146.085,364.024 146.534,363.147 146.833 C 359.598 148.044,355.700 148.688,353.545 148.418 C 350.871 148.084,350.709 148.373,351.361 152.320 C 352.117 156.901,353.687 158.201,355.777 155.975 C 357.557 154.082,361.351 153.598,362.360 155.137 C 364.304 158.104,363.128 160.312,358.019 163.287 C 355.125 164.972,354.749 165.858,355.617 168.951 C 356.682 172.745,358.536 173.475,359.738 170.573 C 360.020 169.893,361.048 168.890,362.189 168.180 C 363.270 167.508,364.529 166.325,364.985 165.551 C 365.948 163.919,366.224 163.868,368.320 164.937 C 376.306 169.008,380.711 161.377,376.750 150.332 C 376.422 149.419,376.034 147.869,375.887 146.887 C 375.265 142.744,374.017 141.981,371.170 144.005 M208.489 144.935 C 213.035 149.958,213.854 182.296,209.474 183.830 C 205.423 185.249,202.333 172.220,202.917 156.175 C 203.287 146.010,205.472 141.601,208.489 144.935 M147.543 146.796 C 158.979 151.128,159.129 156.705,147.928 161.129 C 143.258 162.974,142.000 162.469,138.049 157.168 C 133.111 150.543,132.724 147.090,136.778 145.831 C 138.970 145.150,144.511 145.647,147.543 146.796 M373.520 151.554 C 375.020 152.651,374.882 157.777,373.316 159.094 C 370.235 161.687,366.135 158.778,366.135 153.999 C 366.135 152.065,371.699 150.223,373.520 151.554 M127.537 152.888 C 132.201 157.850,134.196 164.698,131.729 167.273 C 129.215 169.897,120.395 173.367,118.371 172.528 C 114.750 171.028,115.637 160.538,119.816 155.437 C 123.182 151.327,125.386 150.600,127.537 152.888 M178.715 159.220 C 182.437 161.658,182.690 174.814,179.045 176.337 C 173.886 178.492,171.526 175.186,171.780 166.160 C 171.925 160.970,172.241 160.210,174.701 159.125 C 176.320 158.410,177.523 158.439,178.715 159.220 M105.741 163.107 C 107.442 163.817,107.612 164.120,108.220 167.511 C 109.827 176.481,107.579 181.316,102.263 180.319 C 96.618 179.260,96.485 165.198,102.102 163.209 C 104.251 162.448,104.169 162.450,105.741 163.107 M162.470 164.155 C 167.572 168.908,162.831 184.830,156.262 185.002 C 151.556 185.126,144.091 173.458,146.726 170.098 C 149.661 166.355,160.458 162.280,162.470 164.155 M43.080 170.135 C 42.561 170.568,41.127 171.210,39.893 171.563 C 38.659 171.916,36.787 172.676,35.732 173.253 L 33.815 174.303 32.590 172.789 C 30.229 169.871,27.193 169.043,24.287 170.526 C 21.321 172.039,20.190 175.048,19.125 184.263 C 18.303 191.377,18.904 192.735,22.113 191.007 C 23.331 190.352,23.650 190.349,27.738 190.966 C 30.121 191.326,33.566 191.740,35.391 191.886 C 37.919 192.089,39.040 192.375,40.090 193.088 C 42.626 194.809,43.266 194.249,43.828 189.814 C 44.380 185.465,44.212 185.088,41.890 185.466 C 36.946 186.269,34.263 185.483,34.263 183.231 C 34.263 180.104,36.027 178.668,40.672 178.011 C 44.674 177.445,45.076 177.057,45.646 173.204 C 46.217 169.340,45.321 168.268,43.080 170.135 M137.703 175.266 C 141.374 177.505,145.070 187.084,143.303 189.780 C 140.415 194.188,123.108 188.206,123.108 182.800 C 123.108 178.972,134.303 173.193,137.703 175.266 M29.911 177.260 C 31.447 178.796,31.628 182.715,30.228 184.114 C 28.307 186.036,22.709 184.404,22.709 181.923 C 22.709 176.883,26.852 174.201,29.911 177.260 M366.666 180.042 C 360.047 181.731,356.860 188.615,358.556 197.558 C 359.530 202.697,361.081 204.558,363.393 203.363 C 364.923 202.571,367.801 202.768,368.872 203.738 C 370.841 205.520,371.862 204.123,371.518 200.116 C 371.081 195.019,370.294 194.140,368.073 196.267 C 365.760 198.483,362.472 197.497,361.954 194.432 C 361.403 191.173,363.840 187.284,366.788 186.716 C 369.905 186.116,372.263 186.031,374.265 186.446 C 379.685 187.572,381.855 194.320,378.057 198.239 C 376.444 199.903,376.641 200.837,378.760 201.571 C 382.038 202.707,383.058 201.292,383.535 194.948 C 384.362 183.939,376.974 177.411,366.666 180.042 M173.153 187.682 C 175.639 189.995,174.841 192.758,170.290 197.582 C 165.774 202.368,163.445 203.063,160.894 200.382 C 158.951 198.339,158.798 196.259,160.411 193.818 C 164.734 187.275,169.993 184.743,173.153 187.682 M114.586 188.285 C 121.286 192.754,123.942 198.232,120.977 201.467 C 117.996 204.720,109.963 200.577,106.584 194.044 C 104.474 189.964,110.549 185.592,114.586 188.285 M147.179 200.316 C 152.222 202.066,152.412 207.844,147.456 208.765 C 137.906 210.539,129.623 207.597,131.854 203.223 C 133.387 200.219,142.122 198.562,147.179 200.316 M38.745 205.045 C 37.991 205.349,38.147 206.416,39.093 207.423 C 40.043 208.434,40.594 210.742,40.620 213.816 C 40.644 216.622,40.064 217.131,36.853 217.131 C 33.104 217.131,32.213 215.494,33.544 211.054 C 34.177 208.939,33.327 208.193,30.677 208.537 C 28.204 208.858,27.704 209.631,28.703 211.589 C 30.669 215.442,29.433 218.327,25.817 218.327 C 22.686 218.327,21.081 213.836,23.065 210.627 C 24.430 208.418,23.547 207.421,20.758 208.019 C 18.492 208.505,18.302 210.942,19.728 221.244 C 20.466 226.581,21.120 227.222,23.883 225.321 C 25.710 224.063,39.199 223.035,41.952 223.944 C 45.200 225.016,45.457 223.788,44.227 213.090 C 43.256 204.638,42.500 203.529,38.745 205.045 M95.898 211.723 C 90.743 213.109,88.588 218.845,91.819 222.577 L 93.140 224.104 96.869 224.104 L 100.598 224.104 100.708 225.896 C 100.769 226.882,100.564 228.586,100.253 229.681 C 99.257 233.195,98.117 236.762,96.844 240.347 C 93.429 249.965,93.386 258.190,96.697 268.327 C 104.233 291.399,132.159 311.213,167.131 318.302 C 169.104 318.702,171.703 319.226,172.908 319.468 C 197.612 324.415,233.819 322.398,254.159 314.943 C 277.296 306.462,299.616 286.485,308.691 266.135 C 319.217 242.530,320.073 225.290,310.844 222.727 C 302.411 220.384,298.674 228.316,304.748 235.667 C 306.676 238.000,306.825 239.496,305.629 244.506 C 300.840 264.556,283.976 282.869,270.301 282.869 L 267.299 282.869 264.542 280.279 C 259.900 275.919,255.827 276.904,256.945 282.117 C 257.825 286.224,257.239 288.149,254.953 288.651 C 252.443 289.203,251.204 288.148,248.710 283.335 C 246.854 279.755,245.556 278.195,244.006 277.683 C 238.941 276.012,237.423 278.738,240.234 284.462 C 242.199 288.466,242.046 291.509,239.783 293.413 C 235.781 296.781,231.411 291.195,230.056 280.980 C 229.529 277.009,227.772 275.472,224.145 275.809 C 220.937 276.107,219.747 278.875,221.447 282.087 C 221.848 282.846,222.463 284.004,222.813 284.661 C 226.811 292.173,226.598 295.618,222.136 295.618 C 220.659 295.618,219.736 295.388,219.054 294.851 C 217.415 293.562,213.926 283.277,213.937 279.768 C 213.951 275.621,211.774 272.907,208.436 272.910 C 204.267 272.913,202.028 276.181,203.885 279.551 C 209.349 289.469,210.132 293.139,207.313 295.615 C 203.675 298.809,200.823 294.186,197.977 280.478 C 196.490 273.312,196.434 273.142,195.204 272.012 C 192.913 269.908,189.291 270.792,188.579 273.630 C 188.448 274.150,189.017 277.347,189.856 280.809 C 192.432 291.441,192.006 295.307,188.152 296.274 C 184.832 297.108,182.876 293.904,181.374 285.173 L 180.314 279.011 181.091 276.458 C 182.662 271.298,181.611 268.526,178.084 268.526 C 173.583 268.526,173.268 269.411,173.528 281.328 C 173.791 293.375,173.458 294.212,168.427 294.142 C 164.247 294.084,162.759 291.830,163.218 286.255 C 163.398 284.064,163.547 280.120,163.548 277.490 C 163.549 274.765,163.784 271.796,164.094 270.585 C 165.516 265.024,163.334 261.738,159.169 263.170 C 156.010 264.256,154.912 266.886,155.942 270.904 C 156.669 273.745,156.372 275.875,153.689 287.037 C 153.101 289.484,150.732 291.633,148.622 291.633 C 144.862 291.633,143.739 288.238,145.264 281.474 C 145.610 279.940,146.038 277.871,146.216 276.877 C 146.394 275.882,146.939 274.300,147.429 273.361 C 149.260 269.848,148.517 266.101,145.831 265.296 C 142.565 264.317,140.652 266.494,140.624 271.223 C 140.568 280.603,134.948 288.252,131.261 283.966 C 128.463 280.713,131.949 264.678,136.133 261.554 C 138.661 259.667,139.442 258.275,139.442 255.659 C 139.442 249.734,132.543 248.671,131.034 254.363 C 129.330 260.786,123.506 257.734,123.506 250.419 C 123.506 243.980,126.936 240.342,134.978 238.253 C 136.147 237.949,136.828 237.503,137.128 236.844 C 138.081 234.753,135.535 233.849,130.923 234.641 C 117.813 236.894,112.600 251.256,120.191 264.210 C 123.115 269.201,119.945 274.341,115.323 272.104 C 107.315 268.228,103.609 254.759,107.157 242.430 C 110.964 229.200,111.356 225.473,109.555 219.618 C 107.515 212.984,102.339 209.991,95.898 211.723 M358.852 215.593 C 357.987 216.077,357.487 218.031,356.760 223.774 C 356.432 226.366,355.991 229.203,355.780 230.080 C 354.840 233.993,355.622 235.050,359.462 235.058 C 360.560 235.060,361.116 233.460,360.211 232.900 C 359.095 232.211,359.624 224.901,360.856 223.981 C 361.775 223.294,366.059 223.745,367.064 224.635 C 367.949 225.419,367.694 228.005,366.500 230.346 C 365.346 232.607,366.063 233.456,369.124 233.455 C 371.076 233.454,371.536 232.953,371.047 231.361 C 370.571 229.811,370.942 226.507,371.674 225.777 C 372.257 225.196,376.123 225.272,377.273 225.887 C 378.888 226.751,378.140 231.707,376.098 233.663 C 374.206 235.476,374.867 236.661,377.763 236.647 C 380.085 236.637,380.672 235.751,381.060 231.673 C 381.206 230.139,381.695 226.850,382.147 224.364 L 382.969 219.844 382.139 219.014 C 381.425 218.300,381.164 218.249,380.277 218.653 C 379.115 219.183,375.303 219.226,372.311 218.745 C 364.966 217.562,362.265 216.959,361.554 216.345 C 360.446 215.388,359.626 215.159,358.852 215.593 M23.187 239.124 C 22.504 239.807,22.592 240.929,23.543 243.639 C 24.860 247.397,25.396 247.717,27.463 245.978 L 28.691 244.944 34.673 245.380 C 37.962 245.620,41.098 245.817,41.642 245.817 C 43.867 245.817,42.651 247.363,37.164 251.513 C 32.861 254.767,31.713 255.378,29.903 255.378 C 27.579 255.378,27.276 257.082,28.803 261.554 C 29.875 264.693,31.571 265.541,32.470 263.388 C 32.839 262.506,37.680 258.453,46.560 251.594 C 50.555 248.507,50.796 248.128,50.406 245.528 C 49.868 241.943,48.879 241.647,33.399 240.447 C 28.593 240.074,26.505 239.754,25.840 239.289 C 24.749 238.524,23.843 238.468,23.187 239.124 M352.447 245.518 C 350.088 249.297,350.358 252.459,353.003 252.036 C 355.171 251.689,363.095 254.203,363.910 255.496 C 364.427 256.315,363.646 257.224,362.020 257.697 C 361.325 257.898,359.323 258.465,357.570 258.955 C 355.817 259.446,352.948 260.264,351.195 260.773 C 349.442 261.282,347.627 261.805,347.161 261.936 C 346.693 262.067,345.891 262.982,345.368 263.982 L 344.422 265.789 345.325 266.530 C 345.822 266.937,347.077 267.569,348.114 267.935 C 349.151 268.301,350.807 268.923,351.793 269.317 C 352.779 269.712,354.930 270.520,356.574 271.114 C 361.229 272.795,364.177 274.218,364.585 274.981 C 365.879 277.398,367.985 276.166,369.097 272.343 C 369.967 269.352,369.637 268.932,366.385 268.900 C 363.552 268.872,357.657 266.714,357.446 265.628 C 357.272 264.732,358.876 263.797,362.035 262.952 C 363.523 262.554,366.170 261.848,367.917 261.384 C 372.485 260.169,373.775 259.438,374.655 257.570 C 376.572 253.500,376.207 252.417,372.958 252.532 C 371.641 252.579,370.150 252.302,368.817 251.764 C 364.124 249.871,363.017 249.439,360.159 248.384 C 358.303 247.698,356.672 246.777,355.851 245.951 C 354.312 244.400,353.230 244.263,352.447 245.518 M55.063 268.287 C 53.960 269.318,51.463 270.882,49.004 272.081 C 46.703 273.203,43.955 274.583,42.897 275.149 C 41.479 275.906,40.406 276.171,38.824 276.152 C 35.499 276.112,35.357 277.160,37.987 282.349 C 39.497 285.331,40.205 285.436,42.344 283.000 C 44.124 280.973,56.161 275.102,58.554 275.094 C 61.866 275.082,62.123 274.086,59.903 269.881 C 57.790 265.882,57.676 265.844,55.063 268.287 M339.623 278.034 C 333.425 281.814,330.074 290.932,333.358 295.082 C 336.801 299.432,340.952 299.218,346.014 294.428 C 350.056 290.604,351.414 290.059,352.988 291.633 C 355.123 293.768,352.879 298.115,348.974 299.412 C 346.743 300.153,346.290 300.970,347.333 302.371 C 349.154 304.817,350.758 304.287,354.243 300.085 C 359.278 294.016,359.125 287.492,353.894 285.178 C 350.486 283.670,348.206 284.499,343.227 289.056 C 339.773 292.217,337.730 292.473,336.508 289.898 C 335.192 287.125,337.658 283.198,341.293 282.275 C 344.114 281.559,344.605 280.543,343.009 278.725 C 341.564 277.079,341.283 277.022,339.623 278.034 M59.606 291.988 C 54.434 295.845,51.734 297.607,50.701 297.800 C 47.250 298.448,47.076 299.212,49.612 302.590 C 51.736 305.419,52.826 305.703,53.832 303.690 C 54.763 301.825,55.168 301.413,58.635 298.800 C 63.018 295.498,63.745 295.991,62.133 301.167 C 61.684 302.607,60.974 304.950,60.553 306.375 C 60.133 307.799,59.514 309.894,59.178 311.031 C 58.353 313.817,58.387 314.140,59.715 316.064 C 62.126 319.559,63.462 319.935,64.633 317.448 C 65.801 314.969,77.746 305.976,79.872 305.976 C 82.639 305.976,82.553 304.207,79.612 300.640 C 77.986 298.667,75.697 298.800,75.697 300.867 C 75.697 302.079,68.307 307.968,66.786 307.968 C 65.837 307.968,66.054 305.245,67.305 301.423 C 70.865 290.552,71.143 288.730,69.493 287.080 C 68.246 285.833,67.097 286.403,59.606 291.988 M319.101 304.482 C 315.694 308.162,315.562 309.169,318.392 309.890 C 320.249 310.363,321.830 311.565,327.777 317.022 C 330.350 319.383,331.824 321.070,332.317 322.220 C 333.569 325.138,334.705 324.934,337.989 321.202 C 340.180 318.711,340.434 317.274,338.745 316.912 C 336.642 316.462,335.912 315.964,330.990 311.623 C 325.527 306.804,323.904 305.066,323.904 304.033 C 323.904 301.658,321.508 301.882,319.101 304.482 M88.247 316.912 C 86.541 317.540,84.880 319.164,79.959 325.017 C 77.648 327.764,76.540 328.776,75.642 328.955 C 72.910 329.502,73.193 331.231,76.470 334.015 C 79.003 336.167,80.347 336.404,80.695 334.761 C 81.140 332.653,81.903 331.484,85.850 326.856 C 90.317 321.619,91.511 320.837,94.015 321.512 C 96.041 322.057,98.406 324.730,98.406 326.473 C 98.406 328.742,90.370 338.610,87.844 339.444 C 85.425 340.242,85.498 341.606,88.084 343.924 C 91.974 347.409,94.024 347.653,94.024 344.628 C 94.024 343.858,95.251 342.084,98.459 338.216 C 100.899 335.275,103.140 332.292,103.440 331.587 C 106.515 324.346,95.901 314.093,88.247 316.912 M304.382 319.837 C 294.479 324.715,291.701 332.445,298.138 337.213 C 299.720 338.385,303.880 338.368,306.375 337.178 C 312.391 334.310,312.967 334.193,314.273 335.583 C 316.784 338.256,313.268 342.231,308.393 342.231 C 305.937 342.231,305.195 343.124,306.137 344.946 C 307.401 347.390,308.502 347.419,312.620 345.118 C 325.085 338.151,320.155 324.580,307.221 330.257 C 303.243 332.003,302.058 332.153,300.697 331.083 C 297.347 328.448,301.621 323.506,307.249 323.506 L 309.960 323.506 309.960 322.093 C 309.960 318.991,307.840 318.134,304.382 319.837 M124.502 345.418 C 122.682 346.629,121.719 347.010,120.468 347.011 C 116.325 347.014,115.436 347.866,117.275 350.069 C 118.801 351.898,119.475 353.536,119.807 356.223 C 120.199 359.400,120.626 359.521,123.921 357.391 C 126.036 356.024,126.740 355.777,128.519 355.777 C 131.832 355.777,132.198 355.082,130.306 352.381 C 129.053 350.592,128.727 349.721,128.493 347.540 C 128.021 343.127,127.978 343.104,124.502 345.418 M273.766 344.321 C 273.514 344.574,273.307 345.883,273.307 347.229 C 273.307 349.415,273.133 349.946,271.690 352.179 C 269.704 355.251,269.813 355.590,272.883 355.911 C 275.426 356.176,277.008 356.820,279.179 358.470 C 281.032 359.879,281.555 359.473,281.888 356.372 C 282.117 354.224,282.467 353.284,283.745 351.370 C 285.928 348.101,285.755 347.680,282.075 347.312 C 279.739 347.079,278.755 346.771,277.498 345.876 C 274.962 344.073,274.293 343.794,273.766 344.321 M157.968 352.950 C 157.530 353.082,156.633 353.479,155.976 353.833 C 155.319 354.186,154.064 354.702,153.187 354.979 C 149.839 356.037,149.446 358.566,152.631 358.566 C 154.181 358.566,154.384 360.211,153.280 363.823 C 152.723 365.642,152.053 367.966,151.790 368.986 C 151.079 371.743,150.083 373.151,148.637 373.440 C 146.158 373.936,146.950 376.253,149.756 376.716 C 150.548 376.847,152.675 377.410,154.484 377.967 C 158.830 379.305,160.123 378.584,157.968 376.023 C 156.717 374.536,156.721 373.939,158.004 369.522 C 158.577 367.550,159.405 364.681,159.843 363.147 C 160.281 361.614,160.980 359.234,161.396 357.860 C 161.811 356.486,162.149 355.231,162.145 355.071 C 162.122 353.958,159.329 352.540,157.968 352.950 M243.114 353.211 C 242.626 353.553,241.935 354.405,241.578 355.104 C 241.221 355.803,240.236 357.132,239.389 358.059 C 237.214 360.437,237.568 362.294,240.017 361.363 C 242.692 360.346,243.135 360.920,244.928 367.729 C 246.500 373.700,246.512 374.505,245.044 375.812 C 243.343 377.328,243.918 378.662,246.150 378.376 C 248.518 378.072,255.380 376.192,256.001 375.677 C 257.167 374.709,256.170 373.311,254.309 373.304 C 253.344 373.300,251.913 371.100,251.589 369.124 C 251.446 368.247,251.007 366.454,250.614 365.139 C 250.221 363.825,249.410 360.867,248.812 358.566 C 247.232 352.490,247.287 352.590,245.516 352.590 C 244.683 352.590,243.603 352.869,243.114 353.211 M177.979 358.933 C 174.738 361.013,174.504 363.673,177.275 366.959 C 179.293 369.353,179.296 369.320,176.854 370.902 C 169.044 375.964,174.557 383.857,185.857 383.791 C 194.559 383.740,198.513 376.672,192.377 372.135 C 190.794 370.965,190.933 370.322,193.231 368.188 C 196.936 364.748,196.430 361.541,191.808 359.178 C 188.094 357.279,180.760 357.148,177.979 358.933 M213.546 358.141 C 207.746 359.912,205.184 364.491,207.003 369.831 C 208.580 374.460,214.118 376.474,219.709 374.452 C 221.445 373.824,222.142 374.330,221.741 375.928 C 221.157 378.254,217.204 380.484,213.674 380.480 C 211.066 380.477,209.821 382.790,212.051 383.497 C 222.625 386.854,232.323 373.941,227.091 363.472 C 224.696 358.678,219.057 356.459,213.546 358.141 M188.312 361.544 C 190.829 363.308,188.655 367.729,185.272 367.729 C 182.856 367.729,180.891 363.844,182.294 361.842 C 183.053 360.757,186.915 360.566,188.312 361.544 M219.774 361.845 C 222.793 363.914,222.787 369.022,219.763 370.891 C 215.843 373.313,211.972 371.019,211.958 366.266 C 211.946 361.962,216.327 359.484,219.774 361.845 M186.287 372.530 C 191.383 375.679,188.954 382.010,183.241 380.471 C 178.655 379.236,178.093 375.180,182.169 372.737 C 184.224 371.505,184.599 371.486,186.287 372.530 " stroke="none" fill="#34579e" fill-rule="evenodd"></path><path id="path1" d="M0.000 199.203 L 0.000 398.406 85.339 398.406 C 135.383 398.406,170.521 398.259,170.299 398.051 C 170.091 397.855,168.127 397.399,165.936 397.036 C 161.972 396.381,157.890 395.482,152.191 394.011 C 150.548 393.586,148.665 393.133,148.008 393.004 C 147.351 392.875,145.827 392.438,144.622 392.034 C 143.416 391.629,140.727 390.750,138.645 390.079 C 136.564 389.408,133.606 388.396,132.072 387.830 C 130.538 387.264,128.371 386.473,127.256 386.073 C 126.141 385.673,124.886 385.154,124.467 384.920 C 124.048 384.685,122.361 383.924,120.717 383.227 C 114.123 380.433,102.895 374.561,96.813 370.727 C 61.810 348.661,34.639 317.759,18.862 282.073 C 17.651 279.333,16.388 276.487,16.057 275.748 C 15.726 275.009,15.306 273.934,15.125 273.358 C 14.944 272.782,14.234 270.876,13.548 269.124 C 12.861 267.371,11.952 264.816,11.528 263.446 C 11.104 262.077,10.378 259.746,9.915 258.267 C 9.452 256.788,8.823 254.592,8.517 253.386 C 8.211 252.181,7.667 250.209,7.308 249.004 C 6.949 247.799,6.432 245.647,6.160 244.223 C 5.887 242.799,5.394 240.289,5.062 238.645 C 3.815 232.458,2.809 225.982,2.586 222.710 C 2.459 220.848,2.057 218.338,1.692 217.132 C 0.721 213.923,0.730 187.065,1.704 183.466 C 2.059 182.151,2.541 178.924,2.774 176.295 C 3.008 173.665,3.373 170.766,3.586 169.853 C 3.799 168.939,4.249 166.362,4.585 164.125 C 4.921 161.887,5.281 159.918,5.387 159.748 C 5.492 159.577,5.934 157.763,6.368 155.715 C 8.384 146.221,12.728 132.344,16.140 124.502 C 25.327 103.385,33.235 90.087,45.990 74.312 C 59.492 57.612,81.601 38.345,97.410 29.500 C 98.725 28.765,100.070 27.940,100.398 27.666 C 101.885 26.430,115.505 19.514,121.116 17.146 C 122.759 16.452,124.641 15.632,125.299 15.323 C 126.409 14.802,127.852 14.252,134.661 11.756 C 136.086 11.234,138.506 10.411,140.040 9.928 C 141.574 9.444,143.815 8.728,145.020 8.335 C 146.225 7.943,147.928 7.504,148.805 7.360 C 149.681 7.216,151.564 6.765,152.988 6.359 C 157.053 5.201,162.383 4.067,166.860 3.407 C 169.122 3.074,171.118 2.711,171.298 2.600 C 171.477 2.490,173.840 2.217,176.549 1.995 C 181.529 1.586,184.705 0.973,185.094 0.344 C 185.212 0.151,144.500 -0.000,92.653 -0.000 L 0.000 0.000 0.000 199.203 M216.926 0.388 C 217.294 0.984,219.778 1.506,223.506 1.771 C 226.925 2.014,234.343 3.144,239.841 4.260 C 241.484 4.594,244.154 5.115,245.774 5.419 C 248.718 5.971,250.221 6.366,256.574 8.260 C 261.051 9.594,271.363 13.012,273.003 13.705 C 273.718 14.007,275.199 14.621,276.295 15.070 C 288.009 19.869,300.562 26.367,308.811 31.902 C 309.604 32.434,311.307 33.564,312.596 34.413 C 342.420 54.061,372.935 90.609,384.419 120.435 C 384.859 121.576,385.784 123.855,386.476 125.498 C 389.763 133.309,393.850 146.149,395.415 153.586 C 395.692 154.900,396.195 157.141,396.533 158.566 C 397.588 163.012,398.862 170.398,399.184 173.929 C 399.353 175.791,399.606 177.429,399.746 177.568 C 399.886 177.708,400.000 137.812,400.000 88.911 L 400.000 0.000 308.343 0.000 C 249.047 0.000,216.771 0.137,216.926 0.388 M186.853 9.031 C 186.086 9.106,183.396 9.429,180.876 9.748 C 178.357 10.067,175.219 10.432,173.904 10.559 C 170.647 10.875,163.033 12.334,156.175 13.956 C 102.178 26.734,54.655 64.471,30.008 114.143 C 28.377 117.430,26.770 120.620,26.437 121.233 C 26.104 121.845,25.681 122.831,25.498 123.424 C 25.314 124.017,24.514 126.026,23.718 127.888 C 18.288 140.608,12.438 162.279,11.351 173.705 C 11.215 175.129,10.803 178.357,10.435 180.876 C 9.473 187.464,9.475 213.358,10.438 219.721 C 10.803 222.131,11.210 225.269,11.343 226.693 C 11.736 230.903,14.654 245.584,15.738 248.805 C 16.033 249.681,16.400 251.026,16.553 251.793 C 17.019 254.113,21.802 268.368,22.904 270.717 C 24.172 273.422,25.498 276.614,25.498 276.964 C 25.498 277.424,31.532 289.594,33.660 293.426 C 47.912 319.092,69.886 342.882,94.821 359.637 C 99.256 362.618,106.161 366.932,106.496 366.932 C 106.606 366.932,107.834 367.581,109.225 368.375 C 115.107 371.731,129.726 378.549,132.869 379.403 C 133.307 379.522,135.100 380.176,136.853 380.856 C 138.606 381.537,141.205 382.432,142.629 382.846 C 144.054 383.259,147.012 384.125,149.203 384.769 C 153.733 386.102,161.773 388.048,162.748 388.048 C 163.106 388.048,164.956 388.394,166.859 388.817 C 184.438 392.724,217.960 392.724,235.531 388.817 C 237.434 388.394,239.317 388.047,239.715 388.045 C 240.411 388.043,248.813 385.958,254.183 384.455 C 259.319 383.017,265.362 381.006,269.522 379.350 C 270.618 378.914,272.444 378.187,273.581 377.736 C 312.302 362.353,347.424 331.173,368.490 293.477 C 372.970 285.459,377.253 276.235,380.630 267.331 C 383.572 259.575,387.446 246.322,388.493 240.438 C 388.688 239.343,389.200 236.653,389.631 234.462 C 393.412 215.241,393.412 185.157,389.631 165.936 C 389.200 163.745,388.688 161.056,388.493 159.960 C 388.298 158.865,387.842 156.803,387.479 155.378 C 383.640 140.305,379.818 129.672,373.588 116.733 C 357.895 84.141,329.539 53.027,300.398 36.424 C 298.974 35.613,297.540 34.724,297.211 34.450 C 296.202 33.609,286.606 28.631,280.279 25.668 C 274.098 22.774,263.790 18.961,255.777 16.606 C 245.608 13.618,233.922 11.127,226.494 10.366 C 224.303 10.142,220.359 9.695,217.729 9.374 C 213.362 8.840,191.256 8.595,186.853 9.031 M221.713 19.416 C 230.747 24.031,229.773 40.184,220.284 43.133 C 213.583 45.215,205.784 42.693,203.185 37.603 C 200.991 33.306,202.107 24.639,205.302 21.164 C 208.498 17.687,216.633 16.821,221.713 19.416 M184.408 19.258 C 186.975 19.857,187.670 20.653,187.364 22.644 C 186.948 25.360,186.059 25.721,184.018 24.004 C 180.954 21.425,174.626 23.013,173.137 26.735 C 171.452 30.946,173.106 37.870,176.262 39.821 C 181.339 42.958,187.033 37.733,182.671 33.940 C 180.403 31.969,182.025 30.732,187.073 30.583 C 190.831 30.472,191.853 31.164,190.441 32.865 C 189.460 34.047,189.345 35.619,190.098 37.565 C 191.442 41.036,191.144 41.479,186.255 43.261 C 174.614 47.504,166.335 42.592,166.335 31.444 C 166.335 22.044,174.053 16.840,184.408 19.258 M243.440 22.523 C 243.995 22.807,245.161 23.160,246.030 23.307 C 246.899 23.454,248.641 23.918,249.902 24.337 C 251.163 24.757,252.418 25.099,252.691 25.098 C 254.194 25.092,259.755 27.243,259.967 27.911 C 260.762 30.414,258.606 33.112,257.207 31.365 C 253.842 27.163,251.322 28.342,249.567 34.940 C 246.907 44.942,246.945 44.745,247.391 46.273 C 248.241 49.179,247.207 49.760,243.261 48.594 C 238.166 47.088,237.633 46.509,239.622 44.639 C 240.741 43.589,242.649 37.873,244.416 30.279 C 245.237 26.753,243.383 25.247,239.545 26.322 C 237.371 26.930,236.846 26.520,237.223 24.510 C 237.772 21.587,240.134 20.832,243.440 22.523 M212.051 22.608 C 207.130 25.057,207.440 38.120,212.451 39.469 C 217.824 40.916,220.868 37.791,221.418 30.264 C 221.882 23.929,217.157 20.067,212.051 22.608 M141.883 32.937 C 143.015 34.314,145.963 35.857,147.462 35.857 C 151.191 35.857,151.581 36.594,149.391 39.502 C 147.821 41.587,147.274 42.941,146.818 45.878 C 146.493 47.968,145.694 48.045,143.372 46.210 C 142.267 45.336,141.244 44.602,141.100 44.579 C 134.903 43.565,134.379 43.102,136.572 40.577 C 138.176 38.732,138.606 37.808,139.095 35.161 C 139.676 32.021,140.555 31.319,141.883 32.937 M276.351 33.680 C 280.222 35.698,280.789 37.116,278.308 38.580 C 276.917 39.401,275.299 41.969,275.299 43.356 C 275.299 44.961,282.236 48.623,283.868 47.880 C 285.169 47.287,286.624 44.173,286.317 42.639 C 285.796 40.037,287.257 39.411,290.400 40.889 C 295.239 43.163,295.769 44.125,293.285 46.121 C 291.499 47.556,284.772 60.381,284.882 62.142 C 285.102 65.666,284.219 66.011,280.255 63.949 C 275.934 61.702,275.440 60.461,278.190 58.765 C 279.629 57.877,281.845 53.760,281.489 52.636 C 281.005 51.111,273.944 47.959,272.756 48.737 C 271.321 49.677,269.599 53.585,269.902 55.212 C 270.409 57.937,268.990 58.214,265.011 56.164 C 260.992 54.093,260.446 53.130,262.563 51.843 C 264.054 50.936,264.283 50.576,268.256 42.882 C 270.790 37.975,271.315 36.638,271.315 35.093 C 271.315 31.856,272.314 31.576,276.351 33.680 M113.614 42.492 C 115.722 44.400,114.402 46.611,111.333 46.315 C 106.825 45.878,102.688 50.098,105.179 52.590 C 106.226 53.636,108.179 53.614,110.842 52.525 C 123.776 47.235,129.328 61.371,116.800 67.695 C 111.699 70.270,108.655 70.281,107.967 67.727 C 107.450 65.805,108.019 64.307,109.094 64.762 C 114.658 67.117,121.830 61.301,117.412 58.016 L 116.299 57.188 112.831 58.135 C 103.921 60.567,101.262 59.760,99.536 54.097 C 97.956 48.913,109.863 39.097,113.614 42.492 M214.002 53.191 C 218.243 53.522,222.968 54.056,224.502 54.377 C 226.036 54.698,228.546 55.153,230.080 55.387 C 231.614 55.621,233.765 56.061,234.861 56.365 C 235.956 56.670,237.928 57.208,239.243 57.562 C 246.835 59.606,253.528 61.844,257.171 63.557 C 257.829 63.866,259.622 64.650,261.155 65.299 C 265.492 67.133,273.719 71.410,277.689 73.892 C 296.942 85.930,312.241 100.644,324.098 118.526 C 327.123 123.089,333.068 133.144,333.068 133.698 C 333.068 133.776,333.798 135.324,334.691 137.139 C 336.210 140.227,336.684 141.320,338.712 146.414 C 344.282 160.401,346.764 171.588,348.657 191.235 C 349.407 199.026,348.542 216.010,346.972 224.303 C 346.744 225.508,346.303 227.928,345.994 229.681 C 344.889 235.931,341.505 247.417,338.717 254.382 C 338.278 255.478,337.529 257.361,337.052 258.566 C 328.900 279.167,310.476 302.883,291.310 317.446 C 281.314 325.041,266.908 333.534,259.718 336.071 C 258.923 336.351,257.935 336.771,257.523 337.002 C 255.232 338.289,243.819 342.076,237.450 343.663 C 229.359 345.678,225.577 346.285,211.554 347.822 C 197.971 349.310,174.537 346.765,159.562 342.174 C 155.851 341.036,149.681 338.912,147.211 337.921 C 146.116 337.482,144.233 336.732,143.028 336.254 C 116.608 325.785,88.747 301.171,73.525 274.851 C 70.647 269.874,66.355 261.322,64.897 257.656 C 58.380 241.277,55.235 228.364,53.977 212.825 C 52.737 197.512,53.780 181.362,56.836 168.526 C 57.175 167.102,57.624 165.040,57.833 163.944 C 58.214 161.954,58.864 159.765,60.971 153.386 C 62.505 148.742,65.363 141.288,66.130 139.933 C 66.344 139.554,67.149 137.898,67.919 136.255 C 78.188 114.317,96.834 92.607,117.729 78.259 C 125.452 72.956,136.489 66.901,143.539 64.101 C 144.682 63.647,146.514 62.919,147.610 62.483 C 151.212 61.048,155.136 59.702,157.827 58.978 C 159.284 58.586,160.670 58.145,160.908 57.998 C 161.146 57.851,162.465 57.485,163.838 57.184 C 165.211 56.884,167.500 56.367,168.924 56.035 C 182.246 52.930,197.952 51.939,214.002 53.191 M313.347 56.515 C 323.911 61.537,325.524 71.111,317.139 79.021 C 311.398 84.437,304.599 83.616,298.623 76.784 C 290.347 67.324,302.087 51.163,313.347 56.515 M308.356 61.214 C 300.483 66.461,298.860 74.226,305.062 76.970 C 310.325 79.298,319.214 69.326,316.520 64.116 C 314.993 61.164,310.713 59.643,308.356 61.214 M82.693 63.896 C 83.219 65.993,95.712 73.203,101.096 74.518 C 103.596 75.128,103.404 76.176,100.234 79.220 C 97.034 82.292,96.387 82.360,95.056 79.764 C 93.532 76.789,91.438 77.162,87.677 81.078 C 84.632 84.250,84.624 85.882,87.649 87.375 C 89.453 88.266,89.173 89.691,86.781 91.783 C 83.810 94.383,82.470 94.206,82.470 91.216 C 82.470 90.584,82.209 89.478,81.889 88.759 C 81.569 88.039,80.751 86.106,80.070 84.462 C 79.390 82.819,78.587 80.936,78.286 80.279 C 77.986 79.622,77.204 77.881,76.548 76.412 C 75.561 74.198,75.113 73.638,73.934 73.145 C 71.817 72.261,72.022 71.161,74.801 68.493 C 80.815 62.720,82.196 61.915,82.693 63.896 M193.426 63.191 C 192.988 63.265,190.209 63.494,187.251 63.699 C 181.679 64.085,174.816 65.210,169.829 66.554 C 168.245 66.981,166.687 67.331,166.368 67.331 C 165.040 67.331,156.551 70.180,149.402 73.024 C 115.753 86.414,86.734 115.542,73.705 149.004 C 70.095 158.277,67.298 167.358,66.649 171.912 C 66.555 172.570,66.131 174.900,65.707 177.092 C 61.114 200.811,64.249 227.822,74.628 253.976 C 83.713 276.867,103.813 300.743,126.494 315.587 C 136.512 322.143,150.360 328.693,159.694 331.289 C 160.862 331.614,162.117 332.036,162.483 332.228 C 162.848 332.420,163.944 332.709,164.918 332.870 C 165.892 333.032,167.668 333.501,168.865 333.913 C 170.062 334.324,171.482 334.661,172.020 334.661 C 172.558 334.661,174.457 335.008,176.240 335.432 C 178.023 335.856,181.454 336.397,183.865 336.635 C 186.275 336.873,189.861 337.240,191.833 337.451 C 196.436 337.943,205.954 337.943,210.558 337.451 C 212.530 337.240,216.116 336.873,218.526 336.635 C 220.936 336.397,224.367 335.856,226.150 335.432 C 227.933 335.008,229.832 334.661,230.371 334.661 C 230.909 334.661,232.329 334.324,233.526 333.913 C 234.722 333.501,236.498 333.032,237.472 332.870 C 238.446 332.709,239.542 332.420,239.908 332.228 C 240.273 332.036,241.528 331.614,242.696 331.289 C 244.578 330.765,246.174 330.207,252.885 327.723 C 278.885 318.101,306.295 293.795,321.212 267.131 C 323.286 263.423,326.928 255.860,328.501 251.992 C 330.996 245.855,335.457 231.181,335.464 229.084 C 335.466 228.536,335.738 227.102,336.067 225.896 C 337.098 222.131,338.619 206.805,338.618 200.199 C 338.616 190.863,336.873 176.789,334.645 168.127 C 334.222 166.484,333.759 164.602,333.615 163.944 C 332.134 157.181,326.006 142.288,320.991 133.267 C 319.379 130.366,318.941 129.655,315.715 124.701 C 300.078 100.689,275.034 80.867,248.300 71.344 C 241.825 69.037,236.435 67.331,235.624 67.331 C 235.305 67.331,233.747 66.981,232.163 66.554 C 222.700 64.003,200.191 62.049,193.426 63.191 M79.522 71.249 C 78.932 72.205,82.559 79.283,83.639 79.283 C 84.616 79.283,87.649 76.568,87.649 75.693 C 87.649 74.163,80.229 70.105,79.522 71.249 M210.678 74.330 C 222.278 76.052,222.021 84.452,210.338 85.453 C 201.217 86.234,198.988 95.484,204.469 109.806 C 205.707 113.042,208.810 113.299,223.108 111.350 C 225.408 111.037,230.966 110.587,235.458 110.352 C 248.135 109.687,247.948 109.783,246.796 104.503 C 246.046 101.062,245.163 99.778,243.277 99.381 C 234.355 97.503,232.658 87.494,240.837 84.994 C 250.419 82.065,259.782 87.051,257.763 94.008 C 256.774 97.417,256.819 99.144,258.003 103.309 C 259.399 108.220,259.636 108.404,265.077 108.807 C 276.373 109.645,280.093 112.169,278.958 118.223 C 278.721 119.485,278.418 121.594,278.285 122.908 C 277.972 125.991,274.755 139.503,273.726 142.052 C 271.746 146.957,272.316 148.804,276.355 150.572 C 282.844 153.413,285.657 155.847,285.657 158.622 C 285.657 161.677,284.053 162.592,281.243 161.139 C 279.790 160.387,273.596 158.566,272.494 158.566 C 270.718 158.566,270.542 161.887,272.037 167.192 C 274.936 177.478,274.641 182.015,270.264 194.422 C 267.782 201.458,267.999 202.490,273.032 207.612 C 281.463 216.190,283.086 225.568,278.335 238.247 C 276.246 243.822,275.498 245.504,271.485 253.658 C 269.200 258.300,267.331 262.229,267.331 262.391 C 267.331 263.642,264.702 268.069,263.427 268.966 C 256.345 273.948,242.649 273.895,245.234 268.895 C 246.206 267.016,251.781 263.365,253.701 263.351 C 256.088 263.332,258.384 260.889,258.760 257.968 C 258.902 256.873,259.361 254.183,259.782 251.992 C 263.158 234.419,262.805 217.427,258.787 204.174 C 257.131 198.710,257.109 198.257,258.199 191.943 C 260.090 180.987,258.640 168.122,255.118 164.600 C 253.198 162.680,250.091 162.871,247.920 165.042 L 246.494 166.468 245.978 171.979 C 244.811 184.432,243.821 189.199,240.945 196.215 C 239.733 199.170,239.268 200.913,239.142 202.962 L 238.973 205.724 242.107 208.739 C 248.446 214.835,249.543 217.476,249.564 226.693 C 249.583 235.005,248.204 240.005,243.273 249.498 C 242.105 251.746,240.567 254.930,239.855 256.574 C 237.671 261.612,234.847 263.751,228.046 265.518 C 212.602 269.532,211.465 261.591,226.656 255.809 C 230.815 254.226,231.659 253.435,232.224 250.598 C 232.421 249.612,232.909 247.639,233.310 246.215 C 235.579 238.151,233.171 216.388,229.497 211.753 C 228.808 210.884,227.091 205.155,227.089 203.718 C 227.087 202.301,227.473 199.413,229.474 185.857 C 229.894 183.008,230.357 179.333,230.501 177.689 C 230.646 176.046,231.009 173.287,231.309 171.559 C 232.410 165.213,232.498 160.386,231.529 159.418 C 229.881 157.769,223.544 158.851,222.947 160.883 C 222.347 162.927,221.887 167.207,221.504 174.303 C 220.854 186.336,218.839 192.911,215.104 195.183 C 204.044 201.908,193.586 184.521,193.557 159.363 C 193.546 149.324,195.570 137.901,198.132 133.548 C 199.186 131.757,199.102 130.433,197.849 129.126 C 196.549 127.769,196.029 125.154,196.574 122.709 C 197.168 120.046,196.992 117.114,196.105 114.908 C 194.803 111.668,193.340 107.542,192.419 104.505 C 191.227 100.580,191.171 100.548,185.060 100.237 C 168.875 99.414,161.985 95.978,157.028 86.255 C 155.143 82.557,155.031 81.163,156.501 79.693 C 158.648 77.546,160.057 78.098,163.527 82.447 C 168.279 88.402,172.871 90.664,180.080 90.600 C 188.581 90.524,193.264 88.193,193.811 83.763 C 194.983 74.272,198.195 72.476,210.678 74.330 M341.015 82.973 C 345.242 88.193,347.012 91.307,347.012 93.523 C 347.012 96.497,344.132 99.203,340.966 99.203 C 339.211 99.203,338.977 99.512,338.594 102.330 C 338.247 104.893,336.976 106.432,334.394 107.418 C 330.987 108.719,327.871 106.719,321.951 99.430 C 317.106 93.466,316.619 91.661,319.847 91.640 C 321.909 91.626,333.558 82.416,334.280 80.228 C 335.329 77.048,336.655 77.589,341.015 82.973 M63.209 85.080 C 64.984 86.433,64.889 87.130,62.809 88.022 C 60.981 88.806,59.363 90.492,59.363 91.613 C 59.363 93.233,71.239 101.992,73.436 101.992 C 76.572 101.992,76.711 104.161,73.807 107.769 C 71.311 110.869,69.371 111.026,68.866 108.167 C 68.662 107.014,56.687 98.062,55.306 98.032 C 53.830 97.999,52.453 100.013,52.193 102.585 C 51.943 105.062,51.219 105.302,49.242 103.566 C 47.426 101.972,47.438 101.095,49.312 98.606 C 50.136 97.510,52.496 94.283,54.556 91.434 C 60.396 83.357,60.678 83.150,63.209 85.080 M336.853 87.195 C 333.875 89.035,333.631 90.532,335.942 92.791 C 340.056 96.813,344.445 92.070,340.490 87.876 C 338.958 86.252,338.514 86.169,336.853 87.195 M328.446 93.975 C 324.498 96.889,324.335 97.624,327.007 100.489 C 331.434 105.237,336.533 99.802,332.630 94.495 C 331.182 92.525,330.523 92.443,328.446 93.975 M358.249 107.271 C 359.001 107.862,361.753 113.140,361.753 113.990 C 361.753 115.043,360.838 115.538,358.888 115.538 C 356.652 115.538,347.380 120.030,345.368 122.087 C 342.414 125.109,345.831 131.316,350.000 130.502 C 352.557 130.003,361.800 124.995,363.061 123.425 C 364.948 121.077,365.831 121.328,367.525 124.691 C 369.599 128.809,369.334 129.880,366.243 129.880 C 364.914 129.880,363.353 130.468,359.450 132.436 C 351.734 136.327,350.747 136.606,347.999 135.672 C 341.921 133.606,337.455 124.024,340.157 118.848 C 341.289 116.679,342.549 115.763,348.805 112.559 C 351.653 111.101,354.289 109.516,354.661 109.037 C 356.561 106.594,357.070 106.343,358.249 107.271 M43.604 115.302 C 45.943 117.846,56.224 123.115,59.520 123.460 C 62.846 123.807,63.069 124.344,61.361 127.875 C 59.119 132.509,57.829 133.153,56.168 130.467 C 54.956 128.505,43.811 122.769,40.438 122.370 C 36.521 121.907,36.359 121.547,38.313 117.658 C 40.631 113.045,41.268 112.762,43.604 115.302 M248.657 120.338 C 243.650 121.580,242.799 123.080,242.884 130.504 C 242.976 138.544,244.698 143.173,247.974 144.186 C 252.640 145.629,258.402 144.921,260.588 142.637 C 263.133 139.978,265.660 124.909,264.062 121.925 C 262.844 119.653,254.772 118.821,248.657 120.338 M219.677 121.515 C 213.123 122.423,212.381 122.970,210.493 128.287 C 209.444 131.243,209.286 130.929,212.979 133.230 C 215.272 134.659,216.736 136.909,218.138 141.158 C 219.941 146.622,221.081 147.470,226.656 147.494 C 233.187 147.522,234.904 144.834,233.281 137.121 C 232.961 135.596,232.503 133.119,232.264 131.617 C 230.733 121.979,228.611 120.277,219.677 121.515 M151.913 124.323 C 154.547 124.773,157.011 125.305,157.387 125.507 C 157.764 125.709,158.892 126.152,159.893 126.492 C 170.848 130.211,181.581 141.891,186.171 155.088 L 187.450 158.765 187.425 167.729 C 187.388 180.799,184.745 189.799,178.043 199.667 C 157.326 230.174,107.645 222.553,94.508 186.853 C 90.354 175.564,90.604 159.659,95.095 149.460 C 103.122 131.230,127.969 120.238,151.913 124.323 M132.271 130.500 C 126.159 132.195,124.486 136.866,129.274 138.867 C 132.426 140.184,145.100 139.291,146.511 137.653 C 151.005 132.436,141.858 127.842,132.271 130.500 M33.276 137.282 C 35.572 138.371,35.510 139.420,33.047 141.167 C 29.063 143.994,28.740 149.801,32.568 149.801 C 34.171 149.801,35.050 148.930,37.388 145.020 C 44.059 133.863,56.219 141.592,51.054 153.707 C 48.342 160.068,46.444 161.508,43.658 159.317 C 42.250 158.209,42.346 157.148,43.924 156.379 C 47.991 154.400,50.043 149.589,47.825 147.229 C 45.649 144.913,44.130 145.540,41.262 149.942 C 36.379 157.433,30.565 158.534,27.325 152.581 C 24.999 148.308,28.039 137.539,31.812 136.685 C 31.889 136.668,32.547 136.936,33.276 137.282 M158.475 137.749 C 156.709 139.617,156.854 142.055,158.865 144.283 C 164.246 150.246,169.880 152.057,172.539 148.678 C 176.222 143.995,162.589 133.400,158.475 137.749 M110.494 140.174 C 104.403 145.003,102.394 149.954,105.221 153.173 C 107.863 156.183,111.815 154.149,117.231 146.990 C 121.246 141.684,115.686 136.058,110.494 140.174 M374.867 143.866 C 375.281 144.546,375.740 145.905,375.887 146.887 C 376.034 147.869,376.422 149.419,376.750 150.332 C 380.711 161.377,376.306 169.008,368.320 164.937 C 366.224 163.868,365.948 163.919,364.985 165.551 C 364.529 166.325,363.270 167.508,362.189 168.180 C 361.048 168.890,360.020 169.893,359.738 170.573 C 358.536 173.475,356.682 172.745,355.617 168.951 C 354.749 165.858,355.125 164.972,358.019 163.287 C 363.128 160.312,364.304 158.104,362.360 155.137 C 361.351 153.598,357.557 154.082,355.777 155.975 C 353.687 158.201,352.117 156.901,351.361 152.320 C 350.709 148.373,350.871 148.084,353.545 148.418 C 355.700 148.688,359.598 148.044,363.147 146.833 C 364.024 146.534,365.752 146.085,366.988 145.835 C 368.363 145.557,369.987 144.846,371.170 144.005 C 373.544 142.317,373.917 142.303,374.867 143.866 M204.853 145.319 C 200.862 150.934,202.855 179.199,207.541 183.440 C 210.488 186.107,211.950 181.825,212.236 169.687 C 212.655 151.910,208.923 139.593,204.853 145.319 M136.778 145.831 C 132.724 147.090,133.111 150.543,138.049 157.168 C 142.000 162.469,143.258 162.974,147.928 161.129 C 154.099 158.692,157.144 155.734,156.157 153.138 C 154.372 148.444,142.625 144.015,136.778 145.831 M369.658 151.384 C 366.219 152.423,365.662 153.449,366.771 156.703 C 368.696 162.352,374.735 161.065,374.433 155.071 C 374.236 151.177,373.142 150.332,369.658 151.384 M122.830 152.548 C 118.714 155.529,116.296 160.481,116.196 166.135 C 116.062 173.632,118.543 174.433,127.751 169.863 C 133.187 167.166,134.149 164.490,131.595 159.163 C 128.190 152.057,125.897 150.326,122.830 152.548 M174.701 159.125 C 170.883 160.810,170.341 173.221,173.962 176.069 C 177.613 178.942,181.673 175.614,181.673 169.750 C 181.673 161.285,179.008 157.223,174.701 159.125 M102.102 163.209 C 96.485 165.198,96.618 179.260,102.263 180.319 C 107.579 181.316,109.827 176.481,108.220 167.511 C 107.612 164.120,107.442 163.817,105.741 163.107 C 104.169 162.450,104.251 162.448,102.102 163.209 M158.367 163.635 C 155.720 164.285,147.864 168.647,146.726 170.098 C 144.091 173.458,151.556 185.126,156.262 185.002 C 160.257 184.897,164.593 177.579,164.653 170.837 C 164.704 165.071,162.553 162.606,158.367 163.635 M45.697 169.821 C 46.228 170.524,45.373 175.911,44.587 176.818 C 44.152 177.319,42.927 177.692,40.672 178.011 C 36.027 178.668,34.263 180.104,34.263 183.231 C 34.263 185.483,36.946 186.269,41.890 185.466 C 44.212 185.088,44.380 185.465,43.828 189.814 C 43.266 194.249,42.626 194.809,40.090 193.088 C 39.040 192.375,37.919 192.089,35.391 191.886 C 33.566 191.740,30.121 191.326,27.738 190.966 C 23.650 190.349,23.331 190.352,22.113 191.007 C 18.904 192.735,18.303 191.377,19.125 184.263 C 20.190 175.048,21.321 172.039,24.287 170.526 C 27.193 169.043,30.229 169.871,32.590 172.789 L 33.815 174.303 35.732 173.253 C 36.787 172.676,38.659 171.916,39.893 171.563 C 41.127 171.210,42.561 170.568,43.080 170.135 C 44.170 169.227,45.159 169.108,45.697 169.821 M132.243 175.426 C 127.423 177.313,123.108 180.796,123.108 182.800 C 123.108 185.424,129.814 189.879,135.564 191.074 C 143.405 192.703,145.588 189.537,142.174 181.486 C 139.463 175.091,136.977 173.574,132.243 175.426 M24.427 176.992 C 21.119 180.649,22.350 184.325,27.027 184.749 C 30.265 185.042,31.076 184.261,31.076 180.846 C 31.076 176.701,26.887 174.273,24.427 176.992 M377.097 180.760 C 381.892 183.258,384.055 188.025,383.535 194.948 C 383.058 201.292,382.038 202.707,378.760 201.571 C 376.641 200.837,376.444 199.903,378.057 198.239 C 381.855 194.320,379.685 187.572,374.265 186.446 C 372.263 186.031,369.905 186.116,366.788 186.716 C 363.840 187.284,361.403 191.173,361.954 194.432 C 362.472 197.497,365.760 198.483,368.073 196.267 C 370.294 194.140,371.081 195.019,371.518 200.116 C 371.862 204.123,370.841 205.520,368.872 203.738 C 367.801 202.768,364.923 202.571,363.393 203.363 C 358.465 205.911,355.984 190.385,360.361 184.388 C 363.558 180.009,372.099 178.157,377.097 180.760 M166.733 187.184 C 163.212 189.463,159.363 194.636,159.363 197.088 C 159.363 199.196,161.722 201.992,163.500 201.992 C 167.397 201.992,175.730 192.640,174.552 189.588 C 173.488 186.832,169.277 185.537,166.733 187.184 M109.327 188.004 C 104.246 191.103,105.646 195.511,113.490 201.112 C 119.427 205.351,125.065 200.690,121.138 194.789 C 117.311 189.038,112.327 186.175,109.327 188.004 M137.527 200.238 C 133.433 200.925,132.878 201.217,131.854 203.223 C 129.932 206.991,133.893 209.123,142.874 209.155 C 149.020 209.176,151.236 207.983,150.882 204.840 C 150.367 200.272,146.097 198.800,137.527 200.238 M42.962 205.299 C 43.480 205.923,45.114 219.693,44.942 221.994 C 44.784 224.116,44.008 224.622,41.952 223.944 C 39.199 223.035,25.710 224.063,23.883 225.321 C 21.120 227.222,20.466 226.581,19.728 221.244 C 18.302 210.942,18.492 208.505,20.758 208.019 C 23.547 207.421,24.430 208.418,23.065 210.627 C 21.081 213.836,22.686 218.327,25.817 218.327 C 29.433 218.327,30.669 215.442,28.703 211.589 C 27.704 209.631,28.204 208.858,30.677 208.537 C 33.327 208.193,34.177 208.939,33.544 211.054 C 32.213 215.494,33.104 217.131,36.853 217.131 C 40.064 217.131,40.644 216.622,40.620 213.816 C 40.594 210.742,40.043 208.434,39.093 207.423 C 38.147 206.416,37.991 205.349,38.745 205.045 C 39.768 204.632,42.547 204.799,42.962 205.299 M102.064 211.700 C 105.768 212.572,108.169 215.110,109.555 219.618 C 111.356 225.473,110.964 229.200,107.157 242.430 C 103.609 254.759,107.315 268.228,115.323 272.104 C 119.945 274.341,123.115 269.201,120.191 264.210 C 112.600 251.256,117.813 236.894,130.923 234.641 C 135.535 233.849,138.081 234.753,137.128 236.844 C 136.828 237.503,136.147 237.949,134.978 238.253 C 126.936 240.342,123.506 243.980,123.506 250.419 C 123.506 257.734,129.330 260.786,131.034 254.363 C 132.543 248.671,139.442 249.734,139.442 255.659 C 139.442 258.275,138.661 259.667,136.133 261.554 C 131.949 264.678,128.463 280.713,131.261 283.966 C 134.948 288.252,140.568 280.603,140.624 271.223 C 140.652 266.494,142.565 264.317,145.831 265.296 C 148.517 266.101,149.260 269.848,147.429 273.361 C 146.939 274.300,146.394 275.882,146.216 276.877 C 146.038 277.871,145.610 279.940,145.264 281.474 C 143.739 288.238,144.862 291.633,148.622 291.633 C 150.732 291.633,153.101 289.484,153.689 287.037 C 156.372 275.875,156.669 273.745,155.942 270.904 C 154.912 266.886,156.010 264.256,159.169 263.170 C 163.334 261.738,165.516 265.024,164.094 270.585 C 163.784 271.796,163.549 274.765,163.548 277.490 C 163.547 280.120,163.398 284.064,163.218 286.255 C 162.759 291.830,164.247 294.084,168.427 294.142 C 173.458 294.212,173.791 293.375,173.528 281.328 C 173.268 269.411,173.583 268.526,178.084 268.526 C 181.611 268.526,182.662 271.298,181.091 276.458 L 180.314 279.011 181.374 285.173 C 182.876 293.904,184.832 297.108,188.152 296.274 C 192.006 295.307,192.432 291.441,189.856 280.809 C 189.017 277.347,188.448 274.150,188.579 273.630 C 189.291 270.792,192.913 269.908,195.204 272.012 C 196.434 273.142,196.490 273.312,197.977 280.478 C 200.823 294.186,203.675 298.809,207.313 295.615 C 210.132 293.139,209.349 289.469,203.885 279.551 C 202.028 276.181,204.267 272.913,208.436 272.910 C 211.774 272.907,213.951 275.621,213.937 279.768 C 213.926 283.277,217.415 293.562,219.054 294.851 C 219.736 295.388,220.659 295.618,222.136 295.618 C 226.598 295.618,226.811 292.173,222.813 284.661 C 222.463 284.004,221.848 282.846,221.447 282.087 C 219.747 278.875,220.937 276.107,224.145 275.809 C 227.772 275.472,229.529 277.009,230.056 280.980 C 231.411 291.195,235.781 296.781,239.783 293.413 C 242.046 291.509,242.199 288.466,240.234 284.462 C 237.423 278.738,238.941 276.012,244.006 277.683 C 245.556 278.195,246.854 279.755,248.710 283.335 C 251.204 288.148,252.443 289.203,254.953 288.651 C 257.239 288.149,257.825 286.224,256.945 282.117 C 255.827 276.904,259.900 275.919,264.542 280.279 L 267.299 282.869 270.301 282.869 C 283.976 282.869,300.840 264.556,305.629 244.506 C 306.825 239.496,306.676 238.000,304.748 235.667 C 301.982 232.319,301.198 229.983,301.939 227.299 C 303.880 220.269,312.599 220.501,315.992 227.672 C 319.375 234.822,315.355 253.432,306.866 269.920 C 297.244 288.608,275.627 307.074,254.159 314.943 C 233.819 322.398,197.612 324.415,172.908 319.468 C 165.650 318.014,163.274 317.505,160.956 316.906 C 128.227 308.451,103.761 289.955,96.697 268.327 C 93.386 258.190,93.429 249.965,96.844 240.347 C 98.117 236.762,99.257 233.195,100.253 229.681 C 100.564 228.586,100.769 226.882,100.708 225.896 L 100.598 224.104 96.869 224.104 L 93.140 224.104 91.819 222.577 C 86.844 216.831,93.562 209.699,102.064 211.700 M361.554 216.345 C 362.265 216.959,364.966 217.562,372.311 218.745 C 375.303 219.226,379.115 219.183,380.277 218.653 C 381.164 218.249,381.425 218.300,382.139 219.014 L 382.969 219.844 382.147 224.364 C 381.695 226.850,381.206 230.139,381.060 231.673 C 380.672 235.751,380.085 236.637,377.763 236.647 C 374.867 236.661,374.206 235.476,376.098 233.663 C 378.140 231.707,378.888 226.751,377.273 225.887 C 376.123 225.272,372.257 225.196,371.674 225.777 C 370.942 226.507,370.571 229.811,371.047 231.361 C 371.536 232.953,371.076 233.454,369.124 233.455 C 366.063 233.456,365.346 232.607,366.500 230.346 C 367.694 228.005,367.949 225.419,367.064 224.635 C 366.059 223.745,361.775 223.294,360.856 223.981 C 359.624 224.901,359.095 232.211,360.211 232.900 C 361.116 233.460,360.560 235.060,359.462 235.058 C 355.622 235.050,354.840 233.993,355.780 230.080 C 355.991 229.203,356.432 226.366,356.760 223.774 C 357.837 215.269,358.721 213.898,361.554 216.345 M399.441 224.004 C 399.333 224.716,399.145 226.375,399.024 227.689 C 398.753 230.610,397.422 238.115,396.409 242.430 C 395.997 244.183,395.545 246.245,395.403 247.012 C 394.477 252.035,389.348 268.050,386.473 274.900 C 385.783 276.544,384.862 278.814,384.427 279.944 C 373.217 309.047,344.442 344.043,314.840 364.575 C 305.771 370.866,291.304 379.015,282.231 382.944 C 275.813 385.723,267.650 388.933,265.737 389.429 C 265.189 389.571,264.114 389.928,263.347 390.222 C 259.177 391.821,242.863 396.043,238.645 396.616 C 235.597 397.029,232.488 397.720,232.092 398.071 C 231.883 398.255,269.578 398.406,315.857 398.406 L 400.000 398.406 400.000 310.558 C 400.000 262.241,399.918 222.709,399.819 222.709 C 399.719 222.709,399.549 223.292,399.441 224.004 M25.840 239.289 C 26.505 239.754,28.593 240.074,33.399 240.447 C 48.879 241.647,49.868 241.943,50.406 245.528 C 50.796 248.128,50.555 248.507,46.560 251.594 C 37.680 258.453,32.839 262.506,32.470 263.388 C 31.571 265.541,29.875 264.693,28.803 261.554 C 27.276 257.082,27.579 255.378,29.903 255.378 C 31.713 255.378,32.861 254.767,37.164 251.513 C 42.651 247.363,43.867 245.817,41.642 245.817 C 41.098 245.817,37.962 245.620,34.673 245.380 L 28.691 244.944 27.463 245.978 C 25.396 247.717,24.860 247.397,23.543 243.639 C 22.037 239.347,23.087 237.360,25.840 239.289 M355.851 245.951 C 356.672 246.777,358.303 247.698,360.159 248.384 C 363.017 249.439,364.124 249.871,368.817 251.764 C 370.150 252.302,371.641 252.579,372.958 252.532 C 376.207 252.417,376.572 253.500,374.655 257.570 C 373.775 259.438,372.485 260.169,367.917 261.384 C 366.170 261.848,363.523 262.554,362.035 262.952 C 358.876 263.797,357.272 264.732,357.446 265.628 C 357.657 266.714,363.552 268.872,366.385 268.900 C 369.637 268.932,369.967 269.352,369.097 272.343 C 367.985 276.166,365.879 277.398,364.585 274.981 C 364.177 274.218,361.229 272.795,356.574 271.114 C 354.930 270.520,352.779 269.712,351.793 269.317 C 350.807 268.923,349.151 268.301,348.114 267.935 C 347.077 267.569,345.822 266.937,345.325 266.530 L 344.422 265.789 345.368 263.982 C 345.891 262.982,346.693 262.067,347.161 261.936 C 347.627 261.805,349.442 261.282,351.195 260.773 C 352.948 260.264,355.817 259.446,357.570 258.955 C 359.323 258.465,361.325 257.898,362.020 257.697 C 363.646 257.224,364.427 256.315,363.910 255.496 C 363.095 254.203,355.171 251.689,353.003 252.036 C 350.754 252.395,350.311 251.580,351.189 248.700 C 352.538 244.280,353.582 243.665,355.851 245.951 M58.010 266.839 C 58.741 267.324,61.355 272.564,61.355 273.543 C 61.355 274.744,60.736 275.086,58.554 275.094 C 56.161 275.102,44.124 280.973,42.344 283.000 C 40.205 285.436,39.497 285.331,37.987 282.349 C 35.357 277.160,35.499 276.112,38.824 276.152 C 40.406 276.171,41.479 275.906,42.897 275.149 C 43.955 274.583,46.703 273.203,49.004 272.081 C 51.463 270.882,53.960 269.318,55.063 268.287 C 57.001 266.475,57.266 266.345,58.010 266.839 M343.009 278.725 C 344.605 280.543,344.114 281.559,341.293 282.275 C 337.658 283.198,335.192 287.125,336.508 289.898 C 337.730 292.473,339.773 292.217,343.227 289.056 C 348.206 284.499,350.486 283.670,353.894 285.178 C 359.125 287.492,359.278 294.016,354.243 300.085 C 350.758 304.287,349.154 304.817,347.333 302.371 C 346.290 300.970,346.743 300.153,348.974 299.412 C 352.879 298.115,355.123 293.768,352.988 291.633 C 351.414 290.059,350.056 290.604,346.014 294.428 C 342.015 298.212,339.845 298.945,336.677 297.582 C 330.467 294.910,330.310 287.832,336.311 281.120 C 339.954 277.046,341.157 276.616,343.009 278.725 M69.493 287.080 C 71.143 288.730,70.865 290.552,67.305 301.423 C 66.054 305.245,65.837 307.968,66.786 307.968 C 68.307 307.968,75.697 302.079,75.697 300.867 C 75.697 298.800,77.986 298.667,79.612 300.640 C 82.553 304.207,82.639 305.976,79.872 305.976 C 77.746 305.976,65.801 314.969,64.633 317.448 C 63.462 319.935,62.126 319.559,59.715 316.064 C 58.387 314.140,58.353 313.817,59.178 311.031 C 59.514 309.894,60.133 307.799,60.553 306.375 C 60.974 304.950,61.684 302.607,62.133 301.167 C 63.745 295.991,63.018 295.498,58.635 298.800 C 55.168 301.413,54.763 301.825,53.832 303.690 C 52.826 305.703,51.736 305.419,49.612 302.590 C 47.076 299.212,47.250 298.448,50.701 297.800 C 51.734 297.607,54.434 295.845,59.606 291.988 C 67.097 286.403,68.246 285.833,69.493 287.080 M323.426 302.869 C 323.689 303.131,323.904 303.656,323.904 304.033 C 323.904 305.066,325.527 306.804,330.990 311.623 C 335.912 315.964,336.642 316.462,338.745 316.912 C 340.434 317.274,340.180 318.711,337.989 321.202 C 334.705 324.934,333.569 325.138,332.317 322.220 C 331.824 321.070,330.350 319.383,327.777 317.022 C 321.830 311.565,320.249 310.363,318.392 309.890 C 315.562 309.169,315.694 308.162,319.101 304.482 C 321.070 302.356,322.412 301.855,323.426 302.869 M95.968 317.605 C 100.126 319.614,103.984 324.822,103.984 328.425 C 103.984 331.194,103.345 332.326,98.459 338.216 C 95.251 342.084,94.024 343.858,94.024 344.628 C 94.024 347.653,91.974 347.409,88.084 343.924 C 85.498 341.606,85.425 340.242,87.844 339.444 C 90.370 338.610,98.406 328.742,98.406 326.473 C 98.406 324.730,96.041 322.057,94.015 321.512 C 91.511 320.837,90.317 321.619,85.850 326.856 C 81.903 331.484,81.140 332.653,80.695 334.761 C 80.347 336.404,79.003 336.167,76.470 334.015 C 73.193 331.231,72.910 329.502,75.642 328.955 C 76.540 328.776,77.648 327.764,79.959 325.017 C 87.582 315.951,90.117 314.777,95.968 317.605 M308.982 319.703 C 309.653 320.374,309.960 321.125,309.960 322.093 L 309.960 323.506 307.249 323.506 C 301.621 323.506,297.347 328.448,300.697 331.083 C 302.058 332.153,303.243 332.003,307.221 330.257 C 320.155 324.580,325.085 338.151,312.620 345.118 C 308.502 347.419,307.401 347.390,306.137 344.946 C 305.195 343.124,305.937 342.231,308.393 342.231 C 313.268 342.231,316.784 338.256,314.273 335.583 C 312.967 334.193,312.391 334.310,306.375 337.178 C 299.025 340.682,292.151 334.278,295.736 327.269 C 298.386 322.089,306.649 317.369,308.982 319.703 M128.006 344.353 C 128.117 344.643,128.337 346.078,128.493 347.540 C 128.727 349.721,129.053 350.592,130.306 352.381 C 132.198 355.082,131.832 355.777,128.519 355.777 C 126.740 355.777,126.036 356.024,123.921 357.391 C 120.626 359.521,120.199 359.400,119.807 356.223 C 119.475 353.536,118.801 351.898,117.275 350.069 C 115.436 347.866,116.325 347.014,120.468 347.011 C 121.719 347.010,122.682 346.629,124.502 345.418 C 127.065 343.712,127.687 343.523,128.006 344.353 M277.498 345.876 C 278.755 346.771,279.739 347.079,282.075 347.312 C 285.755 347.680,285.928 348.101,283.745 351.370 C 282.467 353.284,282.117 354.224,281.888 356.372 C 281.555 359.473,281.032 359.879,279.179 358.470 C 277.008 356.820,275.426 356.176,272.883 355.911 C 269.813 355.590,269.704 355.251,271.690 352.179 C 273.133 349.946,273.307 349.415,273.307 347.229 C 273.307 343.450,273.843 343.277,277.498 345.876 M161.833 354.298 C 162.257 354.966,162.247 355.046,161.396 357.860 C 160.980 359.234,160.281 361.614,159.843 363.147 C 159.405 364.681,158.577 367.550,158.004 369.522 C 156.721 373.939,156.717 374.536,157.968 376.023 C 160.123 378.584,158.830 379.305,154.484 377.967 C 152.675 377.410,150.548 376.847,149.756 376.716 C 146.950 376.253,146.158 373.936,148.637 373.440 C 150.083 373.151,151.079 371.743,151.790 368.986 C 152.053 367.966,152.723 365.642,153.280 363.823 C 154.384 360.211,154.181 358.566,152.631 358.566 C 149.446 358.566,149.839 356.037,153.187 354.979 C 154.064 354.702,155.319 354.186,155.976 353.833 C 158.302 352.582,160.872 352.786,161.833 354.298 M247.377 353.486 C 247.568 353.979,248.214 356.265,248.812 358.566 C 249.410 360.867,250.221 363.825,250.614 365.139 C 251.007 366.454,251.446 368.247,251.589 369.124 C 251.913 371.100,253.344 373.300,254.309 373.304 C 256.170 373.311,257.167 374.709,256.001 375.677 C 255.380 376.192,248.518 378.072,246.150 378.376 C 243.918 378.662,243.343 377.328,245.044 375.812 C 246.512 374.505,246.500 373.700,244.928 367.729 C 243.135 360.920,242.692 360.346,240.017 361.363 C 237.568 362.294,237.214 360.437,239.389 358.059 C 240.236 357.132,241.221 355.803,241.578 355.104 C 242.871 352.570,246.616 351.525,247.377 353.486 M191.808 359.178 C 196.430 361.541,196.936 364.748,193.231 368.188 C 190.933 370.322,190.794 370.965,192.377 372.135 C 198.513 376.672,194.559 383.740,185.857 383.791 C 174.557 383.857,169.044 375.964,176.854 370.902 C 179.296 369.320,179.293 369.353,177.275 366.959 C 174.504 363.673,174.738 361.013,177.979 358.933 C 180.760 357.148,188.094 357.279,191.808 359.178 M222.550 358.801 C 229.771 362.620,230.686 375.305,224.129 380.678 C 220.305 383.811,211.695 384.976,211.035 382.450 C 210.726 381.270,211.788 380.478,213.674 380.480 C 217.204 380.484,221.157 378.254,221.741 375.928 C 222.142 374.330,221.445 373.824,219.709 374.452 C 211.448 377.439,204.277 371.383,206.986 363.707 C 208.799 358.568,217.139 355.940,222.550 358.801 M182.294 361.842 C 180.891 363.844,182.856 367.729,185.272 367.729 C 188.655 367.729,190.829 363.308,188.312 361.544 C 186.915 360.566,183.053 360.757,182.294 361.842 M214.908 361.342 C 211.386 362.767,210.835 368.673,214.003 371.025 C 216.132 372.605,220.640 371.422,221.543 369.047 C 223.403 364.154,219.413 359.520,214.908 361.342 M182.169 372.737 C 178.093 375.180,178.655 379.236,183.241 380.471 C 188.954 382.010,191.383 375.679,186.287 372.530 C 184.599 371.486,184.224 371.505,182.169 372.737 " stroke="none" fill="#fafafb" fill-rule="evenodd"></path></g></svg>