<svg id="svg" version="1.1" xmlns="http://www.w3.org/2000/svg" xmlns:xlink="http://www.w3.org/1999/xlink" width="400" height="400" viewBox="0, 0, 400,400"><g id="svgg"><path id="path0" d="M0.900 109.482 L 0.000 109.656 0.000 146.195 L 0.000 182.734 2.020 183.167 C 3.274 183.436,9.963 183.600,19.672 183.600 C 37.689 183.600,38.000 183.546,38.000 180.413 C 38.000 177.662,37.707 177.602,24.314 177.587 C 11.649 177.574,11.843 177.606,10.661 175.320 C 10.062 174.160,10.000 171.011,10.000 141.863 C 10.000 112.890,9.937 109.661,9.367 109.443 C 8.672 109.176,2.336 109.206,0.900 109.482 M277.800 109.539 C 276.244 110.076,274.005 111.684,274.253 112.085 C 274.391 112.309,274.475 115.642,274.439 119.491 C 274.351 128.961,273.899 129.770,268.766 129.641 C 264.885 129.543,262.800 130.442,262.800 132.215 C 262.800 134.618,263.780 135.097,269.091 135.287 C 271.888 135.387,272.519 135.542,273.291 136.313 L 274.200 137.221 274.436 155.311 C 274.720 177.089,275.228 179.800,279.519 182.409 C 284.572 185.482,296.124 185.803,298.382 182.932 C 300.954 179.663,299.032 177.843,292.891 177.729 C 287.326 177.627,286.961 177.430,284.860 173.400 L 283.400 170.600 283.400 153.714 C 283.400 133.242,282.454 135.474,291.250 135.200 C 298.237 134.982,299.200 134.621,299.200 132.218 C 299.200 130.226,297.996 129.810,291.859 129.681 C 282.926 129.494,283.482 130.218,283.208 118.400 L 283.000 109.400 280.800 109.331 C 279.590 109.293,278.240 109.387,277.800 109.539 M233.800 128.172 C 233.580 128.261,231.517 128.916,229.216 129.627 C 225.107 130.898,224.975 130.976,221.816 134.063 C 219.114 136.704,218.413 137.190,217.427 137.103 L 216.255 137.000 216.357 134.257 C 216.518 129.889,213.585 128.258,209.008 130.171 L 207.641 130.742 207.612 156.335 L 207.583 181.928 208.645 182.764 C 209.485 183.424,210.275 183.600,212.408 183.600 C 216.584 183.600,216.398 184.337,216.408 167.714 C 216.416 153.679,216.738 148.964,217.802 147.341 C 218.121 146.854,218.724 145.555,219.143 144.454 C 221.401 138.511,226.427 135.153,233.178 135.076 C 239.299 135.007,241.407 136.407,243.446 141.895 L 244.600 145.000 244.667 163.532 C 244.746 185.152,244.422 183.600,248.848 183.600 C 252.716 183.600,252.466 185.208,252.314 161.283 L 252.182 140.600 251.072 137.367 C 249.540 132.900,247.460 130.843,243.000 129.381 C 240.135 128.442,234.850 127.748,233.800 128.172 M65.400 128.825 C 64.740 129.014,62.862 129.526,61.226 129.964 C 59.590 130.401,57.753 131.128,57.142 131.579 C 56.532 132.031,55.910 132.400,55.761 132.400 C 54.829 132.400,49.999 137.038,49.005 138.888 C 48.380 140.050,47.387 141.720,46.799 142.600 C 43.054 148.197,42.565 166.470,46.012 172.000 C 46.218 172.330,47.106 173.770,47.985 175.200 C 49.596 177.820,51.340 180.000,51.823 180.000 C 51.967 180.000,52.596 180.430,53.221 180.956 C 59.772 186.469,76.902 185.943,83.905 180.014 C 88.111 176.453,90.473 173.664,91.198 171.400 C 91.480 170.520,92.029 169.346,92.418 168.791 C 95.348 164.609,95.475 146.376,92.604 141.960 C 92.089 141.168,91.445 139.775,91.172 138.864 C 90.818 137.681,89.961 136.548,88.178 134.904 C 84.462 131.477,83.335 130.728,81.063 130.179 C 79.928 129.905,77.927 129.392,76.616 129.040 C 74.056 128.353,67.492 128.227,65.400 128.825 M128.291 129.653 C 125.912 130.588,124.880 131.249,123.891 132.472 C 123.181 133.351,121.970 134.767,121.200 135.619 C 120.430 136.471,119.485 137.536,119.100 137.984 C 117.443 139.915,116.290 138.003,117.193 134.824 C 118.510 130.186,118.212 129.800,113.324 129.800 C 110.781 129.800,109.878 129.945,109.587 130.400 C 109.126 131.120,109.245 182.579,109.708 183.042 C 110.146 183.479,114.508 183.744,116.164 183.433 C 118.074 183.075,118.012 183.616,118.154 166.142 C 118.288 149.775,118.535 147.348,120.320 144.849 C 120.694 144.325,121.270 143.415,121.600 142.825 C 122.805 140.673,124.433 138.909,125.899 138.168 C 126.725 137.750,127.788 137.076,128.263 136.669 C 128.795 136.214,130.305 135.765,132.198 135.499 C 135.851 134.986,136.272 134.425,135.729 130.800 L 135.400 128.600 133.400 128.516 C 131.965 128.455,130.522 128.776,128.291 129.653 M161.413 129.668 C 156.773 131.083,156.120 131.504,151.820 135.864 C 147.838 139.902,146.654 142.512,144.773 151.400 C 143.314 158.297,145.741 171.379,149.356 176.102 C 151.914 179.444,154.825 181.872,156.934 182.422 C 157.850 182.661,159.992 183.290,161.694 183.820 C 165.638 185.048,171.185 185.448,175.400 184.810 C 179.700 184.159,186.870 182.426,187.543 181.875 C 188.086 181.431,188.023 177.889,187.461 177.328 C 187.072 176.939,179.283 177.872,176.800 178.605 C 174.344 179.330,168.757 179.234,167.275 178.440 C 166.805 178.189,165.475 177.804,164.318 177.584 C 163.161 177.365,161.851 176.846,161.407 176.432 C 160.963 176.017,159.466 174.625,158.080 173.338 C 156.067 171.470,155.480 170.646,155.166 169.247 C 154.950 168.284,154.403 166.685,153.951 165.693 C 152.071 161.566,152.752 155.816,155.200 155.151 C 155.750 155.002,163.453 154.862,172.318 154.840 L 188.436 154.800 189.477 153.760 C 192.598 150.639,188.760 137.072,183.660 133.194 C 182.651 132.427,181.536 131.516,181.182 131.169 C 178.607 128.646,167.523 127.804,161.413 129.668 M312.500 130.270 C 311.414 131.027,311.269 133.349,312.223 134.711 C 312.841 135.594,312.920 135.600,324.194 135.600 L 335.542 135.600 336.399 136.689 C 337.478 138.061,337.198 140.114,335.718 141.674 C 335.158 142.265,334.497 143.092,334.250 143.510 C 334.002 143.929,332.900 145.584,331.800 147.189 C 330.700 148.793,329.434 150.700,328.987 151.426 C 328.539 152.152,327.892 153.073,327.549 153.473 C 327.205 153.873,325.990 155.765,324.849 157.677 C 323.708 159.590,322.435 161.262,322.020 161.394 C 321.606 161.525,321.083 162.159,320.859 162.803 C 320.343 164.282,317.674 168.730,315.579 171.600 C 311.553 177.117,310.340 181.053,312.143 182.747 L 313.087 183.633 329.985 183.609 C 349.448 183.580,349.180 183.626,349.194 180.300 C 349.206 177.210,349.164 177.200,335.974 177.200 C 322.074 177.200,321.270 176.919,323.400 172.801 C 324.330 171.002,326.424 168.000,326.749 168.000 C 326.909 168.000,327.439 167.235,327.927 166.300 C 329.458 163.362,331.188 160.751,332.415 159.523 C 333.067 158.871,333.600 158.093,333.600 157.792 C 333.600 157.491,333.932 157.010,334.339 156.723 C 334.745 156.435,335.285 155.566,335.539 154.792 C 335.794 154.017,336.676 152.552,337.501 151.535 C 338.945 149.755,339.836 148.421,341.275 145.885 C 341.646 145.231,342.391 144.224,342.931 143.648 C 343.471 143.072,344.289 141.847,344.750 140.927 C 345.211 140.007,345.788 139.131,346.032 138.980 C 348.213 137.632,349.391 131.126,347.620 130.210 C 345.828 129.283,313.836 129.338,312.500 130.270 M174.200 134.833 C 175.960 135.669,177.717 136.768,178.104 137.276 C 178.490 137.784,179.266 138.779,179.828 139.486 C 182.234 142.520,182.196 148.035,179.761 149.145 C 178.428 149.752,158.213 149.772,156.480 149.168 C 153.057 147.975,154.693 140.722,159.169 137.247 C 165.171 132.588,168.387 132.072,174.200 134.833 M77.268 136.222 C 77.781 136.674,78.880 137.484,79.712 138.022 C 81.398 139.112,82.875 141.229,84.864 145.400 L 86.199 148.200 86.186 156.200 L 86.173 164.200 84.787 167.376 C 81.373 175.195,74.059 179.564,66.871 178.079 C 65.595 177.816,64.074 177.600,63.489 177.600 C 61.174 177.600,55.869 171.890,54.755 168.200 C 54.290 166.660,53.543 164.680,53.094 163.800 C 51.883 161.426,51.884 151.772,53.095 149.400 C 53.544 148.520,54.185 146.878,54.519 145.751 C 55.243 143.310,56.207 141.361,56.910 140.920 C 57.190 140.744,57.733 140.107,58.115 139.505 C 58.498 138.903,59.545 138.003,60.440 137.505 C 61.336 137.007,62.638 136.277,63.334 135.881 C 65.295 134.768,75.915 135.028,77.268 136.222 M376.969 187.494 C 372.926 189.171,372.612 189.382,369.864 192.267 C 368.272 193.939,367.684 195.002,366.553 198.250 C 364.925 202.925,364.471 203.456,361.642 203.992 C 360.200 204.266,300.260 204.400,179.745 204.400 L 0.000 204.400 -0.000 260.200 L -0.000 316.001 191.700 315.900 L 383.400 315.800 383.600 269.065 L 383.800 222.329 384.744 221.565 C 385.264 221.144,385.913 220.800,386.188 220.800 C 388.957 220.800,396.405 215.569,397.675 212.732 C 398.071 211.847,398.754 211.033,399.197 210.917 C 400.267 210.637,400.475 196.400,399.410 196.400 C 399.085 196.400,398.500 195.782,398.110 195.028 C 394.305 187.668,384.755 184.266,376.969 187.494 M388.388 190.994 C 389.693 191.670,394.313 196.242,395.264 197.800 C 397.308 201.146,396.112 208.920,393.099 211.884 C 388.251 216.650,383.944 217.990,378.493 216.427 C 373.266 214.928,369.562 209.494,369.502 203.237 C 369.454 198.146,370.885 195.561,375.877 191.722 C 378.067 190.038,385.684 189.595,388.388 190.994 M226.325 218.811 L 227.649 219.618 227.597 222.909 C 227.335 239.579,226.571 238.280,236.678 238.365 C 241.815 238.409,242.653 238.951,243.050 242.488 C 243.595 247.334,242.113 248.476,235.000 248.691 C 226.817 248.939,227.555 247.328,227.590 264.869 C 227.632 286.048,227.760 286.400,235.396 286.400 C 242.340 286.400,243.570 287.412,243.008 292.663 C 242.534 297.088,241.405 297.701,232.800 298.209 C 223.720 298.745,218.703 296.386,216.197 290.400 C 213.455 283.850,213.627 285.406,213.613 267.126 C 213.598 248.046,213.618 248.187,211.031 248.574 C 206.131 249.309,202.585 247.522,202.618 244.333 C 202.673 239.099,203.532 238.291,209.044 238.291 C 213.799 238.291,213.599 238.677,213.601 229.474 C 213.603 220.498,213.916 219.880,219.084 218.628 C 222.478 217.806,224.771 217.863,226.325 218.811 M69.400 237.407 C 70.500 237.701,72.236 238.063,73.259 238.210 C 77.278 238.790,78.385 240.462,77.837 245.127 C 77.427 248.615,75.418 250.383,72.944 249.434 C 70.814 248.616,63.458 247.993,60.427 248.373 C 56.717 248.838,52.118 251.825,50.652 254.722 C 50.241 255.535,49.656 256.485,49.351 256.833 C 48.214 258.132,47.617 267.444,48.205 274.711 C 49.005 284.605,56.639 288.402,70.524 285.810 C 77.142 284.574,77.984 285.092,77.994 290.411 C 78.003 295.117,76.478 296.251,68.533 297.445 C 57.436 299.112,46.442 297.027,42.012 292.415 C 39.283 289.574,36.000 284.822,35.999 283.710 C 35.999 283.319,35.477 281.020,34.839 278.600 C 32.915 271.298,32.896 267.574,34.754 261.200 C 35.170 259.770,35.706 257.544,35.944 256.252 C 36.183 254.961,36.794 253.341,37.302 252.652 C 37.811 251.964,38.445 250.899,38.711 250.286 C 40.212 246.834,44.024 242.928,47.600 241.177 C 49.030 240.477,50.488 239.652,50.841 239.344 C 51.193 239.036,52.953 238.525,54.752 238.208 C 56.551 237.892,58.212 237.516,58.444 237.373 C 59.890 236.479,66.006 236.498,69.400 237.407 M114.413 237.025 C 115.616 237.369,117.733 237.889,119.119 238.180 C 120.504 238.471,121.944 238.974,122.319 239.297 C 122.693 239.619,123.960 240.397,125.134 241.024 C 126.936 241.987,130.800 246.069,130.800 247.011 C 130.800 247.122,131.419 248.155,132.175 249.306 C 133.782 251.752,134.400 255.182,134.400 261.647 C 134.400 268.460,134.602 268.393,114.000 268.404 C 105.530 268.408,98.361 268.564,98.070 268.748 C 97.210 269.293,97.074 272.001,97.729 275.478 C 99.747 286.173,109.565 289.850,125.258 285.785 C 129.525 284.680,130.697 285.124,131.820 288.274 C 132.984 291.537,132.240 294.706,130.119 295.514 C 120.757 299.080,105.463 299.226,97.800 295.822 C 90.648 292.645,86.987 287.289,83.979 275.600 C 83.518 273.808,83.509 263.440,83.967 261.600 C 86.291 252.264,87.593 249.645,92.386 244.674 C 98.385 238.452,107.876 235.157,114.413 237.025 M184.083 237.627 C 190.357 239.712,193.664 243.111,195.629 249.495 L 196.800 253.298 196.800 273.262 C 196.800 297.850,197.039 296.864,190.944 297.375 C 183.460 298.001,183.563 298.286,183.591 277.049 C 183.611 261.934,183.403 257.089,182.557 253.055 C 180.676 244.086,163.957 248.775,161.789 258.879 C 161.634 259.606,161.141 260.920,160.695 261.800 C 159.932 263.306,159.875 264.290,159.734 278.600 C 159.537 298.442,159.787 297.748,152.971 297.447 C 149.190 297.280,148.243 296.872,147.642 295.149 C 147.076 293.524,147.018 241.731,147.581 240.250 C 148.167 238.709,149.264 238.369,153.794 238.324 C 158.653 238.276,159.057 238.478,159.406 241.133 C 159.541 242.160,159.748 243.511,159.865 244.135 L 160.079 245.270 161.044 243.849 C 161.575 243.067,162.863 241.938,163.905 241.339 C 164.947 240.739,166.309 239.833,166.931 239.325 C 167.553 238.816,168.384 238.400,168.778 238.400 C 169.173 238.400,170.824 237.958,172.448 237.418 C 176.586 236.041,179.464 236.093,184.083 237.627 M284.000 237.927 C 288.395 239.250,291.487 241.092,293.943 243.851 C 294.898 244.923,296.022 246.186,296.442 246.659 C 298.702 249.203,300.800 256.170,300.800 261.134 C 300.800 268.636,301.504 268.384,280.585 268.352 C 261.744 268.324,262.321 268.161,262.960 273.321 C 263.711 279.382,267.205 284.551,271.533 286.006 C 276.332 287.619,284.674 287.515,291.584 285.756 C 296.894 284.404,298.200 285.291,298.200 290.251 C 298.200 294.165,297.526 295.045,293.582 296.285 C 290.830 297.149,278.808 298.902,277.832 298.580 C 277.594 298.502,275.457 298.252,273.082 298.024 C 268.285 297.564,263.431 296.117,261.200 294.481 C 257.329 291.642,254.708 288.624,253.142 285.200 C 252.286 283.330,251.401 281.475,251.176 281.078 C 249.387 277.928,249.663 259.614,251.564 255.282 C 252.244 253.733,252.800 252.224,252.800 251.928 C 252.800 249.911,259.498 242.178,262.329 240.926 C 263.514 240.402,264.729 239.728,265.027 239.430 C 265.326 239.131,266.522 238.666,267.685 238.397 C 268.848 238.127,270.790 237.561,272.000 237.140 C 274.900 236.130,278.904 236.393,284.000 237.927 M342.154 237.463 C 345.218 240.527,343.384 248.794,339.638 248.804 C 338.847 248.806,337.237 249.256,336.060 249.804 C 334.883 250.352,333.744 250.800,333.529 250.800 C 332.655 250.800,329.818 254.390,328.394 257.299 C 326.547 261.073,326.420 262.519,326.262 281.501 C 326.128 297.632,325.930 298.037,318.441 297.437 C 312.489 296.961,312.800 298.618,312.801 267.316 C 312.803 236.098,312.250 238.831,318.698 238.204 C 322.295 237.854,324.553 238.884,325.244 241.189 C 325.846 243.198,326.965 243.987,327.581 242.835 C 328.165 241.744,332.562 238.475,333.892 238.143 C 334.501 237.991,335.720 237.541,336.600 237.142 C 338.967 236.070,340.871 236.180,342.154 237.463 M105.000 248.440 C 100.226 250.928,96.998 256.607,99.574 257.986 C 100.689 258.583,119.259 258.538,120.581 257.936 C 122.183 257.206,121.919 255.504,119.689 252.200 C 116.350 247.252,110.267 245.694,105.000 248.440 M270.996 248.338 C 266.464 250.482,262.726 256.676,265.174 257.986 C 265.646 258.239,269.711 258.400,275.600 258.400 C 286.219 258.400,286.802 258.290,286.796 256.286 C 286.776 249.546,277.890 245.076,270.996 248.338 " stroke="none" fill="#0d0d15" fill-rule="evenodd"></path><path id="path1" d="M11.757 109.433 C 11.891 109.781,12.003 124.406,12.006 141.933 C 12.010 161.288,12.161 174.036,12.391 174.400 C 12.710 174.905,14.739 175.032,25.220 175.200 L 37.670 175.400 38.674 176.568 C 40.064 178.184,39.946 183.432,38.486 184.891 L 37.578 185.800 18.789 185.800 L -0.000 185.800 -0.000 193.900 L 0.000 202.000 181.156 202.000 C 353.093 202.000,362.355 201.964,363.166 201.300 C 363.764 200.810,364.143 199.829,364.429 198.035 C 364.701 196.333,365.168 195.078,365.819 194.304 C 366.359 193.663,366.800 192.968,366.800 192.760 C 366.800 191.297,372.894 186.464,376.130 185.362 C 377.131 185.021,378.097 184.530,378.275 184.271 C 378.454 184.012,378.510 166.970,378.400 146.400 L 378.200 109.000 331.500 108.898 L 284.800 108.797 284.800 117.129 C 284.800 127.767,284.279 127.070,292.400 127.285 C 300.239 127.494,301.200 128.057,301.200 132.445 C 301.200 136.551,299.956 137.200,292.083 137.200 C 286.739 137.200,286.507 137.235,285.632 138.166 L 284.725 139.132 284.779 152.847 C 284.837 167.627,284.915 168.377,286.826 172.600 C 288.431 176.147,288.086 175.987,294.118 175.994 C 300.484 176.001,301.200 176.435,301.199 180.282 C 301.198 185.781,299.339 186.934,290.416 186.973 C 282.191 187.009,277.153 184.975,275.623 181.000 C 275.368 180.340,274.584 178.720,273.880 177.400 L 272.600 175.000 272.400 157.000 C 272.161 135.512,272.649 137.351,267.128 137.129 C 261.999 136.923,261.397 136.435,261.407 132.489 C 261.419 127.959,262.414 127.214,268.477 127.204 C 272.371 127.198,272.400 127.132,272.400 118.311 C 272.400 111.733,272.460 111.140,273.200 110.400 C 273.640 109.960,274.000 109.420,274.000 109.200 C 274.000 108.934,229.986 108.800,142.757 108.800 C 23.245 108.800,11.536 108.857,11.757 109.433 M239.803 126.188 C 247.481 127.657,251.979 131.782,253.821 139.045 L 254.821 142.985 254.710 163.326 L 254.600 183.666 253.294 184.833 C 251.722 186.237,246.615 186.546,244.349 185.373 C 242.109 184.215,242.081 183.949,242.022 163.056 L 241.968 143.912 240.829 141.399 C 236.586 132.042,223.524 136.680,219.332 149.033 L 217.850 153.400 217.721 168.400 C 217.559 187.088,217.923 185.984,211.926 185.995 C 205.140 186.007,205.600 188.160,205.600 156.393 C 205.600 124.760,204.973 127.400,212.486 127.400 C 216.747 127.400,217.101 127.674,217.626 131.381 C 218.125 134.904,218.305 135.123,219.397 133.530 C 220.266 132.262,221.651 131.120,224.841 129.043 C 227.156 127.535,231.939 126.114,236.265 125.650 C 236.520 125.622,238.112 125.865,239.803 126.188 M78.058 126.973 C 82.815 128.209,88.112 131.120,89.372 133.189 C 89.576 133.525,90.234 134.262,90.835 134.826 C 94.845 138.595,97.970 150.886,96.864 158.533 C 95.594 167.311,93.867 172.443,91.240 175.240 C 90.668 175.850,89.583 177.125,88.829 178.074 C 78.916 190.558,52.904 189.897,46.845 177.007 C 46.376 176.009,45.644 174.844,45.218 174.418 C 44.793 173.993,44.320 172.960,44.168 172.122 C 44.016 171.285,43.421 169.790,42.846 168.800 C 41.802 167.004,41.800 166.980,41.800 158.000 L 41.800 149.000 42.862 147.118 C 43.446 146.083,44.045 144.518,44.193 143.641 C 44.341 142.764,44.733 141.821,45.064 141.547 C 45.395 141.272,46.181 140.047,46.811 138.824 C 51.743 129.247,66.000 123.840,78.058 126.973 M136.831 127.169 C 137.929 128.268,138.000 128.533,138.000 131.555 C 138.000 135.933,136.889 137.351,133.127 137.776 C 128.353 138.317,123.780 141.221,122.747 144.369 C 122.488 145.156,121.932 146.465,121.509 147.278 C 120.353 149.505,120.012 154.663,120.026 169.742 C 120.041 186.716,120.289 186.120,113.299 185.914 L 109.400 185.800 108.701 184.400 C 107.626 182.249,107.626 130.951,108.701 128.800 L 109.400 127.400 113.659 127.400 C 118.506 127.400,119.293 127.774,120.005 130.417 C 120.603 132.641,121.296 133.023,122.139 131.595 C 124.627 127.383,134.170 124.508,136.831 127.169 M176.671 127.167 C 185.747 129.758,191.415 136.778,192.433 146.690 C 193.520 157.279,193.751 157.158,172.474 157.182 C 162.933 157.193,156.862 157.353,156.391 157.605 C 153.880 158.948,155.811 168.301,159.363 172.004 C 163.995 176.833,174.657 178.239,183.384 175.172 C 187.885 173.590,189.389 174.341,190.105 178.528 C 190.889 183.110,189.762 184.213,182.600 185.877 C 167.644 189.352,152.485 185.609,147.731 177.267 C 147.146 176.240,146.352 175.040,145.967 174.600 C 145.582 174.160,145.002 172.810,144.677 171.600 C 144.353 170.390,143.598 167.725,143.000 165.679 C 141.522 160.624,141.648 152.306,143.270 147.800 C 143.824 146.260,144.400 144.343,144.549 143.540 C 144.699 142.737,145.248 141.451,145.771 140.681 C 146.293 139.912,146.829 138.940,146.962 138.521 C 147.095 138.102,148.148 136.652,149.302 135.299 C 156.097 127.333,166.462 124.254,176.671 127.167 M349.088 127.989 C 352.343 130.147,351.461 135.186,346.800 141.060 C 346.250 141.753,345.080 143.525,344.200 144.997 C 343.320 146.470,342.015 148.354,341.300 149.186 C 340.585 150.017,340.000 150.886,340.000 151.118 C 340.000 151.349,339.572 152.047,339.049 152.669 C 338.526 153.291,337.688 154.671,337.188 155.736 C 336.688 156.801,336.028 157.768,335.722 157.885 C 335.416 158.003,334.821 158.774,334.400 159.600 C 333.979 160.426,333.375 161.201,333.057 161.323 C 332.740 161.444,332.257 162.232,331.984 163.072 C 331.522 164.493,329.463 167.538,327.705 169.400 C 326.687 170.478,325.905 172.514,326.067 173.662 L 326.200 174.600 337.448 174.706 C 348.650 174.812,348.701 174.816,349.716 175.758 C 351.770 177.661,351.669 183.198,349.547 184.983 L 348.339 186.000 330.269 185.999 C 309.587 185.997,310.081 186.074,309.179 182.722 C 308.345 179.625,310.557 173.754,313.592 171.007 C 314.036 170.605,314.400 170.056,314.400 169.787 C 314.400 169.518,314.672 169.072,315.005 168.796 C 315.337 168.520,315.967 167.485,316.405 166.495 C 316.843 165.505,317.786 164.017,318.501 163.187 C 320.289 161.112,322.224 158.359,322.562 157.411 C 322.857 156.584,324.645 154.041,326.486 151.830 C 327.083 151.113,327.751 150.055,327.970 149.479 C 328.430 148.269,332.331 142.800,332.734 142.800 C 333.107 142.800,333.952 140.813,334.088 139.618 C 334.246 138.228,332.867 138.051,321.680 138.023 C 309.774 137.994,309.200 137.738,309.200 132.470 C 309.200 129.837,309.873 128.597,311.751 127.766 C 313.641 126.931,347.800 127.135,349.088 127.989 M164.368 136.527 C 160.351 138.634,159.618 139.301,157.102 143.136 C 156.171 144.555,156.217 145.054,157.389 146.225 L 158.378 147.214 168.368 147.033 C 179.487 146.831,180.000 146.722,180.000 144.569 C 180.000 138.778,169.942 133.604,164.368 136.527 M66.349 137.175 C 61.348 138.151,56.928 142.342,56.198 146.800 C 56.036 147.790,55.432 149.500,54.856 150.600 C 53.306 153.561,53.310 159.588,54.865 162.800 C 55.451 164.010,56.138 166.032,56.392 167.293 C 57.054 170.580,61.709 175.383,64.677 175.841 C 79.220 178.085,85.859 168.938,83.632 149.728 C 82.597 140.800,75.223 135.444,66.349 137.175 M378.557 192.653 C 377.053 192.988,373.431 196.602,372.239 198.959 C 367.762 207.806,378.987 218.933,387.400 213.987 C 400.526 206.272,393.505 189.333,378.557 192.653 M221.200 219.966 C 215.840 221.656,215.613 222.093,215.605 230.720 C 215.598 239.431,214.834 240.905,210.600 240.379 C 206.936 239.924,204.849 240.972,204.557 243.414 C 204.255 245.937,204.613 246.159,209.371 246.393 C 213.062 246.575,213.692 246.712,214.490 247.511 L 215.400 248.421 215.600 266.311 C 215.780 282.424,215.870 284.328,216.507 285.493 C 216.895 286.204,217.325 287.644,217.461 288.693 C 218.586 297.342,241.200 299.771,241.200 291.243 C 241.200 289.192,240.244 288.800,235.249 288.800 C 229.407 288.800,228.885 288.530,226.913 284.497 L 225.400 281.400 225.274 266.002 C 225.103 245.128,224.437 246.736,233.343 246.507 C 241.349 246.301,242.142 245.829,240.615 242.175 C 239.918 240.507,240.852 240.755,234.000 240.418 C 224.979 239.975,225.482 240.640,225.208 228.800 L 225.000 219.800 223.600 219.725 C 222.830 219.684,221.750 219.792,221.200 219.966 M61.600 239.242 C 57.535 239.530,51.560 241.119,49.551 242.445 C 48.755 242.970,47.291 243.878,46.298 244.462 C 33.370 252.068,32.587 284.074,45.131 292.156 C 50.612 295.687,59.597 297.043,66.776 295.424 C 68.219 295.099,70.242 294.726,71.271 294.596 C 74.977 294.128,76.540 292.249,75.598 289.393 C 75.032 287.678,73.793 287.275,71.464 288.048 C 69.194 288.801,57.207 288.815,55.092 288.066 C 53.129 287.372,47.851 282.181,47.261 280.365 C 44.775 272.712,45.405 258.768,48.427 254.554 C 53.900 246.924,57.401 245.536,68.754 246.499 L 74.108 246.953 74.854 246.032 C 78.318 241.754,71.975 238.504,61.600 239.242 M106.934 239.211 C 105.578 239.394,103.958 239.808,103.334 240.130 C 102.710 240.452,101.444 240.920,100.520 241.168 C 96.982 242.120,90.771 248.364,88.981 252.769 C 81.768 270.522,87.769 291.785,100.737 294.419 C 101.982 294.672,104.030 295.241,105.288 295.684 C 107.937 296.616,116.508 296.835,118.574 296.024 C 119.219 295.771,121.649 295.199,123.974 294.754 C 129.676 293.662,130.143 293.331,129.912 290.546 C 129.669 287.614,129.328 287.338,126.709 287.955 C 110.681 291.727,99.421 288.522,96.655 279.400 C 96.255 278.080,95.684 276.370,95.386 275.600 C 94.235 272.622,94.805 267.284,96.354 266.529 C 96.709 266.356,104.740 266.121,114.200 266.007 C 123.660 265.893,131.625 265.654,131.900 265.476 C 133.278 264.585,132.068 253.687,130.177 249.955 C 126.194 242.095,117.007 237.848,106.934 239.211 M173.600 239.343 C 168.520 240.557,165.278 242.468,161.759 246.320 C 159.758 248.511,158.715 247.986,158.257 244.559 C 157.781 240.997,157.010 240.236,154.000 240.359 C 148.771 240.572,149.129 238.541,149.151 267.818 C 149.172 294.843,149.114 294.142,151.372 294.638 C 158.199 296.137,158.157 296.241,158.279 277.684 C 158.378 262.631,158.641 259.362,159.832 258.373 C 160.141 258.117,160.577 257.227,160.801 256.395 C 163.039 248.084,176.012 242.972,181.852 248.099 C 185.525 251.325,186.022 254.653,185.991 275.865 C 185.962 296.173,185.647 294.800,190.345 294.800 C 194.705 294.800,194.403 296.424,194.386 273.081 C 194.371 252.613,194.297 251.551,192.591 247.200 C 190.190 241.076,181.458 237.463,173.600 239.343 M272.600 239.219 C 257.267 242.016,249.658 255.996,252.581 276.000 C 253.896 285.003,259.076 292.457,265.063 293.963 C 266.129 294.230,268.350 294.875,270.000 295.394 C 275.708 297.191,280.020 297.102,289.200 294.996 C 294.676 293.740,296.148 293.004,296.331 291.432 C 296.674 288.485,295.265 287.196,292.562 287.983 C 275.178 293.050,262.119 287.162,261.358 273.913 C 260.879 265.585,259.646 266.091,280.526 266.040 C 300.004 265.992,298.400 266.432,298.400 261.144 C 298.400 253.927,296.013 248.224,291.215 243.976 C 288.873 241.904,287.920 241.436,282.339 239.623 C 280.627 239.067,274.768 238.824,272.600 239.219 M336.600 239.361 C 332.717 240.592,327.608 244.676,325.919 247.900 C 324.265 251.055,322.132 248.930,322.591 244.583 C 322.955 241.133,321.937 239.799,319.247 240.202 C 316.891 240.555,315.202 241.433,315.192 242.310 C 315.188 242.690,315.180 254.340,315.176 268.200 L 315.168 293.400 316.028 294.100 C 317.445 295.253,321.757 295.079,323.018 293.818 L 324.000 292.836 324.000 281.993 C 324.000 274.563,324.185 269.867,324.588 267.075 C 324.912 264.834,325.284 261.811,325.414 260.357 C 325.965 254.228,333.312 246.800,338.826 246.800 C 341.303 246.800,341.600 246.372,341.600 242.800 C 341.600 238.667,340.713 238.057,336.600 239.361 M113.673 245.365 C 114.263 245.673,115.261 246.038,115.889 246.176 C 120.758 247.245,125.138 256.752,122.238 259.958 C 121.263 261.035,100.322 261.280,97.839 260.242 C 94.167 258.708,98.122 248.967,103.278 246.843 C 104.445 246.363,105.940 245.718,106.600 245.410 C 108.169 244.679,112.308 244.653,113.673 245.365 M281.250 246.157 C 287.058 248.828,291.501 257.069,288.663 259.909 C 287.931 260.642,268.540 261.192,264.467 260.595 C 261.697 260.189,260.893 257.222,262.788 254.400 C 263.158 253.850,263.689 252.826,263.969 252.124 C 266.250 246.398,275.117 243.336,281.250 246.157 " stroke="none" fill="#ebebeb" fill-rule="evenodd"></path><path id="path2" d="M0.000 108.909 C 0.000 109.376,0.713 109.444,3.966 109.287 C 6.148 109.182,8.398 109.213,8.966 109.356 L 10.000 109.615 10.000 141.827 C 10.000 171.008,10.062 174.160,10.661 175.320 C 11.843 177.606,11.649 177.574,24.314 177.587 C 37.707 177.602,38.000 177.662,38.000 180.413 C 38.000 183.630,37.791 183.663,18.520 183.496 C 9.324 183.417,1.395 183.207,0.900 183.029 C 0.075 182.734,-0.000 182.825,-0.000 184.129 C 0.000 186.071,0.003 186.071,20.489 185.923 L 37.579 185.800 38.487 184.891 C 39.945 183.432,40.064 178.184,38.674 176.568 L 37.670 175.400 25.220 175.200 C 14.739 175.032,12.710 174.905,12.391 174.400 C 12.161 174.036,12.007 161.227,12.000 141.800 C 11.993 122.390,11.839 109.564,11.609 109.200 C 11.060 108.330,0.000 108.053,0.000 108.909 M275.471 108.808 C 272.666 109.649,272.400 110.474,272.400 118.332 C 272.400 127.130,272.370 127.198,268.477 127.204 C 262.414 127.214,261.419 127.959,261.407 132.489 C 261.397 136.435,261.999 136.923,267.128 137.129 C 272.649 137.351,272.161 135.512,272.400 157.000 L 272.600 175.000 273.880 177.400 C 274.584 178.720,275.368 180.340,275.623 181.000 C 277.153 184.975,282.191 187.009,290.416 186.973 C 299.339 186.934,301.198 185.781,301.199 180.282 C 301.200 176.435,300.484 176.001,294.118 175.994 C 288.086 175.987,288.431 176.147,286.826 172.600 C 284.915 168.377,284.837 167.627,284.779 152.847 L 284.725 139.132 285.632 138.166 C 286.507 137.235,286.739 137.200,292.083 137.200 C 299.956 137.200,301.200 136.551,301.200 132.445 C 301.200 128.057,300.239 127.494,292.400 127.285 C 284.294 127.070,284.800 127.732,284.800 117.344 C 284.800 109.729,284.752 109.203,284.026 108.814 C 283.113 108.325,277.094 108.321,275.471 108.808 M283.208 118.400 C 283.482 130.218,282.926 129.494,291.859 129.681 C 297.996 129.810,299.200 130.226,299.200 132.218 C 299.200 134.621,298.237 134.982,291.250 135.200 C 282.454 135.474,283.400 133.242,283.400 153.714 L 283.400 170.600 284.860 173.400 C 286.961 177.430,287.326 177.627,292.891 177.729 C 299.032 177.843,300.954 179.663,298.382 182.932 C 296.124 185.803,284.572 185.482,279.519 182.409 C 275.228 179.800,274.720 177.089,274.436 155.311 L 274.200 137.221 273.291 136.313 C 272.519 135.542,271.888 135.387,269.091 135.287 C 263.780 135.097,262.800 134.618,262.800 132.215 C 262.800 130.442,264.885 129.543,268.766 129.641 C 273.899 129.770,274.351 128.961,274.439 119.491 C 274.475 115.642,274.391 112.309,274.253 112.085 C 274.005 111.684,276.244 110.076,277.800 109.539 C 278.240 109.387,279.590 109.293,280.800 109.331 L 283.000 109.400 283.208 118.400 M233.753 126.000 C 230.969 126.408,226.592 127.902,224.841 129.043 C 221.651 131.120,220.266 132.262,219.397 133.530 C 218.305 135.123,218.125 134.904,217.626 131.381 C 217.101 127.674,216.747 127.400,212.486 127.400 C 204.973 127.400,205.600 124.760,205.600 156.393 C 205.600 188.160,205.140 186.007,211.926 185.995 C 217.923 185.984,217.559 187.088,217.721 168.400 L 217.850 153.400 219.332 149.033 C 223.524 136.680,236.586 132.042,240.829 141.399 L 241.968 143.912 242.022 163.056 C 242.081 183.949,242.109 184.215,244.349 185.373 C 246.615 186.546,251.722 186.237,253.294 184.833 L 254.600 183.666 254.710 163.326 L 254.821 142.985 253.821 139.045 C 251.825 131.175,243.557 124.867,236.265 125.650 C 236.009 125.677,234.879 125.835,233.753 126.000 M63.498 126.965 C 55.755 129.015,49.616 133.378,46.811 138.824 C 46.181 140.047,45.395 141.272,45.064 141.547 C 44.733 141.821,44.341 142.764,44.193 143.641 C 44.045 144.518,43.446 146.083,42.862 147.118 L 41.800 149.000 41.800 158.000 C 41.800 166.980,41.802 167.004,42.846 168.800 C 43.421 169.790,44.016 171.285,44.168 172.122 C 44.320 172.960,44.793 173.993,45.218 174.418 C 45.644 174.844,46.376 176.009,46.845 177.007 C 52.904 189.897,78.916 190.558,88.829 178.074 C 89.583 177.125,90.668 175.850,91.240 175.240 C 93.867 172.443,95.594 167.311,96.864 158.533 C 97.970 150.886,94.845 138.595,90.835 134.826 C 90.234 134.262,89.576 133.525,89.372 133.189 C 86.106 127.822,72.565 124.565,63.498 126.965 M129.255 126.820 C 126.442 127.819,123.009 130.123,122.139 131.595 C 121.296 133.023,120.603 132.641,120.005 130.417 C 119.293 127.774,118.506 127.400,113.659 127.400 L 109.400 127.400 108.701 128.800 C 107.626 130.951,107.626 182.249,108.701 184.400 L 109.400 185.800 113.299 185.914 C 120.289 186.120,120.041 186.716,120.026 169.742 C 120.012 154.663,120.353 149.505,121.509 147.278 C 121.932 146.465,122.488 145.156,122.747 144.369 C 123.780 141.221,128.353 138.317,133.127 137.776 C 136.889 137.351,138.000 135.933,138.000 131.555 C 138.000 126.216,135.210 124.705,129.255 126.820 M162.870 126.785 C 156.339 128.556,148.225 134.542,146.962 138.521 C 146.829 138.940,146.293 139.912,145.771 140.681 C 145.248 141.451,144.699 142.737,144.549 143.540 C 144.400 144.343,143.824 146.260,143.270 147.800 C 141.648 152.306,141.522 160.624,143.000 165.679 C 143.598 167.725,144.353 170.390,144.677 171.600 C 145.002 172.810,145.582 174.160,145.967 174.600 C 146.352 175.040,147.146 176.240,147.731 177.267 C 152.485 185.609,167.644 189.352,182.600 185.877 C 189.762 184.213,190.889 183.110,190.105 178.528 C 189.389 174.341,187.885 173.590,183.384 175.172 C 174.657 178.239,163.995 176.833,159.363 172.004 C 155.811 168.301,153.880 158.948,156.391 157.605 C 156.862 157.353,162.933 157.193,172.474 157.182 C 193.751 157.158,193.520 157.279,192.433 146.690 C 190.938 132.128,177.222 122.893,162.870 126.785 M311.751 127.766 C 309.873 128.597,309.200 129.837,309.200 132.470 C 309.200 137.738,309.774 137.994,321.680 138.023 C 332.867 138.051,334.246 138.228,334.088 139.618 C 333.952 140.813,333.107 142.800,332.734 142.800 C 332.331 142.800,328.430 148.269,327.970 149.479 C 327.751 150.055,327.083 151.113,326.486 151.830 C 324.645 154.041,322.857 156.584,322.562 157.411 C 322.224 158.359,320.289 161.112,318.501 163.187 C 317.786 164.017,316.843 165.505,316.405 166.495 C 315.967 167.485,315.337 168.520,315.005 168.796 C 314.672 169.072,314.400 169.518,314.400 169.787 C 314.400 170.056,314.036 170.605,313.592 171.007 C 310.557 173.754,308.345 179.625,309.179 182.722 C 310.081 186.074,309.587 185.997,330.269 185.999 L 348.339 186.000 349.547 184.983 C 351.669 183.198,351.770 177.661,349.716 175.758 C 348.701 174.816,348.650 174.812,337.448 174.706 L 326.200 174.600 326.067 173.662 C 325.905 172.514,326.687 170.478,327.705 169.400 C 329.463 167.538,331.522 164.493,331.984 163.072 C 332.257 162.232,332.740 161.444,333.057 161.323 C 333.375 161.201,333.979 160.426,334.400 159.600 C 334.821 158.774,335.416 158.003,335.722 157.885 C 336.028 157.768,336.688 156.801,337.188 155.736 C 337.688 154.671,338.526 153.291,339.049 152.669 C 339.572 152.047,340.000 151.349,340.000 151.118 C 340.000 150.886,340.585 150.017,341.300 149.186 C 342.015 148.354,343.320 146.470,344.200 144.997 C 345.080 143.525,346.250 141.753,346.800 141.060 C 351.461 135.186,352.343 130.147,349.088 127.989 C 347.800 127.135,313.641 126.931,311.751 127.766 M243.000 129.381 C 247.460 130.843,249.540 132.900,251.072 137.367 L 252.182 140.600 252.314 161.283 C 252.466 185.208,252.716 183.600,248.848 183.600 C 244.422 183.600,244.746 185.152,244.667 163.532 L 244.600 145.000 243.446 141.895 C 241.407 136.407,239.299 135.007,233.178 135.076 C 226.427 135.153,221.401 138.511,219.143 144.454 C 218.724 145.555,218.121 146.854,217.802 147.341 C 216.738 148.964,216.416 153.679,216.408 167.714 C 216.398 184.337,216.584 183.600,212.408 183.600 C 210.275 183.600,209.485 183.424,208.645 182.764 L 207.583 181.928 207.612 156.335 L 207.641 130.742 209.008 130.171 C 213.585 128.258,216.518 129.889,216.357 134.257 L 216.255 137.000 217.427 137.103 C 218.413 137.190,219.114 136.704,221.816 134.063 C 224.975 130.976,225.107 130.898,229.216 129.627 C 231.517 128.916,233.580 128.261,233.800 128.172 C 234.850 127.748,240.135 128.442,243.000 129.381 M76.616 129.040 C 77.927 129.392,79.928 129.905,81.063 130.179 C 83.335 130.728,84.462 131.477,88.178 134.904 C 89.961 136.548,90.818 137.681,91.172 138.864 C 91.445 139.775,92.089 141.168,92.604 141.960 C 95.475 146.376,95.348 164.609,92.418 168.791 C 92.029 169.346,91.480 170.520,91.198 171.400 C 90.473 173.664,88.111 176.453,83.905 180.014 C 76.902 185.943,59.772 186.469,53.221 180.956 C 52.596 180.430,51.967 180.000,51.823 180.000 C 51.340 180.000,49.596 177.820,47.985 175.200 C 47.106 173.770,46.218 172.330,46.012 172.000 C 42.565 166.470,43.054 148.197,46.799 142.600 C 47.387 141.720,48.380 140.050,49.005 138.888 C 49.999 137.038,54.829 132.400,55.761 132.400 C 55.910 132.400,56.532 132.031,57.142 131.579 C 57.753 131.128,59.590 130.401,61.226 129.964 C 62.862 129.526,64.740 129.014,65.400 128.825 C 67.492 128.227,74.056 128.353,76.616 129.040 M135.729 130.800 C 136.272 134.425,135.851 134.986,132.198 135.499 C 130.305 135.765,128.795 136.214,128.263 136.669 C 127.788 137.076,126.725 137.750,125.899 138.168 C 124.433 138.909,122.805 140.673,121.600 142.825 C 121.270 143.415,120.694 144.325,120.320 144.849 C 118.535 147.348,118.288 149.775,118.154 166.142 C 118.012 183.616,118.074 183.075,116.164 183.433 C 114.508 183.744,110.146 183.479,109.708 183.042 C 109.245 182.579,109.126 131.120,109.587 130.400 C 109.878 129.945,110.781 129.800,113.324 129.800 C 118.212 129.800,118.510 130.186,117.193 134.824 C 116.290 138.003,117.443 139.915,119.100 137.984 C 119.485 137.536,120.430 136.471,121.200 135.619 C 121.970 134.767,123.181 133.351,123.891 132.472 C 125.575 130.388,130.382 128.389,133.400 128.516 L 135.400 128.600 135.729 130.800 M176.136 129.469 C 178.557 130.056,180.827 130.821,181.182 131.169 C 181.536 131.516,182.651 132.427,183.660 133.194 C 188.760 137.072,192.598 150.639,189.477 153.760 L 188.436 154.800 172.318 154.840 C 163.453 154.862,155.750 155.002,155.200 155.151 C 152.752 155.816,152.071 161.566,153.951 165.693 C 154.403 166.685,154.950 168.284,155.166 169.247 C 155.480 170.646,156.067 171.470,158.080 173.338 C 159.466 174.625,160.963 176.017,161.407 176.432 C 161.851 176.846,163.161 177.365,164.318 177.584 C 165.475 177.804,166.805 178.189,167.275 178.440 C 168.757 179.234,174.344 179.330,176.800 178.605 C 179.283 177.872,187.072 176.939,187.461 177.328 C 188.023 177.889,188.086 181.431,187.543 181.875 C 186.870 182.426,179.700 184.159,175.400 184.810 C 171.185 185.448,165.638 185.048,161.694 183.820 C 159.992 183.290,157.850 182.661,156.934 182.422 C 154.825 181.872,151.914 179.444,149.356 176.102 C 145.741 171.379,143.314 158.297,144.773 151.400 C 146.654 142.512,147.838 139.902,151.820 135.864 C 158.768 128.820,165.822 126.964,176.136 129.469 M347.620 130.210 C 349.391 131.126,348.213 137.632,346.032 138.980 C 345.788 139.131,345.211 140.007,344.750 140.927 C 344.289 141.847,343.471 143.072,342.931 143.648 C 342.391 144.224,341.646 145.231,341.275 145.885 C 339.836 148.421,338.945 149.755,337.501 151.535 C 336.676 152.552,335.794 154.017,335.539 154.792 C 335.285 155.566,334.745 156.435,334.339 156.723 C 333.932 157.010,333.600 157.491,333.600 157.792 C 333.600 158.093,333.067 158.871,332.415 159.523 C 331.188 160.751,329.458 163.362,327.927 166.300 C 327.439 167.235,326.909 168.000,326.749 168.000 C 326.424 168.000,324.330 171.002,323.400 172.801 C 321.270 176.919,322.074 177.200,335.974 177.200 C 349.164 177.200,349.206 177.210,349.194 180.300 C 349.180 183.626,349.448 183.580,329.985 183.609 L 313.087 183.633 312.143 182.747 C 310.340 181.053,311.553 177.117,315.579 171.600 C 317.674 168.730,320.343 164.282,320.859 162.803 C 321.083 162.159,321.606 161.525,322.020 161.394 C 322.435 161.262,323.708 159.590,324.849 157.677 C 325.990 155.765,327.205 153.873,327.549 153.473 C 327.892 153.073,328.539 152.152,328.987 151.426 C 329.434 150.700,330.700 148.793,331.800 147.189 C 332.900 145.584,334.002 143.929,334.250 143.510 C 334.497 143.092,335.158 142.265,335.718 141.674 C 337.198 140.114,337.478 138.061,336.399 136.689 L 335.542 135.600 324.194 135.600 C 312.920 135.600,312.841 135.594,312.223 134.711 C 311.269 133.349,311.414 131.027,312.500 130.270 C 313.836 129.338,345.828 129.283,347.620 130.210 M166.558 133.185 C 165.098 133.526,161.206 135.666,159.169 137.247 C 154.693 140.722,153.057 147.975,156.480 149.168 C 158.213 149.772,178.428 149.752,179.761 149.145 C 182.196 148.035,182.234 142.520,179.828 139.486 C 179.266 138.779,178.490 137.784,178.104 137.276 C 176.437 135.088,169.274 132.550,166.558 133.185 M63.334 135.881 C 62.638 136.277,61.336 137.007,60.440 137.505 C 59.545 138.003,58.498 138.903,58.115 139.505 C 57.733 140.107,57.190 140.744,56.910 140.920 C 56.207 141.361,55.243 143.310,54.519 145.751 C 54.185 146.878,53.544 148.520,53.095 149.400 C 51.884 151.772,51.883 161.426,53.094 163.800 C 53.543 164.680,54.290 166.660,54.755 168.200 C 55.869 171.890,61.174 177.600,63.489 177.600 C 64.074 177.600,65.595 177.816,66.871 178.079 C 74.059 179.564,81.373 175.195,84.787 167.376 L 86.173 164.200 86.186 156.200 L 86.199 148.200 84.864 145.400 C 82.875 141.229,81.398 139.112,79.712 138.022 C 78.880 137.484,77.781 136.674,77.268 136.222 C 75.915 135.028,65.295 134.768,63.334 135.881 M172.096 136.149 C 177.140 137.667,182.097 144.849,179.179 146.411 C 178.674 146.682,174.508 146.921,168.368 147.033 L 158.378 147.214 157.389 146.225 C 155.936 144.772,156.029 144.436,158.980 140.497 C 161.939 136.549,167.404 134.737,172.096 136.149 M74.709 137.632 C 79.247 139.165,82.996 144.248,83.632 149.728 C 85.859 168.938,79.220 178.085,64.677 175.841 C 61.709 175.383,57.054 170.580,56.392 167.293 C 56.138 166.032,55.451 164.010,54.865 162.800 C 53.310 159.588,53.306 153.561,54.856 150.600 C 55.432 149.500,56.036 147.790,56.198 146.800 C 57.394 139.497,66.653 134.912,74.709 137.632 M376.600 185.158 C 372.446 186.807,366.800 191.187,366.800 192.760 C 366.800 192.968,366.359 193.663,365.819 194.304 C 365.168 195.078,364.701 196.333,364.429 198.035 C 364.143 199.829,363.764 200.810,363.166 201.300 C 362.355 201.964,353.093 202.000,181.156 202.000 L 0.000 202.000 0.000 203.200 L 0.000 204.400 179.745 204.400 C 300.260 204.400,360.200 204.266,361.642 203.992 C 364.442 203.461,364.971 202.868,366.408 198.643 C 367.909 194.229,367.753 194.490,370.693 191.478 C 378.713 183.263,392.982 185.111,398.110 195.028 C 399.056 196.857,400.000 196.843,400.000 195.000 C 400.000 194.077,399.812 193.600,399.449 193.600 C 399.145 193.600,398.684 193.086,398.424 192.457 C 395.850 186.243,383.920 182.253,376.600 185.158 M379.077 190.396 C 376.750 190.813,374.872 192.165,371.696 195.711 C 368.188 199.630,368.615 207.983,372.530 212.000 C 377.061 216.650,382.026 218.113,387.240 216.337 C 389.480 215.574,394.345 211.166,395.399 208.946 C 396.326 206.992,396.234 199.388,395.264 197.800 C 391.632 191.853,385.809 189.190,379.077 190.396 M389.200 194.078 C 398.498 200.133,394.117 214.822,382.971 214.964 C 374.703 215.069,368.653 206.046,372.239 198.959 C 373.431 196.602,377.053 192.988,378.557 192.653 C 381.745 191.945,387.006 192.650,389.200 194.078 M397.996 212.100 C 397.560 212.815,397.200 213.580,397.196 213.800 C 397.174 215.149,388.288 220.800,386.188 220.800 C 385.913 220.800,385.264 221.144,384.744 221.565 L 383.800 222.329 383.600 269.065 L 383.400 315.800 191.700 315.900 C 64.366 315.967,0.000 316.135,0.000 316.400 C 0.000 317.255,383.769 316.918,384.543 316.063 C 385.157 315.384,385.208 311.708,385.195 269.241 C 385.187 243.894,385.276 223.000,385.394 222.810 C 385.511 222.620,386.551 222.263,387.704 222.017 C 388.857 221.771,390.432 221.152,391.205 220.642 C 391.978 220.131,392.990 219.593,393.455 219.446 C 394.407 219.144,398.800 214.692,398.800 214.030 C 398.800 213.793,399.070 213.600,399.400 213.600 C 399.819 213.600,400.000 213.178,400.000 212.200 C 400.000 210.383,399.071 210.337,397.996 212.100 M219.084 218.628 C 213.916 219.880,213.603 220.498,213.601 229.474 C 213.599 238.677,213.799 238.291,209.044 238.291 C 203.532 238.291,202.673 239.099,202.618 244.333 C 202.585 247.522,206.131 249.309,211.031 248.574 C 213.618 248.187,213.598 248.046,213.613 267.126 C 213.627 285.406,213.455 283.850,216.197 290.400 C 218.703 296.386,223.720 298.745,232.800 298.209 C 241.405 297.701,242.534 297.088,243.008 292.663 C 243.570 287.412,242.340 286.400,235.396 286.400 C 227.760 286.400,227.632 286.048,227.590 264.869 C 227.555 247.328,226.817 248.939,235.000 248.691 C 242.113 248.476,243.595 247.334,243.050 242.488 C 242.653 238.951,241.815 238.409,236.678 238.365 C 226.571 238.280,227.335 239.579,227.597 222.909 L 227.649 219.618 226.325 218.811 C 224.771 217.863,222.478 217.806,219.084 218.628 M225.208 228.800 C 225.482 240.640,224.979 239.975,234.000 240.418 C 240.852 240.755,239.918 240.507,240.615 242.175 C 242.142 245.829,241.349 246.301,233.343 246.507 C 224.437 246.736,225.103 245.128,225.274 266.002 L 225.400 281.400 226.913 284.497 C 228.885 288.530,229.407 288.800,235.249 288.800 C 240.244 288.800,241.200 289.192,241.200 291.243 C 241.200 299.771,218.586 297.342,217.461 288.693 C 217.325 287.644,216.895 286.204,216.507 285.493 C 215.870 284.328,215.780 282.424,215.600 266.311 L 215.400 248.421 214.490 247.511 C 213.692 246.712,213.062 246.575,209.371 246.393 C 204.613 246.159,204.255 245.937,204.557 243.414 C 204.849 240.972,206.936 239.924,210.600 240.379 C 214.834 240.905,215.598 239.431,215.605 230.720 C 215.608 227.134,215.722 223.786,215.857 223.281 C 216.261 221.774,221.023 219.587,223.600 219.725 L 225.000 219.800 225.208 228.800 M61.733 236.832 C 60.156 236.986,58.676 237.230,58.444 237.373 C 58.212 237.516,56.551 237.892,54.752 238.208 C 52.953 238.525,51.193 239.036,50.841 239.344 C 50.488 239.652,49.030 240.477,47.600 241.177 C 44.024 242.928,40.212 246.834,38.711 250.286 C 38.445 250.899,37.811 251.964,37.302 252.652 C 36.794 253.341,36.183 254.961,35.944 256.252 C 35.706 257.544,35.170 259.770,34.754 261.200 C 32.896 267.574,32.915 271.298,34.839 278.600 C 35.477 281.020,35.999 283.319,35.999 283.710 C 36.000 284.822,39.283 289.574,42.012 292.415 C 46.442 297.027,57.436 299.112,68.533 297.445 C 76.478 296.251,78.003 295.117,77.994 290.411 C 77.984 285.092,77.142 284.574,70.524 285.810 C 56.639 288.402,49.005 284.605,48.205 274.711 C 47.617 267.444,48.214 258.132,49.351 256.833 C 49.656 256.485,50.241 255.535,50.652 254.722 C 52.118 251.825,56.717 248.838,60.427 248.373 C 63.458 247.993,70.814 248.616,72.944 249.434 C 75.418 250.383,77.427 248.615,77.837 245.127 C 78.385 240.462,77.278 238.790,73.259 238.210 C 72.236 238.063,70.500 237.701,69.400 237.407 C 66.506 236.632,64.959 236.516,61.733 236.832 M104.403 237.649 C 93.351 240.561,87.495 247.424,83.967 261.600 C 83.509 263.440,83.518 273.808,83.979 275.600 C 86.987 287.289,90.648 292.645,97.800 295.822 C 105.463 299.226,120.757 299.080,130.119 295.514 C 132.240 294.706,132.984 291.537,131.820 288.274 C 130.697 285.124,129.525 284.680,125.258 285.785 C 109.565 289.850,99.747 286.173,97.729 275.478 C 97.074 272.001,97.210 269.293,98.070 268.748 C 98.361 268.564,105.530 268.408,114.000 268.404 C 134.602 268.393,134.400 268.460,134.400 261.647 C 134.400 255.182,133.782 251.752,132.175 249.306 C 131.419 248.155,130.800 247.122,130.800 247.011 C 130.800 246.069,126.936 241.987,125.134 241.024 C 123.960 240.397,122.693 239.619,122.319 239.297 C 121.944 238.974,120.504 238.471,119.119 238.180 C 117.733 237.889,115.616 237.369,114.413 237.025 C 111.364 236.154,109.680 236.258,104.403 237.649 M172.448 237.418 C 170.824 237.958,169.173 238.400,168.778 238.400 C 168.384 238.400,167.553 238.816,166.931 239.325 C 166.309 239.833,164.947 240.739,163.905 241.339 C 162.863 241.938,161.575 243.067,161.044 243.849 L 160.079 245.270 159.865 244.135 C 159.748 243.511,159.541 242.160,159.406 241.133 C 159.057 238.478,158.653 238.276,153.794 238.324 C 149.264 238.369,148.167 238.709,147.581 240.250 C 147.018 241.731,147.076 293.524,147.642 295.149 C 148.243 296.872,149.190 297.280,152.971 297.447 C 159.787 297.748,159.537 298.442,159.734 278.600 C 159.875 264.290,159.932 263.306,160.695 261.800 C 161.141 260.920,161.634 259.606,161.789 258.879 C 163.957 248.775,180.676 244.086,182.557 253.055 C 183.403 257.089,183.611 261.934,183.591 277.049 C 183.563 298.286,183.460 298.001,190.944 297.375 C 197.039 296.864,196.800 297.850,196.800 273.262 L 196.800 253.298 195.629 249.495 C 192.537 239.450,182.327 234.131,172.448 237.418 M272.000 237.140 C 270.790 237.561,268.848 238.127,267.685 238.397 C 266.522 238.666,265.326 239.131,265.027 239.430 C 264.729 239.728,263.514 240.402,262.329 240.926 C 259.498 242.178,252.800 249.911,252.800 251.928 C 252.800 252.224,252.244 253.733,251.564 255.282 C 249.663 259.614,249.387 277.928,251.176 281.078 C 251.401 281.475,252.286 283.330,253.142 285.200 C 254.708 288.624,257.329 291.642,261.200 294.481 C 263.431 296.117,268.285 297.564,273.082 298.024 C 275.457 298.252,277.594 298.502,277.832 298.580 C 278.808 298.902,290.830 297.149,293.582 296.285 C 297.526 295.045,298.200 294.165,298.200 290.251 C 298.200 285.291,296.894 284.404,291.584 285.756 C 284.674 287.515,276.332 287.619,271.533 286.006 C 267.205 284.551,263.711 279.382,262.960 273.321 C 262.321 268.161,261.744 268.324,280.585 268.352 C 301.504 268.384,300.800 268.636,300.800 261.134 C 300.800 256.170,298.702 249.203,296.442 246.659 C 296.022 246.186,294.898 244.923,293.943 243.851 C 289.151 238.469,277.987 235.055,272.000 237.140 M336.600 237.142 C 335.720 237.541,334.501 237.991,333.892 238.143 C 332.562 238.475,328.165 241.744,327.581 242.835 C 326.965 243.987,325.846 243.198,325.244 241.189 C 324.553 238.884,322.295 237.854,318.698 238.204 C 312.250 238.831,312.803 236.098,312.801 267.316 C 312.800 298.618,312.489 296.961,318.441 297.437 C 325.930 298.037,326.128 297.632,326.262 281.501 C 326.420 262.519,326.547 261.073,328.394 257.299 C 329.818 254.390,332.655 250.800,333.529 250.800 C 333.744 250.800,334.883 250.352,336.060 249.804 C 337.237 249.256,338.847 248.806,339.638 248.804 C 341.916 248.798,343.098 247.020,343.469 243.040 C 343.998 237.378,341.263 235.030,336.600 237.142 M73.102 240.417 C 75.561 241.486,76.388 244.138,74.854 246.032 L 74.108 246.953 68.754 246.499 C 57.401 245.536,53.900 246.924,48.427 254.554 C 45.405 258.768,44.775 272.712,47.261 280.365 C 47.851 282.181,53.129 287.372,55.092 288.066 C 57.207 288.815,69.194 288.801,71.464 288.048 C 73.793 287.275,75.032 287.678,75.598 289.393 C 76.540 292.249,74.977 294.128,71.271 294.596 C 70.242 294.726,68.219 295.099,66.776 295.424 C 59.597 297.043,50.612 295.687,45.131 292.156 C 32.587 284.074,33.370 252.068,46.298 244.462 C 47.291 243.878,48.755 242.970,49.551 242.445 C 54.371 239.264,67.793 238.108,73.102 240.417 M118.492 240.263 C 125.823 242.556,130.218 247.405,131.768 254.907 C 132.542 258.656,132.622 265.009,131.900 265.476 C 131.625 265.654,123.660 265.893,114.200 266.007 C 104.740 266.121,96.709 266.356,96.354 266.529 C 94.805 267.284,94.235 272.622,95.386 275.600 C 95.684 276.370,96.255 278.080,96.655 279.400 C 99.421 288.522,110.681 291.727,126.709 287.955 C 129.328 287.338,129.669 287.614,129.912 290.546 C 130.143 293.331,129.676 293.662,123.974 294.754 C 121.649 295.199,119.219 295.771,118.574 296.024 C 116.508 296.835,107.937 296.616,105.288 295.684 C 104.030 295.241,101.982 294.672,100.737 294.419 C 87.769 291.785,81.768 270.522,88.981 252.769 C 90.771 248.364,96.982 242.120,100.520 241.168 C 101.444 240.920,102.710 240.452,103.334 240.130 C 106.271 238.613,113.418 238.675,118.492 240.263 M185.273 240.212 C 189.863 242.114,192.416 245.391,193.834 251.200 C 194.556 254.156,194.647 292.221,193.936 293.781 C 193.496 294.746,193.307 294.800,190.345 294.800 C 185.647 294.800,185.962 296.173,185.991 275.865 C 186.022 254.653,185.525 251.325,181.852 248.099 C 176.012 242.972,163.039 248.084,160.801 256.395 C 160.577 257.227,160.141 258.117,159.832 258.373 C 158.641 259.362,158.378 262.631,158.279 277.684 C 158.157 296.241,158.199 296.137,151.372 294.638 C 149.114 294.142,149.172 294.843,149.151 267.818 C 149.129 238.541,148.771 240.572,154.000 240.359 C 157.010 240.236,157.781 240.997,158.257 244.559 C 158.715 247.986,159.758 248.511,161.759 246.320 C 168.018 239.468,177.520 237.000,185.273 240.212 M282.339 239.623 C 287.920 241.436,288.873 241.904,291.215 243.976 C 296.013 248.224,298.400 253.927,298.400 261.144 C 298.400 266.432,300.004 265.992,280.526 266.040 C 259.646 266.091,260.879 265.585,261.358 273.913 C 262.119 287.162,275.178 293.050,292.562 287.983 C 295.265 287.196,296.674 288.485,296.331 291.432 C 296.148 293.004,294.676 293.740,289.200 294.996 C 280.020 297.102,275.708 297.191,270.000 295.394 C 268.350 294.875,266.129 294.230,265.063 293.963 C 259.076 292.457,253.896 285.003,252.581 276.000 C 250.500 261.756,254.097 249.311,261.916 243.710 C 267.584 239.649,276.765 237.812,282.339 239.623 M341.120 239.280 C 341.409 239.569,341.600 240.969,341.600 242.800 C 341.600 246.372,341.303 246.800,338.826 246.800 C 333.312 246.800,325.965 254.228,325.414 260.357 C 325.284 261.811,324.912 264.834,324.588 267.075 C 324.185 269.867,324.000 274.563,324.000 281.993 L 324.000 292.836 323.018 293.818 C 321.757 295.079,317.445 295.253,316.028 294.100 L 315.168 293.400 315.176 268.200 C 315.180 254.340,315.188 242.690,315.192 242.310 C 315.202 241.433,316.891 240.555,319.247 240.202 C 321.937 239.799,322.955 241.133,322.591 244.583 C 322.132 248.930,324.265 251.055,325.919 247.900 C 328.661 242.668,338.774 236.934,341.120 239.280 M106.600 245.410 C 105.940 245.718,104.445 246.363,103.278 246.843 C 98.122 248.967,94.167 258.708,97.839 260.242 C 100.322 261.280,121.263 261.035,122.238 259.958 C 125.138 256.752,120.758 247.245,115.889 246.176 C 115.261 246.038,114.263 245.673,113.673 245.365 C 112.308 244.653,108.169 244.679,106.600 245.410 M271.266 245.965 C 268.031 247.176,264.881 249.836,263.969 252.124 C 263.689 252.826,263.158 253.850,262.788 254.400 C 260.893 257.222,261.697 260.189,264.467 260.595 C 268.540 261.192,287.931 260.642,288.663 259.909 C 289.813 258.758,289.550 255.826,288.026 252.800 C 284.578 245.951,278.222 243.359,271.266 245.965 M115.832 248.425 C 119.789 250.386,123.007 256.830,120.581 257.936 C 119.259 258.538,100.689 258.583,99.574 257.986 C 98.437 257.378,98.597 255.451,99.987 253.022 C 103.044 247.679,110.161 245.614,115.832 248.425 M280.283 247.996 C 283.916 249.272,286.786 252.926,286.796 256.286 C 286.802 258.290,286.219 258.400,275.600 258.400 C 263.685 258.400,263.306 258.247,265.156 254.174 C 267.748 248.468,274.168 245.846,280.283 247.996 " stroke="none" fill="#747477" fill-rule="evenodd"></path><path id="path3" d="M0.000 54.137 L 0.000 108.274 7.900 108.536 C 12.245 108.681,74.300 108.763,145.800 108.719 C 298.833 108.624,273.805 108.624,331.074 108.717 C 357.580 108.761,378.044 108.947,378.167 109.146 C 378.286 109.340,378.395 126.306,378.408 146.849 L 378.432 184.200 381.716 184.067 C 388.164 183.806,396.593 188.039,398.424 192.457 C 400.031 196.339,400.000 198.248,400.000 96.800 L 400.000 0.000 200.000 0.000 L 0.000 0.000 0.000 54.137 M398.800 214.030 C 398.800 214.692,394.407 219.144,393.455 219.446 C 392.990 219.593,391.978 220.131,391.205 220.642 C 390.432 221.152,388.857 221.771,387.704 222.017 C 386.551 222.263,385.511 222.620,385.394 222.810 C 385.276 223.000,385.187 243.894,385.195 269.241 C 385.208 311.708,385.157 315.384,384.543 316.063 C 383.897 316.777,377.879 316.800,191.938 316.800 L 0.000 316.800 0.000 358.400 L 0.000 400.000 200.000 400.000 L 400.000 400.000 400.000 306.800 C 400.000 224.222,399.932 213.600,399.400 213.600 C 399.070 213.600,398.800 213.793,398.800 214.030 " stroke="none" fill="#fbec04" fill-rule="evenodd"></path></g></svg>