<svg id="svg" version="1.1" xmlns="http://www.w3.org/2000/svg" xmlns:xlink="http://www.w3.org/1999/xlink" width="400" height="400" viewBox="0, 0, 400,400"><g id="svgg"><path id="path0" d="M202.400 0.555 C 202.400 0.903,201.750 1.207,200.653 1.371 C 197.494 1.845,194.583 5.011,194.367 8.208 C 193.863 15.682,197.594 18.196,210.400 19.013 C 212.710 19.160,216.130 19.612,218.000 20.018 C 219.870 20.423,222.660 20.948,224.200 21.185 C 228.860 21.900,243.751 26.382,246.000 27.747 C 247.463 28.635,250.403 29.935,253.800 31.195 C 258.416 32.908,266.796 36.868,279.400 43.290 C 281.692 44.458,288.085 48.484,289.065 49.376 C 289.321 49.609,291.571 51.237,294.065 52.994 C 298.257 55.947,302.882 60.094,305.229 63.005 C 305.763 63.668,307.730 65.314,309.600 66.663 C 315.662 71.037,329.145 86.003,332.245 91.800 C 332.834 92.900,334.667 95.870,336.320 98.400 C 337.973 100.930,339.788 103.720,340.354 104.600 C 340.920 105.480,342.427 107.482,343.702 109.048 C 346.086 111.975,351.107 121.289,352.159 124.735 C 352.878 127.089,354.661 131.950,356.512 136.600 C 358.261 140.994,358.983 143.151,360.245 147.743 C 360.780 149.691,361.375 151.581,361.568 151.943 C 361.760 152.304,362.126 154.040,362.381 155.800 C 362.636 157.560,363.108 159.939,363.429 161.086 C 366.607 172.418,367.981 197.214,366.387 214.439 C 364.783 231.782,363.542 238.309,359.225 252.120 C 358.551 254.276,358.000 256.295,358.000 256.608 C 358.000 257.166,353.483 269.458,352.805 270.745 C 352.616 271.105,351.161 274.100,349.572 277.400 C 347.983 280.700,345.657 284.930,344.403 286.800 C 343.148 288.670,341.335 291.537,340.372 293.171 C 336.788 299.257,326.675 312.887,322.693 317.000 C 322.054 317.660,320.532 319.613,319.310 321.339 C 316.388 325.471,312.890 328.901,308.871 331.579 C 307.072 332.777,305.600 333.869,305.600 334.006 C 305.600 334.391,296.909 341.403,293.455 343.804 C 285.938 349.029,282.630 351.455,280.243 353.494 C 278.946 354.602,277.176 355.720,276.309 355.980 C 275.442 356.240,272.993 357.394,270.866 358.546 C 263.761 362.394,257.279 365.343,253.031 366.661 C 251.948 366.997,250.688 367.504,250.231 367.787 C 249.774 368.070,247.330 368.933,244.800 369.703 C 229.159 374.466,219.393 376.558,208.800 377.415 C 204.730 377.744,200.590 378.191,199.600 378.409 C 194.514 379.524,174.728 379.259,168.415 377.991 C 167.417 377.790,164.170 377.430,161.200 377.191 C 158.230 376.952,154.270 376.418,152.400 376.004 C 150.530 375.590,147.290 374.962,145.200 374.608 C 140.681 373.844,131.333 371.386,128.800 370.297 C 127.810 369.871,126.050 369.271,124.890 368.964 C 123.729 368.656,122.379 368.152,121.890 367.843 C 121.400 367.535,119.920 366.977,118.600 366.603 C 117.280 366.230,116.015 365.773,115.789 365.587 C 115.563 365.402,112.804 364.260,109.658 363.050 C 106.511 361.840,102.466 360.003,100.668 358.968 C 98.871 357.933,96.680 356.728,95.800 356.289 C 94.920 355.851,92.940 354.436,91.400 353.146 C 89.860 351.855,86.633 349.453,84.228 347.807 C 81.824 346.162,79.754 344.671,79.628 344.495 C 79.384 344.151,76.596 342.399,73.488 340.637 C 68.914 338.043,56.284 326.444,53.484 322.265 C 51.898 319.900,46.037 313.248,45.093 312.743 C 40.952 310.526,38.137 310.294,34.989 311.908 C 30.412 314.254,28.736 320.267,31.334 325.017 C 33.059 328.172,41.417 337.077,45.702 340.326 C 47.778 341.900,52.443 346.129,56.070 349.725 C 60.993 354.605,63.844 357.066,67.317 359.431 C 69.876 361.174,72.922 363.260,74.085 364.067 C 75.248 364.874,76.650 365.650,77.200 365.792 C 77.750 365.934,78.830 366.463,79.600 366.968 C 80.370 367.473,83.160 369.108,85.800 370.601 C 97.725 377.348,101.360 379.093,108.400 381.448 C 110.050 382.000,113.290 383.420,115.600 384.602 C 121.524 387.635,124.008 388.665,126.675 389.194 C 127.954 389.448,129.900 390.008,131.000 390.440 C 132.100 390.872,134.350 391.465,136.000 391.759 C 137.650 392.052,140.170 392.582,141.600 392.936 C 143.030 393.290,146.000 393.852,148.200 394.184 C 150.400 394.516,153.640 395.045,155.400 395.358 C 171.881 398.296,202.312 398.121,218.800 394.993 C 221.550 394.472,224.700 393.933,225.800 393.795 C 226.900 393.658,228.970 393.210,230.400 392.800 C 231.830 392.391,234.170 391.854,235.600 391.609 C 237.030 391.363,239.280 390.822,240.600 390.407 C 241.920 389.991,244.080 389.443,245.400 389.189 C 246.720 388.935,248.160 388.501,248.600 388.224 C 249.040 387.948,250.120 387.485,251.000 387.197 C 251.880 386.909,254.490 385.645,256.800 384.389 C 259.110 383.132,262.170 381.687,263.600 381.177 C 265.030 380.667,266.560 380.034,267.000 379.769 C 267.440 379.505,268.520 379.065,269.400 378.791 C 270.280 378.516,271.720 377.884,272.600 377.385 C 273.480 376.887,274.830 376.348,275.600 376.189 C 276.370 376.031,277.450 375.595,278.000 375.221 C 278.550 374.847,281.700 373.045,285.000 371.217 C 291.554 367.585,297.340 363.902,302.000 360.394 C 303.650 359.152,306.260 357.448,307.800 356.607 C 309.768 355.533,312.025 353.680,315.400 350.368 C 328.150 337.854,334.387 331.555,336.370 329.189 C 337.563 327.765,339.649 325.514,341.005 324.187 C 342.362 322.861,344.636 319.980,346.060 317.787 C 347.483 315.593,349.636 312.449,350.844 310.799 C 355.032 305.081,363.077 291.282,363.922 288.367 C 364.140 287.615,365.435 284.570,366.800 281.600 C 368.166 278.630,370.060 274.130,371.010 271.600 C 371.960 269.070,373.628 265.110,374.717 262.800 C 377.215 257.502,381.252 243.381,382.208 236.600 C 382.363 235.500,382.841 232.890,383.269 230.800 C 385.988 217.542,386.088 177.697,383.428 167.600 C 383.109 166.390,382.550 163.240,382.184 160.600 C 380.887 151.225,378.759 143.896,374.637 134.600 C 373.466 131.960,371.828 127.730,370.997 125.200 C 369.536 120.752,366.498 113.738,364.068 109.200 C 363.420 107.990,362.127 105.560,361.195 103.800 C 360.263 102.040,358.713 99.211,357.750 97.514 C 356.788 95.817,356.000 94.297,356.000 94.138 C 356.000 92.458,344.705 76.716,341.448 73.857 C 338.812 71.542,334.506 66.654,331.342 62.383 C 327.529 57.236,313.315 44.233,308.404 41.400 C 307.260 40.740,305.216 39.443,303.862 38.518 C 302.508 37.592,299.420 35.489,297.000 33.844 C 294.580 32.199,292.060 30.281,291.400 29.581 C 290.740 28.882,289.480 27.847,288.600 27.281 C 284.611 24.718,275.072 19.600,274.284 19.600 C 273.994 19.600,272.867 19.162,271.779 18.626 C 270.690 18.090,268.810 17.262,267.600 16.787 C 266.390 16.312,264.050 15.389,262.400 14.736 C 256.047 12.224,249.679 9.898,246.800 9.040 C 245.150 8.548,243.406 7.932,242.925 7.672 C 242.444 7.412,240.647 7.004,238.931 6.765 C 237.216 6.527,235.089 6.071,234.206 5.752 C 232.702 5.210,226.085 3.935,217.800 2.591 C 215.820 2.270,211.815 1.795,208.900 1.535 C 204.993 1.188,203.600 0.924,203.600 0.532 C 203.600 0.239,203.330 0.000,203.000 0.000 C 202.670 0.000,202.400 0.250,202.400 0.555 " stroke="none" fill="#101010" fill-rule="evenodd"></path><path id="path1" d="M199.600 0.551 C 199.600 0.855,199.062 1.326,198.404 1.598 C 189.871 5.133,193.414 17.963,203.102 18.612 L 205.400 18.766 203.243 18.420 C 200.056 17.908,196.970 16.143,195.572 14.032 C 192.407 9.254,195.245 2.182,200.653 1.371 C 202.831 1.045,203.095 0.000,201.000 0.000 C 200.077 0.000,199.600 0.188,199.600 0.551 M203.600 0.532 C 203.600 0.924,204.993 1.188,208.900 1.535 C 211.815 1.795,215.820 2.270,217.800 2.591 C 226.201 3.953,232.712 5.213,234.293 5.782 C 235.225 6.117,237.025 6.477,238.293 6.582 L 240.600 6.773 238.400 6.378 C 237.190 6.161,235.480 5.713,234.600 5.382 C 233.720 5.051,231.020 4.437,228.600 4.018 C 226.180 3.598,222.940 2.988,221.400 2.661 C 219.860 2.334,216.665 1.837,214.300 1.558 C 211.277 1.200,210.000 0.893,210.000 0.525 C 210.000 0.136,209.173 0.000,206.800 0.000 C 204.404 0.000,203.600 0.134,203.600 0.532 M242.200 7.450 C 243.080 7.789,245.150 8.486,246.800 9.000 C 249.741 9.916,256.447 12.382,262.400 14.736 C 264.050 15.389,266.390 16.312,267.600 16.787 C 268.810 17.262,270.690 18.090,271.779 18.626 C 272.867 19.162,273.994 19.600,274.284 19.600 C 275.072 19.600,284.611 24.718,288.600 27.281 C 289.480 27.847,290.740 28.882,291.400 29.581 C 292.060 30.281,294.580 32.199,297.000 33.844 C 299.420 35.489,302.508 37.592,303.862 38.518 C 305.216 39.443,307.260 40.740,308.404 41.400 C 313.315 44.233,327.529 57.236,331.342 62.383 C 334.506 66.654,338.812 71.542,341.448 73.857 C 344.705 76.716,356.000 92.458,356.000 94.138 C 356.000 94.297,356.788 95.817,357.750 97.514 C 358.713 99.211,360.263 102.040,361.195 103.800 C 362.127 105.560,363.420 107.990,364.068 109.200 C 366.498 113.738,369.536 120.752,370.997 125.200 C 371.828 127.730,373.466 131.960,374.637 134.600 C 378.759 143.896,380.887 151.225,382.184 160.600 C 382.550 163.240,383.109 166.390,383.428 167.600 C 386.088 177.697,385.988 217.542,383.269 230.800 C 382.841 232.890,382.363 235.500,382.208 236.600 C 381.252 243.381,377.215 257.502,374.717 262.800 C 373.628 265.110,371.960 269.070,371.010 271.600 C 370.060 274.130,368.166 278.630,366.800 281.600 C 365.435 284.570,364.140 287.615,363.922 288.367 C 363.077 291.282,355.032 305.081,350.844 310.799 C 349.636 312.449,347.483 315.593,346.060 317.787 C 344.636 319.980,342.362 322.861,341.005 324.187 C 339.649 325.514,337.563 327.765,336.370 329.189 C 334.387 331.555,328.150 337.854,315.400 350.368 C 312.025 353.680,309.768 355.533,307.800 356.607 C 306.260 357.448,303.650 359.152,302.000 360.394 C 297.340 363.902,291.554 367.585,285.000 371.217 C 281.700 373.045,278.550 374.847,278.000 375.221 C 277.450 375.595,276.370 376.031,275.600 376.189 C 274.830 376.348,273.480 376.887,272.600 377.385 C 271.720 377.884,270.280 378.516,269.400 378.791 C 268.520 379.065,267.440 379.505,267.000 379.769 C 266.560 380.034,265.030 380.667,263.600 381.177 C 262.170 381.687,259.110 383.132,256.800 384.389 C 254.490 385.645,251.880 386.909,251.000 387.197 C 250.120 387.485,249.040 387.948,248.600 388.224 C 248.160 388.501,246.720 388.935,245.400 389.189 C 244.080 389.443,241.920 389.991,240.600 390.407 C 239.280 390.822,237.030 391.363,235.600 391.609 C 234.170 391.854,231.830 392.391,230.400 392.800 C 228.970 393.210,226.900 393.658,225.800 393.795 C 224.700 393.933,221.550 394.472,218.800 394.993 C 202.312 398.121,171.881 398.296,155.400 395.358 C 153.640 395.045,150.400 394.516,148.200 394.183 C 146.000 393.851,143.120 393.311,141.800 392.983 C 140.480 392.655,137.870 392.105,136.000 391.761 C 134.130 391.417,131.856 390.809,130.946 390.410 C 130.037 390.012,128.507 389.581,127.546 389.453 L 125.800 389.220 127.602 389.743 C 128.594 390.032,129.775 390.466,130.229 390.708 C 130.682 390.951,132.841 391.508,135.026 391.946 C 137.212 392.385,139.521 392.941,140.158 393.184 C 140.795 393.426,142.685 393.806,144.358 394.028 C 146.031 394.250,149.650 394.870,152.400 395.406 C 169.064 398.653,201.033 398.849,217.400 395.804 C 220.260 395.272,224.285 394.549,226.346 394.198 C 228.406 393.847,230.836 393.309,231.746 393.003 C 232.655 392.697,235.110 392.079,237.200 391.628 C 246.689 389.584,251.636 387.875,257.572 384.592 C 259.398 383.582,262.176 382.237,263.746 381.603 C 265.316 380.969,268.130 379.786,270.000 378.973 C 271.870 378.160,274.369 377.149,275.553 376.725 C 277.700 375.957,288.624 369.978,292.800 367.286 C 294.010 366.506,295.720 365.408,296.600 364.847 C 297.480 364.286,299.820 362.631,301.800 361.169 C 303.780 359.708,306.900 357.644,308.732 356.583 C 310.919 355.317,312.813 353.820,314.243 352.227 C 315.442 350.892,318.356 348.000,320.720 345.800 C 329.019 338.076,343.880 322.237,345.942 318.919 C 346.744 317.628,349.040 314.238,351.044 311.386 C 356.455 303.685,363.264 292.071,364.402 288.600 C 364.691 287.720,366.230 284.120,367.823 280.600 C 369.416 277.080,371.265 272.645,371.932 270.745 C 372.600 268.845,373.857 265.875,374.725 264.145 C 377.505 258.613,381.517 244.828,382.769 236.513 C 383.008 234.925,383.475 232.495,383.806 231.113 C 385.732 223.085,386.755 195.492,385.589 183.000 C 385.383 180.800,385.033 176.691,384.810 173.869 C 384.587 171.047,384.138 167.807,383.812 166.669 C 383.487 165.531,382.950 162.530,382.619 160.000 C 381.491 151.372,378.264 140.655,374.428 132.800 C 373.730 131.370,372.829 129.030,372.426 127.600 C 370.899 122.176,367.773 115.155,361.838 103.819 C 360.807 101.849,359.811 100.049,359.626 99.819 C 359.440 99.588,357.932 96.859,356.274 93.753 C 352.395 86.484,346.333 77.974,342.085 73.832 C 338.427 70.265,333.747 64.935,332.035 62.385 C 329.161 58.107,314.083 44.275,309.084 41.332 C 307.498 40.398,305.120 38.845,303.800 37.882 C 302.480 36.919,299.510 34.859,297.200 33.304 C 294.890 31.750,292.550 29.993,292.000 29.399 C 289.936 27.173,276.173 19.200,274.393 19.200 C 274.022 19.200,272.915 18.773,271.933 18.250 C 270.950 17.728,269.709 17.169,269.173 17.009 C 268.638 16.849,267.300 16.293,266.200 15.774 C 262.616 14.081,253.297 10.604,245.535 8.065 C 241.555 6.762,239.359 6.358,242.200 7.450 M206.707 19.090 C 207.426 19.179,208.506 19.177,209.107 19.086 C 209.708 18.995,209.120 18.922,207.800 18.924 C 206.480 18.926,205.988 19.001,206.707 19.090 M213.200 19.622 C 214.630 19.797,216.970 20.214,218.400 20.551 C 219.830 20.887,222.252 21.360,223.781 21.602 C 231.110 22.760,243.893 27.007,250.800 30.578 C 251.350 30.863,252.790 31.407,254.000 31.787 C 255.819 32.359,265.605 36.974,278.242 43.220 C 285.073 46.597,298.528 56.451,303.043 61.384 C 304.767 63.268,307.263 65.561,308.589 66.481 C 314.767 70.767,327.883 85.316,332.136 92.600 C 335.569 98.480,339.772 104.815,342.701 108.525 C 345.373 111.910,350.884 122.020,351.790 125.200 C 351.947 125.750,353.213 129.260,354.603 133.000 C 359.463 146.071,361.188 151.689,362.454 158.576 C 362.901 161.009,363.516 164.260,363.820 165.800 C 367.439 184.118,367.321 214.722,363.563 232.800 C 363.128 234.890,362.520 237.860,362.210 239.400 C 361.900 240.940,360.985 244.450,360.175 247.200 C 359.366 249.950,358.307 253.640,357.822 255.400 C 356.988 258.429,354.641 264.794,352.071 271.000 C 350.057 275.863,346.393 282.863,343.802 286.800 C 342.426 288.890,340.153 292.428,338.750 294.662 C 333.816 302.521,326.758 311.958,322.191 316.800 C 321.257 317.790,319.721 319.748,318.776 321.152 C 316.530 324.489,312.416 328.632,309.277 330.717 C 307.897 331.634,305.020 333.894,302.884 335.739 C 298.949 339.139,293.268 343.432,286.924 347.800 C 285.006 349.120,282.082 351.325,280.424 352.699 C 278.565 354.242,276.643 355.449,275.406 355.852 C 274.303 356.212,273.218 356.648,272.996 356.823 C 272.014 357.592,260.476 363.336,258.065 364.255 C 256.599 364.815,254.230 365.711,252.800 366.248 C 251.370 366.784,249.660 367.492,249.000 367.820 C 247.837 368.398,242.686 369.977,238.600 371.008 C 237.500 371.286,234.980 371.991,233.000 372.576 C 226.705 374.435,214.227 376.714,208.800 376.997 C 206.050 377.140,202.000 377.524,199.800 377.851 C 193.278 378.820,182.731 378.989,175.800 378.235 C 168.723 377.465,161.744 377.009,165.800 377.581 C 167.120 377.767,169.640 378.158,171.400 378.450 C 175.705 379.162,196.041 379.173,199.400 378.464 C 200.720 378.185,205.040 377.701,209.000 377.387 C 219.350 376.568,229.202 374.453,244.800 369.703 C 247.330 368.933,249.774 368.070,250.231 367.787 C 250.688 367.504,251.948 366.997,253.031 366.661 C 257.279 365.343,263.761 362.394,270.866 358.546 C 272.993 357.394,275.442 356.240,276.309 355.980 C 277.176 355.720,278.946 354.602,280.243 353.494 C 282.630 351.455,285.938 349.029,293.455 343.804 C 296.909 341.403,305.600 334.391,305.600 334.006 C 305.600 333.869,307.072 332.777,308.871 331.579 C 312.890 328.901,316.388 325.471,319.310 321.339 C 320.532 319.613,322.054 317.660,322.693 317.000 C 326.675 312.887,336.788 299.257,340.372 293.171 C 341.335 291.537,343.148 288.670,344.403 286.800 C 345.657 284.930,347.983 280.700,349.572 277.400 C 351.161 274.100,352.616 271.105,352.805 270.745 C 353.483 269.458,358.000 257.166,358.000 256.608 C 358.000 256.295,358.551 254.276,359.225 252.120 C 363.542 238.309,364.783 231.782,366.387 214.439 C 367.981 197.214,366.607 172.418,363.429 161.086 C 363.108 159.939,362.636 157.560,362.381 155.800 C 362.126 154.040,361.760 152.304,361.568 151.943 C 361.375 151.581,360.780 149.691,360.245 147.743 C 358.983 143.151,358.261 140.994,356.512 136.600 C 354.661 131.950,352.878 127.089,352.159 124.735 C 351.107 121.289,346.086 111.975,343.702 109.048 C 342.427 107.482,340.920 105.480,340.354 104.600 C 339.788 103.720,337.973 100.930,336.320 98.400 C 334.667 95.870,332.834 92.900,332.245 91.800 C 329.145 86.003,315.662 71.037,309.600 66.663 C 307.730 65.314,305.763 63.668,305.229 63.005 C 302.882 60.094,298.257 55.947,294.065 52.994 C 291.571 51.237,289.321 49.609,289.065 49.376 C 288.085 48.484,281.692 44.458,279.400 43.290 C 266.796 36.868,258.416 32.908,253.800 31.195 C 250.403 29.935,247.463 28.635,246.000 27.747 C 243.751 26.382,228.860 21.900,224.200 21.185 C 222.660 20.948,219.827 20.405,217.904 19.977 C 215.982 19.550,213.552 19.224,212.504 19.253 C 210.696 19.302,210.731 19.321,213.200 19.622 M296.200 95.782 C 289.299 99.406,289.122 105.279,295.667 113.515 C 298.808 117.469,302.762 123.562,304.546 127.200 C 305.356 128.850,307.524 132.385,309.364 135.056 C 311.204 137.726,313.080 140.876,313.533 142.056 C 313.986 143.235,315.109 146.000,316.028 148.200 C 316.948 150.400,318.383 154.990,319.219 158.400 C 320.054 161.810,320.929 165.101,321.164 165.713 C 324.630 174.758,325.877 200.258,323.681 217.200 C 322.063 229.683,317.306 247.804,314.808 251.000 C 314.636 251.220,313.881 253.110,313.130 255.200 C 312.182 257.838,310.852 260.361,308.782 263.451 C 307.142 265.898,304.990 269.224,304.000 270.841 C 303.010 272.457,300.213 276.574,297.784 279.990 C 295.356 283.405,292.869 287.062,292.259 288.115 C 290.370 291.373,279.878 301.542,275.352 304.501 C 273.178 305.922,270.726 307.606,269.903 308.242 C 269.079 308.879,267.494 310.030,266.381 310.800 C 265.267 311.570,263.960 312.530,263.478 312.934 C 262.653 313.623,260.582 314.919,254.400 318.614 C 252.970 319.469,250.900 320.856,249.800 321.698 C 247.224 323.667,244.319 325.046,237.400 327.582 C 227.723 331.130,223.813 332.360,220.760 332.818 C 219.132 333.062,216.718 333.589,215.396 333.988 C 214.074 334.388,210.924 334.925,208.396 335.182 C 205.868 335.438,202.180 335.935,200.200 336.285 C 195.622 337.095,178.633 337.210,173.600 336.465 C 171.730 336.188,167.770 335.701,164.800 335.382 C 161.830 335.063,158.230 334.454,156.800 334.029 C 155.370 333.603,153.030 333.058,151.600 332.816 C 150.170 332.575,148.280 332.118,147.400 331.800 C 146.520 331.483,144.625 330.953,143.188 330.623 C 137.877 329.403,127.330 325.028,123.725 322.549 C 118.966 319.277,117.609 318.447,111.400 315.010 C 99.488 308.416,85.703 296.358,79.460 287.072 C 78.175 285.161,76.173 282.785,75.013 281.793 C 73.852 280.801,72.389 279.227,71.762 278.295 C 71.135 277.363,70.228 276.110,69.746 275.510 C 67.131 272.260,61.078 261.062,58.983 255.600 C 58.266 253.730,56.942 250.446,56.041 248.302 C 49.793 233.435,47.014 216.098,47.273 193.600 C 47.433 179.765,47.080 178.789,41.222 176.852 C 34.742 174.710,29.691 177.716,28.371 184.500 C 27.704 187.928,27.853 209.897,28.576 214.816 C 28.914 217.117,29.469 221.139,29.808 223.754 C 30.794 231.345,32.253 237.492,35.023 245.721 C 36.445 249.945,37.865 254.480,38.180 255.800 C 39.207 260.114,42.256 266.282,46.088 271.800 C 48.546 275.339,54.075 284.562,55.114 286.858 C 56.864 290.723,70.358 307.149,74.050 309.908 C 75.013 310.627,76.880 312.004,78.200 312.969 C 79.520 313.934,82.328 316.509,84.441 318.693 C 88.766 323.163,90.586 324.622,98.715 330.130 C 104.305 333.919,107.924 335.979,110.779 336.998 C 111.560 337.278,114.450 338.595,117.200 339.926 C 124.505 343.463,130.567 345.891,136.000 347.455 C 137.870 347.994,142.730 349.489,146.800 350.779 C 153.273 352.831,161.065 354.586,167.200 355.374 C 184.230 357.562,213.106 355.414,224.400 351.118 C 230.085 348.955,238.744 346.123,241.929 345.384 C 243.365 345.052,245.093 344.446,245.770 344.038 C 246.446 343.631,247.720 343.068,248.600 342.788 C 249.480 342.508,250.563 342.043,251.007 341.755 C 251.450 341.466,252.620 340.946,253.607 340.599 C 255.847 339.810,264.743 334.951,269.000 332.192 C 270.760 331.051,273.460 329.432,275.000 328.594 C 280.971 325.344,284.935 321.891,299.103 307.600 C 311.676 294.919,313.850 292.396,316.689 287.200 C 317.471 285.770,318.512 283.970,319.004 283.200 C 321.323 279.567,325.649 271.899,326.901 269.200 C 330.446 261.561,332.229 257.296,332.600 255.568 C 332.762 254.816,333.585 252.375,334.429 250.144 C 335.273 247.914,336.609 243.504,337.398 240.344 C 338.186 237.185,339.623 231.540,340.590 227.800 C 344.458 212.846,345.164 186.614,342.018 174.800 C 340.214 168.026,338.778 162.201,337.877 158.000 C 336.774 152.854,332.941 141.682,330.398 136.200 C 329.480 134.220,328.002 130.800,327.113 128.600 C 324.395 121.866,321.923 117.617,314.528 106.962 C 307.801 97.271,301.123 93.197,296.200 95.782 M37.156 310.372 C 30.334 312.519,27.554 319.880,31.305 325.869 C 33.821 329.888,42.108 338.380,47.046 342.000 C 48.096 342.770,51.478 345.911,54.561 348.980 C 57.644 352.049,61.074 355.292,62.183 356.186 C 65.918 359.197,74.639 365.138,76.828 366.164 C 78.023 366.724,79.540 367.505,80.200 367.899 C 91.752 374.801,100.265 379.080,107.600 381.670 C 109.470 382.330,112.710 383.765,114.800 384.860 C 119.072 387.096,124.120 389.209,125.130 389.182 C 125.499 389.173,125.170 388.921,124.400 388.623 C 120.385 387.071,118.691 386.305,115.451 384.576 C 113.499 383.534,110.259 382.095,108.251 381.378 C 100.662 378.667,99.145 377.989,92.400 374.301 C 88.286 372.052,80.903 367.822,79.600 366.968 C 78.830 366.463,77.750 365.934,77.200 365.792 C 76.650 365.650,75.248 364.874,74.085 364.067 C 72.922 363.260,69.876 361.174,67.317 359.431 C 63.844 357.066,60.993 354.605,56.070 349.725 C 52.443 346.129,47.778 341.900,45.702 340.326 C 41.417 337.077,33.059 328.172,31.334 325.017 C 28.693 320.190,30.436 314.196,35.177 311.797 C 38.129 310.303,41.055 310.582,45.093 312.743 C 46.037 313.248,51.898 319.900,53.484 322.265 C 56.284 326.444,68.914 338.043,73.488 340.637 C 76.596 342.399,79.384 344.151,79.628 344.495 C 79.754 344.671,81.824 346.162,84.228 347.807 C 86.633 349.453,89.860 351.855,91.400 353.146 C 92.940 354.436,94.920 355.851,95.800 356.289 C 96.680 356.728,98.871 357.933,100.668 358.968 C 102.466 360.003,106.511 361.840,109.658 363.050 C 112.804 364.260,115.563 365.402,115.789 365.587 C 116.015 365.773,117.278 366.237,118.595 366.618 C 119.913 367.000,121.625 367.643,122.401 368.047 C 123.176 368.451,124.438 368.880,125.205 369.000 C 126.598 369.217,126.598 369.216,125.000 368.651 C 124.120 368.339,122.687 367.705,121.815 367.242 C 120.944 366.779,120.025 366.400,119.773 366.400 C 116.461 366.400,96.247 356.576,91.800 352.805 C 90.480 351.686,87.900 349.742,86.067 348.485 C 84.234 347.228,81.444 345.260,79.867 344.111 C 78.290 342.961,75.947 341.456,74.661 340.766 C 70.371 338.465,57.300 326.675,54.102 322.223 C 47.683 313.288,41.541 308.992,37.156 310.372 M128.600 370.171 C 131.181 371.339,140.327 373.784,145.200 374.608 C 147.290 374.962,150.573 375.600,152.496 376.026 C 154.418 376.451,156.488 376.777,157.096 376.750 C 157.962 376.711,157.855 376.635,156.600 376.401 C 143.947 374.035,132.202 371.274,129.249 369.972 C 128.286 369.547,127.296 369.215,127.049 369.233 C 126.802 369.251,127.500 369.673,128.600 370.171 M159.507 377.090 C 160.226 377.179,161.306 377.177,161.907 377.086 C 162.508 376.995,161.920 376.922,160.600 376.924 C 159.280 376.926,158.788 377.001,159.507 377.090 " stroke="none" fill="#bc2737" fill-rule="evenodd"></path><path id="path2" d="M191.330 84.411 C 189.062 85.119,188.192 87.149,188.247 91.600 C 188.332 98.362,189.530 99.619,196.825 100.603 C 202.237 101.332,213.564 104.064,221.200 106.482 C 225.307 107.782,228.003 108.995,233.013 111.799 C 245.812 118.960,252.985 124.602,258.448 131.800 C 258.948 132.460,260.373 134.170,261.613 135.600 C 266.695 141.459,269.571 145.594,272.084 150.657 C 273.499 153.506,275.017 156.370,275.458 157.019 C 279.040 162.293,279.301 162.822,280.000 166.220 C 280.269 167.529,280.983 169.680,281.588 171.000 C 284.237 176.785,285.670 195.645,284.385 207.800 C 282.868 222.139,282.676 223.080,279.541 231.555 C 277.186 237.921,276.412 239.503,274.409 242.036 C 273.578 243.088,272.217 245.175,271.386 246.674 C 270.554 248.173,269.026 250.390,267.990 251.600 C 266.067 253.846,264.680 256.298,263.395 259.723 C 261.985 263.483,243.654 280.400,240.990 280.400 C 240.524 280.400,232.336 285.166,230.200 286.681 C 224.260 290.892,220.016 292.360,205.000 295.396 C 196.261 297.162,194.929 297.269,183.800 297.094 L 173.000 296.925 165.400 295.250 C 161.220 294.328,156.918 293.400,155.840 293.186 C 154.149 292.851,145.897 289.012,144.528 287.923 C 143.874 287.404,137.710 284.400,137.298 284.400 C 137.113 284.400,135.711 283.574,134.181 282.565 C 132.652 281.555,130.050 279.908,128.400 278.905 C 125.198 276.958,121.445 273.748,113.901 266.503 C 107.033 259.907,103.369 258.445,99.029 260.568 C 91.990 264.012,95.002 272.987,106.400 282.529 C 108.930 284.647,111.596 287.106,112.325 287.993 C 114.478 290.613,119.240 294.203,123.715 296.578 C 124.642 297.070,126.300 297.980,127.400 298.600 C 128.500 299.220,130.120 300.071,131.000 300.490 C 131.880 300.909,134.400 302.144,136.600 303.234 C 142.428 306.121,152.831 310.182,156.000 310.807 C 156.990 311.003,160.230 311.463,163.200 311.831 C 166.170 312.199,169.590 312.647,170.800 312.826 C 178.092 313.908,199.440 313.613,204.117 312.365 C 204.951 312.142,208.232 311.618,211.408 311.199 C 214.584 310.780,217.501 310.273,217.891 310.072 C 218.281 309.871,219.860 309.479,221.400 309.202 C 223.429 308.836,224.974 308.220,227.011 306.963 C 228.557 306.008,231.077 304.708,232.611 304.073 C 234.145 303.438,237.502 301.902,240.071 300.659 C 242.640 299.417,244.874 298.400,245.036 298.400 C 245.516 298.400,249.262 295.942,251.200 294.355 C 252.190 293.545,254.304 292.045,255.897 291.024 C 257.490 290.002,259.290 288.508,259.897 287.704 C 261.992 284.928,266.213 280.697,270.200 277.377 C 274.299 273.963,276.034 272.105,278.393 268.600 C 279.133 267.500,280.568 265.610,281.581 264.400 C 284.150 261.331,285.326 259.453,286.771 256.111 C 287.457 254.522,288.540 252.362,289.176 251.311 C 289.813 250.260,290.723 248.140,291.198 246.600 C 292.080 243.745,292.715 242.295,294.793 238.400 C 295.438 237.190,295.979 235.750,295.996 235.200 C 296.013 234.650,296.393 233.210,296.841 232.000 C 299.464 224.918,300.726 216.212,301.081 202.763 C 301.434 189.388,299.519 171.430,297.254 166.866 C 296.552 165.452,295.883 163.408,293.173 154.400 C 291.734 149.614,290.795 147.612,288.247 143.891 C 287.258 142.445,286.070 140.520,285.607 139.613 C 285.144 138.706,283.738 136.538,282.483 134.796 C 281.227 133.054,279.423 130.227,278.474 128.514 C 277.241 126.289,276.159 124.943,274.684 123.800 C 273.549 122.920,270.996 120.543,269.010 118.517 C 264.100 113.509,254.073 104.464,252.600 103.714 C 251.940 103.378,249.293 101.858,246.718 100.337 C 244.142 98.815,241.447 97.366,240.729 97.115 C 240.011 96.865,237.528 95.588,235.212 94.279 C 227.563 89.953,223.709 88.338,216.800 86.562 C 210.065 84.832,194.261 83.496,191.330 84.411 " stroke="none" fill="#5bc8d8" fill-rule="evenodd"></path><path id="path3" d="M0.000 200.000 L 0.000 400.000 83.600 400.000 C 152.290 400.000,167.200 399.906,167.200 399.476 C 167.200 399.081,165.434 398.832,160.040 398.468 C 156.101 398.203,152.006 397.714,150.940 397.381 C 149.873 397.048,146.963 396.515,144.474 396.196 C 141.985 395.876,139.105 395.345,138.074 395.015 C 137.043 394.685,133.879 393.773,131.043 392.988 C 128.206 392.203,125.416 391.324,124.843 391.034 C 124.269 390.744,123.080 390.383,122.200 390.232 C 121.320 390.081,119.610 389.497,118.400 388.936 C 117.190 388.374,115.120 387.413,113.800 386.799 C 109.391 384.751,107.812 384.083,106.200 383.583 C 104.761 383.136,96.599 379.273,94.600 378.093 C 94.160 377.833,93.170 377.342,92.400 377.003 C 91.630 376.664,90.550 376.125,90.000 375.806 C 89.450 375.488,86.992 374.135,84.537 372.799 C 82.083 371.464,79.856 370.108,79.588 369.786 C 79.321 369.464,78.868 369.200,78.582 369.200 C 78.296 369.200,77.553 368.776,76.931 368.258 C 76.309 367.740,75.138 367.100,74.329 366.837 C 70.850 365.703,61.595 358.795,55.535 352.808 C 47.805 345.172,45.643 343.252,42.400 341.141 C 39.353 339.158,29.858 328.131,28.265 324.725 C 26.302 320.530,27.464 314.556,30.745 311.976 C 31.428 311.439,32.523 310.587,33.179 310.081 C 35.512 308.284,41.810 308.171,44.351 309.881 C 44.928 310.269,46.061 310.890,46.870 311.260 C 48.898 312.190,53.560 317.287,55.172 320.336 C 56.967 323.733,70.517 335.874,76.333 339.296 C 78.690 340.683,79.796 341.469,82.400 343.606 C 83.591 344.584,87.500 347.200,87.770 347.200 C 88.245 347.200,91.656 349.752,94.200 352.011 C 95.740 353.378,97.720 354.827,98.600 355.230 C 99.480 355.633,100.650 356.228,101.200 356.553 C 102.658 357.415,107.238 359.479,108.400 359.798 C 110.147 360.278,114.481 362.049,118.200 363.804 C 120.180 364.738,122.377 365.627,123.081 365.779 C 123.786 365.931,124.776 366.378,125.281 366.771 C 125.787 367.165,127.323 367.684,128.696 367.923 C 130.069 368.163,131.779 368.623,132.496 368.945 C 133.798 369.531,137.062 370.258,148.000 372.401 C 151.190 373.026,156.230 374.015,159.200 374.600 C 168.909 376.510,196.722 376.956,208.008 375.381 C 215.837 374.289,231.863 370.907,237.400 369.178 C 238.720 368.766,241.148 368.222,242.795 367.969 C 244.460 367.713,246.200 367.186,246.714 366.782 C 247.222 366.382,248.214 365.930,248.919 365.776 C 249.623 365.623,251.010 365.084,252.000 364.578 C 252.990 364.073,254.970 363.177,256.400 362.588 C 257.830 361.999,260.170 360.971,261.600 360.303 C 263.030 359.636,265.190 358.649,266.400 358.111 C 267.610 357.572,268.870 356.962,269.200 356.756 C 269.530 356.549,270.610 356.016,271.600 355.572 C 272.590 355.127,273.760 354.560,274.200 354.311 C 274.640 354.062,275.397 353.650,275.883 353.395 C 276.368 353.141,278.036 351.868,279.588 350.566 C 281.141 349.265,283.181 347.750,284.123 347.200 C 285.065 346.650,286.457 345.796,287.218 345.301 C 287.978 344.807,288.825 344.402,289.100 344.401 C 289.375 344.401,289.600 344.240,289.600 344.045 C 289.600 343.684,293.772 340.196,297.398 337.526 C 300.116 335.524,301.403 334.474,303.349 332.669 C 304.257 331.827,306.350 330.180,308.000 329.010 C 311.843 326.284,313.943 324.171,316.724 320.233 C 317.954 318.492,319.509 316.509,320.180 315.827 C 322.415 313.555,325.304 309.997,329.297 304.602 C 329.461 304.381,330.181 303.446,330.897 302.524 C 333.135 299.645,333.758 298.698,338.603 290.800 C 339.885 288.710,341.264 286.628,341.667 286.174 C 342.070 285.720,342.400 285.213,342.400 285.048 C 342.400 284.882,342.830 284.174,343.355 283.473 C 343.880 282.773,344.706 281.390,345.191 280.400 C 347.135 276.429,350.490 268.895,351.069 267.200 C 351.407 266.210,351.912 265.130,352.191 264.800 C 352.470 264.470,352.811 263.569,352.949 262.797 C 353.087 262.025,353.633 260.581,354.162 259.587 C 354.691 258.593,355.253 256.884,355.411 255.790 C 355.569 254.695,355.965 253.170,356.291 252.400 C 358.114 248.087,361.822 230.652,362.967 221.000 C 364.560 207.576,364.336 182.613,362.534 172.800 C 362.191 170.930,361.675 167.960,361.388 166.200 C 360.280 159.407,359.145 153.687,358.372 151.000 C 356.303 143.812,355.063 140.056,354.213 138.400 C 353.705 137.410,353.158 135.970,352.998 135.200 C 352.838 134.430,352.543 133.595,352.342 133.345 C 352.141 133.095,351.195 130.665,350.239 127.945 C 347.813 121.043,344.447 114.365,341.597 110.800 C 339.009 107.563,337.518 105.439,336.222 103.142 C 335.770 102.341,334.635 100.565,333.700 99.197 C 332.765 97.828,332.000 96.562,332.000 96.383 C 332.000 96.204,331.751 95.808,331.446 95.503 C 331.142 95.199,330.507 94.241,330.035 93.375 C 328.288 90.169,323.260 83.656,320.008 80.387 C 319.454 79.830,317.740 77.947,316.200 76.203 C 312.452 71.959,311.454 71.041,308.400 69.021 C 306.970 68.075,305.146 66.604,304.347 65.751 C 299.121 60.172,291.735 53.761,287.864 51.443 C 286.458 50.601,284.786 49.552,281.800 47.638 C 280.700 46.934,277.820 45.353,275.400 44.125 C 269.204 40.982,267.515 40.097,266.600 39.514 C 266.160 39.233,264.990 38.709,264.000 38.350 C 263.010 37.991,260.670 37.031,258.800 36.215 C 256.930 35.400,253.870 34.104,252.000 33.336 C 250.130 32.568,248.060 31.614,247.400 31.215 C 246.740 30.817,245.750 30.357,245.200 30.193 C 244.650 30.029,243.717 29.555,243.126 29.139 C 242.535 28.723,241.011 28.190,239.739 27.955 C 238.466 27.720,236.790 27.204,236.013 26.808 C 235.236 26.413,233.294 25.888,231.698 25.641 C 230.103 25.394,228.123 24.927,227.298 24.603 C 226.474 24.278,223.910 23.734,221.600 23.393 C 219.290 23.052,216.770 22.605,216.000 22.399 C 215.230 22.194,212.080 21.751,209.000 21.414 C 198.299 20.247,194.706 18.673,192.391 14.139 C 190.459 10.357,191.330 4.697,194.268 1.936 C 196.453 -0.117,202.293 0.000,97.600 0.000 L 0.000 0.000 0.000 200.000 M224.400 0.600 C 224.400 0.930,224.693 1.200,225.052 1.200 C 226.347 1.200,235.076 3.291,238.400 4.397 C 240.270 5.019,242.765 5.628,243.944 5.751 C 245.123 5.873,246.654 6.307,247.346 6.715 C 248.038 7.123,249.773 7.684,251.202 7.960 C 252.631 8.236,254.160 8.687,254.600 8.961 C 255.040 9.235,256.537 9.774,257.926 10.158 C 260.628 10.905,269.003 14.538,270.000 15.395 C 270.330 15.679,271.177 16.033,271.881 16.183 C 272.586 16.333,273.576 16.777,274.081 17.169 C 274.587 17.562,275.943 18.107,277.095 18.381 C 278.248 18.654,279.626 19.220,280.158 19.639 C 280.691 20.057,281.346 20.400,281.614 20.400 C 282.458 20.400,287.362 23.310,291.740 26.408 C 292.213 26.743,293.410 27.789,294.400 28.733 C 295.390 29.677,296.727 30.729,297.372 31.072 C 299.084 31.982,304.716 35.864,306.800 37.570 C 307.790 38.381,309.172 39.276,309.871 39.559 C 310.570 39.842,311.453 40.417,311.833 40.837 C 312.213 41.256,312.687 41.600,312.885 41.600 C 314.527 41.600,331.200 57.278,333.940 61.397 C 334.963 62.936,336.610 65.026,337.600 66.042 C 344.066 72.677,348.952 78.112,350.508 80.400 C 355.189 87.283,356.743 89.778,358.650 93.466 C 359.883 95.850,361.126 98.070,361.413 98.400 C 362.071 99.158,369.200 113.340,369.200 113.892 C 369.200 114.118,369.469 114.526,369.799 114.799 C 370.128 115.072,370.654 116.159,370.967 117.213 C 371.280 118.268,371.801 119.552,372.125 120.066 C 372.448 120.580,373.287 122.800,373.989 125.000 C 374.691 127.200,375.693 129.900,376.217 131.000 C 377.743 134.204,379.600 138.695,379.600 139.183 C 379.600 139.430,379.939 140.300,380.354 141.116 C 380.768 141.932,381.328 143.680,381.597 145.000 C 381.866 146.320,382.517 148.692,383.043 150.271 C 383.569 151.849,384.000 153.628,384.000 154.223 C 384.000 154.818,384.622 158.566,385.383 162.552 C 387.724 174.815,388.203 180.917,388.181 198.200 C 388.154 219.286,387.102 229.408,383.369 244.500 C 380.022 258.032,379.407 259.922,376.189 266.600 C 375.658 267.700,374.664 270.130,373.979 272.000 C 373.295 273.870,372.506 275.760,372.228 276.200 C 371.949 276.640,371.489 277.720,371.205 278.600 C 370.921 279.480,370.378 280.650,369.997 281.200 C 369.616 281.750,369.168 282.650,369.001 283.200 C 368.834 283.750,368.270 285.009,367.748 285.997 C 367.227 286.985,366.800 288.097,366.800 288.468 C 366.800 289.227,362.243 298.256,361.367 299.231 C 361.055 299.579,360.800 300.050,360.800 300.278 C 360.800 300.506,360.412 301.186,359.937 301.789 C 359.462 302.393,358.697 303.585,358.237 304.439 C 356.932 306.860,349.760 317.331,348.832 318.171 C 348.374 318.585,348.000 319.134,348.000 319.392 C 348.000 321.028,335.339 334.626,320.952 348.443 C 319.438 349.897,317.539 351.787,316.731 352.643 C 314.764 354.728,311.573 357.324,309.343 358.654 C 307.346 359.845,302.272 363.335,301.425 364.100 C 300.998 364.485,300.441 364.800,300.187 364.800 C 299.932 364.800,299.413 365.144,299.033 365.563 C 298.653 365.983,297.770 366.562,297.071 366.850 C 296.372 367.138,295.530 367.678,295.200 368.051 C 294.870 368.424,292.948 369.690,290.930 370.864 C 288.911 372.039,286.661 373.354,285.930 373.786 C 285.198 374.218,283.970 374.848,283.200 375.186 C 282.430 375.524,281.350 376.102,280.800 376.470 C 280.250 376.839,279.135 377.262,278.323 377.411 C 277.511 377.559,276.261 378.112,275.546 378.640 C 274.830 379.168,274.017 379.600,273.739 379.600 C 273.460 379.600,271.650 380.388,269.716 381.351 C 267.782 382.315,265.767 383.236,265.238 383.398 C 264.709 383.560,262.549 384.550,260.438 385.597 C 253.726 388.927,251.441 389.920,249.800 390.217 C 248.920 390.376,247.687 390.767,247.060 391.084 C 245.437 391.907,232.876 395.152,228.600 395.854 C 226.620 396.179,223.585 396.807,221.856 397.249 C 219.847 397.763,216.055 398.214,211.356 398.498 C 205.753 398.837,204.000 399.069,204.000 399.472 C 204.000 399.908,221.071 400.000,302.000 400.000 L 400.000 400.000 400.000 200.000 L 400.000 0.000 312.200 0.000 C 234.422 0.000,224.400 0.068,224.400 0.600 M203.958 82.762 C 204.705 82.991,207.225 83.377,209.558 83.620 C 217.753 84.474,229.916 88.573,236.238 92.609 C 239.012 94.381,243.612 96.800,244.206 96.800 C 246.637 96.800,259.915 106.827,267.840 114.648 C 270.933 117.702,274.449 121.034,275.653 122.054 C 276.856 123.074,278.462 124.935,279.220 126.189 C 279.979 127.443,281.542 129.848,282.692 131.534 C 289.802 141.951,292.840 147.933,296.031 157.800 C 297.099 161.100,298.417 165.150,298.962 166.800 C 304.646 184.023,304.373 214.567,298.370 233.000 C 294.254 245.639,288.107 258.609,282.806 265.839 C 279.165 270.805,275.163 275.599,274.660 275.600 C 274.111 275.600,263.659 286.022,262.151 288.072 C 258.894 292.498,245.449 300.620,231.790 306.412 C 229.596 307.343,227.603 308.259,227.363 308.449 C 227.122 308.639,225.592 309.144,223.963 309.571 C 222.333 309.998,220.209 310.638,219.242 310.992 C 218.276 311.346,215.666 311.896,213.442 312.215 C 211.219 312.534,208.410 313.064,207.200 313.393 C 198.815 315.675,173.740 315.565,163.200 313.200 C 161.330 312.781,158.494 312.247,156.899 312.015 C 155.303 311.782,152.873 311.168,151.499 310.650 C 150.124 310.132,146.930 309.038,144.400 308.218 C 139.928 306.769,131.256 302.813,126.800 300.188 C 125.590 299.476,122.984 297.935,121.008 296.764 C 108.694 289.466,92.800 272.583,92.800 266.800 C 92.800 260.708,99.853 255.737,105.587 257.787 C 108.752 258.919,110.483 260.254,116.800 266.440 C 123.756 273.252,127.172 276.136,131.700 279.023 C 137.137 282.490,138.190 283.067,142.236 284.795 C 144.416 285.726,146.650 286.805,147.200 287.191 C 156.933 294.032,183.612 297.623,201.000 294.432 C 216.416 291.603,220.348 290.347,227.000 286.126 C 228.540 285.148,232.500 282.842,235.800 281.001 C 244.719 276.024,245.553 275.469,249.851 271.654 C 255.203 266.903,260.482 261.132,262.081 258.286 C 262.806 256.993,264.705 253.963,266.300 251.551 C 267.895 249.140,269.200 247.074,269.200 246.961 C 269.200 246.848,270.079 245.371,271.154 243.678 C 277.998 232.899,280.215 226.638,282.087 212.800 C 283.086 205.409,283.460 192.931,282.822 188.246 C 282.578 186.460,282.117 183.020,281.796 180.600 C 281.115 175.467,277.915 165.385,276.037 162.457 C 275.382 161.436,273.324 157.540,271.463 153.800 C 266.705 144.235,261.761 137.659,251.124 126.750 C 246.269 121.771,245.134 120.876,240.000 117.979 C 238.570 117.172,235.060 115.180,232.200 113.552 C 222.297 107.913,212.459 104.899,195.800 102.401 C 187.277 101.122,183.517 94.704,186.894 87.200 C 189.048 82.416,196.494 80.479,203.958 82.762 M302.459 93.623 C 303.607 94.076,305.132 94.931,305.846 95.523 C 306.561 96.115,307.981 97.230,309.002 98.000 C 310.711 99.289,312.987 101.753,314.416 103.861 C 314.737 104.334,316.183 106.404,317.629 108.461 C 322.900 115.958,326.285 121.910,329.195 128.800 C 329.799 130.230,331.238 133.560,332.392 136.200 C 333.546 138.840,334.756 141.886,335.081 142.969 C 335.406 144.052,335.913 145.312,336.207 145.769 C 336.501 146.226,337.039 147.762,337.403 149.182 C 337.767 150.603,338.310 152.239,338.610 152.820 C 338.910 153.400,339.278 154.848,339.427 156.037 C 339.576 157.227,340.420 160.990,341.301 164.400 C 344.643 177.325,345.377 182.021,345.803 193.200 C 346.224 204.255,344.875 219.482,342.809 227.000 C 342.386 228.540,341.391 232.410,340.599 235.600 C 339.040 241.875,337.771 246.055,335.957 250.880 C 335.321 252.574,334.800 254.149,334.800 254.381 C 334.800 255.924,329.856 267.693,326.935 273.101 C 325.380 275.979,321.980 281.668,321.376 282.400 C 321.103 282.730,320.188 284.351,319.340 286.001 C 316.744 291.059,313.991 294.820,309.806 299.024 C 307.603 301.237,304.630 304.305,303.200 305.841 C 293.069 316.725,280.629 327.704,275.400 330.378 C 273.640 331.278,270.130 333.291,267.600 334.852 C 260.235 339.394,256.230 341.422,250.600 343.459 C 249.720 343.777,248.100 344.464,247.000 344.985 C 245.900 345.506,242.120 346.881,238.600 348.040 C 235.080 349.199,230.310 350.854,228.000 351.717 C 225.690 352.580,222.540 353.537,221.000 353.843 C 219.460 354.150,217.355 354.674,216.323 355.009 C 214.256 355.678,210.221 356.216,204.400 356.599 C 202.310 356.737,198.659 357.108,196.286 357.425 C 191.314 358.088,183.178 358.156,177.400 357.582 C 175.200 357.364,170.250 356.917,166.400 356.589 C 162.550 356.261,158.410 355.699,157.200 355.340 C 155.990 354.981,153.560 354.367,151.800 353.974 C 150.040 353.582,147.520 352.897,146.200 352.453 C 144.880 352.008,142.180 351.175,140.200 350.601 C 136.201 349.443,130.477 347.402,128.855 346.555 C 128.275 346.253,127.530 346.002,127.200 345.998 C 126.870 345.994,125.842 345.557,124.915 345.027 C 123.988 344.497,122.818 343.939,122.315 343.787 C 121.225 343.458,116.452 341.488,114.200 340.438 C 107.275 337.210,103.666 335.310,100.313 333.129 C 98.175 331.738,95.565 330.072,94.513 329.426 C 91.613 327.647,89.038 325.489,84.200 320.786 C 81.780 318.433,78.540 315.495,77.000 314.257 C 72.178 310.381,71.545 309.843,69.851 308.183 C 68.943 307.294,67.411 305.640,66.448 304.509 C 65.484 303.378,63.988 301.676,63.125 300.726 C 59.883 297.164,56.533 292.627,54.521 289.072 C 53.377 287.053,52.117 284.860,51.721 284.200 C 51.324 283.540,50.730 282.550,50.399 282.000 C 46.369 275.289,45.307 273.597,44.374 272.400 C 42.922 270.537,39.781 265.248,39.402 264.027 C 39.236 263.491,38.672 262.250,38.150 261.267 C 37.627 260.285,37.200 259.261,37.200 258.992 C 37.200 258.723,36.199 255.465,34.975 251.752 C 27.909 230.314,25.516 214.372,26.216 193.400 C 26.642 180.647,27.293 178.716,32.117 175.894 C 35.759 173.763,38.502 173.779,43.000 175.956 C 49.226 178.970,49.135 178.665,49.097 196.400 C 49.070 208.835,49.170 211.296,49.900 216.200 C 50.359 219.280,50.857 222.790,51.009 224.000 C 51.542 228.269,54.936 241.319,56.031 243.312 C 56.246 243.704,56.847 245.144,57.367 246.512 C 63.249 261.998,63.547 262.608,70.526 273.462 C 72.176 276.028,74.553 279.005,76.548 281.005 C 78.360 282.821,80.575 285.509,81.469 286.977 C 83.674 290.597,91.020 298.026,98.338 304.038 C 106.323 310.596,106.158 310.476,109.605 312.210 C 113.334 314.084,119.531 317.683,121.737 319.255 C 126.628 322.740,129.705 324.370,134.600 326.071 C 135.260 326.300,136.880 326.904,138.200 327.414 C 139.520 327.923,142.474 328.814,144.765 329.394 C 147.056 329.973,149.396 330.688,149.965 330.982 C 150.534 331.275,152.426 331.732,154.169 331.996 C 155.912 332.260,158.612 332.808,160.169 333.214 C 164.494 334.341,184.810 335.718,191.200 335.316 C 200.204 334.750,209.105 333.837,211.800 333.202 C 213.560 332.788,216.406 332.258,218.125 332.025 C 219.844 331.792,221.596 331.416,222.019 331.190 C 222.442 330.964,225.085 329.994,227.894 329.035 C 245.533 323.013,244.793 323.330,249.674 319.703 C 250.925 318.774,252.815 317.534,253.874 316.947 C 259.386 313.897,264.912 310.241,268.505 307.266 C 270.443 305.662,271.763 304.748,276.307 301.863 C 279.033 300.132,289.365 289.480,290.823 286.898 C 291.878 285.028,295.687 279.736,297.569 277.524 C 298.476 276.459,302.273 270.513,303.780 267.800 C 304.635 266.260,306.118 263.920,307.075 262.600 C 309.968 258.611,310.737 257.305,311.362 255.309 C 311.691 254.259,312.978 250.790,314.222 247.600 C 316.460 241.859,317.947 237.247,319.057 232.600 C 319.373 231.280,319.990 228.877,320.429 227.261 C 323.379 216.405,323.809 183.775,321.138 173.400 C 320.912 172.520,320.304 169.874,319.788 167.520 C 319.272 165.167,318.678 162.917,318.468 162.520 C 318.259 162.124,317.783 160.270,317.411 158.400 C 317.039 156.530,315.491 151.850,313.972 148.000 C 311.373 141.415,310.616 140.021,306.400 134.065 C 305.724 133.111,304.208 130.411,303.030 128.065 C 300.995 124.013,298.952 120.606,297.235 118.400 C 296.807 117.850,295.668 116.410,294.703 115.200 C 290.288 109.662,288.520 105.910,288.978 103.048 C 290.077 96.173,296.873 91.422,302.459 93.623 " stroke="none" fill="#fbfbfb" fill-rule="evenodd"></path><path id="path4" d="M195.200 0.530 C 195.200 0.822,194.781 1.455,194.268 1.936 C 191.330 4.697,190.459 10.357,192.391 14.139 C 194.706 18.673,198.299 20.247,209.000 21.414 C 212.080 21.751,215.230 22.194,216.000 22.399 C 216.770 22.605,219.290 23.052,221.600 23.393 C 223.910 23.734,226.474 24.278,227.298 24.603 C 228.123 24.927,230.103 25.394,231.698 25.641 C 233.294 25.888,235.236 26.413,236.013 26.808 C 236.790 27.204,238.466 27.720,239.739 27.955 C 241.011 28.190,242.535 28.723,243.126 29.139 C 243.717 29.555,244.650 30.029,245.200 30.193 C 245.750 30.357,246.740 30.817,247.400 31.215 C 248.060 31.614,250.130 32.568,252.000 33.336 C 253.870 34.104,256.930 35.400,258.800 36.215 C 260.670 37.031,263.010 37.991,264.000 38.350 C 264.990 38.709,266.160 39.233,266.600 39.514 C 267.515 40.097,269.204 40.982,275.400 44.125 C 277.820 45.353,280.700 46.934,281.800 47.638 C 284.786 49.552,286.458 50.601,287.864 51.443 C 291.735 53.761,299.121 60.172,304.347 65.751 C 305.146 66.604,306.970 68.075,308.400 69.021 C 311.454 71.041,312.452 71.959,316.200 76.203 C 317.740 77.947,319.454 79.830,320.008 80.387 C 323.260 83.656,328.288 90.169,330.035 93.375 C 330.507 94.241,331.142 95.199,331.446 95.503 C 331.751 95.808,332.000 96.204,332.000 96.383 C 332.000 96.562,332.765 97.828,333.700 99.197 C 334.635 100.565,335.770 102.341,336.222 103.142 C 337.518 105.439,339.009 107.563,341.597 110.800 C 344.447 114.365,347.813 121.043,350.239 127.945 C 351.195 130.665,352.141 133.095,352.342 133.345 C 352.543 133.595,352.838 134.430,352.998 135.200 C 353.158 135.970,353.705 137.410,354.213 138.400 C 355.063 140.056,356.303 143.812,358.372 151.000 C 359.145 153.687,360.280 159.407,361.388 166.200 C 361.675 167.960,362.191 170.930,362.534 172.800 C 364.336 182.613,364.560 207.576,362.967 221.000 C 361.822 230.652,358.114 248.087,356.291 252.400 C 355.965 253.170,355.569 254.695,355.411 255.790 C 355.253 256.884,354.691 258.593,354.162 259.587 C 353.633 260.581,353.087 262.025,352.949 262.797 C 352.811 263.569,352.470 264.470,352.191 264.800 C 351.912 265.130,351.407 266.210,351.069 267.200 C 350.490 268.895,347.135 276.429,345.191 280.400 C 344.706 281.390,343.880 282.773,343.355 283.473 C 342.830 284.174,342.400 284.882,342.400 285.048 C 342.400 285.213,342.070 285.720,341.667 286.174 C 341.264 286.628,339.885 288.710,338.603 290.800 C 333.758 298.698,333.135 299.645,330.897 302.524 C 330.181 303.446,329.461 304.381,329.297 304.602 C 325.304 309.997,322.415 313.555,320.180 315.827 C 319.509 316.509,317.954 318.492,316.724 320.233 C 313.943 324.171,311.843 326.284,308.000 329.010 C 306.350 330.180,304.257 331.827,303.349 332.669 C 301.403 334.474,300.116 335.524,297.398 337.526 C 293.772 340.196,289.600 343.684,289.600 344.045 C 289.600 344.240,289.375 344.401,289.100 344.401 C 288.825 344.402,287.978 344.807,287.218 345.301 C 286.457 345.796,285.065 346.650,284.123 347.200 C 283.181 347.750,281.141 349.265,279.588 350.566 C 278.036 351.868,276.368 353.141,275.883 353.395 C 275.397 353.650,274.640 354.062,274.200 354.311 C 273.760 354.560,272.590 355.127,271.600 355.572 C 270.610 356.016,269.530 356.549,269.200 356.756 C 268.870 356.962,267.610 357.572,266.400 358.111 C 265.190 358.649,263.030 359.636,261.600 360.303 C 260.170 360.971,257.830 361.999,256.400 362.588 C 254.970 363.177,252.990 364.073,252.000 364.578 C 251.010 365.084,249.623 365.623,248.919 365.776 C 248.214 365.930,247.222 366.382,246.714 366.782 C 246.200 367.186,244.460 367.713,242.795 367.969 C 241.148 368.222,238.720 368.766,237.400 369.178 C 231.863 370.907,215.837 374.289,208.008 375.381 C 196.722 376.956,168.909 376.510,159.200 374.600 C 156.230 374.015,151.190 373.026,148.000 372.401 C 137.062 370.258,133.798 369.531,132.496 368.945 C 131.779 368.623,130.069 368.163,128.696 367.923 C 127.323 367.684,125.787 367.165,125.281 366.771 C 124.776 366.378,123.786 365.931,123.081 365.779 C 122.377 365.627,120.180 364.738,118.200 363.804 C 114.481 362.049,110.147 360.278,108.400 359.798 C 107.238 359.479,102.658 357.415,101.200 356.553 C 100.650 356.228,99.480 355.633,98.600 355.230 C 97.720 354.827,95.740 353.378,94.200 352.011 C 91.656 349.752,88.245 347.200,87.770 347.200 C 87.500 347.200,83.591 344.584,82.400 343.606 C 79.796 341.469,78.690 340.683,76.333 339.296 C 70.517 335.874,56.967 323.733,55.172 320.336 C 53.560 317.287,48.898 312.190,46.870 311.260 C 46.061 310.890,44.928 310.269,44.351 309.881 C 41.808 308.169,35.483 308.284,33.185 310.083 C 32.541 310.587,31.451 311.435,30.763 311.967 C 27.475 314.508,26.298 320.521,28.265 324.725 C 29.858 328.131,39.353 339.158,42.400 341.141 C 45.643 343.252,47.805 345.172,55.535 352.808 C 61.595 358.795,70.850 365.703,74.329 366.837 C 75.138 367.100,76.309 367.740,76.931 368.258 C 77.553 368.776,78.296 369.200,78.582 369.200 C 78.868 369.200,79.321 369.464,79.588 369.786 C 79.856 370.108,82.083 371.464,84.537 372.799 C 86.992 374.135,89.450 375.488,90.000 375.806 C 90.550 376.125,91.630 376.664,92.400 377.003 C 93.170 377.342,94.160 377.833,94.600 378.093 C 96.599 379.273,104.761 383.136,106.200 383.583 C 107.812 384.083,109.391 384.751,113.800 386.799 C 115.120 387.413,117.190 388.374,118.400 388.936 C 119.610 389.497,121.320 390.081,122.200 390.232 C 123.080 390.383,124.269 390.744,124.843 391.034 C 125.416 391.324,128.206 392.203,131.043 392.988 C 133.879 393.773,137.043 394.685,138.074 395.015 C 139.105 395.345,141.985 395.876,144.474 396.196 C 146.963 396.515,149.873 397.048,150.940 397.381 C 152.006 397.714,156.101 398.203,160.040 398.468 C 165.434 398.832,167.200 399.081,167.200 399.476 C 167.200 399.901,170.690 400.000,185.600 400.000 C 200.578 400.000,204.000 399.902,204.000 399.472 C 204.000 399.069,205.753 398.837,211.356 398.498 C 216.055 398.214,219.847 397.763,221.856 397.249 C 223.585 396.807,226.620 396.179,228.600 395.854 C 232.876 395.152,245.437 391.907,247.060 391.084 C 247.687 390.767,248.920 390.376,249.800 390.217 C 251.441 389.920,253.726 388.927,260.438 385.597 C 262.549 384.550,264.709 383.560,265.238 383.398 C 265.767 383.236,267.782 382.315,269.716 381.351 C 271.650 380.388,273.460 379.600,273.739 379.600 C 274.017 379.600,274.830 379.168,275.546 378.640 C 276.261 378.112,277.511 377.559,278.323 377.411 C 279.135 377.262,280.250 376.839,280.800 376.470 C 281.350 376.102,282.430 375.524,283.200 375.186 C 283.970 374.848,285.198 374.218,285.930 373.786 C 286.661 373.354,288.911 372.039,290.930 370.864 C 292.948 369.690,294.870 368.424,295.200 368.051 C 295.530 367.678,296.372 367.138,297.071 366.850 C 297.770 366.562,298.653 365.983,299.033 365.563 C 299.413 365.144,299.932 364.800,300.187 364.800 C 300.441 364.800,300.998 364.485,301.425 364.100 C 302.272 363.335,307.346 359.845,309.343 358.654 C 311.573 357.324,314.764 354.728,316.731 352.643 C 317.539 351.787,319.438 349.897,320.952 348.443 C 335.339 334.626,348.000 321.028,348.000 319.392 C 348.000 319.134,348.374 318.585,348.832 318.171 C 349.760 317.331,356.932 306.860,358.237 304.439 C 358.697 303.585,359.462 302.393,359.937 301.789 C 360.412 301.186,360.800 300.506,360.800 300.278 C 360.800 300.050,361.055 299.579,361.367 299.231 C 362.243 298.256,366.800 289.227,366.800 288.468 C 366.800 288.097,367.227 286.985,367.748 285.997 C 368.270 285.009,368.834 283.750,369.001 283.200 C 369.168 282.650,369.616 281.750,369.997 281.200 C 370.378 280.650,370.921 279.480,371.205 278.600 C 371.489 277.720,371.949 276.640,372.228 276.200 C 372.506 275.760,373.295 273.870,373.979 272.000 C 374.664 270.130,375.658 267.700,376.189 266.600 C 379.178 260.398,379.767 258.693,382.162 249.300 C 387.112 229.890,388.152 221.064,388.181 198.200 C 388.203 180.917,387.724 174.815,385.383 162.552 C 384.622 158.566,384.000 154.818,384.000 154.223 C 384.000 153.628,383.569 151.849,383.043 150.271 C 382.517 148.692,381.866 146.320,381.597 145.000 C 381.328 143.680,380.768 141.932,380.354 141.116 C 379.939 140.300,379.600 139.430,379.600 139.183 C 379.600 138.695,377.743 134.204,376.217 131.000 C 375.693 129.900,374.691 127.200,373.989 125.000 C 373.287 122.800,372.448 120.580,372.125 120.066 C 371.801 119.552,371.280 118.268,370.967 117.213 C 370.654 116.159,370.128 115.072,369.799 114.799 C 369.469 114.526,369.200 114.118,369.200 113.892 C 369.200 113.340,362.071 99.158,361.413 98.400 C 361.126 98.070,359.883 95.850,358.650 93.466 C 356.743 89.778,355.189 87.283,350.508 80.400 C 348.952 78.112,344.066 72.677,337.600 66.042 C 336.610 65.026,334.963 62.936,333.940 61.397 C 331.200 57.278,314.527 41.600,312.885 41.600 C 312.687 41.600,312.213 41.256,311.833 40.837 C 311.453 40.417,310.570 39.842,309.871 39.559 C 309.172 39.276,307.790 38.381,306.800 37.570 C 304.716 35.864,299.084 31.982,297.372 31.072 C 296.727 30.729,295.390 29.677,294.400 28.733 C 293.410 27.789,292.213 26.743,291.740 26.408 C 287.362 23.310,282.458 20.400,281.614 20.400 C 281.346 20.400,280.691 20.057,280.158 19.639 C 279.626 19.220,278.248 18.654,277.095 18.381 C 275.943 18.107,274.587 17.562,274.081 17.169 C 273.576 16.777,272.586 16.333,271.881 16.183 C 271.177 16.033,270.330 15.679,270.000 15.395 C 269.003 14.538,260.628 10.905,257.926 10.158 C 256.537 9.774,255.040 9.235,254.600 8.961 C 254.160 8.687,252.631 8.236,251.202 7.960 C 249.773 7.684,248.038 7.123,247.346 6.715 C 246.654 6.307,245.123 5.873,243.944 5.751 C 242.765 5.628,240.270 5.019,238.400 4.397 C 235.076 3.291,226.347 1.200,225.052 1.200 C 224.693 1.200,224.400 0.930,224.400 0.600 C 224.400 0.089,223.333 0.000,217.200 0.000 C 207.910 0.000,207.243 0.686,215.514 1.733 C 218.546 2.117,222.011 2.685,223.214 2.995 C 224.416 3.305,227.166 3.840,229.324 4.184 C 231.482 4.528,233.849 5.060,234.584 5.368 C 235.319 5.675,237.237 6.130,238.845 6.380 C 243.435 7.092,259.500 12.609,266.200 15.774 C 267.300 16.293,268.638 16.849,269.173 17.009 C 269.709 17.169,270.950 17.728,271.933 18.250 C 272.915 18.773,274.022 19.200,274.393 19.200 C 276.173 19.200,289.936 27.173,292.000 29.399 C 292.550 29.993,294.890 31.750,297.200 33.304 C 299.510 34.859,302.480 36.919,303.800 37.882 C 305.120 38.845,307.498 40.398,309.084 41.332 C 314.083 44.275,329.161 58.107,332.035 62.385 C 333.747 64.935,338.427 70.265,342.085 73.832 C 346.333 77.974,352.395 86.484,356.274 93.753 C 357.932 96.859,359.440 99.588,359.626 99.819 C 359.811 100.049,360.807 101.849,361.838 103.819 C 367.773 115.155,370.899 122.176,372.426 127.600 C 372.829 129.030,373.730 131.370,374.428 132.800 C 378.264 140.655,381.491 151.372,382.619 160.000 C 382.950 162.530,383.487 165.531,383.812 166.669 C 384.138 167.807,384.587 171.047,384.810 173.869 C 385.033 176.691,385.383 180.800,385.589 183.000 C 386.755 195.492,385.732 223.085,383.806 231.113 C 383.475 232.495,383.008 234.925,382.769 236.513 C 381.517 244.828,377.505 258.613,374.725 264.145 C 373.857 265.875,372.600 268.845,371.932 270.745 C 371.265 272.645,369.416 277.080,367.823 280.600 C 366.230 284.120,364.691 287.720,364.402 288.600 C 363.264 292.071,356.455 303.685,351.044 311.386 C 349.040 314.238,346.744 317.628,345.942 318.919 C 343.880 322.237,329.019 338.076,320.720 345.800 C 318.356 348.000,315.442 350.892,314.243 352.227 C 312.813 353.820,310.919 355.317,308.732 356.583 C 306.900 357.644,303.780 359.708,301.800 361.169 C 299.820 362.631,297.480 364.286,296.600 364.847 C 295.720 365.408,294.010 366.506,292.800 367.286 C 288.624 369.978,277.700 375.957,275.553 376.725 C 274.369 377.149,271.870 378.160,270.000 378.973 C 268.130 379.786,265.316 380.969,263.746 381.603 C 262.176 382.237,259.398 383.582,257.572 384.592 C 251.636 387.875,246.689 389.584,237.200 391.628 C 235.110 392.079,232.655 392.697,231.746 393.003 C 230.836 393.309,228.406 393.847,226.346 394.198 C 224.285 394.549,220.260 395.272,217.400 395.804 C 201.033 398.849,169.064 398.653,152.400 395.406 C 149.650 394.870,146.031 394.250,144.358 394.028 C 142.685 393.806,140.795 393.426,140.158 393.184 C 139.521 392.941,137.215 392.385,135.034 391.948 C 132.853 391.510,130.603 390.914,130.034 390.623 C 129.465 390.332,127.920 389.861,126.600 389.577 C 123.454 388.899,119.488 387.314,114.800 384.860 C 112.710 383.765,109.470 382.330,107.600 381.670 C 100.265 379.080,91.752 374.801,80.200 367.899 C 79.540 367.505,78.023 366.724,76.828 366.164 C 74.639 365.138,65.918 359.197,62.183 356.186 C 61.074 355.292,57.644 352.049,54.561 348.980 C 51.478 345.911,48.096 342.770,47.046 342.000 C 42.108 338.380,33.821 329.888,31.305 325.869 C 28.074 320.709,29.553 314.488,34.713 311.536 C 40.472 308.240,46.408 311.513,54.102 322.223 C 57.300 326.675,70.371 338.465,74.661 340.766 C 75.947 341.456,78.290 342.961,79.867 344.111 C 81.444 345.260,84.234 347.228,86.067 348.485 C 87.900 349.742,90.480 351.686,91.800 352.805 C 94.158 354.805,95.615 355.714,101.600 358.920 C 104.601 360.528,118.888 366.400,119.798 366.400 C 120.064 366.400,121.111 366.841,122.125 367.380 C 123.139 367.919,124.740 368.558,125.684 368.800 C 126.628 369.041,128.210 369.572,129.200 369.980 C 131.881 371.083,141.142 373.432,146.600 374.392 C 149.240 374.856,152.425 375.501,153.679 375.824 C 154.932 376.147,158.982 376.668,162.679 376.983 C 166.375 377.298,172.190 377.855,175.600 378.221 C 182.741 378.988,193.227 378.828,199.800 377.851 C 202.000 377.524,206.050 377.140,208.800 376.997 C 214.227 376.714,226.705 374.435,233.000 372.576 C 234.980 371.991,237.500 371.286,238.600 371.008 C 242.686 369.977,247.837 368.398,249.000 367.820 C 249.660 367.492,251.415 366.768,252.900 366.212 C 259.673 363.674,261.086 363.056,266.661 360.189 C 269.922 358.512,272.773 356.997,272.996 356.823 C 273.218 356.648,274.303 356.212,275.406 355.852 C 276.643 355.449,278.565 354.242,280.424 352.699 C 282.082 351.325,285.006 349.120,286.924 347.800 C 293.268 343.432,298.949 339.139,302.884 335.739 C 305.020 333.894,307.897 331.634,309.277 330.717 C 312.416 328.632,316.530 324.489,318.776 321.152 C 319.721 319.748,321.257 317.790,322.191 316.800 C 326.758 311.958,333.816 302.521,338.750 294.662 C 340.153 292.428,342.426 288.890,343.802 286.800 C 346.393 282.863,350.057 275.863,352.071 271.000 C 354.641 264.794,356.988 258.429,357.822 255.400 C 358.307 253.640,359.351 249.998,360.142 247.306 C 361.467 242.800,362.317 239.180,363.783 231.800 C 367.328 213.957,367.345 183.643,363.820 165.800 C 363.516 164.260,362.901 161.009,362.454 158.576 C 361.188 151.689,359.463 146.071,354.603 133.000 C 353.213 129.260,351.947 125.750,351.790 125.200 C 350.884 122.020,345.373 111.910,342.701 108.525 C 339.772 104.815,335.569 98.480,332.136 92.600 C 327.883 85.316,314.767 70.767,308.589 66.481 C 307.263 65.561,304.767 63.268,303.043 61.384 C 298.528 56.451,285.073 46.597,278.242 43.220 C 265.605 36.974,255.819 32.359,254.000 31.787 C 252.790 31.407,251.350 30.863,250.800 30.578 C 243.900 27.011,231.143 22.771,223.781 21.598 C 222.252 21.354,219.470 20.820,217.600 20.411 C 215.730 20.002,211.590 19.463,208.400 19.212 C 201.743 18.688,200.229 18.360,197.854 16.925 C 192.005 13.393,192.367 4.099,198.453 1.578 C 200.408 0.768,199.895 0.000,197.400 0.000 C 195.840 0.000,195.200 0.154,195.200 0.530 M191.000 82.835 C 186.343 85.338,184.507 91.381,186.790 96.689 C 188.351 100.317,190.348 101.583,195.800 102.401 C 212.459 104.899,222.297 107.913,232.200 113.552 C 235.060 115.180,238.570 117.172,240.000 117.979 C 245.134 120.876,246.269 121.771,251.124 126.750 C 261.761 137.659,266.705 144.235,271.463 153.800 C 273.324 157.540,275.382 161.436,276.037 162.457 C 277.915 165.385,281.115 175.467,281.796 180.600 C 282.117 183.020,282.578 186.460,282.822 188.246 C 283.460 192.931,283.086 205.409,282.087 212.800 C 280.215 226.638,277.998 232.899,271.154 243.678 C 270.079 245.371,269.200 246.848,269.200 246.961 C 269.200 247.074,267.895 249.140,266.300 251.551 C 264.705 253.963,262.806 256.993,262.081 258.286 C 260.482 261.132,255.203 266.903,249.851 271.654 C 245.553 275.469,244.719 276.024,235.800 281.001 C 232.500 282.842,228.540 285.148,227.000 286.126 C 220.348 290.347,216.416 291.603,201.000 294.432 C 183.612 297.623,156.933 294.032,147.200 287.191 C 146.650 286.805,144.416 285.726,142.236 284.795 C 138.190 283.067,137.137 282.490,131.700 279.023 C 127.172 276.136,123.756 273.252,116.800 266.440 C 107.000 256.843,103.389 255.434,97.546 258.926 C 89.698 263.616,91.522 270.958,103.341 282.249 C 110.377 288.971,116.897 294.328,121.008 296.764 C 122.984 297.935,125.590 299.476,126.800 300.188 C 131.256 302.813,139.928 306.769,144.400 308.218 C 146.930 309.038,150.124 310.132,151.499 310.650 C 152.873 311.168,155.303 311.782,156.899 312.015 C 158.494 312.247,161.330 312.781,163.200 313.200 C 173.740 315.565,198.815 315.675,207.200 313.393 C 208.410 313.064,211.219 312.534,213.442 312.215 C 215.666 311.896,218.276 311.346,219.242 310.992 C 220.209 310.638,222.333 309.998,223.963 309.571 C 225.592 309.144,227.122 308.639,227.363 308.449 C 227.603 308.259,229.596 307.343,231.790 306.412 C 245.449 300.620,258.894 292.498,262.151 288.072 C 263.659 286.022,274.111 275.600,274.660 275.600 C 275.163 275.599,279.165 270.805,282.806 265.839 C 288.107 258.609,294.254 245.639,298.370 233.000 C 304.373 214.567,304.646 184.023,298.962 166.800 C 298.417 165.150,297.099 161.100,296.031 157.800 C 292.840 147.933,289.802 141.951,282.692 131.534 C 281.542 129.848,279.979 127.443,279.220 126.189 C 278.462 124.935,276.856 123.074,275.653 122.054 C 274.449 121.034,270.933 117.702,267.840 114.648 C 259.915 106.827,246.637 96.800,244.206 96.800 C 243.612 96.800,239.012 94.381,236.238 92.609 C 229.916 88.573,217.753 84.474,209.558 83.620 C 207.225 83.377,204.705 82.991,203.958 82.762 C 200.965 81.847,192.754 81.893,191.000 82.835 M208.081 85.002 C 218.206 86.204,225.101 88.561,235.212 94.279 C 237.528 95.588,240.011 96.865,240.729 97.115 C 241.447 97.366,244.142 98.815,246.718 100.337 C 249.293 101.858,251.940 103.378,252.600 103.714 C 254.073 104.464,264.100 113.509,269.010 118.517 C 270.996 120.543,273.549 122.920,274.684 123.800 C 276.159 124.943,277.241 126.289,278.474 128.514 C 279.423 130.227,281.227 133.054,282.483 134.796 C 283.738 136.538,285.144 138.706,285.607 139.613 C 286.070 140.520,287.258 142.445,288.247 143.891 C 290.795 147.612,291.734 149.614,293.173 154.400 C 295.883 163.408,296.552 165.452,297.254 166.866 C 299.519 171.430,301.434 189.388,301.081 202.763 C 300.726 216.212,299.464 224.918,296.841 232.000 C 296.393 233.210,296.013 234.650,295.996 235.200 C 295.979 235.750,295.438 237.190,294.793 238.400 C 292.715 242.295,292.080 243.745,291.198 246.600 C 290.723 248.140,289.813 250.260,289.176 251.311 C 288.540 252.362,287.457 254.522,286.771 256.111 C 285.326 259.453,284.150 261.331,281.581 264.400 C 280.568 265.610,279.133 267.500,278.393 268.600 C 276.034 272.105,274.299 273.963,270.200 277.377 C 266.213 280.697,261.992 284.928,259.897 287.704 C 259.290 288.508,257.490 290.002,255.897 291.024 C 254.304 292.045,252.190 293.545,251.200 294.355 C 249.262 295.942,245.516 298.400,245.036 298.400 C 244.874 298.400,242.640 299.417,240.071 300.659 C 237.502 301.902,234.145 303.438,232.611 304.073 C 231.077 304.708,228.557 306.008,227.011 306.963 C 224.974 308.220,223.429 308.836,221.400 309.202 C 219.860 309.479,218.281 309.871,217.891 310.072 C 217.501 310.273,214.584 310.780,211.408 311.199 C 208.232 311.618,204.951 312.142,204.117 312.365 C 199.440 313.613,178.092 313.908,170.800 312.826 C 169.590 312.647,166.170 312.199,163.200 311.831 C 160.230 311.463,156.990 311.003,156.000 310.807 C 152.831 310.182,142.428 306.121,136.600 303.234 C 134.400 302.144,131.880 300.909,131.000 300.490 C 130.120 300.071,128.500 299.220,127.400 298.600 C 126.300 297.980,124.642 297.070,123.715 296.578 C 119.240 294.203,114.478 290.613,112.325 287.993 C 111.596 287.106,108.930 284.647,106.400 282.529 C 97.535 275.108,93.350 267.287,95.973 263.043 C 99.404 257.493,105.805 258.728,113.901 266.503 C 121.445 273.748,125.198 276.958,128.400 278.905 C 130.050 279.908,132.652 281.555,134.181 282.565 C 135.711 283.574,137.113 284.400,137.298 284.400 C 137.710 284.400,143.874 287.404,144.528 287.923 C 145.897 289.012,154.149 292.851,155.840 293.186 C 156.918 293.400,161.220 294.328,165.400 295.250 L 173.000 296.925 183.800 297.094 C 194.929 297.269,196.261 297.162,205.000 295.396 C 220.016 292.360,224.260 290.892,230.200 286.681 C 232.336 285.166,240.524 280.400,240.990 280.400 C 243.654 280.400,261.985 263.483,263.395 259.723 C 264.680 256.298,266.067 253.846,267.990 251.600 C 269.026 250.390,270.554 248.173,271.386 246.674 C 272.217 245.175,273.578 243.088,274.409 242.036 C 276.412 239.503,277.186 237.921,279.541 231.555 C 282.676 223.080,282.868 222.139,284.385 207.800 C 285.670 195.645,284.237 176.785,281.588 171.000 C 280.983 169.680,280.269 167.529,280.000 166.220 C 279.301 162.822,279.040 162.293,275.458 157.019 C 275.017 156.370,273.499 153.506,272.084 150.657 C 269.571 145.594,266.695 141.459,261.613 135.600 C 260.373 134.170,258.948 132.460,258.448 131.800 C 255.377 127.754,249.800 122.385,246.142 119.954 C 234.093 111.947,227.904 108.604,221.200 106.482 C 213.564 104.064,202.237 101.332,196.825 100.603 C 189.530 99.619,188.332 98.362,188.247 91.600 C 188.150 83.802,190.731 82.943,208.081 85.002 M296.327 93.772 C 287.134 98.336,286.624 105.067,294.703 115.200 C 295.668 116.410,296.807 117.850,297.235 118.400 C 298.952 120.606,300.995 124.013,303.030 128.065 C 304.208 130.411,305.724 133.111,306.400 134.065 C 310.616 140.021,311.373 141.415,313.972 148.000 C 315.491 151.850,317.039 156.530,317.411 158.400 C 317.783 160.270,318.259 162.124,318.468 162.520 C 318.678 162.917,319.272 165.167,319.788 167.520 C 320.304 169.874,320.912 172.520,321.138 173.400 C 323.809 183.775,323.379 216.405,320.429 227.261 C 319.990 228.877,319.373 231.280,319.057 232.600 C 317.947 237.247,316.460 241.859,314.222 247.600 C 312.978 250.790,311.691 254.259,311.362 255.309 C 310.737 257.305,309.968 258.611,307.075 262.600 C 306.118 263.920,304.635 266.260,303.780 267.800 C 302.273 270.513,298.476 276.459,297.569 277.524 C 295.687 279.736,291.878 285.028,290.823 286.898 C 289.365 289.480,279.033 300.132,276.307 301.863 C 271.763 304.748,270.443 305.662,268.505 307.266 C 264.912 310.241,259.386 313.897,253.874 316.947 C 252.815 317.534,250.925 318.774,249.674 319.703 C 244.793 323.330,245.533 323.013,227.894 329.035 C 225.085 329.994,222.442 330.964,222.019 331.190 C 221.596 331.416,219.844 331.792,218.125 332.025 C 216.406 332.258,213.560 332.788,211.800 333.202 C 209.105 333.837,200.204 334.750,191.200 335.316 C 184.810 335.718,164.494 334.341,160.169 333.214 C 158.612 332.808,155.912 332.260,154.169 331.996 C 152.426 331.732,150.534 331.275,149.965 330.982 C 149.396 330.688,147.056 329.973,144.765 329.394 C 142.474 328.814,139.520 327.923,138.200 327.414 C 136.880 326.904,135.260 326.300,134.600 326.071 C 129.705 324.370,126.628 322.740,121.737 319.255 C 119.531 317.683,113.334 314.084,109.605 312.210 C 106.158 310.476,106.323 310.596,98.338 304.038 C 91.020 298.026,83.674 290.597,81.469 286.977 C 80.575 285.509,78.360 282.821,76.548 281.005 C 74.553 279.005,72.176 276.028,70.526 273.462 C 63.547 262.608,63.249 261.998,57.367 246.512 C 56.847 245.144,56.246 243.704,56.031 243.312 C 54.936 241.319,51.542 228.269,51.009 224.000 C 50.857 222.790,50.359 219.280,49.900 216.200 C 49.170 211.296,49.070 208.835,49.097 196.400 C 49.135 178.665,49.226 178.970,43.000 175.956 C 38.502 173.779,35.759 173.763,32.117 175.894 C 27.293 178.716,26.642 180.647,26.216 193.400 C 25.516 214.372,27.909 230.314,34.975 251.752 C 36.199 255.465,37.200 258.723,37.200 258.992 C 37.200 259.261,37.627 260.285,38.150 261.267 C 38.672 262.250,39.236 263.491,39.402 264.027 C 39.781 265.248,42.922 270.537,44.374 272.400 C 45.307 273.597,46.369 275.289,50.399 282.000 C 50.730 282.550,51.324 283.540,51.721 284.200 C 52.117 284.860,53.377 287.053,54.521 289.072 C 56.533 292.627,59.883 297.164,63.125 300.726 C 63.988 301.676,65.484 303.378,66.448 304.509 C 67.411 305.640,68.943 307.294,69.851 308.183 C 71.545 309.843,72.178 310.381,77.000 314.257 C 78.540 315.495,81.780 318.433,84.200 320.786 C 89.038 325.489,91.613 327.647,94.513 329.426 C 95.565 330.072,98.175 331.738,100.313 333.129 C 105.305 336.376,117.769 342.414,122.315 343.787 C 122.818 343.939,123.988 344.497,124.915 345.027 C 125.842 345.557,126.870 345.994,127.200 345.998 C 127.530 346.002,128.275 346.253,128.855 346.555 C 130.477 347.402,136.201 349.443,140.200 350.601 C 142.180 351.175,144.880 352.008,146.200 352.453 C 147.520 352.897,150.040 353.582,151.800 353.974 C 153.560 354.367,155.990 354.981,157.200 355.340 C 158.410 355.699,162.550 356.261,166.400 356.589 C 170.250 356.917,175.200 357.364,177.400 357.582 C 183.178 358.156,191.314 358.088,196.286 357.425 C 198.659 357.108,202.310 356.737,204.400 356.599 C 210.221 356.216,214.256 355.678,216.323 355.009 C 217.355 354.674,219.460 354.150,221.000 353.843 C 222.540 353.537,225.690 352.580,228.000 351.717 C 230.310 350.854,235.080 349.199,238.600 348.040 C 242.120 346.881,245.900 345.506,247.000 344.985 C 248.100 344.464,249.720 343.777,250.600 343.459 C 256.230 341.422,260.235 339.394,267.600 334.852 C 270.130 333.291,273.640 331.278,275.400 330.378 C 280.629 327.704,293.069 316.725,303.200 305.841 C 304.630 304.305,307.603 301.237,309.806 299.024 C 313.991 294.820,316.744 291.059,319.340 286.001 C 320.188 284.351,321.103 282.730,321.376 282.400 C 321.980 281.668,325.380 275.979,326.935 273.101 C 329.856 267.693,334.800 255.924,334.800 254.381 C 334.800 254.149,335.321 252.574,335.957 250.880 C 337.771 246.055,339.040 241.875,340.599 235.600 C 341.391 232.410,342.386 228.540,342.809 227.000 C 344.875 219.482,346.224 204.255,345.803 193.200 C 345.377 182.021,344.643 177.325,341.301 164.400 C 340.420 160.990,339.576 157.227,339.427 156.037 C 339.278 154.848,338.910 153.400,338.610 152.820 C 338.310 152.239,337.767 150.603,337.403 149.182 C 337.039 147.762,336.501 146.226,336.207 145.769 C 335.913 145.312,335.406 144.052,335.081 142.969 C 334.756 141.886,333.546 138.840,332.392 136.200 C 331.238 133.560,329.799 130.230,329.195 128.800 C 326.285 121.910,322.900 115.958,317.629 108.461 C 316.183 106.404,314.737 104.334,314.416 103.861 C 312.987 101.753,310.711 99.289,309.002 98.000 C 307.981 97.230,306.561 96.115,305.846 95.523 C 302.729 92.940,299.281 92.305,296.327 93.772 M303.763 96.249 C 308.309 99.227,311.056 101.960,314.528 106.962 C 321.923 117.617,324.395 121.866,327.113 128.600 C 328.002 130.800,329.480 134.220,330.398 136.200 C 332.941 141.682,336.774 152.854,337.877 158.000 C 338.778 162.201,340.214 168.026,342.018 174.800 C 345.164 186.614,344.458 212.846,340.590 227.800 C 339.623 231.540,338.186 237.185,337.398 240.344 C 336.609 243.504,335.273 247.914,334.429 250.144 C 333.585 252.375,332.762 254.816,332.600 255.568 C 332.229 257.296,330.446 261.561,326.901 269.200 C 325.649 271.899,321.323 279.567,319.004 283.200 C 318.512 283.970,317.471 285.770,316.689 287.200 C 313.850 292.396,311.676 294.919,299.103 307.600 C 284.935 321.891,280.971 325.344,275.000 328.594 C 273.460 329.432,270.760 331.051,269.000 332.192 C 264.743 334.951,255.847 339.810,253.607 340.599 C 252.620 340.946,251.450 341.466,251.007 341.755 C 250.563 342.043,249.480 342.508,248.600 342.788 C 247.720 343.068,246.446 343.631,245.770 344.038 C 245.093 344.446,243.365 345.052,241.929 345.384 C 238.744 346.123,230.085 348.955,224.400 351.118 C 213.106 355.414,184.230 357.562,167.200 355.374 C 161.065 354.586,153.273 352.831,146.800 350.779 C 142.730 349.489,137.870 347.994,136.000 347.455 C 130.567 345.891,124.505 343.463,117.200 339.926 C 114.450 338.595,111.560 337.278,110.779 336.998 C 107.924 335.979,104.305 333.919,98.715 330.130 C 90.586 324.622,88.766 323.163,84.441 318.693 C 82.328 316.509,79.520 313.934,78.200 312.969 C 76.880 312.004,75.013 310.627,74.050 309.908 C 70.358 307.149,56.864 290.723,55.114 286.858 C 54.075 284.562,48.546 275.339,46.088 271.800 C 42.256 266.282,39.207 260.114,38.180 255.800 C 37.865 254.480,36.445 249.945,35.023 245.721 C 32.253 237.492,30.794 231.345,29.808 223.754 C 29.469 221.139,28.914 217.117,28.576 214.816 C 27.853 209.897,27.704 187.928,28.371 184.500 C 29.691 177.716,34.742 174.710,41.222 176.852 C 47.080 178.789,47.433 179.765,47.273 193.600 C 47.014 216.098,49.793 233.435,56.041 248.302 C 56.942 250.446,58.266 253.730,58.983 255.600 C 61.078 261.062,67.131 272.260,69.746 275.510 C 70.228 276.110,71.135 277.363,71.762 278.295 C 72.389 279.227,73.852 280.801,75.013 281.793 C 76.173 282.785,78.175 285.161,79.460 287.072 C 85.703 296.358,99.488 308.416,111.400 315.010 C 117.609 318.447,118.966 319.277,123.725 322.549 C 127.330 325.028,137.877 329.403,143.188 330.623 C 144.625 330.953,146.520 331.483,147.400 331.800 C 148.280 332.118,150.170 332.575,151.600 332.816 C 153.030 333.058,155.370 333.603,156.800 334.029 C 158.230 334.454,161.830 335.063,164.800 335.382 C 167.770 335.701,171.730 336.188,173.600 336.465 C 178.633 337.210,195.622 337.095,200.200 336.285 C 202.180 335.935,205.868 335.438,208.396 335.182 C 210.924 334.925,214.074 334.388,215.396 333.988 C 216.718 333.589,219.132 333.062,220.760 332.818 C 227.577 331.795,245.639 324.879,249.800 321.698 C 250.900 320.856,252.970 319.469,254.400 318.614 C 260.582 314.919,262.653 313.623,263.478 312.934 C 263.960 312.530,265.267 311.570,266.381 310.800 C 267.494 310.030,269.079 308.879,269.903 308.242 C 270.726 307.606,273.178 305.922,275.352 304.501 C 279.878 301.542,290.370 291.373,292.259 288.115 C 292.869 287.062,295.356 283.405,297.784 279.990 C 300.213 276.574,303.010 272.457,304.000 270.841 C 304.990 269.224,307.142 265.898,308.782 263.451 C 310.852 260.361,312.182 257.838,313.130 255.200 C 313.881 253.110,314.636 251.220,314.808 251.000 C 317.306 247.804,322.063 229.683,323.681 217.200 C 325.877 200.258,324.630 174.758,321.164 165.713 C 320.929 165.101,320.054 161.810,319.219 158.400 C 318.383 154.990,316.948 150.400,316.028 148.200 C 315.109 146.000,313.986 143.235,313.533 142.056 C 313.080 140.876,311.204 137.726,309.364 135.056 C 307.524 132.385,305.356 128.850,304.546 127.200 C 302.762 123.562,298.808 117.469,295.667 113.515 C 291.086 107.750,290.126 105.035,291.359 101.324 C 293.221 95.718,299.210 93.267,303.763 96.249 " stroke="none" fill="#99b9be" fill-rule="evenodd"></path></g></svg>