<?xml version="1.0" encoding="UTF-8"?>
<svg version="1.1" xmlns="http://www.w3.org/2000/svg" width="240" height="239">
<path d="M0 0 C79.2 0 158.4 0 240 0 C240 78.87 240 157.74 240 239 C160.8 239 81.6 239 0 239 C0 160.13 0 81.26 0 0 Z " fill="#105590" transform="translate(0,0)"/>
<path d="M0 0 C79.2 0 158.4 0 240 0 C240 78.87 240 157.74 240 239 C160.8 239 81.6 239 0 239 C0 160.13 0 81.26 0 0 Z M43.46875 48.67578125 C22.41503485 72.68611381 16.35070739 100.68734317 18 132 C18.48161835 137.49148489 19.53626045 142.6783882 21 148 C21.32871094 149.21945313 21.65742188 150.43890625 21.99609375 151.6953125 C26.4120763 166.33375985 33.54359583 179.79193738 44 191 C44.4630957 191.49870605 44.92619141 191.99741211 45.40332031 192.51123047 C51.7120348 199.242608 58.12862056 205.10763493 66 210 C66.89976563 210.58265625 67.79953125 211.1653125 68.7265625 211.765625 C91.10112092 225.63664504 118.26002677 229.8249502 143.96875 224.16796875 C162.17069579 219.20088847 177.87010742 210.4608276 192 198 C192.61101562 197.47277344 193.22203125 196.94554687 193.8515625 196.40234375 C212.46567414 179.15561946 223.13949829 152.96592155 225 128 C225.07589355 127.00009033 225.07589355 127.00009033 225.15332031 125.97998047 C227.08476627 96.41774109 215.95938582 69.792707 197.2109375 47.4609375 C180.44176622 28.79560551 158.3084521 18.85276493 134 15 C133.2059375 14.81566406 132.411875 14.63132812 131.59375 14.44140625 C98.4864041 8.80717419 65.72358808 25.15021939 43.46875 48.67578125 Z " fill="#074F8C" transform="translate(0,0)"/>
<path d="M0 0 C14.08728985 12.42004411 23.438778 29.6461174 25.6875 48.3125 C26.76483562 71.03676526 21.11022501 91.23632203 5.6875 108.3125 C-6.92634425 121.56069618 -24.27838481 129.15829814 -42.49414062 129.65600586 C-62.14936943 129.88583948 -79.22407469 123.85383642 -93.70410156 110.13183594 C-107.45632502 96.44690165 -115.41307304 78.77136994 -115.69335938 59.34326172 C-115.65429467 37.88697296 -110.31749042 20.32229277 -94.94921875 4.890625 C-94.07910156 4.03984375 -93.20898438 3.1890625 -92.3125 2.3125 C-91.67957031 1.64734375 -91.04664062 0.9821875 -90.39453125 0.296875 C-65.98110601 -23.6315153 -25.25123363 -19.93855329 0 0 Z " fill="#0C538E" transform="translate(166.3125,62.6875)"/>
<path d="M0 0 C2.4375 1.5 2.4375 1.5 4 3 C3 6 3 6 1.15234375 6.94921875 C-1.92382812 7.97460938 -1.92382812 7.97460938 -5 9 C-4.505 14.94 -4.505 14.94 -4 21 C2.93 20.34 9.86 19.68 17 19 C17 17.35 17 15.7 17 14 C15.35 13.67 13.7 13.34 12 13 C11.375 10.625 11.375 10.625 11 8 C13 6 13 6 14.875 5.734375 C15.57625 5.73953125 16.2775 5.7446875 17 5.75 C17.70125 5.74484375 18.4025 5.7396875 19.125 5.734375 C21 6 21 6 23 8 C23.4140625 10.6015625 23.4140625 10.6015625 23.625 13.625 C23.73714844 15.12933594 23.73714844 15.12933594 23.8515625 16.6640625 C23.90054688 17.43492188 23.94953125 18.20578125 24 19 C25.093125 18.95875 26.18625 18.9175 27.3125 18.875 C31 19 31 19 34 21 C33.37802877 27.33881314 32.71457113 33.67094142 32 40 C32.969375 40.556875 33.93875 41.11375 34.9375 41.6875 C38 44 38 44 38.875 46.75 C38.91625 47.4925 38.9575 48.235 39 49 C33.25 48.125 33.25 48.125 31 47 C31.350625 47.969375 31.70125 48.93875 32.0625 49.9375 C33.5343501 55.0786102 32.66446388 59.99069251 31.52734375 65.140625 C31.01377176 67.4638336 31.01377176 67.4638336 31 71 C32.66247014 73.00348966 34.32932867 75.00334402 36 77 C37.35452458 83.80897434 34.97620999 89.74586123 32.25 95.875 C31.90195313 96.71546875 31.55390625 97.5559375 31.1953125 98.421875 C29.32132124 102.76675843 28.02568279 105.32147793 24 108 C27.4187525 109.24318273 28.92079529 109.02933508 32.375 107.75 C38.03408032 104.16343374 42.03428576 97.72722294 43.6953125 91.31640625 C44.07997956 88.64419566 44.07997956 88.64419566 44 85 C43.67 84.67 43.34 84.34 43 84 C42.8125 81.5625 42.8125 81.5625 43 79 C43.66 78.34 44.32 77.68 45 77 C47.5625 77.25 47.5625 77.25 50 78 C52.51616542 83.03233084 51.4563674 89.3369972 50.0234375 94.55859375 C48.78435744 98.08959182 47.43643489 101.54501811 46 105 C45.71253906 105.76441406 45.42507812 106.52882813 45.12890625 107.31640625 C40.90254543 117.32620818 31.71952389 123.66582224 22.46875 128.625 C6.33224889 135.02145089 -18.00165611 134.87300467 -34.01806641 128.15332031 C-46.40510305 122.65357696 -55.3437454 116.73580507 -61.375 104.125 C-63.02043582 95.89782089 -62.20000351 88.71429417 -59 81 C-60.65 80.67 -62.3 80.34 -64 80 C-64.125 77.625 -64.125 77.625 -64 75 C-62 73 -62 73 -59.625 72.5625 C-57 73 -57 73 -54.6875 75.0625 C-52.58018861 78.73078279 -52.55982693 80.8183558 -53 85 C-53.495 86.4540625 -53.495 86.4540625 -54 87.9375 C-55.24362343 91.74609675 -55.66115259 95.03308447 -55 99 C-53.29535723 102.47781208 -53.29535723 102.47781208 -51 105 C-50.34 105 -49.68 105 -49 105 C-49.65585189 101.39007621 -49.65585189 101.39007621 -51 98 C-51.56406011 93.8635592 -51.14638597 92.23954067 -48.9375 88.625 C-46 86 -46 86 -42.1875 85.625 C-40.6096875 85.810625 -40.6096875 85.810625 -39 86 C-39 86.66 -39 87.32 -39 88 C-42.465 88.99 -42.465 88.99 -46 90 C-46 92.64 -46 95.28 -46 98 C-45.01 98 -44.02 98 -43 98 C-42.67 96.68 -42.34 95.36 -42 94 C-40.515 94.495 -40.515 94.495 -39 95 C-39.44314814 98.01340738 -40.10397911 100.20362576 -41.5 102.9375 C-43.01623256 106.03314147 -43.59489749 108.59713893 -44 112 C-42.515 111.505 -42.515 111.505 -41 111 C-39.97718482 108.90280128 -39.97718482 108.90280128 -39.3125 106.4375 C-39.06113281 105.61121094 -38.80976562 104.78492188 -38.55078125 103.93359375 C-38.36902344 103.29550781 -38.18726562 102.65742188 -38 102 C-37.01 102 -36.02 102 -35 102 C-35.33 106.29 -35.66 110.58 -36 115 C-34.515 114.505 -34.515 114.505 -33 114 C-32.93941406 113.39671875 -32.87882812 112.7934375 -32.81640625 112.171875 C-32.69072266 110.97304687 -32.69072266 110.97304687 -32.5625 109.75 C-32.48128906 108.96109375 -32.40007812 108.1721875 -32.31640625 107.359375 C-32.02365007 105.17635361 -31.57935581 103.1226818 -31 101 C-29.02 100.505 -29.02 100.505 -27 100 C-27 105.61 -27 111.22 -27 117 C-25.68 117 -24.36 117 -23 117 C-23.02320313 116.15695313 -23.04640625 115.31390625 -23.0703125 114.4453125 C-23.08835938 113.34960938 -23.10640625 112.25390625 -23.125 111.125 C-23.14820313 110.03445312 -23.17140625 108.94390625 -23.1953125 107.8203125 C-23 105 -23 105 -21 103 C-20.01 103 -19.02 103 -18 103 C-17.93941406 103.84304687 -17.87882812 104.68609375 -17.81640625 105.5546875 C-17.73261719 106.65039062 -17.64882812 107.74609375 -17.5625 108.875 C-17.48128906 109.96554688 -17.40007812 111.05609375 -17.31640625 112.1796875 C-17.16998297 114.94728971 -17.16998297 114.94728971 -16 117 C-15.01 117.33 -14.02 117.66 -13 118 C-13.33 113.71 -13.66 109.42 -14 105 C-12.68 105 -11.36 105 -10 105 C-9.81824219 105.85464844 -9.63648438 106.70929688 -9.44921875 107.58984375 C-9.07216797 109.24693359 -9.07216797 109.24693359 -8.6875 110.9375 C-8.44386719 112.03964844 -8.20023438 113.14179688 -7.94921875 114.27734375 C-7.63597656 115.17582031 -7.32273438 116.07429688 -7 117 C-6.01 117.33 -5.02 117.66 -4 118 C-4.309375 116.948125 -4.61875 115.89625 -4.9375 114.8125 C-5.75685094 111.87247604 -6.45483931 108.99838377 -7 106 C-5.125 105.375 -5.125 105.375 -3 105 C-0.32002998 107.67997002 0.11522872 110.41153114 1.12109375 114.00390625 C1.41113281 114.66261719 1.70117188 115.32132812 2 116 C3.485 116.495 3.485 116.495 5 117 C4.2265625 115.6696875 4.2265625 115.6696875 3.4375 114.3125 C1.9131063 110.79976669 1.85052105 109.55293493 3 106 C4.98 106.495 4.98 106.495 7 107 C7.99 111.455 7.99 111.455 9 116 C9.99 115.67 10.98 115.34 12 115 C11.505 111.04 11.505 111.04 11 107 C13.375 107.25 13.375 107.25 16 108 C17.1875 110 17.1875 110 18 112 C18.66 112.33 19.32 112.66 20 113 C20 111.02 20 109.04 20 107 C19.01 107 18.02 107 17 107 C17.1875 105.125 17.1875 105.125 18 103 C18.804375 102.773125 19.60875 102.54625 20.4375 102.3125 C23.10396792 101.30457663 23.10396792 101.30457663 23.68115234 99.25244141 C24.90356716 93.46225712 25.27556205 87.97192676 25.1875 82.0625 C25.18685547 81.21365234 25.18621094 80.36480469 25.18554688 79.49023438 C25.28831504 75.09489879 25.28831504 75.09489879 24 71 C23.84824451 69.40737934 23.75099675 67.80935144 23.68359375 66.2109375 C23.64169922 65.26992187 23.59980469 64.32890625 23.55664062 63.359375 C23.51732422 62.37453125 23.47800781 61.3896875 23.4375 60.375 C23.39431641 59.38242188 23.35113281 58.38984375 23.30664062 57.3671875 C23.20038931 54.91160162 23.09835036 52.45591297 23 50 C21.68 50.33 20.36 50.66 19 51 C18.49232932 53.91294536 17.99947645 56.82714197 17.52734375 59.74609375 C17.207284 61.72098096 16.87068564 63.69341005 16.50390625 65.66015625 C16.37886719 66.43230469 16.25382812 67.20445313 16.125 68 C15.94324219 69.0209375 15.94324219 69.0209375 15.7578125 70.0625 C15.82352784 72.22405086 15.82352784 72.22405086 17.953125 73.90625 C20.5389212 76.55126291 20.59555511 77.84883399 20.625 81.5 C20.38520548 89.01663592 17.61992422 96.58442634 12.0625 101.828125 C8.66699556 103.75738889 5.84309367 103.19215468 2 103 C2.125 101.25 2.125 101.25 3 99 C5 97.66666667 7 96.33333333 9 95 C10.84996336 90.05242357 11.07272807 82.98704391 9.29296875 78.03125 C9.01066406 77.4434375 8.72835937 76.855625 8.4375 76.25 C4.57681329 67.38134703 8.04578008 55.12601728 10 46 C8.35 46 6.7 46 5 46 C4.96261719 47.02480469 4.92523438 48.04960938 4.88671875 49.10546875 C4.82102921 50.46618062 4.75458291 51.82685611 4.6875 53.1875 C4.66494141 53.86103516 4.64238281 54.53457031 4.61914062 55.22851562 C4.38534612 59.58559504 3.71159353 62.54469271 1 66 C-1.4375 66.625 -1.4375 66.625 -4 66 C-8.62499702 61.50714575 -10.08840014 56.5298242 -10.23046875 50.21484375 C-10.22651556 48.4556753 -10.21194847 46.69650299 -10.1875 44.9375 C-10.18685547 44.05255859 -10.18621094 43.16761719 -10.18554688 42.25585938 C-10.14095084 35.65069086 -10.14095084 35.65069086 -9.4296875 32.3671875 C-8.7998922 28.89758794 -9.40672656 25.63258226 -9.9375 22.1875 C-10.03740234 21.49462891 -10.13730469 20.80175781 -10.24023438 20.08789062 C-10.48601588 18.39082787 -10.74198152 16.69524541 -11 15 C-12.09054688 15.01546875 -13.18109375 15.0309375 -14.3046875 15.046875 C-19.31068181 14.98337402 -22.58005348 13.88352228 -26.8125 11.25 C-29.46549978 8.52120023 -29.74521793 6.73680369 -30 3 C-28.68 3 -27.36 3 -26 3 C-24.88625 4.2375 -24.88625 4.2375 -23.75 5.5 C-20.84919621 8.13709435 -20.4647748 8.36179105 -16.8125 8.375 C-13.20018841 8.24905749 -13.20018841 8.24905749 -11 7 C-10.67 6.01 -10.34 5.02 -10 4 C-9.67 3.01 -9.34 2.02 -9 1 C-5.94306678 -0.52846661 -3.37015453 -0.23242445 0 0 Z " fill="#F7F9FB" transform="translate(128,52)"/>
<path d="M0 0 C2.48663274 2.21279397 4.75957743 4.54175857 7 7 C7.825 7.804375 8.65 8.60875 9.5 9.4375 C28.57904097 28.993517 39.46152279 55.07742295 39.4375 82.5625 C39.36520355 85.38237303 39.20349242 88.18685478 39 91 C38.9278125 92.22203125 38.855625 93.4440625 38.78125 94.703125 C36.57835007 117.83357425 25.99562429 138.64849788 11 156 C10.34386719 156.75925781 9.68773437 157.51851562 9.01171875 158.30078125 C-8.01477302 176.49397052 -34.54228721 188.2089998 -59.2265625 189.25390625 C-86.52271192 190.01034435 -112.24276873 182.1174759 -132.5625 163.3125 C-134.39651096 161.56188064 -136.19868105 159.7847424 -138 158 C-138.67546875 157.37351563 -139.3509375 156.74703125 -140.046875 156.1015625 C-156.84184162 140.27267803 -167.20001876 114.84953453 -168.12109375 91.99536133 C-168.88693468 60.49331534 -162.41276501 32.93414122 -140.38525391 9.44775391 C-131.87402693 0.55251669 -122.58291246 -5.87168139 -112 -12 C-110.70642578 -12.7734375 -110.70642578 -12.7734375 -109.38671875 -13.5625 C-74.84022109 -32.6555557 -29.86988851 -22.91224379 0 0 Z M-140 16 C-159.06214188 38.97871893 -166.21043396 66.82500609 -163.81396484 96.28710938 C-160.86496301 121.77705598 -146.7425825 145.44900124 -127.515625 162.015625 C-116.97339711 170.33154389 -104.05621396 177.55731672 -91 181 C-90.04738281 181.27714844 -89.09476562 181.55429688 -88.11328125 181.83984375 C-63.1545042 188.24937584 -37.25898503 183.37838474 -15.109375 170.86328125 C-6.83865412 165.92251971 0.20630265 159.79369735 7 153 C7.65484375 152.34515625 8.3096875 151.6903125 8.984375 151.015625 C27.0218513 131.65429723 35.92488181 104.29464922 35.25 78.140625 C34.07397189 53.3734731 24.03575116 31.55503744 8 13 C7.34386719 12.24074219 6.68773437 11.48148438 6.01171875 10.69921875 C-11.21863148 -7.71179788 -36.47611479 -18.13769376 -61.359375 -19.22265625 C-91.78928929 -20.06239511 -120.01341452 -6.7814576 -140 16 Z " fill="#F1F5F8" transform="translate(186,37)"/>
<path d="M0 0 C1.55512777 1.31760825 3.09814101 2.64973502 4.625 4 C5.52605469 4.75990234 5.52605469 4.75990234 6.4453125 5.53515625 C19.82774861 17.70383653 28.83919933 37.06274177 29.72558594 55.04003906 C30.52530113 77.77762035 25.03413391 98.67942772 9.625 116 C9.03203125 116.68707031 8.4390625 117.37414062 7.828125 118.08203125 C-4.60544389 131.55173088 -23.47152657 140.18772538 -41.671875 141.1796875 C-63.41478867 141.61454577 -83.04868465 135.55265222 -99.00390625 120.36328125 C-100.17759766 119.19345703 -100.17759766 119.19345703 -101.375 118 C-102.14714844 117.25105469 -102.91929688 116.50210938 -103.71484375 115.73046875 C-117.42093175 101.60265497 -124.01777678 82.13859177 -124.6875 62.6875 C-124.19555004 41.53365154 -116.03189268 22.89263645 -102.375 7 C-101.85550781 6.38382813 -101.33601563 5.76765625 -100.80078125 5.1328125 C-93.53033614 -2.81523077 -82.55215158 -9.54952738 -72.375 -13 C-71.5190625 -13.29648437 -70.663125 -13.59296875 -69.78125 -13.8984375 C-45.46488664 -20.87339436 -19.77793561 -15.37622964 0 0 Z M-98.375 11 C-99.04273437 11.64582031 -99.71046875 12.29164062 -100.3984375 12.95703125 C-112.87257058 25.91093868 -117.66841558 43.14189886 -117.8125 60.625 C-117.8228125 61.66188965 -117.833125 62.6987793 -117.84375 63.76708984 C-117.61897249 83.4881948 -109.34333917 100.58460465 -95.9375 114.8125 C-88.15603892 122.1487974 -79.24344191 127.01397083 -69.375 131 C-68.53839844 131.34289062 -67.70179687 131.68578125 -66.83984375 132.0390625 C-54.24494921 136.31054813 -37.76400243 135.46076327 -25.375 131 C-24.40820312 130.67128906 -23.44140625 130.34257812 -22.4453125 130.00390625 C-4.12822857 123.12905267 8.79969901 110.08028194 17.23828125 92.671875 C25.50546113 73.2598538 26.10749326 52.61584907 18.375 32.8125 C9.33275656 12.48098856 -5.26498981 0.00518533 -25.609375 -8.32421875 C-52.29531716 -17.42169903 -79.17148257 -8.40178383 -98.375 11 Z " fill="#F4F7FA" transform="translate(168.375,58)"/>
<path d="M0 0 C4.76412797 3.35215827 9.34944216 7.23769748 11 13 C11.96355186 21.72163437 11.89400068 30.44651436 7 38 C2.35437401 43.31072646 -3.20616108 47.44111237 -10.37890625 48.27734375 C-18.3195518 48.58042182 -24.06987595 46.80676999 -30.25 41.8125 C-35.70290255 36.7559774 -38.5944828 30.65347603 -39.23828125 23.265625 C-39.42870413 15.52844268 -38.72148168 10.13602647 -33.45703125 4.28515625 C-24.56733545 -4.03494806 -10.68485646 -6.41091388 0 0 Z " fill="#F5F8FA" transform="translate(103,82)"/>
<path d="M0 0 C2.375 1.625 2.375 1.625 4 4 C4.48891657 7.35257076 4.35810604 9.26389315 2.875 12.3125 C0.22119455 14.7009249 -1.44046851 15.07119063 -5 15 C-7.9375 13 -7.9375 13 -10 10 C-10 6.43116591 -9.68455497 4.11690548 -7.8125 1.0625 C-5.04411529 -0.56034621 -3.14454533 -0.44922076 0 0 Z " fill="#E9EFF4" transform="translate(180,43)"/>
<path d="M0 0 C1.9375 1 1.9375 1 3 3 C3.52960415 6.58042244 3.65886567 9.75978228 1.9375 13 C-1.13215135 14.58433618 -3.61681143 14.36248449 -7 14 C-9.20026296 12.39289549 -9.90755285 11.50845933 -10.3984375 8.80859375 C-10.39070313 8.02613281 -10.38296875 7.24367188 -10.375 6.4375 C-10.38273437 5.65246094 -10.39046875 4.86742187 -10.3984375 4.05859375 C-10.26695313 3.37925781 -10.13546875 2.69992188 -10 2 C-6.30513897 -0.46324069 -4.36706908 -0.38991688 0 0 Z " fill="#F0F4F8" transform="translate(132,23)"/>
<path d="M0 0 C3.81287042 1.44626119 5.32707177 3.30194812 7 7 C6.6875 9.3125 6.6875 9.3125 6 11 C4.68 11 3.36 11 2 11 C1.67 12.32 1.34 13.64 1 15 C-0.32 15.33 -1.64 15.66 -3 16 C-4.00593243 14.8803014 -5.0045849 13.7540588 -6 12.625 C-6.8353125 11.68527344 -6.8353125 11.68527344 -7.6875 10.7265625 C-9 9 -9 9 -9 7 C-7.34151823 5.98648336 -5.67334039 4.98879205 -4 4 C-2.63015802 2.70420353 -1.2848951 1.38007251 0 0 Z " fill="#D1DEE9" transform="translate(190,55)"/>
<path d="M0 0 C7.75 -0.125 7.75 -0.125 10 1 C9.814375 2.0725 9.62875 3.145 9.4375 4.25 C9.05403165 7.53687158 9.21326247 8.96544096 10 12 C8 14 8 14 6.125 14.265625 C5.42375 14.26046875 4.7225 14.2553125 4 14.25 C3.29875 14.25515625 2.5975 14.2603125 1.875 14.265625 C0 14 0 14 -2 12 C-1.625 9.375 -1.625 9.375 -1 7 C-0.34 7 0.32 7 1 7 C0.34 6.01 -0.32 5.02 -1 4 C-0.625 1.8125 -0.625 1.8125 0 0 Z " fill="#A1BCD3" transform="translate(109,203)"/>
<path d="M0 0 C1.17881287 3.68379022 1.21358801 7.15541573 1 11 C-1 13 -1 13 -3.4375 13.0625 C-4.7059375 13.0315625 -4.7059375 13.0315625 -6 13 C-6.99 13.33 -7.98 13.66 -9 14 C-9 14.99 -9 15.98 -9 17 C-9.66 17 -10.32 17 -11 17 C-11 15.02 -11 13.04 -11 11 C-9.68 10.67 -8.36 10.34 -7 10 C-7 9.01 -7 8.02 -7 7 C-8.98 7.33 -10.96 7.66 -13 8 C-13.33 6.35 -13.66 4.7 -14 3 C-13.37351563 2.86722656 -12.74703125 2.73445313 -12.1015625 2.59765625 C-11.28429687 2.42105469 -10.46703125 2.24445313 -9.625 2.0625 C-8.81289062 1.88847656 -8.00078125 1.71445313 -7.1640625 1.53515625 C-0.95620438 0 -0.95620438 0 0 0 Z " fill="#BBCFDF" transform="translate(212,89)"/>
<path d="M0 0 C0.66 0 1.32 0 2 0 C2 1.65 2 3.3 2 5 C0.02 5.33 -1.96 5.66 -4 6 C-4 6.99 -4 7.98 -4 9 C-2.35 9 -0.7 9 1 9 C1 10.65 1 12.3 1 14 C-5.93 13.505 -5.93 13.505 -13 13 C-12.25 4.375 -12.25 4.375 -10 1 C-6.7 1.33 -3.4 1.66 0 2 C0 1.34 0 0.68 0 0 Z " fill="#ECF2F6" transform="translate(39,103)"/>
<path d="M0 0 C0.99 0 1.98 0 3 0 C3 0.66 3 1.32 3 2 C6.63 2.66 10.26 3.32 14 4 C13.67 5.32 13.34 6.64 13 8 C11.15234375 9.046875 11.15234375 9.046875 8.9375 9.75 C7.83728516 10.11351562 7.83728516 10.11351562 6.71484375 10.484375 C5.86599609 10.73960937 5.86599609 10.73960937 5 11 C5 11.33 5 11.66 5 12 C6.65 12.33 8.3 12.66 10 13 C9.67 14.65 9.34 16.3 9 18 C8.34 18 7.68 18 7 18 C6.55011719 17.53980469 6.10023438 17.07960937 5.63671875 16.60546875 C3.77194167 14.776296 2.26672559 14.15739733 -0.1875 13.3125 C-0.90292969 13.06113281 -1.61835938 12.80976563 -2.35546875 12.55078125 C-2.89816406 12.36902344 -3.44085938 12.18726563 -4 12 C-3.67 10.68 -3.34 9.36 -3 8 C-0.69 7.34 1.62 6.68 4 6 C4 5.67 4 5.34 4 5 C2.35 4.67 0.7 4.34 -1 4 C-0.67 2.68 -0.34 1.36 0 0 Z " fill="#EAF0F5" transform="translate(199,143)"/>
<path d="M0 0 C0.99 0.33 1.98 0.66 3 1 C2.34 4.3 1.68 7.6 1 11 C2.32 10.34 3.64 9.68 5 9 C5 8.01 5 7.02 5 6 C5.66 6 6.32 6 7 6 C7.66 7.32 8.32 8.64 9 10 C8.36191406 10.40992188 7.72382812 10.81984375 7.06640625 11.2421875 C5.82697266 12.05042969 5.82697266 12.05042969 4.5625 12.875 C3.73878906 13.40867188 2.91507813 13.94234375 2.06640625 14.4921875 C-0.11038871 15.83834306 -0.11038871 15.83834306 -1 18 C-1.99 17.67 -2.98 17.34 -4 17 C-3.67 14.03 -3.34 11.06 -3 8 C-4.32 9.32 -5.64 10.64 -7 12 C-7.66 10.35 -8.32 8.7 -9 7 C-7.57277341 5.8001722 -6.13284224 4.6154424 -4.6875 3.4375 C-3.88699219 2.77621094 -3.08648437 2.11492187 -2.26171875 1.43359375 C-1.51535156 0.96050781 -0.76898438 0.48742187 0 0 Z " fill="#E9F0F5" transform="translate(51,165)"/>
<path d="M0 0 C2 2 2 2 2.375 5.3125 C1.93881217 9.60168034 1.24278198 11.18389986 -2 14 C-5.25 14.3125 -5.25 14.3125 -8 14 C-8 13.34 -8 12.68 -8 12 C-6.35 11.34 -4.7 10.68 -3 10 C-3 9.67 -3 9.34 -3 9 C-3.78375 9.04125 -4.5675 9.0825 -5.375 9.125 C-8 9 -8 9 -10 7 C-10.35877543 4.20155166 -10.33812547 2.596692 -8.9375 0.125 C-5.82785011 -1.68060316 -3.38260527 -0.79952488 0 0 Z " fill="#F0F4F8" transform="translate(134,203)"/>
<path d="M0 0 C1.65 0.33 3.3 0.66 5 1 C5 1.66 5 2.32 5 3 C4.34 3 3.68 3 3 3 C3.66868314 6.11332248 3.66868314 6.11332248 6.0625 7.1875 C6.701875 7.455625 7.34125 7.72375 8 8 C8 6.35 8 4.7 8 3 C10.475 3.99 10.475 3.99 13 5 C13 5.66 13 6.32 13 7 C12.34 7 11.68 7 11 7 C10.01 10.63 9.02 14.26 8 18 C5.525 17.01 5.525 17.01 3 16 C3 15.34 3 14.68 3 14 C3.66 14 4.32 14 5 14 C5 13.01 5 12.02 5 11 C3.68 10.34 2.36 9.68 1 9 C0.67 10.32 0.34 11.64 0 13 C-1.65 12.67 -3.3 12.34 -5 12 C-5 11.34 -5 10.68 -5 10 C-4.34 10 -3.68 10 -3 10 C-2.01 6.7 -1.02 3.4 0 0 Z " fill="#E5ECF3" transform="translate(157,31)"/>
<path d="M0 0 C6.35368578 -0.47952345 6.35368578 -0.47952345 8.9375 1.4375 C10.5075279 5.22403788 10.42720984 8.94972208 10 13 C9 14 9 14 6.4375 14.0625 C5.633125 14.041875 4.82875 14.02125 4 14 C3.0234375 12.20963542 2.046875 10.41927083 1.0703125 8.62890625 C0.08589976 6.83381685 0.08589976 6.83381685 -2 6 C-1.34 4.02 -0.68 2.04 0 0 Z " fill="#155992" transform="translate(128,78)"/>
<path d="M0 0 C0.84304687 0.42925781 0.84304687 0.42925781 1.703125 0.8671875 C4.02870923 2.01415931 6.37770201 3.07839794 8.75 4.125 C9.54921875 4.47820313 10.3484375 4.83140625 11.171875 5.1953125 C11.77515625 5.46085937 12.3784375 5.72640625 13 6 C12.34 7.32 11.68 8.64 11 10 C10.01 10 9.02 10 8 10 C8 9.34 8 8.68 8 8 C5.91666921 9.74934898 5.91666921 9.74934898 4 12 C4 13.32 4 14.64 4 16 C3.01 16.33 2.02 16.66 1 17 C0.01 13.37 -0.98 9.74 -2 6 C-2.66 6 -3.32 6 -4 6 C-2.84826645 3.53199953 -1.95216435 1.95216435 0 0 Z " fill="#CEDCE8" transform="translate(58,47)"/>
<path d="M0 0 C0 0.99 0 1.98 0 3 C-2.31 2.67 -4.62 2.34 -7 2 C-6.67 4.64 -6.34 7.28 -6 10 C-4.68 10.33 -3.36 10.66 -2 11 C-2.33 9.02 -2.66 7.04 -3 5 C-1.35 5 0.3 5 2 5 C1.6875 8.375 1.6875 8.375 1 12 C-2.70415293 14.46943529 -4.62144505 14.46913089 -9 14 C-11.84223083 11.70787837 -11.98284286 10.12009999 -12.5 6.5 C-12 3 -12 3 -9.9375 0.5 C-6.18404153 -1.41665964 -4.03172323 -0.94864076 0 0 Z " fill="#E4ECF2" transform="translate(115,23)"/>
<path d="M0 0 C2.60405465 1.42802997 4.17423762 2.64617748 5.9375 5.0625 C5.87039704 8.350545 5.64912712 10.26191949 3.4375 12.75 C2.9425 13.183125 2.4475 13.61625 1.9375 14.0625 C1.6075 15.0525 1.2775 16.0425 0.9375 17.0625 C-1 16.25 -1 16.25 -3.0625 15.0625 C-3.3925 14.0725 -3.7225 13.0825 -4.0625 12.0625 C-3.2375 11.464375 -2.4125 10.86625 -1.5625 10.25 C-0.7375 9.528125 0.0875 8.80625 0.9375 8.0625 C0.9375 7.0725 0.9375 6.0825 0.9375 5.0625 C-0.97716367 5.18427688 -0.97716367 5.18427688 -3.0625 6.0625 C-4.83398372 8.54183197 -4.83398372 8.54183197 -6.0625 11.0625 C-8 10.75 -8 10.75 -10.0625 10.0625 C-10.3925 9.0725 -10.7225 8.0825 -11.0625 7.0625 C-10.505625 6.835625 -9.94875 6.60875 -9.375 6.375 C-6.83231118 5.08501734 -6.83231118 5.08501734 -4.5625 2.375 C-2.0625 0.0625 -2.0625 0.0625 0 0 Z " fill="#E9EFF5" transform="translate(65.0625,180.9375)"/>
<path d="M0 0 C2.4375 1.5625 2.4375 1.5625 4 4 C4.375 7.625 4.375 7.625 4 11 C3.34 11.66 2.68 12.32 2 13 C1.34 12.34 0.68 11.68 0 11 C0.375 8.375 0.375 8.375 1 6 C-1.31 6 -3.62 6 -6 6 C-6.33 7.32 -6.66 8.64 -7 10 C-5.35 9.67 -3.7 9.34 -2 9 C-2 10.98 -2 12.96 -2 15 C-4.64 14.01 -7.28 13.02 -10 12 C-10.08131463 10.56344146 -10.13933559 9.1255517 -10.1875 7.6875 C-10.22230469 6.88699219 -10.25710937 6.08648437 -10.29296875 5.26171875 C-10 3 -10 3 -8.703125 1.234375 C-5.83211005 -0.84645235 -3.41216306 -0.41903757 0 0 Z " fill="#E8EFF4" transform="translate(213,109)"/>
<path d="M0 0 C2.01822917 0.06510417 4.03645833 0.13020833 6.0546875 0.1953125 C6.24763158 5.01891439 5.81216364 8.69177988 4.0546875 13.1953125 C1.7446875 13.1953125 -0.5653125 13.1953125 -2.9453125 13.1953125 C-4.12204448 10.84184854 -4.11155116 9.3147092 -4.1328125 6.6953125 C-4.14699219 5.90125 -4.16117188 5.1071875 -4.17578125 4.2890625 C-3.85830247 1.40484852 -2.9301012 0.29418687 0 0 Z " fill="#125791" transform="translate(147.9453125,76.8046875)"/>
<path d="M0 0 C0.99 0.33 1.98 0.66 3 1 C3.6875 3.0625 3.6875 3.0625 4 5 C3.13375 5.185625 3.13375 5.185625 2.25 5.375 C-0.02335767 6.00648824 -1.9253529 6.88858191 -4 8 C-4 8.99 -4 9.98 -4 11 C-0.31245243 10.50168276 1.60490662 9.89932357 4 7 C4.99 7.33 5.98 7.66 7 8 C6.875 10.3125 6.875 10.3125 6 13 C2.4208085 15.35901258 -0.70100195 16.81332395 -5 16 C-7.47023459 13.78530692 -7.95105405 12.26104507 -8.5625 9 C-8 6 -8 6 -5.125 3.625 C-2 2 -2 2 0 2 C0 1.34 0 0.68 0 0 Z " fill="#E6EDF3" transform="translate(201,70)"/>
<path d="M0 0 C1.65 0 3.3 0 5 0 C5.33 3.63 5.66 7.26 6 11 C1.38 11.33 -3.24 11.66 -8 12 C-8.33 8.37 -8.66 4.74 -9 1 C-7.68 1 -6.36 1 -5 1 C-5.33 2.98 -5.66 4.96 -6 7 C-5.01 7 -4.02 7 -3 7 C-3.33 5.35 -3.66 3.7 -4 2 C-3.01 2 -2.02 2 -1 2 C-1.33 3.65 -1.66 5.3 -2 7 C-1.01 6.67 -0.02 6.34 1 6 C1.73323796 3.98491642 1.73323796 3.98491642 2 2 C1.34 2 0.68 2 0 2 C0 1.34 0 0.68 0 0 Z " fill="#E9EFF4" transform="translate(35,122)"/>
<path d="M0 0 C0.99 0.33 1.98 0.66 3 1 C3 1.66 3 2.32 3 3 C2.01 3.33 1.02 3.66 0 4 C-0.33 4.99 -0.66 5.98 -1 7 C-0.278125 6.319375 0.44375 5.63875 1.1875 4.9375 C4 3 4 3 6.8125 3.25 C7.8953125 3.62125 7.8953125 3.62125 9 4 C10.01925446 7.24308238 10.15750057 8.62697233 8.8125 11.8125 C8.214375 12.534375 7.61625 13.25625 7 14 C5.68 14 4.36 14 3 14 C3 13.34 3 12.68 3 12 C3.99 11.67 4.98 11.34 6 11 C6.33 10.01 6.66 9.02 7 8 C6.0925 8.680625 5.185 9.36125 4.25 10.0625 C1 12 1 12 -1.3125 11.8125 C-3 11 -3 11 -4 10 C-3.53017945 3.65742251 -3.53017945 3.65742251 -1.4375 1.0625 C-0.7259375 0.5365625 -0.7259375 0.5365625 0 0 Z " fill="#E6EDF3" transform="translate(193,160)"/>
<path d="M0 0 C6.93 0.495 6.93 0.495 14 1 C14.33 2.65 14.66 4.3 15 6 C13.5665848 7.15093925 12.12811091 8.29558035 10.6875 9.4375 C9.88699219 10.07558594 9.08648437 10.71367187 8.26171875 11.37109375 C6 13 6 13 3 14 C2.67 12.02 2.34 10.04 2 8 C3.98 7.01 5.96 6.02 8 5 C5.69 4.67 3.38 4.34 1 4 C0.67 2.68 0.34 1.36 0 0 Z " fill="#E2EBF1" transform="translate(29,140)"/>
<path d="M0 0 C0 0.99 0 1.98 0 3 C-0.639375 3.12375 -1.27875 3.2475 -1.9375 3.375 C-2.618125 3.58125 -3.29875 3.7875 -4 4 C-4.33 4.66 -4.66 5.32 -5 6 C-4.37351562 5.90460937 -3.74703125 5.80921875 -3.1015625 5.7109375 C-2.28429687 5.60007812 -1.46703125 5.48921875 -0.625 5.375 C0.59316406 5.20097656 0.59316406 5.20097656 1.8359375 5.0234375 C2.55007812 5.01570313 3.26421875 5.00796875 4 5 C4.66 5.66 5.32 6.32 6 7 C5.9375 9.4375 5.9375 9.4375 5 12 C2.10451959 14.20970874 0.66842255 15 -3 15 C-3 14.01 -3 13.02 -3 12 C-2.360625 11.896875 -1.72125 11.79375 -1.0625 11.6875 C-0.0415625 11.3471875 -0.0415625 11.3471875 1 11 C1.33 10.01 1.66 9.02 2 8 C1.36191406 8.08378906 0.72382812 8.16757812 0.06640625 8.25390625 C-0.75988281 8.35574219 -1.58617188 8.45757812 -2.4375 8.5625 C-3.26121094 8.66691406 -4.08492188 8.77132812 -4.93359375 8.87890625 C-5.61550781 8.91886719 -6.29742187 8.95882812 -7 9 C-8 8 -8 8 -8.3125 5.625 C-8 3 -8 3 -6.25 1.1875 C-4 0 -4 0 0 0 Z " fill="#E8EFF4" transform="translate(76,36)"/>
<path d="M0 0 C4.29 0.33 8.58 0.66 13 1 C13.125 7.625 13.125 7.625 12 11 C11.01 11 10.02 11 9 11 C9.33 9.02 9.66 7.04 10 5 C9.01 5 8.02 5 7 5 C7 6.32 7 7.64 7 9 C6.34 9 5.68 9 5 9 C5.33 7.35 5.66 5.7 6 4 C4.68 4 3.36 4 2 4 C2.33 6.31 2.66 8.62 3 11 C1.68 10.67 0.36 10.34 -1 10 C-0.67 6.7 -0.34 3.4 0 0 Z " fill="#EAF0F5" transform="translate(202,128)"/>
<path d="M0 0 C0.66 0.33 1.32 0.66 2 1 C2 1.66 2 2.32 2 3 C1.34 3 0.68 3 0 3 C0.33 4.32 0.66 5.64 1 7 C2.32 5.35 3.64 3.7 5 2 C9.875 2.875 9.875 2.875 11 4 C11.26293056 8.03160191 11.29404844 9.55892734 9 13 C8.01 13 7.02 13 6 13 C6 12.34 6 11.68 6 11 C6.66 10.67 7.32 10.34 8 10 C8.65213292 7.97536745 8.65213292 7.97536745 9 6 C8.278125 6.825 7.55625 7.65 6.8125 8.5 C4 11 4 11 1.25 11.375 C-1 11 -1 11 -2 10 C-2.35897436 3.53846154 -2.35897436 3.53846154 0 0 Z " fill="#F2F5F8" transform="translate(33,85)"/>
<path d="M0 0 C0.99 0.33 1.98 0.66 3 1 C3 1.66 3 2.32 3 3 C1.35 3.33 -0.3 3.66 -2 4 C-2.33 4.99 -2.66 5.98 -3 7 C-2.278125 6.649375 -1.55625 6.29875 -0.8125 5.9375 C2.3122705 4.89590983 3.88161996 5.10903428 7 6 C7.33 7.65 7.66 9.3 8 11 C5.6875 13.0625 5.6875 13.0625 3 15 C2.01 14.67 1.02 14.34 0 14 C0.9590625 13.5978125 0.9590625 13.5978125 1.9375 13.1875 C4.33131686 12.11332248 4.33131686 12.11332248 5 9 C4.443125 9.33 3.88625 9.66 3.3125 10 C0.69715478 11.1309601 -1.1806646 11.15662974 -4 11 C-4.8125 7.75 -4.8125 7.75 -5 4 C-2.75 1.5 -2.75 1.5 0 0 Z " fill="#EAF0F5" transform="translate(175,182)"/>
<path d="M0 0 C1.48046875 0.99609375 1.48046875 0.99609375 3 3 C3.27107281 5.77776762 3.37370959 8.29337834 3.3125 11.0625 C3.31572266 11.79533203 3.31894531 12.52816406 3.32226562 13.28320312 C3.26721939 18.73278061 3.26721939 18.73278061 1 21 C-2.3499798 17.6500202 -2.15599266 14.08746819 -2.1875 9.5 C-2.20167969 8.5615625 -2.21585937 7.623125 -2.23046875 6.65625 C-1.99479903 3.94005663 -1.38484654 2.32084954 0 0 Z " fill="#2A689C" transform="translate(124,90)"/>
<path d="M0 0 C1.45880109 0.14107747 2.91703551 0.28802415 4.375 0.4375 C5.59316406 0.55931641 5.59316406 0.55931641 6.8359375 0.68359375 C9 1 9 1 11 2 C10.67 3.32 10.34 4.64 10 6 C9.01 5.34 8.02 4.68 7 4 C6.67 7.63 6.34 11.26 6 15 C3.03 14.505 3.03 14.505 0 14 C0 13.01 0 12.02 0 11 C0.66 11 1.32 11 2 11 C2.33 8.03 2.66 5.06 3 2 C2.01 2 1.02 2 0 2 C0 1.34 0 0.68 0 0 Z " fill="#EAF0F5" transform="translate(140,25)"/>
<path d="M0 0 C0.99 0.33 1.98 0.66 3 1 C2.34 2.32 1.68 3.64 1 5 C3.31 6.65 5.62 8.3 8 10 C7.34 11.65 6.68 13.3 6 15 C4 15 4 15 1.5 12.5625 C0.675 11.716875 -0.15 10.87125 -1 10 C-1.66 9.67 -2.32 9.34 -3 9 C-3.66 9.99 -4.32 10.98 -5 12 C-5.68359375 10.265625 -5.68359375 10.265625 -6 8 C-4.78515625 5.859375 -4.78515625 5.859375 -3.0625 3.75 C-2.49660156 3.04359375 -1.93070313 2.3371875 -1.34765625 1.609375 C-0.90292969 1.07828125 -0.45820312 0.5471875 0 0 Z " fill="#EBF1F5" transform="translate(48,58)"/>
<path d="M0 0 C0.25 7.625 0.25 7.625 -2 11 C-3.32 11 -4.64 11 -6 11 C-7.97074343 8.55355988 -9.02848353 6.99692367 -8.9375 3.8125 C-6.94241651 -0.04466141 -4.077077 0 0 0 Z " fill="#125691" transform="translate(102,100)"/>
<path d="M0 0 C-0.2165625 1.39025391 -0.2165625 1.39025391 -0.4375 2.80859375 C-0.623125 4.00613281 -0.80875 5.20367187 -1 6.4375 C-1.185625 7.63246094 -1.37125 8.82742187 -1.5625 10.05859375 C-1.87848678 12.02210501 -1.87848678 12.02210501 -2 14 C-4.31 13.67 -6.62 13.34 -9 13 C-9 12.34 -9 11.68 -9 11 C-8.34 11 -7.68 11 -7 11 C-6.34 8.36 -5.68 5.72 -5 3 C-5.66 3 -6.32 3 -7 3 C-7 2.34 -7 1.68 -7 1 C-4 0 -4 0 0 0 Z " fill="#E9F0F5" transform="translate(102,200)"/>
<path d="M0 0 C1.35439668 2.70879335 1.06501451 5.00933268 1 8 C-5.625 7.25 -5.625 7.25 -9 5 C-8.75 3.125 -8.75 3.125 -8 1 C-5.13709577 -1.07313754 -3.27107254 -1.35354726 0 0 Z " fill="#165A93" transform="translate(90,107)"/>
<path d="M0 0 C0 1.98 0 3.96 0 6 C-1.65 5.67 -3.3 5.34 -5 5 C-5.33 6.32 -5.66 7.64 -6 9 C-6.33 8.34 -6.66 7.68 -7 7 C-8.98 7.33 -10.96 7.66 -13 8 C-13.33 6.35 -13.66 4.7 -14 3 C-13.37351563 2.86722656 -12.74703125 2.73445313 -12.1015625 2.59765625 C-11.28429687 2.42105469 -10.46703125 2.24445313 -9.625 2.0625 C-8.81289062 1.88847656 -8.00078125 1.71445313 -7.1640625 1.53515625 C-0.95620438 0 -0.95620438 0 0 0 Z " fill="#EBF1F6" transform="translate(212,89)"/>
<path d="M0 0 C2 0.1875 2 0.1875 4 1 C6 4 6 4 5.875 6.0625 C5 8 5 8 3.1875 9.3125 C0.67700322 10.10151327 -0.55492066 9.87324262 -3 9 C-2.25 2.25 -2.25 2.25 0 0 Z " fill="#1B5D95" transform="translate(80,95)"/>
<path d="M0 0 C2.33944736 0.28730055 4.6739143 0.61936779 7 1 C6.814375 2.0725 6.62875 3.145 6.4375 4.25 C6.05403165 7.53687158 6.21326247 8.96544096 7 12 C5 14 5 14 1.875 14.125 C0.451875 14.063125 0.451875 14.063125 -1 14 C-0.01 13.34 0.98 12.68 2 12 C2 11.01 2 10.02 2 9 C1.34 8.34 0.68 7.68 0 7 C0.33 6.34 0.66 5.68 1 5 C1.66 5 2.32 5 3 5 C3 4.01 3 3.02 3 2 C1.68 1.67 0.36 1.34 -1 1 C-0.67 0.67 -0.34 0.34 0 0 Z " fill="#F2F5F9" transform="translate(112,203)"/>
<path d="M0 0 C4.67461851 -0.32613618 7.16674383 0.29417212 11 3 C10.375 4.9375 10.375 4.9375 9 7 C5.875 7.75 5.875 7.75 3 8 C0.37613513 4.93882432 0 4.26826873 0 0 Z " fill="#135892" transform="translate(87,91)"/>
<path d="M0 0 C0.66 0.33 1.32 0.66 2 1 C1.814375 1.5775 1.62875 2.155 1.4375 2.75 C0.95976454 5.20692525 1.24270636 6.64397534 2 9 C2.66 9 3.32 9 4 9 C4.33 10.98 4.66 12.96 5 15 C3.02 15.99 3.02 15.99 1 17 C0.01 13.37 -0.98 9.74 -2 6 C-2.66 6 -3.32 6 -4 6 C-2.84826645 3.53199953 -1.95216435 1.95216435 0 0 Z " fill="#EAF0F5" transform="translate(58,47)"/>
<path d="M0 0 C2 0 2 0 4.375 2.25 C5.24125 3.1575 6.1075 4.065 7 5 C8.1446875 6.1446875 8.1446875 6.1446875 9.3125 7.3125 C9.869375 7.869375 10.42625 8.42625 11 9 C9.625 10.5 9.625 10.5 8 12 C7.34 12 6.68 12 6 12 C5.67 11.01 5.34 10.02 5 9 C3.37117603 7.56051882 3.37117603 7.56051882 1.4375 6.3125 C0.79683594 5.87550781 0.15617188 5.43851563 -0.50390625 4.98828125 C-0.99761719 4.66214844 -1.49132812 4.33601562 -2 4 C-1.34 2.68 -0.68 1.36 0 0 Z " fill="#EFF4F7" transform="translate(183,174)"/>
<path d="M0 0 C0.99 0 1.98 0 3 0 C5 7.625 5 7.625 5 11 C5.99 11.33 6.98 11.66 8 12 C5.69 12.66 3.38 13.32 1 14 C1 10.7 1 7.4 1 4 C0.01 4.33 -0.98 4.66 -2 5 C-1.34 3.35 -0.68 1.7 0 0 Z " fill="#E1EAF1" transform="translate(142,201)"/>
<path d="M0 0 C0.66 0.33 1.32 0.66 2 1 C1.67 1.33 1.34 1.66 1 2 C1.99 2.33 2.98 2.66 4 3 C4 5.31 4 7.62 4 10 C1.625 10.125 1.625 10.125 -1 10 C-3 8 -3 8 -3.3125 5.5625 C-2.95209822 2.60720543 -2.28773145 1.81112073 0 0 Z " fill="#DBE5EE" transform="translate(127,202)"/>
<path d="M0 0 C0.66 0 1.32 0 2 0 C2 0.66 2 1.32 2 2 C5.64793184 3.27253436 9.1936543 4.32829194 13 5 C12.34 6.65 11.68 8.3 11 10 C10.34 10 9.68 10 9 10 C9 9.34 9 8.68 9 8 C5.7 7.01 2.4 6.02 -1 5 C-0.67 3.35 -0.34 1.7 0 0 Z " fill="#EAF0F5" transform="translate(37,74)"/>
<path d="M0 0 C0.66 0 1.32 0 2 0 C2.33 1.65 2.66 3.3 3 5 C2.278125 5.12375 1.55625 5.2475 0.8125 5.375 C-1.95721894 5.9904931 -4.3970354 6.88444374 -7 8 C-7 8.66 -7 9.32 -7 10 C-7.99 9.67 -8.98 9.34 -10 9 C-10 7.68 -10 6.36 -10 5 C-5.05 3.515 -5.05 3.515 0 2 C0 1.34 0 0.68 0 0 Z " fill="#E5ECF3" transform="translate(46,155)"/>
<path d="M0 0 C0.598125 0.226875 1.19625 0.45375 1.8125 0.6875 C1.31418276 4.37504757 0.71182357 6.29240662 -2.1875 8.6875 C-3.5075 8.0275 -4.8275 7.3675 -6.1875 6.6875 C-5.78066505 4.32785727 -5.28935661 2.82815912 -3.875 0.875 C-2.1875 -0.3125 -2.1875 -0.3125 0 0 Z " fill="#165993" transform="translate(179.1875,46.3125)"/>
<path d="M0 0 C0.66 0 1.32 0 2 0 C2 1.65 2 3.3 2 5 C-0.31 5.33 -2.62 5.66 -5 6 C-5.33 6.99 -5.66 7.98 -6 9 C-6.33 7.68 -6.66 6.36 -7 5 C-7.99 5 -8.98 5 -10 5 C-9.34 3.68 -8.68 2.36 -8 1 C-5.36 1.33 -2.72 1.66 0 2 C0 1.34 0 0.68 0 0 Z " fill="#F0F4F8" transform="translate(39,103)"/>
<path d="M0 0 C1.65 0 3.3 0 5 0 C5.125 5.75 5.125 5.75 4 8 C2.35 8 0.7 8 -1 8 C-1.125 2.25 -1.125 2.25 0 0 Z " fill="#115691" transform="translate(126,26)"/>
<path d="M0 0 C0.33 2.31 0.66 4.62 1 7 C-0.98 7.99 -2.96 8.98 -5 10 C-5.66 7.36 -6.32 4.72 -7 2 C-1.125 0 -1.125 0 0 0 Z " fill="#E9EFF4" transform="translate(84,195)"/>
<path d="M0 0 C2.0625 0.4375 2.0625 0.4375 4 1 C4 3.64 4 6.28 4 9 C2.35 8.67 0.7 8.34 -1 8 C-1.04241723 5.66705225 -1.04092937 3.33297433 -1 1 C-0.67 0.67 -0.34 0.34 0 0 Z " fill="#206198" transform="translate(107,98)"/>
<path d="M0 0 C2.97 0 5.94 0 9 0 C9.33 1.32 9.66 2.64 10 4 C6.37 4 2.74 4 -1 4 C-0.67 2.68 -0.34 1.36 0 0 Z " fill="#155992" transform="translate(84,83)"/>
<path d="M0 0 C2.0625 0.4375 2.0625 0.4375 4 1 C4 3.64 4 6.28 4 9 C2.68 9 1.36 9 0 9 C-1.36623674 6.26752652 -1.128426 4.01801098 -1 1 C-0.67 0.67 -0.34 0.34 0 0 Z " fill="#1B5D95" transform="translate(69,100)"/>
<path d="M0 0 C2.46800047 1.15173355 4.04783565 2.04783565 6 4 C6 5.32 6 6.64 6 8 C2.31245243 7.50168276 0.39509338 6.89932357 -2 4 C-1.34 2.68 -0.68 1.36 0 0 Z " fill="#1B5D95" transform="translate(74,113)"/>
<path d="M0 0 C1.32 0 2.64 0 4 0 C3.50168276 3.68754757 2.89932357 5.60490662 0 8 C-0.99 7.67 -1.98 7.34 -3 7 C-2.25 2.25 -2.25 2.25 0 0 Z " fill="#135891" transform="translate(103,113)"/>
<path d="M0 0 C3.465 1.485 3.465 1.485 7 3 C6.01 4.98 5.02 6.96 4 9 C2.02 8.34 0.04 7.68 -2 7 C-1.34 4.69 -0.68 2.38 0 0 Z " fill="#F4F7FA" transform="translate(89,30)"/>
<path d="M0 0 C1.98 0.66 3.96 1.32 6 2 C5.34 3.98 4.68 5.96 4 8 C2.02 7.34 0.04 6.68 -2 6 C-1.34 4.02 -0.68 2.04 0 0 Z " fill="#EFF3F7" transform="translate(159,196)"/>
<path d="M0 0 C0.99 0 1.98 0 3 0 C2.25 5.75 2.25 5.75 0 8 C-2.125 7.625 -2.125 7.625 -4 7 C-2.92598892 4.08482708 -2.22189824 2.22189824 0 0 Z " fill="#1A5C95" transform="translate(75,87)"/>
<path d="M0 0 C0.99 0 1.98 0 3 0 C5.15305957 3.85756507 6.39253254 6.55129785 6 11 C4.68 10.67 3.36 10.34 2 10 C1.34 6.7 0.68 3.4 0 0 Z " fill="#2E6A9E" transform="translate(118,159)"/>
<path d="M0 0 C1.8125 0.1875 1.8125 0.1875 4 1 C5.75 3.5625 5.75 3.5625 7 6 C5.25 6.6875 5.25 6.6875 3 7 C0.75 5.5625 0.75 5.5625 -1 4 C-0.67 2.68 -0.34 1.36 0 0 Z " fill="#1E5F97" transform="translate(100,86)"/>
<path d="M0 0 C1.134375 0.020625 2.26875 0.04125 3.4375 0.0625 C3.7675 1.3825 4.0975 2.7025 4.4375 4.0625 C1.4675 4.0625 -1.5025 4.0625 -4.5625 4.0625 C-4.5625 -0.28271095 -4.43767807 0.077854 0 0 Z " fill="#226298" transform="translate(90.5625,119.9375)"/>
<path d="M0 0 C1.2065625 0.0309375 1.2065625 0.0309375 2.4375 0.0625 C2.7675 1.7125 3.0975 3.3625 3.4375 5.0625 C2.1175 5.3925 0.7975 5.7225 -0.5625 6.0625 C-1.5525 4.4125 -2.5425 2.7625 -3.5625 1.0625 C-2.5625 0.0625 -2.5625 0.0625 0 0 Z " fill="#A0BCD3" transform="translate(193.5625,59.9375)"/>
<path d="M0 0 C1.32 0 2.64 0 4 0 C3.67 1.65 3.34 3.3 3 5 C3.66 5 4.32 5 5 5 C5.33 3.68 5.66 2.36 6 1 C6 2.65 6 4.3 6 6 C3.03 5.505 3.03 5.505 0 5 C0 3.35 0 1.7 0 0 Z " fill="#4E81AD" transform="translate(204,132)"/>
<path d="M0 0 C3.3 0.33 6.6 0.66 10 1 C10 1.66 10 2.32 10 3 C5.545 3.495 5.545 3.495 1 4 C0.67 2.68 0.34 1.36 0 0 Z " fill="#F9FAFC" transform="translate(29,140)"/>
<path d="M0 0 C0.99 0 1.98 0 3 0 C3 0.66 3 1.32 3 2 C3.99 2 4.98 2 6 2 C6 2.99 6 3.98 6 5 C3.69 4.67 1.38 4.34 -1 4 C-0.67 2.68 -0.34 1.36 0 0 Z " fill="#DFE8F0" transform="translate(199,143)"/>
<path d="M0 0 C0.99 0 1.98 0 3 0 C3 1.65 3 3.3 3 5 C1.68 5 0.36 5 -1 5 C-0.67 3.35 -0.34 1.7 0 0 Z " fill="#0F548F" transform="translate(128,205)"/>
<path d="M0 0 C0 1.98 0 3.96 0 6 C-2.475 5.01 -2.475 5.01 -5 4 C-5 3.34 -5 2.68 -5 2 C-1.125 0 -1.125 0 0 0 Z " fill="#D8E3ED" transform="translate(165,43)"/>
<path d="M0 0 C0.66 0 1.32 0 2 0 C2.33 1.65 2.66 3.3 3 5 C1.02 5 -0.96 5 -3 5 C-2.67 4.01 -2.34 3.02 -2 2 C-1.34 2 -0.68 2 0 2 C0 1.34 0 0.68 0 0 Z " fill="#F3F7F9" transform="translate(46,155)"/>
<path d="M0 0 C0.99 0.33 1.98 0.66 3 1 C3 2.32 3 3.64 3 5 C1.68 5 0.36 5 -1 5 C-0.67 3.35 -0.34 1.7 0 0 Z " fill="#326EA0" transform="translate(30,107)"/>
<path d="M0 0 C0.66 0 1.32 0 2 0 C1.67 1.65 1.34 3.3 1 5 C0.34 5 -0.32 5 -1 5 C-1.33 5.66 -1.66 6.32 -2 7 C-2.125 4.625 -2.125 4.625 -2 2 C-1.34 1.34 -0.68 0.68 0 0 Z " fill="#26659A" transform="translate(40,91)"/>
<path d="M0 0 C0.99 0.33 1.98 0.66 3 1 C3 1.66 3 2.32 3 3 C2.01 3.33 1.02 3.66 0 4 C-0.66 4.99 -1.32 5.98 -2 7 C-2.6875 5.1875 -2.6875 5.1875 -3 3 C-1.5625 1.25 -1.5625 1.25 0 0 Z " fill="#CBDAE6" transform="translate(193,160)"/>
<path d="M0 0 C0 0.99 0 1.98 0 3 C-2.66666667 3 -5.33333333 3 -8 3 C-4.93882432 0.37613513 -4.26826873 0 0 0 Z " fill="#DAE5EE" transform="translate(76,36)"/>
</svg>
