<?xml version="1.0" encoding="UTF-8"?>
<svg version="1.1" xmlns="http://www.w3.org/2000/svg" width="204" height="204">
<path d="M0 0 C67.32 0 134.64 0 204 0 C204 67.32 204 134.64 204 204 C136.68 204 69.36 204 0 204 C0 136.68 0 69.36 0 0 Z " fill="#233983" transform="translate(0,0)"/>
<path d="M0 0 C5.56838851 -0.09926507 11.13625604 -0.17165521 16.70532227 -0.21972656 C18.5976662 -0.23977703 20.48994868 -0.26702477 22.38208008 -0.30175781 C25.11034351 -0.35056652 27.83778415 -0.37303442 30.56640625 -0.390625 C31.82463951 -0.42159271 31.82463951 -0.42159271 33.10829163 -0.45318604 C38.89876725 -0.45537201 42.20095647 0.74239911 47 4 C47.78115313 14.88406696 47.78115313 14.88406696 44.8125 19.125 C39.1767926 22.88213827 34.78426574 23.26876857 28.1875 23.125 C27.00510742 23.11146484 27.00510742 23.11146484 25.79882812 23.09765625 C23.86575334 23.07422504 21.9328362 23.03835838 20 23 C20 27.62 20 32.24 20 37 C22.64 37 25.28 37 28 37 C28 37.99 28 38.98 28 40 C19.09 40 10.18 40 1 40 C1 39.34 1 38.68 1 38 C3.97 37.505 3.97 37.505 7 37 C7 25.78 7 14.56 7 3 C4.69 3 2.38 3 0 3 C0 2.01 0 1.02 0 0 Z " fill="#F3F7FA" transform="translate(72,82)"/>
<path d="M0 0 C0.89106445 0.00386719 1.78212891 0.00773437 2.70019531 0.01171875 C8.79704037 0.09196973 14.40058023 0.67348806 20.3125 2.25 C20.3125 5.55 20.3125 8.85 20.3125 12.25 C18.0025 12.25 15.6925 12.25 13.3125 12.25 C12.23724806 9.59771188 11.21793849 6.96631546 10.3125 4.25 C7.8747037 4.19602665 5.43810315 4.15634384 3 4.125 C2.30970703 4.10824219 1.61941406 4.09148437 0.90820312 4.07421875 C-2.85885396 4.03782206 -4.47181704 4.10621136 -7.6875 6.25 C-7.3575 8.23 -7.0275 10.21 -6.6875 12.25 C-3.20611265 13.58899514 -0.07120638 14.35913252 3.625 14.625 C8.71407029 15.09780214 12.7940024 16.96051269 17.3125 19.25 C18.03308594 19.57742187 18.75367188 19.90484375 19.49609375 20.2421875 C21.3125 21.25 21.3125 21.25 22.5625 23.4375 C23.79083567 28.04375877 24.14973996 31.61357644 21.9375 35.9375 C15.13970267 41.92603574 8.0169992 42.61895742 -0.75 42.6875 C-1.58853516 42.6975708 -2.42707031 42.7076416 -3.29101562 42.71801758 C-9.29326194 42.6351753 -14.07783556 41.37975175 -19.6875 39.25 C-19.6875 35.62 -19.6875 31.99 -19.6875 28.25 C-17.3775 28.25 -15.0675 28.25 -12.6875 28.25 C-12.39875 29.36375 -12.11 30.4775 -11.8125 31.625 C-10.99508671 35.25291092 -10.99508671 35.25291092 -8.6875 37.25 C-6.16274284 37.44893799 -3.77235251 37.52847435 -1.25 37.5 C-0.56873047 37.50773437 0.11253906 37.51546875 0.81445312 37.5234375 C4.52659442 37.50889434 6.14839372 37.35940418 9.3125 35.25 C9.89600505 32.79290625 9.89600505 32.79290625 9.3125 30.25 C5.97004219 26.83984685 2.08457241 26.51436891 -2.4375 25.875 C-8.89086702 24.81996156 -13.51204123 23.4748643 -18.6875 19.25 C-20.04196053 15.18661842 -20.3513722 11.49430651 -19.6875 7.25 C-14.39718886 0.1458679 -8.21102272 -0.08499395 0 0 Z " fill="#F0F4F7" transform="translate(47.6875,80.75)"/>
<path d="M0 0 C8.58 0 17.16 0 26 0 C25.67 0.99 25.34 1.98 25 3 C23.35 3 21.7 3 20 3 C21.96829667 9.53849968 24.55949024 15.50104568 27.6875 21.5625 C28.10322266 22.38041016 28.51894531 23.19832031 28.94726562 24.04101562 C29.95932995 26.03024551 30.97692847 28.0164154 32 30 C34.1087619 27.8912381 34.89119211 26.30930736 36.09375 23.60546875 C36.48433594 22.73212891 36.87492187 21.85878906 37.27734375 20.95898438 C37.68082031 20.04439453 38.08429688 19.12980469 38.5 18.1875 C38.90347656 17.28451172 39.30695313 16.38152344 39.72265625 15.45117188 C41.55869714 11.32765429 43.34158213 7.19868548 45 3 C42.69 3 40.38 3 38 3 C38 2.01 38 1.02 38 0 C44.27 0 50.54 0 57 0 C57 0.66 57 1.32 57 2 C56.12214844 2.49628906 55.24429688 2.99257812 54.33984375 3.50390625 C49.70592784 6.45226753 47.90211606 11.13624135 45.5625 15.9375 C44.60996054 17.82581631 43.65683556 19.71383739 42.703125 21.6015625 C42.24486328 22.52098633 41.78660156 23.44041016 41.31445312 24.38769531 C39.54727606 27.89972998 37.69342296 31.36041221 35.8125 34.8125 C35.26207031 35.82957031 34.71164063 36.84664062 34.14453125 37.89453125 C33.76683594 38.58933594 33.38914063 39.28414062 33 40 C29.7 40 26.4 40 23 40 C22.49210937 38.88882813 21.98421875 37.77765625 21.4609375 36.6328125 C18.041042 29.2192863 14.60304095 22.00046632 10.2421875 15.08203125 C9.06720885 13.11264879 8.1659406 11.18730315 7.3125 9.0625 C6.12165607 6.28386417 5.38345886 4.78759415 3 3 C2.01 2.67 1.02 2.34 0 2 C0 1.34 0 0.68 0 0 Z " fill="#F0F5F8" transform="translate(119,82)"/>
<path d="M0 0 C3.3 0 6.6 0 10 0 C10 6.6 10 13.2 10 20 C11.65 20 13.3 20 15 20 C15 20.33 15 20.66 15 21 C13.35 21 11.7 21 10 21 C10 26.61 10 32.22 10 38 C6.04 38 2.08 38 -2 38 C-2.04936158 32.90968245 -2.08570105 27.81950357 -2.10986328 22.72900391 C-2.11993376 20.99655735 -2.13359089 19.26412784 -2.15087891 17.53173828 C-2.17508162 15.04455361 -2.18647239 12.55759325 -2.1953125 10.0703125 C-2.20563507 9.29317902 -2.21595764 8.51604553 -2.22659302 7.71536255 C-2.22699271 5.80874507 -2.1223214 3.90268964 -2 2 C-1.34 1.34 -0.68 0.68 0 0 Z " fill="#F9FCFB" transform="translate(82,83)"/>
<path d="M0 0 C1.8253125 0.680625 1.8253125 0.680625 3.6875 1.375 C8.71926342 3.08946773 13.71175045 3.7233361 18.984375 4.27734375 C22.55483448 5.13295904 24.38868552 6.45051992 27 9 C27.5625 11.5625 27.5625 11.5625 27 14 C24.52314613 16.56950427 23.0550847 16.99323628 19.46875 17.43359375 C17.50421875 17.43552734 17.50421875 17.43552734 15.5 17.4375 C14.1903125 17.45683594 12.880625 17.47617188 11.53125 17.49609375 C8 17 8 17 5.546875 15.17578125 C3.52455162 12.33125064 3.68983423 10.41182343 4 7 C1.69 7 -0.62 7 -3 7 C-1.68 6.34 -0.36 5.68 1 5 C0.01 4.34 -0.98 3.68 -2 3 C-1.01 3 -0.02 3 1 3 C0.67 2.01 0.34 1.02 0 0 Z " fill="#273C70" transform="translate(31,102)"/>
<path d="M0 0 C3 1 3 1 4.1875 3.125 C5.49325285 7.74535626 5.85226258 11.33421405 3.625 15.6875 C-3.17279733 21.67603574 -10.2955008 22.36895742 -19.0625 22.4375 C-19.90103516 22.4475708 -20.73957031 22.4576416 -21.60351562 22.46801758 C-27.60576194 22.3851753 -32.39033556 21.12975175 -38 19 C-38 15.37 -38 11.74 -38 8 C-35.69 8 -33.38 8 -31 8 C-30.71125 9.11375 -30.4225 10.2275 -30.125 11.375 C-29.30758671 15.00291092 -29.30758671 15.00291092 -27 17 C-24.47524284 17.19893799 -22.08485251 17.27847435 -19.5625 17.25 C-18.88123047 17.25773437 -18.19996094 17.26546875 -17.49804688 17.2734375 C-13.78590558 17.25889434 -12.16410628 17.10940418 -9 15 C-8.27034634 12.43717258 -8.27034634 12.43717258 -8 10 C-5.4345406 12.5654594 -5.45953913 14.47686668 -5 18 C-3.35 17.67 -1.7 17.34 0 17 C0.185625 15.824375 0.185625 15.824375 0.375 14.625 C1 12 1 12 3 10 C2.34 9.67 1.68 9.34 1 9 C1.33 6.69 1.66 4.38 2 2 C1.34 2 0.68 2 0 2 C0 1.34 0 0.68 0 0 Z " fill="#E3EBF4" transform="translate(66,101)"/>
<path d="M0 0 C1.5675 -0.061875 3.135 -0.12375 4.75 -0.1875 C6.07257813 -0.23970703 6.07257813 -0.23970703 7.421875 -0.29296875 C10.5214131 0.05925149 11.8238083 0.78378639 14 3 C14.48511585 7.29674042 14.44143097 9.87189864 12.875 13.875 C10.44466358 16.62938127 8.56219512 17.21631707 5 18 C3.35 18 1.7 18 0 18 C0 12.06 0 6.12 0 0 Z " fill="#21387C" transform="translate(92,85)"/>
<path d="M0 0 C0.89106445 0.00386719 1.78212891 0.00773437 2.70019531 0.01171875 C8.79704037 0.09196973 14.40058023 0.67348806 20.3125 2.25 C20.3125 5.55 20.3125 8.85 20.3125 12.25 C18.0025 12.25 15.6925 12.25 13.3125 12.25 C12.23724806 9.59771188 11.21793849 6.96631546 10.3125 4.25 C7.87492587 4.22301578 5.43765085 4.20316901 3 4.1875 C2.30970703 4.17912109 1.61941406 4.17074219 0.90820312 4.16210938 C-2.2358025 4.14692094 -4.68170019 4.24806673 -7.6875 5.25 C-8.0175 4.26 -8.3475 3.27 -8.6875 2.25 C-9.6775 2.91 -10.6675 3.57 -11.6875 4.25 C-11.3575 5.24 -11.0275 6.23 -10.6875 7.25 C-14.31076739 8.4577558 -15.32896369 7.79311128 -18.6875 6.25 C-13.13893445 0.08492716 -7.86936522 -0.08145738 0 0 Z " fill="#DBE6F1" transform="translate(47.6875,80.75)"/>
<path d="M0 0 C13.2 0 26.4 0 40 0 C40 0.33 40 0.66 40 1 C38.35 1.33 36.7 1.66 35 2 C35 3.32 35 4.64 35 6 C34.071875 5.5359375 34.071875 5.5359375 33.125 5.0625 C28.81197706 3.5960722 24.5240004 3.33380974 20 3 C20 2.34 20 1.68 20 1 C18.35369672 1.14042877 16.70795821 1.28749329 15.0625 1.4375 C14.14597656 1.51871094 13.22945312 1.59992188 12.28515625 1.68359375 C10.03840268 1.76044976 10.03840268 1.76044976 9 3 C8.92384749 5.49761191 8.90920268 7.96779391 8.9375 10.46484375 C8.94128662 11.21335098 8.94507324 11.96185822 8.94897461 12.73304749 C8.96538861 15.94799328 8.99348938 19.16281419 9.02050781 22.37768555 C9.03853979 24.71923236 9.05066928 27.06075874 9.0625 29.40234375 C9.07079834 30.13259262 9.07909668 30.86284149 9.08764648 31.61521912 C9.11280698 36.77438604 9.11280698 36.77438604 8 39 C11.96 39 15.92 39 20 39 C20 38.34 20 37.68 20 37 C22.64 37 25.28 37 28 37 C28 37.99 28 38.98 28 40 C19.09 40 10.18 40 1 40 C1 39.34 1 38.68 1 38 C3.97 37.505 3.97 37.505 7 37 C7 25.78 7 14.56 7 3 C4.69 3 2.38 3 0 3 C0 2.01 0 1.02 0 0 Z " fill="#E8F6FE" transform="translate(72,82)"/>
<path d="M0 0 C1.5778125 0.00966797 1.5778125 0.00966797 3.1875 0.01953125 C6 0.1875 6 0.1875 9 1.1875 C8.67 3.8275 8.34 6.4675 8 9.1875 C8.66 9.5175 9.32 9.8475 10 10.1875 C4.555 9.6925 4.555 9.6925 -1 9.1875 C-1 9.8475 -1 10.5075 -1 11.1875 C-0.01 11.5175 0.98 11.8475 2 12.1875 C-5.24274406 11.7046504 -5.24274406 11.7046504 -8.5625 9.4375 C-10 7.1875 -10 7.1875 -9.9375 4.5625 C-8.02294524 -0.28770539 -4.6165834 -0.06223335 0 0 Z " fill="#394C88" transform="translate(49,83.8125)"/>
<path d="M0 0 C14.85 0.495 14.85 0.495 30 1 C30 1.33 30 1.66 30 2 C21.42 2 12.84 2 4 2 C4 2.66 4 3.32 4 4 C4.8353125 4.061875 4.8353125 4.061875 5.6875 4.125 C9.29795126 5.49111669 10.85718075 7.87760624 13 11 C12.8125 13.375 12.8125 13.375 12 15 C9.525 13.515 9.525 13.515 7 12 C6.95101562 12.61488281 6.90203125 13.22976562 6.8515625 13.86328125 C6.77679688 14.67152344 6.70203125 15.47976562 6.625 16.3125 C6.55539063 17.11300781 6.48578125 17.91351563 6.4140625 18.73828125 C6 21 6 21 4 24 C-1.43092891 26.6200328 -6.98904065 26.22868221 -12.875 26.125 C-13.84953125 26.11597656 -14.8240625 26.10695313 -15.828125 26.09765625 C-18.21900728 26.07421623 -20.60937261 26.04140442 -23 26 C-23 25.67 -23 25.34 -23 25 C-21.85402344 24.96261719 -20.70804687 24.92523438 -19.52734375 24.88671875 C-17.99736554 24.82101416 -16.46741903 24.75456841 -14.9375 24.6875 C-13.80924805 24.65366211 -13.80924805 24.65366211 -12.65820312 24.61914062 C-7.45344075 24.3712948 -3.61359122 23.47429542 1 21 C3.26954631 17.59568053 3.36549949 15.83475798 3.625 11.8125 C3.69976562 10.72582031 3.77453125 9.63914062 3.8515625 8.51953125 C3.90054688 7.68808594 3.94953125 6.85664062 4 6 C3.401875 5.71125 2.80375 5.4225 2.1875 5.125 C0 4 0 4 -3 2 C-2.01 2 -1.02 2 0 2 C0 1.34 0 0.68 0 0 Z " fill="#2E3970" transform="translate(115,80)"/>
<path d="M0 0 C6.27 0 12.54 0 19 0 C19 0.66 19 1.32 19 2 C18.13117188 2.47953125 17.26234375 2.9590625 16.3671875 3.453125 C11.51083607 6.53081274 9.57874647 11.74249022 7.125 16.75 C6.37863281 18.22533203 6.37863281 18.22533203 5.6171875 19.73046875 C4.39721658 22.14694961 3.19221575 24.56973852 2 27 C1.67 27 1.34 27 1 27 C0.875 22.25 0.875 22.25 2 20 C1.34 20.33 0.68 20.66 0 21 C1.93624298 14.79522136 4.25609141 8.89174281 7 3 C4.69 3 2.38 3 0 3 C0 2.01 0 1.02 0 0 Z " fill="#EAF1FA" transform="translate(157,82)"/>
<path d="M0 0 C0.66 0 1.32 0 2 0 C2.33 0.66 2.66 1.32 3 2 C3.78375 1.649375 4.5675 1.29875 5.375 0.9375 C6.24125 0.628125 7.1075 0.31875 8 0 C8.66 0.33 9.32 0.66 10 1 C10.47618812 3.87182587 10.84167597 6.67120147 11.125 9.5625 C11.21136719 10.36880859 11.29773438 11.17511719 11.38671875 12.00585938 C11.59943628 14.00304064 11.80077855 16.00142737 12 18 C10.35 18.99 8.7 19.98 7 21 C6.67 19.68 6.34 18.36 6 17 C6.66 17 7.32 17 8 17 C7.34 16.67 6.68 16.34 6 16 C6 14.35 6 12.7 6 11 C5.34 11 4.68 11 4 11 C3.9071875 9.824375 3.9071875 9.824375 3.8125 8.625 C3.544375 7.75875 3.27625 6.8925 3 6 C0.52363988 4.62533375 0.52363988 4.62533375 -2 4 C-1.34 2.68 -0.68 1.36 0 0 Z " fill="#263B81" transform="translate(66,96)"/>
<path d="M0 0 C2.31 0 4.62 0 7 0 C7.226875 1.0725 7.45375 2.145 7.6875 3.25 C9.15817225 7.45192071 10.24139179 8.72735318 14 11 C16.68507329 11.78946609 16.68507329 11.78946609 19 12 C19 12.33 19 12.66 19 13 C16.95863605 13.05451714 14.91684144 13.09302485 12.875 13.125 C11.16957031 13.15980469 11.16957031 13.15980469 9.4296875 13.1953125 C5.94242233 12.99672109 3.2446138 12.2524801 0 11 C0 7.37 0 3.74 0 0 Z " fill="#E6EEF6" transform="translate(28,109)"/>
<path d="M0 0 C3.76159981 0.52244442 6.32191002 1.2227215 9 4 C9.5 6.5 9.5 6.5 9 9 C6.76009934 11.20393895 5.59749767 11.98279931 2.421875 12.07421875 C1.09929688 11.88279297 1.09929688 11.88279297 -0.25 11.6875 C-1.14203125 11.56761719 -2.0340625 11.44773437 -2.953125 11.32421875 C-3.62859375 11.21722656 -4.3040625 11.11023438 -5 11 C-5.33 9.68 -5.66 8.36 -6 7 C-4.35 7 -2.7 7 -1 7 C-1 5.68 -1 4.36 -1 3 C-0.01 3 0.98 3 2 3 C2 2.34 2 1.68 2 1 C1.34 0.67 0.68 0.34 0 0 Z " fill="#2C4087" transform="translate(49,107)"/>
<path d="M0 0 C1.5675 -0.061875 3.135 -0.12375 4.75 -0.1875 C6.07257813 -0.23970703 6.07257813 -0.23970703 7.421875 -0.29296875 C10.5214131 0.05925149 11.8238083 0.78378639 14 3 C14.61191629 8.41983001 14.35909802 11.52120264 11 16 C10.34 14.68 9.68 13.36 9 12 C9.66 11.67 10.32 11.34 11 11 C11 8.69 11 6.38 11 4 C10.01 4 9.02 4 8 4 C8 3.67 8 3.34 8 3 C5.03 2.505 5.03 2.505 2 2 C2.11347619 3.97986082 2.2410935 5.95891598 2.375 7.9375 C2.44460937 9.03964844 2.51421875 10.14179687 2.5859375 11.27734375 C2.72257812 12.17582031 2.85921875 13.07429688 3 14 C3.66 14.33 4.32 14.66 5 15 C5 15.99 5 16.98 5 18 C3.35 18 1.7 18 0 18 C0 12.06 0 6.12 0 0 Z " fill="#324070" transform="translate(92,85)"/>
<path d="M0 0 C0.33 0 0.66 0 1 0 C1.16748075 4.66287681 1.32805376 9.32592037 1.48217773 13.98925781 C1.53560756 15.57623729 1.59093771 17.16315395 1.64819336 18.75 C1.73007724 21.02850804 1.80516524 23.30715322 1.87890625 25.5859375 C1.90594131 26.29744965 1.93297638 27.00896179 1.96083069 27.74203491 C2.11387171 32.77225659 2.11387171 32.77225659 1 35 C4.96 35 8.92 35 13 35 C13 34.34 13 33.68 13 33 C15.64 33 18.28 33 21 33 C21 33.99 21 34.98 21 36 C12.09 36 3.18 36 -6 36 C-6 35.34 -6 34.68 -6 34 C-3.03 33.505 -3.03 33.505 0 33 C0 22.11 0 11.22 0 0 Z " fill="#B5C3DD" transform="translate(79,86)"/>
<path d="M0 0 C0.33 0 0.66 0 1 0 C1 10.89 1 21.78 1 33 C-1.64 33 -4.28 33 -7 33 C-8.16063604 28.74433453 -7.76173392 25.3164922 -7 21 C-6.67 21 -6.34 21 -6 21 C-6 22.65 -6 24.3 -6 26 C-4.68 26 -3.36 26 -2 26 C-2 26.66 -2 27.32 -2 28 C-2.99 28.33 -3.98 28.66 -5 29 C-2.9254644 29.1490712 -2.9254644 29.1490712 -1 28 C-0.67 18.76 -0.34 9.52 0 0 Z " fill="#1E3268" transform="translate(78,86)"/>
<path d="M0 0 C0.33 0 0.66 0 1 0 C1.22197585 2.10277123 1.42713637 4.20732302 1.625 6.3125 C1.79902344 8.07013672 1.79902344 8.07013672 1.9765625 9.86328125 C2 13 2 13 0 16 C-5.43092891 18.6200328 -10.98904065 18.22868221 -16.875 18.125 C-17.84953125 18.11597656 -18.8240625 18.10695313 -19.828125 18.09765625 C-22.21900728 18.07421623 -24.60937261 18.04140442 -27 18 C-27 17.67 -27 17.34 -27 17 C-25.85402344 16.96261719 -24.70804687 16.92523438 -23.52734375 16.88671875 C-21.99736554 16.82101416 -20.46741903 16.75456841 -18.9375 16.6875 C-17.80924805 16.65366211 -17.80924805 16.65366211 -16.65820312 16.61914062 C-11.45344075 16.3712948 -7.61359122 15.47429542 -3 13 C-0.89172945 9.83759418 -0.66182535 8.49342531 -0.375 4.8125 C-0.30023438 3.91144531 -0.22546875 3.01039062 -0.1484375 2.08203125 C-0.09945312 1.39496094 -0.05046875 0.70789063 0 0 Z " fill="#515E8B" transform="translate(119,88)"/>
<path d="M0 0 C0.6875 1.75 0.6875 1.75 1 4 C-0.4375 6.25 -0.4375 6.25 -2 8 C-0.68528432 7.71848913 0.62675767 7.42446661 1.9375 7.125 C3.03384766 6.88136719 3.03384766 6.88136719 4.15234375 6.6328125 C6.20700294 6.17038477 6.20700294 6.17038477 7 4 C9.5625 3.375 9.5625 3.375 12 3 C12.33 2.01 12.66 1.02 13 0 C13.33 0.66 13.66 1.32 14 2 C10.35839491 5.95374267 7.53818665 8.72553403 2.00463867 9.15478516 C-0.27126832 9.1964896 -2.5367972 9.17459621 -4.8125 9.125 C-5.99489258 9.11146484 -5.99489258 9.11146484 -7.20117188 9.09765625 C-9.13424666 9.07422504 -11.0671638 9.03835838 -13 9 C-13 8.67 -13 8.34 -13 8 C-11.35 8 -9.7 8 -8 8 C-8 7.34 -8 6.68 -8 6 C-7.05125 5.7525 -6.1025 5.505 -5.125 5.25 C-1.91306809 4.3142923 -1.91306809 4.3142923 -0.625 1.875 C-0.41875 1.25625 -0.2125 0.6375 0 0 Z " fill="#DAE5F3" transform="translate(105,96)"/>
<path d="M0 0 C8.58 0 17.16 0 26 0 C25.67 0.99 25.34 1.98 25 3 C23.35 3 21.7 3 20 3 C20 2.67 20 2.34 20 2 C16.37 2 12.74 2 9 2 C9.33 2.99 9.66 3.98 10 5 C9.01 5.99 8.02 6.98 7 8 C6.1028125 6.7934375 6.1028125 6.7934375 5.1875 5.5625 C3.19052724 2.77672016 3.19052724 2.77672016 0 2 C0 1.34 0 0.68 0 0 Z " fill="#DFECF7" transform="translate(119,82)"/>
<path d="M0 0 C2.31 0.33 4.62 0.66 7 1 C7 3.97 7 6.94 7 10 C5.02 10 3.04 10 1 10 C0.63720544 8.71073008 0.28503302 7.41846728 -0.0625 6.125 C-0.35833984 5.04605469 -0.35833984 5.04605469 -0.66015625 3.9453125 C-1 2 -1 2 0 0 Z " fill="#F1F8FC" transform="translate(60,83)"/>
<path d="M0 0 C0.66 0 1.32 0 2 0 C2.33 0.66 2.66 1.32 3 2 C16.365 2.495 16.365 2.495 30 3 C30 3.33 30 3.66 30 4 C23.07 4 16.14 4 9 4 C9 4.66 9 5.32 9 6 C7.02 6.66 5.04 7.32 3 8 C2.67 7.01 2.34 6.02 2 5 C0.68 5.33 -0.64 5.66 -2 6 C-1.34 4.02 -0.68 2.04 0 0 Z " fill="#203471" transform="translate(70,120)"/>
<path d="M0 0 C3.96 0 7.92 0 12 0 C8.91111478 2.05925681 8.29064073 2.2390374 4.8125 2.125 C2.9253125 2.063125 2.9253125 2.063125 1 2 C1.33 4.64 1.66 7.28 2 10 C6.455 10.99 6.455 10.99 11 12 C11.33 13.32 11.66 14.64 12 16 C11.34 16.99 10.68 17.98 10 19 C9 18 9 18 8.9375 15.4375 C8.958125 14.633125 8.97875 13.82875 9 13 C6.03 13 3.06 13 0 13 C0 8.71 0 4.42 0 0 Z " fill="#2A3869" transform="translate(92,106)"/>
<path d="M0 0 C0.66 0.66 1.32 1.32 2 2 C2.99 2 3.98 2 5 2 C3.45454854 7.47932789 0.84456788 12.11429181 -2 17 C-2.33 17 -2.66 17 -3 17 C-3.125 12.25 -3.125 12.25 -2 10 C-2.99 10.495 -2.99 10.495 -4 11 C-3.52269162 9.5410574 -3.04308958 8.08286504 -2.5625 6.625 C-2.29566406 5.81289062 -2.02882812 5.00078125 -1.75390625 4.1640625 C-1 2 -1 2 0 0 Z " fill="#D8E3EF" transform="translate(161,92)"/>
<path d="M0 0 C0.66 0 1.32 0 2 0 C3.6875 2.375 3.6875 2.375 5 5 C4 7 4 7 2 9 C1.67 9.99 1.34 10.98 1 12 C-0.32 12 -1.64 12 -3 12 C-2.67 10.02 -2.34 8.04 -2 6 C-2.66 5.67 -3.32 5.34 -4 5 C-2.71937515 3.2925002 -1.38232443 1.62626404 0 0 Z " fill="#F8FCF4" transform="translate(65,106)"/>
<path d="M0 0 C0 0.66 0 1.32 0 2 C-0.99 2 -1.98 2 -3 2 C-3 2.66 -3 3.32 -3 4 C-5.31 4.33 -7.62 4.66 -10 5 C-10.33 4.34 -10.66 3.68 -11 3 C-11.99 3.495 -11.99 3.495 -13 4 C-13 2.68 -13 1.36 -13 0 C-8.37078475 -1.0161692 -4.65537393 -0.83796731 0 0 Z M-12 5 C-11.34 5 -10.68 5 -10 5 C-10.33 5.66 -10.66 6.32 -11 7 C-11.33 6.34 -11.66 5.68 -12 5 Z " fill="#1E3777" transform="translate(51,108)"/>
<path d="M0 0 C2 2 2 2 2.3125 5.8125 C2.23655163 9.60301431 1.30623182 11.92502424 -1 15 C-1.66 13.68 -2.32 12.36 -3 11 C-2.34 10.67 -1.68 10.34 -1 10 C-1 7.69 -1 5.38 -1 3 C-1.99 3 -2.98 3 -4 3 C-6.1875 1.5 -6.1875 1.5 -8 0 C-5.09288879 -1.4535556 -3.10402897 -0.71133997 0 0 Z " fill="#364674" transform="translate(104,86)"/>
<path d="M0 0 C9.9 0.33 19.8 0.66 30 1 C30 1.33 30 1.66 30 2 C21.42 2 12.84 2 4 2 C4 2.66 4 3.32 4 4 C4.99 4.33 5.98 4.66 7 5 C4.8125 5.75 4.8125 5.75 2 6 C-0.8125 4.0625 -0.8125 4.0625 -3 2 C-2.01 2 -1.02 2 0 2 C0 1.34 0 0.68 0 0 Z " fill="#646D9A" transform="translate(115,80)"/>
<path d="M0 0 C1.65 0.33 3.3 0.66 5 1 C5 2.98 5 4.96 5 7 C3.02253397 7.73080266 1.01927511 8.39421747 -1 9 C-1.66 8.67 -2.32 8.34 -3 8 C-3 7.34 -3 6.68 -3 6 C-2.01 6 -1.02 6 0 6 C0 5.34 0 4.68 0 4 C-0.66 4 -1.32 4 -2 4 C-1.34 2.68 -0.68 1.36 0 0 Z " fill="#FAFDF3" transform="translate(113,90)"/>
<path d="M0 0 C4.29 0 8.58 0 13 0 C13 0.66 13 1.32 13 2 C13.99 2.66 14.98 3.32 16 4 C9.4 4 2.8 4 -4 4 C-4 3.67 -4 3.34 -4 3 C-2.35 2.67 -0.7 2.34 1 2 C0.67 1.34 0.34 0.68 0 0 Z " fill="#B7C5DF" transform="translate(41,119)"/>
<path d="M0 0 C0.99 0 1.98 0 3 0 C3.99 2.64 4.98 5.28 6 8 C7.95216435 6.04783565 8.84826645 4.46800047 10 2 C10.66 2 11.32 2 12 2 C10.55049545 5.7910119 8.84827434 9.3874638 7 13 C4.64283596 10.84545751 3.21033856 8.80280126 1.8125 5.9375 C1.29623047 4.89916016 1.29623047 4.89916016 0.76953125 3.83984375 C0 2 0 2 0 0 Z " fill="#374573" transform="translate(145,100)"/>
<path d="M0 0 C3.00463863 2.57540454 4.58344201 5.31694922 6 9 C5.6875 12.875 5.6875 12.875 5 16 C2.82625536 13.35370218 1.67050609 11.35253045 1 8 C0.67 7.34 0.34 6.68 0 6 C-0.039992 4.00039988 -0.04346799 1.99952758 0 0 Z " fill="#263971" transform="translate(128,95)"/>
<path d="M0 0 C3.63 0 7.26 0 11 0 C10.34 1.32 9.68 2.64 9 4 C9.99 4.66 10.98 5.32 12 6 C8.52674819 7.1577506 5.63932552 7.06866652 2 7 C2.66 6.67 3.32 6.34 4 6 C4 4.35 4 2.7 4 1 C2.68 0.67 1.36 0.34 0 0 Z " fill="#1C3577" transform="translate(44,85)"/>
<path d="M0 0 C-0.33 2.64 -0.66 5.28 -1 8 C-0.34 8.33 0.32 8.66 1 9 C-2.96 8.67 -6.92 8.34 -11 8 C-11 7.67 -11 7.34 -11 7 C-9.02 6.67 -7.04 6.34 -5 6 C-5.66 5.34 -6.32 4.68 -7 4 C-6.34 4 -5.68 4 -5 4 C-5 3.34 -5 2.68 -5 2 C-5.66 1.67 -6.32 1.34 -7 1 C-4.50935112 0.31292445 -2.62113708 0 0 0 Z " fill="#2B408B" transform="translate(58,85)"/>
<path d="M0 0 C0.66 0.33 1.32 0.66 2 1 C1.67 1.66 1.34 2.32 1 3 C0.01 3 -0.98 3 -2 3 C-1.67 4.32 -1.34 5.64 -1 7 C-5.29 7 -9.58 7 -14 7 C-14 6.67 -14 6.34 -14 6 C-12.6078125 5.566875 -12.6078125 5.566875 -11.1875 5.125 C-7.90208333 4.1125 -7.90208333 4.1125 -5 2 C-2.4375 0.8125 -2.4375 0.8125 0 0 Z " fill="#33447F" transform="translate(65,119)"/>
<path d="M0 0 C4.875 0.875 4.875 0.875 6 2 C6.1875 4.4375 6.1875 4.4375 6 7 C5.34 7.66 4.68 8.32 4 9 C1.875 8.625 1.875 8.625 0 8 C0.33 6.68 0.66 5.36 1 4 C1.66 4 2.32 4 3 4 C2.2575 3.2884375 2.2575 3.2884375 1.5 2.5625 C0 1 0 1 0 0 Z " fill="#2E3B71" transform="translate(52,109)"/>
<path d="M0 0 C0 0.33 0 0.66 0 1 C-1.65 1.33 -3.3 1.66 -5 2 C-5 3.32 -5 4.64 -5 6 C-5.61875 5.690625 -6.2375 5.38125 -6.875 5.0625 C-11.18802294 3.5960722 -15.4759996 3.33380974 -20 3 C-20 2.67 -20 2.34 -20 2 C-18.95199219 1.90912109 -18.95199219 1.90912109 -17.8828125 1.81640625 C-16.97273438 1.73261719 -16.06265625 1.64882812 -15.125 1.5625 C-14.22007813 1.48128906 -13.31515625 1.40007812 -12.3828125 1.31640625 C-2.20170455 -0.03551136 -2.20170455 -0.03551136 0 0 Z " fill="#DAE4F0" transform="translate(112,82)"/>
<path d="M0 0 C1.859375 0.2578125 1.859375 0.2578125 4 1 C5.265625 2.7421875 5.265625 2.7421875 6.25 4.875 C6.58515625 5.57367188 6.9203125 6.27234375 7.265625 6.9921875 C8 9 8 9 8 12 C6.68 12.33 5.36 12.66 4 13 C3.37978045 10.07610785 2.90945156 7.2238705 2.5625 4.25 C2.376875 3.1775 2.19125 2.105 2 1 C1.34 0.67 0.68 0.34 0 0 Z " fill="#273A6E" transform="translate(134,111)"/>
<path d="M0 0 C0.33 0.66 0.66 1.32 1 2 C0.67 2.66 0.34 3.32 0 4 C1.134375 4.268125 2.26875 4.53625 3.4375 4.8125 C4.613125 5.204375 5.78875 5.59625 7 6 C7.33 6.99 7.66 7.98 8 9 C8.99 9.33 9.98 9.66 11 10 C3.75725594 9.5171504 3.75725594 9.5171504 0.4375 7.25 C-1 5 -1 5 -0.75 2.25 C-0.5025 1.5075 -0.255 0.765 0 0 Z " fill="#4A5780" transform="translate(40,86)"/>
<path d="M0 0 C2.10375 0.309375 2.10375 0.309375 4.25 0.625 C4.25 3.925 4.25 7.225 4.25 10.625 C3.92 10.625 3.59 10.625 3.25 10.625 C3.25 7.655 3.25 4.685 3.25 1.625 C0.87625139 1.29074265 0.87625139 1.29074265 -1.75 1.625 C-3.59315671 3.5254467 -3.59315671 3.5254467 -4.75 5.625 C-5.08 4.635 -5.41 3.645 -5.75 2.625 C-6.74 2.295 -7.73 1.965 -8.75 1.625 C-5.5750906 -0.2828584 -3.64414789 -0.5359041 0 0 Z " fill="#BECBE0" transform="translate(63.75,82.375)"/>
<path d="M0 0 C0.66 0 1.32 0 2 0 C2.185625 1.2065625 2.185625 1.2065625 2.375 2.4375 C2.58125 3.283125 2.7875 4.12875 3 5 C3.66 5.33 4.32 5.66 5 6 C6.1875 8.375 6.1875 8.375 7 11 C6.67 11.99 6.34 12.98 6 14 C3.01380463 11.44040397 1.51448438 8.6059152 0 5 C-0.1875 2.125 -0.1875 2.125 0 0 Z " fill="#32426F" transform="translate(139,85)"/>
<path d="M0 0 C2 1.375 2 1.375 4 3 C4 3.66 4 4.32 4 5 C3.34 5 2.68 5 2 5 C2 5.66 2 6.32 2 7 C0.02 7 -1.96 7 -4 7 C-2.92598892 4.08482708 -2.22189824 2.22189824 0 0 Z " fill="#2E4379" transform="translate(171,86)"/>
<path d="M0 0 C1.98 0.495 1.98 0.495 4 1 C4.33 3.31 4.66 5.62 5 8 C3.68 8.33 2.36 8.66 1 9 C1 7.35 1 5.7 1 4 C0.34 4 -0.32 4 -1 4 C-0.67 2.68 -0.34 1.36 0 0 Z " fill="#FDFBEE" transform="translate(134,90)"/>
<path d="M0 0 C0.33 1.32 0.66 2.64 1 4 C0.01 4.66 -0.98 5.32 -2 6 C-2.33 5.34 -2.66 4.68 -3 4 C-5.29629994 2.85185003 -7.07698086 2.69230191 -9.625 2.4375 C-10.44226563 2.35371094 -11.25953125 2.26992187 -12.1015625 2.18359375 C-12.72804687 2.12300781 -13.35453125 2.06242187 -14 2 C-14 1.67 -14 1.34 -14 1 C-4.58997722 -0.14806378 -4.58997722 -0.14806378 0 0 Z " fill="#344A82" transform="translate(157,121)"/>
<path d="M0 0 C0.33 0 0.66 0 1 0 C1 3.63 1 7.26 1 11 C-0.32 10.67 -1.64 10.34 -3 10 C-2.67 7.69 -2.34 5.38 -2 3 C-1.34 3 -0.68 3 0 3 C0 2.01 0 1.02 0 0 Z " fill="#26376B" transform="translate(27,109)"/>
<path d="M0 0 C2.31 0 4.62 0 7 0 C7 0.99 7 1.98 7 3 C5.35 3.33 3.7 3.66 2 4 C2 5.65 2 7.3 2 9 C1.67 9 1.34 9 1 9 C0.67 6.03 0.34 3.06 0 0 Z " fill="#233A89" transform="translate(94,87)"/>
<path d="M0 0 C2.64 0 5.28 0 8 0 C8 0.99 8 1.98 8 3 C4.7 3 1.4 3 -2 3 C-1.34 2.67 -0.68 2.34 0 2 C0 1.34 0 0.68 0 0 Z " fill="#D4E4F3" transform="translate(92,119)"/>
<path d="M0 0 C3 1 3 1 4.1875 3.125 C5.14531259 6.51418301 5.13746202 9.49471861 5 13 C2.9375 11.4375 2.9375 11.4375 1 9 C1.25 5.25 1.25 5.25 2 2 C1.34 2 0.68 2 0 2 C0 1.34 0 0.68 0 0 Z " fill="#C2CDE2" transform="translate(66,101)"/>
<path d="M0 0 C2.96175123 0.61277612 4.38058783 1.25372522 7 3 C6.67 4.32 6.34 5.64 6 7 C4.02 6.34 2.04 5.68 0 5 C0 3.35 0 1.7 0 0 Z " fill="#1E3576" transform="translate(150,96)"/>
<path d="M0 0 C2.31 0 4.62 0 7 0 C6.01 0.66 5.02 1.32 4 2 C4.99 3.485 4.99 3.485 6 5 C4.35 5.33 2.7 5.66 1 6 C0.67 5.34 0.34 4.68 0 4 C0.66 4 1.32 4 2 4 C2 3.34 2 2.68 2 2 C1.34 2 0.68 2 0 2 C0 1.34 0 0.68 0 0 Z " fill="#1B2B68" transform="translate(61,93)"/>
<path d="M0 0 C0.66 1.32 1.32 2.64 2 4 C3.98 4 5.96 4 8 4 C7.360625 4.12375 6.72125 4.2475 6.0625 4.375 C5.0415625 4.684375 5.0415625 4.684375 4 5 C3.67 5.66 3.34 6.32 3 7 C3 6.34 3 5.68 3 5 C1.02 5.99 1.02 5.99 -1 7 C-1.625 5.1875 -1.625 5.1875 -2 3 C-1.34 2.01 -0.68 1.02 0 0 Z " fill="#506191" transform="translate(69,115)"/>
<path d="M0 0 C0.99 0.66 1.98 1.32 3 2 C3.1875 4.625 3.1875 4.625 3 7 C1.02 7 -0.96 7 -3 7 C-3 6.34 -3 5.68 -3 5 C-2.34 5 -1.68 5 -1 5 C-0.67 3.35 -0.34 1.7 0 0 Z " fill="#2B3F86" transform="translate(29,100)"/>
<path d="M0 0 C1.32 0.33 2.64 0.66 4 1 C4 1.99 4 2.98 4 4 C4.99 4.33 5.98 4.66 7 5 C4.8125 5.75 4.8125 5.75 2 6 C-0.8125 4.0625 -0.8125 4.0625 -3 2 C-2.01 2 -1.02 2 0 2 C0 1.34 0 0.68 0 0 Z " fill="#55608A" transform="translate(115,80)"/>
<path d="M0 0 C2.64 0 5.28 0 8 0 C7.67 0.99 7.34 1.98 7 3 C4.69 3 2.38 3 0 3 C0 2.01 0 1.02 0 0 Z " fill="#C9D7F3" transform="translate(72,82)"/>
<path d="M0 0 C2.64 0 5.28 0 8 0 C8.625 1.8125 8.625 1.8125 9 4 C8.01 5.485 8.01 5.485 7 7 C6 6 6 6 5.9375 3.4375 C5.958125 2.633125 5.97875 1.82875 6 1 C4.02 1 2.04 1 0 1 C0 0.67 0 0.34 0 0 Z " fill="#1D2E68" transform="translate(95,118)"/>
<path d="M0 0 C0.99 0.66 1.98 1.32 3 2 C2.34 2.66 1.68 3.32 1 4 C1.33 4.66 1.66 5.32 2 6 C0.125 6.625 0.125 6.625 -2 7 C-2.66 6.34 -3.32 5.68 -4 5 C-3.67 4.01 -3.34 3.02 -3 2 C-3 2.66 -3 3.32 -3 4 C-2.34 4 -1.68 4 -1 4 C-0.67 2.68 -0.34 1.36 0 0 Z " fill="#384B84" transform="translate(39,110)"/>
<path d="M0 0 C0.99 0.33 1.98 0.66 3 1 C2.67 2.65 2.34 4.3 2 6 C0.68 6 -0.64 6 -2 6 C-2 4.35 -2 2.7 -2 1 C-1.34 0.67 -0.68 0.34 0 0 Z " fill="#E0E8F4" transform="translate(63,87)"/>
<path d="M0 0 C1.98 0 3.96 0 6 0 C6 0.33 6 0.66 6 1 C4.35 1 2.7 1 1 1 C1 2.32 1 3.64 1 5 C0.01 5 -0.98 5 -2 5 C-2 4.34 -2 3.68 -2 3 C-3.32 3 -4.64 3 -6 3 C-5.67 2.34 -5.34 1.68 -5 1 C-3.35 1.33 -1.7 1.66 0 2 C0 1.34 0 0.68 0 0 Z " fill="#1E2F6B" transform="translate(71,80)"/>
<path d="M0 0 C0.66 0.66 1.32 1.32 2 2 C1.625 4.625 1.625 4.625 1 7 C-0.32 7 -1.64 7 -3 7 C-1.125 2.25 -1.125 2.25 0 0 Z " fill="#3E5186" transform="translate(160,105)"/>
<path d="M0 0 C0.33 0 0.66 0 1 0 C1.33 3.3 1.66 6.6 2 10 C1.01 10 0.02 10 -1 10 C-0.67 6.7 -0.34 3.4 0 0 Z " fill="#3F4D7F" transform="translate(27,90)"/>
<path d="M0 0 C1.98 0 3.96 0 6 0 C5.0409375 0.495 5.0409375 0.495 4.0625 1 C0.9447236 4.02329832 1.27956936 6.73656724 1 11 C0.67 11 0.34 11 0 11 C0 7.37 0 3.74 0 0 Z " fill="#223157" transform="translate(92,85)"/>
<path d="M0 0 C2.64 0 5.28 0 8 0 C7.01 0.66 6.02 1.32 5 2 C5.99 2.66 6.98 3.32 8 4 C2.25 3.125 2.25 3.125 0 2 C0 1.34 0 0.68 0 0 Z " fill="#364A83" transform="translate(24,120)"/>
<path d="M0 0 C0.99 0 1.98 0 3 0 C3 3.96 3 7.92 3 12 C2.67 12 2.34 12 2 12 C2 9.36 2 6.72 2 4 C1.34 4 0.68 4 0 4 C0 2.68 0 1.36 0 0 Z " fill="#E6F0FC" transform="translate(89,106)"/>
<path d="M0 0 C4.74164134 2.43161094 4.74164134 2.43161094 5.9375 5.0625 C5.958125 5.701875 5.97875 6.34125 6 7 C5.34 7.66 4.68 8.32 4 9 C0 2.25 0 2.25 0 0 Z " fill="#CDD8EA" transform="translate(128,93)"/>
<path d="M0 0 C3 0.1875 3 0.1875 5 1.1875 C5 1.8475 5 2.5075 5 3.1875 C4.01 3.5175 3.02 3.8475 2 4.1875 C1.67 3.1975 1.34 2.2075 1 1.1875 C-0.98 1.5175 -2.96 1.8475 -5 2.1875 C-3 0.1875 -3 0.1875 0 0 Z " fill="#DBE4F5" transform="translate(38,81.8125)"/>
<path d="M0 0 C2.0625 1.75 2.0625 1.75 4 4 C3.75 6.25 3.75 6.25 3 8 C0.37613513 4.93882432 0 4.26826873 0 0 Z " fill="#374A71" transform="translate(124,87)"/>
<path d="M0 0 C-1.65 1.32 -3.3 2.64 -5 4 C-5 3.01 -5 2.02 -5 1 C-5.99 0.67 -6.98 0.34 -8 0 C-4.71023192 -1.09658936 -3.28696233 -0.79953138 0 0 Z " fill="#DCEAEE" transform="translate(174,84)"/>
<path d="M0 0 C2.31 0 4.62 0 7 0 C6.01 0.495 6.01 0.495 5 1 C5 1.66 5 2.32 5 3 C3.35 3 1.7 3 0 3 C0 2.01 0 1.02 0 0 Z " fill="#C4DCF0" transform="translate(157,82)"/>
</svg>
