<?xml version="1.0" encoding="UTF-8"?>
<!DOCTYPE svg PUBLIC "-//W3C//DTD SVG 1.1//EN" "http://www.w3.org/Graphics/SVG/1.1/DTD/svg11.dtd">
<svg xmlns="http://www.w3.org/2000/svg" version="1.1" width="268px" height="268px" style="shape-rendering:geometricPrecision; text-rendering:geometricPrecision; image-rendering:optimizeQuality; fill-rule:evenodd; clip-rule:evenodd" xmlns:xlink="http://www.w3.org/1999/xlink">
<g><path style="opacity:1" fill="#223a83" d="M -0.5,-0.5 C 88.8333,-0.5 178.167,-0.5 267.5,-0.5C 267.5,88.8333 267.5,178.167 267.5,267.5C 178.167,267.5 88.8333,267.5 -0.5,267.5C -0.5,178.167 -0.5,88.8333 -0.5,-0.5 Z"/></g>
<g><path style="opacity:1" fill="#2a3d7c" d="M 210.5,138.5 C 214.25,129.167 218.916,120.333 224.5,112C 225.745,111.209 227.078,110.709 228.5,110.5C 229.5,110.5 230.5,110.5 231.5,110.5C 231.5,109.167 231.5,107.833 231.5,106.5C 222.833,106.5 214.167,106.5 205.5,106.5C 205.5,107.833 205.5,109.167 205.5,110.5C 206.5,110.5 207.5,110.5 208.5,110.5C 210.199,110.34 211.866,110.506 213.5,111C 214.46,115.296 213.46,119.13 210.5,122.5C 211.167,119.167 211.833,115.833 212.5,112.5C 209.833,112.5 207.167,112.5 204.5,112.5C 204.5,109.833 204.5,107.167 204.5,104.5C 213.685,104.169 223.018,104.169 232.5,104.5C 232.5,107.167 232.5,109.833 232.5,112.5C 229.881,112.232 227.381,112.565 225,113.5C 223.371,118.079 221.204,122.412 218.5,126.5C 220.252,129.191 219.752,129.858 217,128.5C 216.273,130.953 215.273,133.286 214,135.5C 213.241,137.063 212.074,138.063 210.5,138.5 Z"/></g>
<g><path style="opacity:1" fill="#919fc9" d="M 155.5,107.5 C 166.988,106.505 178.655,106.172 190.5,106.5C 190.843,108.483 190.176,109.817 188.5,110.5C 188.804,109.85 189.137,109.183 189.5,108.5C 178.186,107.501 166.853,107.168 155.5,107.5 Z"/></g>
<g><path style="opacity:1" fill="#98a5ce" d="M 228.5,110.5 C 229.091,109.849 229.757,109.182 230.5,108.5C 222.5,107.167 214.5,107.167 206.5,108.5C 207.243,109.182 207.909,109.849 208.5,110.5C 207.5,110.5 206.5,110.5 205.5,110.5C 205.5,109.167 205.5,107.833 205.5,106.5C 214.167,106.5 222.833,106.5 231.5,106.5C 231.5,107.833 231.5,109.167 231.5,110.5C 230.5,110.5 229.5,110.5 228.5,110.5 Z"/></g>
<g><path style="opacity:1" fill="#f6f8fb" d="M 55.5,122.5 C 64.3424,125.046 73.3424,127.546 82.5,130C 85.2018,131.012 87.5351,132.512 89.5,134.5C 95.5545,149.204 90.5545,157.704 74.5,160C 61.6522,161.223 48.9856,160.39 36.5,157.5C 36.5,152.5 36.5,147.5 36.5,142.5C 39.1667,142.5 41.8333,142.5 44.5,142.5C 44.3864,149.113 47.3864,153.613 53.5,156C 58.8333,156.667 64.1667,156.667 69.5,156C 75.0539,154.47 77.2206,150.97 76,145.5C 74.4207,143.959 72.5873,142.792 70.5,142C 62.4664,140.184 54.4664,138.184 46.5,136C 37.8709,132.241 34.3709,125.741 36,116.5C 38.84,110.996 43.34,107.829 49.5,107C 62.6922,105.802 75.6922,106.635 88.5,109.5C 88.5,113.5 88.5,117.5 88.5,121.5C 85.8333,121.5 83.1667,121.5 80.5,121.5C 78.5879,112.776 73.0879,109.109 64,110.5C 58.9084,109.7 54.575,111.034 51,114.5C 49.7522,118.745 51.2522,121.412 55.5,122.5 Z"/></g>
<g><path style="opacity:1" fill="#f4f6fa" d="M 149.5,108.5 C 154.51,111.007 156.843,115.174 156.5,121C 156.549,127.407 153.883,132.24 148.5,135.5C 143.938,136.796 139.271,137.462 134.5,137.5C 129.5,137.5 124.5,137.5 119.5,137.5C 119.178,143.358 119.511,149.025 120.5,154.5C 120.611,155.117 120.944,155.617 121.5,156C 124.482,156.498 127.482,156.665 130.5,156.5C 130.5,157.5 130.5,158.5 130.5,159.5C 118.833,159.5 107.167,159.5 95.5,159.5C 95.5,158.5 95.5,157.5 95.5,156.5C 97.9201,156.708 100.253,156.374 102.5,155.5C 103.666,140.845 103.833,126.178 103,111.5C 100.281,110.556 97.4475,110.223 94.5,110.5C 94.5,109.167 94.5,107.833 94.5,106.5C 110.837,106.333 127.17,106.5 143.5,107C 145.518,107.505 147.518,108.005 149.5,108.5 Z"/></g>
<g><path style="opacity:1" fill="#f9fbfd" d="M 155.5,107.5 C 166.853,107.168 178.186,107.501 189.5,108.5C 189.137,109.183 188.804,109.85 188.5,110.5C 183.288,109.492 181.122,111.492 182,116.5C 187.245,127.323 192.745,137.99 198.5,148.5C 203.059,140.051 207.059,131.384 210.5,122.5C 213.46,119.13 214.46,115.296 213.5,111C 211.866,110.506 210.199,110.34 208.5,110.5C 207.909,109.849 207.243,109.182 206.5,108.5C 214.5,107.167 222.5,107.167 230.5,108.5C 229.757,109.182 229.091,109.849 228.5,110.5C 227.078,110.709 225.745,111.209 224.5,112C 218.916,120.333 214.25,129.167 210.5,138.5C 206.354,144.783 202.687,151.45 199.5,158.5C 195.167,159.833 190.833,159.833 186.5,158.5C 179.333,144.167 172.167,129.833 165,115.5C 162.831,111.81 159.664,110.143 155.5,110.5C 155.5,109.5 155.5,108.5 155.5,107.5 Z"/></g>
<g><path style="opacity:1" fill="#253b80" d="M 120.5,110.5 C 127.206,109.407 133.039,111.074 138,115.5C 140.765,129.572 134.932,135.906 120.5,134.5C 120.5,126.5 120.5,118.5 120.5,110.5 Z"/></g>
<g><path style="opacity:1" fill="#334380" d="M 55.5,122.5 C 62.0549,122.286 68.3883,123.12 74.5,125C 77.6853,127.542 81.352,129.042 85.5,129.5C 87.9398,130.336 89.2732,132.003 89.5,134.5C 87.5351,132.512 85.2018,131.012 82.5,130C 73.3424,127.546 64.3424,125.046 55.5,122.5 Z"/></g>
<g><path style="opacity:1" fill="#263a7c" d="M 149.5,108.5 C 147.518,108.005 145.518,107.505 143.5,107C 127.17,106.5 110.837,106.333 94.5,106.5C 94.5,107.833 94.5,109.167 94.5,110.5C 97.4475,110.223 100.281,110.556 103,111.5C 103.833,126.178 103.666,140.845 102.5,155.5C 100.253,156.374 97.9201,156.708 95.5,156.5C 94.5655,157.568 94.2322,158.901 94.5,160.5C 106.833,160.5 119.167,160.5 131.5,160.5C 131.768,158.901 131.434,157.568 130.5,156.5C 127.482,156.665 124.482,156.498 121.5,156C 120.944,155.617 120.611,155.117 120.5,154.5C 120.5,149.167 120.5,143.833 120.5,138.5C 125.363,138.819 130.03,138.486 134.5,137.5C 139.271,137.462 143.938,136.796 148.5,135.5C 145.325,137.88 141.658,138.88 137.5,138.5C 137.649,139.552 137.483,140.552 137,141.5C 132.263,140.531 127.43,140.197 122.5,140.5C 122.894,145.271 122.894,149.938 122.5,154.5C 126.254,154.504 129.921,154.337 133.5,154C 132.402,157.512 132.402,160.679 133.5,163.5C 127.968,162.855 122.468,162.188 117,161.5C 115,162.833 113,162.833 111,161.5C 109.333,162.167 107.667,162.833 106,163.5C 102,162.833 98,162.167 94,161.5C 93.6924,162.308 93.1924,162.975 92.5,163.5C 92.5207,161.398 92.1874,159.232 91.5,157C 92.1667,156.333 92.8333,155.667 93.5,155C 96.4816,154.502 99.4816,154.335 102.5,154.5C 102.5,140.5 102.5,126.5 102.5,112.5C 98.9659,112.468 95.7992,112.802 93,113.5C 91.9204,110.386 91.7537,107.386 92.5,104.5C 105.74,103.42 119.073,103.254 132.5,104C 134.181,100.534 135.181,100.7 135.5,104.5C 138.187,104.336 140.854,104.503 143.5,105C 145.889,105.739 147.889,106.905 149.5,108.5 Z"/></g>
<g><path style="opacity:1" fill="#7f8dba" d="M 95.5,156.5 C 95.5,157.5 95.5,158.5 95.5,159.5C 107.167,159.5 118.833,159.5 130.5,159.5C 130.5,158.5 130.5,157.5 130.5,156.5C 131.434,157.568 131.768,158.901 131.5,160.5C 119.167,160.5 106.833,160.5 94.5,160.5C 94.2322,158.901 94.5655,157.568 95.5,156.5 Z"/></g>
<g><path style="opacity:1" fill="#b3bee2" d="M 134.5,137.5 C 130.03,138.486 125.363,138.819 120.5,138.5C 120.5,143.833 120.5,149.167 120.5,154.5C 119.511,149.025 119.178,143.358 119.5,137.5C 124.5,137.5 129.5,137.5 134.5,137.5 Z"/></g>
</svg>
