<?xml version="1.0" encoding="UTF-8"?>
<svg version="1.1" xmlns="http://www.w3.org/2000/svg" width="900" height="900">
<path d="M0 0 C297 0 594 0 900 0 C900 297 900 594 900 900 C603 900 306 900 0 900 C0 603 0 306 0 0 Z " fill="#194394" transform="translate(0,0)"/>
<path d="M0 0 C0.87145816 0.00037972 1.74291632 0.00075944 2.6407823 0.00115067 C4.14337067 -0.00183591 4.14337067 -0.00183591 5.67631435 -0.00488281 C7.34699833 -0.00051355 7.34699833 -0.00051355 9.0514335 0.00394398 C10.22426746 0.00308955 11.39710141 0.00223513 12.60547578 0.00135481 C15.87548269 -0.00001336 19.1454505 0.00313407 22.41545278 0.00813287 C25.93625884 0.01243411 29.45706293 0.01099119 32.97787088 0.0102306 C39.0827547 0.00970516 45.18762788 0.01285408 51.29250902 0.01846844 C60.11924243 0.02658069 68.94597066 0.02919838 77.7727074 0.03045643 C92.09201367 0.03264738 106.41131427 0.03930864 120.73061746 0.04875904 C134.64402863 0.05793204 148.55743826 0.06501342 162.47085184 0.06926686 C163.32785685 0.06952958 164.18486185 0.0697923 165.06783671 0.07006299 C169.36699452 0.07136798 173.66615233 0.0726317 177.96531016 0.07387489 C213.65539386 0.08424885 249.34547096 0.10186835 285.0355491 0.1241985 C284.4674375 4.20629973 283.86241484 8.18803294 282.84414285 12.18279225 C282.51059793 13.50246998 282.51059793 13.50246998 282.17031473 14.84880787 C281.94021707 15.74406178 281.71011942 16.63931568 281.4730491 17.5616985 C281.23908426 18.48402272 281.00511942 19.40634693 280.76406473 20.35662037 C280.19111952 22.61332294 279.61487727 24.86912771 279.0355491 27.1241985 C278.01976785 27.21056568 277.0039866 27.29693287 275.9574241 27.38591725 C262.60595158 28.68067458 248.84524385 32.21095992 239.5980491 42.7648235 C238.38195484 44.47362524 238.38195484 44.47362524 237.0355491 47.1241985 C236.6849241 47.68622975 236.3342991 48.248261 235.9730491 48.8273235 C234.64575602 52.07919155 234.58803559 55.22587092 234.5355491 58.6866985 C234.4942991 59.33960865 234.4530491 59.99251881 234.4105491 60.66521412 C234.30475188 67.52219659 237.60218472 72.38722303 241.0355491 78.1241985 C242.11689214 80.05584655 243.19235321 81.9907983 244.2621116 83.928886 C245.39397194 85.95285627 246.52681649 87.97627639 247.6605491 89.9991985 C248.26737528 91.082011 248.87420145 92.1648235 249.49941629 93.2804485 C256.85959238 106.39592138 264.27548062 119.47894116 271.9105491 132.4366985 C272.29807352 133.09565113 272.68559793 133.75460377 273.08486551 134.43352467 C274.99091736 137.67059907 276.90359527 140.90336607 278.83047098 144.12810475 C280.78130528 147.39324735 282.72121621 150.66471458 284.6605491 153.9366985 C285.28945047 154.98188648 285.91835184 156.02707447 286.56631082 157.10393482 C287.14655008 158.08644215 287.72678934 159.06894947 288.3246116 160.08122975 C288.84748758 160.95755055 289.37036356 161.83387135 289.90908426 162.73674732 C291.0355491 165.1241985 291.0355491 165.1241985 291.0355491 169.1241985 C291.6955491 169.1241985 292.3555491 169.1241985 293.0355491 169.1241985 C300.27940291 181.6343869 307.51012667 194.14979584 314.5980491 206.7491985 C319.05324523 214.66322319 323.57769695 222.53340049 328.1605491 230.3741985 C328.74030496 231.36661549 329.32006082 232.35903248 329.91738504 233.38152272 C332.71388893 238.16460114 335.51765951 242.94329349 338.32851785 247.7179485 C339.33515327 249.43662529 340.34167021 251.15537148 341.3480491 252.8741985 C341.81033914 253.65440357 342.27262918 254.43460865 342.74892801 255.23845631 C343.16964578 255.95871998 343.59036356 256.67898365 344.02383035 257.4210735 C344.39032694 258.04336842 344.75682352 258.66566334 345.13442606 259.30681568 C346.08503712 261.22400581 346.52131589 263.05504783 347.0355491 265.1241985 C348.01363905 266.14563869 349.01570395 267.14444554 350.0355491 268.1241985 C350.89629551 269.57582032 351.70202972 271.06049252 352.4730491 272.5616985 C354.54736966 276.48921914 356.73192835 280.30098786 359.0589866 284.085136 C359.59853983 284.96500172 360.13809305 285.84486744 360.69399637 286.75139576 C361.7831774 288.519647 362.87984883 290.28330969 363.98452371 292.04192311 C366.65678048 296.39594274 368.71976141 299.89236457 369.0355491 305.1241985 C369.6955491 305.1241985 370.3555491 305.1241985 371.0355491 305.1241985 C371.4686741 306.2173235 371.9017991 307.3104485 372.3480491 308.4366985 C373.56351713 311.28420339 374.74239743 313.0221428 377.0355491 315.1241985 C379.4573775 318.65603158 380.87188604 322.21870555 382.1917991 326.257011 C382.92866998 328.18057816 382.92866998 328.18057816 384.42226785 329.51091725 C386.60800357 331.69665296 387.84774632 334.10716156 389.3480491 336.8116985 C390.05508742 338.07284207 390.76353379 339.33319681 391.4730491 340.5929485 C391.87265848 341.30322193 392.27226785 342.01349537 392.6839866 342.74529225 C395.36211981 347.45911631 398.11180395 352.13146425 400.8480491 356.8116985 C401.44544901 357.83924244 402.04284891 358.86678639 402.65835184 359.92546803 C405.52752208 364.85764015 408.41777622 369.77264353 411.38320535 374.647636 C411.8958494 375.5013982 412.40849344 376.35516041 412.93667215 377.2347942 C413.89053077 378.8216092 414.85613254 380.40144884 415.83559793 381.97258717 C418.54614388 386.51623823 419.90015701 389.70074891 419.0355491 395.1241985 C417.83842599 398.10515001 416.32664058 400.84463993 414.7230491 403.6241985 C413.91184391 405.0706537 413.10321378 406.51855632 412.29726785 407.9679485 C411.90837381 408.66420338 411.51947977 409.36045826 411.11880106 410.07781178 C410.09654134 412.00897719 409.21228988 413.94443543 408.3714866 415.960136 C406.94444056 419.33998188 405.0812946 422.08857614 403.0355491 425.1241985 C402.35588235 426.78560613 401.68616005 428.45119891 401.0355491 430.1241985 C400.3755491 430.7841985 399.7155491 431.4441985 399.0355491 432.1241985 C398.31735943 433.79023153 397.60249458 435.45783784 396.9105491 437.13494068 C395.36833673 440.64106412 393.42919447 443.92374516 391.5355491 447.2491985 C387.59504615 454.25675584 383.77101115 461.31768378 380.0355491 468.4366985 C379.33268778 469.77015309 379.33268778 469.77015309 378.61562723 471.13054615 C378.17670145 471.97020924 377.73777567 472.80987232 377.2855491 473.67497975 C376.89883035 474.41401539 376.5121116 475.15305104 376.1136741 475.9144817 C374.96157521 478.27581482 374.00484276 480.68309894 373.0355491 483.1241985 C372.21277819 484.55932677 371.35612336 485.97536863 370.4730491 487.3741985 C367.58857087 492.09877492 364.94167207 496.92373709 362.3480491 501.8116985 C361.9676951 502.52422779 361.5873411 503.23675709 361.19546121 503.97087818 C358.92210075 508.280405 356.89496473 512.62028065 355.0355491 517.1241985 C354.3755491 517.1241985 353.7155491 517.1241985 353.0355491 517.1241985 C352.71070535 518.28822193 352.71070535 518.28822193 352.3792991 519.475761 C350.55842051 524.41965811 348.07724215 528.89252845 345.5355491 533.4991985 C344.99946024 534.47509938 344.46337137 535.45100025 343.91103739 536.45647389 C339.24620155 544.87652328 334.29366268 553.06371836 329.0355491 561.1241985 C328.62063211 561.76437916 328.20571512 562.40455982 327.77822489 563.0641399 C322.18163708 571.67741979 316.30002235 579.98038327 310.0355491 588.1241985 C309.47609598 588.87830006 308.91664285 589.63240162 308.3402366 590.40935475 C303.06806618 597.42618061 297.06507124 603.76163778 291.0355491 610.1241985 C290.05715067 611.16640553 290.05715067 611.16640553 289.0589866 612.22966725 C279.64601177 621.97722649 268.27066987 629.778228 256.5980491 636.5616985 C255.99444559 636.91619068 255.39084207 637.27068287 254.76894754 637.63591725 C251.96630061 639.23109969 250.31635576 640.1241985 247.0355491 640.1241985 C247.0355491 640.7841985 247.0355491 641.4441985 247.0355491 642.1241985 C246.12676004 642.37943287 246.12676004 642.37943287 245.1996116 642.6398235 C240.83365249 643.90259321 236.67730377 645.24814237 232.5355491 647.1241985 C213.5490825 654.70711911 186.32913556 656.18282393 167.45083231 648.30046803 C165.27661836 647.30032479 163.15525125 646.23482533 161.0355491 645.1241985 C159.99551737 644.59391041 159.99551737 644.59391041 158.93447489 644.05290943 C138.00687533 633.07143984 124.21523078 614.38420986 113.0355491 594.1241985 C112.49672098 593.23087818 111.95789285 592.33755787 111.4027366 591.41716725 C107.02389294 584.07322087 103.42066638 574.68131659 103.0355491 566.1241985 C104.69570535 563.31560475 104.69570535 563.31560475 107.0980491 560.6866985 C107.9230491 559.75341725 108.7480491 558.820136 109.5980491 557.8585735 C110.4024241 556.95622975 111.2067991 556.053886 112.0355491 555.1241985 C113.24245246 553.57663693 114.43310833 552.01608936 115.5980491 550.4366985 C116.07371317 549.79345631 116.54937723 549.15021412 117.03945535 548.48747975 C117.36816629 548.03759693 117.69687723 547.58771412 118.0355491 547.1241985 C119.6855491 547.4541985 121.3355491 547.7841985 123.0355491 548.1241985 C123.0355491 548.7841985 123.0355491 549.4441985 123.0355491 550.1241985 C123.97914285 550.38330006 124.9227366 550.64240162 125.8949241 550.90935475 C128.91618694 551.77073284 131.8894013 552.73387646 134.8636741 553.74529225 C146.12160976 557.54052215 157.04559256 560.40030893 168.84585184 561.84636647 C170.68500148 562.07972049 172.51832075 562.35840083 174.34951395 562.647636 C177.97217547 563.11600501 181.42777822 563.25353812 185.07851785 563.257011 C185.72823053 563.25796772 186.37794321 563.25892445 187.04734415 563.25991017 C188.41458859 563.26058611 189.78183635 563.25877299 191.14907449 563.25456959 C193.20050221 563.24925689 195.25170659 563.25451195 197.30312723 563.26091725 C205.26027421 563.26451923 213.11867551 562.94437726 221.0355491 562.1241985 C221.0355491 561.4641985 221.0355491 560.8041985 221.0355491 560.1241985 C221.82091043 559.9383318 222.60627176 559.7524651 223.41543192 559.56096607 C227.04136262 558.69657105 230.66338347 557.8167317 234.2855491 556.9366985 C236.13793192 556.49873951 236.13793192 556.49873951 238.0277366 556.05193287 C252.24586676 552.96958905 252.24586676 552.96958905 264.0355491 545.1241985 C265.70414953 544.05251836 267.39431028 543.01408752 269.0980491 541.9991985 C282.02927769 533.85098709 293.43076218 522.08066829 297.2855491 506.8741985 C300.45976373 487.88715322 297.3178285 469.90370355 288.0355491 453.1241985 C287.16833582 451.36950993 286.30176114 449.61448823 285.44350809 447.85539967 C277.85419597 432.36174738 269.42167221 417.30011291 260.6058616 402.475761 C257.65006672 397.49551238 254.77901485 392.46760818 251.9105491 387.4366985 C251.39822733 386.5383025 250.88590555 385.6399065 250.35805887 384.71428639 C248.91646084 382.18468984 247.47585882 379.65452876 246.0355491 377.1241985 C241.11962933 368.49431088 236.16296031 359.88968612 231.17641824 351.30046803 C227.83922273 345.54110517 224.56839372 339.74760265 221.32900614 333.93279225 C218.27579458 328.48151729 215.06713288 323.13017328 211.77724832 317.81853443 C209.0355491 313.33792693 209.0355491 313.33792693 209.0355491 311.1241985 C208.3755491 311.1241985 207.7155491 311.1241985 207.0355491 311.1241985 C206.82148416 310.60357838 206.60741922 310.08295826 206.38686746 309.54656178 C203.61775797 303.04802387 200.20908383 297.06175225 196.5980491 290.9991985 C195.33504017 288.85672939 194.07335184 286.71348129 192.81289285 284.569511 C192.17851297 283.49088795 191.54413309 282.4122649 190.89052957 281.30095631 C188.09843586 276.51933964 185.37484994 271.70028225 182.6605491 266.8741985 C177.77187311 258.19142747 172.85505565 249.52526658 167.9105491 240.8741985 C167.57001505 240.2783495 167.22948099 239.6825005 166.87862772 239.06859547 C162.17874458 230.84765097 157.45436263 222.64122291 152.70180887 214.45061451 C148.13174749 206.5739947 143.61686344 198.66647056 139.11758035 190.7491985 C135.6376382 184.63672524 132.1168152 178.55285916 128.5355491 172.4991985 C124.004925 164.83219591 119.57466086 157.10866323 115.1605491 149.3741985 C114.81618814 148.77084675 114.47182718 148.16749501 114.11703104 147.54585987 C111.17719723 142.39388157 108.24055005 137.24009039 105.30508035 132.08562428 C94.92050769 113.85290454 84.43368111 95.7478645 73.0355491 78.1241985 C72.6348118 77.49996998 72.23407449 76.87574147 71.82119364 76.23259693 C57.5250975 54.11551285 37.65661893 35.91230305 11.5980491 29.3741985 C5.11719199 27.9854434 -1.35256268 27.4380197 -7.9644509 27.1241985 C-8.03512836 23.2151911 -7.78711058 20.07152523 -6.6050759 16.33122975 C-5.4099486 12.21387047 -4.56817296 8.00537969 -3.64804465 3.819511 C-2.72299076 0.17215567 -2.72299076 0.17215567 0 0 Z " fill="#FDFDFD" transform="translate(112.96445089578629,174.8758015036583)"/>
<path d="M0 0 C68.31 0 136.62 0 207 0 C205.66542872 6.00557077 204.32732159 12.00738522 202.9375 18 C202.76412109 18.76183594 202.59074219 19.52367187 202.41210938 20.30859375 C201.11490091 25.88509909 201.11490091 25.88509909 200 27 C198.18894214 27.11031825 196.37580716 27.18661348 194.5625 27.25 C172.78261289 28.78514623 153.39180487 38.552223 139 55 C134.23750643 61.07572448 134.23750643 61.07572448 131 68 C113.84 68 96.68 68 79 68 C78.01 65.03 77.02 62.06 76 59 C72.35068088 52.06515682 66.4763745 48.10720602 60 44 C59.27425781 43.48566406 58.54851562 42.97132813 57.80078125 42.44140625 C40.07099866 30.5287251 14.86766905 27.54061319 -6 27 C-5 18 -5 18 0 0 Z " fill="#F9FBFC" transform="translate(573,175)"/>
<path d="M0 0 C1.74965358 -0.05429959 3.49979787 -0.09292823 5.25 -0.125 C6.22453125 -0.14820313 7.1990625 -0.17140625 8.203125 -0.1953125 C11 0 11 0 12.84594727 0.97338867 C23.30503505 5.95814036 40.4878548 3.10860233 51.8125 3.0625 C53.9694 3.05747453 56.12630114 3.05291348 58.28320312 3.04882812 C63.52216053 3.03790651 68.76107484 3.02125158 74 3 C74 3.66 74 4.32 74 5 C64.95623177 6.83885744 56.21638874 7.35022991 47 7.3125 C45.98785431 7.31126129 45.98785431 7.31126129 44.95526123 7.30999756 C33.4430851 7.27770486 22.28371629 6.34446488 11 4 C10.18756836 3.84241211 9.37513672 3.68482422 8.53808594 3.52246094 C7.72887695 3.3577832 6.91966797 3.19310547 6.0859375 3.0234375 C5.35165527 2.87567871 4.61737305 2.72791992 3.86083984 2.57568359 C2 2 2 2 0 0 Z " fill="#516C9A" transform="translate(260,732)"/>
<path d="M0 0 C9.01934863 5.7096169 16.05532889 13.49131442 22.5625 21.875 C22.97983398 22.40988037 23.39716797 22.94476074 23.82714844 23.49584961 C26.11651055 26.52854195 27.7721076 29.40260714 29 33 C28.01 33.495 28.01 33.495 27 34 C23.11968854 29.50700779 20.26453792 25.90117695 19 20 C18.443125 19.95875 17.88625 19.9175 17.3125 19.875 C13.74324824 18.52447231 12.20130216 16.03422731 10 13 C9.855625 12.2575 9.71125 11.515 9.5625 10.75 C9.376875 10.1725 9.19125 9.595 9 9 C6.00384054 7.6954344 6.00384054 7.6954344 3 7 C3 5.68 3 4.36 3 3 C1.68 3 0.36 3 -1 3 C-0.67 2.01 -0.34 1.02 0 0 Z " fill="#2C4987" transform="translate(157,220)"/>
<path d="M0 0 C0.66 0 1.32 0 2 0 C-0.15545372 4.91160765 -3.70217849 8.84867709 -7.00390625 13.02734375 C-8.93740738 15.90678476 -9.79376509 17.574209 -10 21 C-8.71567661 24.49705129 -8.71567661 24.49705129 -7 28 C-6.690625 28.94875 -6.38125 29.8975 -6.0625 30.875 C-4.86216578 34.40539476 -3.32277473 37.68978254 -1.70703125 41.046875 C-1.47371094 41.69140625 -1.24039063 42.3359375 -1 43 C-1.33 43.66 -1.66 44.32 -2 45 C-5.11906245 43.23166125 -5.94633184 42.14749975 -7.1953125 38.71484375 C-7.50210938 37.46832031 -7.80890625 36.22179687 -8.125 34.9375 C-9.1678237 29.97157453 -9.1678237 29.97157453 -12 26 C-12.1953125 23.3984375 -12.1953125 23.3984375 -12.125 20.375 C-12.10695312 19.37210938 -12.08890625 18.36921875 -12.0703125 17.3359375 C-12.04710937 16.56507813 -12.02390625 15.79421875 -12 15 C-11.34 15 -10.68 15 -10 15 C-10 14.01 -10 13.02 -10 12 C-9.34 12 -8.68 12 -8 12 C-8 11.01 -8 10.02 -8 9 C-7.34 9 -6.68 9 -6 9 C-6 8.34 -6 7.68 -6 7 C-5.34 7 -4.68 7 -4 7 C-4 6.34 -4 5.68 -4 5 C-3.34 5 -2.68 5 -2 5 C-1.855625 4.360625 -1.71125 3.72125 -1.5625 3.0625 C-1 1 -1 1 0 0 Z " fill="#345188" transform="translate(227,724)"/>
<path d="M0 0 C1.03125 0.32484375 2.0625 0.6496875 3.125 0.984375 C9.34449277 2.53105027 15.62922756 2.29591843 22 2.25 C23.28479248 2.24613281 24.56958496 2.24226562 25.89331055 2.23828125 C35.06651824 2.15491477 43.96245747 1.59402325 53 0 C50.58112915 2.41887085 49.25907651 2.49376963 45.9375 3.0625 C42.66916048 3.41027566 42.66916048 3.41027566 40 5 C35.67341149 5.21944593 31.34111781 5.18578872 27.00952148 5.18530273 C24.83882589 5.18747367 22.66865138 5.20557982 20.49804688 5.22460938 C19.10937673 5.22754644 17.72070418 5.22952914 16.33203125 5.23046875 C15.07108643 5.23457764 13.8101416 5.23868652 12.51098633 5.24291992 C8.1550289 4.94153771 4.47761443 4.28059917 1.125 1.375 C0.75375 0.92125 0.3825 0.4675 0 0 Z " fill="#3C598F" transform="translate(285,824)"/>
<path d="M0 0 C3.09290523 3.0036058 5.67893692 6.34658497 8.3125 9.75 C12.09593072 14.60664245 15.92902667 19.37889513 20 24 C18.35 24.33 16.7 24.66 15 25 C14.67 23.35 14.34 21.7 14 20 C13.34 20 12.68 20 12 20 C12 19.34 12 18.68 12 18 C11.01 17.67 10.02 17.34 9 17 C9 16.34 9 15.68 9 15 C8.34 15 7.68 15 7 15 C6.731875 14.360625 6.46375 13.72125 6.1875 13.0625 C5.11332248 10.66868314 5.11332248 10.66868314 2 10 C2.33 9.01 2.66 8.02 3 7 C2.34 7 1.68 7 1 7 C0.67 4.69 0.34 2.38 0 0 Z " fill="#38588E" transform="translate(232,780)"/>
<path d="M0 0 C0.33 0 0.66 0 1 0 C1.24533686 4.17072667 1.28518255 7.94701827 0.1875 12 C-2.93959593 14.85905913 -5.67436933 14.51294001 -9.80859375 14.68359375 C-14.50324061 15.14903609 -18.72048666 16.69616176 -23.15234375 18.2578125 C-25.99658542 18.99911005 -27.29825861 19.02861479 -30 18 C-28.0848421 17.18395001 -26.16781166 16.37229368 -24.25 15.5625 C-23.18265625 15.11003906 -22.1153125 14.65757812 -21.015625 14.19140625 C-16.34589869 12.34650142 -12.79286196 11.88268628 -7.75 11.9375 C-6.67234375 11.94652344 -5.5946875 11.95554688 -4.484375 11.96484375 C-3.66453125 11.97644531 -2.8446875 11.98804688 -2 12 C-1.855625 10.7625 -1.71125 9.525 -1.5625 8.25 C-1.21311498 5.43495501 -0.79620634 2.7298503 0 0 Z " fill="#395488" transform="translate(394,190)"/>
<path d="M0 0 C2.68519691 2.41407606 4.28060645 5.00292278 6.03125 8.1484375 C6.59457031 9.15390625 7.15789062 10.159375 7.73828125 11.1953125 C8.31964844 12.24460937 8.90101563 13.29390625 9.5 14.375 C10.65574136 16.44559649 11.81197467 18.51591848 12.96875 20.5859375 C13.73348633 21.96338135 13.73348633 21.96338135 14.51367188 23.36865234 C15.53288991 25.17304328 16.59409963 26.95416522 17.68945312 28.71337891 C19 31 19 31 19 33 C15.55137873 31.85045958 15.15804191 31.17472849 13.3125 28.1875 C12.87550781 27.50042969 12.43851563 26.81335938 11.98828125 26.10546875 C11 24 11 24 11 20 C10.34 20 9.68 20 9 20 C9 18.68 9 17.36 9 16 C8.01 15.67 7.02 15.34 6 15 C4.96708324 13.01679982 3.9662501 11.01652194 3 9 C2.34 8.67 1.68 8.34 1 8 C0.40644386 5.35139573 0.25790731 2.70802678 0 0 Z " fill="#415C91" transform="translate(214,300)"/>
<path d="M0 0 C0.66 0 1.32 0 2 0 C4.66346453 3.7847665 6.87499511 7.86847726 9.1875 11.875 C9.85458984 13.00292969 10.52167969 14.13085938 11.20898438 15.29296875 C11.83482422 16.36933594 12.46066406 17.44570313 13.10546875 18.5546875 C13.68449951 19.54968262 14.26353027 20.54467773 14.86010742 21.56982422 C15.23627197 22.37178223 15.61243652 23.17374023 16 24 C15.67 24.66 15.34 25.32 15 26 C14.01 25.67 13.02 25.34 12 25 C10.96514123 22.68191636 9.9644586 20.34824702 9 18 C8.34 17.67 7.68 17.34 7 17 C6.59270772 14.67843403 6.25561323 12.3431213 6 10 C5.01 9.67 4.02 9.34 3 9 C3 8.01 3 7.02 3 6 C2.01 5.67 1.02 5.34 0 5 C0 3.35 0 1.7 0 0 Z " fill="#35558B" transform="translate(352,542)"/>
<path d="M0 0 C0 3.69349436 -0.88153908 5.00493457 -3 8 C-4.65002828 9.35386936 -6.3174387 10.68678142 -8 12 C-8.680625 12.86625 -9.36125 13.7325 -10.0625 14.625 C-11.99927948 16.99911679 -13.25197255 17.8091881 -16 19 C-16.66 19.66 -17.32 20.32 -18 21 C-18.66 20.34 -19.32 19.68 -20 19 C-19.53625977 18.56655273 -19.07251953 18.13310547 -18.59472656 17.68652344 C-16.47915219 15.70839268 -14.36456805 13.72920643 -12.25 11.75 C-11.52039063 11.06808594 -10.79078125 10.38617187 -10.0390625 9.68359375 C-8.97558594 8.68779297 -8.97558594 8.68779297 -7.890625 7.671875 C-6.91657715 6.76066895 -6.91657715 6.76066895 -5.92285156 5.83105469 C-3.91519975 3.91924811 -1.95263756 1.96783318 0 0 Z " fill="#385490" transform="translate(410,778)"/>
<path d="M0 0 C3.5222421 4.1119753 6.13336622 8.47841153 8.75 13.1875 C9.36681641 14.27321289 9.36681641 14.27321289 9.99609375 15.38085938 C13 20.74497768 13 20.74497768 13 23 C12.01 22.67 11.02 22.34 10 22 C10 21.34 10 20.68 10 20 C8.68 19.67 7.36 19.34 6 19 C5.67 16.36 5.34 13.72 5 11 C4.34 11 3.68 11 3 11 C3 10.01 3 9.02 3 8 C2.34 8 1.68 8 1 8 C1 6.68 1 5.36 1 4 C0.01 3.67 -0.98 3.34 -2 3 C-1 1 -1 1 0 0 Z " fill="#3F5B90" transform="translate(201,277)"/>
<path d="M0 0 C0.33 0 0.66 0 1 0 C2.73749844 6.01548265 3.35289464 11.43718264 3.3125 17.6875 C3.30903564 18.55947021 3.30557129 19.43144043 3.30200195 20.32983398 C3.01457395 37.54534226 3.01457395 37.54534226 -1.60546875 42.83984375 C-2.06566406 43.22269531 -2.52585937 43.60554687 -3 44 C-3 42.68 -3 41.36 -3 40 C-2.34 40 -1.68 40 -1 40 C-1.02320313 39.39671875 -1.04640625 38.7934375 -1.0703125 38.171875 C-1.08835937 37.37265625 -1.10640625 36.5734375 -1.125 35.75 C-1.14820313 34.96109375 -1.17140625 34.1721875 -1.1953125 33.359375 C-1 31 -1 31 -0.00219727 29.12084961 C1.10551918 26.77670033 1.24502487 25.28175162 1.23046875 22.70703125 C1.22853516 21.91232422 1.22660156 21.11761719 1.22460938 20.29882812 C1.21236328 19.47833984 1.20011719 18.65785156 1.1875 17.8125 C1.18685547 16.98041016 1.18621094 16.14832031 1.18554688 15.29101562 C1.54393315 11.32892925 1.54393315 11.32892925 0 8 C-0.14115161 5.32941149 -0.04247107 2.67567762 0 0 Z " fill="#4C6796" transform="translate(409,648)"/>
<path d="M0 0 C0.33 0.66 0.66 1.32 1 2 C7.31727141 1.8821789 13.63437672 1.75735236 19.95141602 1.62768555 C22.0998217 1.58440948 24.24826015 1.54272927 26.39672852 1.50268555 C29.48724232 1.4448054 32.5775923 1.38116208 35.66796875 1.31640625 C36.62648239 1.29969376 37.58499603 1.28298126 38.57255554 1.26576233 C39.47311172 1.24581711 40.37366791 1.22587189 41.30151367 1.20532227 C42.08983078 1.18977798 42.87814789 1.1742337 43.69035339 1.15821838 C46.19294422 0.98678269 48.55274358 0.54036139 51 0 C51.495 1.485 51.495 1.485 52 3 C34.84 3 17.68 3 0 3 C0 2.01 0 1.02 0 0 Z " fill="#E8F6FE" transform="translate(652,240)"/>
<path d="M0 0 C0.66 0.33 1.32 0.66 2 1 C-0.57784846 3.64752004 -2.91648098 5.94432065 -6 8 C-6.99 8 -7.98 8 -9 8 C-9.33 9.32 -9.66 10.64 -10 12 C-13.67410785 13.17571451 -17.16929183 13.07366746 -21 13 C-18.30234958 11.20156639 -15.61195117 9.7024155 -12.75 8.1875 C-8.22320704 5.74074736 -4.10225074 3.09947834 0 0 Z " fill="#446091" transform="translate(381,803)"/>
<path d="M0 0 C4.41299538 1.20354419 7.08112557 2.43248681 10 6 C10.33 6.99 10.66 7.98 11 9 C11.99 9.66 12.98 10.32 14 11 C14 11.99 14 12.98 14 14 C16.475 14.99 16.475 14.99 19 16 C18.34 17.32 17.68 18.64 17 20 C16.443125 19.29875 15.88625 18.5975 15.3125 17.875 C10.93495373 12.43264518 6.48607937 7.28689842 1.43359375 2.4609375 C0 1 0 1 0 0 Z " fill="#E0EAF6" transform="translate(162,223)"/>
<path d="M0 0 C1 2 1 2 0.625 4.3125 C-1.52328436 7.86543183 -4.03924571 8.88976429 -7.68359375 10.7265625 C-9.87143454 11.92932152 -11.48951515 13.18722374 -13.3125 14.875 C-14.199375 15.57625 -15.08625 16.2775 -16 17 C-18.16796875 16.6328125 -18.16796875 16.6328125 -20 16 C-19.14277344 15.43152344 -18.28554688 14.86304688 -17.40234375 14.27734375 C-10.99058765 9.96755707 -5.24663511 5.73469419 0 0 Z " fill="#D9E4F2" transform="translate(399,703)"/>
<path d="M0 0 C3.02767995 1.51383998 3.5074726 3.96164064 5 7 C6.60758946 9.62438979 8.23832539 12.23165419 9.890625 14.828125 C10.25671875 15.54484375 10.6228125 16.2615625 11 17 C10.67 17.66 10.34 18.32 10 19 C9.34 18.67 8.68 18.34 8 18 C8 17.34 8 16.68 8 16 C6.35 15.67 4.7 15.34 3 15 C3.66 14.67 4.32 14.34 5 14 C4.6390625 13.49210938 4.278125 12.98421875 3.90625 12.4609375 C1.01202536 8.16783762 -0.6707301 5.36584077 0 0 Z " fill="#445F95" transform="translate(336,512)"/>
<path d="M0 0 C3.51879289 4.11739214 6.17115167 8.48751626 8.8125 13.1875 C9.44188477 14.27321289 9.44188477 14.27321289 10.08398438 15.38085938 C11.12155299 17.21839852 12.06890531 19.10628371 13 21 C12.67 21.66 12.34 22.32 12 23 C11 22 10 21 9 20 C8.46375 19.566875 7.9275 19.13375 7.375 18.6875 C5.42842566 16.2985224 5.33413981 14.00725831 5 11 C4.01 11.495 4.01 11.495 3 12 C3 10.02 3 8.04 3 6 C2.34 6 1.68 6 1 6 C0.67 4.02 0.34 2.04 0 0 Z " fill="#436091" transform="translate(274,404)"/>
<path d="M0 0 C0.66 0 1.32 0 2 0 C2.9765625 1.79036458 3.953125 3.58072917 4.9296875 5.37109375 C5.91410024 7.16618315 5.91410024 7.16618315 8 8 C8 9.32 8 10.64 8 12 C8.66 12 9.32 12 10 12 C10.33 12.99 10.66 13.98 11 15 C11.66 15.66 12.32 16.32 13 17 C12.625 19.125 12.625 19.125 12 21 C8.74951058 17.15651589 6.21217131 13.17601471 3.75 8.8125 C3.38648438 8.18408203 3.02296875 7.55566406 2.6484375 6.90820312 C0 2.25352444 0 2.25352444 0 0 Z " fill="#2C4985" transform="translate(358,260)"/>
<path d="M0 0 C4.89892218 2.67429085 9.75652164 5.41166185 14.5625 8.25 C15.40941406 8.75015625 16.25632812 9.2503125 17.12890625 9.765625 C17.74636719 10.17296875 18.36382812 10.5803125 19 11 C19 11.33 19 11.66 19 12 C17.02 12 15.04 12 13 12 C13 11.34 13 10.68 13 10 C12.278125 9.896875 11.55625 9.79375 10.8125 9.6875 C7.6741737 8.92035357 5.58355515 7.93766636 3 6 C2.1875 3.8125 2.1875 3.8125 2 2 C1.34 2 0.68 2 0 2 C0 1.34 0 0.68 0 0 Z " fill="#2C4C84" transform="translate(257,809)"/>
<path d="M0 0 C2 2 2 2 2.1875 4.5625 C2 7 2 7 1 8 C0.92728259 10.35313555 0.91629132 12.70833668 0.9375 15.0625 C0.94652344 16.35285156 0.95554687 17.64320313 0.96484375 18.97265625 C0.97644531 19.97167969 0.98804688 20.97070312 1 22 C0.01 21.34 -0.98 20.68 -2 20 C-2.27741626 17.28549686 -2.3724247 14.83359648 -2.3125 12.125 C-2.31572266 11.40441406 -2.31894531 10.68382812 -2.32226562 9.94140625 C-2.28391251 6.15490781 -2.10900645 3.20972296 0 0 Z " fill="#34528A" transform="translate(349,222)"/>
<path d="M0 0 C0.33 0.99 0.66 1.98 1 3 C1.64839844 3.13921875 2.29679687 3.2784375 2.96484375 3.421875 C3.63644531 3.61265625 4.30804688 3.8034375 5 4 C5.94140625 5.890625 5.94140625 5.890625 6.5625 8.25 C7.62702893 11.88328353 8.76501186 14.89045128 11 18 C11.66 18.33 12.32 18.66 13 19 C13 19.66 13 20.32 13 21 C12.01 21 11.02 21 10 21 C8.63378906 19.28759766 8.63378906 19.28759766 7.265625 16.9140625 C6.77449219 16.06585938 6.28335937 15.21765625 5.77734375 14.34375 C5.27332031 13.4465625 4.76929688 12.549375 4.25 11.625 C3.73050781 10.73554688 3.21101563 9.84609375 2.67578125 8.9296875 C-0.13544127 4.00818388 -0.13544127 4.00818388 -1 2 C-0.67 1.34 -0.34 0.68 0 0 Z " fill="#2C4B87" transform="translate(471,455)"/>
<path d="M0 0 C1.49294889 4.47884666 -0.24436987 7.75275504 -2 12 C-3.5625 14.5625 -3.5625 14.5625 -5 16 C-5.66 16 -6.32 16 -7 16 C-6.71601983 9.32646591 -3.92194468 5.28922815 0 0 Z " fill="#36568F" transform="translate(486,657)"/>
<path d="M0 0 C0.99 0 1.98 0 3 0 C2.855625 0.70125 2.71125 1.4025 2.5625 2.125 C1.9857295 5.07293814 1.49382685 8.03703889 1 11 C5.29 11 9.58 11 14 11 C14 11.33 14 11.66 14 12 C9.38 12.33 4.76 12.66 0 13 C-2.04228456 6.87314631 -2.04973834 5.6937176 0 0 Z " fill="#3E5B90" transform="translate(104,191)"/>
<path d="M0 0 C0.66 0.33 1.32 0.66 2 1 C0.74874616 4.75376152 -0.5652404 5.24073289 -4 7 C-4.66 7 -5.32 7 -6 7 C-6.103125 7.598125 -6.20625 8.19625 -6.3125 8.8125 C-7.08876455 11.28243264 -8.07088921 12.32251235 -10 14 C-10.66 13.67 -11.32 13.34 -12 13 C-9.3207201 6.97162023 -5.58783552 3.42889907 0 0 Z " fill="#38558C" transform="translate(362,209)"/>
<path d="M0 0 C2.7385669 1.0041412 3.81209575 1.66177234 5.25 4.25 C7.14911009 11.21340366 5.09232626 15.78773742 2 22 C1.34 22 0.68 22 0 22 C1.875 16.25 1.875 16.25 3 14 C3.38443942 8.90617772 2.87900399 6.19854749 0 2 C0 1.34 0 0.68 0 0 Z " fill="#476297" transform="translate(528,556)"/>
<path d="M0 0 C0.598125 0.804375 1.19625 1.60875 1.8125 2.4375 C3.80947276 5.22327984 3.80947276 5.22327984 7 6 C7.80078125 7.99609375 7.80078125 7.99609375 8.3125 10.4375 C8.49425781 11.24058594 8.67601562 12.04367187 8.86328125 12.87109375 C8.90839844 13.57363281 8.95351563 14.27617187 9 15 C8.34 15.66 7.68 16.32 7 17 C4.36 11.72 1.72 6.44 -1 1 C-0.67 0.67 -0.34 0.34 0 0 Z " fill="#2A4A87" transform="translate(446,411)"/>
<path d="M0 0 C3.95963389 1.27273947 5.37729554 3.68299713 7.25 7.1796875 C8.21958411 9.53294894 8.3045585 11.48739234 8 14 C5 13 5 13 3.8671875 11.07421875 C3.53976562 10.28660156 3.21234375 9.49898438 2.875 8.6875 C2.37613281 7.51767578 2.37613281 7.51767578 1.8671875 6.32421875 C1.08449614 4.22646488 0.48940602 2.18235134 0 0 Z " fill="#3E5D94" transform="translate(490,490)"/>
<path d="M0 0 C-0.66 0.66 -1.32 1.32 -2 2 C-2.99 2 -3.98 2 -5 2 C-5.268125 2.639375 -5.53625 3.27875 -5.8125 3.9375 C-7 6 -7 6 -10 7 C-12.1875 5.5625 -12.1875 5.5625 -14 4 C-12.42466914 3.13116294 -10.83935491 2.28040932 -9.25 1.4375 C-8.36828125 0.96183594 -7.4865625 0.48617187 -6.578125 -0.00390625 C-3.79298812 -1.07998186 -2.73019786 -1.06528748 0 0 Z " fill="#224686" transform="translate(364,817)"/>
<path d="M0 0 C2.03615401 3.05423101 2.84361311 5.53083932 4 9 C5.07016147 11.36310749 6.16795464 13.70938985 7.29296875 16.046875 C7.52628906 16.69140625 7.75960937 17.3359375 8 18 C7.67 18.66 7.34 19.32 7 20 C3.62926863 18.25651826 2.49186581 16.25882617 1.25 12.8125 C-0.08807351 8.40047383 -0.25014802 4.58604701 0 0 Z " fill="#4C6799" transform="translate(218,749)"/>
<path d="M0 0 C2.96655321 3.55854831 5.45858103 7.1982268 7.8125 11.1875 C8.43769531 12.23292969 9.06289063 13.27835937 9.70703125 14.35546875 C10.13371094 15.22816406 10.56039063 16.10085938 11 17 C10.67 17.66 10.34 18.32 10 19 C6.8602287 16.10594993 4.78787607 13.24639844 2.75 9.5 C2.22921875 8.5615625 1.7084375 7.623125 1.171875 6.65625 C0 4 0 4 0 0 Z " fill="#476193" transform="translate(325,493)"/>
<path d="M0 0 C7.08212915 -0.35150273 12.55690646 -0.10223022 19 3 C19.33 3.66 19.66 4.32 20 5 C3.42105263 3.42105263 3.42105263 3.42105263 0 0 Z " fill="#5970A1" transform="translate(260,732)"/>
<path d="M0 0 C1.59328125 0.47566406 1.59328125 0.47566406 3.21875 0.9609375 C8.92221448 2.38680362 14.64776054 2.45699313 20.5 2.625 C21.60859375 2.66367187 22.7171875 2.70234375 23.859375 2.7421875 C26.57275797 2.83575243 29.28614661 2.92149483 32 3 C32 3.33 32 3.66 32 4 C27.41687916 4.11605098 22.83413551 4.18720362 18.25 4.25 C16.94804687 4.28351562 15.64609375 4.31703125 14.3046875 4.3515625 C13.05429687 4.36445312 11.80390625 4.37734375 10.515625 4.390625 C9.36352539 4.41157227 8.21142578 4.43251953 7.02441406 4.45410156 C3.39975285 3.90987571 2.26181561 2.80542794 0 0 Z " fill="#4B6699" transform="translate(285,824)"/>
<path d="M0 0 C0.33 0 0.66 0 1 0 C1 2.97 1 5.94 1 9 C0.34 9 -0.32 9 -1 9 C-1.66 11.31 -2.32 13.62 -3 16 C-3.99 16 -4.98 16 -6 16 C-6 15.34 -6 14.68 -6 14 C-5.34 14 -4.68 14 -4 14 C-1.59009896 7.11175931 -1.59009896 7.11175931 0 0 Z M-7 17 C-6.34 17.33 -5.68 17.66 -5 18 C-5.33 18.99 -5.66 19.98 -6 21 C-6.66 21 -7.32 21 -8 21 C-7.67 19.68 -7.34 18.36 -7 17 Z " fill="#1E4185" transform="translate(534,564)"/>
<path d="M0 0 C-1.25358555 3.76075665 -2.70673887 4.47649131 -5.9375 6.6875 C-6.83339844 7.31011719 -7.72929687 7.93273437 -8.65234375 8.57421875 C-11 10 -11 10 -13 10 C-12.67 8.68 -12.34 7.36 -12 6 C-10.68 6 -9.36 6 -8 6 C-7.7525 5.195625 -7.505 4.39125 -7.25 3.5625 C-6 1 -6 1 -4 0.1875 C-2 0 -2 0 0 0 Z " fill="#324F8B" transform="translate(392,709)"/>
<path d="M0 0 C0.33 0 0.66 0 1 0 C1 7.45266655 -3.23252955 11.60265874 -8 17 C-8.66 16.34 -9.32 15.68 -10 15 C-9.34 15 -8.68 15 -8 15 C-7.87625 14.401875 -7.7525 13.80375 -7.625 13.1875 C-7 11 -7 11 -5 8 C-4.34 8 -3.68 8 -3 8 C-3 7.34 -3 6.68 -3 6 C-2.34 6 -1.68 6 -1 6 C-0.67 4.02 -0.34 2.04 0 0 Z " fill="#314D89" transform="translate(405,689)"/>
<path d="M0 0 C6.26418531 1.48362284 10.91513505 5.24162156 16 9 C15.01 9.33 14.02 9.66 13 10 C11.65599167 9.01439389 10.32392972 8.01241685 9 7 C6.35065178 6.28566879 6.35065178 6.28566879 4 6 C4 5.34 4 4.68 4 4 C2.68 3.34 1.36 2.68 0 2 C0 1.34 0 0.68 0 0 Z " fill="#2E4B81" transform="translate(141,210)"/>
<path d="M0 0 C1.22419163 3.93795909 0.48320272 6.16112237 -1 10 C-1.66 10 -2.32 10 -3 10 C-3 10.66 -3 11.32 -3 12 C-3.66 12 -4.32 12 -5 12 C-5 13.32 -5 14.64 -5 16 C-5.66 16 -6.32 16 -7 16 C-5.60668753 10.04675579 -3.11464243 5.24258516 0 0 Z " fill="#496496" transform="translate(475,676)"/>
<path d="M0 0 C1 2 1 2 0.3984375 4.34765625 C-0.10816406 5.69150391 -0.10816406 5.69150391 -0.625 7.0625 C-0.94726562 7.96097656 -1.26953125 8.85945312 -1.6015625 9.78515625 C-3 12 -3 12 -5.6484375 12.80859375 C-6.42445313 12.87175781 -7.20046875 12.93492187 -8 13 C-6.40956621 7.91061189 -3.2553049 4.12543357 0 0 Z " fill="#446195" transform="translate(712,229)"/>
<path d="M0 0 C12.07116272 0.61307131 12.07116272 0.61307131 16 4 C16 4.66 16 5.32 16 6 C10.30860098 4.90301833 5.25432063 3.45946923 0 1 C0 0.67 0 0.34 0 0 Z " fill="#4E6999" transform="translate(236,724)"/>
<path d="M0 0 C0.33 1.32 0.66 2.64 1 4 C0.01 4.33 -0.98 4.66 -2 5 C-2.0825 5.78375 -2.165 6.5675 -2.25 7.375 C-3 10 -3 10 -5.0625 11.3125 C-5.701875 11.539375 -6.34125 11.76625 -7 12 C-7 12.66 -7 13.32 -7 14 C-7.66 14 -8.32 14 -9 14 C-7.45158425 10.65291949 -5.50894136 7.75332488 -3.375 4.75 C-2.74335938 3.85796875 -2.11171875 2.9659375 -1.4609375 2.046875 C-0.73777344 1.03367187 -0.73777344 1.03367187 0 0 Z " fill="#476093" transform="translate(434,747)"/>
<path d="M0 0 C4.33034194 3.84919283 6.6560756 7.72289646 9 13 C8.01 13.495 8.01 13.495 7 14 C2.66768274 9.43966604 1.17200539 6.1796648 0 0 Z " fill="#3F5A8F" transform="translate(177,240)"/>
<path d="M0 0 C2 3.75 2 3.75 2 6 C1.34 6 0.68 6 0 6 C0.309375 6.7734375 0.309375 6.7734375 0.625 7.5625 C1.15887026 11.03265671 0.07676761 13.70635791 -1 17 C-1.66 17 -2.32 17 -3 17 C-2.48517081 11.147205 -1.54642808 5.6702363 0 0 Z " fill="#D1E0ED" transform="translate(110,176)"/>
<path d="M0 0 C0.33 0 0.66 0 1 0 C1.45164525 7.11341265 0.32797915 11.71546794 -3 18 C-4.63129887 13.93714243 -3.29968777 10.79897816 -2.0625 6.75 C-1.68222656 5.48671875 -1.30195312 4.2234375 -0.91015625 2.921875 C-0.60980469 1.95765625 -0.30945313 0.9934375 0 0 Z " fill="#486594" transform="translate(779,178)"/>
<path d="M0 0 C2.48982535 2.27745789 4.10368997 4.62335238 5.75 7.5625 C6.19859375 8.34753906 6.6471875 9.13257813 7.109375 9.94140625 C7.40328125 10.62074219 7.6971875 11.30007813 8 12 C7.67 12.66 7.34 13.32 7 14 C3.62142333 10.88815307 1.26014726 8.46779482 0 4 C0 2.68 0 1.36 0 0 Z " fill="#415F92" transform="translate(287,427)"/>
<path d="M0 0 C5.94 1.485 5.94 1.485 12 3 C11.67 3.99 11.34 4.98 11 6 C9.35 5.67 7.7 5.34 6 5 C6 4.34 6 3.68 6 3 C4.02 3 2.04 3 0 3 C0 2.01 0 1.02 0 0 Z " fill="#304F8A" transform="translate(611,209)"/>
<path d="M0 0 C0.66 0 1.32 0 2 0 C2 1.65 2 3.3 2 5 C7.61 5 13.22 5 19 5 C19 5.33 19 5.66 19 6 C17.95199219 6.06058594 16.90398438 6.12117187 15.82421875 6.18359375 C14.44529952 6.26801738 13.06639395 6.35266447 11.6875 6.4375 C10.65206055 6.49647461 10.65206055 6.49647461 9.59570312 6.55664062 C6.52838465 6.74927415 3.93031848 7.02322717 1 8 C0 2.25 0 2.25 0 0 Z " fill="#3E5D93" transform="translate(565,197)"/>
<path d="M0 0 C2 3 2 3 1.8125 5.125 C1.544375 5.74375 1.27625 6.3625 1 7 C0.01 7.33 -0.98 7.66 -2 8 C-2.33 9.98 -2.66 11.96 -3 14 C-3.99 13.67 -4.98 13.34 -6 13 C-4.58707905 8.1725201 -2.57025846 4.2837641 0 0 Z " fill="#466399" transform="translate(493,642)"/>
<path d="M0 0 C2.48982535 2.27745789 4.10368997 4.62335238 5.75 7.5625 C6.19859375 8.34753906 6.6471875 9.13257813 7.109375 9.94140625 C7.40328125 10.62074219 7.6971875 11.30007813 8 12 C7.67 12.66 7.34 13.32 7 14 C2.32614565 9.4819408 0.73732672 6.5130527 0 0 Z " fill="#4A6694" transform="translate(247,357)"/>
<path d="M0 0 C2.67550292 2.67550292 2.83209389 4.94879894 3.625 8.625 C3.88539063 9.81351563 4.14578125 11.00203125 4.4140625 12.2265625 C4.70410156 13.59941406 4.70410156 13.59941406 5 15 C4.01 14.67 3.02 14.34 2 14 C1.015625 11.85546875 1.015625 11.85546875 0.25 9.1875 C-0.01296875 8.31480469 -0.2759375 7.44210937 -0.546875 6.54296875 C-1.00968292 3.94565881 -0.85082224 2.46623472 0 0 Z " fill="#204684" transform="translate(403,633)"/>
<path d="M0 0 C4.42679007 1.47559669 4.91432696 3.90057368 7 8 C7 8.66 7 9.32 7 10 C6.01 9.67 5.02 9.34 4 9 C4 8.34 4 7.68 4 7 C2.68 6.67 1.36 6.34 0 6 C0 4.02 0 2.04 0 0 Z " fill="#305087" transform="translate(207,290)"/>
<path d="M0 0 C4.99911924 0.47610659 7.97832683 2.03162219 12 5 C11.34 5.66 10.68 6.32 10 7 C9.01 7 8.02 7 7 7 C7 6.01 7 5.02 7 4 C5.68 4 4.36 4 3 4 C1.25 2 1.25 2 0 0 Z " fill="#294885" transform="translate(624,215)"/>
<path d="M0 0 C0.33 0 0.66 0 1 0 C1.21192221 5.19209404 0.5912689 9.126739 -1 14 C-1.66 13.67 -2.32 13.34 -3 13 C-2.88490339 11.58249437 -2.75746342 10.16598831 -2.625 8.75 C-2.55539063 7.96109375 -2.48578125 7.1721875 -2.4140625 6.359375 C-1.98492887 3.914123 -1.21399362 2.15163097 0 0 Z " fill="#2A4B84" transform="translate(108,177)"/>
<path d="M0 0 C0.99 0.33 1.98 0.66 3 1 C3.33 2.65 3.66 4.3 4 6 C4.99 6 5.98 6 7 6 C7.33 8.64 7.66 11.28 8 14 C0 4.57142857 0 4.57142857 0 0 Z " fill="#2D4E85" transform="translate(437,398)"/>
<path d="M0 0 C2.74277578 3.19990508 4.6302836 6.00499382 6 10 C3.13275314 9.42655063 2.1385485 9.1385485 0 7 C-0.125 3.375 -0.125 3.375 0 0 Z " fill="#D0DFEB" transform="translate(386,311)"/>
<path d="M0 0 C4.92127034 -0.16682272 8.50343896 -0.24828052 13 2 C13 2.66 13 3.32 13 4 C14.65 4 16.3 4 18 4 C17.67 4.66 17.34 5.32 17 6 C16.443125 5.80664062 15.88625 5.61328125 15.3125 5.4140625 C10.24882873 3.68625575 5.20677935 2.2306933 0 1 C0 0.67 0 0.34 0 0 Z " fill="#C8D9EC" transform="translate(126,204)"/>
<path d="M0 0 C-0.33 0.66 -0.66 1.32 -1 2 C-8.425 1.01 -8.425 1.01 -16 0 C-16 -0.33 -16 -0.66 -16 -1 C-10.68018231 -2.19695898 -5.01039359 -2.5051968 0 0 Z " fill="#264682" transform="translate(128,205)"/>
<path d="M0 0 C1.98 0.99 1.98 0.99 4 2 C4 2.99 4 3.98 4 5 C4.66 5 5.32 5 6 5 C6.33 7.31 6.66 9.62 7 12 C0 3.55172414 0 3.55172414 0 0 Z " fill="#294782" transform="translate(397,328)"/>
<path d="M0 0 C0.99 0.33 1.98 0.66 3 1 C3.6875 3.0625 3.6875 3.0625 4 5 C4.66 5 5.32 5 6 5 C6.33 4.01 6.66 3.02 7 2 C7 4.31 7 6.62 7 9 C6.01 9 5.02 9 4 9 C0 2.25 0 2.25 0 0 Z " fill="#2F4D89" transform="translate(376,292)"/>
<path d="M0 0 C2.91488977 2.6234008 4.88503898 5.71816394 7 9 C6.67 9.66 6.34 10.32 6 11 C5.01 10.67 4.02 10.34 3 10 C2.67 9.01 2.34 8.02 2 7 C1.34 6.67 0.68 6.34 0 6 C0 4.02 0 2.04 0 0 Z " fill="#3A568A" transform="translate(194,266)"/>
<path d="M0 0 C0.33 0.99 0.66 1.98 1 3 C-1.11925604 5.11925604 -5.6196093 4.41831017 -8.5625 4.5625 C-9.36880859 4.60568359 -10.17511719 4.64886719 -11.00585938 4.69335938 C-13.00368805 4.79975262 -15.0018207 4.90040888 -17 5 C-15.94921875 3.51171875 -15.94921875 3.51171875 -14 2 C-10.64453125 1.70703125 -10.64453125 1.70703125 -6.8125 1.8125 C-4.90404297 1.85310547 -4.90404297 1.85310547 -2.95703125 1.89453125 C-1.49330078 1.94673828 -1.49330078 1.94673828 0 2 C0 1.34 0 0.68 0 0 Z " fill="#D1E1F4" transform="translate(773,198)"/>
<path d="M0 0 C0.66 0 1.32 0 2 0 C0.58707905 4.8274799 -1.42974154 8.7162359 -4 13 C-4.93423645 9.98968256 -5.04449911 9.13349732 -4 6 C-3.34 6 -2.68 6 -2 6 C-2 5.01 -2 4.02 -2 3 C-1.34 3 -0.68 3 0 3 C0 2.01 0 1.02 0 0 Z " fill="#DEEBF7" transform="translate(478,666)"/>
<path d="M0 0 C1.32 0 2.64 0 4 0 C2.52307692 4.67692308 2.52307692 4.67692308 -0.125 6.3125 C-1.053125 6.6528125 -1.053125 6.6528125 -2 7 C-1.125 1.125 -1.125 1.125 0 0 Z " fill="#294A8B" transform="translate(519,594)"/>
<path d="M0 0 C5.0022542 4.08078632 6.07934219 7.69280693 7 14 C6.34 13.67 5.68 13.34 5 13 C4.690625 11.845 4.38125 10.69 4.0625 9.5 C3.711875 8.345 3.36125 7.19 3 6 C2.01 5.67 1.02 5.34 0 5 C0 3.35 0 1.7 0 0 Z " fill="#516D9B" transform="translate(645,229)"/>
<path d="M0 0 C1 2 1 2 0.328125 4.12890625 C-0.02765625 4.93199219 -0.3834375 5.73507812 -0.75 6.5625 C-1.09546875 7.36816406 -1.4409375 8.17382812 -1.796875 9.00390625 C-3 11 -3 11 -6 12 C-4.68139111 7.38486888 -2.78644563 3.90102388 0 0 Z " fill="#435F91" transform="translate(454,715)"/>
<path d="M0 0 C-1.24176695 0.70226141 -2.49385599 1.38629109 -3.75 2.0625 C-4.79414063 2.63677734 -4.79414063 2.63677734 -5.859375 3.22265625 C-8.36140628 4.1312406 -9.5332355 3.88336837 -12 3 C-10 0 -10 0 -8.125 -0.546875 C-7.42375 -0.61390625 -6.7225 -0.6809375 -6 -0.75 C-5.29875 -0.82734375 -4.5975 -0.9046875 -3.875 -0.984375 C-2 -1 -2 -1 0 0 Z " fill="#607AA7" transform="translate(375,723)"/>
<path d="M0 0 C3.09592835 3.5087188 4.74194623 6.49197399 6 11 C4.125 10.875 4.125 10.875 2 10 C0.40155515 6.40349908 0 3.96602757 0 0 Z " fill="#405D92" transform="translate(383,594)"/>
<path d="M0 0 C2.91227269 3.28804981 4.49701212 5.59885603 5 10 C5.66 10 6.32 10 7 10 C6.67 10.99 6.34 11.98 6 13 C2.6497537 9.18765077 0.83025211 5.66714289 -1 1 C-0.67 0.67 -0.34 0.34 0 0 Z " fill="#2B4883" transform="translate(423,371)"/>
<path d="M0 0 C1 3 1 3 0.4375 5.4375 C-1.42982842 8.76621588 -3.74901525 10.0918133 -7 12 C-5.61735163 9.13132769 -4.07851447 6.43975968 -2.375 3.75 C-1.92898438 3.04359375 -1.48296875 2.3371875 -1.0234375 1.609375 C-0.68570312 1.07828125 -0.34796875 0.5471875 0 0 Z " fill="#C8D7E9" transform="translate(407,691)"/>
<path d="M0 0 C0.99 0.495 0.99 0.495 2 1 C2.625 4.0625 2.625 4.0625 3 7 C3.66 7 4.32 7 5 7 C6.6875 9.375 6.6875 9.375 8 12 C7.67 12.66 7.34 13.32 7 14 C5.5 12.6875 5.5 12.6875 4 11 C4 10.01 4 9.02 4 8 C3.01 7.67 2.02 7.34 1 7 C0.67 4.69 0.34 2.38 0 0 Z " fill="#486496" transform="translate(317,479)"/>
<path d="M0 0 C2 1 2 1 2.6875 2.9375 C3 5 3 5 2 7 C2.66 7 3.32 7 4 7 C4 7.66 4 8.32 4 9 C2.125 8.375 2.125 8.375 0 7 C-1.25 3.875 -1.25 3.875 -2 1 C-1.34 0.67 -0.68 0.34 0 0 Z " fill="#1F4383" transform="translate(466,443)"/>
<path d="M0 0 C2.63978826 3.18595135 5.10498388 6.30970546 7 10 C6.67 10.66 6.34 11.32 6 12 C5.01 12 4.02 12 3 12 C3 10.02 3 8.04 3 6 C2.34 6 1.68 6 1 6 C0.67 4.02 0.34 2.04 0 0 Z " fill="#4D6A99" transform="translate(274,404)"/>
<path d="M0 0 C0.66 0.33 1.32 0.66 2 1 C2.33 1.99 2.66 2.98 3 4 C-0.375 4.625 -0.375 4.625 -4 5 C-4.66 4.34 -5.32 3.68 -6 3 C-4.03533587 1.93224776 -2.03144641 0.93446535 0 0 Z " fill="#355690" transform="translate(740,208)"/>
<path d="M0 0 C0.66 0.33 1.32 0.66 2 1 C0.76446724 2.20254524 -0.48902339 3.38666232 -1.75 4.5625 C-2.79414063 5.55443359 -2.79414063 5.55443359 -3.859375 6.56640625 C-4.56578125 7.03949219 -5.2721875 7.51257813 -6 8 C-7.32 7.67 -8.64 7.34 -10 7 C-6.7 4.69 -3.4 2.38 0 0 Z " fill="#CCD9ED" transform="translate(389,712)"/>
<path d="M0 0 C3 1 3 1 4.8125 3.3125 C5.204375 4.199375 5.59625 5.08625 6 6 C5.07421875 8.16796875 5.07421875 8.16796875 4 10 C3.32845067 8.71086513 2.66291141 7.41859796 2 6.125 C1.62875 5.40570313 1.2575 4.68640625 0.875 3.9453125 C0 2 0 2 0 0 Z " fill="#3D5A91" transform="translate(303,457)"/>
<path d="M0 0 C4.76058041 5.52841596 4.76058041 5.52841596 5 9 C4.34 9.66 3.68 10.32 3 11 C3 9.68 3 8.36 3 7 C2.01 7 1.02 7 0 7 C0 4.69 0 2.38 0 0 Z " fill="#37548D" transform="translate(233,333)"/>
<path d="M0 0 C0.99 0.66 1.98 1.32 3 2 C-0.63 3.98 -4.26 5.96 -8 8 C-8 7.01 -8 6.02 -8 5 C-5.0936485 2.19744677 -4.21174952 2 0 2 C0 1.34 0 0.68 0 0 Z " fill="#DBE8F4" transform="translate(376,804)"/>
<path d="M0 0 C0.33 0 0.66 0 1 0 C1 1.65 1 3.3 1 5 C-0.65 5.66 -2.3 6.32 -4 7 C-4 7.66 -4 8.32 -4 9 C-4.66 8.67 -5.32 8.34 -6 8 C-5.02471263 6.66382648 -4.04466681 5.3311249 -3.0625 4 C-2.24458984 2.88625 -2.24458984 2.88625 -1.41015625 1.75 C-0.94480469 1.1725 -0.47945313 0.595 0 0 Z " fill="#415C8E" transform="translate(424,761)"/>
<path d="M0 0 C0.66 0 1.32 0 2 0 C2.33 4.29 2.66 8.58 3 13 C2.01 12.34 1.02 11.68 0 11 C-0.29296875 8.3984375 -0.29296875 8.3984375 -0.1875 5.375 C-0.16042969 4.37210938 -0.13335937 3.36921875 -0.10546875 2.3359375 C-0.07066406 1.56507813 -0.03585938 0.79421875 0 0 Z " fill="#2C4A84" transform="translate(215,739)"/>
<path d="M0 0 C0.33 0.99 0.66 1.98 1 3 C1.66 3 2.32 3 3 3 C4.6875 5.3125 4.6875 5.3125 6 8 C5.67 8.99 5.34 9.98 5 11 C2.25722422 7.80009492 0.3697164 4.99500618 -1 1 C-0.67 0.67 -0.34 0.34 0 0 Z " fill="#E6F1FA" transform="translate(278,407)"/>
<path d="M0 0 C4 0 4 0 7 2 C7.33 2.99 7.66 3.98 8 5 C8.66 5.33 9.32 5.66 10 6 C9.67 6.66 9.34 7.32 9 8 C7.49712782 6.85793642 5.99776716 5.71125043 4.5 4.5625 C3.6646875 3.92441406 2.829375 3.28632813 1.96875 2.62890625 C1.3190625 2.09136719 0.669375 1.55382812 0 1 C0 0.67 0 0.34 0 0 Z " fill="#C8D6E8" transform="translate(152,215)"/>
<path d="M0 0 C0.33 0 0.66 0 1 0 C1.05447047 1.41623216 1.09300508 2.83308191 1.125 4.25 C1.14820313 5.03890625 1.17140625 5.8278125 1.1953125 6.640625 C0.9828378 9.20731941 0.28654105 10.7916067 -1 13 C-1.66 12.67 -2.32 12.34 -3 12 C-2.01 8.04 -1.02 4.08 0 0 Z " fill="#415F90" transform="translate(394,190)"/>
<path d="M0 0 C0.66 0 1.32 0 2 0 C1.88512252 1.58409994 1.75765492 3.16728963 1.625 4.75 C1.52058594 6.07257813 1.52058594 6.07257813 1.4140625 7.421875 C1.00149945 9.99066382 0.28839043 11.75841015 -1 14 C-1.18451025 4.58997722 -1.18451025 4.58997722 0 0 Z " fill="#34518A" transform="translate(570,176)"/>
<path d="M0 0 C1.65 0.33 3.3 0.66 5 1 C5 1.66 5 2.32 5 3 C2.36 3.66 -0.28 4.32 -3 5 C-2.01 3.35 -1.02 1.7 0 0 Z " fill="#C7D7EA" transform="translate(231,722)"/>
<path d="M0 0 C2.61500768 2.36595933 4.38999603 4.86049226 6 8 C5.67 8.66 5.34 9.32 5 10 C0.07692308 5.69230769 0.07692308 5.69230769 -0.3125 2.1875 C-0.209375 1.465625 -0.10625 0.74375 0 0 Z " fill="#405B92" transform="translate(389,605)"/>
<path d="M0 0 C0.66 0.99 1.32 1.98 2 3 C1.01 3.495 1.01 3.495 0 4 C-0.309375 4.99 -0.61875 5.98 -0.9375 7 C-1.288125 7.99 -1.63875 8.98 -2 10 C-2.99 10.33 -3.98 10.66 -5 11 C-3.55049545 7.2089881 -1.84827434 3.6125362 0 0 Z " fill="#4F6B9C" transform="translate(527,578)"/>
<path d="M0 0 C1.32 0.33 2.64 0.66 4 1 C4 1.66 4 2.32 4 3 C4.66 3.33 5.32 3.66 6 4 C5.01 4.99 4.02 5.98 3 7 C0 2.25 0 2.25 0 0 Z " fill="#E1EEF6" transform="translate(240,343)"/>
<path d="M0 0 C0.99 1.98 1.98 3.96 3 6 C0.625 5.75 0.625 5.75 -2 5 C-3.3125 2.9375 -3.3125 2.9375 -4 1 C-2 0 -2 0 0 0 Z " fill="#274C87" transform="translate(187,253)"/>
<path d="M0 0 C0 3.15081975 -0.27898465 4.41847698 -2 7 C-4.125 7.75 -4.125 7.75 -6 8 C-4.55746343 4.63408134 -2.66735273 2.48952921 0 0 Z " fill="#314F88" transform="translate(719,222)"/>
<path d="M0 0 C1.32 0.66 2.64 1.32 4 2 C2.71186658 2.83878455 1.41936744 3.67086783 0.125 4.5 C-0.59429688 4.9640625 -1.31359375 5.428125 -2.0546875 5.90625 C-4 7 -4 7 -6 7 C-5.67 6.01 -5.34 5.02 -5 4 C-3.35 3.67 -1.7 3.34 0 3 C0 2.01 0 1.02 0 0 Z " fill="#DDE8F6" transform="translate(733,208)"/>
<path d="M0 0 C0.66 0 1.32 0 2 0 C2.20086443 3.71599191 2.1519437 4.77208445 0 8 C-0.99 8 -1.98 8 -3 8 C-3 7.34 -3 6.68 -3 6 C-2.34 6 -1.68 6 -1 6 C-1.0309375 4.7934375 -1.0309375 4.7934375 -1.0625 3.5625 C-1 1 -1 1 0 0 Z " fill="#E8F2F9" transform="translate(773,192)"/>
<path d="M0 0 C2 2 2 2 2.375 4.4375 C2 7 2 7 0 8.8125 C-0.66 9.204375 -1.32 9.59625 -2 10 C-1.125 2.25 -1.125 2.25 0 0 Z " fill="#3F5D8F" transform="translate(397,180)"/>
<path d="M0 0 C0.99 0.33 1.98 0.66 3 1 C0.03 4.96 0.03 4.96 -3 9 C-3.33 8.01 -3.66 7.02 -4 6 C-3.34 6 -2.68 6 -2 6 C-2 4.68 -2 3.36 -2 2 C-1.34 2 -0.68 2 0 2 C0 1.34 0 0.68 0 0 Z " fill="#DFEBF9" transform="translate(426,754)"/>
<path d="M0 0 C5.75 0.875 5.75 0.875 8 2 C8 2.66 8 3.32 8 4 C5.69 3.67 3.38 3.34 1 3 C0.67 2.01 0.34 1.02 0 0 Z " fill="#35548E" transform="translate(252,728)"/>
<path d="M0 0 C4.42857143 5.14285714 4.42857143 5.14285714 5 9 C3.0625 8.4375 3.0625 8.4375 1 7 C0.25 3.375 0.25 3.375 0 0 Z " fill="#415C8F" transform="translate(372,575)"/>
<path d="M0 0 C0.33 1.32 0.66 2.64 1 4 C1.66 4 2.32 4 3 4 C3.99 5.98 4.98 7.96 6 10 C5.01 10.495 5.01 10.495 4 11 C3.896875 10.360625 3.79375 9.72125 3.6875 9.0625 C3.460625 8.381875 3.23375 7.70125 3 7 C2.01 6.67 1.02 6.34 0 6 C-0.38218767 4.34385343 -0.71395102 2.67542976 -1 1 C-0.67 0.67 -0.34 0.34 0 0 Z " fill="#3E5C90" transform="translate(459,434)"/>
<path d="M0 0 C4.42857143 5.14285714 4.42857143 5.14285714 5 9 C3.68 8.34 2.36 7.68 1 7 C1 6.01 1 5.02 1 4 C0.34 3.67 -0.32 3.34 -1 3 C-0.67 2.01 -0.34 1.02 0 0 Z " fill="#C7D4E8" transform="translate(424,377)"/>
<path d="M0 0 C1.8125 0.0625 1.8125 0.0625 4 1 C5.8125 4.375 5.8125 4.375 7 8 C6.67 8.99 6.34 9.98 6 11 C2 4.25 2 4.25 2 2 C1.34 2 0.68 2 0 2 C0 1.34 0 0.68 0 0 Z " fill="#405B8D" transform="translate(404,342)"/>
<path d="M0 0 C2.54845496 2.45539341 4.3743846 4.83004997 6 8 C5.67 8.66 5.34 9.32 5 10 C4.01 9.67 3.02 9.34 2 9 C1.26953125 6.93359375 1.26953125 6.93359375 0.8125 4.4375 C0.65394531 3.61121094 0.49539063 2.78492188 0.33203125 1.93359375 C0.16767578 0.97646484 0.16767578 0.97646484 0 0 Z " fill="#C1D1E5" transform="translate(367,278)"/>
<path d="M0 0 C1.98 1.65 3.96 3.3 6 5 C4.02 5.99 4.02 5.99 2 7 C0 5 0 5 -0.125 2.375 C-0.08375 1.59125 -0.0425 0.8075 0 0 Z " fill="#3D5993" transform="translate(246,798)"/>
<path d="M0 0 C0.66 0 1.32 0 2 0 C0.66511872 3.59391114 -0.96022723 6.75490696 -3 10 C-3.625 8.1875 -3.625 8.1875 -4 6 C-3.34 5.01 -2.68 4.02 -2 3 C-1.34 3 -0.68 3 0 3 C0 2.01 0 1.02 0 0 Z " fill="#D8E4F4" transform="translate(454,711)"/>
<path d="M0 0 C0.66 0 1.32 0 2 0 C0.55049545 3.7910119 -1.15172566 7.3874638 -3 11 C-3.33 9.68 -3.66 8.36 -4 7 C-3.34 7 -2.68 7 -2 7 C-1.855625 6.21625 -1.71125 5.4325 -1.5625 4.625 C-1 2 -1 2 0 0 Z " fill="#DCEAF7" transform="translate(526,576)"/>
<path d="M0 0 C4.42857143 5.14285714 4.42857143 5.14285714 5 9 C3.68 8.67 2.36 8.34 1 8 C0.67 5.36 0.34 2.72 0 0 Z " fill="#4E6796" transform="translate(363,559)"/>
<path d="M0 0 C0.66 0.33 1.32 0.66 2 1 C2 2.32 2 3.64 2 5 C2.66 5 3.32 5 4 5 C4 6.65 4 8.3 4 10 C-0.60921053 4.64736842 -0.60921053 4.64736842 -1 1 C-0.67 0.67 -0.34 0.34 0 0 Z " fill="#304E87" transform="translate(499,503)"/>
<path d="M0 0 C-3.68734758 2.45823172 -6.69699971 3.01242616 -11 4 C-10.67 3.34 -10.34 2.68 -10 2 C-9.01 2 -8.02 2 -7 2 C-7 1.34 -7 0.68 -7 0 C-4.3333581 -1.33332095 -2.83319697 -0.67102033 0 0 Z " fill="#C6D4E8" transform="translate(349,820)"/>
<path d="M0 0 C0.33 0.99 0.66 1.98 1 3 C-0.375 4.5 -0.375 4.5 -2 6 C-2.66 6 -3.32 6 -4 6 C-4 6.66 -4 7.32 -4 8 C-4.66 7.67 -5.32 7.34 -6 7 C-4.02 4.69 -2.04 2.38 0 0 Z " fill="#435E93" transform="translate(417,770)"/>
<path d="M0 0 C0.66 0.99 1.32 1.98 2 3 C1.25 4.9375 1.25 4.9375 0 7 C-2.125 7.75 -2.125 7.75 -4 8 C-2.87548273 5.0280615 -1.77706209 2.66559313 0 0 Z " fill="#446094" transform="translate(439,739)"/>
<path d="M0 0 C1.98 0.66 3.96 1.32 6 2 C6.33 3.65 6.66 5.3 7 7 C5.83040013 6.02433888 4.66438823 5.044375 3.5 4.0625 C2.8503125 3.51722656 2.200625 2.97195312 1.53125 2.41015625 C1.0259375 1.94480469 0.520625 1.47945312 0 1 C0 0.67 0 0.34 0 0 Z " fill="#CEDEED" transform="translate(162,223)"/>
<path d="M0 0 C0.33 0.66 0.66 1.32 1 2 C1.66 2.33 2.32 2.66 3 3 C2.01 3 1.02 3 0 3 C0 3.66 0 4.32 0 5 C-1.65 5.33 -3.3 5.66 -5 6 C-5 5.34 -5 4.68 -5 4 C-4.01 4 -3.02 4 -2 4 C-1.34 2.68 -0.68 1.36 0 0 Z " fill="#D2DEED" transform="translate(360,812)"/>
<path d="M0 0 C2.32472205 2.85306797 3.7508258 5.54074837 5 9 C2.525 8.01 2.525 8.01 0 7 C0 4.69 0 2.38 0 0 Z " fill="#CAD7EB" transform="translate(373,288)"/>
<path d="M0 0 C0.99 0.33 1.98 0.66 3 1 C0.36 2.98 -2.28 4.96 -5 7 C-4.67 5.68 -4.34 4.36 -4 3 C-2.68 2.67 -1.36 2.34 0 2 C0 1.34 0 0.68 0 0 Z " fill="#DBE8F6" transform="translate(724,215)"/>
<path d="M0 0 C0.66 0.33 1.32 0.66 2 1 C1.01 3.97 0.02 6.94 -1 10 C-1.33 10 -1.66 10 -2 10 C-1.85950482 8.52031676 -1.71245174 7.04125484 -1.5625 5.5625 C-1.48128906 4.73878906 -1.40007813 3.91507813 -1.31640625 3.06640625 C-1 1 -1 1 0 0 Z " fill="#204181" transform="translate(777,192)"/>
<path d="M0 0 C0.33 0.99 0.66 1.98 1 3 C-0.98 4.32 -2.96 5.64 -5 7 C-3.75023244 3.34683329 -3.32901247 2.21934164 0 0 Z " fill="#4A6696" transform="translate(445,732)"/>
<path d="M0 0 C1.0326802 2.78823655 1.04509293 3.8677274 0.0625 6.75 C-0.288125 7.4925 -0.63875 8.235 -1 9 C-1.66 8.67 -2.32 8.34 -3 8 C-1.125 2.25 -1.125 2.25 0 0 Z " fill="#436196" transform="translate(458,707)"/>
<path d="M0 0 C2.0625 2.25 2.0625 2.25 4 5 C3.75 7.3125 3.75 7.3125 3 9 C0.70620251 5.55930376 0 4.27709699 0 0 Z " fill="#3D598C" transform="translate(325,493)"/>
<path d="M0 0 C3.03869411 1.51934706 3.64410306 3.98004772 5 7 C5 7.66 5 8.32 5 9 C4.34 9 3.68 9 3 9 C3 8.34 3 7.68 3 7 C2.34 7 1.68 7 1 7 C0.67 4.69 0.34 2.38 0 0 Z " fill="#516798" transform="translate(255,371)"/>
<path d="M0 0 C3 1 3 1 4.6875 4.0625 C5.120625 5.031875 5.55375 6.00125 6 7 C5.34 7.66 4.68 8.32 4 9 C0 2.25 0 2.25 0 0 Z " fill="#2D4C82" transform="translate(417,363)"/>
<path d="M0 0 C2.72426311 2.35277269 3.8141763 4.62496331 5 8 C3.0625 7.375 3.0625 7.375 1 6 C0.25 2.875 0.25 2.875 0 0 Z " fill="#46618F" transform="translate(242,349)"/>
<path d="M0 0 C0.66 0 1.32 0 2 0 C1.71125 0.556875 1.4225 1.11375 1.125 1.6875 C-0.0413253 4.08494645 -1.0339881 6.51596939 -2 9 C-2.33 9 -2.66 9 -3 9 C-3 7.02 -3 5.04 -3 3 C-2.01 2.67 -1.02 2.34 0 2 C0 1.34 0 0.68 0 0 Z " fill="#D5E4F2" transform="translate(351,216)"/>
<path d="M0 0 C0 0.33 0 0.66 0 1 C-1.1446875 1.2165625 -1.1446875 1.2165625 -2.3125 1.4375 C-5.08172908 1.9632594 -5.08172908 1.9632594 -8 3 C-10.1875 2.0625 -10.1875 2.0625 -12 1 C-8.0186217 -0.3271261 -4.14954773 -0.06915913 0 0 Z " fill="#4F6C9A" transform="translate(768,202)"/>
<path d="M0 0 C0.33 0 0.66 0 1 0 C1.33 1.98 1.66 3.96 2 6 C0.35 6.33 -1.3 6.66 -3 7 C-2.34 6.67 -1.68 6.34 -1 6 C-0.34227572 2.97065509 -0.34227572 2.97065509 0 0 Z M2 2 C2.99 2.495 2.99 2.495 4 3 C3.34 3.66 2.68 4.32 2 5 C2 4.01 2 3.02 2 2 Z " fill="#2D5090" transform="translate(774,197)"/>
</svg>
