<svg id="svg" version="1.1" xmlns="http://www.w3.org/2000/svg" xmlns:xlink="http://www.w3.org/1999/xlink" width="400" height="406.30914826498423" viewBox="0, 0, 400,406.30914826498423"><g id="svgg"><path id="path0" d="M0.000 76.341 L 0.000 152.681 3.155 152.681 L 6.309 152.681 6.309 157.981 L 6.309 163.281 12.492 163.281 L 18.675 163.281 18.675 157.981 L 18.675 152.681 21.956 152.681 L 25.237 152.681 25.237 166.435 L 25.237 180.189 21.956 180.189 L 18.675 180.189 18.675 174.511 L 18.675 168.833 12.492 168.833 L 6.309 168.833 6.309 174.511 L 6.309 180.189 3.155 180.189 L 0.000 180.189 0.000 185.868 L 0.000 191.546 3.155 191.546 L 6.309 191.546 6.309 205.300 L 6.309 219.054 3.155 219.054 L 0.000 219.054 0.000 224.732 L 0.000 230.410 3.155 230.410 L 6.309 230.410 6.309 235.836 L 6.309 241.262 12.492 241.262 L 18.675 241.262 18.675 235.836 L 18.675 230.410 21.956 230.410 L 25.237 230.410 25.237 244.164 L 25.237 257.918 21.956 257.918 L 18.675 257.918 18.675 252.366 L 18.675 246.814 12.492 246.814 L 6.309 246.814 6.309 252.366 L 6.309 257.918 3.155 257.918 L 0.000 257.918 0.000 332.114 L 0.000 406.309 96.278 406.309 L 192.555 406.309 192.555 405.591 L 192.555 404.872 195.394 404.708 C 196.956 404.618,199.000 404.544,199.937 404.544 L 201.640 404.543 201.640 401.893 L 201.640 399.243 197.476 399.243 L 193.312 399.243 193.312 398.517 C 193.312 397.581,193.811 397.476,198.265 397.476 L 201.640 397.476 201.639 396.404 C 201.638 395.814,201.564 394.565,201.476 393.628 L 201.315 391.924 196.557 391.924 L 191.798 391.924 191.798 391.041 L 191.798 390.158 197.603 390.158 L 203.407 390.158 203.408 393.123 C 203.408 394.754,203.483 398.388,203.574 401.199 L 203.739 406.309 301.870 406.309 L 400.000 406.309 400.000 307.143 L 400.000 207.977 398.801 208.340 C 395.729 209.271,386.867 212.165,386.759 212.274 C 386.692 212.340,389.587 213.455,393.193 214.751 L 399.748 217.107 399.748 218.081 C 399.748 218.616,399.719 219.052,399.685 219.049 C 399.650 219.047,396.044 217.758,391.672 216.186 L 383.722 213.326 383.646 212.301 L 383.569 211.276 389.198 209.473 C 397.565 206.792,396.926 207.032,396.341 206.792 C 396.063 206.678,393.167 205.601,389.905 204.398 L 383.975 202.210 383.898 201.186 L 383.821 200.161 387.557 198.988 C 389.612 198.343,393.252 197.194,395.647 196.434 L 400.000 195.053 400.000 97.527 L 400.000 0.000 301.136 0.018 C 213.663 0.033,202.411 0.078,203.481 0.407 C 207.740 1.716,208.481 8.276,204.593 10.253 C 204.149 10.479,203.746 10.698,203.698 10.740 C 203.650 10.782,204.341 11.875,205.235 13.169 C 206.129 14.462,206.941 15.662,207.041 15.836 C 207.174 16.068,206.928 16.151,206.110 16.151 L 204.998 16.151 203.318 13.628 L 201.638 11.104 198.989 11.104 L 196.341 11.104 196.341 12.077 C 196.341 12.611,196.268 13.747,196.179 14.600 L 196.016 16.151 195.131 16.151 L 194.245 16.151 194.386 8.076 L 194.527 -0.000 97.263 -0.000 L 0.000 0.000 0.000 76.341 M179.937 1.373 C 179.937 2.368,180.399 2.239,174.398 2.915 C 172.531 3.125,170.975 3.325,170.941 3.360 C 170.646 3.654,171.494 8.580,171.839 8.578 C 172.060 8.577,173.659 8.408,175.394 8.202 C 179.859 7.672,179.732 7.659,179.637 8.644 L 179.558 9.464 175.664 9.909 C 171.028 10.440,171.586 9.967,171.955 13.052 C 172.340 16.267,171.804 16.018,177.050 15.421 C 179.515 15.140,181.628 14.969,181.744 15.041 C 182.082 15.250,181.992 16.656,181.640 16.661 C 181.467 16.663,178.940 16.936,176.025 17.267 C 173.110 17.599,170.666 17.773,170.593 17.655 C 170.404 17.349,168.746 2.022,168.886 1.881 C 168.973 1.794,177.247 0.756,179.621 0.534 C 179.818 0.516,179.937 0.831,179.937 1.373 M196.341 5.443 L 196.341 9.338 199.189 9.338 C 203.612 9.338,205.348 8.138,205.100 5.251 C 204.881 2.705,203.544 1.900,199.180 1.688 L 196.341 1.549 196.341 5.443 M237.855 3.838 C 237.890 3.878,238.107 6.637,238.338 9.968 C 238.568 13.300,238.817 16.411,238.892 16.882 C 239.023 17.710,239.152 17.551,242.794 12.087 C 244.866 8.979,246.590 6.351,246.624 6.249 C 246.659 6.146,247.094 6.174,247.591 6.312 L 248.495 6.562 248.941 12.808 C 249.187 16.243,249.461 19.362,249.552 19.740 C 249.700 20.360,250.080 19.868,253.502 14.627 C 257.483 8.528,257.842 8.179,258.964 9.301 C 259.322 9.660,250.134 23.340,249.479 23.422 C 247.988 23.611,247.959 23.518,247.476 16.989 C 247.232 13.683,246.971 10.614,246.897 10.170 C 246.769 9.405,246.555 9.672,242.939 15.114 L 239.117 20.866 238.233 20.631 C 237.748 20.502,237.324 20.371,237.291 20.339 C 237.259 20.308,237.007 17.223,236.732 13.485 C 236.457 9.746,236.160 5.961,236.073 5.073 L 235.914 3.459 236.853 3.612 C 237.369 3.695,237.820 3.797,237.855 3.838 M155.323 12.249 C 156.405 16.487,157.234 20.011,157.165 20.080 C 157.096 20.149,156.687 20.306,156.255 20.430 C 155.361 20.686,155.562 21.113,154.305 16.282 C 153.925 14.822,153.546 13.628,153.463 13.628 C 153.156 13.628,144.551 15.869,144.443 15.978 C 144.381 16.039,144.721 17.638,145.198 19.530 C 145.675 21.422,145.992 23.012,145.903 23.064 C 144.864 23.670,144.123 23.479,143.875 22.541 C 142.124 15.917,140.290 8.004,140.469 7.841 C 140.593 7.728,141.002 7.564,141.378 7.475 C 142.144 7.295,142.032 7.036,143.114 11.483 C 143.418 12.732,143.750 13.848,143.853 13.963 C 143.993 14.119,152.844 12.020,153.109 11.768 C 153.136 11.742,152.770 10.191,152.295 8.321 C 151.820 6.451,151.429 4.901,151.425 4.876 C 151.418 4.819,152.421 4.623,152.956 4.577 C 153.275 4.550,153.754 6.100,155.323 12.249 M128.202 13.143 C 128.202 13.444,127.585 13.816,126.120 14.397 C 124.975 14.851,123.849 15.316,123.618 15.431 C 123.251 15.615,123.527 16.460,125.841 22.241 C 127.295 25.871,128.392 28.917,128.280 29.010 C 127.473 29.677,126.670 29.765,126.456 29.209 C 123.177 20.688,121.293 16.400,120.885 16.529 C 120.640 16.607,119.489 17.056,118.327 17.528 L 116.215 18.386 115.854 17.650 C 115.390 16.700,114.896 16.987,121.672 14.264 C 127.906 11.759,128.202 11.708,128.202 13.143 M277.286 16.462 C 282.261 18.589,282.541 18.794,281.821 19.779 C 281.520 20.190,281.202 20.095,277.360 18.442 C 275.084 17.463,273.195 16.689,273.163 16.722 C 273.033 16.853,271.046 21.539,271.105 21.575 C 271.139 21.597,272.833 22.326,274.869 23.195 L 278.570 24.776 278.314 25.511 C 277.982 26.462,278.142 26.491,274.028 24.732 C 272.081 23.899,270.455 23.218,270.414 23.218 C 270.275 23.218,268.183 28.267,268.287 28.349 C 268.344 28.394,270.265 29.233,272.555 30.212 C 276.869 32.056,277.318 32.436,276.339 33.415 C 276.110 33.644,265.750 29.369,265.735 29.039 C 265.715 28.599,271.957 14.385,272.170 14.385 C 272.311 14.385,274.613 15.320,277.286 16.462 M104.885 22.397 C 105.561 23.287,105.255 23.584,101.606 25.581 C 99.612 26.673,97.844 27.650,97.678 27.753 C 97.414 27.916,99.242 31.713,99.890 32.346 C 99.985 32.440,101.585 31.673,103.446 30.643 C 107.331 28.492,107.128 28.548,107.612 29.484 L 107.981 30.198 104.590 32.031 C 100.454 34.268,100.672 33.864,102.130 36.591 C 103.590 39.319,102.953 39.304,107.627 36.719 C 109.760 35.539,111.609 34.574,111.735 34.574 C 112.111 34.574,112.674 35.819,112.411 36.068 C 111.717 36.724,102.660 41.435,102.470 41.238 C 101.740 40.478,94.864 27.433,95.080 27.217 C 95.306 26.990,104.221 21.998,104.452 21.968 C 104.506 21.962,104.701 22.155,104.885 22.397 M313.740 36.918 L 314.420 37.476 312.919 45.552 C 311.168 54.973,311.212 54.764,310.973 54.762 C 310.872 54.761,310.481 54.506,310.105 54.194 L 309.421 53.628 309.882 51.421 L 310.343 49.213 307.033 46.899 C 305.212 45.627,303.607 44.499,303.466 44.393 C 303.326 44.287,302.386 44.704,301.378 45.318 C 300.370 45.933,299.407 46.433,299.237 46.430 C 298.668 46.419,297.648 45.471,297.918 45.204 C 298.196 44.929,312.731 36.372,312.934 36.364 C 313.003 36.361,313.366 36.610,313.740 36.918 M83.281 37.981 L 83.281 38.864 82.082 38.867 C 77.684 38.876,74.163 43.898,75.811 47.810 C 77.683 52.254,82.673 53.316,86.312 50.044 C 88.599 47.988,88.623 47.769,86.830 45.302 C 85.988 44.143,85.300 43.086,85.300 42.952 C 85.300 42.732,86.377 41.893,86.659 41.893 C 86.816 41.893,90.080 46.355,90.253 46.808 C 90.490 47.423,89.188 49.879,87.992 51.075 C 82.681 56.386,74.083 53.557,73.501 46.306 C 73.122 41.592,77.124 37.177,81.830 37.116 L 83.281 37.098 83.281 37.981 M308.445 41.067 C 306.462 42.251,304.872 43.247,304.912 43.279 C 306.006 44.169,310.504 47.183,310.598 47.089 C 310.805 46.881,312.376 38.861,312.204 38.889 C 312.120 38.902,310.428 39.882,308.445 41.067 M332.734 52.762 C 335.446 53.777,337.866 56.705,338.300 59.495 L 338.467 60.568 337.603 60.568 C 336.766 60.568,336.726 60.522,336.335 59.117 C 335.044 54.479,329.423 52.608,325.883 55.638 C 321.604 59.301,323.671 66.294,329.268 67.088 C 330.401 67.249,330.478 67.308,330.552 68.077 L 330.631 68.896 329.417 68.896 C 327.700 68.895,325.473 67.777,323.967 66.159 C 317.957 59.703,324.512 49.686,332.734 52.762 M63.659 56.467 C 68.865 58.750,69.999 65.774,65.834 69.939 C 62.540 73.233,57.215 73.296,53.981 70.079 C 47.475 63.609,55.192 52.754,63.659 56.467 M58.159 57.874 C 53.200 59.785,51.921 65.521,55.695 68.923 C 61.020 73.723,69.111 67.308,65.680 61.005 C 64.196 58.278,60.790 56.860,58.159 57.874 M350.080 69.590 C 350.289 69.833,350.528 70.153,350.611 70.302 C 350.694 70.450,349.580 71.529,348.136 72.699 C 346.691 73.869,345.505 74.911,345.499 75.013 C 345.494 75.116,346.831 76.829,348.471 78.819 L 351.453 82.437 354.171 80.169 L 356.888 77.900 357.489 78.635 C 357.819 79.039,358.088 79.426,358.086 79.495 C 358.084 79.610,347.828 88.069,346.345 89.179 C 345.722 89.646,345.706 89.644,345.097 89.072 C 344.245 88.272,344.163 88.395,347.257 85.860 L 350.034 83.584 346.978 79.884 C 344.242 76.573,343.878 76.222,343.506 76.539 C 343.278 76.733,342.025 77.767,340.721 78.835 L 338.350 80.777 337.747 80.210 C 336.844 79.362,336.838 79.369,343.218 74.092 C 349.496 68.900,349.491 68.903,350.080 69.590 M41.588 73.509 L 42.129 74.085 40.506 76.096 C 39.614 77.202,38.879 78.186,38.874 78.282 C 38.869 78.379,41.334 80.401,44.353 82.777 C 50.520 87.630,50.194 87.281,49.408 88.195 L 48.823 88.874 43.322 84.557 C 40.296 82.183,37.728 80.215,37.615 80.184 C 37.438 80.134,35.442 82.457,34.434 83.886 C 34.074 84.396,32.808 83.908,32.808 83.260 C 32.808 82.951,40.640 72.934,40.882 72.934 C 40.973 72.934,41.291 73.193,41.588 73.509 M367.544 92.893 C 367.798 93.322,367.907 93.763,367.788 93.872 C 366.968 94.623,354.495 102.442,354.305 102.324 C 354.173 102.243,353.907 101.869,353.712 101.493 L 353.359 100.809 360.086 96.463 C 367.771 91.499,366.952 91.891,367.544 92.893 M378.359 111.919 L 380.814 116.836 380.080 117.215 L 379.345 117.595 378.471 116.022 C 377.990 115.156,377.060 113.369,376.403 112.050 C 375.747 110.732,375.178 109.618,375.139 109.574 C 375.042 109.466,370.473 111.772,370.473 111.930 C 370.473 112.000,371.275 113.658,372.255 115.614 C 373.235 117.570,374.001 119.200,373.958 119.236 C 373.787 119.378,372.770 119.874,372.649 119.874 C 372.578 119.874,371.704 118.284,370.708 116.341 C 369.711 114.397,368.794 112.808,368.670 112.808 C 368.359 112.808,363.912 115.054,363.912 115.211 C 363.912 115.280,364.820 117.152,365.931 119.369 C 367.041 121.587,367.950 123.498,367.950 123.616 C 367.950 123.828,366.687 124.504,366.555 124.363 C 366.387 124.184,361.388 114.387,361.388 114.238 C 361.388 114.053,375.242 107.039,375.650 107.017 C 375.790 107.009,377.010 109.216,378.359 111.919 M386.057 128.844 L 386.332 129.738 384.144 131.829 C 382.940 132.979,380.570 135.217,378.877 136.802 C 377.183 138.387,375.877 139.754,375.974 139.839 C 376.072 139.924,378.763 140.182,381.956 140.412 C 390.564 141.033,390.315 140.991,390.677 141.864 C 391.134 142.968,391.225 142.962,383.156 142.361 C 372.703 141.582,373.370 141.693,373.056 140.671 L 372.795 139.821 379.016 133.897 C 385.782 127.455,385.658 127.543,386.057 128.844 M61.059 152.568 C 63.240 153.082,65.495 154.225,67.103 155.631 L 68.426 156.789 67.462 157.785 C 66.932 158.333,65.961 159.235,65.304 159.789 L 64.109 160.797 63.012 159.899 C 58.682 156.351,51.882 157.371,49.409 161.938 C 45.490 169.179,52.024 176.844,60.040 174.409 L 61.830 173.866 61.830 169.835 L 61.830 165.804 64.858 165.804 L 67.886 165.804 67.886 171.436 L 67.886 177.068 66.309 178.004 C 56.774 183.664,44.301 179.458,42.028 169.816 C 39.422 158.759,49.309 149.798,61.059 152.568 M132.344 152.676 C 134.751 153.291,136.364 154.151,138.099 155.742 L 139.432 156.964 137.294 158.955 L 135.157 160.946 134.014 159.982 C 128.189 155.070,119.621 158.848,119.621 166.328 C 119.621 173.675,128.058 177.476,133.865 172.746 L 135.179 171.676 137.305 173.641 L 139.432 175.606 138.082 176.885 C 131.517 183.103,118.459 180.997,114.615 173.100 C 108.816 161.185,119.135 149.298,132.344 152.676 M159.734 152.568 C 174.198 155.977,174.191 176.643,159.725 180.053 C 149.539 182.454,140.697 176.067,140.697 166.309 C 140.697 156.566,149.559 150.169,159.734 152.568 M218.401 152.555 C 220.312 152.960,223.344 154.267,223.344 154.685 C 223.344 155.217,221.517 159.495,221.290 159.495 C 221.161 159.495,220.512 159.220,219.847 158.883 C 214.541 156.194,207.387 157.682,209.033 161.133 C 209.543 162.202,210.541 162.643,215.085 163.812 C 222.262 165.656,224.281 167.293,224.544 171.483 C 225.040 179.365,213.855 183.226,203.848 178.626 C 201.430 177.515,201.454 177.598,202.757 174.791 L 203.885 172.361 205.495 173.246 C 210.766 176.143,218.044 175.628,218.044 172.357 C 218.044 170.887,216.857 170.249,211.711 168.953 C 204.506 167.138,202.321 165.240,202.298 160.774 C 202.264 154.316,209.436 150.656,218.401 152.555 M37.603 166.435 L 37.603 180.189 34.322 180.189 L 31.041 180.189 31.041 166.435 L 31.041 152.681 34.322 152.681 L 37.603 152.681 37.603 166.435 M79.495 157.981 L 79.495 163.281 85.552 163.281 L 91.609 163.281 91.609 157.981 L 91.609 152.681 94.890 152.681 L 98.170 152.681 98.170 166.435 L 98.170 180.189 94.890 180.189 L 91.609 180.189 91.609 174.511 L 91.609 168.833 85.552 168.833 L 79.495 168.833 79.495 174.511 L 79.495 180.189 76.215 180.189 L 72.934 180.189 72.934 166.435 L 72.934 152.681 76.215 152.681 L 79.495 152.681 79.495 157.981 M195.469 166.056 C 198.728 173.343,201.458 179.507,201.536 179.754 C 201.669 180.173,201.440 180.199,198.210 180.133 L 194.742 180.063 193.543 177.161 L 192.344 174.259 186.166 174.191 L 179.988 174.124 179.180 176.084 C 178.736 177.162,178.163 178.527,177.907 179.117 L 177.442 180.189 174.147 180.189 C 172.334 180.189,170.852 180.090,170.852 179.969 C 170.852 179.749,181.940 154.693,182.624 153.368 L 182.986 152.667 186.266 152.737 L 189.545 152.808 195.469 166.056 M248.833 155.331 L 248.833 157.981 244.416 157.981 L 240.000 157.981 240.000 169.085 L 240.000 180.189 236.719 180.189 L 233.438 180.189 233.438 169.085 L 233.438 157.981 229.148 157.981 L 224.858 157.981 224.858 155.331 L 224.858 152.681 236.845 152.681 L 248.833 152.681 248.833 155.331 M395.489 160.568 C 396.684 166.127,396.685 166.297,395.538 166.305 C 394.891 166.310,394.956 166.496,393.926 161.640 C 393.484 159.558,393.046 157.770,392.953 157.666 C 392.798 157.494,388.168 158.372,387.920 158.620 C 387.862 158.678,388.185 160.441,388.638 162.537 C 389.503 166.539,389.477 166.931,388.360 166.772 C 387.811 166.694,387.704 166.404,386.945 162.925 C 386.494 160.856,386.084 159.123,386.036 159.075 C 385.734 158.773,380.577 160.139,380.678 160.494 C 380.997 161.610,382.618 169.389,382.545 169.455 C 382.499 169.497,382.114 169.605,381.690 169.696 L 380.919 169.861 379.711 164.280 C 379.047 161.211,378.546 158.656,378.600 158.603 C 378.715 158.488,393.392 155.261,393.951 155.228 C 394.253 155.210,394.589 156.376,395.489 160.568 M153.550 157.950 C 149.240 159.065,146.572 163.360,147.390 167.868 C 149.022 176.870,161.429 177.363,163.696 168.516 C 165.308 162.221,159.684 156.365,153.550 157.950 M184.277 163.838 C 183.290 166.238,182.409 168.401,182.318 168.644 C 182.166 169.052,182.447 169.085,186.093 169.085 C 188.259 169.085,190.032 168.984,190.032 168.860 C 190.032 168.573,186.473 159.941,186.244 159.673 C 186.150 159.563,185.265 161.437,184.277 163.838 M233.134 191.438 C 247.477 194.365,248.740 214.278,234.862 218.685 C 225.018 221.811,215.407 216.025,214.612 206.495 C 213.780 196.527,222.668 189.302,233.134 191.438 M24.353 199.606 L 30.915 207.653 30.981 199.599 L 31.048 191.546 34.325 191.546 L 37.603 191.546 37.603 205.300 L 37.603 219.054 34.843 219.054 L 32.083 219.054 25.442 210.959 L 18.801 202.865 18.735 210.959 L 18.668 219.054 15.517 219.054 L 12.366 219.054 12.366 205.300 L 12.366 191.546 15.079 191.552 L 17.792 191.559 24.353 199.606 M64.353 194.196 L 64.353 196.845 59.937 196.845 L 55.521 196.845 55.521 207.950 L 55.521 219.054 52.240 219.054 L 48.959 219.054 48.959 207.950 L 48.959 196.845 44.669 196.845 L 40.379 196.845 40.379 194.196 L 40.379 191.546 52.366 191.546 L 64.353 191.546 64.353 194.196 M87.823 194.196 L 87.823 196.845 80.631 196.845 L 73.438 196.845 73.438 199.621 L 73.438 202.397 79.874 202.397 L 86.309 202.397 86.309 205.047 L 86.309 207.697 79.874 207.697 L 73.438 207.697 73.438 210.726 L 73.438 213.754 80.883 213.754 L 88.328 213.754 88.328 216.404 L 88.328 219.054 77.729 219.054 L 67.129 219.054 67.129 205.300 L 67.129 191.546 77.476 191.546 L 87.823 191.546 87.823 194.196 M107.924 191.781 C 110.008 192.176,112.032 193.061,113.399 194.172 C 117.789 197.743,117.658 205.879,113.161 209.024 C 112.518 209.474,111.831 209.956,111.636 210.096 C 111.350 210.300,111.829 211.137,114.095 214.386 C 115.642 216.606,116.964 218.565,117.030 218.738 C 117.124 218.981,116.347 219.054,113.644 219.054 L 110.137 219.054 107.533 215.268 L 104.929 211.483 102.180 211.483 L 99.432 211.483 99.432 215.268 L 99.432 219.054 96.151 219.054 L 92.871 219.054 92.871 205.300 L 92.871 191.546 99.776 191.546 C 103.574 191.546,107.241 191.652,107.924 191.781 M133.123 199.604 L 139.685 207.644 139.751 199.595 L 139.818 191.546 143.095 191.546 L 146.372 191.546 146.372 205.300 L 146.372 219.054 143.607 219.054 L 140.842 219.054 134.207 210.967 L 127.571 202.880 127.504 210.967 L 127.438 219.054 124.287 219.054 L 121.136 219.054 121.136 205.300 L 121.136 191.546 123.849 191.555 L 126.562 191.564 133.123 199.604 M173.123 204.839 C 176.385 212.145,179.135 218.332,179.235 218.588 C 179.406 219.027,179.216 219.054,175.932 219.054 L 172.449 219.054 171.294 216.215 L 170.138 213.375 163.870 213.312 L 157.603 213.248 156.449 216.088 L 155.296 218.927 151.938 218.998 C 148.761 219.065,148.587 219.043,148.705 218.595 C 148.773 218.335,151.484 212.144,154.730 204.838 L 160.631 191.554 163.912 191.555 L 167.192 191.556 173.123 204.839 M201.136 194.196 L 201.136 196.845 196.719 196.845 L 192.303 196.845 192.303 207.950 L 192.303 219.054 189.022 219.054 L 185.741 219.054 185.741 207.950 L 185.741 196.845 181.451 196.845 L 177.161 196.845 177.161 194.196 L 177.161 191.546 189.148 191.546 L 201.136 191.546 201.136 194.196 M210.473 205.300 L 210.473 219.054 207.192 219.054 L 203.912 219.054 203.912 205.300 L 203.912 191.546 207.192 191.546 L 210.473 191.546 210.473 205.300 M260.820 199.584 L 267.382 207.615 267.448 199.581 L 267.515 191.546 270.792 191.546 L 274.069 191.546 274.069 205.300 L 274.069 219.054 271.324 219.054 L 268.579 219.054 261.923 210.948 L 255.268 202.842 255.202 210.948 L 255.135 219.054 251.984 219.054 L 248.833 219.054 248.833 205.300 L 248.833 191.546 251.546 191.549 L 254.259 191.553 260.820 199.584 M300.951 205.079 C 304.280 212.522,307.041 218.711,307.087 218.833 C 307.134 218.954,305.600 219.053,303.680 219.052 L 300.189 219.050 299.018 216.213 L 297.847 213.375 291.580 213.375 L 285.314 213.375 284.164 216.151 L 283.015 218.927 279.678 218.998 C 277.707 219.039,276.341 218.971,276.341 218.830 C 276.341 218.615,287.677 193.034,288.236 191.987 C 288.442 191.602,288.883 191.546,291.686 191.546 L 294.899 191.546 300.951 205.079 M315.962 202.650 L 315.962 213.754 322.776 213.754 L 329.590 213.754 329.590 216.404 L 329.590 219.054 319.495 219.054 L 309.401 219.054 309.401 205.300 L 309.401 191.546 312.681 191.546 L 315.962 191.546 315.962 202.650 M227.989 196.844 C 223.437 197.787,220.607 202.025,221.358 206.773 C 222.912 216.595,237.209 215.908,237.919 205.977 C 238.329 200.246,233.409 195.720,227.989 196.844 M99.432 201.542 L 99.432 206.239 103.028 206.143 C 108.134 206.006,110.032 204.759,110.032 201.540 C 110.032 198.221,107.693 196.845,102.048 196.845 L 99.432 196.845 99.432 201.542 M393.369 199.191 C 389.449 200.422,386.999 201.310,387.204 201.425 C 387.775 201.744,399.855 206.160,399.936 206.079 C 399.978 206.037,399.981 204.011,399.943 201.576 L 399.874 197.149 393.369 199.191 M161.835 203.208 L 159.820 208.076 163.731 208.145 C 165.882 208.184,167.697 208.160,167.765 208.092 C 167.861 207.995,164.165 198.708,163.913 198.413 C 163.878 198.373,162.943 200.531,161.835 203.208 M290.652 200.557 C 290.161 201.777,289.245 203.997,288.617 205.489 L 287.476 208.202 291.598 208.202 L 295.719 208.202 293.703 203.344 C 292.595 200.672,291.655 198.452,291.616 198.412 C 291.577 198.371,291.143 199.336,290.652 200.557 M96.656 230.032 L 96.656 231.167 95.142 231.167 L 93.628 231.167 93.628 234.826 L 93.628 238.486 92.240 238.486 L 90.852 238.486 90.852 234.826 L 90.852 231.167 89.211 231.167 L 87.571 231.167 87.571 230.032 L 87.571 228.896 92.114 228.896 L 96.656 228.896 96.656 230.032 M101.800 231.550 C 103.888 234.729,103.501 234.729,105.489 231.546 L 107.129 228.919 108.328 228.907 L 109.527 228.896 109.527 233.691 L 109.527 238.486 108.274 238.486 L 107.021 238.486 106.949 236.025 L 106.877 233.565 105.652 235.521 C 104.532 237.310,104.357 237.476,103.604 237.476 C 102.858 237.476,102.662 237.295,101.487 235.521 L 100.193 233.565 100.191 236.025 L 100.189 238.486 98.927 238.486 L 97.666 238.486 97.666 233.691 L 97.666 228.896 98.864 228.900 L 100.063 228.905 101.800 231.550 M390.020 231.293 C 394.247 232.057,397.752 232.681,397.808 232.681 C 397.909 232.681,397.772 233.792,397.601 234.356 C 397.540 234.559,396.540 234.468,394.160 234.044 C 390.167 233.333,390.641 232.920,389.796 237.855 C 389.416 240.076,389.052 242.122,388.988 242.403 C 388.879 242.875,389.128 242.959,392.290 243.512 L 395.710 244.111 395.710 244.943 C 395.710 246.154,395.927 246.161,387.643 244.662 C 383.445 243.902,379.915 243.281,379.800 243.281 C 379.636 243.281,379.743 241.577,379.922 241.333 C 379.944 241.303,381.529 241.567,383.443 241.920 C 385.358 242.272,386.984 242.501,387.058 242.427 C 387.238 242.247,388.862 233.353,388.750 233.162 C 388.701 233.079,387.072 232.743,385.128 232.414 L 381.595 231.817 381.733 231.177 C 381.944 230.202,382.053 229.905,382.201 229.905 C 382.275 229.905,385.793 230.530,390.020 231.293 M37.399 239.558 L 37.476 248.707 38.221 250.050 C 40.485 254.138,46.916 253.696,48.625 249.337 C 49.014 248.346,49.081 247.072,49.155 239.306 L 49.241 230.410 52.531 230.410 L 55.820 230.410 55.710 239.558 C 55.591 249.390,55.498 250.176,54.146 252.843 C 50.270 260.493,35.813 260.346,32.111 252.618 C 30.889 250.066,30.789 249.068,30.789 239.442 L 30.789 230.410 34.055 230.410 L 37.321 230.410 37.399 239.558 M77.374 230.682 C 82.561 231.403,85.047 233.667,85.047 237.666 C 85.047 240.202,84.136 242.185,82.492 243.226 L 81.764 243.687 82.749 244.122 C 87.268 246.116,87.817 253.223,83.673 256.079 C 81.322 257.699,80.861 257.761,70.599 257.859 L 61.325 257.946 61.325 244.178 L 61.325 230.410 68.373 230.410 C 72.249 230.410,76.300 230.532,77.374 230.682 M67.886 238.642 L 67.886 241.827 71.861 241.720 C 77.196 241.576,78.486 240.930,78.486 238.406 C 78.486 236.229,76.626 235.457,71.374 235.457 L 67.886 235.457 67.886 238.642 M67.886 249.873 L 67.886 253.185 72.501 253.081 C 78.736 252.940,80.623 251.909,79.782 249.102 C 79.152 246.999,77.924 246.587,72.240 246.573 L 67.886 246.562 67.886 249.873 M384.035 260.159 C 387.402 263.266,390.158 265.832,390.158 265.863 C 390.158 266.644,389.493 267.512,388.811 267.624 C 386.825 267.948,372.150 269.521,372.050 269.421 C 371.988 269.359,372.068 268.912,372.227 268.428 L 372.518 267.549 374.461 267.382 C 375.529 267.290,376.580 267.167,376.795 267.108 C 377.050 267.038,377.632 265.592,378.480 262.914 L 379.775 258.828 378.152 257.341 C 376.457 255.788,376.368 255.602,376.787 254.500 C 377.104 253.665,376.396 253.112,384.035 260.159 M380.098 263.387 C 379.539 265.159,379.133 266.662,379.196 266.725 C 379.304 266.833,384.192 266.409,386.530 266.088 L 387.571 265.946 384.763 263.381 C 383.219 261.970,381.767 260.669,381.536 260.490 C 381.158 260.196,381.015 260.484,380.098 263.387 M373.146 284.679 C 376.707 286.351,379.637 287.685,379.657 287.645 C 379.676 287.604,380.200 286.492,380.820 285.174 C 381.440 283.855,381.968 282.739,381.992 282.694 C 382.016 282.649,382.384 282.793,382.811 283.014 L 383.586 283.415 382.993 284.736 C 381.507 288.044,378.239 294.909,378.063 295.091 C 377.836 295.326,376.530 294.788,376.530 294.460 C 376.530 294.338,376.753 293.802,377.025 293.268 C 377.298 292.734,377.796 291.674,378.133 290.913 L 378.745 289.528 374.798 287.680 C 372.628 286.664,369.690 285.285,368.271 284.617 L 365.689 283.401 366.109 282.521 C 366.621 281.446,365.567 281.123,373.146 284.679 M355.942 316.266 L 360.159 324.014 359.589 324.785 C 359.246 325.249,358.863 325.507,358.626 325.435 C 358.206 325.307,341.973 321.767,341.804 321.767 C 341.567 321.767,341.761 321.340,342.295 320.687 L 342.869 319.987 345.095 320.515 C 346.320 320.806,347.404 320.951,347.504 320.838 C 347.819 320.482,352.198 314.591,352.403 314.248 C 352.511 314.068,352.494 313.784,352.366 313.617 C 352.238 313.449,351.725 312.569,351.225 311.660 L 350.317 310.008 350.960 309.186 C 351.314 308.734,351.631 308.399,351.664 308.441 C 351.697 308.483,353.622 312.004,355.942 316.266 M351.358 318.557 C 350.214 320.093,349.308 321.380,349.346 321.418 C 349.479 321.551,357.411 323.304,357.496 323.219 C 357.566 323.149,353.705 316.003,353.499 315.818 C 353.466 315.789,352.502 317.021,351.358 318.557 M51.461 320.661 C 51.747 321.024,51.919 321.420,51.845 321.541 C 51.729 321.728,41.722 329.928,41.055 330.382 C 40.925 330.471,41.571 331.476,42.491 332.616 C 44.366 334.938,44.349 334.896,43.674 335.507 C 42.976 336.139,43.093 336.249,38.767 330.909 C 34.451 325.583,34.654 325.908,35.244 325.256 C 35.889 324.544,36.100 324.672,37.821 326.824 C 38.704 327.929,39.499 328.832,39.587 328.831 C 39.676 328.829,42.189 326.845,45.174 324.421 C 51.257 319.479,50.764 319.774,51.461 320.661 M340.296 335.474 L 345.984 340.980 345.434 341.724 C 344.727 342.681,345.274 343.071,339.414 337.424 L 334.319 332.513 331.282 335.629 C 328.150 338.843,327.923 338.967,327.221 337.855 C 326.974 337.463,333.933 329.814,334.434 329.928 C 334.530 329.950,337.168 332.446,340.296 335.474 M65.656 336.859 C 74.123 341.020,71.419 353.212,62.128 352.766 C 53.457 352.351,50.911 340.790,58.633 336.900 C 60.619 335.900,63.669 335.882,65.656 336.859 M60.395 338.237 C 55.614 340.091,54.372 345.614,57.960 349.071 C 64.057 354.946,72.898 346.062,66.923 340.064 C 65.145 338.278,62.325 337.489,60.395 338.237 M322.145 348.035 C 328.419 351.002,328.325 359.963,321.988 363.130 C 316.354 365.946,310.056 362.096,310.056 355.836 C 310.056 349.754,316.706 345.463,322.145 348.035 M317.350 349.259 C 311.986 350.571,310.204 356.700,314.102 360.429 C 318.121 364.273,324.928 361.220,324.908 355.584 C 324.894 351.649,320.978 348.372,317.350 349.259 M84.196 352.498 C 84.704 352.911,84.754 353.346,85.149 360.743 C 85.378 365.038,85.606 368.592,85.655 368.641 C 85.704 368.691,87.314 366.511,89.232 363.798 C 91.150 361.084,92.814 358.864,92.930 358.864 C 93.408 358.864,94.401 359.720,94.282 360.030 C 94.085 360.542,85.228 372.998,85.065 372.991 C 83.948 372.948,83.849 372.421,83.405 364.164 C 83.170 359.792,82.961 356.195,82.939 356.172 C 82.906 356.135,76.392 365.262,75.915 366.013 C 75.719 366.323,74.462 365.757,74.278 365.276 C 74.167 364.987,83.188 352.046,83.493 352.056 C 83.585 352.059,83.901 352.258,84.196 352.498 M300.698 367.859 C 305.367 375.847,305.051 375.194,304.457 375.644 C 303.731 376.194,303.812 376.217,296.455 373.343 C 292.679 371.868,289.393 370.605,289.151 370.538 C 288.863 370.458,289.755 372.205,291.756 375.642 C 293.430 378.516,294.748 381.000,294.686 381.163 C 294.562 381.486,293.301 382.232,293.167 382.061 C 292.916 381.740,285.431 368.766,285.302 368.427 C 285.192 368.140,285.367 367.930,285.900 367.710 C 286.601 367.420,287.155 367.595,293.875 370.227 C 297.847 371.784,301.135 373.015,301.183 372.964 C 301.230 372.913,299.919 370.565,298.269 367.747 C 296.618 364.929,295.268 362.519,295.268 362.392 C 295.268 362.190,296.436 361.425,296.786 361.398 C 296.858 361.393,298.618 364.300,300.698 367.859 M106.830 367.217 C 107.422 367.487,108.602 372.386,110.337 381.785 L 110.632 383.380 113.380 377.921 C 116.260 372.198,116.465 371.932,117.476 372.595 L 118.102 373.005 114.510 380.193 C 112.535 384.147,110.789 387.382,110.629 387.382 C 109.598 387.382,109.332 386.585,107.736 378.722 L 106.157 370.946 103.456 376.281 C 100.309 382.498,100.491 382.251,99.463 381.719 L 98.678 381.314 101.227 376.209 C 103.908 370.840,105.971 366.940,106.128 366.940 C 106.180 366.940,106.496 367.065,106.830 367.217 M276.129 381.681 C 278.101 386.458,279.046 389.036,278.865 389.148 C 276.795 390.427,268.919 393.227,268.603 392.795 C 267.951 391.903,268.342 391.604,272.303 389.975 C 274.454 389.090,276.291 388.286,276.384 388.189 C 276.554 388.012,275.003 383.924,274.621 383.542 C 274.509 383.430,272.778 384.014,270.773 384.840 C 266.986 386.400,266.890 386.412,266.626 385.342 C 266.470 384.709,266.569 384.648,270.078 383.219 C 272.065 382.410,273.737 381.710,273.794 381.664 C 273.924 381.560,272.004 376.784,271.776 376.643 C 271.684 376.586,269.693 377.335,267.352 378.309 C 262.858 380.177,262.461 380.217,262.461 378.802 C 262.461 378.353,271.786 374.273,272.646 374.345 C 273.014 374.376,273.769 375.967,276.129 381.681 M129.056 377.637 C 129.954 378.012,130.221 378.687,130.221 380.583 C 130.221 382.515,130.316 382.591,134.659 384.085 L 138.645 385.458 140.215 383.743 L 141.785 382.028 142.691 382.327 C 143.910 382.730,144.049 382.500,140.019 386.757 C 131.262 396.009,131.598 395.698,130.648 395.406 L 129.802 395.147 128.987 386.658 C 128.539 381.990,128.133 377.972,128.085 377.729 C 127.979 377.197,127.998 377.195,129.056 377.637 M130.722 385.174 C 130.714 386.536,131.338 392.934,131.479 392.934 C 131.564 392.934,132.922 391.554,134.495 389.867 L 137.356 386.800 134.230 385.707 C 130.564 384.425,130.726 384.450,130.722 385.174 M158.983 386.267 C 166.120 388.387,167.162 397.998,160.631 401.474 C 157.640 403.065,152.521 402.190,150.274 399.703 L 149.335 398.664 149.936 398.202 C 150.748 397.577,150.866 397.601,151.806 398.569 C 155.074 401.933,161.131 400.684,162.610 396.342 C 164.432 390.995,159.071 385.957,153.917 388.174 C 152.620 388.732,151.961 388.500,151.932 387.476 C 151.896 386.193,156.232 385.450,158.983 386.267 M236.845 394.129 C 241.045 402.170,240.978 402.018,240.334 402.022 C 240.081 402.024,239.647 402.085,239.369 402.157 C 238.931 402.271,238.451 401.493,235.710 396.225 C 233.975 392.890,232.492 390.161,232.416 390.160 C 232.339 390.159,231.736 393.193,231.076 396.903 C 230.415 400.613,229.853 403.668,229.827 403.693 C 229.801 403.717,229.396 403.777,228.927 403.824 L 228.075 403.912 224.937 397.981 C 223.212 394.719,221.717 391.966,221.615 391.864 C 221.514 391.761,220.934 394.657,220.326 398.299 C 219.719 401.941,219.114 405.063,218.981 405.237 C 218.723 405.573,217.285 405.681,217.290 405.363 C 217.307 404.011,220.085 389.035,220.350 388.862 C 221.643 388.019,221.988 388.426,225.344 394.748 C 227.889 399.542,228.551 400.617,228.689 400.174 C 228.783 399.870,229.344 396.815,229.935 393.385 C 231.069 386.804,231.005 386.969,232.429 386.909 C 233.006 386.884,233.384 387.502,236.845 394.129 " stroke="none" fill="#fcfcfc" fill-rule="evenodd"></path><path id="path1" d="M194.487 3.068 C 194.396 4.755,194.322 8.389,194.322 11.144 L 194.322 16.151 195.169 16.151 L 196.016 16.151 196.179 14.600 C 196.268 13.747,196.341 12.611,196.341 12.077 L 196.341 11.104 198.989 11.104 L 201.638 11.104 203.318 13.628 L 204.998 16.151 206.110 16.151 C 206.928 16.151,207.174 16.068,207.041 15.836 C 206.941 15.662,206.129 14.462,205.235 13.169 C 204.341 11.875,203.650 10.782,203.698 10.740 C 203.746 10.698,204.149 10.479,204.593 10.253 C 207.422 8.815,208.018 4.106,205.669 1.757 C 204.249 0.337,202.845 0.000,198.353 0.000 L 194.652 0.000 194.487 3.068 M174.154 1.164 C 171.321 1.495,168.950 1.817,168.886 1.881 C 168.746 2.022,170.404 17.349,170.593 17.655 C 170.666 17.773,173.110 17.599,176.025 17.267 C 178.940 16.936,181.467 16.663,181.640 16.661 C 181.992 16.656,182.082 15.250,181.744 15.041 C 181.628 14.969,179.515 15.140,177.050 15.421 C 171.804 16.018,172.340 16.267,171.955 13.052 C 171.586 9.967,171.028 10.440,175.664 9.909 L 179.558 9.464 179.637 8.644 C 179.732 7.659,179.859 7.672,175.394 8.202 C 173.659 8.408,172.060 8.577,171.839 8.578 C 171.494 8.580,170.646 3.654,170.941 3.360 C 170.975 3.325,172.531 3.125,174.398 2.915 C 180.399 2.239,179.937 2.368,179.937 1.373 C 179.937 0.831,179.818 0.516,179.621 0.534 C 179.448 0.550,176.988 0.834,174.154 1.164 M203.070 2.277 C 205.829 3.462,205.886 7.397,203.164 8.770 C 202.195 9.259,201.642 9.338,199.189 9.338 L 196.341 9.338 196.341 5.443 L 196.341 1.549 199.180 1.688 C 201.082 1.780,202.366 1.975,203.070 2.277 M236.073 5.073 C 236.160 5.961,236.457 9.746,236.732 13.485 C 237.007 17.223,237.259 20.308,237.291 20.339 C 237.324 20.371,237.748 20.502,238.233 20.631 L 239.117 20.866 242.939 15.114 C 246.555 9.672,246.769 9.405,246.897 10.170 C 246.971 10.614,247.232 13.683,247.476 16.989 C 247.959 23.518,247.988 23.611,249.479 23.422 C 250.134 23.340,259.322 9.660,258.964 9.301 C 257.842 8.179,257.483 8.528,253.502 14.627 C 250.080 19.868,249.700 20.360,249.552 19.740 C 249.461 19.362,249.187 16.243,248.941 12.808 L 248.495 6.562 247.591 6.312 C 247.094 6.174,246.659 6.146,246.624 6.249 C 246.590 6.351,244.866 8.979,242.794 12.087 C 239.152 17.551,239.023 17.710,238.892 16.882 C 238.817 16.411,238.568 13.300,238.338 9.968 C 238.107 6.637,237.890 3.878,237.855 3.838 C 237.820 3.797,237.369 3.695,236.853 3.612 L 235.914 3.459 236.073 5.073 M151.987 4.721 C 151.675 4.781,151.422 4.851,151.425 4.876 C 151.429 4.901,151.820 6.451,152.295 8.321 C 152.770 10.191,153.136 11.742,153.109 11.768 C 152.844 12.020,143.993 14.119,143.853 13.963 C 143.750 13.848,143.418 12.732,143.114 11.483 C 142.032 7.036,142.144 7.295,141.378 7.475 C 141.002 7.564,140.593 7.728,140.469 7.841 C 140.290 8.004,142.124 15.917,143.875 22.541 C 144.123 23.479,144.864 23.670,145.903 23.064 C 145.992 23.012,145.675 21.422,145.198 19.530 C 144.721 17.638,144.381 16.039,144.443 15.978 C 144.551 15.869,153.156 13.628,153.463 13.628 C 153.546 13.628,153.925 14.822,154.305 16.282 C 155.562 21.113,155.361 20.686,156.255 20.430 C 156.687 20.306,157.096 20.149,157.165 20.080 C 157.484 19.761,153.352 4.543,152.956 4.577 C 152.735 4.596,152.300 4.661,151.987 4.721 M121.672 14.264 C 114.896 16.987,115.390 16.700,115.854 17.650 L 116.215 18.386 118.327 17.528 C 119.489 17.056,120.640 16.607,120.885 16.529 C 121.293 16.400,123.177 20.688,126.456 29.209 C 126.670 29.765,127.473 29.677,128.280 29.010 C 128.392 28.917,127.295 25.871,125.841 22.241 C 123.527 16.460,123.251 15.615,123.618 15.431 C 123.849 15.316,124.975 14.851,126.120 14.397 C 128.264 13.546,128.566 13.189,127.886 12.304 C 127.603 11.935,126.978 12.132,121.672 14.264 M268.822 21.640 C 267.120 25.631,265.731 28.960,265.735 29.039 C 265.750 29.369,276.110 33.644,276.339 33.415 C 277.318 32.436,276.869 32.056,272.555 30.212 C 270.265 29.233,268.344 28.394,268.287 28.349 C 268.183 28.267,270.275 23.218,270.414 23.218 C 270.455 23.218,272.081 23.899,274.028 24.732 C 278.142 26.491,277.982 26.462,278.314 25.511 L 278.570 24.776 274.869 23.195 C 272.833 22.326,271.139 21.597,271.105 21.575 C 271.046 21.539,273.033 16.853,273.163 16.722 C 273.195 16.689,275.084 17.463,277.360 18.442 C 281.726 20.320,282.145 20.364,282.145 18.938 C 282.145 18.580,272.955 14.385,272.170 14.385 C 272.030 14.385,270.523 17.650,268.822 21.640 M99.841 24.474 C 97.360 25.845,95.217 27.079,95.080 27.217 C 94.864 27.433,101.740 40.478,102.470 41.238 C 102.660 41.435,111.717 36.724,112.411 36.068 C 112.674 35.819,112.111 34.574,111.735 34.574 C 111.609 34.574,109.760 35.539,107.627 36.719 C 102.953 39.304,103.590 39.319,102.130 36.591 C 100.672 33.864,100.454 34.268,104.590 32.031 L 107.981 30.198 107.612 29.484 C 107.128 28.548,107.331 28.492,103.446 30.643 C 101.585 31.673,99.985 32.440,99.890 32.346 C 99.242 31.713,97.414 27.916,97.678 27.753 C 97.844 27.650,99.612 26.673,101.606 25.581 C 105.255 23.584,105.561 23.287,104.885 22.397 C 104.461 21.839,105.046 21.598,99.841 24.474 M305.489 40.662 C 297.033 45.622,297.469 45.302,298.297 45.939 C 299.169 46.610,299.305 46.582,301.378 45.318 C 302.386 44.704,303.326 44.287,303.466 44.393 C 303.607 44.499,305.212 45.627,307.033 46.899 L 310.343 49.213 309.882 51.421 L 309.421 53.628 310.105 54.194 C 310.481 54.506,310.872 54.761,310.973 54.762 C 311.212 54.764,311.168 54.973,312.919 45.552 L 314.420 37.476 313.740 36.918 C 313.366 36.610,313.003 36.361,312.934 36.364 C 312.864 36.367,309.514 38.301,305.489 40.662 M79.303 37.548 C 69.785 41.205,72.954 55.342,82.934 53.749 C 86.335 53.205,91.008 48.774,90.253 46.808 C 90.080 46.355,86.816 41.893,86.659 41.893 C 86.377 41.893,85.300 42.732,85.300 42.952 C 85.300 43.086,85.988 44.143,86.830 45.302 C 88.623 47.769,88.599 47.988,86.312 50.044 C 82.673 53.316,77.683 52.254,75.811 47.810 C 74.163 43.898,77.684 38.876,82.082 38.867 L 83.281 38.864 83.281 37.981 L 83.281 37.098 81.830 37.116 C 81.032 37.127,79.895 37.321,79.303 37.548 M311.544 42.911 C 311.096 45.136,310.671 47.016,310.598 47.089 C 310.504 47.183,306.006 44.169,304.912 43.279 C 304.833 43.215,311.953 38.929,312.204 38.889 C 312.289 38.875,311.992 40.685,311.544 42.911 M327.571 52.476 C 318.918 55.118,320.466 68.894,329.417 68.896 L 330.631 68.896 330.552 68.077 C 330.478 67.308,330.401 67.249,329.268 67.088 C 323.671 66.294,321.604 59.301,325.883 55.638 C 329.423 52.608,335.044 54.479,336.335 59.117 C 336.726 60.522,336.766 60.568,337.603 60.568 L 338.467 60.568 338.300 59.495 C 337.555 54.709,332.052 51.108,327.571 52.476 M58.892 55.790 C 53.595 56.498,50.046 62.848,52.272 67.634 C 54.208 71.794,59.111 73.631,63.189 71.723 C 72.152 67.528,68.635 54.487,58.892 55.790 M62.073 57.915 C 66.401 59.442,67.892 64.673,64.972 68.084 C 61.680 71.930,56.199 71.258,54.095 66.751 C 51.764 61.755,56.884 56.084,62.073 57.915 M343.218 74.092 C 336.838 79.369,336.844 79.362,337.747 80.210 L 338.350 80.777 340.721 78.835 C 342.025 77.767,343.278 76.733,343.506 76.539 C 343.878 76.222,344.242 76.573,346.978 79.884 L 350.034 83.584 347.257 85.860 C 344.163 88.395,344.245 88.272,345.097 89.072 C 345.706 89.644,345.722 89.646,346.345 89.179 C 347.828 88.069,358.084 79.610,358.086 79.495 C 358.088 79.426,357.819 79.039,357.489 78.635 L 356.888 77.900 354.171 80.169 L 351.453 82.437 348.471 78.819 C 346.831 76.829,345.494 75.116,345.499 75.013 C 345.505 74.911,346.691 73.869,348.136 72.699 C 349.580 71.529,350.694 70.450,350.611 70.302 C 349.689 68.657,349.955 68.521,343.218 74.092 M36.762 77.967 C 32.454 83.449,32.519 83.332,33.452 83.943 C 34.061 84.342,34.114 84.339,34.434 83.886 C 35.442 82.457,37.438 80.134,37.615 80.184 C 37.728 80.215,40.296 82.183,43.322 84.557 L 48.823 88.874 49.408 88.195 C 50.194 87.281,50.520 87.630,44.353 82.777 C 41.334 80.401,38.869 78.379,38.874 78.282 C 38.879 78.186,39.614 77.202,40.506 76.096 L 42.129 74.085 41.588 73.509 C 40.826 72.698,41.099 72.446,36.762 77.967 M360.086 96.463 L 353.359 100.809 353.712 101.493 C 353.907 101.869,354.173 102.243,354.305 102.324 C 354.495 102.442,366.968 94.623,367.788 93.872 C 367.992 93.685,367.240 92.111,366.949 92.115 C 366.875 92.116,363.787 94.073,360.086 96.463 M368.391 110.551 C 364.539 112.487,361.388 114.146,361.388 114.238 C 361.388 114.387,366.387 124.184,366.555 124.363 C 366.687 124.504,367.950 123.828,367.950 123.616 C 367.950 123.498,367.041 121.587,365.931 119.369 C 364.820 117.152,363.912 115.280,363.912 115.211 C 363.912 115.054,368.359 112.808,368.670 112.808 C 368.794 112.808,369.711 114.397,370.708 116.341 C 371.704 118.284,372.578 119.874,372.649 119.874 C 372.770 119.874,373.787 119.378,373.958 119.236 C 374.001 119.200,373.235 117.570,372.255 115.614 C 371.275 113.658,370.473 112.000,370.473 111.930 C 370.473 111.772,375.042 109.466,375.139 109.574 C 375.178 109.618,375.747 110.732,376.403 112.050 C 377.060 113.369,377.990 115.156,378.471 116.022 L 379.345 117.595 380.080 117.215 L 380.814 116.836 378.359 111.919 C 377.010 109.216,375.790 107.009,375.650 107.017 C 375.509 107.024,372.243 108.615,368.391 110.551 M379.016 133.897 L 372.795 139.821 373.056 140.671 C 373.370 141.693,372.703 141.582,383.156 142.361 C 391.225 142.962,391.134 142.968,390.677 141.864 C 390.315 140.991,390.564 141.033,381.956 140.412 C 378.763 140.182,376.072 139.924,375.974 139.839 C 375.877 139.754,377.183 138.387,378.877 136.802 C 380.570 135.217,382.940 132.979,384.144 131.829 L 386.332 129.738 386.057 128.844 C 385.658 127.543,385.782 127.455,379.016 133.897 M52.442 152.568 C 37.983 156.073,38.140 176.850,52.649 180.078 C 56.989 181.044,62.632 180.187,66.309 178.004 L 67.886 177.068 67.886 171.436 L 67.886 165.804 64.858 165.804 L 61.830 165.804 61.830 169.835 L 61.830 173.866 60.040 174.409 C 54.529 176.083,49.489 173.248,48.444 167.886 C 46.869 159.806,56.473 154.540,63.012 159.899 L 64.109 160.797 65.304 159.789 C 65.961 159.235,66.932 158.333,67.462 157.785 L 68.426 156.789 67.103 155.631 C 63.671 152.629,57.503 151.340,52.442 152.568 M124.290 152.433 C 115.021 154.281,110.331 164.299,114.615 173.100 C 118.459 180.997,131.517 183.103,138.082 176.885 L 139.432 175.606 137.305 173.641 L 135.179 171.676 133.865 172.746 C 128.058 177.476,119.621 173.675,119.621 166.328 C 119.621 158.848,128.189 155.070,134.014 159.982 L 135.157 160.946 137.294 158.955 L 139.432 156.964 138.099 155.742 C 134.855 152.767,129.296 151.435,124.290 152.433 M151.420 152.579 C 136.971 156.417,137.016 176.651,151.482 180.062 C 163.033 182.786,173.038 173.506,170.219 162.683 C 168.230 155.048,159.595 150.407,151.420 152.579 M209.406 152.569 C 204.882 153.666,202.277 156.673,202.298 160.774 C 202.321 165.240,204.506 167.138,211.711 168.953 C 216.857 170.249,218.044 170.887,218.044 172.357 C 218.044 175.628,210.766 176.143,205.495 173.246 L 203.885 172.361 202.757 174.791 C 201.454 177.598,201.430 177.515,203.848 178.626 C 213.855 183.226,225.040 179.365,224.544 171.483 C 224.281 167.293,222.262 165.656,215.085 163.812 C 210.541 162.643,209.543 162.202,209.033 161.133 C 207.387 157.682,214.541 156.194,219.847 158.883 C 221.497 159.719,221.413 159.773,222.434 157.222 C 223.585 154.347,223.625 154.553,221.744 153.673 C 218.663 152.231,212.921 151.717,209.406 152.569 M0.000 166.435 L 0.000 180.189 3.155 180.189 L 6.309 180.189 6.309 174.511 L 6.309 168.833 12.492 168.833 L 18.675 168.833 18.675 174.511 L 18.675 180.189 21.956 180.189 L 25.237 180.189 25.237 166.435 L 25.237 152.681 21.956 152.681 L 18.675 152.681 18.675 157.981 L 18.675 163.281 12.492 163.281 L 6.309 163.281 6.309 157.981 L 6.309 152.681 3.155 152.681 L 0.000 152.681 0.000 166.435 M31.041 166.435 L 31.041 180.189 34.322 180.189 L 37.603 180.189 37.603 166.435 L 37.603 152.681 34.322 152.681 L 31.041 152.681 31.041 166.435 M72.934 166.435 L 72.934 180.189 76.215 180.189 L 79.495 180.189 79.495 174.511 L 79.495 168.833 85.552 168.833 L 91.609 168.833 91.609 174.511 L 91.609 180.189 94.890 180.189 L 98.170 180.189 98.170 166.435 L 98.170 152.681 94.890 152.681 L 91.609 152.681 91.609 157.981 L 91.609 163.281 85.552 163.281 L 79.495 163.281 79.495 157.981 L 79.495 152.681 76.215 152.681 L 72.934 152.681 72.934 166.435 M182.624 153.368 C 181.940 154.693,170.852 179.749,170.852 179.969 C 170.852 180.090,172.334 180.189,174.147 180.189 L 177.442 180.189 177.907 179.117 C 178.163 178.527,178.736 177.162,179.180 176.084 L 179.988 174.124 186.166 174.191 L 192.344 174.259 193.543 177.161 L 194.742 180.063 198.210 180.133 C 201.440 180.199,201.669 180.173,201.536 179.754 C 201.458 179.507,198.728 173.343,195.469 166.056 L 189.545 152.808 186.266 152.737 L 182.986 152.667 182.624 153.368 M224.858 155.331 L 224.858 157.981 229.148 157.981 L 233.438 157.981 233.438 169.085 L 233.438 180.189 236.719 180.189 L 240.000 180.189 240.000 169.085 L 240.000 157.981 244.416 157.981 L 248.833 157.981 248.833 155.331 L 248.833 152.681 236.845 152.681 L 224.858 152.681 224.858 155.331 M386.130 156.879 C 382.042 157.774,378.653 158.550,378.600 158.603 C 378.546 158.656,379.047 161.211,379.711 164.280 L 380.919 169.861 381.690 169.696 C 382.114 169.605,382.499 169.497,382.545 169.455 C 382.618 169.389,380.997 161.610,380.678 160.494 C 380.577 160.139,385.734 158.773,386.036 159.075 C 386.084 159.123,386.494 160.856,386.945 162.925 C 387.704 166.404,387.811 166.694,388.360 166.772 C 389.477 166.931,389.503 166.539,388.638 162.537 C 388.185 160.441,387.862 158.678,387.920 158.620 C 388.168 158.372,392.798 157.494,392.953 157.666 C 393.046 157.770,393.484 159.558,393.926 161.640 C 394.956 166.496,394.891 166.310,395.538 166.305 C 396.685 166.297,396.684 166.127,395.489 160.568 C 394.589 156.376,394.253 155.210,393.951 155.228 C 393.738 155.241,390.219 155.983,386.130 156.879 M159.035 158.422 C 162.718 160.055,164.741 164.436,163.696 168.516 C 161.429 177.363,149.022 176.870,147.390 167.868 C 146.163 161.102,152.848 155.679,159.035 158.422 M188.223 164.255 C 189.218 166.664,190.032 168.737,190.032 168.860 C 190.032 168.984,188.259 169.085,186.093 169.085 C 182.447 169.085,182.166 169.052,182.318 168.644 C 183.434 165.640,186.113 159.520,186.244 159.673 C 186.338 159.784,187.229 161.845,188.223 164.255 M227.003 191.217 C 217.964 192.416,212.286 201.606,215.357 210.068 C 220.118 223.182,240.666 222.474,244.156 209.075 C 246.867 198.667,238.275 189.722,227.003 191.217 M0.000 205.300 L 0.000 219.054 3.155 219.054 L 6.309 219.054 6.309 205.300 L 6.309 191.546 3.155 191.546 L 0.000 191.546 0.000 205.300 M12.366 205.300 L 12.366 219.054 15.517 219.054 L 18.668 219.054 18.735 210.959 L 18.801 202.865 25.442 210.959 L 32.083 219.054 34.843 219.054 L 37.603 219.054 37.603 205.300 L 37.603 191.546 34.325 191.546 L 31.048 191.546 30.981 199.599 L 30.915 207.653 24.353 199.606 L 17.792 191.559 15.079 191.552 L 12.366 191.546 12.366 205.300 M40.379 194.196 L 40.379 196.845 44.669 196.845 L 48.959 196.845 48.959 207.950 L 48.959 219.054 52.240 219.054 L 55.521 219.054 55.521 207.950 L 55.521 196.845 59.937 196.845 L 64.353 196.845 64.353 194.196 L 64.353 191.546 52.366 191.546 L 40.379 191.546 40.379 194.196 M67.129 205.300 L 67.129 219.054 77.729 219.054 L 88.328 219.054 88.328 216.404 L 88.328 213.754 80.883 213.754 L 73.438 213.754 73.438 210.726 L 73.438 207.697 79.874 207.697 L 86.309 207.697 86.309 205.047 L 86.309 202.397 79.874 202.397 L 73.438 202.397 73.438 199.621 L 73.438 196.845 80.631 196.845 L 87.823 196.845 87.823 194.196 L 87.823 191.546 77.476 191.546 L 67.129 191.546 67.129 205.300 M92.871 205.300 L 92.871 219.054 96.151 219.054 L 99.432 219.054 99.432 215.268 L 99.432 211.483 102.180 211.483 L 104.929 211.483 107.533 215.268 L 110.137 219.054 113.644 219.054 C 116.347 219.054,117.124 218.981,117.030 218.738 C 116.964 218.565,115.642 216.606,114.095 214.386 C 111.829 211.137,111.350 210.300,111.636 210.096 C 111.831 209.956,112.518 209.474,113.161 209.024 C 117.658 205.879,117.789 197.743,113.399 194.172 C 110.648 191.934,108.632 191.546,99.776 191.546 L 92.871 191.546 92.871 205.300 M121.136 205.300 L 121.136 219.054 124.287 219.054 L 127.438 219.054 127.504 210.967 L 127.571 202.880 134.207 210.967 L 140.842 219.054 143.607 219.054 L 146.372 219.054 146.372 205.300 L 146.372 191.546 143.095 191.546 L 139.818 191.546 139.751 199.595 L 139.685 207.644 133.123 199.604 L 126.562 191.564 123.849 191.555 L 121.136 191.546 121.136 205.300 M154.730 204.838 C 151.484 212.144,148.773 218.335,148.705 218.595 C 148.587 219.043,148.761 219.065,151.938 218.998 L 155.296 218.927 156.449 216.088 L 157.603 213.248 163.870 213.312 L 170.138 213.375 171.294 216.215 L 172.449 219.054 175.932 219.054 C 179.216 219.054,179.406 219.027,179.235 218.588 C 179.135 218.332,176.385 212.145,173.123 204.839 L 167.192 191.556 163.912 191.555 L 160.631 191.554 154.730 204.838 M177.161 194.196 L 177.161 196.845 181.451 196.845 L 185.741 196.845 185.741 207.950 L 185.741 219.054 189.022 219.054 L 192.303 219.054 192.303 207.950 L 192.303 196.845 196.719 196.845 L 201.136 196.845 201.136 194.196 L 201.136 191.546 189.148 191.546 L 177.161 191.546 177.161 194.196 M203.912 205.300 L 203.912 219.054 207.192 219.054 L 210.473 219.054 210.473 205.300 L 210.473 191.546 207.192 191.546 L 203.912 191.546 203.912 205.300 M248.833 205.300 L 248.833 219.054 251.984 219.054 L 255.135 219.054 255.202 210.948 L 255.268 202.842 261.923 210.948 L 268.579 219.054 271.324 219.054 L 274.069 219.054 274.069 205.300 L 274.069 191.546 270.792 191.546 L 267.515 191.546 267.448 199.581 L 267.382 207.615 260.820 199.584 L 254.259 191.553 251.546 191.549 L 248.833 191.546 248.833 205.300 M288.236 191.987 C 287.677 193.034,276.341 218.615,276.341 218.830 C 276.341 218.971,277.707 219.039,279.678 218.998 L 283.015 218.927 284.164 216.151 L 285.314 213.375 291.580 213.375 L 297.847 213.375 299.018 216.213 L 300.189 219.050 303.680 219.052 C 305.600 219.053,307.134 218.954,307.087 218.833 C 307.041 218.711,304.280 212.522,300.951 205.079 L 294.899 191.546 291.686 191.546 C 288.883 191.546,288.442 191.602,288.236 191.987 M309.401 205.300 L 309.401 219.054 319.495 219.054 L 329.590 219.054 329.590 216.404 L 329.590 213.754 322.776 213.754 L 315.962 213.754 315.962 202.650 L 315.962 191.546 312.681 191.546 L 309.401 191.546 309.401 205.300 M395.457 196.470 C 393.167 197.209,389.612 198.343,387.557 198.988 L 383.821 200.161 383.898 201.186 L 383.975 202.210 389.905 204.398 C 393.167 205.601,396.063 206.678,396.341 206.792 C 396.926 207.032,397.565 206.792,389.198 209.473 L 383.569 211.276 383.646 212.301 L 383.722 213.326 391.672 216.186 C 396.044 217.758,399.650 219.047,399.685 219.049 C 399.719 219.052,399.748 218.616,399.748 218.081 L 399.748 217.107 393.193 214.751 C 389.587 213.455,386.693 212.340,386.760 212.273 C 386.827 212.205,389.805 211.215,393.378 210.073 L 399.874 207.995 399.950 207.121 C 400.007 206.468,399.912 206.201,399.572 206.066 C 399.321 205.966,396.519 204.927,393.343 203.757 C 390.167 202.587,387.410 201.540,387.216 201.432 C 386.994 201.307,389.276 200.477,393.369 199.193 L 399.874 197.152 399.951 196.115 C 399.994 195.545,399.937 195.089,399.825 195.102 C 399.713 195.115,397.748 195.730,395.457 196.470 M232.216 197.118 C 235.686 198.018,238.208 201.936,237.919 205.977 C 237.209 215.908,222.912 216.595,221.358 206.773 C 220.322 200.223,225.712 195.430,232.216 197.118 M106.012 197.101 C 109.379 197.740,110.948 200.726,109.464 203.669 C 108.495 205.591,107.361 206.027,103.028 206.143 L 99.432 206.239 99.432 201.542 L 99.432 196.845 102.048 196.845 C 103.486 196.845,105.270 196.961,106.012 197.101 M165.931 203.227 C 167.008 205.835,167.833 208.024,167.765 208.092 C 167.697 208.160,165.882 208.184,163.731 208.145 L 159.820 208.076 161.835 203.208 C 162.943 200.531,163.878 198.373,163.913 198.413 C 163.947 198.453,164.855 200.619,165.931 203.227 M293.703 203.344 L 295.719 208.202 291.598 208.202 L 287.476 208.202 288.617 205.489 C 289.245 203.997,290.161 201.777,290.652 200.557 C 291.143 199.336,291.577 198.371,291.616 198.412 C 291.655 198.452,292.595 200.672,293.703 203.344 M87.571 230.032 L 87.571 231.167 89.211 231.167 L 90.852 231.167 90.852 234.826 L 90.852 238.486 92.240 238.486 L 93.628 238.486 93.628 234.826 L 93.628 231.167 95.142 231.167 L 96.656 231.167 96.656 230.032 L 96.656 228.896 92.114 228.896 L 87.571 228.896 87.571 230.032 M97.666 233.691 L 97.666 238.486 98.927 238.486 L 100.189 238.486 100.191 236.025 L 100.193 233.565 101.487 235.521 C 102.662 237.295,102.858 237.476,103.604 237.476 C 104.357 237.476,104.532 237.310,105.652 235.521 L 106.877 233.565 106.949 236.025 L 107.021 238.486 108.274 238.486 L 109.527 238.486 109.527 233.691 L 109.527 228.896 108.328 228.907 L 107.129 228.919 105.489 231.546 C 103.501 234.729,103.888 234.729,101.800 231.550 L 100.063 228.905 98.864 228.900 L 97.666 228.896 97.666 233.691 M381.969 230.221 C 381.916 230.394,381.809 230.824,381.733 231.177 L 381.595 231.817 385.128 232.414 C 387.072 232.743,388.701 233.079,388.750 233.162 C 388.862 233.353,387.238 242.247,387.058 242.427 C 386.984 242.501,385.358 242.272,383.443 241.920 C 381.529 241.567,379.944 241.303,379.922 241.333 C 379.743 241.577,379.636 243.281,379.800 243.281 C 379.915 243.281,383.445 243.902,387.643 244.662 C 395.927 246.161,395.710 246.154,395.710 244.943 L 395.710 244.111 392.290 243.512 C 389.128 242.959,388.879 242.875,388.988 242.403 C 389.052 242.122,389.416 240.076,389.796 237.855 C 390.641 232.920,390.167 233.333,394.160 234.044 C 396.540 234.468,397.540 234.559,397.601 234.356 C 397.772 233.792,397.909 232.681,397.808 232.681 C 397.752 232.681,394.247 232.057,390.020 231.293 C 381.192 229.699,382.093 229.819,381.969 230.221 M0.000 244.164 L 0.000 257.918 3.155 257.918 L 6.309 257.918 6.309 252.366 L 6.309 246.814 12.492 246.814 L 18.675 246.814 18.675 252.366 L 18.675 257.918 21.956 257.918 L 25.237 257.918 25.237 244.164 L 25.237 230.410 21.956 230.410 L 18.675 230.410 18.675 235.836 L 18.675 241.262 12.492 241.262 L 6.309 241.262 6.309 235.836 L 6.309 230.410 3.155 230.410 L 0.000 230.410 0.000 244.164 M30.789 239.442 C 30.789 249.068,30.889 250.066,32.111 252.618 C 35.813 260.346,50.270 260.493,54.146 252.843 C 55.498 250.176,55.591 249.390,55.710 239.558 L 55.820 230.410 52.531 230.410 L 49.241 230.410 49.155 239.306 C 49.081 247.072,49.014 248.346,48.625 249.337 C 46.916 253.696,40.485 254.138,38.221 250.050 L 37.476 248.707 37.399 239.558 L 37.321 230.410 34.055 230.410 L 30.789 230.410 30.789 239.442 M61.325 244.178 L 61.325 257.946 70.599 257.859 C 80.861 257.761,81.322 257.699,83.673 256.079 C 87.817 253.223,87.268 246.116,82.749 244.122 L 81.764 243.687 82.492 243.226 C 85.740 241.169,86.001 235.410,82.963 232.810 C 80.664 230.842,78.036 230.410,68.373 230.410 L 61.325 230.410 61.325 244.178 M76.155 235.842 C 78.265 236.468,79.063 238.151,78.118 239.979 C 77.447 241.277,76.285 241.600,71.861 241.720 L 67.886 241.827 67.886 238.642 L 67.886 235.457 71.374 235.457 C 73.762 235.457,75.269 235.579,76.155 235.842 M77.556 246.927 C 80.424 247.950,80.745 251.125,78.116 252.466 C 77.247 252.909,76.505 252.991,72.501 253.081 L 67.886 253.185 67.886 249.873 L 67.886 246.562 72.240 246.573 C 75.246 246.580,76.891 246.690,77.556 246.927 M376.787 254.500 C 376.368 255.602,376.457 255.788,378.152 257.341 L 379.775 258.828 378.480 262.914 C 377.632 265.592,377.050 267.038,376.795 267.108 C 376.580 267.167,375.529 267.290,374.461 267.382 L 372.518 267.549 372.227 268.428 C 372.068 268.912,371.988 269.359,372.050 269.421 C 372.150 269.521,386.825 267.948,388.811 267.624 C 389.493 267.512,390.158 266.644,390.158 265.863 C 390.158 265.789,378.034 254.607,377.478 254.168 C 377.094 253.866,377.013 253.905,376.787 254.500 M384.763 263.381 L 387.571 265.946 386.530 266.088 C 384.192 266.409,379.304 266.833,379.196 266.725 C 378.819 266.348,381.134 260.177,381.536 260.490 C 381.767 260.669,383.219 261.970,384.763 263.381 M366.109 282.521 L 365.689 283.401 368.271 284.617 C 369.690 285.285,372.628 286.664,374.798 287.680 L 378.745 289.528 378.133 290.913 C 377.796 291.674,377.298 292.734,377.025 293.268 C 376.753 293.802,376.530 294.338,376.530 294.460 C 376.530 294.788,377.836 295.326,378.063 295.091 C 378.239 294.909,381.507 288.044,382.993 284.736 L 383.586 283.415 382.811 283.014 C 382.384 282.793,382.016 282.649,381.992 282.694 C 381.968 282.739,381.440 283.855,380.820 285.174 C 380.200 286.492,379.676 287.604,379.657 287.645 C 379.637 287.685,376.707 286.351,373.146 284.679 C 365.567 281.123,366.621 281.446,366.109 282.521 M350.960 309.186 L 350.317 310.008 351.225 311.660 C 351.725 312.569,352.238 313.449,352.366 313.617 C 352.494 313.784,352.511 314.068,352.403 314.248 C 352.198 314.591,347.819 320.482,347.504 320.838 C 347.404 320.951,346.320 320.806,345.095 320.515 L 342.869 319.987 342.295 320.687 C 341.761 321.340,341.567 321.767,341.804 321.767 C 341.973 321.767,358.206 325.307,358.626 325.435 C 358.863 325.507,359.246 325.249,359.589 324.785 L 360.159 324.014 355.942 316.266 C 353.622 312.004,351.697 308.483,351.664 308.441 C 351.631 308.399,351.314 308.734,350.960 309.186 M355.570 319.503 C 356.677 321.499,357.543 323.172,357.496 323.219 C 357.411 323.304,349.479 321.551,349.346 321.418 C 349.264 321.335,353.412 315.741,353.499 315.818 C 353.532 315.848,354.464 317.506,355.570 319.503 M45.174 324.421 C 42.189 326.845,39.676 328.829,39.587 328.831 C 39.499 328.832,38.704 327.929,37.821 326.824 C 36.100 324.672,35.889 324.544,35.244 325.256 C 34.654 325.908,34.451 325.583,38.767 330.909 C 43.093 336.249,42.976 336.139,43.674 335.507 C 44.349 334.896,44.366 334.938,42.491 332.616 C 41.571 331.476,40.925 330.471,41.055 330.382 C 41.722 329.928,51.729 321.728,51.845 321.541 C 51.987 321.310,51.066 319.995,50.770 320.007 C 50.676 320.010,48.158 321.997,45.174 324.421 M330.612 333.668 C 327.640 336.747,327.012 337.523,327.221 337.855 C 327.923 338.967,328.150 338.843,331.282 335.629 L 334.319 332.513 339.414 337.424 C 345.274 343.071,344.727 342.681,345.434 341.724 L 345.984 340.980 340.296 335.474 C 337.168 332.446,334.530 329.950,334.434 329.928 C 334.337 329.906,332.617 331.589,330.612 333.668 M58.633 336.900 C 50.911 340.790,53.457 352.351,62.128 352.766 C 68.510 353.073,72.731 346.775,69.943 341.110 C 67.825 336.808,62.644 334.879,58.633 336.900 M65.002 338.622 C 70.114 341.242,70.103 348.058,64.984 350.447 C 59.574 352.972,53.777 346.718,56.660 341.466 C 58.351 338.386,62.068 337.119,65.002 338.622 M316.397 347.599 C 308.052 349.948,307.935 361.684,316.237 363.811 C 324.351 365.890,330.333 355.553,324.430 349.654 C 322.410 347.635,319.193 346.812,316.397 347.599 M320.231 349.418 C 327.375 351.539,325.783 362.145,318.321 362.145 C 311.650 362.145,309.610 353.069,315.584 349.968 C 317.468 348.990,318.413 348.878,320.231 349.418 M78.748 358.521 C 76.229 362.079,74.217 365.119,74.278 365.276 C 74.462 365.757,75.719 366.323,75.915 366.013 C 76.392 365.262,82.906 356.135,82.939 356.172 C 82.961 356.195,83.170 359.792,83.405 364.164 C 83.849 372.421,83.948 372.948,85.065 372.991 C 85.228 372.998,94.085 360.542,94.282 360.030 C 94.401 359.720,93.408 358.864,92.930 358.864 C 92.814 358.864,91.150 361.084,89.232 363.798 C 87.314 366.511,85.704 368.691,85.655 368.641 C 85.606 368.592,85.378 365.038,85.149 360.743 C 84.716 352.625,84.615 352.094,83.493 352.056 C 83.402 352.053,81.267 354.962,78.748 358.521 M295.962 361.785 C 295.019 362.297,294.906 362.004,298.269 367.747 C 299.919 370.565,301.230 372.913,301.183 372.964 C 301.135 373.015,297.847 371.784,293.875 370.227 C 287.155 367.595,286.601 367.420,285.900 367.710 C 285.367 367.930,285.192 368.140,285.302 368.427 C 285.431 368.766,292.916 381.740,293.167 382.061 C 293.301 382.232,294.562 381.486,294.686 381.163 C 294.748 381.000,293.430 378.516,291.756 375.642 C 289.755 372.205,288.863 370.458,289.151 370.538 C 289.393 370.605,292.679 371.868,296.455 373.343 C 300.232 374.818,303.468 376.022,303.648 376.017 C 304.339 376.000,304.951 375.301,304.710 374.804 C 304.151 373.652,296.904 361.389,296.786 361.398 C 296.715 361.404,296.344 361.578,295.962 361.785 M104.906 369.022 C 104.285 370.167,102.629 373.401,101.227 376.209 L 98.678 381.314 99.463 381.719 C 100.491 382.251,100.309 382.498,103.456 376.281 L 106.157 370.946 107.736 378.722 C 109.332 386.585,109.598 387.382,110.629 387.382 C 110.789 387.382,112.535 384.147,114.510 380.193 L 118.102 373.005 117.476 372.595 C 116.465 371.932,116.260 372.198,113.380 377.921 L 110.632 383.380 110.337 381.785 C 108.106 369.700,107.323 366.940,106.128 366.940 C 106.077 366.940,105.527 367.877,104.906 369.022 M267.319 376.350 C 262.334 378.448,262.053 378.652,262.778 379.644 C 263.071 380.044,263.432 379.939,267.352 378.309 C 269.693 377.335,271.684 376.586,271.776 376.643 C 272.004 376.784,273.924 381.560,273.794 381.664 C 273.737 381.710,272.065 382.410,270.078 383.219 C 266.569 384.648,266.470 384.709,266.626 385.342 C 266.890 386.412,266.986 386.400,270.773 384.840 C 272.778 384.014,274.509 383.430,274.621 383.542 C 275.003 383.924,276.554 388.012,276.384 388.189 C 276.291 388.286,274.454 389.090,272.303 389.975 C 268.342 391.604,267.951 391.903,268.603 392.795 C 268.919 393.227,276.795 390.427,278.865 389.148 C 279.318 388.868,273.239 374.395,272.646 374.345 C 272.388 374.323,269.991 375.226,267.319 376.350 M128.085 377.729 C 128.133 377.972,128.539 381.990,128.987 386.658 L 129.802 395.147 130.648 395.406 C 131.598 395.698,131.262 396.009,140.019 386.757 C 144.049 382.500,143.910 382.730,142.691 382.327 L 141.785 382.028 140.215 383.743 L 138.645 385.458 134.659 384.085 C 130.316 382.591,130.221 382.515,130.221 380.583 C 130.221 378.687,129.954 378.012,129.056 377.637 C 127.998 377.195,127.979 377.197,128.085 377.729 M134.230 385.707 L 137.356 386.800 134.495 389.867 C 132.922 391.554,131.564 392.934,131.479 392.934 C 131.338 392.934,130.714 386.536,130.722 385.174 C 130.726 384.450,130.564 384.425,134.230 385.707 M153.746 386.239 C 151.959 386.797,151.594 387.302,152.301 388.237 C 152.654 388.703,152.691 388.702,153.917 388.174 C 159.071 385.957,164.432 390.995,162.610 396.342 C 161.131 400.684,155.074 401.933,151.806 398.569 C 150.866 397.601,150.748 397.577,149.936 398.202 L 149.335 398.664 150.274 399.703 C 153.258 403.006,159.657 403.139,162.699 399.959 C 168.667 393.723,162.084 383.635,153.746 386.239 M231.404 387.042 C 231.099 387.124,230.765 388.566,229.935 393.385 C 229.344 396.815,228.783 399.870,228.689 400.174 C 228.551 400.617,227.889 399.542,225.344 394.748 C 221.988 388.426,221.643 388.019,220.350 388.862 C 220.085 389.035,217.307 404.011,217.290 405.363 C 217.285 405.681,218.723 405.573,218.981 405.237 C 219.114 405.063,219.719 401.941,220.326 398.299 C 220.934 394.657,221.514 391.761,221.615 391.864 C 221.717 391.966,223.212 394.719,224.937 397.981 L 228.075 403.912 228.927 403.824 C 229.396 403.777,229.801 403.717,229.827 403.693 C 229.853 403.668,230.415 400.613,231.076 396.903 C 231.736 393.193,232.339 390.159,232.416 390.160 C 232.492 390.161,233.975 392.890,235.710 396.225 C 238.451 401.493,238.931 402.271,239.369 402.157 C 239.647 402.085,240.081 402.024,240.334 402.022 C 240.978 402.018,241.045 402.170,236.845 394.129 C 232.808 386.399,232.976 386.618,231.404 387.042 M191.798 391.041 L 191.798 391.924 196.557 391.924 L 201.315 391.924 201.476 393.628 C 201.564 394.565,201.638 395.814,201.639 396.404 L 201.640 397.476 198.265 397.476 C 193.811 397.476,193.312 397.581,193.312 398.517 L 193.312 399.243 197.476 399.243 L 201.640 399.243 201.640 401.893 L 201.640 404.543 199.937 404.544 C 199.000 404.544,196.956 404.618,195.394 404.708 L 192.555 404.872 192.555 405.591 L 192.555 406.309 198.147 406.309 L 203.739 406.309 203.574 401.199 C 203.483 398.388,203.408 394.754,203.408 393.123 L 203.407 390.158 197.603 390.158 L 191.798 390.158 191.798 391.041 " stroke="none" fill="#241c23" fill-rule="evenodd"></path><path id="path2" d="" stroke="none" fill="#90c4100" fill-rule="evenodd"></path><path id="path3" d="" stroke="none" fill="#90c4100" fill-rule="evenodd"></path><path id="path4" d="" stroke="none" fill="#90c4100" fill-rule="evenodd"></path></g></svg>