<?xml version="1.0" encoding="UTF-8"?>
<!DOCTYPE svg PUBLIC "-//W3C//DTD SVG 1.1//EN" "http://www.w3.org/Graphics/SVG/1.1/DTD/svg11.dtd">
<svg xmlns="http://www.w3.org/2000/svg" version="1.1" width="225px" height="225px" style="shape-rendering:geometricPrecision; text-rendering:geometricPrecision; image-rendering:optimizeQuality; fill-rule:evenodd; clip-rule:evenodd" xmlns:xlink="http://www.w3.org/1999/xlink">
<g><path style="opacity:1" fill="#fefefe" d="M -0.5,-0.5 C 74.5,-0.5 149.5,-0.5 224.5,-0.5C 224.5,74.5 224.5,149.5 224.5,224.5C 149.5,224.5 74.5,224.5 -0.5,224.5C -0.5,149.5 -0.5,74.5 -0.5,-0.5 Z"/></g>
<g><path style="opacity:1" fill="#e2642d" d="M 91.5,30.5 C 97.8333,30.5 104.167,30.5 110.5,30.5C 111.415,32.7541 112.748,34.7541 114.5,36.5C 113.432,37.4345 112.099,37.7678 110.5,37.5C 104.155,35.0046 97.8219,32.6712 91.5,30.5 Z"/></g>
<g><path style="opacity:1" fill="#e66930" d="M 113.5,30.5 C 114.833,30.5 116.167,30.5 117.5,30.5C 117.567,31.9587 117.234,33.2921 116.5,34.5C 114.738,33.7377 113.738,32.4044 113.5,30.5 Z"/></g>
<g><path style="opacity:1" fill="#74235d" d="M 110.5,30.5 C 111.5,30.5 112.5,30.5 113.5,30.5C 113.738,32.4044 114.738,33.7377 116.5,34.5C 116.5,35.8333 115.833,36.5 114.5,36.5C 112.748,34.7541 111.415,32.7541 110.5,30.5 Z"/></g>
<g><path style="opacity:1" fill="#6a1a62" d="M 91.5,43.5 C 91.6646,46.5184 91.498,49.5184 91,52.5C 90.79,50.9419 90.29,49.6085 89.5,48.5C 87.9265,40.2623 82.9265,35.929 74.5,35.5C 68.0542,36.2094 63.7209,39.5427 61.5,45.5C 60.5,45.1667 59.8333,44.5 59.5,43.5C 61.7448,36.4229 66.5782,33.0896 74,33.5C 81.9655,33.3348 87.7988,36.6681 91.5,43.5 Z"/></g>
<g><path style="opacity:1" fill="#691c65" d="M 55.5,40.5 C 54.1667,39.8333 52.8333,39.1667 51.5,38.5C 53.1816,35.9855 55.3483,33.9855 58,32.5C 58.5,32.8333 59,33.1667 59.5,33.5C 57.89,35.7254 56.5566,38.0587 55.5,40.5 Z"/></g>
<g><path style="opacity:1" fill="#a44051" d="M 109.5,38.5 C 108.71,39.4013 107.71,40.0679 106.5,40.5C 102.227,38.3637 97.8941,36.1971 93.5,34C 98.8514,35.1691 104.185,36.6691 109.5,38.5 Z"/></g>
<g><path style="opacity:1" fill="#74215f" d="M 85.5,30.5 C 87.5,30.5 89.5,30.5 91.5,30.5C 97.8219,32.6712 104.155,35.0046 110.5,37.5C 110.5,38.1667 110.167,38.5 109.5,38.5C 104.185,36.6691 98.8514,35.1691 93.5,34C 97.8941,36.1971 102.227,38.3637 106.5,40.5C 105.058,41.8195 104.392,43.4862 104.5,45.5C 103.285,46.779 103.618,47.779 105.5,48.5C 105.5,48.8333 105.5,49.1667 105.5,49.5C 102.05,48.7564 100.384,50.0897 100.5,53.5C 99.6566,50.1868 98.3233,47.1868 96.5,44.5C 95.8333,43.5 95.1667,42.5 94.5,41.5C 93.4376,40.4246 93.4376,39.4246 94.5,38.5C 96.204,40.0413 98.0374,41.3746 100,42.5C 101.257,42.1501 101.591,41.4835 101,40.5C 95.6586,37.3036 90.4919,33.9703 85.5,30.5 Z"/></g>
<g><path style="opacity:1" fill="#b4423a" d="M 94.5,41.5 C 95.1667,42.5 95.8333,43.5 96.5,44.5C 96.6646,47.5184 96.498,50.5184 96,53.5C 95.7216,54.4158 95.2216,55.0825 94.5,55.5C 95.7409,50.8433 95.7409,46.1767 94.5,41.5 Z"/></g>
<g><path style="opacity:1" fill="#df5725" d="M 99.5,45.5 C 103.31,46.7542 103.31,47.7542 99.5,48.5C 99.5,47.5 99.5,46.5 99.5,45.5 Z"/></g>
<g><path style="opacity:1" fill="#c9715c" d="M 104.5,45.5 C 105.11,46.391 105.443,47.391 105.5,48.5C 103.618,47.779 103.285,46.779 104.5,45.5 Z"/></g>
<g><path style="opacity:1" fill="#df5922" d="M 105.5,49.5 C 106.89,50.8993 107.89,52.5659 108.5,54.5C 106.167,54.5 103.833,54.5 101.5,54.5C 100.833,54.5 100.5,54.1667 100.5,53.5C 100.384,50.0897 102.05,48.7564 105.5,49.5 Z"/></g>
<g><path style="opacity:1" fill="#e25b1d" d="M 85.5,30.5 C 90.4919,33.9703 95.6586,37.3036 101,40.5C 101.591,41.4835 101.257,42.1501 100,42.5C 98.0374,41.3746 96.204,40.0413 94.5,38.5C 93.4376,39.4246 93.4376,40.4246 94.5,41.5C 95.7409,46.1767 95.7409,50.8433 94.5,55.5C 92.0892,64.2191 86.4225,69.5525 77.5,71.5C 76.5116,70.205 75.5116,68.8717 74.5,67.5C 80.4224,67.0643 83.9224,64.0643 85,58.5C 81.7155,61.5402 77.8822,63.5402 73.5,64.5C 72.5987,63.7095 71.9321,62.7095 71.5,61.5C 74.2854,60.9096 76.6187,59.5763 78.5,57.5C 75.681,57.2577 72.681,57.2577 69.5,57.5C 68.1103,56.1007 67.1103,54.4341 66.5,52.5C 64.4776,50.4687 62.8109,48.1354 61.5,45.5C 63.7209,39.5427 68.0542,36.2094 74.5,35.5C 82.9265,35.929 87.9265,40.2623 89.5,48.5C 89.3359,51.1873 89.5026,53.854 90,56.5C 90.9147,55.6721 91.5814,54.6721 92,53.5C 92.8075,49.9733 92.6408,46.6399 91.5,43.5C 87.7988,36.6681 81.9655,33.3348 74,33.5C 66.5782,33.0896 61.7448,36.4229 59.5,43.5C 58.1283,42.4884 56.795,41.4884 55.5,40.5C 56.5566,38.0587 57.89,35.7254 59.5,33.5C 59,33.1667 58.5,32.8333 58,32.5C 55.3483,33.9855 53.1816,35.9855 51.5,38.5C 48.9039,37.7347 46.2372,37.4013 43.5,37.5C 43.9926,35.1944 44.3259,32.861 44.5,30.5C 58.1667,30.5 71.8333,30.5 85.5,30.5 Z"/></g>
<g><path style="opacity:1" fill="#a03842" d="M 91.5,43.5 C 92.6408,46.6399 92.8075,49.9733 92,53.5C 91.5814,54.6721 90.9147,55.6721 90,56.5C 89.5026,53.854 89.3359,51.1873 89.5,48.5C 90.29,49.6085 90.79,50.9419 91,52.5C 91.498,49.5184 91.6646,46.5184 91.5,43.5 Z"/></g>
<g><path style="opacity:1" fill="#993140" d="M 74.5,54.5 C 74.6107,53.8826 74.944,53.3826 75.5,53C 73.9419,52.79 72.6085,52.29 71.5,51.5C 73.2624,51.6427 74.9291,51.3094 76.5,50.5C 77.4991,52.505 76.8324,53.8383 74.5,54.5 Z"/></g>
<g><path style="opacity:1" fill="#661a66" d="M 67.5,45.5 C 68.1667,46.8333 68.8333,48.1667 69.5,49.5C 69.8333,50.5 70.5,51.1667 71.5,51.5C 72.6085,52.29 73.9419,52.79 75.5,53C 74.944,53.3826 74.6107,53.8826 74.5,54.5C 71.4867,54.8928 68.8201,54.2261 66.5,52.5C 66.1984,49.9407 66.5318,47.6074 67.5,45.5 Z"/></g>
<g><path style="opacity:1" fill="#95314a" d="M 69.5,49.5 C 68.8333,48.1667 68.1667,46.8333 67.5,45.5C 68.1405,43.668 69.1405,43.3347 70.5,44.5C 69.6906,46.0709 69.3573,47.7376 69.5,49.5 Z"/></g>
<g><path style="opacity:1" fill="#711d5e" d="M 69.5,39.5 C 75.0839,38.5249 79.9173,39.8582 84,43.5C 86.0375,47.3344 85.7041,51.001 83,54.5C 82.7935,51.3771 82.1268,48.3771 81,45.5C 77.2751,42.8581 73.4418,40.8581 69.5,39.5 Z"/></g>
<g><path style="opacity:1" fill="#6f2062" d="M 71.5,61.5 C 70.3263,60.4863 69.6596,59.153 69.5,57.5C 72.681,57.2577 75.681,57.2577 78.5,57.5C 76.6187,59.5763 74.2854,60.9096 71.5,61.5 Z"/></g>
<g><path style="opacity:1" fill="#dc561f" d="M 101.5,56.5 C 102.598,57.6009 102.765,58.9343 102,60.5C 101.764,62.1193 100.931,63.1193 99.5,63.5C 99.1706,60.7718 99.8372,58.4385 101.5,56.5 Z"/></g>
<g><path style="opacity:1" fill="#cc4f2f" d="M 110.5,58.5 C 111.974,59.4363 112.974,60.7697 113.5,62.5C 110.458,63.2902 107.458,63.6235 104.5,63.5C 103.167,61.1667 103.167,58.8333 104.5,56.5C 106.723,55.962 108.723,56.6286 110.5,58.5 Z"/></g>
<g><path style="opacity:1" fill="#6d1d63" d="M 74.5,67.5 C 73.8902,66.609 73.5569,65.609 73.5,64.5C 77.8822,63.5402 81.7155,61.5402 85,58.5C 83.9224,64.0643 80.4224,67.0643 74.5,67.5 Z"/></g>
<g><path style="opacity:1" fill="#7f2451" d="M 101.5,54.5 C 103.833,54.5 106.167,54.5 108.5,54.5C 109.674,55.5137 110.34,56.847 110.5,58.5C 108.723,56.6286 106.723,55.962 104.5,56.5C 103.167,58.8333 103.167,61.1667 104.5,63.5C 107.458,63.6235 110.458,63.2902 113.5,62.5C 114.167,63.5 114.833,64.5 115.5,65.5C 109.5,65.5 103.5,65.5 97.5,65.5C 98.1667,64.8333 98.8333,64.1667 99.5,63.5C 100.931,63.1193 101.764,62.1193 102,60.5C 102.765,58.9343 102.598,57.6009 101.5,56.5C 101.5,55.8333 101.5,55.1667 101.5,54.5 Z"/></g>
<g><path style="opacity:1" fill="#b3423c" d="M 97.5,65.5 C 103.5,65.5 109.5,65.5 115.5,65.5C 115.833,66.1667 116.167,66.8333 116.5,67.5C 109.745,68.1229 103.412,67.4563 97.5,65.5 Z"/></g>
<g><path style="opacity:1" fill="#d2532d" d="M 83.5,81.5 C 81.412,79.6644 80.0787,77.3311 79.5,74.5C 80.5832,74.5394 81.5832,74.8728 82.5,75.5C 85.7707,72.2963 89.4374,69.6296 93.5,67.5C 93.8333,67.8333 94.1667,68.1667 94.5,68.5C 92.2754,71.623 89.6087,74.2897 86.5,76.5C 85.914,76.2907 85.414,75.9574 85,75.5C 83.872,77.3453 83.372,79.3453 83.5,81.5 Z"/></g>
<g><path style="opacity:1" fill="#e25719" d="M 116.5,70.5 C 116.858,73.8981 116.192,77.0647 114.5,80C 115.34,81.7674 116.673,83.1007 118.5,84C 116.19,84.4966 113.857,84.6633 111.5,84.5C 109.887,84.0557 108.72,83.0557 108,81.5C 106.52,76.8533 107.686,73.1867 111.5,70.5C 112.167,71.5 112.833,72.5 113.5,73.5C 114.141,72.0065 115.141,71.0065 116.5,70.5 Z"/></g>
<g><path style="opacity:1" fill="#671c69" d="M 96.5,44.5 C 98.3233,47.1868 99.6566,50.1868 100.5,53.5C 100.5,54.1667 100.833,54.5 101.5,54.5C 101.5,55.1667 101.5,55.8333 101.5,56.5C 99.8372,58.4385 99.1706,60.7718 99.5,63.5C 98.8333,64.1667 98.1667,64.8333 97.5,65.5C 103.412,67.4563 109.745,68.1229 116.5,67.5C 116.833,68.1667 117.167,68.8333 117.5,69.5C 117.5,69.8333 117.5,70.1667 117.5,70.5C 117.167,70.5 116.833,70.5 116.5,70.5C 115.141,71.0065 114.141,72.0065 113.5,73.5C 112.833,72.5 112.167,71.5 111.5,70.5C 107.686,73.1867 106.52,76.8533 108,81.5C 108.72,83.0557 109.887,84.0557 111.5,84.5C 109.643,85.7652 107.976,85.4318 106.5,83.5C 105.528,82.6009 104.862,81.4343 104.5,80C 104.957,76.8943 104.957,73.8943 104.5,71C 104.167,70.5 103.833,70 103.5,69.5C 102.15,70.9501 100.484,71.6168 98.5,71.5C 99.8011,73.6719 100.801,76.0052 101.5,78.5C 100.5,78.5 99.5,78.5 98.5,78.5C 98.5,79.5 98.5,80.5 98.5,81.5C 101.797,81.3287 102.131,81.9954 99.5,83.5C 101.045,84.4519 102.712,84.7852 104.5,84.5C 103.833,85.1667 103.167,85.8333 102.5,86.5C 99.4869,87.3559 98.8203,89.1892 100.5,92C 110.793,93.2664 121.126,93.7664 131.5,93.5C 132.338,93.8417 132.672,94.5084 132.5,95.5C 122.177,94.6512 111.843,94.4846 101.5,95C 112.003,96.475 122.67,96.975 133.5,96.5C 133.833,97.1667 134.167,97.8333 134.5,98.5C 124.036,97.9447 113.703,98.778 103.5,101C 101.216,102.363 101.049,103.863 103,105.5C 103.498,108.817 103.665,112.15 103.5,115.5C 96.3324,104.504 89.6658,93.1704 83.5,81.5C 83.372,79.3453 83.872,77.3453 85,75.5C 85.414,75.9574 85.914,76.2907 86.5,76.5C 89.6087,74.2897 92.2754,71.623 94.5,68.5C 94.1667,68.1667 93.8333,67.8333 93.5,67.5C 89.4374,69.6296 85.7707,72.2963 82.5,75.5C 81.5832,74.8728 80.5832,74.5394 79.5,74.5C 78.5987,73.7095 77.9321,72.7095 77.5,71.5C 86.4225,69.5525 92.0892,64.2191 94.5,55.5C 95.2216,55.0825 95.7216,54.4158 96,53.5C 96.498,50.5184 96.6646,47.5184 96.5,44.5 Z"/></g>
<g><path style="opacity:1" fill="#ce512e" d="M 117.5,69.5 C 119.071,71.6351 120.404,73.9684 121.5,76.5C 120.962,78.1172 120.629,79.7839 120.5,81.5C 120.5,82.1667 120.167,82.5 119.5,82.5C 118.305,82.1344 117.639,81.301 117.5,80C 117.66,76.8399 117.66,73.6733 117.5,70.5C 117.5,70.1667 117.5,69.8333 117.5,69.5 Z"/></g>
<g><path style="opacity:1" fill="#903b69" d="M 121.5,76.5 C 122.401,77.2905 123.068,78.2905 123.5,79.5C 122.778,80.5511 121.778,81.2178 120.5,81.5C 120.629,79.7839 120.962,78.1172 121.5,76.5 Z"/></g>
<g><path style="opacity:1" fill="#d3522b" d="M 106.5,83.5 C 106.158,84.3382 105.492,84.6716 104.5,84.5C 102.712,84.7852 101.045,84.4519 99.5,83.5C 102.131,81.9954 101.797,81.3287 98.5,81.5C 98.5,80.5 98.5,79.5 98.5,78.5C 99.5,78.5 100.5,78.5 101.5,78.5C 100.801,76.0052 99.8011,73.6719 98.5,71.5C 100.484,71.6168 102.15,70.9501 103.5,69.5C 103.833,70 104.167,70.5 104.5,71C 104.957,73.8943 104.957,76.8943 104.5,80C 104.862,81.4343 105.528,82.6009 106.5,83.5 Z"/></g>
<g><path style="opacity:1" fill="#b04446" d="M 123.5,79.5 C 124.942,80.8195 125.608,82.4862 125.5,84.5C 123.565,83.8505 121.565,83.5172 119.5,83.5C 119.5,83.1667 119.5,82.8333 119.5,82.5C 120.167,82.5 120.5,82.1667 120.5,81.5C 121.778,81.2178 122.778,80.5511 123.5,79.5 Z"/></g>
<g><path style="opacity:1" fill="#8f2c4a" d="M 116.5,70.5 C 116.833,70.5 117.167,70.5 117.5,70.5C 117.66,73.6733 117.66,76.8399 117.5,80C 117.639,81.301 118.305,82.1344 119.5,82.5C 119.5,82.8333 119.5,83.1667 119.5,83.5C 118.051,85.1644 116.051,85.9977 113.5,86C 118.155,86.4992 122.821,86.6658 127.5,86.5C 127.5,86.8333 127.5,87.1667 127.5,87.5C 119.146,87.5728 110.812,87.2395 102.5,86.5C 103.167,85.8333 103.833,85.1667 104.5,84.5C 105.492,84.6716 106.158,84.3382 106.5,83.5C 107.976,85.4318 109.643,85.7652 111.5,84.5C 113.857,84.6633 116.19,84.4966 118.5,84C 116.673,83.1007 115.34,81.7674 114.5,80C 116.192,77.0647 116.858,73.8981 116.5,70.5 Z"/></g>
<g><path style="opacity:1" fill="#661966" d="M 119.5,83.5 C 121.565,83.5172 123.565,83.8505 125.5,84.5C 126.5,84.8333 127.167,85.5 127.5,86.5C 122.821,86.6658 118.155,86.4992 113.5,86C 116.051,85.9977 118.051,85.1644 119.5,83.5 Z"/></g>
<g><path style="opacity:1" fill="#e45812" d="M 102.5,86.5 C 110.812,87.2395 119.146,87.5728 127.5,87.5C 129.316,89.1184 130.649,91.1184 131.5,93.5C 121.126,93.7664 110.793,93.2664 100.5,92C 98.8203,89.1892 99.4869,87.3559 102.5,86.5 Z"/></g>
<g><path style="opacity:1" fill="#bd4940" d="M 132.5,95.5 C 133.167,95.5 133.5,95.8333 133.5,96.5C 122.67,96.975 112.003,96.475 101.5,95C 111.843,94.4846 122.177,94.6512 132.5,95.5 Z"/></g>
<g><path style="opacity:1" fill="#dc5622" d="M 134.5,98.5 C 137.323,102.136 139.656,106.136 141.5,110.5C 140.167,123.5 140.167,136.5 141.5,149.5C 141.167,150.5 140.5,151.167 139.5,151.5C 139.667,137.163 139.5,122.829 139,108.5C 135.695,102.699 131.528,102.033 126.5,106.5C 124.574,104.707 122.241,103.707 119.5,103.5C 119.5,104.5 119.5,105.5 119.5,106.5C 116.754,103.695 113.421,102.861 109.5,104C 108.619,104.708 107.953,105.542 107.5,106.5C 106.514,110.97 106.181,115.637 106.5,120.5C 104.75,119.341 103.75,117.674 103.5,115.5C 103.665,112.15 103.498,108.817 103,105.5C 101.049,103.863 101.216,102.363 103.5,101C 113.703,98.778 124.036,97.9447 134.5,98.5 Z"/></g>
<g><path style="opacity:1" fill="#e7590d" d="M 126.5,106.5 C 126.351,107.552 126.517,108.552 127,109.5C 130.689,107.561 133.023,108.561 134,112.5C 135.208,127.81 135.708,143.143 135.5,158.5C 134.286,161.93 132.786,165.264 131,168.5C 127.68,173.647 123.847,178.314 119.5,182.5C 119.5,175.833 119.5,169.167 119.5,162.5C 122.063,155.879 122.063,149.212 119.5,142.5C 119.5,130.5 119.5,118.5 119.5,106.5C 119.5,105.5 119.5,104.5 119.5,103.5C 122.241,103.707 124.574,104.707 126.5,106.5 Z"/></g>
<g><path style="opacity:1" fill="#e2581c" d="M 114.5,133.5 C 111.769,131.054 109.769,128.054 108.5,124.5C 108.5,119.833 108.5,115.167 108.5,110.5C 109.811,107.867 111.311,107.867 113,110.5C 113.887,118.145 114.387,125.811 114.5,133.5 Z"/></g>
<g><path style="opacity:1" fill="#651b6b" d="M 119.5,106.5 C 119.5,118.5 119.5,130.5 119.5,142.5C 116.595,140.244 114.928,137.244 114.5,133.5C 114.387,125.811 113.887,118.145 113,110.5C 111.311,107.867 109.811,107.867 108.5,110.5C 107.566,109.432 107.232,108.099 107.5,106.5C 107.953,105.542 108.619,104.708 109.5,104C 113.421,102.861 116.754,103.695 119.5,106.5 Z"/></g>
<g><path style="opacity:1" fill="#711e63" d="M 139.5,151.5 C 138.921,154.331 137.588,156.664 135.5,158.5C 135.708,143.143 135.208,127.81 134,112.5C 133.023,108.561 130.689,107.561 127,109.5C 126.517,108.552 126.351,107.552 126.5,106.5C 131.528,102.033 135.695,102.699 139,108.5C 139.5,122.829 139.667,137.163 139.5,151.5 Z"/></g>
<g><path style="opacity:1" fill="#e85c0c" d="M 141.5,110.5 C 145.273,116.537 148.94,122.704 152.5,129C 148.434,135.633 144.767,142.466 141.5,149.5C 140.167,136.5 140.167,123.5 141.5,110.5 Z"/></g>
<g><path style="opacity:1" fill="#882946" d="M 107.5,106.5 C 107.232,108.099 107.566,109.432 108.5,110.5C 108.5,115.167 108.5,119.833 108.5,124.5C 107.326,123.486 106.66,122.153 106.5,120.5C 106.181,115.637 106.514,110.97 107.5,106.5 Z"/></g>
<g><path style="opacity:1" fill="#e95b0a" d="M 113.5,167.5 C 114.491,173.979 114.824,180.646 114.5,187.5C 112.784,189.025 110.784,190.025 108.5,190.5C 107.509,183.687 107.175,176.687 107.5,169.5C 109.5,168.833 111.5,168.167 113.5,167.5 Z"/></g>
<g><path style="opacity:1" fill="#a5423c" d="M 113.5,167.5 C 113.842,166.662 114.508,166.328 115.5,166.5C 115.5,173.167 115.5,179.833 115.5,186.5C 115.5,187.167 115.167,187.5 114.5,187.5C 114.824,180.646 114.491,173.979 113.5,167.5 Z"/></g>
<g><path style="opacity:1" fill="#681d6a" d="M 119.5,162.5 C 119.5,169.167 119.5,175.833 119.5,182.5C 118.5,184.167 117.167,185.5 115.5,186.5C 115.5,179.833 115.5,173.167 115.5,166.5C 116.5,164.833 117.833,163.5 119.5,162.5 Z"/></g>
<g><path style="opacity:1" fill="#641c6e" d="M 106.5,170.5 C 106.5,177.5 106.5,184.5 106.5,191.5C 89.0053,197.086 77.672,191.086 72.5,173.5C 72.7019,171.077 73.8686,169.411 76,168.5C 85.9688,172.739 96.1355,173.406 106.5,170.5 Z"/></g>
<g><path style="opacity:1" fill="#ca533e" d="M 107.5,169.5 C 107.175,176.687 107.509,183.687 108.5,190.5C 108.158,191.338 107.492,191.672 106.5,191.5C 106.5,184.5 106.5,177.5 106.5,170.5C 106.5,169.833 106.833,169.5 107.5,169.5 Z"/></g>
</svg>
