<svg id="svg" version="1.1" xmlns="http://www.w3.org/2000/svg" xmlns:xlink="http://www.w3.org/1999/xlink" width="400" height="400" viewBox="0, 0, 400,400"><g id="svgg"><path id="path0" d="M95.224 250.776 C 94.302 251.698,93.883 343.387,94.790 345.774 L 95.180 346.800 105.000 346.800 L 114.820 346.800 115.210 345.774 C 115.454 345.133,115.600 330.276,115.600 306.192 L 115.600 267.636 116.991 267.375 C 123.796 266.099,139.230 267.791,143.004 270.228 C 152.732 276.508,152.730 291.319,143.000 297.799 C 139.877 299.879,137.076 300.433,128.468 300.674 C 118.349 300.958,118.737 300.353,124.027 307.600 C 124.910 308.810,125.939 310.250,126.313 310.800 C 126.687 311.350,127.136 311.980,127.310 312.200 C 127.675 312.661,135.489 323.543,136.874 325.521 C 137.384 326.247,138.520 327.823,139.400 329.022 C 140.280 330.221,141.720 332.197,142.600 333.413 C 143.480 334.628,144.515 336.005,144.900 336.473 C 145.285 336.940,145.600 337.447,145.600 337.600 C 145.600 337.753,145.915 338.260,146.300 338.727 C 146.685 339.195,147.720 340.584,148.600 341.814 C 149.480 343.044,150.716 344.672,151.347 345.432 L 152.494 346.813 163.347 346.706 L 174.200 346.600 174.062 345.627 C 173.987 345.092,173.357 343.884,172.662 342.943 C 171.968 342.002,170.984 340.640,170.474 339.916 C 169.650 338.743,161.994 328.073,160.707 326.302 C 160.428 325.918,159.784 325.018,159.276 324.302 C 158.767 323.586,157.194 321.393,155.780 319.429 C 152.759 315.234,152.405 314.395,153.410 313.815 C 159.335 310.392,166.031 302.748,168.464 296.628 C 171.209 289.723,171.396 276.531,168.816 271.674 C 168.620 271.303,167.933 269.830,167.292 268.400 C 165.103 263.524,160.349 257.959,156.551 255.827 C 155.918 255.472,154.500 254.658,153.400 254.017 C 152.300 253.377,151.130 252.840,150.800 252.824 C 150.470 252.808,149.689 252.528,149.064 252.203 C 144.994 250.080,97.187 248.813,95.224 250.776 M282.027 250.750 C 281.725 251.313,281.627 265.754,281.698 299.077 L 281.800 346.600 301.000 346.710 C 316.932 346.801,320.717 346.716,323.240 346.210 C 324.912 345.874,326.595 345.600,326.979 345.600 C 327.364 345.600,328.246 345.345,328.940 345.033 C 329.633 344.721,331.088 344.086,332.174 343.623 C 345.557 337.907,351.453 317.915,343.018 306.851 C 341.707 305.131,337.397 300.800,336.996 300.800 C 336.737 300.800,336.198 300.440,335.800 300.000 C 335.402 299.560,334.784 299.200,334.427 299.200 C 334.070 299.200,333.395 298.932,332.927 298.604 C 332.459 298.276,331.159 297.811,330.038 297.571 C 327.313 296.986,327.849 295.890,331.646 294.283 C 338.997 291.171,344.301 281.825,343.918 272.661 C 343.427 260.918,336.688 253.314,324.649 250.917 C 319.028 249.798,282.613 249.655,282.027 250.750 M186.629 251.029 C 185.554 252.103,185.711 314.014,186.804 320.400 C 188.577 330.751,192.257 336.690,200.251 342.100 C 201.795 343.145,203.280 344.000,203.550 344.000 C 203.820 344.000,204.707 344.351,205.521 344.781 C 215.938 350.280,236.804 349.245,247.808 342.682 C 254.393 338.756,262.400 328.324,262.400 323.672 C 262.400 323.248,262.714 322.113,263.098 321.150 C 263.794 319.404,264.461 253.915,263.809 251.300 L 263.585 250.400 253.600 250.400 L 243.615 250.400 243.405 251.300 C 243.289 251.795,243.145 266.690,243.084 284.400 C 242.963 320.092,243.066 318.665,240.273 323.081 C 234.925 331.537,219.343 332.677,212.166 325.137 C 207.341 320.068,207.200 318.814,207.200 280.931 C 207.200 261.717,207.060 251.687,206.786 251.174 C 206.210 250.098,187.693 249.965,186.629 251.029 M323.400 258.642 C 330.506 261.407,333.365 264.337,334.848 270.375 C 336.025 275.169,335.463 280.707,333.495 283.711 C 333.113 284.294,332.800 284.920,332.800 285.101 C 332.800 285.556,329.101 289.159,327.945 289.830 C 327.425 290.132,326.370 290.658,325.600 290.999 C 324.830 291.341,323.846 291.822,323.412 292.068 C 321.109 293.378,292.936 294.343,290.774 293.186 C 289.801 292.665,289.535 258.265,290.500 257.854 C 292.087 257.178,321.444 257.881,323.400 258.642 M323.254 301.792 C 333.353 304.417,337.808 309.997,337.790 320.000 L 337.781 325.400 336.285 328.461 C 333.753 333.640,330.643 336.165,324.331 338.164 L 321.000 339.220 305.600 339.110 L 290.200 339.000 290.096 320.226 C 290.014 305.472,290.100 301.384,290.496 301.132 C 291.933 300.220,319.328 300.772,323.254 301.792 " stroke="none" fill="#f8f9f9" fill-rule="evenodd"></path><path id="path1" d="M10.400 200.000 L 10.400 389.600 200.000 389.600 L 389.600 389.600 389.600 200.000 L 389.600 10.400 200.000 10.400 L 10.400 10.400 10.400 200.000 M144.264 250.937 C 146.279 251.307,148.439 251.877,149.064 252.203 C 149.689 252.528,150.470 252.808,150.800 252.824 C 151.130 252.840,152.300 253.377,153.400 254.017 C 154.500 254.658,155.918 255.472,156.551 255.827 C 160.349 257.959,165.103 263.524,167.292 268.400 C 167.933 269.830,168.620 271.303,168.816 271.674 C 171.396 276.531,171.209 289.723,168.464 296.628 C 166.031 302.748,159.335 310.392,153.410 313.815 C 152.405 314.395,152.759 315.234,155.780 319.429 C 157.194 321.393,158.767 323.586,159.276 324.302 C 159.784 325.018,160.428 325.918,160.707 326.302 C 161.994 328.073,169.650 338.743,170.474 339.916 C 170.984 340.640,171.968 342.002,172.662 342.943 C 173.357 343.884,173.987 345.092,174.062 345.627 L 174.200 346.600 163.347 346.706 L 152.494 346.813 151.347 345.432 C 150.716 344.672,149.480 343.044,148.600 341.814 C 147.720 340.584,146.685 339.195,146.300 338.727 C 145.915 338.260,145.600 337.753,145.600 337.600 C 145.600 337.447,145.285 336.940,144.900 336.473 C 144.515 336.005,143.480 334.628,142.600 333.413 C 141.720 332.197,140.280 330.221,139.400 329.022 C 138.520 327.823,137.384 326.247,136.874 325.521 C 135.489 323.543,127.675 312.661,127.310 312.200 C 127.136 311.980,126.687 311.350,126.313 310.800 C 125.939 310.250,124.910 308.810,124.027 307.600 C 118.737 300.353,118.349 300.958,128.468 300.674 C 137.076 300.433,139.877 299.879,143.000 297.799 C 152.730 291.319,152.732 276.508,143.004 270.228 C 139.230 267.791,123.796 266.099,116.991 267.375 L 115.600 267.636 115.600 306.192 C 115.600 330.276,115.454 345.133,115.210 345.774 L 114.820 346.800 105.000 346.800 L 95.180 346.800 94.790 345.774 C 93.883 343.387,94.302 251.698,95.224 250.776 C 96.359 249.641,137.949 249.778,144.264 250.937 M324.649 250.917 C 336.688 253.314,343.427 260.918,343.918 272.661 C 344.301 281.825,338.997 291.171,331.646 294.283 C 327.849 295.890,327.313 296.986,330.038 297.571 C 331.159 297.811,332.459 298.276,332.927 298.604 C 333.395 298.932,334.070 299.200,334.427 299.200 C 334.784 299.200,335.402 299.560,335.800 300.000 C 336.198 300.440,336.737 300.800,336.996 300.800 C 337.397 300.800,341.707 305.131,343.018 306.851 C 351.453 317.915,345.557 337.907,332.174 343.623 C 331.088 344.086,329.633 344.721,328.940 345.033 C 328.246 345.345,327.364 345.600,326.979 345.600 C 326.595 345.600,324.912 345.874,323.240 346.210 C 320.717 346.716,316.932 346.801,301.000 346.710 L 281.800 346.600 281.698 299.077 C 281.627 265.754,281.725 251.313,282.027 250.750 C 282.613 249.655,319.028 249.798,324.649 250.917 M206.786 251.174 C 207.060 251.687,207.200 261.717,207.200 280.931 C 207.200 318.814,207.341 320.068,212.166 325.137 C 218.109 331.381,231.978 331.809,237.956 325.933 C 243.086 320.892,242.956 321.940,243.084 284.400 C 243.145 266.690,243.289 251.795,243.405 251.300 L 243.615 250.400 253.600 250.400 L 263.585 250.400 263.809 251.300 C 264.461 253.915,263.794 319.404,263.098 321.150 C 262.714 322.113,262.400 323.248,262.400 323.672 C 262.400 328.324,254.393 338.756,247.808 342.682 C 236.804 349.245,215.938 350.280,205.521 344.781 C 204.707 344.351,203.820 344.000,203.550 344.000 C 203.280 344.000,201.795 343.145,200.251 342.100 C 192.257 336.690,188.577 330.751,186.804 320.400 C 185.711 314.014,185.554 252.103,186.629 251.029 C 187.693 249.965,206.210 250.098,206.786 251.174 M290.500 257.854 C 289.535 258.265,289.801 292.665,290.774 293.186 C 292.936 294.343,321.109 293.378,323.412 292.068 C 323.846 291.822,324.830 291.341,325.600 290.999 C 326.370 290.658,327.425 290.132,327.945 289.830 C 329.101 289.159,332.800 285.556,332.800 285.101 C 332.800 284.920,333.113 284.294,333.495 283.711 C 335.463 280.707,336.025 275.169,334.848 270.375 C 333.365 264.337,330.506 261.407,323.400 258.642 C 321.444 257.881,292.087 257.178,290.500 257.854 M290.496 301.132 C 290.100 301.384,290.014 305.472,290.096 320.226 L 290.200 339.000 305.600 339.110 L 321.000 339.220 324.331 338.164 C 330.643 336.165,333.753 333.640,336.285 328.461 L 337.781 325.400 337.790 320.000 C 337.808 309.997,333.353 304.417,323.254 301.792 C 319.328 300.772,291.933 300.220,290.496 301.132 " stroke="none" fill="#043464" fill-rule="evenodd"></path></g></svg>