<svg xmlns="http://www.w3.org/2000/svg" width="223" height="223" viewBox="0 0 223 223" version="1.1"><path d="M 16.347 88.589 C 8.731 96.613, 2.411 103.475, 2.302 103.839 C 2.193 104.202, 8.622 111.250, 16.588 119.500 L 31.073 134.500 45.506 119.500 C 53.445 111.250, 59.841 104.229, 59.720 103.899 C 59.318 102.800, 31.512 74.012, 30.847 74.006 C 30.488 74.003, 23.963 80.565, 16.347 88.589 M 22.411 87.891 C 13.055 93.596, 10.295 106.046, 16.424 114.891 C 23.413 124.975, 38.896 124.663, 46 114.295 C 49.667 108.944, 49.537 99.930, 45.710 94.142 C 44.175 91.821, 41.475 89.041, 39.710 87.965 C 35.419 85.348, 26.642 85.311, 22.411 87.891 M 27.104 88.113 C 20.858 89.390, 15 97.152, 15 104.152 C 15 108.753, 18.422 115.129, 22.297 117.750 C 29.580 122.676, 41.129 119.497, 45 111.500 C 48.655 103.951, 47.035 96.647, 40.513 91.272 C 36.542 87.998, 32.417 87.026, 27.104 88.113 M 68.761 91.715 C 63.466 92.518, 61.230 99.230, 65 103 C 66.679 104.679, 68.333 105, 75.300 105 C 83.842 105, 86 105.840, 86 109.165 C 86 111.828, 82.833 113, 75.637 113 C 69.374 113, 66 111.575, 66 108.929 C 66 108.418, 65.325 108, 64.500 108 C 62.604 108, 62.561 111.018, 64.421 113.559 C 65.663 115.255, 67.097 115.500, 75.769 115.500 C 87.518 115.500, 89 114.721, 89 108.547 C 89 103.080, 87.122 102.099, 76 101.760 C 67.544 101.501, 67.498 101.486, 67.184 98.750 C 66.796 95.379, 69.678 94, 77.113 94 C 81.230 94, 82.526 94.465, 84.574 96.674 C 86.329 98.568, 87.363 99.037, 88.119 98.281 C 89.641 96.759, 87.500 93.141, 84.374 91.952 C 81.912 91.016, 74.146 90.898, 68.761 91.715 M 92 103.500 C 92 114.737, 92.177 116, 93.750 116.002 C 95.340 116.003, 95.472 114.859, 95.193 103.502 C 94.945 93.418, 94.607 91, 93.443 91 C 92.263 91, 92 93.276, 92 103.500 M 103.259 91.659 C 99.453 92.470, 98 95.772, 98 103.612 C 98 109.177, 98.427 111.306, 99.911 113.139 C 101.703 115.354, 102.484 115.500, 112.497 115.500 C 122.510 115.500, 123.292 115.353, 125.086 113.139 C 126.238 111.718, 127 109.231, 127 106.889 L 127 103 119 103 C 112.672 103, 111 103.304, 111 104.452 C 111 105.535, 112.589 105.980, 117.250 106.202 C 122.861 106.470, 123.467 106.704, 123.181 108.500 C 122.591 112.196, 120.020 113.171, 111.795 112.819 C 107.236 112.624, 103.560 111.960, 102.795 111.195 C 101.227 109.627, 101.024 97.576, 102.540 96.060 C 104.082 94.518, 112.180 93.650, 117.536 94.453 C 120.969 94.968, 122.363 95.673, 122.731 97.078 C 123.303 99.267, 127 99.728, 127 97.611 C 127 96.847, 126.140 95.159, 125.089 93.861 C 123.363 91.729, 122.322 91.485, 114.339 91.341 C 109.478 91.253, 104.491 91.397, 103.259 91.659 M 136.102 97.207 C 134.233 100.668, 131.157 106.313, 129.266 109.750 L 125.828 116 128.253 116 C 129.945 116, 131.039 115.168, 131.867 113.250 L 133.055 110.500 131.096 112.985 C 126.842 118.381, 128.153 113.636, 133.760 103.343 C 138.519 94.608, 140.136 92.446, 142.083 92.223 C 144.705 91.922, 144.521 91.669, 152.704 106.750 C 155.588 112.063, 156.704 114.995, 155.841 114.986 C 155.103 114.978, 152.568 111.378, 150.206 106.986 C 147.844 102.594, 145.668 99, 145.370 99 C 145.073 99, 146.855 102.713, 149.331 107.250 C 152.446 112.958, 154.475 115.598, 155.917 115.820 C 157.062 115.995, 157.999 115.770, 157.998 115.320 C 157.996 114.869, 155.154 109.325, 151.683 103 C 146.041 92.723, 145.058 91.469, 142.435 91.207 C 139.761 90.940, 139.197 91.475, 136.102 97.207 M 160 103.500 C 160 115.333, 160.107 116, 162 116 C 163.704 116, 164 115.333, 164 111.500 L 164 107 173.500 107 C 184.790 107, 187 105.690, 187 99 C 187 92.036, 184.993 91, 171.500 91 L 160 91 160 103.500 M 188.998 91.750 C 188.997 92.162, 194.114 92.361, 200.368 92.192 C 213.480 91.836, 215 92.543, 215 99 C 215 105.138, 213.391 106, 201.929 106 L 192 106 192 110.500 C 192 115.676, 190.325 116.596, 189.723 111.750 C 189.326 108.550, 189.318 108.558, 189.160 112.250 C 189.026 115.387, 189.327 116, 191 116 C 192.704 116, 193 115.333, 193 111.500 L 193 107 202.277 107 C 213.946 107, 216 105.869, 216 99.443 C 216 91.979, 214.202 91, 200.500 91 C 194.175 91, 188.999 91.338, 188.998 91.750 M 161 103.500 C 161 110.500, 161.391 115, 162 115 C 162.550 115, 163 112.975, 163 110.500 L 163 106 172.845 106 C 184.084 106, 186 104.955, 186 98.826 C 186 92.966, 183.973 92, 171.671 92 L 161 92 161 103.500 M 137.095 101.563 C 134.728 105.722, 132.991 109.325, 133.235 109.568 C 133.478 109.812, 135.466 106.746, 137.653 102.755 C 139.839 98.765, 142.195 95.624, 142.888 95.775 C 143.581 95.926, 143.864 95.588, 143.515 95.025 C 142.313 93.080, 141.382 94.027, 137.095 101.563 M 163.168 98.214 L 163.336 102.500 163.728 98.750 L 164.121 95 172.977 95 C 178.028 95, 182.052 95.440, 182.342 96.025 C 182.621 96.589, 182.735 96.476, 182.594 95.775 C 182.413 94.872, 179.519 94.417, 172.669 94.214 L 163 93.928 163.168 98.214 M 189.336 101 C 189.336 105.125, 189.513 106.813, 189.728 104.750 C 189.944 102.688, 189.944 99.313, 189.728 97.250 C 189.513 95.188, 189.336 96.875, 189.336 101 M 192 99 L 192 104 201.300 104 C 211.360 104, 213 103.299, 213 99 C 213 94.701, 211.360 94, 201.300 94 L 192 94 192 99 M 193 99 L 193 103 201.981 103 C 210.724 103, 210.978 102.934, 211.589 100.502 C 212.824 95.580, 211.816 95, 202.031 95 L 193 95 193 99 M 17.659 100.446 C 17.005 102.151, 18.509 102.604, 19.500 101 C 20.250 99.786, 22 99.674, 22 100.839 C 22 101.301, 20.843 102.206, 19.429 102.850 C 15.704 104.548, 16.572 107.490, 20.811 107.533 C 24.033 107.566, 24.088 107.491, 23.797 103.533 C 23.538 100.016, 23.164 99.461, 20.878 99.196 C 19.217 99.003, 18.037 99.461, 17.659 100.446 M 26.200 100.200 C 24.555 101.845, 24.691 105.499, 26.452 106.960 C 28.283 108.480, 32 107.375, 32 105.310 C 32 104.062, 31.713 103.994, 30.544 104.964 C 28.909 106.320, 27 105.566, 27 103.563 C 27 101.533, 29.690 99.593, 30.266 101.208 C 30.519 101.919, 31.058 102.192, 31.463 101.817 C 32.579 100.782, 31.110 99, 29.141 99 C 28.183 99, 26.860 99.540, 26.200 100.200 M 33.886 100.895 C 33.823 101.778, 33.623 103.767, 33.441 105.315 C 33.223 107.166, 33.519 107.992, 34.305 107.727 C 34.962 107.505, 35.517 106.045, 35.539 104.482 C 35.560 102.920, 36.122 101.459, 36.789 101.237 C 37.587 100.971, 38 102.055, 38 104.417 C 38 108.847, 39.757 109.176, 40.187 104.827 C 40.639 100.243, 43 99.898, 43 104.417 C 43 106.388, 43.476 108, 44.057 108 C 44.683 108, 44.989 106.265, 44.807 103.750 L 44.500 99.500 39.250 99.395 C 35.098 99.313, 33.976 99.626, 33.886 100.895 M 182 101.833 C 182 102.628, 178.893 103.066, 172.250 103.208 L 162.500 103.415 171.910 103.747 C 180.609 104.054, 184.518 103.184, 182.683 101.350 C 182.308 100.974, 182 101.192, 182 101.833 M 19 105 C 19 105.550, 19.423 106, 19.941 106 C 20.459 106, 21.160 105.550, 21.500 105 C 21.840 104.450, 21.416 104, 20.559 104 C 19.702 104, 19 104.450, 19 105" stroke="none" fill="#4c769c" fill-rule="evenodd"/><path d="M -0 111.504 L -0 223.009 111.750 222.754 L 223.500 222.500 223.754 111.250 L 224.009 0 112.004 0 L 0 0 -0 111.504 M 0.483 112 C 0.483 173.325, 0.603 198.413, 0.750 167.750 C 0.897 137.088, 0.897 86.913, 0.750 56.250 C 0.603 25.588, 0.483 50.675, 0.483 112 M 16.347 88.589 C 8.731 96.613, 2.411 103.475, 2.302 103.839 C 2.193 104.202, 8.622 111.250, 16.588 119.500 L 31.073 134.500 45.506 119.500 C 53.445 111.250, 59.841 104.229, 59.720 103.899 C 59.318 102.800, 31.512 74.012, 30.847 74.006 C 30.488 74.003, 23.963 80.565, 16.347 88.589 M 22.411 87.891 C 13.055 93.596, 10.295 106.046, 16.424 114.891 C 23.413 124.975, 38.896 124.663, 46 114.295 C 49.667 108.944, 49.537 99.930, 45.710 94.142 C 44.175 91.821, 41.475 89.041, 39.710 87.965 C 35.419 85.348, 26.642 85.311, 22.411 87.891 M 27.104 88.113 C 20.858 89.390, 15 97.152, 15 104.152 C 15 108.753, 18.422 115.129, 22.297 117.750 C 29.580 122.676, 41.129 119.497, 45 111.500 C 48.655 103.951, 47.035 96.647, 40.513 91.272 C 36.542 87.998, 32.417 87.026, 27.104 88.113 M 68.761 91.715 C 63.466 92.518, 61.230 99.230, 65 103 C 66.679 104.679, 68.333 105, 75.300 105 C 83.842 105, 86 105.840, 86 109.165 C 86 111.828, 82.833 113, 75.637 113 C 69.374 113, 66 111.575, 66 108.929 C 66 108.418, 65.325 108, 64.500 108 C 62.604 108, 62.561 111.018, 64.421 113.559 C 65.663 115.255, 67.097 115.500, 75.769 115.500 C 87.518 115.500, 89 114.721, 89 108.547 C 89 103.080, 87.122 102.099, 76 101.760 C 67.544 101.501, 67.498 101.486, 67.184 98.750 C 66.796 95.379, 69.678 94, 77.113 94 C 81.230 94, 82.526 94.465, 84.574 96.674 C 86.329 98.568, 87.363 99.037, 88.119 98.281 C 89.641 96.759, 87.500 93.141, 84.374 91.952 C 81.912 91.016, 74.146 90.898, 68.761 91.715 M 92 103.500 C 92 114.737, 92.177 116, 93.750 116.002 C 95.340 116.003, 95.472 114.859, 95.193 103.502 C 94.945 93.418, 94.607 91, 93.443 91 C 92.263 91, 92 93.276, 92 103.500 M 103.259 91.659 C 99.453 92.470, 98 95.772, 98 103.612 C 98 109.177, 98.427 111.306, 99.911 113.139 C 101.703 115.354, 102.484 115.500, 112.497 115.500 C 122.510 115.500, 123.292 115.353, 125.086 113.139 C 126.238 111.718, 127 109.231, 127 106.889 L 127 103 119 103 C 112.672 103, 111 103.304, 111 104.452 C 111 105.535, 112.589 105.980, 117.250 106.202 C 122.861 106.470, 123.467 106.704, 123.181 108.500 C 122.591 112.196, 120.020 113.171, 111.795 112.819 C 107.236 112.624, 103.560 111.960, 102.795 111.195 C 101.227 109.627, 101.024 97.576, 102.540 96.060 C 104.082 94.518, 112.180 93.650, 117.536 94.453 C 120.969 94.968, 122.363 95.673, 122.731 97.078 C 123.303 99.267, 127 99.728, 127 97.611 C 127 96.847, 126.140 95.159, 125.089 93.861 C 123.363 91.729, 122.322 91.485, 114.339 91.341 C 109.478 91.253, 104.491 91.397, 103.259 91.659 M 136.102 97.207 C 134.233 100.668, 131.157 106.313, 129.266 109.750 L 125.828 116 128.253 116 C 129.945 116, 131.039 115.168, 131.867 113.250 L 133.055 110.500 131.096 112.985 C 126.842 118.381, 128.153 113.636, 133.760 103.343 C 138.519 94.608, 140.136 92.446, 142.083 92.223 C 144.705 91.922, 144.521 91.669, 152.704 106.750 C 155.588 112.063, 156.704 114.995, 155.841 114.986 C 155.103 114.978, 152.568 111.378, 150.206 106.986 C 147.844 102.594, 145.668 99, 145.370 99 C 145.073 99, 146.855 102.713, 149.331 107.250 C 152.446 112.958, 154.475 115.598, 155.917 115.820 C 157.062 115.995, 157.999 115.770, 157.998 115.320 C 157.996 114.869, 155.154 109.325, 151.683 103 C 146.041 92.723, 145.058 91.469, 142.435 91.207 C 139.761 90.940, 139.197 91.475, 136.102 97.207 M 160 103.500 C 160 115.333, 160.107 116, 162 116 C 163.704 116, 164 115.333, 164 111.500 L 164 107 173.500 107 C 184.790 107, 187 105.690, 187 99 C 187 92.036, 184.993 91, 171.500 91 L 160 91 160 103.500 M 188.998 91.750 C 188.997 92.162, 194.114 92.361, 200.368 92.192 C 213.480 91.836, 215 92.543, 215 99 C 215 105.138, 213.391 106, 201.929 106 L 192 106 192 110.500 C 192 115.676, 190.325 116.596, 189.723 111.750 C 189.326 108.550, 189.318 108.558, 189.160 112.250 C 189.026 115.387, 189.327 116, 191 116 C 192.704 116, 193 115.333, 193 111.500 L 193 107 202.277 107 C 213.946 107, 216 105.869, 216 99.443 C 216 91.979, 214.202 91, 200.500 91 C 194.175 91, 188.999 91.338, 188.998 91.750 M 161 103.500 C 161 110.500, 161.391 115, 162 115 C 162.550 115, 163 112.975, 163 110.500 L 163 106 172.845 106 C 184.084 106, 186 104.955, 186 98.826 C 186 92.966, 183.973 92, 171.671 92 L 161 92 161 103.500 M 137.095 101.563 C 134.728 105.722, 132.991 109.325, 133.235 109.568 C 133.478 109.812, 135.466 106.746, 137.653 102.755 C 139.839 98.765, 142.195 95.624, 142.888 95.775 C 143.581 95.926, 143.864 95.588, 143.515 95.025 C 142.313 93.080, 141.382 94.027, 137.095 101.563 M 163.168 98.214 L 163.336 102.500 163.728 98.750 L 164.121 95 172.977 95 C 178.028 95, 182.052 95.440, 182.342 96.025 C 182.621 96.589, 182.735 96.476, 182.594 95.775 C 182.413 94.872, 179.519 94.417, 172.669 94.214 L 163 93.928 163.168 98.214 M 189.336 101 C 189.336 105.125, 189.513 106.813, 189.728 104.750 C 189.944 102.688, 189.944 99.313, 189.728 97.250 C 189.513 95.188, 189.336 96.875, 189.336 101 M 192 99 L 192 104 201.300 104 C 211.360 104, 213 103.299, 213 99 C 213 94.701, 211.360 94, 201.300 94 L 192 94 192 99 M 193 99 L 193 103 201.981 103 C 210.724 103, 210.978 102.934, 211.589 100.502 C 212.824 95.580, 211.816 95, 202.031 95 L 193 95 193 99 M 17.659 100.446 C 17.005 102.151, 18.509 102.604, 19.500 101 C 20.250 99.786, 22 99.674, 22 100.839 C 22 101.301, 20.843 102.206, 19.429 102.850 C 15.704 104.548, 16.572 107.490, 20.811 107.533 C 24.033 107.566, 24.088 107.491, 23.797 103.533 C 23.538 100.016, 23.164 99.461, 20.878 99.196 C 19.217 99.003, 18.037 99.461, 17.659 100.446 M 26.200 100.200 C 24.555 101.845, 24.691 105.499, 26.452 106.960 C 28.283 108.480, 32 107.375, 32 105.310 C 32 104.062, 31.713 103.994, 30.544 104.964 C 28.909 106.320, 27 105.566, 27 103.563 C 27 101.533, 29.690 99.593, 30.266 101.208 C 30.519 101.919, 31.058 102.192, 31.463 101.817 C 32.579 100.782, 31.110 99, 29.141 99 C 28.183 99, 26.860 99.540, 26.200 100.200 M 33.886 100.895 C 33.823 101.778, 33.623 103.767, 33.441 105.315 C 33.223 107.166, 33.519 107.992, 34.305 107.727 C 34.962 107.505, 35.517 106.045, 35.539 104.482 C 35.560 102.920, 36.122 101.459, 36.789 101.237 C 37.587 100.971, 38 102.055, 38 104.417 C 38 108.847, 39.757 109.176, 40.187 104.827 C 40.639 100.243, 43 99.898, 43 104.417 C 43 106.388, 43.476 108, 44.057 108 C 44.683 108, 44.989 106.265, 44.807 103.750 L 44.500 99.500 39.250 99.395 C 35.098 99.313, 33.976 99.626, 33.886 100.895 M 182 101.833 C 182 102.628, 178.893 103.066, 172.250 103.208 L 162.500 103.415 171.910 103.747 C 180.609 104.054, 184.518 103.184, 182.683 101.350 C 182.308 100.974, 182 101.192, 182 101.833 M 19 105 C 19 105.550, 19.423 106, 19.941 106 C 20.459 106, 21.160 105.550, 21.500 105 C 21.840 104.450, 21.416 104, 20.559 104 C 19.702 104, 19 104.450, 19 105" stroke="none" fill="#f9fafa" fill-rule="evenodd"/></svg>