<?xml version="1.0" standalone="no"?>
<!DOCTYPE svg PUBLIC "-//W3C//DTD SVG 20010904//EN"
 "http://www.w3.org/TR/2001/REC-SVG-20010904/DTD/svg10.dtd">
<svg version="1.0" xmlns="http://www.w3.org/2000/svg"
 width="1024.000000pt" height="1024.000000pt" viewBox="0 0 1024.000000 1024.000000"
 preserveAspectRatio="xMidYMid meet">

<g transform="translate(0.000000,1024.000000) scale(0.100000,-0.100000)"
fill="#000000" stroke="none">
<path d="M5 10228 c-3 -7 -4 -2310 -3 -5118 l3 -5105 5115 0 5115 0 0 5115 0
5115 -5113 3 c-4085 2 -5114 0 -5117 -10z m6313 -3503 c350 -61 648 -214 891
-457 244 -243 382 -500 455 -845 26 -125 20 -121 141 -84 87 27 260 38 365 22
367 -53 659 -318 756 -686 23 -87 27 -119 27 -250 -1 -129 -4 -164 -27 -250
-91 -353 -326 -566 -723 -657 l-98 -22 -1560 -3 -1560 -4 -17 22 c-17 20 -18
103 -18 1417 l0 1395 44 43 c150 143 464 293 731 349 173 36 423 40 593 10z
m-2199 -555 c19 -5 38 -15 43 -22 4 -7 8 -603 8 -1325 0 -1287 0 -1312 -19
-1323 -11 -5 -80 -10 -155 -10 -109 0 -138 3 -150 16 -14 14 -16 148 -16 1326
0 1206 1 1313 17 1330 14 15 32 18 127 18 61 0 127 -4 145 -10z m691 -39 c7
-13 10 -439 10 -1308 0 -1150 -2 -1291 -16 -1311 -15 -22 -19 -22 -238 -22
-162 0 -227 3 -239 13 -16 11 -17 99 -15 1312 l3 1300 26 3 c30 3 191 -56 256
-94 23 -13 46 -24 52 -24 6 0 35 34 66 75 57 77 77 89 95 56z m-1290 -41 c13
-8 15 -163 17 -1277 2 -1010 0 -1273 -10 -1293 -12 -25 -14 -25 -161 -28 -101
-2 -153 1 -162 9 -12 10 -14 203 -14 1225 0 1063 2 1214 15 1228 22 22 120 76
205 113 82 36 88 37 110 23z m-632 -1524 c1 -767 -1 -1052 -9 -1062 -9 -11
-48 -14 -165 -14 -141 0 -154 2 -164 19 -7 13 -10 279 -10 794 0 832 -2 801
50 795 20 -3 25 6 51 102 50 179 185 426 228 418 15 -3 16 -91 19 -1052z
m-654 622 c14 -20 16 -116 16 -838 0 -743 -1 -818 -17 -839 -16 -23 -19 -24
-117 -17 -128 8 -176 19 -199 47 -16 20 -17 69 -15 820 2 609 6 801 15 810 18
18 127 37 220 38 74 1 83 -1 97 -21z m-646 -220 c9 -9 12 -158 12 -609 0 -329
-3 -604 -6 -613 -19 -50 -92 14 -188 168 -174 278 -165 641 25 916 43 64 121
150 135 150 6 0 15 -5 22 -12z"/>
</g>
</svg>
