<svg id="svg" version="1.1" xmlns="http://www.w3.org/2000/svg" xmlns:xlink="http://www.w3.org/1999/xlink" width="400" height="415.8590308370044" viewBox="0, 0, 400,415.8590308370044"><g id="svgg"><path id="path0" d="M329.509 45.700 C 322.975 51.971,315.097 59.366,314.191 60.079 C 312.043 61.768,312.113 62.198,315.002 65.017 C 317.883 67.828,317.812 67.792,319.057 67.086 C 321.048 65.957,337.403 50.101,337.758 48.955 C 338.164 47.641,334.131 43.200,332.532 43.200 C 332.302 43.200,330.941 44.325,329.509 45.700 M247.600 57.076 C 243.936 57.690,234.684 61.449,232.858 63.067 C 232.496 63.388,230.760 64.750,229.000 66.094 C 227.240 67.439,222.830 71.442,219.200 74.991 C 213.120 80.935,209.135 84.576,202.989 89.800 C 201.695 90.900,199.720 92.610,198.601 93.600 C 197.482 94.590,195.243 96.570,193.627 98.000 C 190.111 101.110,182.007 107.610,181.294 107.891 C 181.016 108.000,180.206 108.637,179.494 109.305 C 178.328 110.401,172.124 115.155,169.600 116.889 C 169.050 117.266,167.880 118.110,167.000 118.764 C 166.120 119.418,163.960 120.879,162.200 122.012 C 160.440 123.144,158.280 124.598,157.400 125.242 C 154.882 127.085,151.700 129.302,149.875 130.486 C 148.296 131.510,147.486 132.007,143.938 134.127 C 143.133 134.607,141.333 135.799,139.938 136.777 C 138.542 137.754,135.960 139.261,134.200 140.127 C 132.440 140.993,130.730 141.928,130.400 142.206 C 130.070 142.483,128.810 143.209,127.600 143.818 C 126.390 144.427,124.494 145.511,123.386 146.227 C 118.454 149.414,111.122 152.598,108.600 152.647 C 106.223 152.694,103.832 153.210,98.800 154.760 C 93.314 156.451,82.274 159.316,77.600 160.263 C 75.950 160.597,73.970 161.123,73.200 161.432 C 72.430 161.742,70.720 162.259,69.400 162.582 C 68.080 162.905,63.850 164.001,60.000 165.017 C 56.150 166.033,51.878 167.116,50.508 167.424 C 42.696 169.180,42.415 169.419,42.405 174.294 C 42.398 178.210,41.381 179.436,37.652 180.028 C 30.646 181.141,27.121 184.919,26.309 192.185 C 25.807 196.681,26.352 207.534,27.224 210.400 C 27.458 211.170,27.980 213.510,28.382 215.600 C 30.013 224.066,34.828 234.495,38.583 237.696 C 42.339 240.896,44.900 241.578,50.428 240.850 C 55.202 240.221,55.897 240.492,57.600 243.642 C 60.028 248.132,59.633 247.806,62.469 247.667 C 63.861 247.598,66.080 247.288,67.400 246.977 C 71.073 246.112,72.892 246.221,73.972 247.371 C 74.734 248.181,79.447 256.827,80.803 259.900 C 81.021 260.395,81.377 261.205,81.593 261.700 C 81.809 262.195,82.617 263.680,83.389 265.000 C 84.160 266.320,86.164 270.100,87.841 273.400 C 91.258 280.122,91.240 280.089,94.700 286.257 C 96.075 288.708,97.200 290.901,97.200 291.129 C 97.200 291.358,97.757 291.942,98.439 292.428 L 99.677 293.310 104.539 292.418 C 107.212 291.928,110.585 291.278,112.033 290.974 C 113.481 290.670,116.477 290.149,118.692 289.816 C 125.095 288.855,126.195 288.197,127.418 284.599 C 128.222 282.233,127.452 279.101,125.542 276.974 C 125.134 276.520,124.800 275.959,124.800 275.728 C 124.800 275.497,124.409 274.811,123.931 274.203 C 123.188 273.259,121.641 270.380,115.865 259.200 C 115.354 258.210,113.663 255.033,112.108 252.141 C 110.552 249.248,109.149 246.458,108.989 245.941 C 108.828 245.423,108.366 244.343,107.960 243.539 C 106.591 240.824,108.519 239.546,114.800 239.005 C 118.592 238.678,122.350 237.491,125.309 235.684 L 127.619 234.275 134.309 234.542 C 137.989 234.689,141.720 234.984,142.600 235.199 C 143.480 235.414,147.710 236.046,152.000 236.604 C 156.290 237.162,160.880 237.872,162.200 238.181 C 163.520 238.491,165.770 238.857,167.200 238.995 C 168.630 239.133,170.880 239.575,172.200 239.976 C 173.520 240.377,175.590 240.825,176.800 240.972 C 180.289 241.395,198.006 245.490,202.000 246.797 C 203.210 247.192,204.830 247.644,205.600 247.800 C 206.370 247.957,207.540 248.333,208.200 248.637 C 209.340 249.163,212.502 250.088,217.783 251.443 C 220.429 252.122,228.223 254.767,230.400 255.725 C 232.062 256.456,234.763 257.362,238.600 258.476 C 240.140 258.924,241.580 259.431,241.800 259.604 C 242.020 259.777,243.100 260.194,244.200 260.530 C 245.300 260.867,248.000 261.855,250.200 262.727 C 252.400 263.598,255.190 264.700,256.400 265.175 C 257.610 265.651,259.167 266.301,259.860 266.620 C 260.554 266.939,261.403 267.200,261.748 267.200 C 262.093 267.200,263.776 267.663,265.488 268.229 C 269.202 269.458,277.611 269.984,282.145 269.271 C 290.480 267.960,300.956 261.152,305.641 254.000 C 306.434 252.790,307.994 250.415,309.107 248.722 C 310.221 247.029,311.261 245.229,311.419 244.722 C 311.576 244.215,312.012 243.350,312.388 242.800 C 313.076 241.792,313.350 241.081,315.862 233.800 C 317.474 229.125,319.470 221.937,320.026 218.800 C 320.240 217.590,320.772 214.980,321.206 213.000 C 323.083 204.457,324.178 180.205,323.222 168.400 C 322.490 159.376,321.655 152.403,321.022 150.047 C 320.704 148.862,320.334 146.882,320.199 145.647 C 320.064 144.411,319.701 142.680,319.393 141.800 C 319.084 140.920,318.556 138.852,318.218 137.204 C 316.953 131.037,313.229 118.514,312.188 116.925 C 311.864 116.432,311.600 115.815,311.600 115.554 C 311.600 115.293,311.162 114.162,310.626 113.040 C 310.090 111.918,308.437 108.300,306.953 105.000 C 305.468 101.700,304.035 98.730,303.768 98.400 C 303.501 98.070,302.949 97.128,302.542 96.307 C 301.317 93.841,297.161 87.157,295.322 84.696 C 294.375 83.428,293.600 82.228,293.600 82.029 C 293.600 81.830,293.435 81.607,293.234 81.533 C 293.032 81.460,291.935 80.230,290.796 78.800 C 285.838 72.577,285.422 72.157,279.796 67.694 C 273.632 62.804,273.458 62.695,268.262 60.460 C 260.647 57.186,253.722 56.052,247.600 57.076 M258.783 64.216 C 259.562 64.515,261.010 64.966,262.000 65.220 C 263.785 65.676,267.838 67.892,269.426 69.279 C 269.880 69.675,270.370 70.000,270.514 70.000 C 271.656 70.000,280.400 77.743,280.400 78.754 C 280.400 78.959,281.480 80.197,282.800 81.504 C 284.120 82.812,285.200 84.067,285.200 84.292 C 285.200 84.518,285.481 84.935,285.825 85.221 C 286.379 85.680,288.717 88.923,289.799 90.733 C 290.018 91.100,290.575 91.940,291.036 92.600 C 291.496 93.260,291.995 94.295,292.144 94.900 C 292.293 95.505,292.668 96.000,292.976 96.000 C 293.597 96.000,294.214 98.130,293.791 98.814 C 293.486 99.308,292.433 98.132,292.413 97.273 C 292.406 96.983,291.770 96.152,291.000 95.426 C 290.230 94.700,289.600 93.971,289.600 93.806 C 289.600 93.641,289.105 92.906,288.500 92.173 C 286.564 89.827,285.923 88.977,285.456 88.136 C 284.447 86.320,280.179 81.310,278.445 79.907 C 277.430 79.086,275.790 77.682,274.800 76.788 C 268.469 71.068,262.053 68.137,253.336 66.980 C 246.756 66.107,238.459 70.645,232.813 78.205 C 231.388 80.113,227.200 88.557,227.200 89.522 C 227.200 89.774,226.637 91.379,225.949 93.090 C 222.328 102.090,219.706 140.132,222.571 142.094 C 223.853 142.972,232.583 142.186,236.800 140.812 C 253.289 135.442,257.634 135.345,267.043 140.138 L 271.484 142.400 290.866 142.400 C 312.964 142.400,311.411 142.136,312.028 146.000 C 312.256 147.430,312.690 149.500,312.991 150.600 C 313.293 151.700,313.746 154.490,313.998 156.800 C 314.250 159.110,314.713 162.642,315.028 164.650 C 316.008 170.904,315.840 191.360,314.800 192.400 C 314.022 193.178,313.457 193.200,294.100 193.214 C 277.679 193.226,255.309 193.357,234.576 193.564 C 229.459 193.615,229.391 193.690,230.364 198.200 C 230.791 200.180,231.536 202.700,232.020 203.800 C 232.503 204.900,233.215 206.520,233.602 207.400 C 233.988 208.280,234.433 209.450,234.590 210.000 C 234.747 210.550,235.468 212.170,236.193 213.600 C 236.918 215.030,237.995 217.370,238.586 218.800 C 239.177 220.230,239.979 222.030,240.369 222.800 C 240.758 223.570,241.313 224.920,241.602 225.800 C 242.161 227.508,245.239 233.539,246.398 235.200 C 246.782 235.750,247.498 236.995,247.990 237.966 C 249.766 241.474,256.024 248.785,258.200 249.894 C 258.860 250.230,260.211 251.247,261.203 252.153 C 267.822 258.200,272.614 259.834,280.949 258.887 C 286.024 258.310,292.754 254.033,296.618 248.930 C 297.255 248.088,298.513 246.590,299.414 245.600 C 301.275 243.556,302.473 241.604,303.179 239.464 C 303.446 238.656,303.992 237.818,304.394 237.603 C 304.878 237.344,305.216 236.539,305.399 235.206 C 305.766 232.537,306.583 233.000,306.263 235.696 C 306.134 236.790,305.858 237.891,305.650 238.142 C 305.442 238.394,305.146 239.320,304.992 240.200 C 304.839 241.080,304.304 242.430,303.803 243.200 C 303.302 243.970,302.784 245.050,302.652 245.600 C 302.520 246.150,301.597 247.680,300.600 249.000 C 291.664 260.838,281.120 265.619,270.600 262.603 C 267.964 261.848,260.992 258.634,260.595 257.992 C 260.458 257.770,259.712 257.323,258.938 257.000 C 258.164 256.676,256.627 255.599,255.522 254.606 C 254.417 253.613,253.369 252.800,253.192 252.800 C 253.015 252.800,252.109 251.675,251.178 250.300 C 250.247 248.925,248.747 246.976,247.843 245.968 C 246.939 244.961,245.210 242.535,244.000 240.578 C 242.790 238.621,241.123 236.237,240.295 235.280 C 239.467 234.322,238.466 232.877,238.070 232.069 C 237.675 231.261,237.133 230.240,236.867 229.800 C 236.205 228.709,233.301 221.503,232.432 218.800 C 232.044 217.590,231.080 215.207,230.291 213.505 C 228.735 210.147,225.811 200.973,224.968 196.800 C 224.435 194.161,223.759 191.490,222.436 186.800 C 220.915 181.405,220.283 178.503,219.951 175.400 C 219.763 173.640,219.428 171.300,219.208 170.200 C 218.987 169.100,218.513 165.680,218.155 162.600 C 217.797 159.520,217.352 156.010,217.167 154.800 C 216.407 149.838,216.267 121.769,216.967 115.000 C 218.176 103.323,220.285 93.491,222.375 89.800 C 222.749 89.140,223.281 87.702,223.557 86.605 C 223.833 85.508,224.207 84.428,224.387 84.205 C 224.568 83.982,225.386 82.540,226.205 81.000 C 233.316 67.637,247.988 60.078,258.783 64.216 M295.594 101.300 C 295.597 101.685,295.420 102.000,295.200 102.000 C 294.980 102.000,294.803 101.415,294.806 100.700 C 294.811 99.714,294.906 99.545,295.200 100.000 C 295.413 100.330,295.591 100.915,295.594 101.300 M185.209 115.011 C 185.585 115.464,185.763 118.845,185.900 128.111 C 186.138 144.206,184.710 142.400,197.200 142.400 C 209.576 142.400,208.393 140.989,209.600 157.200 C 210.131 164.325,211.021 170.830,212.009 174.800 C 212.420 176.450,213.034 179.420,213.374 181.400 C 213.714 183.380,214.257 186.404,214.579 188.119 C 215.291 191.908,214.970 193.196,213.310 193.209 C 212.699 193.214,206.658 193.235,199.885 193.257 C 188.675 193.292,187.491 193.360,186.685 194.013 L 185.800 194.730 185.941 211.477 C 186.091 229.187,185.901 233.242,184.874 234.268 C 184.127 235.016,179.388 234.739,176.642 233.787 C 175.739 233.474,173.560 233.018,171.800 232.775 C 170.040 232.531,167.340 232.085,165.800 231.783 C 164.260 231.481,161.200 231.035,159.000 230.792 C 156.800 230.549,152.750 230.014,150.000 229.604 C 147.250 229.193,142.840 228.744,140.200 228.606 C 130.719 228.109,131.600 229.978,131.600 210.374 C 131.600 196.095,131.533 194.443,130.939 193.949 C 130.415 193.515,127.745 193.383,118.144 193.317 C 104.704 193.225,104.657 193.216,103.958 190.693 C 102.886 186.830,102.905 167.651,103.984 163.654 C 104.640 161.226,105.812 160.182,108.216 159.889 C 109.907 159.683,119.288 155.332,125.600 151.826 C 126.150 151.520,127.680 150.738,129.000 150.087 C 130.320 149.436,133.178 147.793,135.351 146.435 C 137.523 145.078,140.943 143.100,142.951 142.040 C 145.927 140.468,150.772 137.407,157.800 132.659 C 164.872 127.880,166.953 126.411,168.866 124.850 C 170.112 123.832,173.226 121.470,175.784 119.600 C 178.343 117.730,180.924 115.801,181.518 115.313 C 182.779 114.278,184.485 114.139,185.209 115.011 M366.400 114.669 C 365.850 114.756,364.680 115.087,363.800 115.404 C 362.920 115.721,361.030 116.237,359.600 116.552 C 358.170 116.866,355.470 117.502,353.600 117.964 C 351.730 118.426,349.300 119.009,348.200 119.261 C 343.999 120.220,343.728 120.657,344.671 124.954 C 345.644 129.385,346.520 129.448,358.400 125.953 C 359.830 125.532,362.350 124.936,364.000 124.628 C 371.195 123.285,372.580 122.177,371.468 118.649 C 371.101 117.483,370.800 116.237,370.800 115.879 C 370.800 114.666,369.189 114.223,366.400 114.669 M247.400 141.434 C 246.300 141.777,244.320 142.327,243.000 142.656 C 241.680 142.985,240.033 143.530,239.341 143.868 C 238.648 144.206,236.938 144.739,235.541 145.053 C 228.722 146.584,225.727 147.190,224.962 147.195 C 222.116 147.213,222.366 157.800,225.567 172.800 C 226.201 175.770,227.099 180.360,227.562 183.000 C 228.141 186.301,228.615 187.956,229.079 188.300 C 229.927 188.929,253.716 189.002,257.505 188.387 C 272.144 186.012,281.241 167.856,274.728 154.013 C 273.463 151.323,265.901 143.200,264.663 143.200 C 264.364 143.200,263.237 142.718,262.160 142.129 C 259.659 140.762,250.881 140.348,247.400 141.434 M93.750 163.945 C 94.345 164.602,94.436 166.105,94.531 176.845 C 94.631 188.163,94.711 189.358,95.695 194.200 C 98.668 208.842,102.491 219.409,107.421 226.609 C 111.744 232.924,112.183 232.694,89.800 235.813 C 87.380 236.150,84.050 236.686,82.400 237.004 C 77.451 237.958,68.741 239.226,66.515 239.316 C 63.964 239.419,63.810 239.278,61.361 234.600 C 57.122 226.500,55.630 222.984,54.573 218.600 C 54.255 217.280,53.732 215.570,53.411 214.800 C 50.961 208.928,49.027 193.154,49.463 182.600 L 49.727 176.200 50.964 174.968 C 51.904 174.031,52.823 173.616,54.800 173.238 C 57.704 172.683,67.955 170.075,68.460 169.763 C 68.639 169.652,70.454 169.224,72.493 168.811 C 77.485 167.799,91.428 163.905,91.959 163.374 C 92.341 162.993,93.110 163.238,93.750 163.945 M346.514 197.921 C 346.247 198.091,345.820 199.213,345.565 200.415 C 345.311 201.617,344.842 203.111,344.522 203.736 C 343.431 205.873,344.041 206.236,354.101 209.428 C 358.007 210.667,361.292 211.826,361.402 212.003 C 361.511 212.180,362.497 212.448,363.593 212.599 C 364.689 212.750,366.029 213.222,366.572 213.649 C 368.437 215.116,369.406 214.387,370.608 210.612 C 372.144 205.788,371.977 205.144,369.000 204.400 C 367.680 204.070,366.420 203.683,366.200 203.541 C 365.980 203.398,364.990 203.076,364.000 202.825 C 363.010 202.574,360.490 201.766,358.400 201.029 C 349.269 197.809,347.442 197.331,346.514 197.921 M79.000 318.237 C 73.636 319.231,66.000 324.374,66.000 326.993 C 66.000 327.094,65.550 328.160,65.000 329.363 C 63.452 332.748,63.550 337.870,65.232 341.468 C 68.011 347.413,71.376 349.604,85.092 354.401 C 87.123 355.111,89.169 356.026,89.640 356.434 C 90.110 356.842,90.789 357.281,91.148 357.408 C 93.894 358.386,95.508 363.801,94.027 367.065 C 90.875 374.006,81.698 375.037,71.400 369.607 C 67.537 367.570,67.201 367.544,65.464 369.150 C 61.495 372.820,62.412 374.761,69.600 377.903 C 86.534 385.306,102.773 379.158,104.219 364.797 C 104.894 358.097,101.890 351.992,96.600 349.312 C 95.940 348.977,95.130 348.483,94.800 348.214 C 94.470 347.945,91.770 346.865,88.800 345.813 C 75.900 341.245,72.322 337.831,73.980 331.673 C 75.435 326.271,87.296 323.689,92.600 327.618 C 92.820 327.781,93.650 328.277,94.445 328.720 C 95.240 329.163,96.267 329.760,96.728 330.048 C 97.874 330.764,99.293 329.423,100.842 326.161 C 102.361 322.963,101.749 321.710,98.200 320.749 C 97.320 320.511,96.093 320.054,95.472 319.734 C 92.428 318.161,83.695 317.367,79.000 318.237 M123.280 319.280 C 122.467 320.093,122.628 330.171,123.467 331.010 C 124.307 331.850,130.281 331.729,131.339 330.851 C 132.305 330.049,132.331 319.412,131.367 319.043 C 130.188 318.590,123.782 318.778,123.280 319.280 M153.300 319.193 L 152.400 319.574 152.400 349.164 L 152.400 378.755 153.289 379.377 C 153.930 379.826,155.160 380.000,157.699 380.000 C 162.201 380.000,161.998 380.552,162.006 368.274 C 162.014 356.512,161.874 356.800,167.571 356.800 C 173.862 356.800,175.644 357.729,178.040 362.259 C 179.944 365.858,180.598 366.978,181.038 367.390 C 181.646 367.959,185.193 373.430,185.230 373.854 C 185.298 374.653,188.688 379.021,189.604 379.491 C 190.263 379.829,191.954 379.968,194.600 379.901 L 198.600 379.800 198.730 378.665 C 198.869 377.454,197.959 375.884,194.893 372.047 C 193.947 370.863,192.438 368.613,191.540 367.047 C 189.917 364.220,189.466 363.488,186.661 359.132 C 184.470 355.732,184.621 354.899,187.900 352.267 C 200.059 342.505,197.696 324.352,183.724 320.196 L 179.800 319.028 167.000 318.920 C 159.519 318.857,153.826 318.970,153.300 319.193 M217.711 319.116 C 216.968 319.599,216.933 379.184,217.676 379.655 C 218.401 380.115,253.654 380.080,254.383 379.619 C 255.108 379.161,255.623 374.550,255.085 373.334 C 254.519 372.053,254.067 372.011,240.744 372.005 C 225.192 371.999,226.646 372.841,226.469 363.736 C 226.333 356.686,226.669 354.344,227.904 353.744 C 228.287 353.558,233.602 353.315,239.715 353.203 C 252.530 352.969,251.656 353.295,251.503 348.800 L 251.400 345.800 240.400 345.514 C 227.814 345.187,227.821 345.188,227.007 343.614 C 225.870 341.414,226.144 329.543,227.365 328.122 L 228.330 327.000 240.857 326.883 C 255.897 326.743,255.275 326.947,254.949 322.264 C 254.840 320.699,254.657 319.324,254.543 319.209 C 254.198 318.864,218.240 318.773,217.711 319.116 M273.233 319.171 C 272.755 319.474,272.637 324.109,272.484 348.761 C 272.272 382.972,271.881 380.000,276.594 380.000 C 281.582 380.000,281.199 381.794,281.206 358.425 C 281.212 336.505,281.202 336.600,283.537 336.600 C 284.555 336.600,285.002 336.856,285.525 337.736 C 285.896 338.361,286.740 339.452,287.400 340.161 C 288.060 340.869,289.947 343.238,291.594 345.424 C 293.241 347.611,296.121 351.301,297.994 353.624 C 299.867 355.947,301.760 358.353,302.200 358.970 C 303.608 360.947,305.545 363.336,307.701 365.754 C 308.856 367.048,310.430 369.029,311.200 370.156 C 311.970 371.283,312.960 372.589,313.400 373.057 C 313.840 373.526,314.920 374.769,315.800 375.821 C 319.153 379.827,319.440 379.996,322.900 379.998 C 328.104 380.001,327.600 383.324,327.600 349.014 C 327.600 315.127,328.171 318.800,322.906 318.800 C 318.418 318.800,318.800 316.801,318.800 340.306 C 318.800 353.704,318.656 361.122,318.386 361.626 C 317.413 363.444,315.420 362.186,312.442 357.872 C 311.710 356.812,310.712 355.515,310.225 354.989 C 309.738 354.464,308.273 352.581,306.970 350.806 C 305.666 349.030,303.837 346.728,302.904 345.689 C 301.971 344.650,300.441 342.755,299.504 341.478 C 298.567 340.201,296.450 337.479,294.800 335.430 C 293.150 333.381,290.720 330.308,289.400 328.602 C 286.301 324.596,282.393 319.934,281.612 319.313 C 280.892 318.740,274.096 318.625,273.233 319.171 M180.515 328.348 C 187.642 332.491,187.319 344.279,180.000 347.177 C 179.230 347.482,178.266 348.017,177.858 348.366 C 176.625 349.421,163.354 349.297,162.568 348.224 C 162.116 347.605,162.000 345.545,162.000 338.105 L 162.000 328.764 163.014 327.750 L 164.028 326.736 171.114 326.868 L 178.200 327.001 180.515 328.348 M123.300 338.665 C 122.460 339.004,122.584 378.527,123.429 379.371 C 124.438 380.381,130.145 380.255,131.200 379.200 C 132.312 378.088,132.473 339.067,131.367 338.643 C 130.618 338.355,124.022 338.373,123.300 338.665 " stroke="none" fill="#104c76" fill-rule="evenodd"></path><path id="path1" d="M237.500 69.476 C 237.115 69.576,236.800 69.830,236.800 70.039 C 236.800 70.249,236.350 70.591,235.800 70.800 C 235.188 71.033,234.800 71.494,234.800 71.990 C 234.800 72.533,234.537 72.800,234.000 72.800 C 233.528 72.800,233.200 73.067,233.200 73.451 C 233.200 73.967,233.470 73.880,234.500 73.033 C 235.215 72.444,236.115 71.860,236.500 71.735 C 236.885 71.609,237.200 71.253,237.200 70.943 C 237.200 70.634,237.650 70.209,238.200 70.000 C 239.856 69.371,239.350 68.992,237.500 69.476 M228.000 80.600 C 228.000 80.930,227.675 81.525,227.278 81.922 C 226.128 83.072,224.449 86.322,224.175 87.927 C 224.037 88.737,222.863 92.408,221.566 96.084 C 219.722 101.310,219.117 103.622,218.793 106.684 C 218.565 108.838,218.068 112.310,217.689 114.400 C 216.792 119.350,216.863 149.384,217.787 155.600 C 218.097 157.690,218.465 160.300,218.604 161.400 C 218.743 162.500,219.275 165.290,219.787 167.600 C 220.299 169.910,220.836 172.790,220.981 174.000 C 221.983 182.376,225.545 198.344,227.631 203.807 C 228.301 205.563,229.127 207.900,229.465 209.000 C 230.347 211.862,233.275 219.287,234.908 222.800 C 235.675 224.450,236.438 226.250,236.604 226.800 C 236.771 227.350,237.401 228.430,238.005 229.200 C 239.225 230.755,243.600 237.939,243.600 238.387 C 243.600 238.544,244.407 239.527,245.394 240.572 C 246.381 241.616,248.046 243.914,249.094 245.678 C 251.177 249.183,252.282 250.294,256.973 253.600 C 262.312 257.363,264.913 258.800,266.387 258.800 C 268.021 258.800,267.211 257.954,263.441 255.722 C 261.423 254.526,249.600 243.291,249.600 242.568 C 249.600 242.303,249.345 241.988,249.034 241.868 C 248.723 241.749,248.228 241.200,247.934 240.649 C 247.640 240.097,246.840 238.691,246.156 237.523 C 245.472 236.355,244.782 234.985,244.622 234.479 C 244.463 233.972,243.737 232.504,243.009 231.216 C 242.281 229.927,241.307 227.863,240.845 226.628 C 240.383 225.393,239.539 223.464,238.970 222.341 C 238.401 221.217,237.340 218.746,236.613 216.849 C 235.887 214.952,234.364 211.477,233.230 209.126 C 230.278 203.010,229.155 198.859,229.252 194.432 C 229.319 191.387,229.203 190.672,228.429 189.360 C 227.457 187.712,226.230 182.586,225.807 178.400 C 225.662 176.970,225.114 174.180,224.590 172.200 C 223.723 168.926,223.119 164.915,221.938 154.582 C 221.441 150.232,221.839 148.326,223.625 146.499 C 225.093 144.997,224.953 143.907,223.176 142.987 C 220.662 141.687,220.282 139.998,220.535 131.227 C 220.858 119.980,221.475 110.716,222.162 106.800 C 222.490 104.930,222.941 102.348,223.164 101.061 C 223.696 98.002,223.669 98.099,226.182 90.200 C 228.892 81.680,229.281 80.000,228.544 80.000 C 228.245 80.000,228.000 80.270,228.000 80.600 M181.424 116.128 C 180.998 116.387,178.819 118.040,176.584 119.800 C 163.801 129.863,161.427 131.500,146.400 140.611 C 143.430 142.412,139.197 145.058,136.992 146.490 C 132.753 149.246,128.377 151.600,127.493 151.600 C 127.202 151.600,125.621 152.429,123.982 153.442 C 119.523 156.196,116.750 157.511,111.425 159.398 C 104.135 161.982,103.818 162.843,104.094 179.316 C 104.332 193.505,102.984 192.303,118.720 192.360 C 130.486 192.403,131.763 192.607,132.188 194.507 C 132.299 194.998,132.472 202.197,132.574 210.505 C 132.675 218.812,132.880 225.806,133.028 226.045 C 133.547 226.884,135.994 227.600,138.344 227.600 C 140.851 227.600,151.486 228.639,152.439 228.977 C 152.747 229.087,155.250 229.461,158.000 229.809 C 160.750 230.158,166.600 231.176,171.000 232.073 C 186.864 235.306,185.356 237.288,185.001 213.658 C 184.650 190.213,183.141 192.404,199.640 192.401 C 214.976 192.399,215.116 192.338,213.575 186.302 C 211.304 177.407,209.237 163.969,208.422 152.800 C 207.689 142.746,208.460 143.393,196.870 143.100 C 184.466 142.786,185.466 144.019,185.200 128.714 C 185.035 119.209,184.896 117.129,184.400 116.656 C 183.509 115.809,182.300 115.594,181.424 116.128 M280.560 143.180 C 271.264 143.463,270.563 143.921,273.402 147.856 C 279.261 155.978,280.119 158.807,279.244 167.110 C 278.273 176.329,271.531 185.018,262.422 188.791 C 261.687 189.096,260.639 189.758,260.094 190.264 L 259.102 191.183 260.251 191.630 C 261.032 191.933,269.598 192.147,287.009 192.297 L 312.618 192.518 313.809 191.490 L 315.000 190.461 314.897 179.930 C 314.771 166.959,314.325 162.703,311.472 147.239 C 310.684 142.964,310.807 143.004,298.271 142.980 C 292.512 142.969,284.542 143.059,280.560 143.180 M90.335 164.998 C 90.226 165.107,88.081 165.624,85.569 166.147 C 80.561 167.190,64.188 171.472,63.211 171.994 C 62.875 172.174,60.710 172.707,58.400 173.180 C 50.264 174.845,50.493 174.505,50.161 185.418 C 49.644 202.375,56.284 227.646,63.820 237.400 C 64.671 238.502,69.868 238.452,75.800 237.286 C 82.122 236.042,91.558 234.521,96.200 233.996 C 100.821 233.473,106.365 232.175,107.120 231.439 C 108.095 230.488,107.760 229.340,104.849 223.641 C 96.799 207.882,94.065 196.334,93.821 177.059 C 93.720 169.092,93.543 165.814,93.191 165.390 C 92.731 164.835,90.768 164.565,90.335 164.998 M267.827 259.556 C 267.700 259.761,268.354 260.057,269.280 260.213 C 270.206 260.370,271.639 260.850,272.466 261.281 C 275.054 262.630,283.600 262.445,283.600 261.039 C 283.600 260.739,284.005 260.355,284.500 260.186 C 285.308 259.910,285.261 259.861,284.049 259.710 C 283.306 259.618,282.505 259.735,282.269 259.971 C 281.754 260.486,274.329 260.556,273.780 260.050 C 273.224 259.539,268.101 259.114,267.827 259.556 " stroke="none" fill="#ecbd11" fill-rule="evenodd"></path><path id="path2" d="M0.000 207.800 L 0.000 415.600 200.000 415.600 L 400.000 415.600 400.000 207.800 L 400.000 0.000 200.000 0.000 L 0.000 0.000 0.000 207.800 M334.061 41.368 C 336.397 42.344,340.430 47.664,340.108 49.346 C 339.930 50.279,334.765 55.507,326.421 63.200 C 323.915 65.510,321.505 67.803,321.065 68.295 C 320.135 69.335,318.062 69.829,316.679 69.340 C 315.710 68.998,310.399 62.961,310.401 62.205 C 310.405 61.274,312.038 59.249,314.598 56.999 C 316.100 55.680,319.394 52.575,321.918 50.100 C 324.442 47.625,326.664 45.600,326.856 45.600 C 327.048 45.600,328.312 44.520,329.665 43.200 C 332.424 40.509,332.214 40.596,334.061 41.368 M261.600 55.716 C 265.469 56.722,273.093 60.121,275.095 61.733 C 275.703 62.222,277.010 63.154,278.000 63.805 C 280.816 65.654,284.014 68.307,285.157 69.743 C 285.730 70.463,286.916 71.671,287.792 72.426 C 288.667 73.182,289.773 74.250,290.250 74.800 C 290.727 75.350,291.451 76.185,291.859 76.655 C 292.266 77.125,293.050 78.259,293.600 79.175 C 294.150 80.090,295.444 81.757,296.476 82.878 C 297.507 84.000,298.947 85.994,299.676 87.309 C 300.404 88.623,301.396 90.352,301.879 91.150 C 302.363 91.947,302.948 93.050,303.179 93.600 C 303.410 94.150,303.768 94.870,303.973 95.200 C 307.308 100.556,310.063 105.917,310.619 108.133 C 310.767 108.724,311.044 109.303,311.233 109.421 C 311.423 109.538,311.767 110.391,311.998 111.317 C 312.229 112.243,312.850 113.900,313.379 115.000 C 313.908 116.100,314.708 117.810,315.157 118.800 C 316.255 121.222,318.702 129.239,319.232 132.153 C 319.468 133.447,319.829 134.951,320.036 135.494 C 320.243 136.038,320.674 138.230,320.995 140.367 C 321.316 142.503,321.860 144.925,322.204 145.749 C 322.549 146.573,322.995 148.812,323.195 150.724 C 323.396 152.636,323.913 156.180,324.344 158.600 C 326.520 170.814,326.239 198.668,323.842 208.336 C 323.533 209.581,323.162 212.040,323.017 213.800 C 322.872 215.560,322.483 217.540,322.153 218.200 C 321.824 218.860,321.319 220.930,321.032 222.800 C 320.745 224.670,320.230 227.100,319.888 228.200 C 319.546 229.300,318.771 231.818,318.167 233.797 C 317.213 236.918,315.999 239.903,314.831 242.000 C 314.647 242.330,314.206 243.230,313.851 244.000 C 313.496 244.770,313.033 245.670,312.823 246.000 C 312.422 246.631,311.657 248.142,310.658 250.276 C 309.810 252.089,307.142 255.614,304.267 258.722 C 300.649 262.633,299.685 263.508,297.433 264.928 C 296.315 265.633,295.040 266.436,294.600 266.713 C 294.160 266.990,293.170 267.490,292.400 267.825 C 291.630 268.159,290.370 268.768,289.600 269.177 C 285.476 271.368,278.314 272.362,271.757 271.654 C 268.192 271.269,261.424 269.486,261.015 268.824 C 260.902 268.641,260.132 268.376,259.304 268.235 C 258.477 268.095,256.990 267.644,256.000 267.233 C 255.010 266.822,252.940 266.025,251.400 265.463 C 246.692 263.745,239.069 260.808,237.800 260.224 C 237.140 259.920,235.702 259.462,234.605 259.206 C 233.508 258.950,232.428 258.591,232.205 258.407 C 231.982 258.224,230.810 257.799,229.600 257.463 C 228.390 257.127,226.590 256.570,225.600 256.224 C 221.039 254.632,209.980 251.104,208.000 250.610 C 206.790 250.307,204.990 249.782,204.000 249.442 C 202.012 248.759,198.763 247.943,193.600 246.830 C 189.691 245.987,180.525 243.854,177.000 242.967 C 175.680 242.634,173.110 242.115,171.289 241.812 C 169.468 241.509,166.858 240.989,165.489 240.656 C 164.120 240.322,161.740 239.940,160.200 239.805 C 158.660 239.670,155.510 239.302,153.200 238.987 C 150.890 238.671,146.840 238.121,144.200 237.764 C 141.560 237.406,136.851 237.019,133.735 236.903 L 128.070 236.692 125.535 238.101 C 123.953 238.981,122.173 239.613,120.800 239.782 C 119.590 239.931,117.700 240.296,116.600 240.593 C 115.500 240.890,113.565 241.340,112.300 241.595 C 110.028 242.051,108.963 243.712,110.380 244.588 C 111.028 244.988,116.786 256.357,116.794 257.251 C 116.797 257.609,117.081 258.135,117.424 258.420 C 117.767 258.705,118.371 259.582,118.766 260.369 C 119.161 261.156,120.234 263.150,121.150 264.800 C 122.065 266.450,123.629 269.420,124.624 271.400 C 126.904 275.936,127.675 277.282,128.287 277.793 C 130.412 279.568,130.112 287.600,127.920 287.600 C 127.744 287.600,127.600 287.854,127.600 288.164 C 127.600 290.130,123.334 291.717,116.200 292.405 C 113.560 292.660,110.171 293.222,108.668 293.655 C 106.861 294.176,104.511 294.469,101.725 294.521 L 97.513 294.600 96.233 293.122 C 95.146 291.867,93.558 289.068,92.646 286.800 C 92.514 286.470,92.228 285.930,92.012 285.600 C 91.796 285.270,91.339 284.370,90.996 283.600 C 90.653 282.830,89.973 281.546,89.486 280.746 C 87.487 277.465,84.406 271.614,83.197 268.800 C 82.487 267.150,81.684 265.530,81.412 265.200 C 81.140 264.870,80.644 264.060,80.310 263.400 C 79.976 262.740,78.780 260.526,77.652 258.479 C 76.523 256.433,75.594 254.633,75.587 254.479 C 75.581 254.326,75.132 253.300,74.591 252.200 C 74.050 251.100,73.606 249.899,73.604 249.532 C 73.597 248.270,67.255 248.308,62.803 249.596 C 59.601 250.522,57.255 249.054,56.186 245.458 C 55.267 242.365,54.185 241.730,51.241 242.557 C 42.281 245.071,31.750 236.956,29.416 225.739 C 29.272 225.046,28.804 223.792,28.377 222.954 C 27.950 222.116,27.600 221.013,27.600 220.503 C 27.600 219.992,27.319 218.905,26.976 218.087 C 23.904 210.762,22.851 192.216,25.205 186.894 C 26.709 183.495,31.186 179.200,33.226 179.200 C 33.594 179.200,35.224 178.767,36.848 178.239 L 39.800 177.277 40.083 173.363 C 40.433 168.536,41.239 167.439,45.046 166.612 C 46.341 166.331,49.470 165.538,52.000 164.849 C 58.172 163.171,62.035 162.193,65.400 161.460 C 68.961 160.684,73.055 159.643,74.600 159.122 C 77.380 158.184,89.189 154.931,94.600 153.614 C 95.480 153.400,97.280 152.963,98.600 152.643 C 99.920 152.323,101.984 151.777,103.187 151.431 C 104.390 151.084,106.626 150.800,108.156 150.800 C 109.929 150.800,111.166 150.602,111.569 150.254 C 111.916 149.954,114.090 148.750,116.400 147.577 C 118.710 146.404,120.870 145.233,121.200 144.973 C 121.530 144.713,122.475 144.284,123.300 144.020 C 124.125 143.755,124.800 143.394,124.800 143.218 C 124.800 143.041,125.385 142.667,126.100 142.385 C 126.815 142.103,127.670 141.545,128.000 141.145 C 128.330 140.744,130.323 139.539,132.428 138.465 C 136.263 136.509,137.726 135.681,139.608 134.399 C 140.162 134.021,141.062 133.573,141.608 133.402 C 142.153 133.232,143.410 132.425,144.400 131.609 C 145.390 130.793,147.100 129.607,148.200 128.974 C 150.744 127.509,152.729 126.220,154.000 125.208 C 154.550 124.769,155.216 124.408,155.480 124.405 C 155.744 124.402,156.104 124.172,156.280 123.893 C 156.456 123.614,157.050 123.072,157.600 122.689 C 162.594 119.210,166.618 116.498,167.525 116.000 C 168.127 115.670,170.918 113.555,173.727 111.300 C 176.536 109.045,179.000 107.200,179.203 107.200 C 179.406 107.200,180.089 106.705,180.721 106.100 C 183.066 103.855,184.666 102.527,187.200 100.721 C 188.630 99.702,190.610 98.110,191.600 97.184 C 192.590 96.258,194.660 94.409,196.200 93.076 C 197.740 91.742,199.203 90.459,199.451 90.225 C 199.698 89.991,200.953 88.900,202.239 87.800 C 203.525 86.700,205.483 84.978,206.589 83.973 C 207.695 82.968,208.950 81.888,209.379 81.573 C 209.807 81.258,211.900 79.290,214.029 77.200 C 225.781 65.667,227.557 64.074,230.000 62.887 C 230.550 62.619,231.810 61.766,232.800 60.990 C 236.266 58.274,242.061 55.913,248.000 54.797 C 251.108 54.213,257.475 54.643,261.600 55.716 M371.056 112.584 C 372.342 113.485,373.738 117.689,373.771 120.760 L 373.800 123.400 372.000 124.280 C 371.010 124.763,369.120 125.425,367.800 125.751 C 365.095 126.418,362.489 127.110,356.400 128.781 C 344.156 132.141,343.968 132.096,342.381 125.415 C 341.084 119.955,341.766 118.339,345.600 117.776 C 346.590 117.631,348.570 117.184,350.000 116.782 C 351.430 116.381,353.667 115.934,354.972 115.788 C 356.276 115.643,357.720 115.278,358.181 114.976 C 358.641 114.674,360.274 114.160,361.809 113.834 C 363.344 113.508,365.320 112.974,366.200 112.649 C 368.280 111.879,370.016 111.856,371.056 112.584 M348.953 195.950 C 349.639 196.363,351.155 196.820,352.321 196.967 C 353.488 197.113,355.018 197.478,355.721 197.777 C 356.425 198.075,359.880 199.270,363.400 200.431 C 374.661 204.145,375.662 205.187,372.987 210.414 C 372.702 210.971,372.342 212.104,372.187 212.930 C 371.992 213.969,371.493 214.746,370.567 215.452 L 369.230 216.472 365.515 215.226 C 363.472 214.541,360.900 213.728,359.800 213.418 C 358.700 213.109,356.990 212.591,356.000 212.268 C 355.010 211.944,352.040 211.002,349.400 210.175 C 341.370 207.658,341.027 207.263,342.616 202.338 C 343.137 200.722,343.669 198.889,343.798 198.266 C 344.346 195.618,346.667 194.575,348.953 195.950 M92.739 316.560 C 94.136 316.935,95.576 317.405,95.939 317.605 C 96.303 317.804,97.860 318.546,99.400 319.253 C 104.529 321.607,105.367 323.920,102.415 327.577 C 101.961 328.140,101.301 329.158,100.949 329.841 C 99.583 332.486,96.832 332.985,94.487 331.012 C 88.977 326.376,77.764 327.060,76.101 332.133 C 75.242 334.756,77.360 339.600,79.366 339.600 C 79.656 339.600,80.350 339.960,80.909 340.400 C 81.469 340.840,82.136 341.200,82.393 341.200 C 83.127 341.200,91.124 344.309,94.000 345.712 C 103.564 350.379,106.178 354.045,106.184 362.800 C 106.189 370.120,104.317 374.073,98.703 378.597 C 90.350 385.329,70.496 383.791,62.100 375.762 C 58.098 371.935,66.009 363.365,70.446 366.722 C 78.804 373.045,92.800 371.425,92.800 364.134 C 92.800 362.099,89.998 358.061,88.554 358.014 C 88.309 358.006,87.648 357.638,87.086 357.196 C 86.525 356.755,85.465 356.284,84.732 356.151 C 75.796 354.526,67.404 349.453,64.133 343.697 L 62.600 341.000 62.608 335.200 C 62.614 330.508,62.744 329.171,63.290 328.200 C 63.662 327.540,64.309 326.280,64.729 325.400 C 65.777 323.203,70.067 319.394,73.402 317.698 C 78.121 315.299,86.259 314.820,92.739 316.560 M133.281 317.502 C 134.794 319.017,134.585 330.745,133.015 332.384 C 130.965 334.524,124.112 335.140,121.486 333.420 L 120.400 332.708 120.409 325.854 C 120.421 316.611,120.637 316.348,128.090 316.508 C 131.941 316.591,132.472 316.692,133.281 317.502 M177.600 317.023 C 194.336 318.174,203.276 334.657,194.610 348.384 C 193.517 350.115,188.966 354.400,188.220 354.400 C 186.916 354.400,186.905 356.533,188.200 358.073 C 188.750 358.727,189.200 359.518,189.200 359.831 C 189.200 360.144,189.358 360.400,189.550 360.400 C 189.837 360.400,191.823 363.428,195.713 369.797 C 195.981 370.235,196.605 371.104,197.100 371.728 C 197.595 372.351,198.000 373.052,198.000 373.285 C 198.000 373.518,198.405 374.110,198.900 374.602 C 203.746 379.413,202.883 381.737,196.108 382.121 C 189.051 382.521,187.313 381.582,183.769 375.455 C 182.988 374.105,181.826 372.190,181.187 371.200 C 180.547 370.210,179.704 368.826,179.312 368.125 C 175.233 360.821,173.128 358.912,168.978 358.753 C 164.001 358.563,164.011 358.539,164.004 370.938 C 163.998 382.295,164.140 382.081,156.556 382.158 C 151.933 382.205,151.345 381.936,150.871 379.556 C 150.182 376.107,150.967 318.461,151.713 317.714 C 152.809 316.616,166.399 316.253,177.600 317.023 M254.518 316.758 C 256.458 316.871,257.200 318.515,257.194 322.682 C 257.184 328.898,258.007 328.553,242.600 328.800 C 227.356 329.044,228.800 328.304,228.800 335.875 C 228.800 343.971,227.595 343.200,240.254 343.200 L 250.880 343.200 252.240 344.560 C 254.488 346.808,254.085 353.470,251.622 354.788 C 251.150 355.041,246.754 355.200,240.240 355.200 C 230.158 355.200,229.607 355.239,229.214 355.974 C 228.611 357.100,228.669 368.909,229.280 369.520 C 229.633 369.873,233.055 370.000,242.180 370.001 C 258.190 370.003,257.916 369.872,257.536 377.393 C 257.412 379.851,257.222 380.556,256.482 381.296 L 255.579 382.200 237.089 382.331 C 217.141 382.473,215.873 382.370,215.182 380.552 C 214.952 379.947,214.800 367.665,214.800 349.633 L 214.800 319.718 215.704 318.376 C 216.202 317.638,217.057 316.926,217.604 316.793 C 218.380 316.606,251.361 316.575,254.518 316.758 M281.276 316.814 C 282.328 317.107,283.219 317.822,284.384 319.312 C 285.282 320.460,286.893 322.390,287.965 323.600 C 289.718 325.579,291.482 327.836,293.800 331.063 C 294.240 331.676,295.500 333.185,296.600 334.417 C 297.700 335.649,298.870 337.071,299.200 337.576 C 299.530 338.081,300.655 339.576,301.700 340.898 C 302.745 342.220,303.605 343.414,303.612 343.551 C 303.619 343.688,304.700 344.970,306.016 346.400 C 307.331 347.830,309.260 350.227,310.303 351.726 C 311.346 353.225,312.695 355.095,313.300 355.881 C 313.905 356.667,314.400 357.436,314.400 357.591 C 314.400 357.745,314.850 358.077,315.400 358.327 L 316.400 358.783 316.400 339.172 C 316.400 317.898,316.402 317.874,318.589 316.878 C 320.992 315.783,327.946 316.454,329.032 317.885 C 329.683 318.743,329.873 378.829,329.231 380.519 C 328.779 381.706,328.290 381.907,325.034 382.241 C 319.481 382.810,317.022 381.449,313.368 375.790 C 312.946 375.135,311.624 373.568,310.431 372.307 C 309.238 371.045,307.302 368.705,306.128 367.107 C 304.954 365.508,303.742 363.930,303.434 363.600 C 302.921 363.050,298.846 357.895,293.528 351.068 C 292.358 349.565,290.770 347.610,290.000 346.723 C 288.637 345.152,286.723 342.564,285.227 340.267 C 283.922 338.264,283.805 339.670,283.600 359.871 C 283.357 383.753,283.818 382.229,276.800 382.350 C 272.767 382.420,271.314 381.873,270.779 380.084 C 270.091 377.782,270.418 319.319,271.126 318.077 C 272.052 316.455,277.527 315.773,281.276 316.814 M165.562 328.996 C 163.582 330.073,163.516 346.084,165.489 346.834 C 168.212 347.869,177.313 346.922,179.600 345.366 C 183.193 342.921,184.553 335.197,181.938 332.091 C 181.354 331.397,180.814 330.642,180.737 330.412 C 180.289 329.066,167.610 327.883,165.562 328.996 M131.100 336.353 C 134.131 336.463,134.000 335.434,134.000 359.200 C 134.000 384.557,134.623 382.897,125.347 382.250 C 120.142 381.886,120.400 383.110,120.400 358.828 C 120.400 333.415,119.208 335.919,131.100 336.353 " stroke="none" fill="#fbfbfb" fill-rule="evenodd"></path><path id="path3" d="M329.665 43.200 C 328.312 44.520,327.048 45.600,326.856 45.600 C 326.664 45.600,324.442 47.625,321.918 50.100 C 319.394 52.575,316.100 55.680,314.598 56.999 C 312.038 59.249,310.405 61.274,310.401 62.205 C 310.399 62.961,315.710 68.998,316.679 69.340 C 318.062 69.829,320.135 69.335,321.065 68.295 C 321.505 67.803,323.915 65.510,326.421 63.200 C 334.765 55.507,339.930 50.279,340.108 49.346 C 340.544 47.066,334.902 40.800,332.414 40.800 C 332.255 40.800,331.018 41.880,329.665 43.200 M333.920 42.567 C 338.570 45.009,339.985 49.333,336.947 51.822 C 335.927 52.657,333.257 55.154,331.013 57.370 C 318.965 69.269,317.880 69.979,315.712 67.381 C 315.170 66.731,314.003 65.438,313.119 64.506 C 310.609 61.862,309.995 62.728,322.949 50.634 C 333.604 40.685,332.242 41.686,333.920 42.567 M248.000 54.797 C 242.061 55.913,236.266 58.274,232.800 60.990 C 231.810 61.766,230.550 62.619,230.000 62.887 C 227.557 64.074,225.781 65.667,214.029 77.200 C 211.900 79.290,209.807 81.258,209.379 81.573 C 208.950 81.888,207.695 82.968,206.589 83.973 C 205.483 84.978,203.525 86.700,202.239 87.800 C 200.953 88.900,199.698 89.991,199.451 90.225 C 199.203 90.459,197.740 91.742,196.200 93.076 C 194.660 94.409,192.590 96.258,191.600 97.184 C 190.610 98.110,188.630 99.702,187.200 100.721 C 184.666 102.527,183.066 103.855,180.721 106.100 C 180.089 106.705,179.406 107.200,179.203 107.200 C 179.000 107.200,176.536 109.045,173.727 111.300 C 170.918 113.555,168.127 115.670,167.525 116.000 C 166.618 116.498,162.594 119.210,157.600 122.689 C 157.050 123.072,156.456 123.614,156.280 123.893 C 156.104 124.172,155.744 124.402,155.480 124.405 C 155.216 124.408,154.550 124.769,154.000 125.208 C 152.729 126.220,150.744 127.509,148.200 128.974 C 147.100 129.607,145.390 130.793,144.400 131.609 C 143.410 132.425,142.153 133.232,141.608 133.402 C 141.062 133.573,140.162 134.021,139.608 134.399 C 137.726 135.681,136.263 136.509,132.428 138.465 C 130.323 139.539,128.330 140.744,128.000 141.145 C 127.670 141.545,126.815 142.103,126.100 142.385 C 125.385 142.667,124.800 143.041,124.800 143.218 C 124.800 143.394,124.125 143.755,123.300 144.020 C 122.475 144.284,121.530 144.713,121.200 144.973 C 120.870 145.233,118.710 146.404,116.400 147.577 C 114.090 148.750,111.916 149.954,111.569 150.254 C 111.166 150.602,109.929 150.800,108.156 150.800 C 106.626 150.800,104.390 151.084,103.187 151.431 C 101.984 151.777,99.920 152.323,98.600 152.643 C 97.280 152.963,95.480 153.400,94.600 153.614 C 89.189 154.931,77.380 158.184,74.600 159.122 C 73.055 159.643,68.961 160.684,65.400 161.460 C 62.035 162.193,58.172 163.171,52.000 164.849 C 49.470 165.538,46.341 166.331,45.046 166.612 C 41.239 167.439,40.433 168.536,40.083 173.363 L 39.800 177.277 36.848 178.239 C 35.224 178.767,33.594 179.200,33.226 179.200 C 31.186 179.200,26.709 183.495,25.205 186.894 C 22.851 192.216,23.904 210.762,26.976 218.087 C 27.319 218.905,27.600 219.992,27.600 220.503 C 27.600 221.013,27.950 222.116,28.377 222.954 C 28.804 223.792,29.272 225.046,29.416 225.739 C 31.750 236.956,42.281 245.071,51.241 242.557 C 54.185 241.730,55.267 242.365,56.186 245.458 C 57.255 249.054,59.601 250.522,62.803 249.596 C 67.255 248.308,73.597 248.270,73.604 249.532 C 73.606 249.899,74.050 251.100,74.591 252.200 C 75.132 253.300,75.581 254.326,75.587 254.479 C 75.594 254.633,76.523 256.433,77.652 258.479 C 78.780 260.526,79.976 262.740,80.310 263.400 C 80.644 264.060,81.140 264.870,81.412 265.200 C 81.684 265.530,82.487 267.150,83.197 268.800 C 84.406 271.614,87.487 277.465,89.486 280.746 C 89.973 281.546,90.653 282.830,90.996 283.600 C 91.339 284.370,91.796 285.270,92.012 285.600 C 92.228 285.930,92.514 286.470,92.646 286.800 C 93.558 289.068,95.146 291.867,96.233 293.122 L 97.513 294.600 101.725 294.521 C 104.511 294.469,106.861 294.176,108.668 293.655 C 110.171 293.222,113.560 292.660,116.200 292.405 C 123.334 291.717,127.600 290.130,127.600 288.164 C 127.600 287.854,127.744 287.600,127.920 287.600 C 130.112 287.600,130.412 279.568,128.287 277.793 C 127.675 277.282,126.904 275.936,124.624 271.400 C 123.629 269.420,122.065 266.450,121.150 264.800 C 120.234 263.150,119.161 261.156,118.766 260.369 C 118.371 259.582,117.767 258.705,117.424 258.420 C 117.081 258.135,116.797 257.609,116.794 257.251 C 116.786 256.357,111.028 244.988,110.380 244.588 C 108.963 243.712,110.028 242.051,112.300 241.595 C 113.565 241.340,115.500 240.890,116.600 240.593 C 117.700 240.296,119.590 239.931,120.800 239.782 C 122.173 239.613,123.953 238.981,125.535 238.101 L 128.070 236.692 133.735 236.903 C 136.851 237.019,141.560 237.406,144.200 237.764 C 146.840 238.121,150.890 238.671,153.200 238.987 C 155.510 239.302,158.660 239.670,160.200 239.805 C 161.740 239.940,164.120 240.322,165.489 240.656 C 166.858 240.989,169.468 241.509,171.289 241.812 C 173.110 242.115,175.680 242.634,177.000 242.967 C 180.525 243.854,189.691 245.987,193.600 246.830 C 198.763 247.943,202.012 248.759,204.000 249.442 C 204.990 249.782,206.790 250.307,208.000 250.610 C 209.980 251.104,221.039 254.632,225.600 256.224 C 226.590 256.570,228.390 257.127,229.600 257.463 C 230.810 257.799,231.982 258.224,232.205 258.407 C 232.428 258.591,233.508 258.950,234.605 259.206 C 235.702 259.462,237.140 259.920,237.800 260.224 C 239.069 260.808,246.692 263.745,251.400 265.463 C 252.940 266.025,255.010 266.822,256.000 267.233 C 256.990 267.644,258.477 268.095,259.304 268.235 C 260.132 268.376,260.902 268.641,261.015 268.824 C 261.424 269.486,268.192 271.269,271.757 271.654 C 278.314 272.362,285.476 271.368,289.600 269.177 C 290.370 268.768,291.630 268.159,292.400 267.825 C 293.170 267.490,294.160 266.990,294.600 266.713 C 300.096 263.255,300.000 263.335,304.267 258.722 C 307.142 255.614,309.810 252.089,310.658 250.276 C 311.657 248.142,312.422 246.631,312.823 246.000 C 313.033 245.670,313.496 244.770,313.851 244.000 C 314.206 243.230,314.647 242.330,314.831 242.000 C 315.999 239.903,317.213 236.918,318.167 233.797 C 318.771 231.818,319.546 229.300,319.888 228.200 C 320.230 227.100,320.745 224.670,321.032 222.800 C 321.319 220.930,321.824 218.860,322.153 218.200 C 322.483 217.540,322.872 215.560,323.017 213.800 C 323.162 212.040,323.533 209.581,323.842 208.336 C 326.239 198.668,326.520 170.814,324.344 158.600 C 323.913 156.180,323.396 152.636,323.195 150.724 C 322.995 148.812,322.549 146.573,322.204 145.749 C 321.860 144.925,321.316 142.503,320.995 140.367 C 320.674 138.230,320.243 136.038,320.036 135.494 C 319.829 134.951,319.468 133.447,319.232 132.153 C 318.702 129.239,316.255 121.222,315.157 118.800 C 314.708 117.810,313.908 116.100,313.379 115.000 C 312.850 113.900,312.229 112.243,311.998 111.317 C 311.767 110.391,311.423 109.538,311.233 109.421 C 311.044 109.303,310.767 108.724,310.619 108.133 C 310.063 105.917,307.308 100.556,303.973 95.200 C 303.768 94.870,303.410 94.150,303.179 93.600 C 302.948 93.050,302.363 91.947,301.879 91.150 C 301.396 90.352,300.404 88.623,299.676 87.309 C 298.947 85.994,297.507 84.000,296.476 82.878 C 295.444 81.757,294.150 80.090,293.600 79.175 C 293.050 78.259,292.266 77.125,291.859 76.655 C 291.451 76.185,290.727 75.350,290.250 74.800 C 289.773 74.250,288.667 73.182,287.792 72.426 C 286.916 71.671,285.730 70.463,285.157 69.743 C 284.014 68.307,280.816 65.654,278.000 63.805 C 277.010 63.154,275.703 62.222,275.095 61.733 C 269.303 57.070,255.164 53.451,248.000 54.797 M259.885 56.419 C 270.988 59.006,284.493 68.429,292.331 79.057 C 293.444 80.566,294.699 82.250,295.121 82.800 C 296.825 85.019,301.051 91.569,302.477 94.200 C 306.641 101.882,309.616 107.923,310.950 111.400 C 311.541 112.940,312.399 115.010,312.856 116.000 C 315.014 120.667,320.799 141.195,320.800 144.187 C 320.800 144.620,321.148 146.420,321.574 148.187 C 322.352 151.418,323.367 158.547,324.051 165.600 C 324.563 170.866,324.563 193.421,324.051 197.800 C 322.758 208.877,321.975 214.917,321.794 215.210 C 321.682 215.392,321.147 217.713,320.606 220.370 C 316.642 239.833,307.993 255.879,297.148 263.891 C 294.519 265.833,292.929 266.660,287.996 268.649 L 284.200 270.181 276.200 270.187 C 269.004 270.193,267.959 270.107,265.800 269.331 C 264.480 268.856,262.410 268.195,261.200 267.861 C 258.824 267.206,255.082 265.816,246.000 262.214 C 242.810 260.949,239.120 259.592,237.800 259.197 C 235.271 258.441,231.565 257.211,223.000 254.284 C 220.140 253.306,215.910 251.937,213.600 251.241 C 211.290 250.545,208.320 249.627,207.000 249.200 C 205.680 248.773,203.430 248.166,202.000 247.851 C 200.570 247.536,196.250 246.470,192.400 245.484 C 183.241 243.136,179.011 242.173,174.488 241.403 C 172.447 241.056,170.371 240.617,169.875 240.429 C 169.379 240.240,166.549 239.778,163.587 239.401 C 160.624 239.024,158.084 238.646,157.942 238.560 C 157.800 238.474,154.650 238.047,150.942 237.610 C 147.234 237.173,143.570 236.626,142.800 236.394 C 139.954 235.538,127.958 235.445,126.534 236.268 C 122.519 238.590,121.895 238.804,116.922 239.566 C 111.864 240.342,109.900 240.853,108.950 241.641 C 108.346 242.143,109.601 245.458,112.245 250.344 C 113.274 252.245,115.649 256.770,117.524 260.400 C 119.399 264.030,121.356 267.676,121.873 268.502 C 122.389 269.328,123.538 271.398,124.425 273.102 C 125.311 274.806,126.595 277.100,127.278 278.200 C 129.133 281.191,129.216 283.307,127.597 286.345 C 125.926 289.480,124.711 290.057,117.400 291.183 C 114.320 291.658,110.450 292.320,108.800 292.655 C 97.497 294.952,98.187 295.320,92.212 283.800 C 90.500 280.500,88.691 277.080,88.191 276.200 C 87.108 274.290,82.198 264.866,81.106 262.600 C 80.682 261.720,80.079 260.550,79.767 260.000 C 79.454 259.450,78.009 256.660,76.556 253.800 C 72.968 246.741,73.977 247.318,66.614 248.116 C 58.794 248.964,57.816 248.472,56.198 242.877 C 55.770 241.394,54.364 241.125,49.814 241.654 C 42.258 242.533,38.833 240.697,33.940 233.150 C 26.937 222.345,22.475 194.447,26.496 186.600 C 28.356 182.971,31.912 180.363,36.323 179.395 C 40.585 178.459,41.189 177.824,41.240 174.230 C 41.323 168.307,40.053 168.996,60.400 163.847 C 64.470 162.817,69.330 161.528,71.200 160.982 C 73.070 160.436,74.861 159.992,75.180 159.995 C 75.759 160.000,79.329 159.047,88.000 156.573 C 90.530 155.852,94.837 154.688,97.571 153.988 C 100.305 153.287,103.252 152.464,104.121 152.157 C 104.990 151.851,106.900 151.600,108.366 151.600 C 110.972 151.600,118.236 148.493,122.400 145.597 C 122.950 145.214,124.570 144.313,126.000 143.595 C 127.430 142.876,129.140 141.894,129.800 141.413 C 130.460 140.932,132.350 139.848,134.000 139.003 C 135.650 138.159,137.540 137.072,138.200 136.588 C 138.860 136.104,140.300 135.205,141.400 134.591 C 142.500 133.976,147.270 130.882,152.000 127.716 C 170.712 115.189,170.131 115.613,186.516 102.550 C 189.862 99.883,193.860 96.549,195.400 95.141 C 198.670 92.152,208.461 83.628,210.954 81.600 C 211.900 80.830,215.795 77.095,219.608 73.300 C 234.514 58.466,246.718 53.351,259.885 56.419 M366.200 112.649 C 365.320 112.974,363.344 113.508,361.809 113.834 C 360.274 114.160,358.641 114.674,358.181 114.976 C 357.720 115.278,356.276 115.643,354.972 115.788 C 353.667 115.934,351.430 116.381,350.000 116.782 C 348.570 117.184,346.590 117.631,345.600 117.776 C 341.766 118.339,341.084 119.955,342.381 125.415 C 343.968 132.096,344.156 132.141,356.400 128.781 C 362.489 127.110,365.095 126.418,367.800 125.751 C 369.120 125.425,371.010 124.763,372.000 124.280 L 373.800 123.400 373.771 120.760 C 373.697 113.879,370.918 110.902,366.200 112.649 M370.168 113.658 C 371.243 114.148,373.200 119.075,373.200 121.292 C 373.200 123.338,373.286 123.309,350.061 129.149 L 345.922 130.190 345.045 129.171 C 344.514 128.553,343.891 126.860,343.464 124.873 C 342.319 119.543,342.585 119.299,351.600 117.413 C 354.350 116.837,358.220 115.929,360.200 115.394 C 368.998 113.019,368.830 113.048,370.168 113.658 M256.948 138.987 C 257.652 139.640,258.709 140.067,260.066 140.247 C 261.195 140.396,262.434 140.834,262.820 141.220 C 263.206 141.606,263.944 142.049,264.461 142.206 C 264.977 142.363,265.760 142.810,266.200 143.198 C 266.640 143.587,268.260 144.753,269.800 145.790 C 273.601 148.349,276.786 153.141,276.804 156.327 C 276.806 156.697,277.250 157.900,277.791 159.000 C 279.114 161.689,279.281 168.641,278.049 169.755 C 277.610 170.153,277.189 171.258,277.035 172.421 C 276.890 173.513,276.328 175.060,275.786 175.859 C 275.244 176.658,274.800 177.557,274.800 177.856 C 274.800 178.155,274.620 178.400,274.400 178.400 C 274.180 178.400,274.000 178.684,274.000 179.031 C 274.000 180.120,275.896 177.502,277.395 174.343 C 279.377 170.169,279.980 164.500,279.037 158.910 C 278.341 154.785,277.611 153.322,273.907 148.635 C 273.053 147.554,272.249 146.146,272.121 145.506 C 271.881 144.305,267.331 140.803,266.004 140.798 C 265.672 140.796,264.937 140.553,264.371 140.258 C 262.936 139.509,257.862 138.000,256.779 138.000 C 255.897 138.000,255.899 138.015,256.948 138.987 M245.600 139.981 C 245.600 140.204,246.470 140.264,247.700 140.125 C 250.540 139.804,250.605 139.600,247.867 139.600 C 246.620 139.600,245.600 139.772,245.600 139.981 M240.200 140.999 C 239.980 141.073,239.125 141.247,238.300 141.385 C 237.456 141.527,236.800 141.866,236.800 142.161 C 236.800 142.546,235.618 142.761,232.372 142.966 C 227.483 143.276,226.406 143.504,227.266 144.050 C 228.543 144.859,236.607 144.160,237.207 143.188 C 237.332 142.986,238.766 142.632,240.393 142.401 C 242.021 142.170,243.448 141.886,243.564 141.769 C 244.165 141.168,241.500 140.558,240.200 140.999 M259.600 189.833 C 259.600 190.540,260.461 190.417,260.708 189.675 C 260.795 189.414,260.582 189.200,260.233 189.200 C 259.885 189.200,259.600 189.485,259.600 189.833 M231.601 191.176 C 231.942 191.376,237.988 191.399,245.601 191.229 L 259.000 190.930 245.000 190.877 C 236.776 190.846,231.248 190.970,231.601 191.176 M344.998 196.166 C 344.467 196.697,343.927 197.642,343.798 198.266 C 343.669 198.889,343.137 200.722,342.616 202.338 C 341.027 207.263,341.370 207.658,349.400 210.175 C 352.040 211.002,355.010 211.944,356.000 212.268 C 356.990 212.591,358.700 213.109,359.800 213.418 C 360.900 213.728,363.472 214.541,365.515 215.226 L 369.230 216.472 370.567 215.452 C 371.493 214.746,371.992 213.969,372.187 212.930 C 372.342 212.104,372.702 210.971,372.987 210.414 C 375.662 205.187,374.661 204.145,363.400 200.431 C 359.880 199.270,356.425 198.075,355.721 197.777 C 355.018 197.478,353.488 197.113,352.321 196.967 C 351.155 196.820,349.639 196.363,348.953 195.950 C 347.281 194.944,346.158 195.005,344.998 196.166 M350.800 197.447 C 352.010 197.773,355.970 199.056,359.600 200.296 C 363.230 201.537,367.640 203.031,369.400 203.615 C 373.270 204.900,373.423 205.338,371.801 210.474 C 370.256 215.363,369.265 216.053,366.084 214.454 C 365.268 214.044,363.610 213.482,362.400 213.206 C 361.190 212.929,359.390 212.386,358.400 212.000 C 357.410 211.614,353.990 210.447,350.800 209.407 C 342.236 206.614,342.342 206.718,343.809 202.560 C 344.345 201.042,344.793 199.440,344.804 199.000 C 344.846 197.427,346.319 196.271,347.800 196.649 C 348.240 196.761,349.590 197.120,350.800 197.447 M81.200 315.640 C 76.928 316.035,73.498 317.245,70.669 319.356 C 67.876 321.441,65.431 323.929,64.729 325.400 C 64.309 326.280,63.662 327.540,63.290 328.200 C 62.744 329.171,62.614 330.508,62.608 335.200 L 62.600 341.000 64.133 343.697 C 67.404 349.453,75.796 354.526,84.732 356.151 C 85.465 356.284,86.525 356.755,87.086 357.196 C 87.648 357.638,88.309 358.006,88.554 358.014 C 89.998 358.061,92.800 362.099,92.800 364.134 C 92.800 371.425,78.804 373.045,70.446 366.722 C 67.794 364.716,64.446 366.325,61.547 371.000 C 58.790 375.446,67.153 381.208,78.200 382.475 C 95.602 384.470,106.194 377.023,106.184 362.800 C 106.178 354.045,103.564 350.379,94.000 345.712 C 91.124 344.309,83.127 341.200,82.393 341.200 C 82.136 341.200,81.469 340.840,80.909 340.400 C 80.350 339.960,79.656 339.600,79.366 339.600 C 77.360 339.600,75.242 334.756,76.101 332.133 C 77.764 327.060,88.977 326.376,94.487 331.012 C 96.832 332.985,99.583 332.486,100.949 329.841 C 101.301 329.158,101.961 328.140,102.415 327.577 C 105.367 323.920,104.529 321.607,99.400 319.253 C 97.860 318.546,96.303 317.804,95.939 317.605 C 93.395 316.208,85.886 315.207,81.200 315.640 M122.800 316.826 C 120.599 317.727,120.419 318.410,120.409 325.854 L 120.400 332.708 121.486 333.420 C 124.112 335.140,130.965 334.524,133.015 332.384 C 134.585 330.745,134.794 319.017,133.281 317.502 C 132.263 316.483,124.810 316.002,122.800 316.826 M157.513 316.774 C 150.173 317.100,151.036 313.045,150.800 348.314 C 150.551 385.465,150.000 382.225,156.556 382.158 C 164.140 382.081,163.998 382.295,164.004 370.938 C 164.011 358.539,164.001 358.563,168.978 358.753 C 173.128 358.912,175.233 360.821,179.312 368.125 C 179.704 368.826,180.547 370.210,181.187 371.200 C 181.826 372.190,182.988 374.105,183.769 375.455 C 187.313 381.582,189.051 382.521,196.108 382.121 C 200.579 381.868,201.490 381.550,201.617 380.200 C 201.817 378.074,201.276 376.962,198.900 374.602 C 198.405 374.110,198.000 373.518,198.000 373.285 C 198.000 373.052,197.595 372.351,197.100 371.728 C 196.605 371.104,195.981 370.235,195.713 369.797 C 191.823 363.428,189.837 360.400,189.550 360.400 C 189.358 360.400,189.200 360.144,189.200 359.831 C 189.200 359.518,188.750 358.727,188.200 358.073 C 186.905 356.533,186.916 354.400,188.220 354.400 C 188.966 354.400,193.517 350.115,194.610 348.384 C 201.978 336.713,195.895 320.940,182.800 317.763 C 178.995 316.840,166.784 316.363,157.513 316.774 M217.604 316.793 C 217.057 316.926,216.202 317.638,215.704 318.376 L 214.800 319.718 214.800 349.633 C 214.800 367.665,214.952 379.947,215.182 380.552 C 215.873 382.370,217.141 382.473,237.089 382.331 L 255.579 382.200 256.482 381.296 C 257.222 380.556,257.412 379.851,257.536 377.393 C 257.916 369.872,258.190 370.003,242.180 370.001 C 233.055 370.000,229.633 369.873,229.280 369.520 C 228.669 368.909,228.611 357.100,229.214 355.974 C 229.607 355.239,230.158 355.200,240.240 355.200 C 246.754 355.200,251.150 355.041,251.622 354.788 C 254.085 353.470,254.488 346.808,252.240 344.560 L 250.880 343.200 240.254 343.200 C 227.595 343.200,228.800 343.971,228.800 335.875 C 228.800 328.304,227.356 329.044,242.600 328.800 C 258.007 328.553,257.184 328.898,257.194 322.682 C 257.200 318.515,256.458 316.871,254.518 316.758 C 251.361 316.575,218.380 316.606,217.604 316.793 M272.526 316.803 C 270.576 317.589,270.609 317.077,270.468 348.800 C 270.306 385.126,269.805 382.472,276.800 382.350 C 283.818 382.229,283.357 383.753,283.600 359.871 C 283.805 339.670,283.922 338.264,285.227 340.267 C 286.723 342.564,288.637 345.152,290.000 346.723 C 290.770 347.610,292.358 349.565,293.528 351.068 C 298.846 357.895,302.921 363.050,303.434 363.600 C 303.742 363.930,304.954 365.508,306.128 367.107 C 307.302 368.705,309.238 371.045,310.431 372.307 C 311.624 373.568,312.946 375.135,313.368 375.790 C 317.022 381.449,319.481 382.810,325.034 382.241 C 328.290 381.907,328.779 381.706,329.231 380.519 C 329.873 378.829,329.683 318.743,329.032 317.885 C 327.946 316.454,320.992 315.783,318.589 316.878 C 316.402 317.874,316.400 317.898,316.400 339.172 L 316.400 358.783 315.400 358.327 C 314.850 358.077,314.400 357.745,314.400 357.591 C 314.400 357.436,313.905 356.667,313.300 355.881 C 312.695 355.095,311.346 353.225,310.303 351.726 C 309.260 350.227,307.331 347.830,306.016 346.400 C 304.700 344.970,303.619 343.688,303.612 343.551 C 303.605 343.414,302.745 342.220,301.700 340.898 C 300.655 339.576,299.530 338.081,299.200 337.576 C 298.870 337.071,297.700 335.649,296.600 334.417 C 295.500 333.185,294.240 331.676,293.800 331.063 C 291.482 327.836,289.718 325.579,287.965 323.600 C 286.893 322.390,285.282 320.460,284.384 319.312 C 282.265 316.603,276.206 315.320,272.526 316.803 M91.740 317.609 C 102.692 320.478,104.446 322.453,100.896 327.917 C 98.897 330.993,97.827 331.668,96.271 330.836 C 95.792 330.579,94.278 329.756,92.906 329.006 C 84.543 324.433,73.915 327.617,74.518 334.516 C 74.839 338.187,77.415 340.272,85.532 343.431 C 92.796 346.258,94.017 346.790,96.800 348.336 C 110.095 355.721,107.683 374.802,92.714 380.660 C 81.702 384.969,59.246 378.110,62.659 371.480 C 65.292 366.366,66.777 365.943,72.108 368.792 C 82.804 374.507,93.600 372.079,93.600 363.959 C 93.600 359.706,90.705 357.247,82.581 354.601 C 72.816 351.420,67.559 347.982,64.923 343.050 L 63.400 340.200 63.406 335.200 C 63.422 321.685,76.441 313.602,91.740 317.609 M132.300 318.341 C 133.171 318.813,133.200 319.018,133.200 324.800 L 133.200 330.771 131.707 331.786 C 130.390 332.681,129.802 332.800,126.707 332.800 C 121.595 332.800,121.600 332.807,121.600 325.194 L 121.600 319.188 122.767 318.478 C 124.162 317.630,130.809 317.535,132.300 318.341 M255.337 318.760 C 255.996 319.419,256.140 320.121,256.167 322.812 C 256.215 327.577,256.190 327.591,247.456 327.632 C 243.685 327.650,239.970 327.703,239.200 327.749 C 238.430 327.795,235.865 327.870,233.500 327.916 C 227.424 328.035,227.600 327.789,227.600 336.138 C 227.600 344.953,226.364 344.147,240.274 344.400 C 253.167 344.635,252.400 344.332,252.400 349.187 C 252.400 354.282,253.106 354.000,240.359 354.000 L 229.564 354.000 228.582 354.982 C 227.586 355.978,227.016 368.507,227.906 369.840 C 228.728 371.071,230.101 371.200,242.329 371.200 C 257.359 371.200,256.530 370.918,256.495 376.021 C 256.474 379.143,256.398 379.443,255.414 380.289 L 254.355 381.200 235.978 381.200 C 218.133 381.200,217.577 381.177,216.800 380.400 C 215.711 379.311,215.524 320.458,216.604 318.915 C 217.411 317.764,216.922 317.789,236.970 317.881 C 253.929 317.960,254.568 317.990,255.337 318.760 M280.876 318.014 C 281.818 318.276,282.861 319.034,283.762 320.112 C 286.586 323.492,290.741 328.666,292.845 331.424 C 294.983 334.225,303.210 344.590,305.965 347.952 C 307.965 350.394,314.396 358.957,314.412 359.200 C 314.419 359.310,314.878 359.730,315.432 360.133 C 317.612 361.721,317.600 361.836,317.600 339.580 L 317.600 319.258 318.678 318.410 C 320.048 317.333,326.072 317.431,327.793 318.558 L 328.815 319.228 328.707 349.437 L 328.600 379.646 327.600 380.414 C 326.789 381.037,325.928 381.184,323.043 381.191 L 319.485 381.200 316.743 378.369 C 315.234 376.812,314.000 375.397,314.000 375.225 C 314.000 375.053,312.875 373.571,311.500 371.932 C 308.035 367.801,304.923 364.024,303.812 362.600 C 300.382 358.204,295.580 352.096,293.290 349.219 C 291.811 347.360,289.918 344.930,289.083 343.819 C 284.497 337.712,283.934 337.234,282.860 338.528 C 282.559 338.891,282.387 345.335,282.311 359.163 L 282.200 379.270 281.078 380.235 C 278.537 382.420,271.644 381.295,271.578 378.684 C 271.565 378.198,271.569 364.660,271.585 348.600 L 271.616 319.400 272.630 318.500 C 273.774 317.486,278.062 317.233,280.876 318.014 M184.539 319.501 C 199.458 324.844,201.184 344.822,187.500 353.772 C 185.985 354.763,186.038 356.498,187.660 359.031 C 188.353 360.114,189.319 361.630,189.806 362.400 C 190.293 363.170,192.471 366.476,194.646 369.746 C 200.087 377.928,200.417 378.491,200.302 379.390 C 200.007 381.682,190.698 381.998,188.390 379.794 C 187.088 378.552,181.810 370.562,176.979 362.522 C 174.270 358.013,173.891 357.800,168.595 357.800 C 162.540 357.800,163.039 356.820,162.800 369.178 C 162.551 382.047,162.907 381.329,156.875 381.134 C 150.990 380.944,151.600 384.619,151.600 349.346 L 151.600 319.245 152.500 318.597 C 153.298 318.022,154.965 317.964,167.200 318.091 L 181.000 318.233 184.539 319.501 M163.824 328.540 L 162.800 329.564 162.813 338.082 C 162.829 348.920,162.348 348.157,169.273 348.333 C 179.716 348.598,185.461 344.198,184.568 336.618 C 183.779 329.918,180.792 327.963,170.924 327.686 L 164.848 327.516 163.824 328.540 M176.485 329.197 C 178.747 329.636,180.661 330.183,180.737 330.412 C 180.814 330.642,181.354 331.397,181.938 332.091 C 184.553 335.197,183.193 342.921,179.600 345.366 C 177.313 346.922,168.212 347.869,165.489 346.834 C 163.516 346.084,163.582 330.073,165.562 328.996 C 167.060 328.182,171.687 328.267,176.485 329.197 M123.109 336.322 C 120.351 336.649,120.400 336.240,120.400 358.828 C 120.400 383.110,120.142 381.886,125.347 382.250 C 134.623 382.897,134.000 384.557,134.000 359.200 C 134.000 335.434,134.131 336.463,131.100 336.353 C 127.459 336.220,124.084 336.207,123.109 336.322 M132.181 338.064 L 133.200 338.528 133.200 358.631 C 133.200 369.688,133.088 379.026,132.952 379.382 C 132.164 381.435,124.423 382.060,122.582 380.218 L 121.600 379.236 121.600 359.041 L 121.600 338.845 122.489 338.223 C 123.576 337.461,130.605 337.346,132.181 338.064 " stroke="none" fill="#98b6c4" fill-rule="evenodd"></path><path id="path4" d="M329.949 44.108 C 328.710 45.259,325.560 48.195,322.949 50.634 C 309.995 62.728,310.609 61.862,313.119 64.506 C 314.003 65.438,315.170 66.731,315.712 67.381 C 317.880 69.979,318.965 69.269,331.013 57.370 C 333.257 55.154,335.927 52.657,336.947 51.822 C 339.985 49.333,338.570 45.009,333.920 42.567 C 332.427 41.783,332.468 41.767,329.949 44.108 M334.175 44.051 C 336.220 45.472,338.057 47.987,337.758 48.955 C 337.403 50.101,321.048 65.957,319.057 67.086 C 317.812 67.792,317.883 67.828,315.002 65.017 C 312.113 62.198,312.043 61.768,314.191 60.079 C 315.097 59.366,322.975 51.971,329.509 45.700 C 332.436 42.891,332.482 42.874,334.175 44.051 M246.000 56.362 C 237.412 58.346,229.591 63.365,219.608 73.300 C 215.795 77.095,211.900 80.830,210.954 81.600 C 208.461 83.628,198.670 92.152,195.400 95.141 C 193.860 96.549,189.862 99.883,186.516 102.550 C 170.131 115.613,170.712 115.189,152.000 127.716 C 147.270 130.882,142.500 133.976,141.400 134.591 C 140.300 135.205,138.860 136.104,138.200 136.588 C 137.540 137.072,135.650 138.159,134.000 139.003 C 132.350 139.848,130.460 140.932,129.800 141.413 C 129.140 141.894,127.430 142.876,126.000 143.595 C 124.570 144.313,122.950 145.214,122.400 145.597 C 118.236 148.493,110.972 151.600,108.366 151.600 C 106.900 151.600,104.990 151.851,104.121 152.157 C 103.252 152.464,100.305 153.287,97.571 153.988 C 94.837 154.688,90.530 155.852,88.000 156.573 C 79.329 159.047,75.759 160.000,75.180 159.995 C 74.861 159.992,73.070 160.436,71.200 160.982 C 69.330 161.528,64.470 162.817,60.400 163.847 C 40.053 168.996,41.323 168.307,41.240 174.230 C 41.189 177.824,40.585 178.459,36.323 179.395 C 26.039 181.652,23.101 189.874,26.029 208.200 C 28.655 224.638,33.283 235.306,39.693 239.702 C 42.797 241.831,44.865 242.230,49.814 241.654 C 54.364 241.125,55.770 241.394,56.198 242.877 C 57.816 248.472,58.794 248.964,66.614 248.116 C 73.977 247.318,72.968 246.741,76.556 253.800 C 78.009 256.660,79.454 259.450,79.767 260.000 C 80.079 260.550,80.682 261.720,81.106 262.600 C 82.198 264.866,87.108 274.290,88.191 276.200 C 88.691 277.080,90.500 280.500,92.212 283.800 C 98.187 295.320,97.497 294.952,108.800 292.655 C 110.450 292.320,114.320 291.658,117.400 291.183 C 124.711 290.057,125.926 289.480,127.597 286.345 C 129.216 283.307,129.133 281.191,127.278 278.200 C 126.595 277.100,125.311 274.806,124.425 273.102 C 123.538 271.398,122.389 269.328,121.873 268.502 C 121.356 267.676,119.399 264.030,117.524 260.400 C 115.649 256.770,113.274 252.245,112.245 250.344 C 109.601 245.458,108.346 242.143,108.950 241.641 C 109.900 240.853,111.864 240.342,116.922 239.566 C 121.895 238.804,122.519 238.590,126.534 236.268 C 127.958 235.445,139.954 235.538,142.800 236.394 C 143.570 236.626,147.234 237.173,150.942 237.610 C 154.650 238.047,157.800 238.474,157.942 238.560 C 158.084 238.646,160.624 239.024,163.587 239.401 C 166.549 239.778,169.379 240.240,169.875 240.429 C 170.371 240.617,172.447 241.056,174.488 241.403 C 179.011 242.173,183.241 243.136,192.400 245.484 C 196.250 246.470,200.570 247.536,202.000 247.851 C 203.430 248.166,205.680 248.773,207.000 249.200 C 208.320 249.627,211.290 250.545,213.600 251.241 C 215.910 251.937,220.140 253.306,223.000 254.284 C 231.565 257.211,235.271 258.441,237.800 259.197 C 239.120 259.592,242.810 260.949,246.000 262.214 C 255.082 265.816,258.824 267.206,261.200 267.861 C 262.410 268.195,264.480 268.856,265.800 269.331 C 267.959 270.107,269.004 270.193,276.200 270.187 L 284.200 270.181 287.996 268.649 C 292.929 266.660,294.519 265.833,297.148 263.891 C 307.993 255.879,316.642 239.833,320.606 220.370 C 321.147 217.713,321.682 215.392,321.794 215.210 C 321.975 214.917,322.758 208.877,324.051 197.800 C 324.563 193.421,324.563 170.866,324.051 165.600 C 323.367 158.547,322.352 151.418,321.574 148.187 C 321.148 146.420,320.800 144.620,320.800 144.187 C 320.799 141.195,315.014 120.667,312.856 116.000 C 312.399 115.010,311.541 112.940,310.950 111.400 C 309.616 107.923,306.641 101.882,302.477 94.200 C 301.051 91.569,296.825 85.019,295.121 82.800 C 294.699 82.250,293.444 80.566,292.331 79.057 C 280.258 62.686,260.508 53.012,246.000 56.362 M260.328 57.629 C 263.910 58.535,272.181 61.946,274.154 63.331 C 275.366 64.182,283.811 70.830,284.600 71.555 C 285.322 72.218,288.684 76.149,290.796 78.800 C 291.935 80.230,293.032 81.460,293.234 81.533 C 293.435 81.607,293.600 81.830,293.600 82.029 C 293.600 82.228,294.375 83.428,295.322 84.696 C 297.161 87.157,301.317 93.841,302.542 96.307 C 302.949 97.128,303.501 98.070,303.768 98.400 C 304.035 98.730,305.468 101.700,306.953 105.000 C 308.437 108.300,310.090 111.918,310.626 113.040 C 311.162 114.162,311.600 115.293,311.600 115.554 C 311.600 115.815,311.864 116.432,312.188 116.925 C 313.229 118.514,316.953 131.037,318.218 137.204 C 318.556 138.852,319.084 140.920,319.393 141.800 C 319.701 142.680,320.064 144.411,320.199 145.647 C 320.334 146.882,320.704 148.862,321.022 150.047 C 321.655 152.403,322.490 159.376,323.222 168.400 C 324.178 180.205,323.083 204.457,321.206 213.000 C 320.772 214.980,320.240 217.590,320.026 218.800 C 319.470 221.937,317.474 229.125,315.862 233.800 C 313.350 241.081,313.076 241.792,312.388 242.800 C 312.012 243.350,311.576 244.215,311.419 244.722 C 311.261 245.229,310.221 247.029,309.107 248.722 C 307.994 250.415,306.434 252.790,305.641 254.000 C 297.513 266.406,279.391 272.828,265.488 268.229 C 263.776 267.663,262.093 267.200,261.748 267.200 C 261.403 267.200,260.554 266.939,259.860 266.620 C 259.167 266.301,257.610 265.651,256.400 265.175 C 255.190 264.700,252.400 263.598,250.200 262.727 C 248.000 261.855,245.300 260.867,244.200 260.530 C 243.100 260.194,242.020 259.777,241.800 259.604 C 241.580 259.431,240.140 258.924,238.600 258.476 C 234.763 257.362,232.062 256.456,230.400 255.725 C 228.223 254.767,220.429 252.122,217.783 251.443 C 212.502 250.088,209.340 249.163,208.200 248.637 C 207.540 248.333,206.370 247.957,205.600 247.800 C 204.830 247.644,203.210 247.192,202.000 246.797 C 198.006 245.490,180.289 241.395,176.800 240.972 C 175.590 240.825,173.520 240.377,172.200 239.976 C 170.880 239.575,168.630 239.133,167.200 238.995 C 165.770 238.857,163.520 238.491,162.200 238.181 C 160.880 237.872,156.290 237.162,152.000 236.604 C 147.710 236.046,143.480 235.414,142.600 235.199 C 141.720 234.984,137.989 234.689,134.309 234.542 L 127.619 234.275 125.309 235.684 C 122.350 237.491,118.592 238.678,114.800 239.005 C 108.519 239.546,106.591 240.824,107.960 243.539 C 108.366 244.343,108.828 245.423,108.989 245.941 C 109.149 246.458,110.552 249.248,112.108 252.141 C 113.663 255.033,115.354 258.210,115.865 259.200 C 121.641 270.380,123.188 273.259,123.931 274.203 C 124.409 274.811,124.800 275.497,124.800 275.728 C 124.800 275.959,125.134 276.520,125.542 276.974 C 127.452 279.101,128.222 282.233,127.418 284.599 C 126.195 288.197,125.095 288.855,118.692 289.816 C 116.477 290.149,113.481 290.670,112.033 290.974 C 110.585 291.278,107.212 291.928,104.539 292.418 L 99.677 293.310 98.439 292.428 C 97.757 291.942,97.200 291.358,97.200 291.129 C 97.200 290.901,96.075 288.708,94.700 286.257 C 91.240 280.089,91.258 280.122,87.841 273.400 C 86.164 270.100,84.160 266.320,83.389 265.000 C 82.617 263.680,81.809 262.195,81.593 261.700 C 81.377 261.205,81.021 260.395,80.803 259.900 C 79.447 256.827,74.734 248.181,73.972 247.371 C 72.892 246.221,71.073 246.112,67.400 246.977 C 66.080 247.288,63.861 247.598,62.469 247.667 C 59.633 247.806,60.028 248.132,57.600 243.642 C 55.897 240.492,55.202 240.221,50.428 240.850 C 44.900 241.578,42.339 240.896,38.583 237.696 C 34.828 234.495,30.013 224.066,28.382 215.600 C 27.980 213.510,27.458 211.170,27.224 210.400 C 26.352 207.534,25.807 196.681,26.309 192.185 C 27.121 184.919,30.646 181.141,37.652 180.028 C 41.381 179.436,42.398 178.210,42.405 174.294 C 42.415 169.419,42.696 169.180,50.508 167.424 C 51.878 167.116,56.150 166.033,60.000 165.017 C 63.850 164.001,68.080 162.905,69.400 162.582 C 70.720 162.259,72.430 161.742,73.200 161.432 C 73.970 161.123,75.950 160.597,77.600 160.263 C 82.274 159.316,93.314 156.451,98.800 154.760 C 103.832 153.210,106.223 152.694,108.600 152.647 C 111.122 152.598,118.454 149.414,123.386 146.227 C 124.494 145.511,126.390 144.427,127.600 143.818 C 128.810 143.209,130.070 142.483,130.400 142.206 C 130.730 141.928,132.440 140.993,134.200 140.127 C 135.960 139.261,138.542 137.754,139.938 136.777 C 141.333 135.799,143.133 134.607,143.938 134.127 C 147.486 132.007,148.296 131.510,149.875 130.486 C 151.700 129.302,154.882 127.085,157.400 125.242 C 158.280 124.598,160.440 123.144,162.200 122.012 C 163.960 120.879,166.120 119.418,167.000 118.764 C 167.880 118.110,169.050 117.266,169.600 116.889 C 172.124 115.155,178.328 110.401,179.494 109.305 C 180.206 108.637,181.016 108.000,181.294 107.891 C 182.007 107.610,190.111 101.110,193.627 98.000 C 195.243 96.570,197.482 94.590,198.601 93.600 C 199.720 92.610,201.695 90.900,202.989 89.800 C 209.135 84.576,213.120 80.935,219.200 74.991 C 222.830 71.442,227.240 67.439,229.000 66.094 C 230.760 64.750,232.496 63.388,232.858 63.067 C 234.684 61.449,243.936 57.690,247.600 57.076 C 250.687 56.560,257.219 56.843,260.328 57.629 M247.474 63.630 C 240.037 64.645,230.966 72.053,226.205 81.000 C 225.386 82.540,224.568 83.982,224.387 84.205 C 224.207 84.428,223.833 85.508,223.557 86.605 C 223.281 87.702,222.749 89.140,222.375 89.800 C 220.285 93.491,218.176 103.323,216.967 115.000 C 216.267 121.769,216.407 149.838,217.167 154.800 C 217.352 156.010,217.800 159.510,218.163 162.578 C 218.526 165.647,219.088 169.675,219.412 171.531 C 219.735 173.387,220.000 175.515,220.000 176.261 C 220.000 177.007,220.350 178.918,220.778 180.508 C 221.206 182.099,221.847 184.480,222.201 185.800 C 222.556 187.120,223.106 189.343,223.425 190.739 C 223.743 192.136,224.192 193.576,224.421 193.939 C 224.847 194.614,224.823 194.395,224.215 192.100 C 223.827 190.638,221.229 176.101,220.979 174.000 C 220.836 172.790,220.299 169.910,219.787 167.600 C 219.275 165.290,218.743 162.500,218.604 161.400 C 218.465 160.300,218.097 157.690,217.787 155.600 C 216.863 149.384,216.792 119.350,217.689 114.400 C 218.068 112.310,218.565 108.838,218.793 106.684 C 219.117 103.622,219.722 101.310,221.566 96.084 C 222.863 92.408,224.037 88.737,224.175 87.927 C 224.449 86.322,226.128 83.072,227.278 81.922 C 227.675 81.525,228.000 80.930,228.000 80.600 C 228.000 80.270,228.245 80.000,228.544 80.000 C 229.281 80.000,228.892 81.680,226.182 90.200 C 223.669 98.099,223.696 98.002,223.164 101.061 C 222.941 102.348,222.490 104.930,222.162 106.800 C 221.475 110.716,220.858 119.980,220.535 131.227 C 220.282 139.998,220.662 141.687,223.176 142.987 C 224.953 143.907,225.093 144.997,223.625 146.499 C 221.839 148.326,221.441 150.232,221.938 154.582 C 223.119 164.915,223.723 168.926,224.590 172.200 C 225.114 174.180,225.662 176.970,225.807 178.400 C 226.230 182.586,227.457 187.712,228.429 189.360 C 229.203 190.672,229.319 191.387,229.252 194.432 C 229.155 198.859,230.278 203.010,233.230 209.126 C 234.364 211.477,235.887 214.952,236.613 216.849 C 237.340 218.746,238.401 221.217,238.970 222.341 C 239.539 223.464,240.383 225.393,240.845 226.628 C 241.307 227.863,242.281 229.927,243.009 231.216 C 243.737 232.504,244.463 233.972,244.622 234.479 C 244.782 234.985,245.472 236.355,246.156 237.523 C 246.840 238.691,247.640 240.097,247.934 240.649 C 248.228 241.200,248.723 241.749,249.034 241.868 C 249.345 241.988,249.600 242.303,249.600 242.568 C 249.600 243.291,261.423 254.526,263.441 255.722 C 267.211 257.954,268.021 258.800,266.387 258.800 C 264.913 258.800,262.312 257.363,256.973 253.600 C 252.282 250.294,251.177 249.183,249.094 245.678 C 248.046 243.914,246.381 241.616,245.394 240.572 C 244.407 239.527,243.600 238.544,243.600 238.387 C 243.600 237.939,239.225 230.755,238.005 229.200 C 237.401 228.430,236.771 227.350,236.604 226.800 C 236.438 226.250,235.675 224.450,234.908 222.800 C 233.276 219.290,230.348 211.866,229.465 209.000 C 229.126 207.900,228.238 205.380,227.491 203.400 C 226.745 201.420,225.891 198.638,225.595 197.217 C 225.298 195.796,224.987 194.838,224.904 195.087 C 224.464 196.408,228.051 208.671,230.291 213.505 C 231.080 215.207,232.044 217.590,232.432 218.800 C 233.301 221.503,236.205 228.709,236.867 229.800 C 237.133 230.240,237.675 231.261,238.070 232.069 C 238.466 232.877,239.467 234.322,240.295 235.280 C 241.123 236.237,242.790 238.621,244.000 240.578 C 245.210 242.535,246.939 244.961,247.843 245.968 C 248.747 246.976,250.247 248.925,251.178 250.300 C 252.109 251.675,253.015 252.800,253.192 252.800 C 253.369 252.800,254.417 253.613,255.522 254.606 C 256.627 255.599,258.164 256.676,258.938 257.000 C 259.712 257.323,260.458 257.770,260.595 257.992 C 260.992 258.634,267.964 261.848,270.600 262.603 C 281.120 265.619,291.664 260.838,300.600 249.000 C 301.597 247.680,302.520 246.150,302.652 245.600 C 302.784 245.050,303.302 243.970,303.803 243.200 C 304.304 242.430,304.839 241.080,304.992 240.200 C 305.146 239.320,305.442 238.394,305.650 238.142 C 305.858 237.891,306.134 236.790,306.263 235.696 C 306.583 233.000,305.766 232.537,305.399 235.206 C 305.216 236.539,304.878 237.344,304.394 237.603 C 303.992 237.818,303.446 238.656,303.179 239.464 C 302.473 241.604,301.275 243.556,299.414 245.600 C 298.513 246.590,297.255 248.088,296.618 248.930 C 292.754 254.033,286.024 258.310,280.949 258.887 C 272.614 259.834,267.822 258.200,261.203 252.153 C 260.211 251.247,258.860 250.230,258.200 249.894 C 256.024 248.785,249.766 241.474,247.990 237.966 C 247.498 236.995,246.782 235.750,246.398 235.200 C 245.239 233.539,242.161 227.508,241.602 225.800 C 241.313 224.920,240.758 223.570,240.369 222.800 C 239.979 222.030,239.177 220.230,238.586 218.800 C 237.995 217.370,236.918 215.030,236.193 213.600 C 235.468 212.170,234.747 210.550,234.590 210.000 C 234.433 209.450,233.988 208.280,233.602 207.400 C 233.215 206.520,232.503 204.900,232.020 203.800 C 231.536 202.700,230.791 200.180,230.364 198.200 C 229.391 193.690,229.459 193.615,234.576 193.564 C 255.309 193.357,277.679 193.226,294.100 193.214 C 313.457 193.200,314.022 193.178,314.800 192.400 C 315.840 191.360,316.008 170.904,315.028 164.650 C 314.713 162.642,314.250 159.110,313.998 156.800 C 313.746 154.490,313.293 151.700,312.991 150.600 C 312.690 149.500,312.256 147.430,312.028 146.000 C 311.411 142.136,312.964 142.400,290.866 142.400 L 271.484 142.400 267.043 140.138 C 257.634 135.345,253.289 135.442,236.800 140.812 C 232.583 142.186,223.853 142.972,222.571 142.094 C 219.706 140.132,222.328 102.090,225.949 93.090 C 226.637 91.379,227.200 89.774,227.200 89.522 C 227.200 88.557,231.388 80.113,232.813 78.205 C 238.459 70.645,246.756 66.107,253.336 66.980 C 262.053 68.137,268.469 71.068,274.800 76.788 C 275.790 77.682,277.430 79.086,278.445 79.907 C 280.179 81.310,284.447 86.320,285.456 88.136 C 285.923 88.977,286.564 89.827,288.500 92.173 C 289.105 92.906,289.600 93.641,289.600 93.806 C 289.600 93.971,290.230 94.700,291.000 95.426 C 291.770 96.152,292.406 96.983,292.413 97.273 C 292.433 98.132,293.486 99.308,293.791 98.814 C 294.214 98.130,293.597 96.000,292.976 96.000 C 292.668 96.000,292.293 95.505,292.144 94.900 C 291.995 94.295,291.496 93.260,291.036 92.600 C 290.575 91.940,290.018 91.100,289.799 90.733 C 288.717 88.923,286.379 85.680,285.825 85.221 C 285.481 84.935,285.200 84.518,285.200 84.292 C 285.200 84.067,284.120 82.812,282.800 81.504 C 281.480 80.197,280.400 78.959,280.400 78.754 C 280.400 77.743,271.656 70.000,270.514 70.000 C 270.370 70.000,269.880 69.675,269.426 69.279 C 267.838 67.892,263.785 65.676,262.000 65.220 C 261.010 64.966,259.562 64.515,258.783 64.216 C 256.876 63.485,250.830 63.172,247.474 63.630 M239.200 69.410 C 239.200 69.525,238.750 69.791,238.200 70.000 C 237.650 70.209,237.200 70.634,237.200 70.943 C 237.200 71.253,236.885 71.609,236.500 71.735 C 236.115 71.860,235.215 72.444,234.500 73.033 C 233.470 73.880,233.200 73.967,233.200 73.451 C 233.200 73.067,233.528 72.800,234.000 72.800 C 234.537 72.800,234.800 72.533,234.800 71.990 C 234.800 71.494,235.188 71.033,235.800 70.800 C 236.350 70.591,236.800 70.249,236.800 70.039 C 236.800 69.830,237.115 69.576,237.500 69.476 C 238.553 69.201,239.200 69.175,239.200 69.410 M294.806 100.700 C 294.803 101.415,294.980 102.000,295.200 102.000 C 295.708 102.000,295.708 100.786,295.200 100.000 C 294.906 99.545,294.811 99.714,294.806 100.700 M366.000 113.862 C 364.790 114.170,362.180 114.860,360.200 115.394 C 358.220 115.929,354.350 116.837,351.600 117.413 C 342.585 119.299,342.319 119.543,343.464 124.873 C 343.891 126.860,344.514 128.553,345.045 129.171 L 345.922 130.190 350.061 129.149 C 376.162 122.586,374.325 123.581,372.186 117.159 C 370.835 113.103,370.235 112.783,366.000 113.862 M181.518 115.313 C 180.924 115.801,178.343 117.730,175.784 119.600 C 173.226 121.470,170.112 123.832,168.866 124.850 C 166.953 126.411,164.872 127.880,157.800 132.659 C 150.772 137.407,145.927 140.468,142.951 142.040 C 140.943 143.100,137.523 145.078,135.351 146.435 C 133.178 147.793,130.320 149.436,129.000 150.087 C 127.680 150.738,126.150 151.521,125.600 151.829 C 125.050 152.136,121.491 153.947,117.692 155.852 C 113.892 157.758,110.839 159.372,110.907 159.440 C 111.420 159.953,119.268 156.353,123.982 153.442 C 125.621 152.429,127.202 151.600,127.493 151.600 C 128.377 151.600,132.753 149.246,136.992 146.490 C 139.197 145.058,143.430 142.412,146.400 140.611 C 161.429 131.499,163.829 129.844,176.582 119.800 C 181.982 115.547,182.171 115.446,183.500 116.086 C 185.030 116.823,185.116 117.488,185.160 128.913 C 185.200 139.324,185.453 141.367,186.801 142.200 C 187.090 142.379,187.043 142.119,186.684 141.549 C 186.196 140.776,186.050 138.283,185.900 128.111 C 185.763 118.845,185.585 115.464,185.209 115.011 C 184.485 114.139,182.779 114.278,181.518 115.313 M370.026 114.814 C 370.452 115.042,370.800 115.521,370.800 115.879 C 370.800 116.237,371.101 117.483,371.468 118.649 C 372.580 122.177,371.195 123.285,364.000 124.628 C 362.350 124.936,359.830 125.532,358.400 125.953 C 346.520 129.448,345.644 129.385,344.671 124.954 C 343.728 120.657,343.999 120.220,348.200 119.261 C 349.300 119.009,351.730 118.426,353.600 117.964 C 355.470 117.502,358.170 116.866,359.600 116.552 C 361.030 116.237,362.920 115.721,363.800 115.404 C 366.540 114.418,368.873 114.197,370.026 114.814 M260.509 138.860 C 262.067 139.334,263.805 139.963,264.371 140.258 C 264.937 140.553,265.672 140.796,266.004 140.798 C 266.337 140.799,267.822 141.614,269.305 142.609 C 271.861 144.324,272.050 144.386,272.936 143.805 C 273.733 143.283,276.438 143.179,291.303 143.097 C 311.797 142.983,310.644 142.746,311.472 147.239 C 314.325 162.703,314.771 166.959,314.897 179.930 L 315.000 190.461 313.809 191.490 L 312.618 192.518 287.009 192.297 C 271.044 192.160,261.005 191.922,260.350 191.667 C 258.900 191.102,259.170 189.200,260.700 189.200 C 263.899 189.200,273.989 181.536,273.998 179.100 C 273.999 178.715,274.180 178.400,274.400 178.400 C 274.620 178.400,274.800 178.155,274.800 177.856 C 274.800 177.557,275.244 176.658,275.786 175.859 C 276.328 175.060,276.890 173.513,277.035 172.421 C 277.189 171.258,277.610 170.153,278.049 169.755 C 279.281 168.641,279.114 161.689,277.791 159.000 C 277.250 157.900,276.806 156.697,276.804 156.327 C 276.786 153.141,273.601 148.349,269.800 145.790 C 268.260 144.753,266.640 143.587,266.200 143.198 C 265.760 142.810,264.977 142.363,264.461 142.206 C 263.944 142.049,263.206 141.606,262.820 141.220 C 262.434 140.834,261.195 140.396,260.066 140.247 C 257.778 139.943,254.936 138.000,256.779 138.000 C 257.272 138.000,258.951 138.387,260.509 138.860 M249.967 139.744 C 249.542 140.111,245.600 140.325,245.600 139.981 C 245.600 139.772,246.620 139.600,247.867 139.600 C 249.113 139.600,250.058 139.665,249.967 139.744 M243.188 141.184 C 244.077 141.746,243.626 141.942,240.393 142.401 C 238.766 142.632,237.332 142.986,237.207 143.188 C 236.607 144.160,228.543 144.859,227.266 144.050 C 226.406 143.504,227.483 143.276,232.372 142.966 C 235.618 142.761,236.800 142.546,236.800 142.161 C 236.800 141.866,237.456 141.527,238.300 141.385 C 239.125 141.247,239.980 141.073,240.200 140.999 C 241.012 140.723,242.617 140.823,243.188 141.184 M262.160 142.129 C 263.237 142.718,264.364 143.200,264.663 143.200 C 265.901 143.200,273.463 151.323,274.728 154.013 C 281.241 167.856,272.144 186.012,257.505 188.387 C 253.716 189.002,229.927 188.929,229.079 188.300 C 228.615 187.956,228.141 186.301,227.562 183.000 C 227.099 180.360,226.201 175.770,225.567 172.800 C 222.366 157.800,222.116 147.213,224.962 147.195 C 225.727 147.190,228.722 146.584,235.541 145.053 C 236.938 144.739,238.648 144.206,239.341 143.868 C 240.033 143.530,241.680 142.985,243.000 142.656 C 244.320 142.327,246.300 141.777,247.400 141.434 C 250.881 140.348,259.659 140.762,262.160 142.129 M190.200 142.813 C 191.740 142.971,195.811 143.123,199.246 143.150 C 207.991 143.220,207.701 142.916,208.422 152.800 C 209.237 163.969,211.304 177.407,213.575 186.302 C 215.116 192.338,214.976 192.399,199.640 192.401 C 183.141 192.404,184.650 190.213,185.001 213.658 C 185.356 237.288,186.864 235.306,171.000 232.073 C 166.600 231.176,160.750 230.158,158.000 229.809 C 155.250 229.461,152.747 229.087,152.439 228.977 C 151.486 228.639,140.851 227.600,138.344 227.600 C 135.994 227.600,133.547 226.884,133.028 226.045 C 132.880 225.806,132.675 218.812,132.574 210.505 C 132.472 202.197,132.299 194.998,132.188 194.507 C 131.763 192.607,130.486 192.403,118.720 192.360 C 102.984 192.303,104.332 193.505,104.094 179.316 C 103.848 164.652,104.529 161.802,108.623 160.355 L 110.600 159.656 108.600 159.884 C 106.059 160.172,105.353 160.545,104.606 161.988 C 102.734 165.608,102.589 188.616,104.417 192.031 C 105.026 193.169,105.699 193.232,118.310 193.318 C 127.772 193.383,130.416 193.515,130.939 193.949 C 131.533 194.443,131.600 196.094,131.600 210.374 C 131.600 229.978,130.719 228.109,140.200 228.606 C 142.840 228.744,147.250 229.193,150.000 229.604 C 152.750 230.014,156.800 230.549,159.000 230.792 C 161.200 231.035,164.260 231.481,165.800 231.783 C 167.340 232.085,170.040 232.531,171.800 232.775 C 173.560 233.018,175.739 233.474,176.642 233.787 C 179.388 234.739,184.127 235.016,184.874 234.268 C 185.901 233.242,186.091 229.187,185.941 211.477 L 185.800 194.730 186.685 194.013 C 187.491 193.360,188.675 193.292,199.885 193.257 C 206.658 193.235,212.699 193.214,213.310 193.209 C 214.970 193.196,215.291 191.908,214.579 188.119 C 214.257 186.404,213.714 183.380,213.374 181.400 C 213.034 179.420,212.420 176.450,212.009 174.800 C 211.021 170.830,210.131 164.325,209.600 157.200 C 208.393 140.987,209.561 142.385,197.291 142.463 C 190.605 142.505,188.307 142.619,190.200 142.813 M90.000 163.990 C 88.790 164.390,86.489 165.120,84.888 165.613 C 80.905 166.837,81.476 166.980,86.237 165.952 C 94.386 164.191,93.644 163.105,93.821 177.059 C 94.065 196.334,96.799 207.882,104.849 223.641 C 107.760 229.340,108.095 230.488,107.120 231.439 C 106.365 232.175,100.821 233.473,96.200 233.996 C 91.558 234.521,82.122 236.042,75.800 237.286 C 69.868 238.452,64.671 238.502,63.820 237.400 C 56.284 227.646,49.644 202.375,50.161 185.418 C 50.493 174.494,50.170 174.968,58.600 173.052 C 64.923 171.614,76.172 168.364,73.800 168.660 C 72.700 168.797,70.990 169.130,70.000 169.399 C 63.021 171.298,57.017 172.815,54.800 173.238 C 52.823 173.616,51.904 174.031,50.964 174.968 L 49.727 176.200 49.463 182.600 C 49.027 193.154,50.961 208.928,53.411 214.800 C 53.732 215.570,54.255 217.280,54.573 218.600 C 55.630 222.984,57.122 226.500,61.361 234.600 C 63.810 239.278,63.964 239.419,66.515 239.316 C 68.741 239.226,77.451 237.958,82.400 237.004 C 84.050 236.686,87.380 236.150,89.800 235.813 C 112.183 232.694,111.744 232.924,107.421 226.609 C 102.491 219.409,98.668 208.842,95.695 194.200 C 94.711 189.358,94.631 188.163,94.531 176.845 C 94.400 162.043,94.556 162.485,90.000 163.990 M78.266 167.403 C 77.203 167.695,76.228 168.039,76.099 168.167 C 75.700 168.567,76.514 168.416,79.000 167.631 C 81.733 166.768,81.190 166.599,78.266 167.403 M245.601 191.229 C 237.988 191.399,231.942 191.376,231.601 191.176 C 231.248 190.970,236.776 190.846,245.000 190.877 L 259.000 190.930 245.601 191.229 M346.400 196.687 C 345.543 197.034,344.829 198.069,344.804 199.000 C 344.793 199.440,344.345 201.042,343.809 202.560 C 342.342 206.718,342.236 206.614,350.800 209.407 C 353.990 210.447,357.410 211.614,358.400 212.000 C 359.390 212.386,361.190 212.929,362.400 213.206 C 363.610 213.482,365.268 214.044,366.084 214.454 C 369.265 216.053,370.256 215.363,371.801 210.474 C 373.423 205.338,373.270 204.900,369.400 203.615 C 367.640 203.031,363.230 201.537,359.600 200.296 C 353.865 198.336,351.273 197.535,347.800 196.649 C 347.360 196.536,346.730 196.554,346.400 196.687 M351.352 198.644 C 353.138 199.219,356.310 200.292,358.400 201.029 C 360.490 201.766,363.010 202.574,364.000 202.825 C 364.990 203.076,365.980 203.398,366.200 203.541 C 366.420 203.683,367.680 204.070,369.000 204.400 C 371.977 205.144,372.144 205.788,370.608 210.612 C 369.406 214.387,368.437 215.116,366.572 213.649 C 366.029 213.222,364.689 212.750,363.593 212.599 C 362.497 212.448,361.511 212.180,361.402 212.003 C 361.292 211.826,358.007 210.667,354.101 209.428 C 344.041 206.236,343.431 205.873,344.522 203.736 C 344.842 203.111,345.311 201.617,345.565 200.415 C 346.249 197.188,346.542 197.098,351.352 198.644 M273.780 260.050 C 274.329 260.556,281.754 260.486,282.269 259.971 C 282.505 259.735,283.306 259.618,284.049 259.710 C 285.261 259.861,285.308 259.910,284.500 260.186 C 284.005 260.355,283.600 260.739,283.600 261.039 C 283.600 262.445,275.054 262.630,272.466 261.281 C 271.639 260.850,270.206 260.370,269.280 260.213 C 268.354 260.057,267.700 259.761,267.827 259.556 C 268.101 259.114,273.224 259.539,273.780 260.050 M77.600 317.432 C 68.420 319.847,63.417 326.111,63.406 335.200 L 63.400 340.200 64.923 343.050 C 67.559 347.982,72.816 351.420,82.581 354.601 C 90.705 357.247,93.600 359.706,93.600 363.959 C 93.600 372.079,82.804 374.507,72.108 368.792 C 67.430 366.292,66.540 366.257,64.707 368.500 C 60.663 373.450,61.136 374.935,67.833 378.316 C 75.307 382.089,86.393 383.133,92.714 380.660 C 107.683 374.802,110.095 355.721,96.800 348.336 C 94.017 346.790,92.796 346.258,85.532 343.431 C 77.415 340.272,74.839 338.187,74.518 334.516 C 73.915 327.617,84.543 324.433,92.906 329.006 C 94.278 329.756,95.792 330.579,96.271 330.836 C 98.280 331.911,102.785 326.999,102.796 323.720 C 102.811 319.330,86.171 315.176,77.600 317.432 M91.472 318.607 C 93.052 318.906,94.852 319.413,95.472 319.734 C 96.093 320.054,97.320 320.511,98.200 320.749 C 101.749 321.710,102.361 322.963,100.842 326.161 C 99.293 329.423,97.874 330.764,96.728 330.048 C 96.267 329.760,95.240 329.163,94.445 328.720 C 93.650 328.277,92.820 327.781,92.600 327.618 C 87.296 323.689,75.435 326.271,73.980 331.673 C 72.322 337.831,75.900 341.245,88.800 345.813 C 91.770 346.865,94.470 347.945,94.800 348.214 C 95.130 348.483,95.940 348.977,96.600 349.312 C 101.890 351.992,104.894 358.097,104.219 364.797 C 102.773 379.158,86.534 385.306,69.600 377.903 C 62.412 374.761,61.495 372.820,65.464 369.150 C 67.201 367.544,67.537 367.570,71.400 369.607 C 81.698 375.037,90.875 374.006,94.027 367.065 C 95.508 363.801,93.894 358.386,91.148 357.408 C 90.789 357.281,90.110 356.842,89.640 356.434 C 89.169 356.026,87.123 355.111,85.092 354.401 C 71.376 349.604,68.011 347.413,65.232 341.468 C 63.550 337.870,63.452 332.748,65.000 329.363 C 65.550 328.160,66.000 327.094,66.000 326.993 C 66.000 326.734,67.107 325.379,69.179 323.103 C 73.480 318.377,81.609 316.737,91.472 318.607 M122.767 318.478 L 121.600 319.188 121.600 325.194 C 121.600 332.807,121.595 332.800,126.707 332.800 C 129.802 332.800,130.390 332.681,131.707 331.786 L 133.200 330.771 133.200 324.800 C 133.200 317.654,133.377 317.877,127.667 317.811 C 124.743 317.778,123.682 317.922,122.767 318.478 M218.304 317.926 C 215.910 318.202,216.000 316.965,216.000 349.689 C 216.000 379.067,216.014 379.614,216.800 380.400 C 217.577 381.177,218.133 381.200,235.978 381.200 L 254.355 381.200 255.414 380.289 C 256.398 379.443,256.474 379.143,256.495 376.021 C 256.530 370.918,257.359 371.200,242.329 371.200 C 230.101 371.200,228.728 371.071,227.906 369.840 C 227.016 368.507,227.586 355.978,228.582 354.982 L 229.564 354.000 240.359 354.000 C 253.106 354.000,252.400 354.282,252.400 349.187 C 252.400 344.332,253.167 344.635,240.274 344.400 C 226.364 344.147,227.600 344.953,227.600 336.138 C 227.600 327.789,227.424 328.035,233.500 327.916 C 235.865 327.870,238.430 327.795,239.200 327.749 C 239.970 327.703,243.685 327.650,247.456 327.632 C 256.190 327.591,256.215 327.577,256.167 322.812 C 256.114 317.558,257.747 317.977,236.970 317.881 C 227.307 317.837,218.907 317.857,218.304 317.926 M272.630 318.500 L 271.616 319.400 271.585 348.600 C 271.569 364.660,271.565 378.198,271.578 378.684 C 271.644 381.295,278.537 382.420,281.078 380.235 L 282.200 379.270 282.311 359.163 C 282.451 333.836,282.130 334.561,289.083 343.819 C 289.918 344.930,291.811 347.360,293.290 349.219 C 295.580 352.096,300.382 358.204,303.812 362.600 C 304.923 364.024,308.035 367.801,311.500 371.932 C 312.875 373.571,314.000 375.053,314.000 375.225 C 314.000 375.397,315.234 376.812,316.743 378.369 L 319.485 381.200 323.043 381.191 C 325.928 381.184,326.789 381.037,327.600 380.414 L 328.600 379.646 328.707 349.437 L 328.815 319.228 327.793 318.558 C 326.072 317.431,320.048 317.333,318.678 318.410 L 317.600 319.258 317.600 339.580 C 317.600 361.836,317.612 361.721,315.432 360.133 C 314.878 359.730,314.419 359.310,314.412 359.200 C 314.396 358.957,307.965 350.394,305.965 347.952 C 303.210 344.590,294.983 334.225,292.845 331.424 C 290.741 328.666,286.586 323.492,283.762 320.112 C 281.531 317.442,274.904 316.482,272.630 318.500 M152.500 318.597 L 151.600 319.245 151.600 349.346 C 151.600 384.619,150.990 380.944,156.875 381.134 C 162.907 381.329,162.551 382.047,162.800 369.178 C 163.039 356.820,162.540 357.800,168.595 357.800 C 173.891 357.800,174.270 358.013,176.979 362.522 C 181.810 370.562,187.088 378.552,188.390 379.794 C 190.698 381.998,200.007 381.682,200.302 379.390 C 200.417 378.491,200.087 377.928,194.646 369.746 C 192.471 366.476,190.293 363.170,189.806 362.400 C 189.319 361.630,188.353 360.114,187.660 359.031 C 186.038 356.498,185.985 354.763,187.500 353.772 C 201.184 344.822,199.458 324.844,184.539 319.501 L 181.000 318.233 167.200 318.091 C 154.965 317.964,153.298 318.022,152.500 318.597 M131.367 319.043 C 132.331 319.412,132.305 330.049,131.339 330.851 C 130.281 331.729,124.307 331.850,123.467 331.010 C 122.628 330.171,122.467 320.093,123.280 319.280 C 123.782 318.778,130.188 318.590,131.367 319.043 M183.724 320.196 C 197.696 324.352,200.059 342.505,187.900 352.267 C 184.621 354.899,184.470 355.732,186.661 359.132 C 189.466 363.488,189.917 364.220,191.540 367.047 C 192.438 368.613,193.947 370.863,194.893 372.047 C 197.959 375.884,198.869 377.454,198.730 378.665 L 198.600 379.800 194.600 379.901 C 191.954 379.968,190.263 379.829,189.604 379.491 C 188.688 379.021,185.298 374.653,185.230 373.854 C 185.193 373.430,181.646 367.959,181.038 367.390 C 180.598 366.978,179.944 365.858,178.040 362.259 C 175.644 357.729,173.862 356.800,167.571 356.800 C 161.874 356.800,162.014 356.512,162.006 368.274 C 161.998 380.552,162.201 380.000,157.699 380.000 C 155.160 380.000,153.930 379.826,153.289 379.377 L 152.400 378.755 152.400 349.164 L 152.400 319.574 153.300 319.193 C 153.826 318.970,159.519 318.857,167.000 318.920 L 179.800 319.028 183.724 320.196 M254.543 319.209 C 254.657 319.324,254.840 320.699,254.949 322.264 C 255.275 326.947,255.897 326.743,240.857 326.883 L 228.330 327.000 227.365 328.122 C 226.144 329.543,225.870 341.414,227.007 343.614 C 227.821 345.188,227.814 345.187,240.400 345.514 L 251.400 345.800 251.503 348.800 C 251.656 353.295,252.530 352.969,239.715 353.203 C 233.602 353.315,228.287 353.558,227.904 353.744 C 226.669 354.344,226.333 356.686,226.469 363.736 C 226.646 372.841,225.192 371.999,240.744 372.005 C 254.067 372.011,254.519 372.053,255.085 373.334 C 255.623 374.550,255.108 379.161,254.383 379.619 C 253.654 380.080,218.401 380.115,217.676 379.655 C 216.933 379.184,216.968 319.599,217.711 319.116 C 218.240 318.773,254.198 318.864,254.543 319.209 M281.612 319.313 C 282.393 319.934,286.301 324.596,289.400 328.602 C 290.720 330.308,293.150 333.381,294.800 335.430 C 296.450 337.479,298.567 340.201,299.504 341.478 C 300.441 342.755,301.971 344.650,302.904 345.689 C 303.837 346.728,305.666 349.030,306.970 350.806 C 308.273 352.581,309.738 354.464,310.225 354.989 C 310.712 355.515,311.710 356.812,312.442 357.872 C 315.420 362.186,317.413 363.444,318.386 361.626 C 318.656 361.122,318.800 353.704,318.800 340.306 C 318.800 316.801,318.418 318.800,322.906 318.800 C 328.171 318.800,327.600 315.127,327.600 349.014 C 327.600 383.324,328.104 380.001,322.900 379.998 C 319.440 379.996,319.153 379.827,315.800 375.821 C 314.920 374.769,313.840 373.526,313.400 373.057 C 312.960 372.589,311.970 371.283,311.200 370.156 C 310.430 369.029,308.856 367.048,307.701 365.754 C 305.545 363.336,303.608 360.947,302.200 358.970 C 301.760 358.353,299.867 355.947,297.994 353.624 C 296.121 351.301,293.241 347.611,291.594 345.424 C 289.947 343.238,288.060 340.869,287.400 340.161 C 286.740 339.452,285.896 338.361,285.525 337.736 C 285.002 336.856,284.555 336.600,283.537 336.600 C 281.202 336.600,281.212 336.505,281.206 358.425 C 281.199 381.794,281.582 380.000,276.594 380.000 C 271.881 380.000,272.272 382.972,272.484 348.761 C 272.637 324.109,272.755 319.474,273.233 319.171 C 274.096 318.625,280.892 318.740,281.612 319.313 M163.014 327.750 L 162.000 328.764 162.000 338.105 C 162.000 345.545,162.116 347.605,162.568 348.224 C 163.354 349.297,176.625 349.421,177.858 348.366 C 178.266 348.017,179.230 347.482,180.000 347.177 C 187.319 344.279,187.642 332.491,180.515 328.348 L 178.200 327.001 171.114 326.868 L 164.028 326.736 163.014 327.750 M178.800 328.587 C 183.552 330.515,185.744 335.476,184.176 340.756 C 182.568 346.172,177.888 348.551,169.273 348.333 C 162.348 348.157,162.829 348.920,162.813 338.082 L 162.800 329.564 163.824 328.540 L 164.848 327.516 170.924 327.686 C 175.583 327.817,177.420 328.027,178.800 328.587 M122.489 338.223 L 121.600 338.845 121.600 359.041 L 121.600 379.236 122.582 380.218 C 124.423 382.060,132.164 381.435,132.952 379.382 C 133.088 379.026,133.200 369.688,133.200 358.631 L 133.200 338.528 132.181 338.064 C 130.605 337.346,123.576 337.461,122.489 338.223 M131.367 338.643 C 132.473 339.067,132.312 378.088,131.200 379.200 C 130.145 380.255,124.438 380.381,123.429 379.371 C 122.584 378.527,122.460 339.004,123.300 338.665 C 124.022 338.373,130.618 338.355,131.367 338.643 " stroke="none" fill="#7e9ca6" fill-rule="evenodd"></path></g></svg>