<svg id="svg" version="1.1" xmlns="http://www.w3.org/2000/svg" xmlns:xlink="http://www.w3.org/1999/xlink" width="400" height="400" viewBox="0, 0, 400,400"><g id="svgg"><path id="path0" d="M0.000 200.000 L 0.000 400.000 200.000 400.000 L 400.000 400.000 400.000 200.000 L 400.000 0.000 200.000 0.000 L 0.000 0.000 0.000 200.000 M61.350 166.926 C 67.282 169.641,69.987 175.830,67.638 181.311 C 66.090 184.924,60.126 186.222,57.753 183.463 L 56.814 182.371 58.407 180.037 C 61.942 174.858,59.595 170.003,53.789 170.484 C 50.093 170.791,48.000 173.514,48.000 178.017 C 48.000 181.900,49.126 183.671,58.205 194.071 C 67.471 204.684,67.625 216.416,58.589 223.298 C 43.625 234.694,22.353 225.933,26.566 210.110 C 27.553 206.401,31.045 202.251,33.611 201.738 C 34.274 201.605,34.914 201.340,35.032 201.148 C 35.314 200.692,39.013 200.698,39.905 201.157 C 40.287 201.353,41.076 201.701,41.659 201.930 C 44.346 202.984,45.717 206.440,43.600 206.820 C 32.251 208.858,33.875 223.355,45.251 221.556 C 54.437 220.104,54.665 208.851,45.709 198.927 C 35.954 188.117,33.556 181.947,36.548 175.358 C 40.185 167.349,52.861 163.039,61.350 166.926 M288.171 165.993 C 292.214 166.655,296.953 170.690,298.281 174.600 C 299.700 178.779,299.745 178.973,300.190 182.863 C 300.470 185.319,299.762 194.483,299.209 195.545 C 299.022 195.905,298.666 197.640,298.418 199.400 C 298.011 202.295,297.389 204.494,296.062 207.726 C 295.808 208.345,295.600 209.047,295.600 209.285 C 295.600 211.249,288.739 221.114,285.698 223.522 C 279.202 228.667,267.926 229.052,262.268 224.322 C 256.847 219.790,254.863 204.706,258.150 193.000 C 258.459 191.900,259.005 189.940,259.365 188.644 C 259.725 187.349,260.555 185.131,261.209 183.716 C 261.864 182.302,262.400 181.080,262.400 181.001 C 262.400 180.276,266.949 174.298,269.145 172.137 C 274.558 166.810,280.818 164.789,288.171 165.993 M109.200 167.000 C 113.173 167.793,121.628 167.796,124.236 167.004 C 127.360 166.057,127.338 166.041,127.097 169.048 C 126.533 176.079,120.752 178.390,109.002 176.281 C 104.725 175.514,105.111 175.194,104.023 180.400 C 103.540 182.710,102.904 185.590,102.609 186.800 C 102.315 188.010,101.794 190.350,101.451 192.000 C 99.667 200.590,96.617 214.703,95.788 218.200 C 95.475 219.520,95.019 221.770,94.775 223.200 C 94.139 226.917,94.369 226.800,87.699 226.800 L 81.897 226.800 82.174 224.300 C 82.449 221.824,83.105 218.649,84.219 214.400 C 84.536 213.190,84.990 211.030,85.227 209.600 C 85.464 208.170,86.103 205.144,86.646 202.875 C 87.189 200.606,87.900 197.366,88.226 195.675 C 88.552 193.984,88.985 191.741,89.187 190.691 C 89.389 189.641,89.733 188.201,89.951 187.491 C 90.169 186.781,90.824 183.770,91.406 180.800 C 91.987 177.830,92.563 174.975,92.686 174.455 C 93.282 171.931,83.352 175.158,80.908 178.283 C 78.502 181.359,77.454 188.202,78.441 194.400 C 78.789 196.586,72.922 195.155,70.953 192.574 C 69.736 190.978,69.215 183.896,70.161 181.800 C 70.360 181.360,70.818 180.190,71.179 179.200 C 73.501 172.842,80.862 167.980,90.600 166.371 C 93.512 165.890,105.704 166.302,109.200 167.000 M162.973 166.946 C 163.732 167.443,163.981 167.863,163.793 168.330 C 163.644 168.698,163.269 170.440,162.958 172.200 C 162.272 176.089,161.239 180.713,160.814 181.800 C 160.642 182.240,160.212 184.310,159.859 186.400 C 159.506 188.490,158.942 191.370,158.606 192.800 C 158.271 194.230,157.813 196.390,157.590 197.600 C 157.130 200.092,156.152 204.432,155.383 207.400 C 155.098 208.500,154.578 211.020,154.227 213.000 C 153.432 217.497,151.452 226.281,151.171 226.563 C 150.732 227.001,139.917 226.877,139.468 226.428 C 139.139 226.099,139.196 225.167,139.684 222.891 C 141.263 215.525,142.090 211.607,142.656 208.800 C 142.988 207.150,143.522 204.810,143.842 203.600 C 144.163 202.390,144.464 200.516,144.512 199.435 L 144.600 197.470 142.337 196.550 C 141.092 196.044,138.932 195.522,137.537 195.391 L 135.000 195.152 133.746 198.076 C 133.056 199.684,132.181 201.810,131.802 202.800 C 131.423 203.790,130.931 205.050,130.709 205.600 C 130.487 206.150,129.977 207.680,129.575 209.000 C 129.174 210.320,128.550 212.210,128.188 213.200 C 125.886 219.502,124.298 230.831,125.264 234.056 C 125.883 236.121,125.710 236.209,121.998 235.719 C 114.058 234.671,112.414 228.825,116.452 216.000 C 117.493 212.695,118.866 209.112,119.280 208.620 C 119.456 208.411,119.600 208.000,119.600 207.706 C 119.600 207.412,120.941 204.478,122.581 201.186 L 125.562 195.200 124.281 195.202 C 120.125 195.209,117.647 197.112,118.381 199.731 C 119.721 204.518,112.528 206.740,109.237 202.556 C 104.861 196.993,113.709 189.600,124.742 189.600 C 128.760 189.600,130.800 188.749,130.800 187.074 C 130.800 185.649,140.969 174.176,145.176 170.854 C 150.862 166.366,159.270 164.519,162.973 166.946 M202.800 166.576 C 204.890 166.589,207.468 166.452,208.529 166.271 L 210.458 165.942 210.180 167.871 C 210.027 168.932,209.654 170.084,209.351 170.431 C 209.048 170.779,208.800 171.328,208.800 171.653 C 208.800 172.711,205.564 175.579,203.849 176.041 C 202.340 176.447,196.212 176.063,192.762 175.346 C 191.769 175.140,191.702 175.240,191.207 177.665 C 190.922 179.059,190.264 182.124,189.745 184.476 C 188.399 190.567,187.986 190.000,193.767 190.000 C 200.624 190.000,200.765 190.118,199.268 194.600 L 198.600 196.600 192.803 196.800 L 187.007 197.000 186.322 200.200 C 185.945 201.960,185.172 205.650,184.604 208.400 C 184.036 211.150,183.324 214.480,183.022 215.800 C 182.721 217.120,182.070 220.000,181.576 222.200 C 180.443 227.253,181.025 226.869,174.562 226.825 C 168.357 226.783,168.079 226.673,168.696 224.512 C 168.934 223.680,169.409 221.470,169.751 219.600 C 170.094 217.730,170.647 215.030,170.980 213.600 C 171.313 212.170,171.773 210.010,172.003 208.800 C 172.233 207.590,172.950 204.260,173.597 201.400 C 174.243 198.540,175.242 193.950,175.816 191.200 C 176.390 188.450,177.315 184.130,177.870 181.600 C 179.659 173.462,179.650 173.600,178.382 173.600 C 172.869 173.600,168.507 184.969,170.823 193.305 C 171.391 195.353,171.203 195.501,168.439 195.175 C 160.004 194.180,159.523 181.334,167.617 173.250 C 173.057 167.817,179.720 165.885,191.600 166.296 C 195.670 166.437,200.710 166.563,202.800 166.576 M244.800 167.026 C 256.366 171.775,257.378 184.612,247.007 195.014 C 244.441 197.587,240.274 201.200,239.871 201.200 C 239.737 201.200,239.217 201.576,238.714 202.035 C 238.211 202.494,236.360 203.971,234.600 205.317 C 231.458 207.719,226.311 212.671,225.627 213.950 C 225.316 214.530,225.715 214.600,229.339 214.601 C 231.766 214.602,234.205 214.841,235.400 215.197 C 236.636 215.564,239.084 215.793,241.809 215.796 L 246.217 215.800 248.050 214.300 C 251.010 211.877,251.992 212.790,251.998 217.974 C 252.003 223.086,247.852 227.161,241.968 227.820 C 239.772 228.066,239.255 227.971,231.049 225.831 C 225.544 224.395,219.732 224.661,216.814 226.484 C 215.072 227.572,214.558 226.340,214.775 221.600 C 214.997 216.737,217.430 212.979,225.855 204.488 C 233.976 196.303,236.402 193.547,238.197 190.470 C 244.181 180.215,240.247 167.628,232.491 172.210 C 229.205 174.151,229.081 180.495,232.260 184.013 C 233.883 185.810,233.840 185.962,231.296 187.430 C 222.396 192.564,216.818 180.168,224.220 171.706 C 228.664 166.625,238.422 164.406,244.800 167.026 M325.983 166.430 C 333.333 168.124,337.000 172.907,337.000 180.800 C 337.000 188.161,334.123 192.562,324.250 200.303 C 315.894 206.855,314.526 207.982,312.156 210.276 C 310.106 212.261,308.795 213.902,308.801 214.474 C 308.802 214.543,310.647 214.610,312.901 214.622 C 315.156 214.633,317.630 214.870,318.400 215.148 C 322.821 216.743,329.155 216.191,331.551 214.000 C 333.572 212.153,333.373 212.230,334.139 212.996 C 336.179 215.036,335.087 222.125,332.352 224.596 C 328.246 228.305,325.462 228.624,316.571 226.403 C 309.075 224.531,305.631 224.386,302.000 225.789 C 298.793 227.029,298.272 226.888,297.860 224.669 C 297.265 221.458,299.514 214.153,301.429 213.080 C 301.743 212.904,302.000 212.512,302.000 212.208 C 302.000 211.904,305.701 207.883,310.224 203.271 C 322.509 190.748,324.637 187.204,324.303 179.825 C 324.005 173.234,321.468 170.283,317.260 171.633 C 312.315 173.219,311.534 179.508,315.693 184.244 C 317.168 185.925,316.778 186.595,313.498 188.006 C 304.831 191.734,300.514 179.121,307.772 171.272 C 311.701 167.023,319.526 164.942,325.983 166.430 M379.087 170.120 C 378.946 172.175,378.652 173.500,378.236 173.960 C 377.886 174.347,377.600 174.840,377.600 175.057 C 377.600 178.016,370.701 179.533,363.400 178.179 C 357.302 177.047,356.400 177.000,356.400 177.809 C 356.400 178.205,356.138 179.446,355.817 180.565 C 355.068 183.180,353.607 189.741,353.743 189.877 C 353.801 189.934,354.827 189.593,356.024 189.119 C 361.463 186.963,368.456 188.036,372.569 191.657 C 380.984 199.063,378.407 216.922,367.957 223.628 C 362.629 227.046,353.480 228.291,347.591 226.397 C 335.180 222.406,337.287 203.602,350.146 203.600 C 355.334 203.599,358.164 207.889,353.789 209.124 C 347.238 210.974,347.892 221.212,354.560 221.196 C 360.764 221.181,364.600 215.757,364.600 207.000 C 364.600 196.213,359.629 193.072,349.625 197.537 C 344.600 199.780,344.353 199.593,345.355 194.311 C 346.375 188.929,347.058 185.522,348.023 181.000 C 349.016 176.343,349.937 171.629,350.270 169.506 C 350.612 167.322,350.966 167.179,354.818 167.663 C 356.678 167.897,360.450 168.176,363.200 168.282 C 368.202 168.475,369.608 168.307,375.400 166.830 C 379.152 165.873,379.365 166.064,379.087 170.120 M282.600 171.474 C 271.218 177.566,263.873 220.800,274.219 220.800 C 278.514 220.800,283.761 212.408,285.974 202.000 C 286.184 201.010,286.530 199.390,286.742 198.400 C 289.268 186.611,288.717 174.484,285.534 171.806 C 284.142 170.634,284.165 170.637,282.600 171.474 M146.698 176.187 C 144.994 177.940,143.600 179.523,143.600 179.704 C 143.600 179.885,143.049 180.791,142.376 181.717 C 140.850 183.814,138.506 187.785,137.797 189.475 C 137.267 190.737,137.275 190.753,138.531 191.000 C 140.639 191.414,144.175 192.504,144.580 192.863 C 145.769 193.918,146.392 192.567,147.380 186.800 C 147.924 183.621,148.559 180.657,149.600 176.427 C 150.504 172.758,150.067 172.721,146.698 176.187 " stroke="none" fill="#f4f4f4" fill-rule="evenodd"></path><path id="path1" d="M48.279 166.838 C 42.989 168.083,38.202 172.156,36.838 176.573 C 34.719 183.431,36.317 186.906,48.015 200.876 C 56.602 211.130,53.761 222.838,42.807 222.340 C 33.117 221.899,32.390 208.968,41.929 206.703 C 46.253 205.676,42.638 201.600,37.403 201.600 C 31.751 201.600,27.314 206.435,26.885 213.059 C 25.597 232.963,60.783 232.348,64.399 212.403 C 65.454 206.585,63.382 201.083,57.618 194.400 C 48.624 183.971,47.640 182.478,47.300 178.732 C 46.727 172.411,52.022 167.927,57.404 170.176 C 61.049 171.699,61.611 177.982,58.407 181.393 C 57.345 182.523,57.363 182.588,59.026 183.616 C 63.454 186.353,68.644 181.905,67.843 176.060 C 66.847 168.798,57.891 164.576,48.279 166.838 M278.319 167.172 C 257.538 173.817,248.679 219.151,266.815 226.042 C 283.530 232.394,299.265 212.991,299.288 186.000 C 299.302 170.564,291.006 163.116,278.319 167.172 M88.200 167.595 C 77.239 169.809,70.905 176.416,70.485 186.072 C 70.225 192.050,71.624 194.050,76.523 194.707 C 77.991 194.904,78.104 194.856,77.800 194.162 C 75.857 189.712,77.935 179.959,81.517 176.723 C 84.073 174.413,92.481 172.113,93.332 173.490 C 93.466 173.707,92.221 180.166,90.566 187.842 C 88.910 195.519,87.311 202.970,87.013 204.400 C 86.438 207.155,82.842 223.992,82.511 225.476 C 82.317 226.346,82.347 226.351,87.848 226.276 L 93.381 226.200 94.282 222.200 C 94.777 220.000,95.811 215.230,96.578 211.600 C 101.447 188.572,104.369 175.471,104.711 175.129 C 104.969 174.871,106.463 175.033,109.052 175.599 C 119.658 177.917,124.974 176.106,126.460 169.668 C 127.059 167.072,127.041 167.059,123.958 167.785 C 120.473 168.607,115.353 168.549,108.200 167.607 C 100.632 166.610,93.098 166.605,88.200 167.595 M152.166 167.582 C 146.073 169.751,137.678 177.765,131.069 187.723 L 129.639 189.877 124.519 190.110 C 113.813 190.595,106.587 196.370,109.612 202.022 C 111.793 206.097,118.843 203.906,117.540 199.558 C 116.773 196.996,120.564 194.400,125.073 194.400 C 126.780 194.400,126.767 194.492,124.422 198.890 C 116.856 213.082,113.158 228.139,116.229 232.252 C 118.086 234.739,125.119 236.497,124.619 234.350 C 123.646 230.162,124.542 223.840,127.728 212.400 C 128.854 208.360,133.682 195.911,134.534 194.855 C 135.134 194.110,138.062 194.489,142.094 195.831 C 145.848 197.082,145.852 197.088,145.004 201.077 C 140.994 219.949,140.000 224.833,140.000 225.679 C 140.000 226.373,140.359 226.416,145.283 226.312 L 150.566 226.200 151.089 224.400 C 151.377 223.410,152.230 219.630,152.985 216.000 C 154.456 208.933,156.292 200.222,158.552 189.600 C 159.324 185.970,160.511 180.390,161.190 177.200 C 161.868 174.010,162.597 170.770,162.809 170.000 C 163.022 169.230,163.197 168.393,163.198 168.139 C 163.205 166.712,155.679 166.332,152.166 167.582 M180.400 167.521 C 169.620 169.762,163.302 176.363,162.881 185.822 C 162.667 190.638,163.206 192.209,165.514 193.499 C 167.362 194.531,170.298 194.846,170.000 193.980 C 169.459 192.410,169.850 182.534,170.533 180.540 C 172.068 176.053,174.689 173.557,178.516 172.936 C 180.488 172.616,180.498 172.769,178.965 179.822 C 176.259 192.266,174.714 199.433,174.183 202.000 C 173.887 203.430,173.269 206.310,172.808 208.400 C 172.348 210.490,171.357 215.097,170.606 218.638 C 169.856 222.179,169.187 225.329,169.121 225.638 C 169.023 226.095,170.023 226.221,174.490 226.311 L 179.979 226.422 180.212 225.311 C 180.340 224.700,180.606 223.480,180.803 222.600 C 181.159 221.005,181.687 218.581,184.801 204.226 C 185.705 200.060,186.535 196.505,186.646 196.326 C 186.757 196.147,189.416 196.000,192.555 196.000 L 198.263 196.000 198.731 193.969 C 199.611 190.159,199.957 190.400,193.600 190.400 C 188.528 190.400,188.001 190.334,188.013 189.700 C 188.033 188.606,191.030 174.837,191.309 174.558 C 191.446 174.421,193.142 174.600,195.079 174.955 C 204.122 176.615,208.204 174.715,209.411 168.283 L 209.689 166.802 208.344 167.101 C 206.807 167.443,201.358 167.432,191.000 167.068 C 184.966 166.855,183.249 166.929,180.400 167.521 M232.279 167.400 C 224.482 169.543,220.083 176.747,222.207 183.897 C 223.454 188.097,227.783 189.386,231.395 186.631 L 232.868 185.508 231.654 184.254 C 227.906 180.381,228.455 173.106,232.627 171.363 C 237.432 169.355,241.155 172.288,241.815 178.600 C 242.624 186.349,239.791 191.343,227.403 204.000 C 216.861 214.771,215.614 216.667,215.280 222.439 C 215.065 226.154,215.275 226.342,218.305 225.155 C 220.089 224.456,221.445 224.251,224.400 224.234 C 228.087 224.213,228.809 224.348,235.200 226.255 C 244.309 228.973,251.000 225.222,251.000 217.397 C 251.000 212.869,250.897 212.739,248.709 214.532 C 245.570 217.104,242.976 217.400,236.164 215.965 C 233.226 215.346,231.190 215.168,228.300 215.279 C 226.141 215.362,224.400 215.267,224.400 215.068 C 224.400 213.379,230.469 207.472,238.033 201.800 C 242.339 198.571,243.877 197.291,246.315 194.908 C 260.680 180.868,251.160 162.209,232.279 167.400 M314.907 167.635 C 308.739 169.589,305.000 174.331,305.000 180.200 C 305.000 186.522,308.692 189.695,313.320 187.352 C 316.023 185.983,316.136 185.686,314.629 183.926 C 310.204 178.755,312.679 170.800,318.714 170.800 C 322.920 170.800,325.000 173.976,325.000 180.400 C 325.000 187.609,322.380 192.066,312.068 202.400 C 299.986 214.508,297.070 219.446,298.542 225.311 L 298.793 226.310 301.242 225.321 C 305.854 223.458,308.778 223.600,318.551 226.164 C 329.328 228.990,337.556 222.677,334.063 214.262 L 333.591 213.125 332.125 214.412 C 329.129 217.043,326.173 217.402,319.364 215.962 C 316.346 215.323,314.469 215.166,311.500 215.301 C 308.644 215.431,307.600 215.350,307.600 215.001 C 307.600 213.351,313.818 207.463,322.600 200.797 C 334.751 191.573,338.681 184.155,335.862 175.762 C 333.396 168.421,323.966 164.764,314.907 167.635 M376.878 167.220 C 373.130 168.724,361.242 169.191,353.191 168.150 L 351.381 167.916 348.822 180.458 C 344.775 200.290,344.798 199.014,348.514 197.241 C 359.149 192.166,365.400 195.704,365.400 206.800 C 365.400 215.872,361.317 221.568,354.800 221.590 C 347.059 221.615,346.049 210.759,353.569 208.360 C 355.649 207.696,355.759 207.450,354.593 206.065 C 349.726 200.281,340.217 206.326,340.225 215.200 C 340.232 222.102,343.559 225.456,351.406 226.469 C 366.287 228.390,377.554 218.131,376.689 203.448 C 375.990 191.595,367.245 185.947,355.824 189.972 C 352.403 191.177,352.419 191.770,355.525 178.469 C 356.071 176.131,355.713 176.208,361.604 177.156 C 373.973 179.146,377.885 177.466,378.319 169.982 C 378.508 166.710,378.446 166.592,376.878 167.220 M285.884 171.186 C 291.329 174.506,289.339 200.218,282.602 213.597 C 279.838 219.085,276.274 222.157,273.482 221.456 C 263.414 218.929,271.019 174.907,282.200 170.995 C 284.290 170.264,284.379 170.268,285.884 171.186 M150.803 173.100 C 150.804 173.485,150.453 175.420,150.022 177.400 C 149.591 179.380,148.659 183.700,147.950 187.000 C 146.355 194.421,146.589 194.100,143.489 193.132 C 142.120 192.704,140.157 192.172,139.126 191.950 C 136.215 191.321,136.192 191.072,138.627 186.641 C 143.361 178.028,150.790 169.767,150.803 173.100 " stroke="none" fill="#1377a4" fill-rule="evenodd"></path><path id="path2" d="M53.100 165.882 C 53.595 165.978,54.405 165.978,54.900 165.882 C 55.395 165.787,54.990 165.709,54.000 165.709 C 53.010 165.709,52.605 165.787,53.100 165.882 M189.105 166.283 C 189.602 166.379,190.322 166.375,190.705 166.275 C 191.087 166.175,190.680 166.096,189.800 166.101 C 188.920 166.105,188.607 166.187,189.105 166.283 M237.100 166.282 C 237.595 166.378,238.405 166.378,238.900 166.282 C 239.395 166.187,238.990 166.109,238.000 166.109 C 237.010 166.109,236.605 166.187,237.100 166.282 M320.900 166.276 C 321.285 166.376,321.915 166.376,322.300 166.276 C 322.685 166.175,322.370 166.093,321.600 166.093 C 320.830 166.093,320.515 166.175,320.900 166.276 M198.100 167.076 C 198.485 167.176,199.115 167.176,199.500 167.076 C 199.885 166.975,199.570 166.893,198.800 166.893 C 198.030 166.893,197.715 166.975,198.100 167.076 M116.707 168.290 C 117.426 168.379,118.506 168.377,119.107 168.286 C 119.708 168.195,119.120 168.122,117.800 168.124 C 116.480 168.126,115.988 168.201,116.707 168.290 M363.900 168.682 C 364.395 168.778,365.205 168.778,365.700 168.682 C 366.195 168.587,365.790 168.509,364.800 168.509 C 363.810 168.509,363.405 168.587,363.900 168.682 M333.000 170.800 C 333.859 171.680,334.652 172.400,334.762 172.400 C 334.872 172.400,334.259 171.680,333.400 170.800 C 332.541 169.920,331.748 169.200,331.638 169.200 C 331.528 169.200,332.141 169.920,333.000 170.800 M234.900 171.076 C 235.285 171.176,235.915 171.176,236.300 171.076 C 236.685 170.975,236.370 170.893,235.600 170.893 C 234.830 170.893,234.515 170.975,234.900 171.076 M318.100 171.076 C 318.485 171.176,319.115 171.176,319.500 171.076 C 319.885 170.975,319.570 170.893,318.800 170.893 C 318.030 170.893,317.715 170.975,318.100 171.076 M268.581 172.900 L 267.000 174.600 268.700 173.019 C 270.281 171.548,270.584 171.200,270.281 171.200 C 270.216 171.200,269.451 171.965,268.581 172.900 M279.578 173.100 L 278.200 174.600 279.700 173.222 C 281.096 171.938,281.384 171.600,281.078 171.600 C 281.012 171.600,280.337 172.275,279.578 173.100 M74.575 174.100 L 73.400 175.400 74.700 174.225 C 75.912 173.130,76.184 172.800,75.875 172.800 C 75.806 172.800,75.221 173.385,74.575 174.100 M140.786 175.100 L 138.600 177.400 140.900 175.214 C 143.037 173.182,143.383 172.800,143.086 172.800 C 143.024 172.800,141.989 173.835,140.786 175.100 M60.101 175.400 C 60.105 176.280,60.187 176.593,60.283 176.095 C 60.379 175.598,60.375 174.878,60.275 174.495 C 60.175 174.113,60.096 174.520,60.101 175.400 M197.700 175.876 C 198.085 175.976,198.715 175.976,199.100 175.876 C 199.485 175.775,199.170 175.693,198.400 175.693 C 197.630 175.693,197.315 175.775,197.700 175.876 M229.309 177.600 C 229.309 178.590,229.387 178.995,229.482 178.500 C 229.578 178.005,229.578 177.195,229.482 176.700 C 229.387 176.205,229.309 176.610,229.309 177.600 M324.493 178.000 C 324.493 178.770,324.575 179.085,324.676 178.700 C 324.776 178.315,324.776 177.685,324.676 177.300 C 324.575 176.915,324.493 177.230,324.493 178.000 M241.293 178.400 C 241.293 179.170,241.375 179.485,241.476 179.100 C 241.576 178.715,241.576 178.085,241.476 177.700 C 241.375 177.315,241.293 177.630,241.293 178.400 M288.555 183.400 C 288.556 186.260,288.620 187.378,288.697 185.883 C 288.774 184.389,288.774 182.049,288.696 180.683 C 288.618 179.318,288.555 180.540,288.555 183.400 M336.931 181.000 C 336.933 182.540,337.005 183.121,337.092 182.291 C 337.179 181.461,337.177 180.201,337.089 179.491 C 337.000 178.781,336.929 179.460,336.931 181.000 M368.900 178.676 C 369.285 178.776,369.915 178.776,370.300 178.676 C 370.685 178.575,370.370 178.493,369.600 178.493 C 368.830 178.493,368.515 178.575,368.900 178.676 M35.709 180.400 C 35.709 181.390,35.787 181.795,35.882 181.300 C 35.978 180.805,35.978 179.995,35.882 179.500 C 35.787 179.005,35.709 179.410,35.709 180.400 M241.293 182.400 C 241.293 183.170,241.375 183.485,241.476 183.100 C 241.576 182.715,241.576 182.085,241.476 181.700 C 241.375 181.315,241.293 181.630,241.293 182.400 M299.744 185.600 C 299.744 187.690,299.812 188.545,299.894 187.500 C 299.976 186.455,299.976 184.745,299.894 183.700 C 299.812 182.655,299.744 183.510,299.744 185.600 M162.114 187.000 C 162.117 188.100,162.195 188.503,162.287 187.895 C 162.379 187.286,162.377 186.386,162.282 185.895 C 162.187 185.403,162.111 185.900,162.114 187.000 M305.600 185.725 C 305.600 185.794,306.185 186.379,306.900 187.025 L 308.200 188.200 307.025 186.900 C 305.930 185.688,305.600 185.416,305.600 185.725 M69.701 187.400 C 69.705 188.280,69.787 188.593,69.883 188.095 C 69.979 187.598,69.975 186.878,69.875 186.495 C 69.775 186.113,69.696 186.520,69.701 187.400 M123.911 189.893 C 124.851 189.978,126.291 189.977,127.111 189.891 C 127.930 189.805,127.160 189.736,125.400 189.737 C 123.640 189.739,122.970 189.809,123.911 189.893 M169.400 194.800 L 168.200 195.105 169.500 195.153 C 170.215 195.179,170.800 195.020,170.800 194.800 C 170.800 194.580,170.755 194.421,170.700 194.447 C 170.645 194.473,170.060 194.632,169.400 194.800 M244.778 196.700 L 243.400 198.200 244.900 196.822 C 246.296 195.538,246.584 195.200,246.278 195.200 C 246.212 195.200,245.537 195.875,244.778 196.700 M311.395 202.500 L 305.000 209.000 311.500 202.605 C 317.539 196.663,318.181 196.000,317.895 196.000 C 317.838 196.000,314.913 198.925,311.395 202.500 M226.995 203.700 L 220.600 210.200 227.100 203.805 C 233.139 197.863,233.781 197.200,233.495 197.200 C 233.438 197.200,230.513 200.125,226.995 203.700 M108.493 199.600 C 108.493 200.370,108.575 200.685,108.676 200.300 C 108.776 199.915,108.776 199.285,108.676 198.900 C 108.575 198.515,108.493 198.830,108.493 199.600 M117.234 202.953 L 116.269 204.200 117.413 203.112 C 118.043 202.514,118.477 201.953,118.379 201.865 C 118.280 201.777,117.765 202.267,117.234 202.953 M256.948 206.800 C 256.948 209.110,257.014 210.055,257.095 208.900 C 257.176 207.745,257.176 205.855,257.095 204.700 C 257.014 203.545,256.948 204.490,256.948 206.800 M342.575 206.900 L 341.400 208.200 342.700 207.025 C 343.415 206.379,344.000 205.794,344.000 205.725 C 344.000 205.416,343.670 205.688,342.575 206.900 M268.928 209.600 C 268.928 211.030,269.001 211.615,269.089 210.900 C 269.178 210.185,269.178 209.015,269.089 208.300 C 269.001 207.585,268.928 208.170,268.928 209.600 M311.600 210.200 C 309.961 211.850,308.710 213.200,308.820 213.200 C 308.930 213.200,310.361 211.850,312.000 210.200 C 313.639 208.550,314.890 207.200,314.780 207.200 C 314.670 207.200,313.239 208.550,311.600 210.200 M64.920 209.600 C 64.920 210.810,64.995 211.305,65.087 210.700 C 65.178 210.095,65.178 209.105,65.087 208.500 C 64.995 207.895,64.920 208.390,64.920 209.600 M241.905 216.683 C 242.402 216.779,243.122 216.775,243.505 216.675 C 243.887 216.575,243.480 216.496,242.600 216.501 C 241.720 216.505,241.407 216.587,241.905 216.683 M324.700 216.682 C 325.195 216.778,326.005 216.778,326.500 216.682 C 326.995 216.587,326.590 216.509,325.600 216.509 C 324.610 216.509,324.205 216.587,324.700 216.682 M278.575 218.900 L 277.400 220.200 278.700 219.025 C 279.415 218.379,280.000 217.794,280.000 217.725 C 280.000 217.416,279.670 217.688,278.575 218.900 M36.400 218.925 C 36.400 218.994,36.985 219.579,37.700 220.225 L 39.000 221.400 37.825 220.100 C 36.730 218.888,36.400 218.616,36.400 218.925 M59.781 221.700 L 58.200 223.400 59.900 221.819 C 61.481 220.348,61.784 220.000,61.481 220.000 C 61.416 220.000,60.651 220.765,59.781 221.700 M354.100 221.476 C 354.485 221.576,355.115 221.576,355.500 221.476 C 355.885 221.375,355.570 221.293,354.800 221.293 C 354.030 221.293,353.715 221.375,354.100 221.476 M42.300 222.282 C 42.795 222.378,43.605 222.378,44.100 222.282 C 44.595 222.187,44.190 222.109,43.200 222.109 C 42.210 222.109,41.805 222.187,42.300 222.282 M260.800 222.525 C 260.800 222.594,261.385 223.179,262.100 223.825 L 263.400 225.000 262.225 223.700 C 261.130 222.488,260.800 222.216,260.800 222.525 M178.400 226.400 L 176.600 226.680 178.276 226.740 C 179.198 226.773,180.064 226.620,180.200 226.400 C 180.336 226.180,180.392 226.027,180.324 226.060 C 180.256 226.093,179.390 226.246,178.400 226.400 M86.500 226.676 C 86.885 226.776,87.515 226.776,87.900 226.676 C 88.285 226.575,87.970 226.493,87.200 226.493 C 86.430 226.493,86.115 226.575,86.500 226.676 M141.300 226.691 C 142.125 226.778,143.475 226.778,144.300 226.691 C 145.125 226.605,144.450 226.534,142.800 226.534 C 141.150 226.534,140.475 226.605,141.300 226.691 M147.300 226.676 C 147.685 226.776,148.315 226.776,148.700 226.676 C 149.085 226.575,148.770 226.493,148.000 226.493 C 147.230 226.493,146.915 226.575,147.300 226.676 M353.100 227.089 C 353.815 227.178,354.985 227.178,355.700 227.089 C 356.415 227.001,355.830 226.928,354.400 226.928 C 352.970 226.928,352.385 227.001,353.100 227.089 M271.491 227.489 C 272.201 227.577,273.461 227.579,274.291 227.492 C 275.121 227.405,274.540 227.333,273.000 227.331 C 271.460 227.329,270.781 227.400,271.491 227.489 " stroke="none" fill="#95c3d4" fill-rule="evenodd"></path><path id="path3" d="M52.500 166.291 C 53.325 166.378,54.675 166.378,55.500 166.291 C 56.325 166.205,55.650 166.134,54.000 166.134 C 52.350 166.134,51.675 166.205,52.500 166.291 M282.900 166.291 C 283.725 166.378,285.075 166.378,285.900 166.291 C 286.725 166.205,286.050 166.134,284.400 166.134 C 282.750 166.134,282.075 166.205,282.900 166.291 M94.900 166.696 C 96.165 166.775,98.235 166.775,99.500 166.696 C 100.765 166.616,99.730 166.551,97.200 166.551 C 94.670 166.551,93.635 166.616,94.900 166.696 M156.100 166.691 C 156.925 166.778,158.275 166.778,159.100 166.691 C 159.925 166.605,159.250 166.534,157.600 166.534 C 155.950 166.534,155.275 166.605,156.100 166.691 M187.116 166.697 C 188.499 166.775,190.659 166.774,191.916 166.695 C 193.172 166.616,192.040 166.552,189.400 166.553 C 186.760 166.553,185.732 166.618,187.116 166.697 M236.300 166.693 C 237.235 166.777,238.765 166.777,239.700 166.693 C 240.635 166.609,239.870 166.540,238.000 166.540 C 236.130 166.540,235.365 166.609,236.300 166.693 M319.500 166.693 C 320.435 166.777,321.965 166.777,322.900 166.693 C 323.835 166.609,323.070 166.540,321.200 166.540 C 319.330 166.540,318.565 166.609,319.500 166.693 M103.905 167.083 C 104.402 167.179,105.122 167.175,105.505 167.075 C 105.887 166.975,105.480 166.896,104.600 166.901 C 103.720 166.905,103.407 166.987,103.905 167.083 M195.505 167.083 C 196.002 167.179,196.722 167.175,197.105 167.075 C 197.487 166.975,197.080 166.896,196.200 166.901 C 195.320 166.905,195.007 166.987,195.505 167.083 M61.800 167.866 C 62.460 168.215,63.357 168.793,63.793 169.150 C 64.542 169.764,64.555 169.760,64.022 169.074 C 63.457 168.346,61.520 167.186,60.920 167.216 C 60.744 167.225,61.140 167.517,61.800 167.866 M200.515 167.496 C 201.788 167.576,203.768 167.575,204.915 167.494 C 206.062 167.414,205.020 167.349,202.600 167.350 C 200.180 167.351,199.242 167.416,200.515 167.496 M378.520 169.200 C 378.520 170.410,378.595 170.905,378.687 170.300 C 378.778 169.695,378.778 168.705,378.687 168.100 C 378.595 167.495,378.520 167.990,378.520 169.200 M113.505 168.283 C 114.002 168.379,114.722 168.375,115.105 168.275 C 115.487 168.175,115.080 168.096,114.200 168.101 C 113.320 168.105,113.007 168.187,113.505 168.283 M273.493 169.014 C 272.672 169.572,272.000 170.125,272.000 170.242 C 272.000 170.359,272.495 170.110,273.100 169.688 C 273.705 169.267,274.560 168.720,275.000 168.473 C 275.440 168.226,275.617 168.019,275.393 168.012 C 275.169 168.005,274.314 168.456,273.493 169.014 M354.500 168.276 C 354.885 168.376,355.515 168.376,355.900 168.276 C 356.285 168.175,355.970 168.093,355.200 168.093 C 354.430 168.093,354.115 168.175,354.500 168.276 M81.200 169.600 C 79.990 170.239,79.180 170.762,79.400 170.762 C 79.620 170.762,80.790 170.239,82.000 169.600 C 83.210 168.961,84.020 168.438,83.800 168.438 C 83.580 168.438,82.410 168.961,81.200 169.600 M359.500 168.682 C 359.995 168.778,360.805 168.778,361.300 168.682 C 361.795 168.587,361.390 168.509,360.400 168.509 C 359.410 168.509,359.005 168.587,359.500 168.682 M367.305 168.687 C 367.914 168.779,368.814 168.777,369.305 168.682 C 369.797 168.587,369.300 168.511,368.200 168.514 C 367.100 168.517,366.697 168.595,367.305 168.687 M248.888 170.213 C 249.486 170.843,250.047 171.277,250.135 171.179 C 250.223 171.080,249.733 170.565,249.047 170.034 L 247.800 169.069 248.888 170.213 M53.705 169.887 C 54.314 169.979,55.214 169.977,55.705 169.882 C 56.197 169.787,55.700 169.711,54.600 169.714 C 53.500 169.717,53.097 169.795,53.705 169.887 M39.578 171.500 L 38.200 173.000 39.700 171.622 C 40.525 170.863,41.200 170.188,41.200 170.122 C 41.200 169.816,40.862 170.104,39.578 171.500 M57.400 170.468 C 57.840 170.712,58.479 171.112,58.820 171.356 C 59.160 171.600,59.015 171.395,58.497 170.900 C 57.979 170.405,57.340 170.005,57.078 170.012 C 56.815 170.019,56.960 170.224,57.400 170.468 M268.788 173.100 L 266.200 175.800 268.900 173.212 C 270.385 171.788,271.600 170.573,271.600 170.512 C 271.600 170.217,271.193 170.592,268.788 173.100 M143.691 172.700 L 141.726 174.600 143.563 173.038 C 146.138 170.849,146.189 170.800,145.908 170.800 C 145.769 170.800,144.772 171.655,143.691 172.700 M207.689 172.317 L 206.779 173.800 207.789 172.678 C 208.345 172.060,208.800 171.385,208.800 171.178 C 208.800 170.590,208.665 170.728,207.689 172.317 M66.678 172.595 C 67.044 173.362,67.414 173.919,67.501 173.832 C 67.684 173.649,66.470 171.200,66.196 171.200 C 66.095 171.200,66.312 171.828,66.678 172.595 M231.503 172.100 C 230.985 172.595,230.840 172.800,231.180 172.556 C 231.521 172.312,232.160 171.912,232.600 171.668 C 233.040 171.424,233.185 171.219,232.922 171.212 C 232.660 171.205,232.021 171.605,231.503 172.100 M286.655 172.200 C 287.580 173.779,287.600 173.803,287.600 173.311 C 287.600 173.079,287.229 172.464,286.776 171.944 L 285.953 171.000 286.655 172.200 M279.375 172.900 L 278.200 174.200 279.500 173.025 C 280.215 172.379,280.800 171.794,280.800 171.725 C 280.800 171.416,280.470 171.688,279.375 172.900 M74.981 174.100 L 73.400 175.800 75.100 174.219 C 76.681 172.748,76.984 172.400,76.681 172.400 C 76.616 172.400,75.851 173.165,74.981 174.100 M149.403 172.795 C 149.265 173.018,149.417 173.092,149.750 172.964 C 150.167 172.804,150.391 173.070,150.510 173.869 C 150.674 174.961,150.682 174.955,150.740 173.700 C 150.799 172.421,149.978 171.865,149.403 172.795 M297.078 173.795 C 297.444 174.562,297.814 175.119,297.901 175.032 C 298.084 174.849,296.870 172.400,296.596 172.400 C 296.495 172.400,296.712 173.028,297.078 173.795 M178.800 173.077 C 179.350 173.189,179.949 173.488,180.130 173.740 C 180.351 174.048,180.407 174.001,180.300 173.600 C 180.209 173.262,179.629 172.972,178.969 172.937 C 177.962 172.882,177.939 172.901,178.800 173.077 M91.275 173.480 C 92.463 173.583,93.217 173.857,93.334 174.229 C 93.453 174.606,93.496 174.563,93.456 174.108 C 93.405 173.540,92.998 173.392,91.396 173.359 L 89.400 173.318 91.275 173.480 M146.585 175.300 L 144.600 177.400 146.700 175.415 C 147.855 174.323,148.800 173.378,148.800 173.315 C 148.800 173.017,148.429 173.349,146.585 175.300 M229.588 174.422 C 229.346 174.874,229.207 175.422,229.280 175.639 C 229.352 175.857,229.618 175.487,229.871 174.817 C 230.397 173.425,230.239 173.205,229.588 174.422 M122.200 175.431 C 121.320 175.957,120.780 176.389,121.000 176.391 C 121.220 176.394,122.120 175.952,123.000 175.410 C 123.880 174.868,124.420 174.436,124.200 174.450 C 123.980 174.464,123.080 174.905,122.200 175.431 M104.665 175.100 C 104.565 175.265,105.320 175.424,106.342 175.454 C 107.773 175.496,107.970 175.436,107.200 175.194 C 105.856 174.772,104.886 174.736,104.665 175.100 M81.277 177.059 L 79.400 178.918 81.400 177.191 C 82.500 176.241,83.475 175.404,83.567 175.332 C 83.658 175.259,83.603 175.200,83.443 175.200 C 83.284 175.200,82.309 176.037,81.277 177.059 M138.786 177.500 L 136.600 179.800 138.900 177.614 C 141.037 175.582,141.383 175.200,141.086 175.200 C 141.024 175.200,139.989 176.235,138.786 177.500 M47.324 177.800 C 47.326 179.120,47.401 179.612,47.490 178.893 C 47.579 178.174,47.577 177.094,47.486 176.493 C 47.395 175.892,47.322 176.480,47.324 177.800 M200.505 175.887 C 201.114 175.979,202.014 175.977,202.505 175.882 C 202.997 175.787,202.500 175.711,201.400 175.714 C 200.300 175.717,199.897 175.795,200.505 175.887 M312.520 177.600 C 312.520 178.810,312.595 179.305,312.687 178.700 C 312.778 178.095,312.778 177.105,312.687 176.500 C 312.595 175.895,312.520 176.390,312.520 177.600 M114.100 176.676 C 114.485 176.776,115.115 176.776,115.500 176.676 C 115.885 176.575,115.570 176.493,114.800 176.493 C 114.030 176.493,113.715 176.575,114.100 176.676 M275.800 178.000 C 275.459 178.660,275.269 179.200,275.379 179.200 C 275.489 179.200,275.859 178.660,276.200 178.000 C 276.541 177.340,276.731 176.800,276.621 176.800 C 276.511 176.800,276.141 177.340,275.800 178.000 M324.934 180.400 C 324.934 182.050,325.005 182.725,325.091 181.900 C 325.178 181.075,325.178 179.725,325.091 178.900 C 325.005 178.075,324.934 178.750,324.934 180.400 M103.450 179.250 C 103.117 180.917,103.440 181.240,103.800 179.600 C 103.952 178.909,103.993 178.259,103.891 178.158 C 103.789 178.056,103.591 178.547,103.450 179.250 M367.911 178.293 C 368.851 178.378,370.291 178.377,371.111 178.291 C 371.930 178.205,371.160 178.136,369.400 178.137 C 367.640 178.139,366.970 178.209,367.911 178.293 M221.314 180.200 C 221.317 181.300,221.395 181.703,221.487 181.095 C 221.579 180.486,221.577 179.586,221.482 179.095 C 221.387 178.603,221.311 179.100,221.314 180.200 M241.720 180.400 C 241.720 181.610,241.795 182.105,241.887 181.500 C 241.978 180.895,241.978 179.905,241.887 179.300 C 241.795 178.695,241.720 179.190,241.720 180.400 M304.514 180.200 C 304.517 181.300,304.595 181.703,304.687 181.095 C 304.779 180.486,304.777 179.586,304.682 179.095 C 304.587 178.603,304.511 179.100,304.514 180.200 M229.227 179.600 C 229.213 180.492,230.635 183.452,231.258 183.827 C 231.710 184.099,231.712 184.045,231.270 183.500 C 230.979 183.140,230.402 181.981,229.989 180.923 C 229.576 179.865,229.233 179.270,229.227 179.600 M58.226 181.100 C 57.362 182.205,57.293 182.390,57.963 181.804 C 58.765 181.104,59.823 179.600,59.514 179.600 C 59.451 179.600,58.872 180.275,58.226 181.100 M262.580 181.640 C 262.011 182.762,261.613 183.747,261.695 183.829 C 261.777 183.911,262.327 182.993,262.918 181.789 C 263.508 180.585,263.906 179.600,263.802 179.600 C 263.698 179.600,263.148 180.518,262.580 181.640 M78.465 181.017 C 78.209 181.578,78.007 182.254,78.016 182.519 C 78.024 182.783,78.297 182.388,78.622 181.639 C 79.305 180.065,79.161 179.490,78.465 181.017 M288.937 183.000 C 288.939 184.760,289.009 185.430,289.093 184.489 C 289.178 183.549,289.177 182.109,289.091 181.289 C 289.005 180.470,288.936 181.240,288.937 183.000 M299.309 182.000 C 299.309 182.990,299.387 183.395,299.482 182.900 C 299.578 182.405,299.578 181.595,299.482 181.100 C 299.387 180.605,299.309 181.010,299.309 182.000 M140.708 182.900 C 139.833 184.249,139.048 185.856,139.487 185.400 C 140.048 184.817,141.698 182.000,141.479 182.000 C 141.376 182.000,141.029 182.405,140.708 182.900 M159.822 183.422 C 159.672 184.225,159.628 184.962,159.726 185.060 C 159.824 185.157,160.027 184.581,160.178 183.778 C 160.328 182.975,160.372 182.238,160.274 182.140 C 160.176 182.043,159.973 182.619,159.822 183.422 M336.493 183.200 C 336.493 183.970,336.575 184.285,336.676 183.900 C 336.776 183.515,336.776 182.885,336.676 182.500 C 336.575 182.115,336.493 182.430,336.493 183.200 M273.244 183.644 C 272.998 184.351,272.866 185.000,272.952 185.085 C 273.038 185.171,273.309 184.662,273.556 183.956 C 273.802 183.249,273.934 182.600,273.848 182.515 C 273.762 182.429,273.491 182.938,273.244 183.644 M148.200 184.400 C 148.048 185.091,148.007 185.741,148.109 185.842 C 148.211 185.944,148.409 185.453,148.550 184.750 C 148.883 183.083,148.560 182.760,148.200 184.400 M62.000 184.400 L 60.200 184.680 61.800 184.734 C 62.680 184.763,63.670 184.613,64.000 184.400 C 64.330 184.187,64.420 184.037,64.200 184.066 C 63.980 184.096,62.990 184.246,62.000 184.400 M70.134 186.800 C 70.134 188.450,70.205 189.125,70.291 188.300 C 70.378 187.475,70.378 186.125,70.291 185.300 C 70.205 184.475,70.134 185.150,70.134 186.800 M305.200 184.289 C 305.200 184.521,305.571 185.136,306.024 185.656 L 306.847 186.600 306.145 185.400 C 305.220 183.821,305.200 183.797,305.200 184.289 M162.531 187.000 C 162.533 188.540,162.605 189.121,162.692 188.291 C 162.779 187.461,162.777 186.201,162.689 185.491 C 162.600 184.781,162.529 185.460,162.531 187.000 M169.720 186.400 C 169.720 187.610,169.795 188.105,169.887 187.500 C 169.978 186.895,169.978 185.905,169.887 185.300 C 169.795 184.695,169.720 185.190,169.720 186.400 M77.344 189.200 C 77.344 191.290,77.412 192.145,77.494 191.100 C 77.576 190.055,77.576 188.345,77.494 187.300 C 77.412 186.255,77.344 187.110,77.344 189.200 M314.441 186.634 C 313.693 187.165,313.278 187.600,313.519 187.600 C 313.759 187.600,314.460 187.156,315.078 186.613 C 316.491 185.369,316.208 185.379,314.441 186.634 M353.422 187.422 C 353.272 188.225,353.228 188.962,353.326 189.060 C 353.424 189.157,353.627 188.581,353.778 187.778 C 353.928 186.975,353.972 186.238,353.874 186.140 C 353.776 186.043,353.573 186.619,353.422 187.422 M52.323 188.300 C 53.201 189.345,54.422 190.650,55.037 191.200 C 55.651 191.750,55.003 190.895,53.596 189.300 C 50.732 186.054,49.857 185.367,52.323 188.300 M37.949 188.200 C 38.165 188.640,38.634 189.360,38.993 189.800 L 39.644 190.600 39.251 189.800 C 39.035 189.360,38.566 188.640,38.207 188.200 L 37.556 187.400 37.949 188.200 M299.324 189.800 C 299.326 191.120,299.401 191.612,299.490 190.893 C 299.579 190.174,299.577 189.094,299.486 188.493 C 299.395 187.892,299.322 188.480,299.324 189.800 M226.500 188.276 C 226.885 188.376,227.515 188.376,227.900 188.276 C 228.285 188.175,227.970 188.093,227.200 188.093 C 226.430 188.093,226.115 188.175,226.500 188.276 M288.501 189.800 C 288.505 190.680,288.587 190.993,288.683 190.495 C 288.779 189.998,288.775 189.278,288.675 188.895 C 288.575 188.513,288.496 188.920,288.501 189.800 M361.491 188.689 C 362.201 188.777,363.461 188.779,364.291 188.692 C 365.121 188.605,364.540 188.533,363.000 188.531 C 361.460 188.529,360.781 188.600,361.491 188.689 M322.352 189.700 C 322.090 190.195,321.615 191.050,321.296 191.600 C 320.739 192.559,320.743 192.567,321.388 191.800 C 322.186 190.852,323.305 188.800,323.024 188.800 C 322.916 188.800,322.614 189.205,322.352 189.700 M333.385 190.500 C 332.768 191.435,332.520 191.989,332.832 191.731 C 333.433 191.234,334.964 188.800,334.676 188.800 C 334.583 188.800,334.002 189.565,333.385 190.500 M169.709 191.200 C 169.709 192.190,169.787 192.595,169.882 192.100 C 169.978 191.605,169.978 190.795,169.882 190.300 C 169.787 189.805,169.709 190.210,169.709 191.200 M249.426 191.500 C 248.562 192.605,248.493 192.790,249.163 192.204 C 249.965 191.504,251.023 190.000,250.714 190.000 C 250.651 190.000,250.072 190.675,249.426 191.500 M370.400 190.525 C 370.400 190.624,371.061 191.209,371.868 191.825 C 372.676 192.441,373.211 192.741,373.056 192.491 C 372.740 191.979,370.400 190.247,370.400 190.525 M56.000 192.525 C 56.000 192.594,56.585 193.179,57.300 193.825 L 58.600 195.000 57.425 193.700 C 56.330 192.488,56.000 192.216,56.000 192.525 M235.226 195.300 C 234.250 196.455,233.953 196.950,234.565 196.400 C 235.596 195.473,237.417 193.200,237.127 193.200 C 237.057 193.200,236.202 194.145,235.226 195.300 M124.500 194.691 C 126.216 194.871,126.204 194.846,125.390 196.420 C 125.054 197.069,124.869 197.600,124.979 197.600 C 125.249 197.600,126.400 195.347,126.400 194.820 C 126.400 194.582,125.663 194.429,124.700 194.467 L 123.000 194.534 124.500 194.691 M134.223 195.289 C 133.880 195.778,133.606 196.363,133.614 196.589 C 133.622 196.815,133.876 196.550,134.179 196.000 C 134.564 195.300,135.190 194.927,136.265 194.757 L 137.800 194.514 136.323 194.457 C 135.209 194.414,134.692 194.619,134.223 195.289 M167.700 194.676 C 168.085 194.776,168.715 194.776,169.100 194.676 C 169.485 194.575,169.170 194.493,168.400 194.493 C 167.630 194.493,167.315 194.575,167.700 194.676 M355.905 195.083 C 356.402 195.179,357.122 195.175,357.505 195.075 C 357.887 194.975,357.480 194.896,356.600 194.901 C 355.720 194.905,355.407 194.987,355.905 195.083 M186.667 196.267 C 186.520 196.413,186.403 196.728,186.406 196.967 C 186.410 197.232,186.532 197.211,186.722 196.912 C 186.936 196.576,188.776 196.385,192.616 196.300 L 198.200 196.175 192.567 196.088 C 189.468 196.039,186.813 196.120,186.667 196.267 M345.293 197.200 C 345.293 197.970,345.375 198.285,345.476 197.900 C 345.576 197.515,345.576 196.885,345.476 196.500 C 345.375 196.115,345.293 196.430,345.293 197.200 M145.152 198.087 C 145.337 199.198,145.393 199.255,145.519 198.454 C 145.601 197.933,145.503 197.343,145.301 197.141 C 145.079 196.919,145.021 197.293,145.152 198.087 M156.600 198.400 C 156.446 199.310,156.404 200.138,156.507 200.240 C 156.610 200.343,156.813 199.677,156.960 198.760 C 157.107 197.843,157.148 197.015,157.053 196.920 C 156.958 196.824,156.754 197.490,156.600 198.400 M347.900 197.429 C 346.349 198.270,346.525 198.561,348.100 197.759 C 349.608 196.993,349.875 196.794,349.367 196.816 C 349.165 196.825,348.505 197.101,347.900 197.429 M60.799 198.300 C 61.322 199.015,61.813 199.600,61.889 199.600 C 62.193 199.600,61.201 198.100,60.545 197.567 C 60.113 197.216,60.210 197.496,60.799 198.300 M226.596 204.500 L 219.800 211.400 226.700 204.604 C 230.495 200.867,233.600 197.762,233.600 197.704 C 233.600 197.419,232.909 198.090,226.596 204.500 M108.846 199.676 C 108.821 200.708,108.942 201.641,109.116 201.748 C 109.290 201.856,109.370 201.282,109.293 200.472 C 109.059 197.998,108.895 197.707,108.846 199.676 M240.167 200.229 L 238.600 201.658 240.300 200.362 C 241.853 199.178,242.232 198.800,241.867 198.800 C 241.793 198.800,241.028 199.443,240.167 200.229 M312.788 201.500 L 310.200 204.200 312.900 201.612 C 314.385 200.188,315.600 198.973,315.600 198.912 C 315.600 198.617,315.193 198.992,312.788 201.500 M257.314 201.000 C 257.317 202.100,257.395 202.503,257.487 201.895 C 257.579 201.286,257.577 200.386,257.482 199.895 C 257.387 199.403,257.311 199.900,257.314 201.000 M269.293 200.400 C 269.293 201.170,269.375 201.485,269.476 201.100 C 269.576 200.715,269.576 200.085,269.476 199.700 C 269.375 199.315,269.293 199.630,269.293 200.400 M36.505 201.487 C 37.114 201.579,38.014 201.577,38.505 201.482 C 38.997 201.387,38.500 201.311,37.400 201.314 C 36.300 201.317,35.897 201.395,36.505 201.487 M33.100 202.229 C 31.549 203.070,31.725 203.361,33.300 202.559 C 34.808 201.793,35.075 201.594,34.567 201.616 C 34.365 201.625,33.705 201.901,33.100 202.229 M49.200 202.800 C 49.670 203.460,50.144 204.000,50.254 204.000 C 50.364 204.000,50.070 203.460,49.600 202.800 C 49.130 202.140,48.656 201.600,48.546 201.600 C 48.436 201.600,48.730 202.140,49.200 202.800 M236.567 203.029 L 235.000 204.458 236.700 203.162 C 238.253 201.978,238.632 201.600,238.267 201.600 C 238.193 201.600,237.428 202.243,236.567 203.029 M319.767 203.029 L 318.200 204.458 319.900 203.162 C 321.453 201.978,321.832 201.600,321.467 201.600 C 321.393 201.600,320.628 202.243,319.767 203.029 M268.924 204.200 C 268.926 205.520,269.001 206.012,269.090 205.293 C 269.179 204.574,269.177 203.494,269.086 202.893 C 268.995 202.292,268.922 202.880,268.924 204.200 M376.928 205.200 C 376.928 206.630,377.001 207.215,377.089 206.500 C 377.178 205.785,377.178 204.615,377.089 203.900 C 377.001 203.185,376.928 203.770,376.928 205.200 M30.175 204.500 L 29.000 205.800 30.300 204.625 C 31.015 203.979,31.600 203.394,31.600 203.325 C 31.600 203.016,31.270 203.288,30.175 204.500 M365.342 207.000 C 365.341 208.980,365.408 209.840,365.492 208.912 C 365.576 207.984,365.577 206.364,365.495 205.312 C 365.412 204.260,365.343 205.020,365.342 207.000 M97.850 205.250 C 97.517 206.917,97.840 207.240,98.200 205.600 C 98.352 204.909,98.393 204.259,98.291 204.158 C 98.189 204.056,97.991 204.547,97.850 205.250 M112.900 204.276 C 113.285 204.376,113.915 204.376,114.300 204.276 C 114.685 204.175,114.370 204.093,113.600 204.093 C 112.830 204.093,112.515 204.175,112.900 204.276 M233.000 205.844 L 231.400 207.276 233.100 206.004 C 234.563 204.910,235.091 204.383,234.700 204.406 C 234.645 204.409,233.880 205.056,233.000 205.844 M285.429 205.429 C 285.281 206.015,285.238 206.572,285.332 206.666 C 285.427 206.760,285.624 206.358,285.771 205.771 C 285.919 205.185,285.962 204.628,285.868 204.534 C 285.773 204.440,285.576 204.842,285.429 205.429 M316.200 205.844 L 314.600 207.276 316.300 206.004 C 317.763 204.910,318.291 204.383,317.900 204.406 C 317.845 204.409,317.080 205.056,316.200 205.844 M44.000 205.707 C 44.000 206.098,43.572 206.412,42.900 206.513 L 41.800 206.680 42.913 206.740 C 43.973 206.797,44.824 205.891,44.249 205.316 C 44.112 205.179,44.000 205.355,44.000 205.707 M64.493 207.200 C 64.493 207.970,64.575 208.285,64.676 207.900 C 64.776 207.515,64.776 206.885,64.676 206.500 C 64.575 206.115,64.493 206.430,64.493 207.200 M228.587 209.700 L 226.200 212.200 228.700 209.813 C 230.075 208.499,231.200 207.374,231.200 207.313 C 231.200 207.017,230.805 207.378,228.587 209.700 M304.970 209.300 C 303.274 211.105,301.399 213.411,302.450 212.400 C 303.659 211.236,306.907 207.600,306.738 207.600 C 306.644 207.600,305.848 208.365,304.970 209.300 M311.785 209.700 L 309.800 211.800 311.900 209.815 C 313.851 207.971,314.183 207.600,313.885 207.600 C 313.822 207.600,312.877 208.545,311.785 209.700 M351.944 209.224 L 351.000 210.047 352.200 209.345 C 353.779 208.420,353.803 208.400,353.311 208.400 C 353.079 208.400,352.464 208.771,351.944 209.224 M52.924 212.200 C 52.926 213.520,53.001 214.012,53.090 213.293 C 53.179 212.574,53.177 211.494,53.086 210.893 C 52.995 210.292,52.922 210.880,52.924 212.200 M257.309 212.000 C 257.309 212.990,257.387 213.395,257.482 212.900 C 257.578 212.405,257.578 211.595,257.482 211.100 C 257.387 210.605,257.309 211.010,257.309 212.000 M376.046 210.867 C 376.021 211.234,375.896 211.864,375.770 212.267 C 375.552 212.962,375.563 212.963,375.997 212.287 C 376.248 211.896,376.373 211.266,376.273 210.887 C 376.111 210.268,376.088 210.266,376.046 210.867 M85.000 212.000 C 84.848 212.691,84.807 213.341,84.909 213.442 C 85.011 213.544,85.209 213.053,85.350 212.350 C 85.683 210.683,85.360 210.360,85.000 212.000 M26.528 214.000 C 26.528 215.430,26.601 216.015,26.689 215.300 C 26.778 214.585,26.778 213.415,26.689 212.700 C 26.601 211.985,26.528 212.570,26.528 214.000 M268.901 213.400 C 268.905 214.280,268.987 214.593,269.083 214.095 C 269.179 213.598,269.175 212.878,269.075 212.495 C 268.975 212.113,268.896 212.520,268.901 213.400 M35.309 214.800 C 35.309 215.790,35.387 216.195,35.482 215.700 C 35.578 215.205,35.578 214.395,35.482 213.900 C 35.387 213.405,35.309 213.810,35.309 214.800 M333.958 214.209 C 334.642 216.355,334.811 216.621,334.596 215.213 C 334.480 214.449,334.203 213.643,333.982 213.422 C 333.710 213.150,333.703 213.409,333.958 214.209 M224.667 214.267 C 224.146 214.788,224.411 215.600,225.100 215.594 C 225.654 215.589,225.685 215.515,225.249 215.239 C 224.946 215.047,224.821 214.689,224.972 214.445 C 225.275 213.955,225.087 213.846,224.667 214.267 M307.867 214.267 C 307.280 214.853,307.646 215.598,308.500 215.554 C 309.222 215.516,309.256 215.470,308.671 215.319 C 308.242 215.208,308.031 214.897,308.158 214.565 C 308.393 213.953,308.288 213.845,307.867 214.267 M339.693 215.200 C 339.693 215.970,339.775 216.285,339.876 215.900 C 339.976 215.515,339.976 214.885,339.876 214.500 C 339.775 214.115,339.693 214.430,339.693 215.200 M348.509 215.600 C 348.509 216.590,348.587 216.995,348.682 216.500 C 348.778 216.005,348.778 215.195,348.682 214.700 C 348.587 214.205,348.509 214.610,348.509 215.600 M228.100 215.087 C 228.705 215.178,229.695 215.178,230.300 215.087 C 230.905 214.995,230.410 214.920,229.200 214.920 C 227.990 214.920,227.495 214.995,228.100 215.087 M311.705 215.087 C 312.314 215.179,313.214 215.177,313.705 215.082 C 314.197 214.987,313.700 214.911,312.600 214.914 C 311.500 214.917,311.097 214.995,311.705 215.087 M63.265 216.217 C 62.595 217.688,62.723 218.002,63.447 216.665 C 63.786 216.040,63.988 215.454,63.896 215.363 C 63.805 215.271,63.521 215.656,63.265 216.217 M251.277 217.467 C 251.235 218.824,251.096 220.264,250.970 220.667 C 250.755 221.350,250.770 221.353,251.189 220.701 C 251.444 220.304,251.577 218.924,251.496 217.501 L 251.354 215.000 251.277 217.467 M270.012 218.278 C 270.005 218.540,270.405 219.179,270.900 219.697 C 271.395 220.215,271.600 220.360,271.356 220.020 C 271.112 219.679,270.712 219.040,270.468 218.600 C 270.224 218.160,270.019 218.015,270.012 218.278 M278.000 219.660 C 277.230 220.335,276.962 220.705,277.404 220.481 C 278.135 220.111,279.947 218.378,279.562 218.416 C 279.473 218.425,278.770 218.985,278.000 219.660 M260.364 221.533 C 260.580 221.936,261.071 222.521,261.455 222.833 C 261.887 223.184,261.790 222.904,261.201 222.100 C 260.151 220.665,259.757 220.398,260.364 221.533 M30.000 222.947 C 30.770 223.782,31.760 224.655,32.200 224.887 C 32.640 225.119,32.910 225.225,32.800 225.122 C 30.242 222.743,28.728 221.567,30.000 222.947 M214.901 223.000 C 214.905 223.880,214.987 224.193,215.083 223.695 C 215.179 223.198,215.175 222.478,215.075 222.095 C 214.975 221.713,214.896 222.120,214.901 223.000 M298.093 222.800 C 298.093 223.570,298.175 223.885,298.276 223.500 C 298.376 223.115,298.376 222.485,298.276 222.100 C 298.175 221.715,298.093 222.030,298.093 222.800 M223.091 224.289 C 223.801 224.377,225.061 224.379,225.891 224.292 C 226.721 224.205,226.140 224.133,224.600 224.131 C 223.060 224.129,222.381 224.200,223.091 224.289 M306.291 224.289 C 307.001 224.377,308.261 224.379,309.091 224.292 C 309.921 224.205,309.340 224.133,307.800 224.131 C 306.260 224.129,305.581 224.200,306.291 224.289 M344.000 224.197 C 344.000 224.468,347.249 226.084,347.430 225.903 C 347.514 225.819,346.776 225.359,345.791 224.881 C 344.806 224.402,344.000 224.094,344.000 224.197 M114.931 227.000 C 114.933 228.540,115.005 229.121,115.092 228.291 C 115.179 227.461,115.177 226.201,115.089 225.491 C 115.000 224.781,114.929 225.460,114.931 227.000 M230.600 225.200 C 231.040 225.389,231.670 225.544,232.000 225.544 C 232.378 225.544,232.304 225.417,231.800 225.200 C 231.360 225.011,230.730 224.856,230.400 224.856 C 230.022 224.856,230.096 224.983,230.600 225.200 M246.200 225.831 C 245.320 226.357,244.780 226.789,245.000 226.792 C 245.481 226.798,248.000 225.298,248.000 225.006 C 248.000 224.744,248.083 224.707,246.200 225.831 M264.000 225.019 C 264.000 225.313,266.449 226.450,266.809 226.324 C 267.004 226.256,266.451 225.898,265.582 225.530 C 264.712 225.161,264.000 224.931,264.000 225.019 M300.000 225.800 C 299.450 226.114,299.180 226.372,299.400 226.372 C 299.620 226.372,300.250 226.114,300.800 225.800 C 301.350 225.486,301.620 225.228,301.400 225.228 C 301.180 225.228,300.550 225.486,300.000 225.800 M350.500 226.676 C 350.885 226.776,351.515 226.776,351.900 226.676 C 352.285 226.575,351.970 226.493,351.200 226.493 C 350.430 226.493,350.115 226.575,350.500 226.676 M270.505 227.087 C 271.114 227.179,272.014 227.177,272.505 227.082 C 272.997 226.987,272.500 226.911,271.400 226.914 C 270.300 226.917,269.897 226.995,270.505 227.087 M274.900 227.076 C 275.285 227.176,275.915 227.176,276.300 227.076 C 276.685 226.975,276.370 226.893,275.600 226.893 C 274.830 226.893,274.515 226.975,274.900 227.076 M239.900 227.482 C 240.395 227.578,241.205 227.578,241.700 227.482 C 242.195 227.387,241.790 227.309,240.800 227.309 C 239.810 227.309,239.405 227.387,239.900 227.482 M323.305 227.487 C 323.914 227.579,324.814 227.577,325.305 227.482 C 325.797 227.387,325.300 227.311,324.200 227.314 C 323.100 227.317,322.697 227.395,323.305 227.487 M41.900 227.893 C 42.835 227.977,44.365 227.977,45.300 227.893 C 46.235 227.809,45.470 227.740,43.600 227.740 C 41.730 227.740,40.965 227.809,41.900 227.893 M123.400 235.200 L 121.800 235.486 123.500 235.543 C 124.435 235.574,125.200 235.420,125.200 235.200 C 125.200 234.980,125.155 234.826,125.100 234.857 C 125.045 234.888,124.280 235.042,123.400 235.200 " stroke="none" fill="#6fbdd4" fill-rule="evenodd"></path><path id="path4" d="M59.000 166.400 C 59.440 166.589,60.070 166.744,60.400 166.744 C 60.778 166.744,60.704 166.617,60.200 166.400 C 59.760 166.211,59.130 166.056,58.800 166.056 C 58.422 166.056,58.496 166.183,59.000 166.400 M94.917 166.297 C 96.411 166.374,98.751 166.374,100.117 166.296 C 101.482 166.218,100.260 166.155,97.400 166.155 C 94.540 166.156,93.422 166.220,94.917 166.297 M158.900 166.276 C 159.285 166.376,159.915 166.376,160.300 166.276 C 160.685 166.175,160.370 166.093,159.600 166.093 C 158.830 166.093,158.515 166.175,158.900 166.276 M185.107 166.290 C 185.826 166.379,186.906 166.377,187.507 166.286 C 188.108 166.195,187.520 166.122,186.200 166.124 C 184.880 166.126,184.388 166.201,185.107 166.290 M191.900 166.282 C 192.395 166.378,193.205 166.378,193.700 166.282 C 194.195 166.187,193.790 166.109,192.800 166.109 C 191.810 166.109,191.405 166.187,191.900 166.282 M209.275 166.271 C 209.647 166.369,210.031 166.753,210.129 167.125 C 210.255 167.603,210.321 167.538,210.354 166.900 C 210.389 166.207,210.193 166.011,209.500 166.046 C 208.862 166.079,208.797 166.145,209.275 166.271 M318.305 166.283 C 318.802 166.379,319.522 166.375,319.905 166.275 C 320.287 166.175,319.880 166.096,319.000 166.101 C 318.120 166.105,317.807 166.187,318.305 166.283 M378.277 166.414 C 378.540 166.751,378.821 168.101,378.902 169.414 L 379.049 171.800 379.124 169.349 C 379.184 167.429,379.048 166.779,378.500 166.349 C 377.887 165.868,377.859 165.876,378.277 166.414 M89.700 166.676 C 90.085 166.776,90.715 166.776,91.100 166.676 C 91.485 166.575,91.170 166.493,90.400 166.493 C 89.630 166.493,89.315 166.575,89.700 166.676 M104.105 166.687 C 104.714 166.779,105.614 166.777,106.105 166.682 C 106.597 166.587,106.100 166.511,105.000 166.514 C 103.900 166.517,103.497 166.595,104.105 166.687 M125.000 166.800 C 123.981 167.238,125.032 167.238,126.400 166.800 C 127.204 166.543,127.243 166.477,126.600 166.468 C 126.160 166.462,125.440 166.611,125.000 166.800 M181.505 166.683 C 182.002 166.779,182.722 166.775,183.105 166.675 C 183.487 166.575,183.080 166.496,182.200 166.501 C 181.320 166.505,181.007 166.587,181.505 166.683 M195.907 166.690 C 196.626 166.779,197.706 166.777,198.307 166.686 C 198.908 166.595,198.320 166.522,197.000 166.524 C 195.680 166.526,195.188 166.601,195.907 166.690 M201.511 167.093 C 202.451 167.178,203.891 167.177,204.711 167.091 C 205.530 167.005,204.760 166.936,203.000 166.937 C 201.240 166.939,200.570 167.009,201.511 167.093 M350.880 167.680 C 350.616 167.944,350.413 168.439,350.428 168.780 C 350.448 169.214,350.549 169.163,350.765 168.609 C 350.935 168.174,351.507 167.697,352.037 167.549 C 352.873 167.315,352.892 167.274,352.180 167.240 C 351.729 167.218,351.144 167.416,350.880 167.680 M114.500 167.897 C 115.985 167.974,118.415 167.974,119.900 167.897 C 121.385 167.820,120.170 167.757,117.200 167.757 C 114.230 167.757,113.015 167.820,114.500 167.897 M354.505 167.887 C 355.114 167.979,356.014 167.977,356.505 167.882 C 356.997 167.787,356.500 167.711,355.400 167.714 C 354.300 167.717,353.897 167.795,354.505 167.887 M371.300 167.876 C 371.685 167.976,372.315 167.976,372.700 167.876 C 373.085 167.775,372.770 167.693,372.000 167.693 C 371.230 167.693,370.915 167.775,371.300 167.876 M41.076 169.700 C 39.830 170.933,39.825 170.949,40.981 170.003 C 41.652 169.455,42.371 168.870,42.580 168.703 C 42.789 168.536,42.831 168.400,42.674 168.400 C 42.517 168.400,41.798 168.985,41.076 169.700 M65.200 169.800 C 65.946 170.570,66.647 171.200,66.757 171.200 C 66.867 171.200,66.346 170.570,65.600 169.800 C 64.854 169.030,64.153 168.400,64.043 168.400 C 63.933 168.400,64.454 169.030,65.200 169.800 M293.600 168.525 C 293.600 168.594,294.185 169.179,294.900 169.825 L 296.200 171.000 295.025 169.700 C 293.930 168.488,293.600 168.216,293.600 168.525 M330.800 168.478 C 333.358 170.857,334.872 172.033,333.600 170.653 C 332.830 169.818,331.840 168.945,331.400 168.713 C 330.960 168.481,330.690 168.375,330.800 168.478 M225.277 170.659 L 223.400 172.518 225.400 170.791 C 226.500 169.841,227.475 169.004,227.567 168.932 C 227.658 168.859,227.603 168.800,227.443 168.800 C 227.284 168.800,226.309 169.637,225.277 170.659 M271.687 169.900 C 270.730 170.835,270.714 170.881,271.581 170.206 C 273.288 168.876,273.369 168.800,273.086 168.800 C 272.936 168.800,272.306 169.295,271.687 169.900 M307.651 171.391 C 306.743 172.376,306.000 173.306,306.000 173.458 C 306.000 173.609,306.059 173.658,306.132 173.567 C 306.204 173.475,307.037 172.545,307.983 171.500 C 308.928 170.455,309.612 169.600,309.502 169.600 C 309.392 169.600,308.559 170.406,307.651 171.391 M53.900 170.282 C 54.395 170.378,55.205 170.378,55.700 170.282 C 56.195 170.187,55.790 170.109,54.800 170.109 C 53.810 170.109,53.405 170.187,53.900 170.282 M169.722 171.429 L 168.600 172.458 169.900 171.554 C 170.615 171.057,171.200 170.593,171.200 170.525 C 171.200 170.209,170.758 170.480,169.722 171.429 M143.878 171.813 C 143.260 172.356,142.914 172.800,143.108 172.800 C 143.302 172.800,143.883 172.350,144.400 171.800 C 145.595 170.528,145.331 170.534,143.878 171.813 M281.103 172.100 C 280.585 172.595,280.440 172.800,280.780 172.556 C 281.121 172.312,281.760 171.912,282.200 171.668 C 282.640 171.424,282.785 171.219,282.522 171.212 C 282.260 171.205,281.621 171.605,281.103 172.100 M320.200 171.485 C 321.194 171.724,323.200 173.574,323.200 174.251 C 323.200 174.527,323.378 174.863,323.595 174.997 C 324.374 175.478,323.472 173.787,322.264 172.500 C 321.590 171.783,320.675 171.221,320.222 171.246 C 319.418 171.292,319.418 171.297,320.200 171.485 M75.585 172.829 L 74.200 174.058 75.700 172.981 C 77.026 172.030,77.457 171.600,77.085 171.600 C 77.022 171.600,76.347 172.153,75.585 172.829 M314.520 172.900 C 313.530 173.986,312.794 175.357,312.816 176.074 C 312.824 176.363,313.104 175.971,313.437 175.203 C 313.770 174.434,314.425 173.399,314.891 172.903 C 315.358 172.406,315.649 172.000,315.539 172.000 C 315.429 172.000,314.971 172.405,314.520 172.900 M149.362 173.262 C 149.192 173.536,149.251 173.615,149.508 173.457 C 149.745 173.310,150.022 173.507,150.123 173.895 C 150.263 174.432,150.318 174.385,150.354 173.700 C 150.403 172.743,149.837 172.493,149.362 173.262 M222.555 173.812 C 222.190 174.369,221.964 174.898,222.053 174.987 C 222.142 175.076,222.518 174.620,222.889 173.974 C 223.714 172.536,223.469 172.417,222.555 173.812 M124.000 174.860 C 123.230 175.535,122.962 175.905,123.404 175.681 C 124.135 175.311,125.947 173.578,125.562 173.616 C 125.473 173.625,124.770 174.185,124.000 174.860 M147.417 174.878 C 146.485 175.855,146.419 176.018,147.108 175.649 C 147.589 175.392,148.172 174.826,148.405 174.391 C 148.969 173.336,148.817 173.411,147.417 174.878 M173.581 175.981 C 172.491 177.070,171.600 178.192,171.600 178.474 C 171.600 178.755,172.054 178.318,172.609 177.501 C 173.163 176.685,174.285 175.563,175.101 175.009 C 175.918 174.454,176.355 174.000,176.074 174.000 C 175.792 174.000,174.670 174.891,173.581 175.981 M278.093 175.100 C 277.057 176.596,276.721 177.200,276.923 177.200 C 277.017 177.200,277.570 176.480,278.153 175.600 C 279.336 173.812,279.284 173.379,278.093 175.100 M68.134 177.200 C 68.134 178.850,68.205 179.525,68.291 178.700 C 68.378 177.875,68.378 176.525,68.291 175.700 C 68.205 174.875,68.134 175.550,68.134 177.200 M266.344 175.100 C 265.193 176.489,264.706 177.200,264.904 177.200 C 265.014 177.200,265.586 176.570,266.173 175.800 C 267.263 174.371,267.395 173.832,266.344 175.100 M83.900 175.429 C 82.349 176.270,82.525 176.561,84.100 175.759 C 85.608 174.993,85.875 174.794,85.367 174.816 C 85.165 174.825,84.505 175.101,83.900 175.429 M92.240 176.440 C 92.093 177.357,92.052 178.185,92.147 178.280 C 92.242 178.376,92.446 177.710,92.600 176.800 C 92.754 175.890,92.796 175.062,92.693 174.960 C 92.590 174.857,92.387 175.523,92.240 176.440 M191.350 175.387 C 191.226 175.710,191.217 176.205,191.331 176.487 C 191.444 176.769,191.551 176.608,191.568 176.129 C 191.586 175.650,191.915 175.176,192.300 175.076 C 192.956 174.904,192.955 174.890,192.287 174.846 C 191.896 174.821,191.474 175.064,191.350 175.387 M376.430 176.168 C 375.930 176.700,374.993 177.354,374.348 177.622 C 373.702 177.889,373.253 178.187,373.350 178.283 C 373.651 178.584,375.753 177.327,376.770 176.238 C 377.303 175.667,377.649 175.200,377.539 175.200 C 377.429 175.200,376.930 175.636,376.430 176.168 M229.720 177.600 C 229.720 178.810,229.795 179.305,229.887 178.700 C 229.978 178.095,229.978 177.105,229.887 176.500 C 229.795 175.895,229.720 176.390,229.720 177.600 M47.714 177.800 C 47.717 178.900,47.795 179.303,47.887 178.695 C 47.979 178.086,47.977 177.186,47.882 176.695 C 47.787 176.203,47.711 176.700,47.714 177.800 M71.996 177.300 C 71.560 178.015,71.202 178.765,71.201 178.967 C 71.200 179.423,71.256 179.348,72.314 177.500 C 73.366 175.663,73.097 175.494,71.996 177.300 M200.505 176.287 C 201.114 176.379,202.014 176.377,202.505 176.282 C 202.997 176.187,202.500 176.111,201.400 176.114 C 200.300 176.117,199.897 176.195,200.505 176.287 M253.400 180.600 C 253.400 183.088,253.532 184.916,253.694 184.662 C 253.856 184.408,253.988 182.580,253.988 180.600 C 253.988 178.620,253.856 176.792,253.694 176.538 C 253.532 176.284,253.400 178.112,253.400 180.600 M81.351 177.300 C 80.170 178.648,79.480 179.600,79.684 179.600 C 79.784 179.600,80.445 178.880,81.152 178.000 C 82.525 176.292,82.664 175.801,81.351 177.300 M104.256 177.284 C 104.121 177.788,104.027 178.560,104.046 179.000 C 104.065 179.440,104.245 179.098,104.446 178.240 C 104.836 176.578,104.670 175.740,104.256 177.284 M112.536 176.893 C 112.791 177.055,114.620 177.166,116.600 177.139 C 120.713 177.084,120.128 176.888,115.336 176.715 C 113.541 176.650,112.281 176.730,112.536 176.893 M221.056 177.284 C 220.921 177.788,220.836 179.280,220.866 180.600 C 220.919 182.942,220.927 182.923,221.200 179.800 C 221.495 176.421,221.459 175.782,221.056 177.284 M356.433 176.944 C 356.525 177.023,357.500 177.191,358.600 177.318 C 359.887 177.467,360.315 177.426,359.800 177.203 C 359.036 176.872,356.086 176.645,356.433 176.944 M137.178 178.700 L 135.800 180.200 137.300 178.822 C 138.125 178.063,138.800 177.388,138.800 177.322 C 138.800 177.016,138.462 177.304,137.178 178.700 M149.049 178.215 C 148.912 178.573,148.818 179.256,148.841 179.733 C 148.867 180.281,149.003 180.086,149.210 179.203 C 149.560 177.716,149.465 177.133,149.049 178.215 M355.850 178.850 C 355.517 180.517,355.840 180.840,356.200 179.200 C 356.352 178.509,356.393 177.859,356.291 177.758 C 356.189 177.656,355.991 178.147,355.850 178.850 M178.200 179.600 C 178.046 180.510,178.004 181.338,178.107 181.440 C 178.210 181.543,178.413 180.877,178.560 179.960 C 178.707 179.043,178.748 178.215,178.653 178.120 C 178.558 178.024,178.354 178.690,178.200 179.600 M363.700 178.276 C 364.085 178.376,364.715 178.376,365.100 178.276 C 365.485 178.175,365.170 178.093,364.400 178.093 C 363.630 178.093,363.315 178.175,363.700 178.276 M304.028 180.233 C 304.044 181.315,304.204 182.560,304.385 183.000 C 304.578 183.470,304.626 182.727,304.502 181.200 C 304.248 178.055,303.989 177.529,304.028 180.233 M366.500 178.676 C 366.885 178.776,367.515 178.776,367.900 178.676 C 368.285 178.575,367.970 178.493,367.200 178.493 C 366.430 178.493,366.115 178.575,366.500 178.676 M312.840 179.200 C 312.815 179.866,314.247 183.200,314.558 183.200 C 314.666 183.200,314.426 182.435,314.024 181.500 C 313.622 180.565,313.197 179.530,313.078 179.200 C 312.887 178.667,312.861 178.667,312.840 179.200 M324.501 180.600 C 324.505 181.480,324.587 181.793,324.683 181.295 C 324.779 180.798,324.775 180.078,324.675 179.695 C 324.575 179.313,324.496 179.720,324.501 180.600 M274.465 181.817 C 273.795 183.288,273.923 183.602,274.647 182.265 C 274.986 181.640,275.188 181.054,275.096 180.963 C 275.005 180.871,274.721 181.256,274.465 181.817 M189.856 182.084 C 189.721 182.588,189.627 183.360,189.646 183.800 C 189.665 184.240,189.845 183.898,190.046 183.040 C 190.436 181.378,190.270 180.540,189.856 182.084 M35.693 183.200 C 35.693 183.970,35.775 184.285,35.876 183.900 C 35.976 183.515,35.976 182.885,35.876 182.500 C 35.775 182.115,35.693 182.430,35.693 183.200 M49.194 183.500 C 49.659 184.325,50.855 185.900,51.852 187.000 L 53.665 189.000 51.809 186.634 C 50.788 185.333,49.688 183.758,49.366 183.134 C 49.043 182.510,48.683 182.000,48.564 182.000 C 48.446 182.000,48.729 182.675,49.194 183.500 M170.501 183.400 C 170.505 184.280,170.587 184.593,170.683 184.095 C 170.779 183.598,170.775 182.878,170.675 182.495 C 170.575 182.113,170.496 182.520,170.501 183.400 M232.170 184.286 C 233.177 185.409,233.254 185.661,232.783 186.286 C 232.268 186.968,232.278 186.969,233.011 186.297 C 233.762 185.608,233.749 185.566,232.398 184.297 L 231.018 183.000 232.170 184.286 M300.124 185.400 C 300.126 186.720,300.201 187.212,300.290 186.493 C 300.379 185.774,300.377 184.694,300.286 184.093 C 300.195 183.492,300.122 184.080,300.124 185.400 M69.693 184.800 C 69.693 185.570,69.775 185.885,69.876 185.500 C 69.976 185.115,69.976 184.485,69.876 184.100 C 69.775 183.715,69.693 184.030,69.693 184.800 M102.849 184.200 C 102.816 184.640,102.696 185.450,102.583 186.000 L 102.377 187.000 102.806 186.019 C 103.042 185.479,103.161 184.669,103.072 184.219 C 102.913 183.421,102.907 183.421,102.849 184.200 M315.611 184.535 L 316.600 185.671 315.400 186.671 C 314.707 187.249,314.552 187.496,315.033 187.257 C 316.845 186.357,317.036 185.647,315.779 184.477 L 314.623 183.400 315.611 184.535 M139.800 185.200 C 139.459 185.860,139.269 186.400,139.379 186.400 C 139.489 186.400,139.859 185.860,140.200 185.200 C 140.541 184.540,140.731 184.000,140.621 184.000 C 140.511 184.000,140.141 184.540,139.800 185.200 M240.229 185.829 C 240.081 186.415,240.038 186.972,240.132 187.066 C 240.227 187.160,240.424 186.758,240.571 186.171 C 240.719 185.585,240.762 185.028,240.668 184.934 C 240.573 184.840,240.376 185.242,240.229 185.829 M170.075 188.600 C 170.064 190.580,170.190 192.542,170.354 192.959 C 170.518 193.377,170.585 192.027,170.504 189.959 C 170.303 184.867,170.097 184.215,170.075 188.600 M222.000 185.563 C 222.000 185.928,224.754 188.599,224.898 188.373 C 224.958 188.278,224.331 187.544,223.504 186.741 C 222.677 185.939,222.000 185.409,222.000 185.563 M176.622 187.022 C 176.472 187.825,176.428 188.562,176.526 188.660 C 176.624 188.757,176.827 188.181,176.978 187.378 C 177.128 186.575,177.172 185.838,177.074 185.740 C 176.976 185.643,176.773 186.219,176.622 187.022 M77.740 189.200 C 77.740 191.070,77.809 191.835,77.893 190.900 C 77.977 189.965,77.977 188.435,77.893 187.500 C 77.809 186.565,77.740 187.330,77.740 189.200 M188.652 187.700 C 187.915 190.451,187.831 190.409,193.900 190.313 L 199.400 190.225 194.051 190.101 L 188.702 189.976 188.956 188.388 C 189.230 186.669,189.043 186.243,188.652 187.700 M159.249 188.200 C 159.216 188.640,159.096 189.450,158.983 190.000 L 158.777 191.000 159.206 190.019 C 159.442 189.479,159.561 188.669,159.472 188.219 C 159.313 187.421,159.307 187.421,159.249 188.200 M313.106 187.828 C 312.981 187.953,312.006 188.202,310.939 188.381 C 309.256 188.663,309.185 188.710,310.400 188.735 C 311.645 188.761,314.844 187.713,313.767 187.632 C 313.528 187.615,313.231 187.702,313.106 187.828 M89.422 189.422 C 89.272 190.225,89.228 190.962,89.326 191.060 C 89.424 191.157,89.627 190.581,89.778 189.778 C 89.928 188.975,89.972 188.238,89.874 188.140 C 89.776 188.043,89.573 188.619,89.422 189.422 M129.200 189.072 C 128.313 190.010,128.297 190.078,129.053 189.676 C 129.522 189.426,130.011 188.947,130.140 188.611 C 130.454 187.794,130.368 187.836,129.200 189.072 M361.300 188.291 C 362.125 188.378,363.475 188.378,364.300 188.291 C 365.125 188.205,364.450 188.134,362.800 188.134 C 361.150 188.134,360.475 188.205,361.300 188.291 M226.305 188.683 C 226.802 188.779,227.522 188.775,227.905 188.675 C 228.287 188.575,227.880 188.496,227.000 188.501 C 226.120 188.505,225.807 188.587,226.305 188.683 M238.446 190.004 C 237.952 190.882,237.633 191.600,237.735 191.600 C 238.006 191.600,239.659 188.726,239.487 188.554 C 239.408 188.474,238.939 189.127,238.446 190.004 M357.000 188.800 C 355.981 189.238,357.032 189.238,358.400 188.800 C 359.204 188.543,359.243 188.477,358.600 188.468 C 358.160 188.462,357.440 188.611,357.000 188.800 M162.210 189.995 C 162.324 190.762,162.719 191.662,163.087 191.995 C 163.669 192.522,163.699 192.522,163.314 192.000 C 163.071 191.670,162.676 190.770,162.437 190.000 L 162.003 188.600 162.210 189.995 M101.422 190.622 C 101.272 191.425,101.228 192.162,101.326 192.260 C 101.424 192.357,101.627 191.781,101.778 190.978 C 101.928 190.175,101.972 189.438,101.874 189.340 C 101.776 189.243,101.573 189.819,101.422 190.622 M299.709 190.800 C 299.709 191.790,299.787 192.195,299.882 191.700 C 299.978 191.205,299.978 190.395,299.882 189.900 C 299.787 189.405,299.709 189.810,299.709 190.800 M39.043 190.727 C 39.459 191.457,40.148 192.357,40.574 192.727 C 41.024 193.118,40.866 192.731,40.196 191.800 C 38.593 189.574,38.150 189.161,39.043 190.727 M55.200 191.000 C 55.946 191.770,56.647 192.400,56.757 192.400 C 56.867 192.400,56.346 191.770,55.600 191.000 C 54.854 190.230,54.153 189.600,54.043 189.600 C 53.933 189.600,54.454 190.230,55.200 191.000 M119.400 190.010 C 118.866 190.247,119.198 190.286,120.400 190.127 C 121.390 189.996,122.275 189.824,122.367 189.744 C 122.714 189.443,120.164 189.672,119.400 190.010 M271.450 190.850 C 271.117 192.517,271.440 192.840,271.800 191.200 C 271.952 190.509,271.993 189.859,271.891 189.758 C 271.789 189.656,271.591 190.147,271.450 190.850 M199.654 191.200 C 199.619 191.750,199.496 192.650,199.383 193.200 L 199.177 194.200 199.607 193.215 C 199.843 192.674,199.965 191.774,199.878 191.215 L 199.720 190.200 199.654 191.200 M372.800 192.200 C 373.546 192.970,374.247 193.600,374.357 193.600 C 374.467 193.600,373.946 192.970,373.200 192.200 C 372.454 191.430,371.753 190.800,371.643 190.800 C 371.533 190.800,372.054 191.430,372.800 192.200 M113.700 191.996 C 111.894 193.097,112.063 193.366,113.900 192.314 C 115.748 191.256,115.823 191.200,115.367 191.201 C 115.165 191.202,114.415 191.560,113.700 191.996 M140.586 191.816 C 141.679 192.116,142.640 192.293,142.724 192.210 C 142.924 192.010,139.969 191.195,139.200 191.238 C 138.870 191.256,139.494 191.517,140.586 191.816 M258.200 192.400 C 258.048 193.091,258.007 193.741,258.109 193.842 C 258.211 193.944,258.409 193.453,258.550 192.750 C 258.883 191.083,258.560 190.760,258.200 192.400 M158.256 192.484 C 158.121 192.988,158.027 193.760,158.046 194.200 C 158.065 194.640,158.245 194.298,158.446 193.440 C 158.836 191.778,158.670 190.940,158.256 192.484 M345.440 193.240 C 345.293 194.157,345.252 194.985,345.347 195.080 C 345.442 195.176,345.646 194.510,345.800 193.600 C 345.954 192.690,345.996 191.862,345.893 191.760 C 345.790 191.657,345.587 192.323,345.440 193.240 M319.600 193.200 C 319.130 193.860,318.836 194.400,318.946 194.400 C 319.056 194.400,319.530 193.860,320.000 193.200 C 320.470 192.540,320.764 192.000,320.654 192.000 C 320.544 192.000,320.070 192.540,319.600 193.200 M72.087 193.700 C 72.706 194.305,73.435 194.795,73.706 194.788 C 73.978 194.781,73.840 194.577,73.400 194.333 C 72.960 194.090,72.231 193.600,71.781 193.245 C 71.330 192.890,71.468 193.095,72.087 193.700 M58.000 194.200 C 58.746 194.970,59.447 195.600,59.557 195.600 C 59.667 195.600,59.146 194.970,58.400 194.200 C 57.654 193.430,56.953 192.800,56.843 192.800 C 56.733 192.800,57.254 193.430,58.000 194.200 M299.168 194.100 C 299.049 194.960,299.110 195.450,299.312 195.248 C 299.505 195.055,299.598 194.381,299.519 193.749 C 299.387 192.691,299.359 192.719,299.168 194.100 M110.575 194.500 L 109.400 195.800 110.700 194.625 C 111.912 193.530,112.184 193.200,111.875 193.200 C 111.806 193.200,111.221 193.785,110.575 194.500 M330.575 194.500 L 329.400 195.800 330.700 194.625 C 331.415 193.979,332.000 193.394,332.000 193.325 C 332.000 193.016,331.670 193.288,330.575 194.500 M165.205 194.113 C 165.538 194.481,166.438 194.876,167.205 194.990 L 168.600 195.197 167.200 194.763 C 166.430 194.524,165.530 194.129,165.200 193.886 C 164.678 193.501,164.678 193.531,165.205 194.113 M78.400 194.506 C 78.400 194.857,77.995 195.222,77.500 195.318 L 76.600 195.491 77.513 195.546 C 78.392 195.598,79.162 194.629,78.649 194.116 C 78.512 193.979,78.400 194.154,78.400 194.506 M287.293 195.600 C 287.293 196.370,287.375 196.685,287.476 196.300 C 287.576 195.915,287.576 195.285,287.476 194.900 C 287.375 194.515,287.293 194.830,287.293 195.600 M124.706 195.083 C 125.229 195.184,125.499 195.440,125.344 195.690 C 125.183 195.951,125.263 196.008,125.545 195.834 C 126.234 195.408,125.688 194.792,124.676 194.854 C 123.807 194.909,123.807 194.910,124.706 195.083 M135.300 195.076 C 135.685 195.176,136.315 195.176,136.700 195.076 C 137.085 194.975,136.770 194.893,136.000 194.893 C 135.230 194.893,134.915 194.975,135.300 195.076 M270.200 196.800 C 270.046 197.710,270.004 198.538,270.107 198.640 C 270.210 198.743,270.413 198.077,270.560 197.160 C 270.707 196.243,270.748 195.415,270.653 195.320 C 270.558 195.224,270.354 195.890,270.200 196.800 M316.185 197.300 L 314.200 199.400 316.300 197.415 C 318.251 195.571,318.583 195.200,318.285 195.200 C 318.222 195.200,317.277 196.145,316.185 197.300 M375.429 195.800 C 376.372 198.507,376.765 199.330,376.766 198.600 C 376.766 198.160,376.403 197.170,375.959 196.400 C 375.514 195.630,375.276 195.360,375.429 195.800 M133.872 197.019 C 132.932 198.989,133.064 199.324,134.047 197.462 C 134.493 196.616,134.787 195.854,134.701 195.767 C 134.614 195.681,134.241 196.244,133.872 197.019 M233.178 197.100 L 231.800 198.600 233.300 197.222 C 234.696 195.938,234.984 195.600,234.678 195.600 C 234.612 195.600,233.937 196.275,233.178 197.100 M60.394 197.003 C 61.987 198.921,62.121 199.045,61.686 198.196 C 61.459 197.753,60.852 197.034,60.337 196.598 C 59.433 195.834,59.435 195.848,60.394 197.003 M350.000 197.000 C 347.639 198.264,348.148 198.266,350.860 197.004 C 352.037 196.456,352.730 196.014,352.400 196.022 C 352.070 196.030,350.990 196.470,350.000 197.000 M191.500 196.693 C 192.435 196.777,193.965 196.777,194.900 196.693 C 195.835 196.609,195.070 196.540,193.200 196.540 C 191.330 196.540,190.565 196.609,191.500 196.693 M99.822 198.222 C 99.672 199.025,99.628 199.762,99.726 199.860 C 99.824 199.957,100.027 199.381,100.178 198.578 C 100.328 197.775,100.372 197.038,100.274 196.940 C 100.176 196.843,99.973 197.419,99.822 198.222 M241.453 199.614 C 240.382 200.486,239.662 201.195,239.853 201.188 C 240.214 201.176,243.952 198.022,243.600 198.026 C 243.490 198.027,242.524 198.742,241.453 199.614 M256.920 200.800 C 256.920 202.010,256.995 202.505,257.087 201.900 C 257.178 201.295,257.178 200.305,257.087 199.700 C 256.995 199.095,256.920 199.590,256.920 200.800 M156.622 200.622 C 156.472 201.425,156.428 202.162,156.526 202.260 C 156.624 202.357,156.827 201.781,156.978 200.978 C 157.128 200.175,157.172 199.438,157.074 199.340 C 156.976 199.243,156.773 199.819,156.622 200.622 M286.249 200.215 C 286.112 200.573,286.018 201.256,286.041 201.733 C 286.067 202.281,286.203 202.086,286.410 201.203 C 286.760 199.716,286.665 199.133,286.249 200.215 M63.078 201.395 C 63.444 202.162,63.814 202.719,63.901 202.632 C 64.084 202.449,62.870 200.000,62.596 200.000 C 62.495 200.000,62.712 200.628,63.078 201.395 M297.802 201.300 C 297.658 202.015,297.455 202.960,297.351 203.400 C 297.204 204.020,297.245 204.065,297.530 203.600 C 297.949 202.916,298.532 200.000,298.250 200.000 C 298.147 200.000,297.946 200.585,297.802 201.300 M35.062 201.100 C 34.960 201.265,36.012 201.400,37.400 201.400 C 38.788 201.400,39.840 201.265,39.738 201.100 C 39.636 200.935,38.584 200.800,37.400 200.800 C 36.216 200.800,35.164 200.935,35.062 201.100 M321.200 202.449 C 319.806 203.671,319.805 203.672,321.088 202.819 C 321.796 202.348,322.482 201.791,322.612 201.581 C 322.997 200.957,322.677 201.154,321.200 202.449 M86.600 202.800 C 86.448 203.491,86.407 204.141,86.509 204.242 C 86.611 204.344,86.809 203.853,86.950 203.150 C 87.283 201.483,86.960 201.160,86.600 202.800 M308.788 204.700 L 306.200 207.400 308.900 204.812 C 310.385 203.388,311.600 202.173,311.600 202.112 C 311.600 201.817,311.193 202.192,308.788 204.700 M30.000 204.200 C 29.028 205.190,28.323 206.000,28.433 206.000 C 28.543 206.000,29.428 205.190,30.400 204.200 C 31.372 203.210,32.077 202.400,31.967 202.400 C 31.857 202.400,30.972 203.210,30.000 204.200 M377.328 205.200 C 377.328 206.630,377.401 207.215,377.489 206.500 C 377.578 205.785,377.578 204.615,377.489 203.900 C 377.401 203.185,377.328 203.770,377.328 205.200 M143.456 204.484 C 143.321 204.988,143.227 205.760,143.246 206.200 C 143.265 206.640,143.445 206.298,143.646 205.440 C 144.036 203.778,143.870 202.940,143.456 204.484 M234.567 205.029 L 233.000 206.458 234.700 205.162 C 236.253 203.978,236.632 203.600,236.267 203.600 C 236.193 203.600,235.428 204.243,234.567 205.029 M269.346 207.400 C 269.347 209.600,269.414 210.449,269.495 209.287 C 269.576 208.124,269.576 206.324,269.493 205.287 C 269.411 204.249,269.345 205.200,269.346 207.400 M347.800 203.803 C 348.685 204.111,353.172 204.229,352.704 203.932 C 352.427 203.756,351.120 203.624,349.800 203.638 C 348.480 203.652,347.580 203.726,347.800 203.803 M364.942 207.000 C 364.941 208.980,365.008 209.840,365.092 208.912 C 365.176 207.984,365.177 206.364,365.095 205.312 C 365.012 204.260,364.943 205.020,364.942 207.000 M49.949 204.600 C 50.165 205.040,50.634 205.760,50.993 206.200 L 51.644 207.000 51.251 206.200 C 51.035 205.760,50.566 205.040,50.207 204.600 L 49.556 203.800 49.949 204.600 M113.105 204.683 C 113.602 204.779,114.322 204.775,114.705 204.675 C 115.087 204.575,114.680 204.496,113.800 204.501 C 112.920 204.505,112.607 204.587,113.105 204.683 M155.400 206.000 C 155.248 206.691,155.207 207.341,155.309 207.442 C 155.411 207.544,155.609 207.053,155.750 206.350 C 155.891 205.647,155.931 204.998,155.841 204.908 C 155.750 204.817,155.552 205.309,155.400 206.000 M315.176 207.231 L 313.000 209.261 315.300 207.354 C 317.411 205.604,317.819 205.200,317.476 205.200 C 317.408 205.200,316.373 206.114,315.176 207.231 M284.629 206.629 C 284.481 207.215,284.438 207.772,284.532 207.866 C 284.627 207.960,284.824 207.558,284.971 206.971 C 285.119 206.385,285.162 205.828,285.068 205.734 C 284.973 205.640,284.776 206.042,284.629 206.629 M355.596 206.708 C 356.108 207.762,355.838 208.397,354.876 208.406 C 354.504 208.409,353.930 208.595,353.600 208.818 C 353.162 209.115,353.323 209.152,354.200 208.957 C 356.369 208.474,356.790 207.839,355.778 206.576 C 355.182 205.832,355.174 205.838,355.596 206.708 M27.381 207.637 C 27.029 208.318,26.812 208.945,26.899 209.032 C 26.986 209.119,27.356 208.562,27.722 207.795 C 28.544 206.070,28.259 205.938,27.381 207.637 M128.840 210.240 C 128.610 211.073,128.494 211.827,128.582 211.915 C 128.670 212.003,128.930 211.393,129.160 210.560 C 129.390 209.727,129.506 208.973,129.418 208.885 C 129.330 208.797,129.070 209.407,128.840 210.240 M142.200 210.400 C 142.046 211.310,142.004 212.138,142.107 212.240 C 142.210 212.343,142.413 211.677,142.560 210.760 C 142.707 209.843,142.748 209.015,142.653 208.920 C 142.558 208.824,142.354 209.490,142.200 210.400 M294.282 211.411 C 293.692 212.615,293.294 213.600,293.398 213.600 C 293.667 213.600,295.684 209.551,295.505 209.371 C 295.423 209.289,294.873 210.207,294.282 211.411 M97.249 210.200 C 97.216 210.640,97.096 211.450,96.983 212.000 L 96.777 213.000 97.206 212.019 C 97.442 211.479,97.561 210.669,97.472 210.219 C 97.313 209.421,97.307 209.421,97.249 210.200 M339.977 210.661 C 339.755 211.244,339.632 211.897,339.704 212.112 C 339.776 212.327,340.035 211.850,340.280 211.051 C 340.794 209.374,340.574 209.090,339.977 210.661 M350.575 210.900 L 349.400 212.200 350.700 211.025 C 351.415 210.379,352.000 209.794,352.000 209.725 C 352.000 209.416,351.670 209.688,350.575 210.900 M302.700 211.014 C 301.701 212.350,301.831 212.723,302.846 211.433 C 303.311 210.842,303.626 210.295,303.546 210.218 C 303.466 210.141,303.085 210.500,302.700 211.014 M36.388 211.222 C 36.146 211.674,36.007 212.222,36.080 212.439 C 36.152 212.657,36.418 212.287,36.671 211.617 C 37.197 210.225,37.039 210.005,36.388 211.222 M52.509 212.400 C 52.509 213.390,52.587 213.795,52.682 213.300 C 52.778 212.805,52.778 211.995,52.682 211.500 C 52.587 211.005,52.509 211.410,52.509 212.400 M256.909 212.400 C 256.909 213.390,256.987 213.795,257.082 213.300 C 257.178 212.805,257.178 211.995,257.082 211.500 C 256.987 211.005,256.909 211.410,256.909 212.400 M376.446 211.267 C 376.421 211.634,376.296 212.264,376.170 212.667 C 375.952 213.362,375.963 213.363,376.397 212.687 C 376.648 212.296,376.773 211.666,376.673 211.287 C 376.511 210.668,376.488 210.666,376.446 211.267 M26.128 214.000 C 26.128 215.430,26.201 216.015,26.289 215.300 C 26.378 214.585,26.378 213.415,26.289 212.700 C 26.201 211.985,26.128 212.570,26.128 214.000 M183.056 213.684 C 182.921 214.188,182.827 214.960,182.846 215.400 C 182.865 215.840,183.045 215.498,183.246 214.640 C 183.636 212.978,183.470 212.140,183.056 213.684 M308.726 213.802 C 308.122 215.127,308.086 215.117,312.000 214.774 L 315.400 214.477 312.100 214.541 C 310.285 214.577,308.800 214.548,308.800 214.477 C 308.800 214.406,308.986 213.999,309.214 213.574 C 309.442 213.148,309.528 212.800,309.405 212.800 C 309.283 212.800,308.977 213.251,308.726 213.802 M339.324 215.000 C 339.326 216.320,339.401 216.812,339.490 216.093 C 339.579 215.374,339.577 214.294,339.486 213.693 C 339.395 213.092,339.322 213.680,339.324 215.000 M281.223 214.650 C 280.753 215.448,280.433 216.166,280.513 216.246 C 280.592 216.326,281.061 215.673,281.554 214.796 C 282.675 212.802,282.388 212.677,281.223 214.650 M300.378 214.298 C 299.474 216.101,299.487 216.279,300.420 214.883 C 300.904 214.159,301.217 213.483,301.115 213.382 C 301.013 213.280,300.681 213.692,300.378 214.298 M153.649 214.600 C 153.616 215.040,153.496 215.850,153.383 216.400 L 153.177 217.400 153.606 216.419 C 153.842 215.879,153.961 215.069,153.872 214.619 C 153.713 213.821,153.707 213.821,153.649 214.600 M348.909 215.600 C 348.909 216.590,348.987 216.995,349.082 216.500 C 349.178 216.005,349.178 215.195,349.082 214.700 C 348.987 214.205,348.909 214.610,348.909 215.600 M83.800 215.600 C 83.648 216.291,83.607 216.941,83.709 217.042 C 83.811 217.144,84.009 216.653,84.150 215.950 C 84.483 214.283,84.160 213.960,83.800 215.600 M227.891 214.689 C 228.601 214.777,229.861 214.779,230.691 214.692 C 231.521 214.605,230.940 214.533,229.400 214.531 C 227.860 214.529,227.181 214.600,227.891 214.689 M232.900 215.076 C 233.285 215.176,233.915 215.176,234.300 215.076 C 234.685 214.975,234.370 214.893,233.600 214.893 C 232.830 214.893,232.515 214.975,232.900 215.076 M316.100 215.076 C 316.485 215.176,317.115 215.176,317.500 215.076 C 317.885 214.975,317.570 214.893,316.800 214.893 C 316.030 214.893,315.715 214.975,316.100 215.076 M240.711 216.293 C 241.651 216.378,243.091 216.377,243.911 216.291 C 244.730 216.205,243.960 216.136,242.200 216.137 C 240.440 216.139,239.770 216.209,240.711 216.293 M257.645 216.400 C 257.653 216.730,258.006 217.720,258.429 218.600 C 258.852 219.480,259.086 219.762,258.949 219.226 C 258.573 217.761,257.629 215.714,257.645 216.400 M323.911 216.293 C 324.851 216.378,326.291 216.377,327.111 216.291 C 327.930 216.205,327.160 216.136,325.400 216.137 C 323.640 216.139,322.970 216.209,323.911 216.293 M334.914 217.800 C 334.917 218.900,334.995 219.303,335.087 218.695 C 335.179 218.086,335.177 217.186,335.082 216.695 C 334.987 216.203,334.911 216.700,334.914 217.800 M63.053 217.700 L 62.333 219.000 63.158 218.000 C 63.889 217.113,64.214 216.400,63.886 216.400 C 63.824 216.400,63.449 216.985,63.053 217.700 M115.829 217.829 C 115.681 218.415,115.638 218.972,115.732 219.066 C 115.827 219.160,116.024 218.758,116.171 218.171 C 116.319 217.585,116.362 217.028,116.268 216.934 C 116.173 216.840,115.976 217.242,115.829 217.829 M49.517 219.241 C 48.482 220.318,47.710 221.200,47.803 221.200 C 48.167 221.200,50.853 218.648,51.229 217.945 C 51.777 216.922,51.664 217.007,49.517 219.241 M27.018 219.300 C 27.168 219.795,27.455 220.376,27.656 220.591 C 27.857 220.806,27.819 220.401,27.572 219.691 C 27.065 218.238,26.597 217.908,27.018 219.300 M276.841 219.834 C 276.093 220.365,275.678 220.800,275.919 220.800 C 276.159 220.800,276.860 220.356,277.478 219.813 C 278.891 218.569,278.608 218.579,276.841 219.834 M349.967 219.345 C 350.500 220.001,352.000 220.993,352.000 220.689 C 352.000 220.613,351.415 220.122,350.700 219.599 C 349.896 219.010,349.616 218.913,349.967 219.345 M370.985 220.900 L 369.000 223.000 371.100 221.015 C 373.051 219.171,373.383 218.800,373.085 218.800 C 373.022 218.800,372.077 219.745,370.985 220.900 M82.622 221.022 C 82.472 221.825,82.428 222.562,82.526 222.660 C 82.624 222.757,82.827 222.181,82.978 221.378 C 83.128 220.575,83.172 219.838,83.074 219.740 C 82.976 219.643,82.773 220.219,82.622 221.022 M59.978 221.900 L 58.600 223.400 60.100 222.022 C 61.496 220.738,61.784 220.400,61.478 220.400 C 61.412 220.400,60.737 221.075,59.978 221.900 M286.981 222.100 L 285.400 223.800 287.100 222.219 C 288.681 220.748,288.984 220.400,288.681 220.400 C 288.616 220.400,287.851 221.165,286.981 222.100 M45.000 221.600 L 43.400 221.886 44.876 221.943 C 45.688 221.974,46.464 221.820,46.600 221.600 C 46.736 221.380,46.792 221.226,46.724 221.257 C 46.656 221.288,45.880 221.442,45.000 221.600 M297.709 222.800 C 297.709 223.790,297.787 224.195,297.882 223.700 C 297.978 223.205,297.978 222.395,297.882 221.900 C 297.787 221.405,297.709 221.810,297.709 222.800 M341.117 221.800 C 341.345 222.240,342.132 223.140,342.866 223.799 L 344.200 224.998 342.801 223.399 C 342.032 222.520,341.245 221.620,341.052 221.400 C 340.860 221.180,340.889 221.360,341.117 221.800 M40.900 221.876 C 41.285 221.976,41.915 221.976,42.300 221.876 C 42.685 221.775,42.370 221.693,41.600 221.693 C 40.830 221.693,40.515 221.775,40.900 221.876 M114.650 222.850 C 114.306 224.568,114.346 230.097,114.706 230.659 C 114.868 230.911,115.000 228.976,115.000 226.359 C 115.000 221.078,115.001 221.093,114.650 222.850 M260.314 222.200 C 260.541 222.640,261.238 223.449,261.863 223.999 L 263.000 224.997 261.803 223.599 C 259.907 221.382,259.880 221.358,260.314 222.200 M332.626 223.913 C 331.215 225.603,331.188 225.675,332.360 224.600 C 333.471 223.582,334.688 221.970,334.314 222.013 C 334.251 222.020,333.492 222.875,332.626 223.913 M94.222 224.222 C 94.072 225.025,94.028 225.762,94.126 225.860 C 94.224 225.957,94.427 225.381,94.578 224.578 C 94.728 223.775,94.772 223.038,94.674 222.940 C 94.576 222.843,94.373 223.419,94.222 224.222 M248.975 224.500 L 247.800 225.800 249.100 224.625 C 249.815 223.979,250.400 223.394,250.400 223.325 C 250.400 223.016,250.070 223.288,248.975 224.500 M125.000 225.600 C 124.845 226.728,124.802 227.736,124.906 227.839 C 125.009 227.942,125.216 227.100,125.367 225.967 C 125.517 224.834,125.559 223.826,125.461 223.728 C 125.363 223.629,125.155 224.472,125.000 225.600 M365.600 224.600 C 364.610 225.130,363.942 225.572,364.116 225.582 C 364.541 225.606,367.600 224.034,367.600 223.792 C 367.600 223.527,367.617 223.520,365.600 224.600 M31.200 224.820 C 32.587 225.761,33.378 226.035,32.400 225.236 C 31.850 224.786,31.220 224.417,31.000 224.415 C 30.780 224.413,30.870 224.596,31.200 224.820 M223.300 224.687 C 223.905 224.778,224.895 224.778,225.500 224.687 C 226.105 224.595,225.610 224.520,224.400 224.520 C 223.190 224.520,222.695 224.595,223.300 224.687 M306.900 224.687 C 307.505 224.778,308.495 224.778,309.100 224.687 C 309.705 224.595,309.210 224.520,308.000 224.520 C 306.790 224.520,306.295 224.595,306.900 224.687 M219.400 225.200 C 218.381 225.638,219.432 225.638,220.800 225.200 C 221.604 224.943,221.643 224.877,221.000 224.868 C 220.560 224.862,219.840 225.011,219.400 225.200 M302.600 225.200 C 301.581 225.638,302.632 225.638,304.000 225.200 C 304.804 224.943,304.843 224.877,304.200 224.868 C 303.760 224.862,303.040 225.011,302.600 225.200 M311.600 225.200 C 312.150 225.376,312.960 225.520,313.400 225.520 C 314.033 225.520,313.992 225.454,313.200 225.200 C 312.650 225.024,311.840 224.880,311.400 224.880 C 310.767 224.880,310.808 224.946,311.600 225.200 M279.200 226.600 C 278.430 226.897,278.070 227.145,278.400 227.152 C 278.730 227.158,279.540 226.917,280.200 226.614 C 281.745 225.907,281.026 225.897,279.200 226.600 M234.600 226.800 C 235.040 226.989,235.760 227.138,236.200 227.132 C 236.843 227.123,236.804 227.057,236.000 226.800 C 234.632 226.362,233.581 226.362,234.600 226.800 M266.600 226.800 C 267.040 226.989,267.670 227.144,268.000 227.144 C 268.378 227.144,268.304 227.017,267.800 226.800 C 267.360 226.611,266.730 226.456,266.400 226.456 C 266.022 226.456,266.096 226.583,266.600 226.800 M350.100 227.076 C 350.485 227.176,351.115 227.176,351.500 227.076 C 351.885 226.975,351.570 226.893,350.800 226.893 C 350.030 226.893,349.715 226.975,350.100 227.076 M357.300 227.076 C 357.685 227.176,358.315 227.176,358.700 227.076 C 359.085 226.975,358.770 226.893,358.000 226.893 C 357.230 226.893,356.915 226.975,357.300 227.076 M239.705 227.887 C 240.314 227.979,241.214 227.977,241.705 227.882 C 242.197 227.787,241.700 227.711,240.600 227.714 C 239.500 227.717,239.097 227.795,239.705 227.887 M322.900 227.887 C 323.505 227.978,324.495 227.978,325.100 227.887 C 325.705 227.795,325.210 227.720,324.000 227.720 C 322.790 227.720,322.295 227.795,322.900 227.887 M41.513 228.295 C 42.676 228.376,44.476 228.376,45.513 228.293 C 46.551 228.211,45.600 228.145,43.400 228.146 C 41.200 228.147,40.351 228.214,41.513 228.295 M124.501 231.000 C 124.505 231.880,124.587 232.193,124.683 231.695 C 124.779 231.198,124.775 230.478,124.675 230.095 C 124.575 229.713,124.496 230.120,124.501 231.000 M124.940 234.498 C 124.973 235.322,125.135 235.997,125.300 235.998 C 125.686 236.001,125.639 234.828,125.211 233.800 C 124.959 233.194,124.894 233.363,124.940 234.498 M118.000 234.631 C 118.000 234.901,120.078 235.656,120.276 235.457 C 120.367 235.367,119.892 235.101,119.220 234.867 C 118.549 234.633,118.000 234.527,118.000 234.631 " stroke="none" fill="#c1dde6" fill-rule="evenodd"></path></g></svg>