<?xml version="1.0" standalone="no"?>
<!DOCTYPE svg PUBLIC "-//W3C//DTD SVG 20010904//EN"
 "http://www.w3.org/TR/2001/REC-SVG-20010904/DTD/svg10.dtd">
<svg version="1.0" xmlns="http://www.w3.org/2000/svg"
 width="490.000000pt" height="466.000000pt" viewBox="0 0 490.000000 466.000000"
 preserveAspectRatio="xMidYMid meet">

<g transform="translate(0.000000,466.000000) scale(0.100000,-0.100000)"
fill="#000000" stroke="none">
<path d="M415 4228 c-8 -25 -34 -132 -32 -134 1 0 36 -6 77 -13 169 -27 304
-129 432 -326 36 -55 219 -365 408 -690 189 -324 462 -792 607 -1039 144 -246
263 -452 263 -457 0 -5 134 -9 309 -9 l308 0 92 168 c50 92 91 171 91 174 0 9
-113 204 -910 1571 -111 192 -207 366 -213 388 -11 46 9 113 46 147 36 33 100
62 165 74 l60 11 16 63 c9 35 16 68 16 74 0 16 -1729 14 -1735 -2z"/>
<path d="M3204 4168 l-19 -73 116 -17 c204 -29 358 -110 389 -203 l12 -35 152
0 153 0 38 55 c67 98 164 156 304 185 l85 17 11 44 c7 24 15 56 18 72 l7 27
-623 0 -624 0 -19 -72z"/>
</g>
</svg>
